%TF.GenerationSoftware,KiCad,Pcbnew,(6.0.7)*%
%TF.CreationDate,2022-09-08T23:08:10+00:00*%
%TF.ProjectId,zzsplit-top,7a7a7370-6c69-4742-9d74-6f702e6b6963,rev?*%
%TF.SameCoordinates,Original*%
%TF.FileFunction,Drillmap*%
%TF.FilePolarity,Positive*%
%FSLAX45Y45*%
G04 Gerber Fmt 4.5, Leading zero omitted, Abs format (unit mm)*
G04 Created by KiCad (PCBNEW (6.0.7)) date 2022-09-08 23:08:10*
%MOMM*%
%LPD*%
G01*
G04 APERTURE LIST*
%ADD10C,0.150000*%
%ADD11C,0.100000*%
%ADD12C,0.200000*%
%ADD13C,0.220000*%
G04 APERTURE END LIST*
D10*
X6023873Y-4053160D02*
X7423873Y-4053160D01*
X7928873Y-5453160D02*
X7928873Y-4053160D01*
X12188873Y-5959160D02*
X12188873Y-7359160D01*
X15074873Y-9266160D02*
X16474873Y-9266160D01*
X16024873Y-11171160D02*
X17424873Y-11171160D01*
D11*
X21390865Y-13484161D02*
G75*
G03*
X21642873Y-13233160I1005J251001D01*
G01*
D10*
X13169873Y-9266160D02*
X13169873Y-7866160D01*
X11233873Y-4053160D02*
X11233873Y-5453160D01*
X14121873Y-9772160D02*
X15521873Y-9772160D01*
X12216873Y-9772160D02*
X13616873Y-9772160D01*
D11*
X19163870Y-8249160D02*
G75*
G03*
X19413873Y-8499160I250000J0D01*
G01*
D10*
X13643873Y-4053160D02*
X15043873Y-4053160D01*
X9351873Y-11679160D02*
X10751873Y-11679160D01*
X13643873Y-5453160D02*
X15043873Y-5453160D01*
X12216873Y-11172160D02*
X12216873Y-9772160D01*
X10283873Y-5959160D02*
X10283873Y-7359160D01*
X15787873Y-13077160D02*
X15787873Y-11677160D01*
X10751873Y-11679160D02*
X10751873Y-13079160D01*
X14093873Y-5959160D02*
X14093873Y-7359160D01*
D11*
X19169744Y-3846584D02*
X19163873Y-8249160D01*
D10*
X9328873Y-4053160D02*
X9328873Y-5453160D01*
X6500873Y-13080160D02*
X6500873Y-11680160D01*
X9351873Y-13079160D02*
X10751873Y-13079160D01*
X17187873Y-11677160D02*
X17187873Y-13077160D01*
X9833873Y-4053160D02*
X11233873Y-4053160D01*
X16503873Y-5959160D02*
X17903873Y-5959160D01*
X8883873Y-7359160D02*
X10283873Y-7359160D01*
X6499873Y-7357160D02*
X6499873Y-5957160D01*
X16948873Y-4053160D02*
X16948873Y-5453160D01*
X13138873Y-4053160D02*
X13138873Y-5453160D01*
X13643873Y-5453160D02*
X13643873Y-4053160D01*
X16024873Y-11171160D02*
X16024873Y-9771160D01*
X15521873Y-9772160D02*
X15521873Y-11172160D01*
X14598873Y-5959160D02*
X15998873Y-5959160D01*
X15787873Y-11677160D02*
X17187873Y-11677160D01*
X11738873Y-5453160D02*
X11738873Y-4053160D01*
X9833873Y-5453160D02*
X11233873Y-5453160D01*
X8139873Y-7863160D02*
X8139873Y-9263160D01*
X9359873Y-7866160D02*
X10759873Y-7866160D01*
X12215873Y-11678160D02*
X13615873Y-11678160D01*
X9359873Y-9266160D02*
X10759873Y-9266160D01*
X7900873Y-11680160D02*
X7900873Y-13080160D01*
X19358873Y-11678160D02*
X20758873Y-11678160D01*
X17187873Y-11677160D02*
X17187873Y-13077160D01*
D11*
X21640873Y-8756160D02*
X21643873Y-13233160D01*
D10*
X6500873Y-13080160D02*
X7900873Y-13080160D01*
X16979873Y-9266160D02*
X18379873Y-9266160D01*
X15548873Y-4053160D02*
X16948873Y-4053160D01*
X16024873Y-9771160D02*
X17424873Y-9771160D01*
D11*
X5799873Y-3594163D02*
G75*
G03*
X5549873Y-3844160I-3J-249997D01*
G01*
D10*
X6023873Y-5453160D02*
X6023873Y-4053160D01*
X7423873Y-4053160D02*
X7423873Y-5453160D01*
X18379873Y-7866160D02*
X18379873Y-9266160D01*
X16503873Y-7359160D02*
X16503873Y-5959160D01*
X11738873Y-4053160D02*
X13138873Y-4053160D01*
X14121873Y-11172160D02*
X15521873Y-11172160D01*
X6500873Y-11680160D02*
X7900873Y-11680160D01*
X14598873Y-7359160D02*
X14598873Y-5959160D01*
X13169873Y-9266160D02*
X14569873Y-9266160D01*
X6023873Y-5453160D02*
X7423873Y-5453160D01*
X16474873Y-7866160D02*
X16474873Y-9266160D01*
X15074873Y-9266160D02*
X15074873Y-7866160D01*
X13616873Y-9772160D02*
X13616873Y-11172160D01*
X15787873Y-13077160D02*
X17187873Y-13077160D01*
X19358873Y-13078160D02*
X20758873Y-13078160D01*
D11*
X5553870Y-13220160D02*
G75*
G03*
X5803873Y-13470160I250000J0D01*
G01*
D10*
X19331873Y-9772160D02*
X19331873Y-11172160D01*
X12693873Y-7359160D02*
X14093873Y-7359160D01*
X10788873Y-7359160D02*
X12188873Y-7359160D01*
X6739873Y-9263160D02*
X8139873Y-9263160D01*
D11*
X21390865Y-13484158D02*
X5803873Y-13470160D01*
D10*
X11264873Y-7866160D02*
X12664873Y-7866160D01*
X7215873Y-9775160D02*
X8615873Y-9775160D01*
X14121873Y-11172160D02*
X14121873Y-9772160D01*
X13615873Y-11678160D02*
X13615873Y-13078160D01*
X15548873Y-5453160D02*
X16948873Y-5453160D01*
X12215873Y-13078160D02*
X12215873Y-11678160D01*
X12693873Y-7359160D02*
X12693873Y-5959160D01*
X11264873Y-9266160D02*
X11264873Y-7866160D01*
X9351873Y-13079160D02*
X9351873Y-11679160D01*
X8883873Y-7359160D02*
X8883873Y-5959160D01*
X6739873Y-7863160D02*
X8139873Y-7863160D01*
X13169873Y-7866160D02*
X14569873Y-7866160D01*
X11738873Y-5453160D02*
X13138873Y-5453160D01*
X17931873Y-11172160D02*
X19331873Y-11172160D01*
X20758873Y-11678160D02*
X20758873Y-13078160D01*
X14598873Y-7359160D02*
X15998873Y-7359160D01*
X10759873Y-7866160D02*
X10759873Y-9266160D01*
X12216873Y-11172160D02*
X13616873Y-11172160D01*
X10311873Y-11172160D02*
X11711873Y-11172160D01*
X12215873Y-13078160D02*
X13615873Y-13078160D01*
X9833873Y-5453160D02*
X9833873Y-4053160D01*
X10311873Y-9772160D02*
X11711873Y-9772160D01*
D11*
X21639873Y-8757160D02*
G75*
G03*
X21391871Y-8501160I-248273J7610D01*
G01*
D10*
X7215873Y-11175160D02*
X7215873Y-9775160D01*
D11*
X5799873Y-3594160D02*
X18920742Y-3596584D01*
D10*
X17453873Y-5453160D02*
X18853873Y-5453160D01*
X8883873Y-5959160D02*
X10283873Y-5959160D01*
X7899873Y-5957160D02*
X7899873Y-7357160D01*
D11*
X19410871Y-8500160D02*
X21391871Y-8501160D01*
D10*
X17453873Y-4053160D02*
X18853873Y-4053160D01*
X17931873Y-11172160D02*
X17931873Y-9772160D01*
X6499873Y-5957160D02*
X7899873Y-5957160D01*
D11*
X5549873Y-3844160D02*
X5553873Y-13220160D01*
D10*
X17453873Y-5453160D02*
X17453873Y-4053160D01*
X8615873Y-9775160D02*
X8615873Y-11175160D01*
X6499873Y-7357160D02*
X7899873Y-7357160D01*
X10788873Y-7359160D02*
X10788873Y-5959160D01*
X7928873Y-5453160D02*
X9328873Y-5453160D01*
X6739873Y-9263160D02*
X6739873Y-7863160D01*
X14569873Y-7866160D02*
X14569873Y-9266160D01*
X17903873Y-5959160D02*
X17903873Y-7359160D01*
X15074873Y-7866160D02*
X16474873Y-7866160D01*
X16979873Y-7866160D02*
X18379873Y-7866160D01*
X18853873Y-4053160D02*
X18853873Y-5453160D01*
X12664873Y-7866160D02*
X12664873Y-9266160D01*
X10311873Y-11172160D02*
X10311873Y-9772160D01*
D11*
X19169748Y-3846584D02*
G75*
G03*
X18920742Y-3596584I-250008J-6D01*
G01*
D10*
X19358873Y-13078160D02*
X19358873Y-11678160D01*
X15998873Y-5959160D02*
X15998873Y-7359160D01*
X16503873Y-7359160D02*
X17903873Y-7359160D01*
X7215873Y-11175160D02*
X8615873Y-11175160D01*
X15787873Y-13077160D02*
X17187873Y-13077160D01*
X7928873Y-4053160D02*
X9328873Y-4053160D01*
X15548873Y-5453160D02*
X15548873Y-4053160D01*
X16979873Y-9266160D02*
X16979873Y-7866160D01*
X9359873Y-9266160D02*
X9359873Y-7866160D01*
X17931873Y-9772160D02*
X19331873Y-9772160D01*
X11264873Y-9266160D02*
X12664873Y-9266160D01*
X15043873Y-4053160D02*
X15043873Y-5453160D01*
X12693873Y-5959160D02*
X14093873Y-5959160D01*
X15787873Y-13077160D02*
X15787873Y-11677160D01*
X15787873Y-11677160D02*
X17187873Y-11677160D01*
X17424873Y-9771160D02*
X17424873Y-11171160D01*
X11711873Y-9772160D02*
X11711873Y-11172160D01*
X10788873Y-5959160D02*
X12188873Y-5959160D01*
D12*
D13*
X6357000Y-10315000D02*
X6577000Y-10535000D01*
X6577000Y-10315000D02*
X6357000Y-10535000D01*
X8235000Y-5885000D02*
X8455000Y-6105000D01*
X8455000Y-5885000D02*
X8235000Y-6105000D01*
X18199000Y-12708000D02*
X18419000Y-12928000D01*
X18419000Y-12708000D02*
X18199000Y-12928000D01*
X18657000Y-5763000D02*
X18877000Y-5983000D01*
X18877000Y-5763000D02*
X18657000Y-5983000D01*
D12*
X5802492Y-13799639D02*
X5802492Y-13599639D01*
X5850111Y-13599639D01*
X5878682Y-13609163D01*
X5897730Y-13628210D01*
X5907254Y-13647258D01*
X5916778Y-13685353D01*
X5916778Y-13713925D01*
X5907254Y-13752020D01*
X5897730Y-13771068D01*
X5878682Y-13790115D01*
X5850111Y-13799639D01*
X5802492Y-13799639D01*
X6002492Y-13799639D02*
X6002492Y-13666306D01*
X6002492Y-13704401D02*
X6012016Y-13685353D01*
X6021539Y-13675829D01*
X6040587Y-13666306D01*
X6059635Y-13666306D01*
X6126301Y-13799639D02*
X6126301Y-13666306D01*
X6126301Y-13599639D02*
X6116778Y-13609163D01*
X6126301Y-13618687D01*
X6135825Y-13609163D01*
X6126301Y-13599639D01*
X6126301Y-13618687D01*
X6250111Y-13799639D02*
X6231063Y-13790115D01*
X6221539Y-13771068D01*
X6221539Y-13599639D01*
X6354873Y-13799639D02*
X6335825Y-13790115D01*
X6326301Y-13771068D01*
X6326301Y-13599639D01*
X6583444Y-13799639D02*
X6583444Y-13599639D01*
X6650111Y-13742496D01*
X6716778Y-13599639D01*
X6716778Y-13799639D01*
X6897730Y-13799639D02*
X6897730Y-13694877D01*
X6888206Y-13675829D01*
X6869159Y-13666306D01*
X6831063Y-13666306D01*
X6812016Y-13675829D01*
X6897730Y-13790115D02*
X6878682Y-13799639D01*
X6831063Y-13799639D01*
X6812016Y-13790115D01*
X6802492Y-13771068D01*
X6802492Y-13752020D01*
X6812016Y-13732972D01*
X6831063Y-13723449D01*
X6878682Y-13723449D01*
X6897730Y-13713925D01*
X6992968Y-13666306D02*
X6992968Y-13866306D01*
X6992968Y-13675829D02*
X7012016Y-13666306D01*
X7050111Y-13666306D01*
X7069159Y-13675829D01*
X7078682Y-13685353D01*
X7088206Y-13704401D01*
X7088206Y-13761544D01*
X7078682Y-13780591D01*
X7069159Y-13790115D01*
X7050111Y-13799639D01*
X7012016Y-13799639D01*
X6992968Y-13790115D01*
X7173920Y-13780591D02*
X7183444Y-13790115D01*
X7173920Y-13799639D01*
X7164397Y-13790115D01*
X7173920Y-13780591D01*
X7173920Y-13799639D01*
X7173920Y-13675829D02*
X7183444Y-13685353D01*
X7173920Y-13694877D01*
X7164397Y-13685353D01*
X7173920Y-13675829D01*
X7173920Y-13694877D01*
X5344873Y-14029163D02*
X5544873Y-14229163D01*
X5544873Y-14029163D02*
X5344873Y-14229163D01*
X5792968Y-14038687D02*
X5802492Y-14029163D01*
X5821539Y-14019639D01*
X5869159Y-14019639D01*
X5888206Y-14029163D01*
X5897730Y-14038687D01*
X5907254Y-14057734D01*
X5907254Y-14076782D01*
X5897730Y-14105353D01*
X5783444Y-14219639D01*
X5907254Y-14219639D01*
X5992968Y-14200591D02*
X6002492Y-14210115D01*
X5992968Y-14219639D01*
X5983444Y-14210115D01*
X5992968Y-14200591D01*
X5992968Y-14219639D01*
X6078682Y-14038687D02*
X6088206Y-14029163D01*
X6107254Y-14019639D01*
X6154873Y-14019639D01*
X6173920Y-14029163D01*
X6183444Y-14038687D01*
X6192968Y-14057734D01*
X6192968Y-14076782D01*
X6183444Y-14105353D01*
X6069159Y-14219639D01*
X6192968Y-14219639D01*
X6316778Y-14019639D02*
X6335825Y-14019639D01*
X6354873Y-14029163D01*
X6364397Y-14038687D01*
X6373920Y-14057734D01*
X6383444Y-14095829D01*
X6383444Y-14143449D01*
X6373920Y-14181544D01*
X6364397Y-14200591D01*
X6354873Y-14210115D01*
X6335825Y-14219639D01*
X6316778Y-14219639D01*
X6297730Y-14210115D01*
X6288206Y-14200591D01*
X6278682Y-14181544D01*
X6269159Y-14143449D01*
X6269159Y-14095829D01*
X6278682Y-14057734D01*
X6288206Y-14038687D01*
X6297730Y-14029163D01*
X6316778Y-14019639D01*
X6507254Y-14019639D02*
X6526301Y-14019639D01*
X6545349Y-14029163D01*
X6554873Y-14038687D01*
X6564397Y-14057734D01*
X6573920Y-14095829D01*
X6573920Y-14143449D01*
X6564397Y-14181544D01*
X6554873Y-14200591D01*
X6545349Y-14210115D01*
X6526301Y-14219639D01*
X6507254Y-14219639D01*
X6488206Y-14210115D01*
X6478682Y-14200591D01*
X6469159Y-14181544D01*
X6459635Y-14143449D01*
X6459635Y-14095829D01*
X6469159Y-14057734D01*
X6478682Y-14038687D01*
X6488206Y-14029163D01*
X6507254Y-14019639D01*
X6659635Y-14219639D02*
X6659635Y-14086306D01*
X6659635Y-14105353D02*
X6669159Y-14095829D01*
X6688206Y-14086306D01*
X6716778Y-14086306D01*
X6735825Y-14095829D01*
X6745349Y-14114877D01*
X6745349Y-14219639D01*
X6745349Y-14114877D02*
X6754873Y-14095829D01*
X6773920Y-14086306D01*
X6802492Y-14086306D01*
X6821539Y-14095829D01*
X6831063Y-14114877D01*
X6831063Y-14219639D01*
X6926301Y-14219639D02*
X6926301Y-14086306D01*
X6926301Y-14105353D02*
X6935825Y-14095829D01*
X6954873Y-14086306D01*
X6983444Y-14086306D01*
X7002492Y-14095829D01*
X7012016Y-14114877D01*
X7012016Y-14219639D01*
X7012016Y-14114877D02*
X7021539Y-14095829D01*
X7040587Y-14086306D01*
X7069159Y-14086306D01*
X7088206Y-14095829D01*
X7097730Y-14114877D01*
X7097730Y-14219639D01*
X7488206Y-14010115D02*
X7316778Y-14267258D01*
X7745349Y-14019639D02*
X7764397Y-14019639D01*
X7783444Y-14029163D01*
X7792968Y-14038687D01*
X7802492Y-14057734D01*
X7812016Y-14095829D01*
X7812016Y-14143449D01*
X7802492Y-14181544D01*
X7792968Y-14200591D01*
X7783444Y-14210115D01*
X7764397Y-14219639D01*
X7745349Y-14219639D01*
X7726301Y-14210115D01*
X7716778Y-14200591D01*
X7707254Y-14181544D01*
X7697730Y-14143449D01*
X7697730Y-14095829D01*
X7707254Y-14057734D01*
X7716778Y-14038687D01*
X7726301Y-14029163D01*
X7745349Y-14019639D01*
X7897730Y-14200591D02*
X7907254Y-14210115D01*
X7897730Y-14219639D01*
X7888206Y-14210115D01*
X7897730Y-14200591D01*
X7897730Y-14219639D01*
X8031063Y-14019639D02*
X8050111Y-14019639D01*
X8069159Y-14029163D01*
X8078682Y-14038687D01*
X8088206Y-14057734D01*
X8097730Y-14095829D01*
X8097730Y-14143449D01*
X8088206Y-14181544D01*
X8078682Y-14200591D01*
X8069159Y-14210115D01*
X8050111Y-14219639D01*
X8031063Y-14219639D01*
X8012016Y-14210115D01*
X8002492Y-14200591D01*
X7992968Y-14181544D01*
X7983444Y-14143449D01*
X7983444Y-14095829D01*
X7992968Y-14057734D01*
X8002492Y-14038687D01*
X8012016Y-14029163D01*
X8031063Y-14019639D01*
X8212016Y-14105353D02*
X8192968Y-14095829D01*
X8183444Y-14086306D01*
X8173920Y-14067258D01*
X8173920Y-14057734D01*
X8183444Y-14038687D01*
X8192968Y-14029163D01*
X8212016Y-14019639D01*
X8250111Y-14019639D01*
X8269159Y-14029163D01*
X8278682Y-14038687D01*
X8288206Y-14057734D01*
X8288206Y-14067258D01*
X8278682Y-14086306D01*
X8269159Y-14095829D01*
X8250111Y-14105353D01*
X8212016Y-14105353D01*
X8192968Y-14114877D01*
X8183444Y-14124401D01*
X8173920Y-14143449D01*
X8173920Y-14181544D01*
X8183444Y-14200591D01*
X8192968Y-14210115D01*
X8212016Y-14219639D01*
X8250111Y-14219639D01*
X8269159Y-14210115D01*
X8278682Y-14200591D01*
X8288206Y-14181544D01*
X8288206Y-14143449D01*
X8278682Y-14124401D01*
X8269159Y-14114877D01*
X8250111Y-14105353D01*
X8459635Y-14019639D02*
X8421540Y-14019639D01*
X8402492Y-14029163D01*
X8392968Y-14038687D01*
X8373920Y-14067258D01*
X8364397Y-14105353D01*
X8364397Y-14181544D01*
X8373920Y-14200591D01*
X8383444Y-14210115D01*
X8402492Y-14219639D01*
X8440587Y-14219639D01*
X8459635Y-14210115D01*
X8469159Y-14200591D01*
X8478682Y-14181544D01*
X8478682Y-14133925D01*
X8469159Y-14114877D01*
X8459635Y-14105353D01*
X8440587Y-14095829D01*
X8402492Y-14095829D01*
X8383444Y-14105353D01*
X8373920Y-14114877D01*
X8364397Y-14133925D01*
X8650111Y-14019639D02*
X8612016Y-14019639D01*
X8592968Y-14029163D01*
X8583444Y-14038687D01*
X8564397Y-14067258D01*
X8554873Y-14105353D01*
X8554873Y-14181544D01*
X8564397Y-14200591D01*
X8573921Y-14210115D01*
X8592968Y-14219639D01*
X8631063Y-14219639D01*
X8650111Y-14210115D01*
X8659635Y-14200591D01*
X8669159Y-14181544D01*
X8669159Y-14133925D01*
X8659635Y-14114877D01*
X8650111Y-14105353D01*
X8631063Y-14095829D01*
X8592968Y-14095829D01*
X8573921Y-14105353D01*
X8564397Y-14114877D01*
X8554873Y-14133925D01*
X8745349Y-14019639D02*
X8745349Y-14057734D01*
X8821540Y-14019639D02*
X8821540Y-14057734D01*
X9116778Y-14295829D02*
X9107254Y-14286306D01*
X9088206Y-14257734D01*
X9078682Y-14238687D01*
X9069159Y-14210115D01*
X9059635Y-14162496D01*
X9059635Y-14124401D01*
X9069159Y-14076782D01*
X9078682Y-14048210D01*
X9088206Y-14029163D01*
X9107254Y-14000591D01*
X9116778Y-13991068D01*
X9278682Y-14086306D02*
X9278682Y-14219639D01*
X9231063Y-14010115D02*
X9183444Y-14152972D01*
X9307254Y-14152972D01*
X9535825Y-14219639D02*
X9535825Y-14019639D01*
X9621540Y-14219639D02*
X9621540Y-14114877D01*
X9612016Y-14095829D01*
X9592968Y-14086306D01*
X9564397Y-14086306D01*
X9545349Y-14095829D01*
X9535825Y-14105353D01*
X9745349Y-14219639D02*
X9726301Y-14210115D01*
X9716778Y-14200591D01*
X9707254Y-14181544D01*
X9707254Y-14124401D01*
X9716778Y-14105353D01*
X9726301Y-14095829D01*
X9745349Y-14086306D01*
X9773921Y-14086306D01*
X9792968Y-14095829D01*
X9802492Y-14105353D01*
X9812016Y-14124401D01*
X9812016Y-14181544D01*
X9802492Y-14200591D01*
X9792968Y-14210115D01*
X9773921Y-14219639D01*
X9745349Y-14219639D01*
X9926301Y-14219639D02*
X9907254Y-14210115D01*
X9897730Y-14191068D01*
X9897730Y-14019639D01*
X10078682Y-14210115D02*
X10059635Y-14219639D01*
X10021540Y-14219639D01*
X10002492Y-14210115D01*
X9992968Y-14191068D01*
X9992968Y-14114877D01*
X10002492Y-14095829D01*
X10021540Y-14086306D01*
X10059635Y-14086306D01*
X10078682Y-14095829D01*
X10088206Y-14114877D01*
X10088206Y-14133925D01*
X9992968Y-14152972D01*
X10164397Y-14210115D02*
X10183444Y-14219639D01*
X10221540Y-14219639D01*
X10240587Y-14210115D01*
X10250111Y-14191068D01*
X10250111Y-14181544D01*
X10240587Y-14162496D01*
X10221540Y-14152972D01*
X10192968Y-14152972D01*
X10173921Y-14143449D01*
X10164397Y-14124401D01*
X10164397Y-14114877D01*
X10173921Y-14095829D01*
X10192968Y-14086306D01*
X10221540Y-14086306D01*
X10240587Y-14095829D01*
X10316778Y-14295829D02*
X10326301Y-14286306D01*
X10345349Y-14257734D01*
X10354873Y-14238687D01*
X10364397Y-14210115D01*
X10373921Y-14162496D01*
X10373921Y-14124401D01*
X10364397Y-14076782D01*
X10354873Y-14048210D01*
X10345349Y-14029163D01*
X10326301Y-14000591D01*
X10316778Y-13991068D01*
M02*
