G04 #@! TF.GenerationSoftware,KiCad,Pcbnew,(6.0.7)*
G04 #@! TF.CreationDate,2022-09-08T23:08:07+00:00*
G04 #@! TF.ProjectId,zzsplit-top,7a7a7370-6c69-4742-9d74-6f702e6b6963,rev?*
G04 #@! TF.SameCoordinates,Original*
G04 #@! TF.FileFunction,Legend,Bot*
G04 #@! TF.FilePolarity,Positive*
%FSLAX46Y46*%
G04 Gerber Fmt 4.6, Leading zero omitted, Abs format (unit mm)*
G04 Created by KiCad (PCBNEW (6.0.7)) date 2022-09-08 23:08:07*
%MOMM*%
%LPD*%
G01*
G04 APERTURE LIST*
G04 #@! TA.AperFunction,Profile*
%ADD10C,0.150000*%
G04 #@! TD*
G04 #@! TA.AperFunction,Profile*
%ADD11C,0.100000*%
G04 #@! TD*
%ADD12C,0.300000*%
%ADD13C,0.250000*%
%ADD14C,4.700000*%
G04 APERTURE END LIST*
D10*
X60238729Y-40531602D02*
X74238729Y-40531602D01*
X79288729Y-54531602D02*
X79288729Y-40531602D01*
X121888729Y-59591602D02*
X121888729Y-73591602D01*
X150748729Y-92661602D02*
X164748729Y-92661602D01*
X160248729Y-111711602D02*
X174248729Y-111711602D01*
D11*
X213908649Y-134841609D02*
G75*
G03*
X216428729Y-132331602I10051J2510009D01*
G01*
D10*
X131698729Y-92661602D02*
X131698729Y-78661602D01*
X112338729Y-40531602D02*
X112338729Y-54531602D01*
X141218729Y-97721602D02*
X155218729Y-97721602D01*
X122168729Y-97721602D02*
X136168729Y-97721602D01*
D11*
X191638698Y-82491602D02*
G75*
G03*
X194138729Y-84991602I2500002J2D01*
G01*
D10*
X136438729Y-40531602D02*
X150438729Y-40531602D01*
X93518729Y-116791602D02*
X107518729Y-116791602D01*
X136438729Y-54531602D02*
X150438729Y-54531602D01*
X122168729Y-111721602D02*
X122168729Y-97721602D01*
X102838729Y-59591602D02*
X102838729Y-73591602D01*
X157878729Y-130771602D02*
X157878729Y-116771602D01*
X107518729Y-116791602D02*
X107518729Y-130791602D01*
X140938729Y-59591602D02*
X140938729Y-73591602D01*
D11*
X191697436Y-38465843D02*
X191638729Y-82491602D01*
D10*
X93288729Y-40531602D02*
X93288729Y-54531602D01*
X65008729Y-130801602D02*
X65008729Y-116801602D01*
X93518729Y-130791602D02*
X107518729Y-130791602D01*
X171878729Y-116771602D02*
X171878729Y-130771602D01*
X98338729Y-40531602D02*
X112338729Y-40531602D01*
X165038729Y-59591602D02*
X179038729Y-59591602D01*
X88838729Y-73591602D02*
X102838729Y-73591602D01*
X64998729Y-73571602D02*
X64998729Y-59571602D01*
X169488729Y-40531602D02*
X169488729Y-54531602D01*
X131388729Y-40531602D02*
X131388729Y-54531602D01*
X136438729Y-54531602D02*
X136438729Y-40531602D01*
X160248729Y-111711602D02*
X160248729Y-97711602D01*
X155218729Y-97721602D02*
X155218729Y-111721602D01*
X145988729Y-59591602D02*
X159988729Y-59591602D01*
X157878729Y-116771602D02*
X171878729Y-116771602D01*
X117388729Y-54531602D02*
X117388729Y-40531602D01*
X98338729Y-54531602D02*
X112338729Y-54531602D01*
X81398729Y-78631602D02*
X81398729Y-92631602D01*
X93598729Y-78661602D02*
X107598729Y-78661602D01*
X122158729Y-116781602D02*
X136158729Y-116781602D01*
X93598729Y-92661602D02*
X107598729Y-92661602D01*
X79008729Y-116801602D02*
X79008729Y-130801602D01*
X193588729Y-116781602D02*
X207588729Y-116781602D01*
X171878729Y-116771602D02*
X171878729Y-130771602D01*
D11*
X216408729Y-87561602D02*
X216438729Y-132331602D01*
D10*
X65008729Y-130801602D02*
X79008729Y-130801602D01*
X169798729Y-92661602D02*
X183798729Y-92661602D01*
X155488729Y-40531602D02*
X169488729Y-40531602D01*
X160248729Y-97711602D02*
X174248729Y-97711602D01*
D11*
X57998729Y-35941629D02*
G75*
G03*
X55498729Y-38441602I-29J-2499971D01*
G01*
D10*
X60238729Y-54531602D02*
X60238729Y-40531602D01*
X74238729Y-40531602D02*
X74238729Y-54531602D01*
X183798729Y-78661602D02*
X183798729Y-92661602D01*
X165038729Y-73591602D02*
X165038729Y-59591602D01*
X117388729Y-40531602D02*
X131388729Y-40531602D01*
X141218729Y-111721602D02*
X155218729Y-111721602D01*
X65008729Y-116801602D02*
X79008729Y-116801602D01*
X145988729Y-73591602D02*
X145988729Y-59591602D01*
X131698729Y-92661602D02*
X145698729Y-92661602D01*
X60238729Y-54531602D02*
X74238729Y-54531602D01*
X164748729Y-78661602D02*
X164748729Y-92661602D01*
X150748729Y-92661602D02*
X150748729Y-78661602D01*
X136168729Y-97721602D02*
X136168729Y-111721602D01*
X157878729Y-130771602D02*
X171878729Y-130771602D01*
X193588729Y-130781602D02*
X207588729Y-130781602D01*
D11*
X55538698Y-132201602D02*
G75*
G03*
X58038729Y-134701602I2500002J2D01*
G01*
D10*
X193318729Y-97721602D02*
X193318729Y-111721602D01*
X126938729Y-73591602D02*
X140938729Y-73591602D01*
X107888729Y-73591602D02*
X121888729Y-73591602D01*
X67398729Y-92631602D02*
X81398729Y-92631602D01*
D11*
X213908649Y-134841582D02*
X58038729Y-134701602D01*
D10*
X112648729Y-78661602D02*
X126648729Y-78661602D01*
X72158729Y-97751602D02*
X86158729Y-97751602D01*
X141218729Y-111721602D02*
X141218729Y-97721602D01*
X136158729Y-116781602D02*
X136158729Y-130781602D01*
X155488729Y-54531602D02*
X169488729Y-54531602D01*
X122158729Y-130781602D02*
X122158729Y-116781602D01*
X126938729Y-73591602D02*
X126938729Y-59591602D01*
X112648729Y-92661602D02*
X112648729Y-78661602D01*
X93518729Y-130791602D02*
X93518729Y-116791602D01*
X88838729Y-73591602D02*
X88838729Y-59591602D01*
X67398729Y-78631602D02*
X81398729Y-78631602D01*
X131698729Y-78661602D02*
X145698729Y-78661602D01*
X117388729Y-54531602D02*
X131388729Y-54531602D01*
X179318729Y-111721602D02*
X193318729Y-111721602D01*
X207588729Y-116781602D02*
X207588729Y-130781602D01*
X145988729Y-73591602D02*
X159988729Y-73591602D01*
X107598729Y-78661602D02*
X107598729Y-92661602D01*
X122168729Y-111721602D02*
X136168729Y-111721602D01*
X103118729Y-111721602D02*
X117118729Y-111721602D01*
X122158729Y-130781602D02*
X136158729Y-130781602D01*
X98338729Y-54531602D02*
X98338729Y-40531602D01*
X103118729Y-97721602D02*
X117118729Y-97721602D01*
D11*
X216398732Y-87571602D02*
G75*
G03*
X213918710Y-85011603I-2482732J76102D01*
G01*
D10*
X72158729Y-111751602D02*
X72158729Y-97751602D01*
D11*
X57998729Y-35941602D02*
X189207417Y-35965844D01*
D10*
X174538729Y-54531602D02*
X188538729Y-54531602D01*
X88838729Y-59591602D02*
X102838729Y-59591602D01*
X78998729Y-59571602D02*
X78998729Y-73571602D01*
D11*
X194108710Y-85001603D02*
X213918710Y-85011603D01*
D10*
X174538729Y-40531602D02*
X188538729Y-40531602D01*
X179318729Y-111721602D02*
X179318729Y-97721602D01*
X64998729Y-59571602D02*
X78998729Y-59571602D01*
D11*
X55498729Y-38441602D02*
X55538729Y-132201602D01*
D10*
X174538729Y-54531602D02*
X174538729Y-40531602D01*
X86158729Y-97751602D02*
X86158729Y-111751602D01*
X64998729Y-73571602D02*
X78998729Y-73571602D01*
X107888729Y-73591602D02*
X107888729Y-59591602D01*
X79288729Y-54531602D02*
X93288729Y-54531602D01*
X67398729Y-92631602D02*
X67398729Y-78631602D01*
X145698729Y-78661602D02*
X145698729Y-92661602D01*
X179038729Y-59591602D02*
X179038729Y-73591602D01*
X150748729Y-78661602D02*
X164748729Y-78661602D01*
X169798729Y-78661602D02*
X183798729Y-78661602D01*
X188538729Y-40531602D02*
X188538729Y-54531602D01*
X126648729Y-78661602D02*
X126648729Y-92661602D01*
X103118729Y-111721602D02*
X103118729Y-97721602D01*
D11*
X191697476Y-38465843D02*
G75*
G03*
X189207417Y-35965844I-2500076J-57D01*
G01*
D10*
X193588729Y-130781602D02*
X193588729Y-116781602D01*
X159988729Y-59591602D02*
X159988729Y-73591602D01*
X165038729Y-73591602D02*
X179038729Y-73591602D01*
X72158729Y-111751602D02*
X86158729Y-111751602D01*
X157878729Y-130771602D02*
X171878729Y-130771602D01*
X79288729Y-40531602D02*
X93288729Y-40531602D01*
X155488729Y-54531602D02*
X155488729Y-40531602D01*
X169798729Y-92661602D02*
X169798729Y-78661602D01*
X93598729Y-92661602D02*
X93598729Y-78661602D01*
X179318729Y-97721602D02*
X193318729Y-97721602D01*
X112648729Y-92661602D02*
X126648729Y-92661602D01*
X150438729Y-40531602D02*
X150438729Y-54531602D01*
X126938729Y-59591602D02*
X140938729Y-59591602D01*
X157878729Y-130771602D02*
X157878729Y-116771602D01*
X157878729Y-116771602D02*
X171878729Y-116771602D01*
X174248729Y-97711602D02*
X174248729Y-111711602D01*
X117118729Y-97721602D02*
X117118729Y-111721602D01*
X107888729Y-59591602D02*
X121888729Y-59591602D01*
D12*
X156733871Y-131767030D02*
X155717871Y-131767030D01*
X156733871Y-133291030D01*
X155717871Y-133291030D01*
X155282443Y-132275030D02*
X154484157Y-132275030D01*
X155282443Y-133291030D01*
X154484157Y-133291030D01*
X153976157Y-133218459D02*
X153758443Y-133291030D01*
X153395586Y-133291030D01*
X153250443Y-133218459D01*
X153177871Y-133145887D01*
X153105300Y-133000744D01*
X153105300Y-132855602D01*
X153177871Y-132710459D01*
X153250443Y-132637887D01*
X153395586Y-132565316D01*
X153685871Y-132492744D01*
X153831014Y-132420173D01*
X153903586Y-132347602D01*
X153976157Y-132202459D01*
X153976157Y-132057316D01*
X153903586Y-131912173D01*
X153831014Y-131839602D01*
X153685871Y-131767030D01*
X153323014Y-131767030D01*
X153105300Y-131839602D01*
X152452157Y-132275030D02*
X152452157Y-133799030D01*
X152452157Y-132347602D02*
X152307014Y-132275030D01*
X152016729Y-132275030D01*
X151871586Y-132347602D01*
X151799014Y-132420173D01*
X151726443Y-132565316D01*
X151726443Y-133000744D01*
X151799014Y-133145887D01*
X151871586Y-133218459D01*
X152016729Y-133291030D01*
X152307014Y-133291030D01*
X152452157Y-133218459D01*
X150855586Y-133291030D02*
X151000729Y-133218459D01*
X151073300Y-133073316D01*
X151073300Y-131767030D01*
X150275014Y-133291030D02*
X150275014Y-132275030D01*
X150275014Y-131767030D02*
X150347586Y-131839602D01*
X150275014Y-131912173D01*
X150202443Y-131839602D01*
X150275014Y-131767030D01*
X150275014Y-131912173D01*
X149767014Y-132275030D02*
X149186443Y-132275030D01*
X149549300Y-131767030D02*
X149549300Y-133073316D01*
X149476729Y-133218459D01*
X149331586Y-133291030D01*
X149186443Y-133291030D01*
X141711586Y-133291030D02*
X141711586Y-131767030D01*
X141058443Y-133291030D02*
X141058443Y-132492744D01*
X141131014Y-132347602D01*
X141276157Y-132275030D01*
X141493871Y-132275030D01*
X141639014Y-132347602D01*
X141711586Y-132420173D01*
X140550443Y-132275030D02*
X139969871Y-132275030D01*
X140332729Y-131767030D02*
X140332729Y-133073316D01*
X140260157Y-133218459D01*
X140115014Y-133291030D01*
X139969871Y-133291030D01*
X139679586Y-132275030D02*
X139099014Y-132275030D01*
X139461871Y-131767030D02*
X139461871Y-133073316D01*
X139389300Y-133218459D01*
X139244157Y-133291030D01*
X139099014Y-133291030D01*
X138591014Y-132275030D02*
X138591014Y-133799030D01*
X138591014Y-132347602D02*
X138445871Y-132275030D01*
X138155586Y-132275030D01*
X138010443Y-132347602D01*
X137937871Y-132420173D01*
X137865300Y-132565316D01*
X137865300Y-133000744D01*
X137937871Y-133145887D01*
X138010443Y-133218459D01*
X138155586Y-133291030D01*
X138445871Y-133291030D01*
X138591014Y-133218459D01*
X137284729Y-133218459D02*
X137139586Y-133291030D01*
X136849300Y-133291030D01*
X136704157Y-133218459D01*
X136631586Y-133073316D01*
X136631586Y-133000744D01*
X136704157Y-132855602D01*
X136849300Y-132783030D01*
X137067014Y-132783030D01*
X137212157Y-132710459D01*
X137284729Y-132565316D01*
X137284729Y-132492744D01*
X137212157Y-132347602D01*
X137067014Y-132275030D01*
X136849300Y-132275030D01*
X136704157Y-132347602D01*
X135978443Y-133145887D02*
X135905871Y-133218459D01*
X135978443Y-133291030D01*
X136051014Y-133218459D01*
X135978443Y-133145887D01*
X135978443Y-133291030D01*
X135978443Y-132347602D02*
X135905871Y-132420173D01*
X135978443Y-132492744D01*
X136051014Y-132420173D01*
X135978443Y-132347602D01*
X135978443Y-132492744D01*
X134164157Y-131694459D02*
X135470443Y-133653887D01*
X132567586Y-131694459D02*
X133873871Y-133653887D01*
X131406443Y-132275030D02*
X131406443Y-133508744D01*
X131479014Y-133653887D01*
X131551586Y-133726459D01*
X131696729Y-133799030D01*
X131914443Y-133799030D01*
X132059586Y-133726459D01*
X131406443Y-133218459D02*
X131551586Y-133291030D01*
X131841871Y-133291030D01*
X131987014Y-133218459D01*
X132059586Y-133145887D01*
X132132157Y-133000744D01*
X132132157Y-132565316D01*
X132059586Y-132420173D01*
X131987014Y-132347602D01*
X131841871Y-132275030D01*
X131551586Y-132275030D01*
X131406443Y-132347602D01*
X130680729Y-133291030D02*
X130680729Y-132275030D01*
X130680729Y-131767030D02*
X130753300Y-131839602D01*
X130680729Y-131912173D01*
X130608157Y-131839602D01*
X130680729Y-131767030D01*
X130680729Y-131912173D01*
X130172729Y-132275030D02*
X129592157Y-132275030D01*
X129955014Y-131767030D02*
X129955014Y-133073316D01*
X129882443Y-133218459D01*
X129737300Y-133291030D01*
X129592157Y-133291030D01*
X129084157Y-133291030D02*
X129084157Y-131767030D01*
X128431014Y-133291030D02*
X128431014Y-132492744D01*
X128503586Y-132347602D01*
X128648729Y-132275030D01*
X128866443Y-132275030D01*
X129011586Y-132347602D01*
X129084157Y-132420173D01*
X127052157Y-132275030D02*
X127052157Y-133291030D01*
X127705300Y-132275030D02*
X127705300Y-133073316D01*
X127632729Y-133218459D01*
X127487586Y-133291030D01*
X127269871Y-133291030D01*
X127124729Y-133218459D01*
X127052157Y-133145887D01*
X126326443Y-133291030D02*
X126326443Y-131767030D01*
X126326443Y-132347602D02*
X126181300Y-132275030D01*
X125891014Y-132275030D01*
X125745871Y-132347602D01*
X125673300Y-132420173D01*
X125600729Y-132565316D01*
X125600729Y-133000744D01*
X125673300Y-133145887D01*
X125745871Y-133218459D01*
X125891014Y-133291030D01*
X126181300Y-133291030D01*
X126326443Y-133218459D01*
X124947586Y-133145887D02*
X124875014Y-133218459D01*
X124947586Y-133291030D01*
X125020157Y-133218459D01*
X124947586Y-133145887D01*
X124947586Y-133291030D01*
X123568729Y-133218459D02*
X123713871Y-133291030D01*
X124004157Y-133291030D01*
X124149300Y-133218459D01*
X124221871Y-133145887D01*
X124294443Y-133000744D01*
X124294443Y-132565316D01*
X124221871Y-132420173D01*
X124149300Y-132347602D01*
X124004157Y-132275030D01*
X123713871Y-132275030D01*
X123568729Y-132347602D01*
X122697871Y-133291030D02*
X122843014Y-133218459D01*
X122915586Y-133145887D01*
X122988157Y-133000744D01*
X122988157Y-132565316D01*
X122915586Y-132420173D01*
X122843014Y-132347602D01*
X122697871Y-132275030D01*
X122480157Y-132275030D01*
X122335014Y-132347602D01*
X122262443Y-132420173D01*
X122189871Y-132565316D01*
X122189871Y-133000744D01*
X122262443Y-133145887D01*
X122335014Y-133218459D01*
X122480157Y-133291030D01*
X122697871Y-133291030D01*
X121536729Y-133291030D02*
X121536729Y-132275030D01*
X121536729Y-132420173D02*
X121464157Y-132347602D01*
X121319014Y-132275030D01*
X121101300Y-132275030D01*
X120956157Y-132347602D01*
X120883586Y-132492744D01*
X120883586Y-133291030D01*
X120883586Y-132492744D02*
X120811014Y-132347602D01*
X120665871Y-132275030D01*
X120448157Y-132275030D01*
X120303014Y-132347602D01*
X120230443Y-132492744D01*
X120230443Y-133291030D01*
X118416157Y-131694459D02*
X119722443Y-133653887D01*
X118053300Y-132275030D02*
X117255014Y-132275030D01*
X118053300Y-133291030D01*
X117255014Y-133291030D01*
X116819586Y-132275030D02*
X116021300Y-132275030D01*
X116819586Y-133291030D01*
X116021300Y-133291030D01*
X114715014Y-133291030D02*
X115440729Y-133291030D01*
X115440729Y-131767030D01*
X114207014Y-133291030D02*
X114207014Y-132275030D01*
X114207014Y-131767030D02*
X114279586Y-131839602D01*
X114207014Y-131912173D01*
X114134443Y-131839602D01*
X114207014Y-131767030D01*
X114207014Y-131912173D01*
X113481300Y-132275030D02*
X113481300Y-133291030D01*
X113481300Y-132420173D02*
X113408729Y-132347602D01*
X113263586Y-132275030D01*
X113045871Y-132275030D01*
X112900729Y-132347602D01*
X112828157Y-132492744D01*
X112828157Y-133291030D01*
X111449300Y-132275030D02*
X111449300Y-133291030D01*
X112102443Y-132275030D02*
X112102443Y-133073316D01*
X112029871Y-133218459D01*
X111884729Y-133291030D01*
X111667014Y-133291030D01*
X111521871Y-133218459D01*
X111449300Y-133145887D01*
X110796157Y-133218459D02*
X110651014Y-133291030D01*
X110360729Y-133291030D01*
X110215586Y-133218459D01*
X110143014Y-133073316D01*
X110143014Y-133000744D01*
X110215586Y-132855602D01*
X110360729Y-132783030D01*
X110578443Y-132783030D01*
X110723586Y-132710459D01*
X110796157Y-132565316D01*
X110796157Y-132492744D01*
X110723586Y-132347602D01*
X110578443Y-132275030D01*
X110360729Y-132275030D01*
X110215586Y-132347602D01*
X108401300Y-131694459D02*
X109707586Y-133653887D01*
X108038443Y-131767030D02*
X107022443Y-131767030D01*
X108038443Y-133291030D01*
X107022443Y-133291030D01*
X106587014Y-132275030D02*
X105788729Y-132275030D01*
X106587014Y-133291030D01*
X105788729Y-133291030D01*
X105280729Y-133218459D02*
X105063014Y-133291030D01*
X104700157Y-133291030D01*
X104555014Y-133218459D01*
X104482443Y-133145887D01*
X104409871Y-133000744D01*
X104409871Y-132855602D01*
X104482443Y-132710459D01*
X104555014Y-132637887D01*
X104700157Y-132565316D01*
X104990443Y-132492744D01*
X105135586Y-132420173D01*
X105208157Y-132347602D01*
X105280729Y-132202459D01*
X105280729Y-132057316D01*
X105208157Y-131912173D01*
X105135586Y-131839602D01*
X104990443Y-131767030D01*
X104627586Y-131767030D01*
X104409871Y-131839602D01*
X103756729Y-132275030D02*
X103756729Y-133799030D01*
X103756729Y-132347602D02*
X103611586Y-132275030D01*
X103321300Y-132275030D01*
X103176157Y-132347602D01*
X103103586Y-132420173D01*
X103031014Y-132565316D01*
X103031014Y-133000744D01*
X103103586Y-133145887D01*
X103176157Y-133218459D01*
X103321300Y-133291030D01*
X103611586Y-133291030D01*
X103756729Y-133218459D01*
X102160157Y-133291030D02*
X102305300Y-133218459D01*
X102377871Y-133073316D01*
X102377871Y-131767030D01*
X101579586Y-133291030D02*
X101579586Y-132275030D01*
X101579586Y-131767030D02*
X101652157Y-131839602D01*
X101579586Y-131912173D01*
X101507014Y-131839602D01*
X101579586Y-131767030D01*
X101579586Y-131912173D01*
X101071586Y-132275030D02*
X100491014Y-132275030D01*
X100853871Y-131767030D02*
X100853871Y-133073316D01*
X100781300Y-133218459D01*
X100636157Y-133291030D01*
X100491014Y-133291030D01*
D13*
X148393490Y-133118744D02*
X148345871Y-133166363D01*
X148393490Y-133213982D01*
X148441109Y-133166363D01*
X148393490Y-133118744D01*
X148393490Y-133213982D01*
X148060157Y-132213982D02*
X147726824Y-133213982D01*
X147393490Y-132213982D01*
X146536348Y-133213982D02*
X147107776Y-133213982D01*
X146822062Y-133213982D02*
X146822062Y-132213982D01*
X146917300Y-132356840D01*
X147012538Y-132452078D01*
X147107776Y-132499697D01*
G36*
X182090366Y-61274868D02*
G01*
X182370808Y-61282181D01*
X182527676Y-61306559D01*
X182596064Y-61357357D01*
X182611062Y-61443936D01*
X182611020Y-61450077D01*
X182580207Y-61554793D01*
X182463754Y-61610712D01*
X182219893Y-61638625D01*
X181828723Y-61663982D01*
X182198726Y-62227322D01*
X182396774Y-62546144D01*
X182529519Y-62817984D01*
X182564322Y-63004098D01*
X182508817Y-63126625D01*
X182409674Y-63152585D01*
X182187573Y-63166001D01*
X181894983Y-63161903D01*
X181623630Y-63145512D01*
X181441976Y-63115339D01*
X181360123Y-63060467D01*
X181341062Y-62967936D01*
X181344200Y-62923751D01*
X181416931Y-62818543D01*
X181616229Y-62772071D01*
X181636831Y-62769924D01*
X181817295Y-62734369D01*
X181891395Y-62688138D01*
X181855886Y-62609678D01*
X181746454Y-62428746D01*
X181588862Y-62191471D01*
X181497568Y-62052292D01*
X181345962Y-61748417D01*
X181313696Y-61513404D01*
X181326968Y-61418899D01*
X181365588Y-61335629D01*
X181461816Y-61292774D01*
X181652893Y-61276907D01*
X181976062Y-61274602D01*
X182090366Y-61274868D01*
G37*
G36*
X181154935Y-62324608D02*
G01*
X181184356Y-62363499D01*
X181189078Y-62513756D01*
X181074370Y-62660603D01*
X180870894Y-62757332D01*
X180771481Y-62787221D01*
X180747693Y-62835065D01*
X180829172Y-62927140D01*
X181030086Y-63093349D01*
X181105631Y-63156056D01*
X181306678Y-63366897D01*
X181349861Y-63522754D01*
X181234346Y-63630726D01*
X180959305Y-63697912D01*
X180563089Y-63740436D01*
X180277760Y-63735989D01*
X180119741Y-63676971D01*
X180071062Y-63560602D01*
X180102279Y-63448324D01*
X180261562Y-63364214D01*
X180327345Y-63352524D01*
X180435036Y-63295145D01*
X180405389Y-63187330D01*
X180236874Y-63006961D01*
X180203180Y-62974319D01*
X180052320Y-62766397D01*
X180060043Y-62596875D01*
X180229583Y-62459234D01*
X180564171Y-62346956D01*
X180856031Y-62286037D01*
X181048734Y-62277049D01*
X181154935Y-62324608D01*
G37*
G36*
X189088062Y-69066395D02*
G01*
X189087941Y-69232124D01*
X189085267Y-69849857D01*
X189079443Y-70406346D01*
X189070932Y-70879975D01*
X189060198Y-71249126D01*
X189047706Y-71492181D01*
X189033920Y-71587523D01*
X188975741Y-71621654D01*
X188926088Y-71580880D01*
X188888886Y-71444802D01*
X188862610Y-71198628D01*
X188845732Y-70827565D01*
X188836725Y-70316822D01*
X188834062Y-69651605D01*
X188834062Y-67751602D01*
X185870729Y-67751602D01*
X185870729Y-68165877D01*
X185871703Y-68236160D01*
X185905396Y-68505360D01*
X185984696Y-68623885D01*
X186025199Y-68651352D01*
X186167410Y-68789620D01*
X186368426Y-69012942D01*
X186598529Y-69289110D01*
X186926085Y-69696366D01*
X187098395Y-69910602D01*
X187056062Y-70737132D01*
X187042362Y-70951609D01*
X187009619Y-71269349D01*
X186970149Y-71484258D01*
X186929062Y-71563101D01*
X186911930Y-71549454D01*
X186872226Y-71410957D01*
X186840010Y-71150036D01*
X186820052Y-70800071D01*
X186795708Y-70037602D01*
X186550249Y-70037602D01*
X186415524Y-70047727D01*
X186316855Y-70121753D01*
X186278260Y-70312769D01*
X186276059Y-70333188D01*
X186231884Y-70513775D01*
X186167062Y-70587936D01*
X186160706Y-70587180D01*
X186096755Y-70500202D01*
X186055864Y-70312769D01*
X186029333Y-70037602D01*
X184438518Y-70037602D01*
X184413790Y-70693769D01*
X184413663Y-70697131D01*
X184387856Y-71064344D01*
X184348727Y-71267579D01*
X184302196Y-71311059D01*
X184254183Y-71199005D01*
X184210610Y-70935639D01*
X184177395Y-70525184D01*
X184173557Y-70457886D01*
X184131844Y-70007457D01*
X184065063Y-69682542D01*
X183965729Y-69444936D01*
X183796395Y-69148602D01*
X183754062Y-69637045D01*
X183729903Y-69854678D01*
X183682798Y-70074678D01*
X183631543Y-70135537D01*
X183582642Y-70043167D01*
X183542598Y-69803479D01*
X183517912Y-69422384D01*
X183512924Y-69253256D01*
X183511443Y-68950961D01*
X183516949Y-68894602D01*
X183866588Y-68894602D01*
X184151473Y-69339102D01*
X184436359Y-69783602D01*
X185581678Y-69783602D01*
X186023259Y-69784899D01*
X186356864Y-69780416D01*
X186551356Y-69755724D01*
X186622410Y-69696366D01*
X186585706Y-69587887D01*
X186456920Y-69415831D01*
X186251729Y-69165740D01*
X186110048Y-69004803D01*
X185932698Y-68876840D01*
X185779131Y-68890790D01*
X185618420Y-69040538D01*
X185465969Y-69228808D01*
X184915537Y-69034489D01*
X184621542Y-68944840D01*
X184324003Y-68881409D01*
X184115846Y-68867386D01*
X183866588Y-68894602D01*
X183516949Y-68894602D01*
X183529268Y-68768513D01*
X183571918Y-68671232D01*
X183644912Y-68624436D01*
X183729740Y-68581464D01*
X183864103Y-68456487D01*
X183917839Y-68403673D01*
X184106170Y-68352039D01*
X184341241Y-68376057D01*
X184553411Y-68473962D01*
X184656560Y-68533448D01*
X184858986Y-68591364D01*
X185055447Y-68599062D01*
X185193844Y-68557146D01*
X185222075Y-68466218D01*
X185219653Y-68371284D01*
X185351732Y-68287010D01*
X185490159Y-68196807D01*
X185532062Y-67995727D01*
X185532062Y-67751602D01*
X182741302Y-67751602D01*
X182718515Y-69614373D01*
X182711101Y-70074114D01*
X182693896Y-70678217D01*
X182671408Y-71114151D01*
X182645014Y-71382533D01*
X182616095Y-71483976D01*
X182586028Y-71419099D01*
X182556191Y-71188514D01*
X182527964Y-70792840D01*
X182502724Y-70232691D01*
X182481851Y-69508682D01*
X182437307Y-67539936D01*
X182421517Y-67497602D01*
X182738062Y-67497602D01*
X185532062Y-67497602D01*
X185870729Y-67497602D01*
X188834062Y-67497602D01*
X188834062Y-66735602D01*
X185870729Y-66735602D01*
X185870729Y-67497602D01*
X185532062Y-67497602D01*
X185532062Y-66735602D01*
X182738062Y-66735602D01*
X182738062Y-67497602D01*
X182421517Y-67497602D01*
X182042559Y-66481602D01*
X181647811Y-65423269D01*
X181621436Y-67201269D01*
X181610391Y-67748561D01*
X181592226Y-68269591D01*
X181569022Y-68656121D01*
X181541504Y-68896548D01*
X181510395Y-68979269D01*
X181508490Y-68978862D01*
X181482617Y-68887607D01*
X181459811Y-68654117D01*
X181440276Y-68303707D01*
X181424215Y-67861693D01*
X181411834Y-67353391D01*
X181403336Y-66804116D01*
X181398926Y-66239184D01*
X181398807Y-65683910D01*
X181403185Y-65163611D01*
X181412262Y-64703602D01*
X181416419Y-64592293D01*
X181652391Y-64592293D01*
X181687064Y-64734644D01*
X181766157Y-64995629D01*
X181880565Y-65346039D01*
X182021186Y-65756667D01*
X182082138Y-65930424D01*
X182241630Y-66376504D01*
X182356019Y-66678935D01*
X182430854Y-66850899D01*
X182471685Y-66905578D01*
X182484062Y-66856157D01*
X182483504Y-66849497D01*
X182449738Y-66724824D01*
X182372530Y-66489067D01*
X182264227Y-66176116D01*
X182137180Y-65819861D01*
X182003735Y-65454191D01*
X181876241Y-65112997D01*
X181767046Y-64830168D01*
X181688499Y-64639593D01*
X181652947Y-64575162D01*
X181652391Y-64592293D01*
X181416419Y-64592293D01*
X181426244Y-64329199D01*
X181443592Y-64089769D01*
X181806326Y-64089769D01*
X181810787Y-64112330D01*
X181856934Y-64267394D01*
X181945180Y-64539910D01*
X182065656Y-64899767D01*
X182208493Y-65316856D01*
X182611062Y-66480443D01*
X184113895Y-66481023D01*
X184549106Y-66478056D01*
X184975837Y-66468089D01*
X185313953Y-66452350D01*
X185536551Y-66432134D01*
X185616729Y-66408733D01*
X185593236Y-66392208D01*
X185439436Y-66371493D01*
X185173834Y-66365134D01*
X184833562Y-66374743D01*
X184050395Y-66413621D01*
X184002206Y-66363661D01*
X185955395Y-66363661D01*
X185965135Y-66392044D01*
X185996087Y-66408733D01*
X186033774Y-66429054D01*
X186186402Y-66454727D01*
X186444343Y-66470850D01*
X186828919Y-66479212D01*
X187361454Y-66481602D01*
X187655258Y-66481326D01*
X188092439Y-66478325D01*
X188395073Y-66469983D01*
X188585897Y-66453813D01*
X188687648Y-66427324D01*
X188723062Y-66388028D01*
X188714877Y-66333436D01*
X188711096Y-66322925D01*
X188654233Y-66170192D01*
X188552063Y-65899488D01*
X188417822Y-65545787D01*
X188264746Y-65144061D01*
X188225501Y-65041313D01*
X188073836Y-64649797D01*
X187963079Y-64386782D01*
X187877491Y-64227686D01*
X187801336Y-64147923D01*
X187718877Y-64122910D01*
X187614377Y-64128061D01*
X187535166Y-64138142D01*
X187445633Y-64171310D01*
X187437687Y-64180546D01*
X187375912Y-64252348D01*
X187311320Y-64410486D01*
X187237176Y-64674960D01*
X187138799Y-65075001D01*
X187105152Y-65211563D01*
X186980732Y-65653388D01*
X186907012Y-65836270D01*
X186860088Y-65952676D01*
X186729549Y-66129790D01*
X186575441Y-66205090D01*
X186384095Y-66198935D01*
X186223517Y-66182568D01*
X186026413Y-66229240D01*
X185955395Y-66363661D01*
X184002206Y-66363661D01*
X183713555Y-66064402D01*
X183666468Y-66014836D01*
X183489021Y-65789770D01*
X183481842Y-65756609D01*
X183946414Y-65756609D01*
X184047691Y-65885947D01*
X184146511Y-65970605D01*
X184336786Y-66036328D01*
X184635018Y-66049829D01*
X184775940Y-66044481D01*
X185067160Y-66019178D01*
X185278062Y-65982512D01*
X185398285Y-65937415D01*
X185470409Y-65836270D01*
X185460095Y-65634936D01*
X185459401Y-65631638D01*
X185369568Y-65574058D01*
X185182052Y-65550269D01*
X185149669Y-65549624D01*
X184874500Y-65517215D01*
X184585220Y-65450953D01*
X184561644Y-65443942D01*
X184449650Y-65418508D01*
X185791204Y-65418508D01*
X185820904Y-65573509D01*
X185860959Y-65661482D01*
X185987299Y-65771629D01*
X186222570Y-65820036D01*
X186372725Y-65831089D01*
X186505751Y-65806424D01*
X186587151Y-65698508D01*
X186666801Y-65467792D01*
X186695588Y-65372496D01*
X186777508Y-65069106D01*
X186832543Y-64819313D01*
X186877448Y-64585736D01*
X186934149Y-64332480D01*
X186936058Y-64324836D01*
X186956122Y-64180546D01*
X186889526Y-64121974D01*
X186695062Y-64110936D01*
X186638656Y-64111347D01*
X186473786Y-64134691D01*
X186393577Y-64229237D01*
X186347173Y-64443620D01*
X186252510Y-64731098D01*
X186018851Y-65067117D01*
X186005852Y-65080907D01*
X185845360Y-65273476D01*
X185791204Y-65418508D01*
X184449650Y-65418508D01*
X184346432Y-65395067D01*
X184208292Y-65420673D01*
X184072737Y-65532631D01*
X183957206Y-65660441D01*
X183946414Y-65756609D01*
X183481842Y-65756609D01*
X183450953Y-65613916D01*
X183557106Y-65447335D01*
X183812327Y-65250088D01*
X184066369Y-65076908D01*
X183910216Y-64785743D01*
X183894238Y-64754724D01*
X183794730Y-64493443D01*
X183754062Y-64260423D01*
X183754062Y-64047436D01*
X183923712Y-64047436D01*
X183964860Y-64111389D01*
X184101160Y-64105240D01*
X184294854Y-64028523D01*
X184506311Y-63901792D01*
X184695902Y-63745600D01*
X184823996Y-63580503D01*
X184889981Y-63418963D01*
X184883826Y-63261902D01*
X184757835Y-63220347D01*
X184522046Y-63303508D01*
X184520685Y-63304214D01*
X184327660Y-63448131D01*
X184133748Y-63657366D01*
X183984062Y-63875830D01*
X183923712Y-64047436D01*
X183754062Y-64047436D01*
X183754062Y-64026269D01*
X182780395Y-64026269D01*
X182418277Y-64030848D01*
X182100709Y-64044401D01*
X181885580Y-64064768D01*
X181806326Y-64089769D01*
X181443592Y-64089769D01*
X181445335Y-64065717D01*
X181469738Y-63938472D01*
X181506456Y-63883627D01*
X181578197Y-63833204D01*
X181704640Y-63800733D01*
X181914436Y-63782336D01*
X182236241Y-63774140D01*
X182698708Y-63772269D01*
X183838729Y-63772269D01*
X184168775Y-63442223D01*
X184408094Y-63238683D01*
X184803768Y-63047450D01*
X185205797Y-63024258D01*
X185606600Y-63168947D01*
X185920315Y-63418963D01*
X185998600Y-63481352D01*
X186363625Y-63856935D01*
X187170513Y-63856936D01*
X187307716Y-63857951D01*
X187671993Y-63873101D01*
X187923336Y-63904109D01*
X188033691Y-63948013D01*
X188058516Y-63999906D01*
X188140030Y-64192519D01*
X188263398Y-64495824D01*
X188416951Y-64881006D01*
X188589021Y-65319250D01*
X189005660Y-66388028D01*
X189088062Y-66599410D01*
X189088062Y-69066395D01*
G37*
%LPC*%
D14*
X64670000Y-104250000D03*
X183090000Y-128180000D03*
X187670000Y-58730000D03*
X83450000Y-59950000D03*
M02*
