G04 #@! TF.GenerationSoftware,KiCad,Pcbnew,(6.0.7)*
G04 #@! TF.CreationDate,2022-09-07T21:36:36+00:00*
G04 #@! TF.ProjectId,zzsplit-bottom-left,7a7a7370-6c69-4742-9d62-6f74746f6d2d,rev?*
G04 #@! TF.SameCoordinates,Original*
G04 #@! TF.FileFunction,Legend,Bot*
G04 #@! TF.FilePolarity,Positive*
%FSLAX46Y46*%
G04 Gerber Fmt 4.6, Leading zero omitted, Abs format (unit mm)*
G04 Created by KiCad (PCBNEW (6.0.7)) date 2022-09-07 21:36:36*
%MOMM*%
%LPD*%
G01*
G04 APERTURE LIST*
G04 #@! TA.AperFunction,Profile*
%ADD10C,0.100000*%
G04 #@! TD*
%ADD11C,0.300000*%
%ADD12C,0.250000*%
%ADD13C,4.700000*%
G04 APERTURE END LIST*
D10*
X216408717Y-41551602D02*
G75*
G03*
X213918729Y-39051603I-2500017J2D01*
G01*
X55508729Y-41521602D02*
X55548729Y-135281602D01*
X58008729Y-39021602D02*
X213918729Y-39051603D01*
X216408748Y-41551602D02*
X216438729Y-135411602D01*
X213918649Y-137921582D02*
X58048729Y-137781602D01*
X55548698Y-135281602D02*
G75*
G03*
X58048729Y-137781602I2500002J2D01*
G01*
X213918649Y-137921609D02*
G75*
G03*
X216438729Y-135411602I10051J2510009D01*
G01*
X58008729Y-39021629D02*
G75*
G03*
X55508729Y-41521602I-29J-2499971D01*
G01*
D11*
X156743871Y-134847030D02*
X155727871Y-134847030D01*
X156743871Y-136371030D01*
X155727871Y-136371030D01*
X155292443Y-135355030D02*
X154494157Y-135355030D01*
X155292443Y-136371030D01*
X154494157Y-136371030D01*
X153986157Y-136298459D02*
X153768443Y-136371030D01*
X153405586Y-136371030D01*
X153260443Y-136298459D01*
X153187871Y-136225887D01*
X153115300Y-136080744D01*
X153115300Y-135935602D01*
X153187871Y-135790459D01*
X153260443Y-135717887D01*
X153405586Y-135645316D01*
X153695871Y-135572744D01*
X153841014Y-135500173D01*
X153913586Y-135427602D01*
X153986157Y-135282459D01*
X153986157Y-135137316D01*
X153913586Y-134992173D01*
X153841014Y-134919602D01*
X153695871Y-134847030D01*
X153333014Y-134847030D01*
X153115300Y-134919602D01*
X152462157Y-135355030D02*
X152462157Y-136879030D01*
X152462157Y-135427602D02*
X152317014Y-135355030D01*
X152026729Y-135355030D01*
X151881586Y-135427602D01*
X151809014Y-135500173D01*
X151736443Y-135645316D01*
X151736443Y-136080744D01*
X151809014Y-136225887D01*
X151881586Y-136298459D01*
X152026729Y-136371030D01*
X152317014Y-136371030D01*
X152462157Y-136298459D01*
X150865586Y-136371030D02*
X151010729Y-136298459D01*
X151083300Y-136153316D01*
X151083300Y-134847030D01*
X150285014Y-136371030D02*
X150285014Y-135355030D01*
X150285014Y-134847030D02*
X150357586Y-134919602D01*
X150285014Y-134992173D01*
X150212443Y-134919602D01*
X150285014Y-134847030D01*
X150285014Y-134992173D01*
X149777014Y-135355030D02*
X149196443Y-135355030D01*
X149559300Y-134847030D02*
X149559300Y-136153316D01*
X149486729Y-136298459D01*
X149341586Y-136371030D01*
X149196443Y-136371030D01*
X141721586Y-136371030D02*
X141721586Y-134847030D01*
X141068443Y-136371030D02*
X141068443Y-135572744D01*
X141141014Y-135427602D01*
X141286157Y-135355030D01*
X141503871Y-135355030D01*
X141649014Y-135427602D01*
X141721586Y-135500173D01*
X140560443Y-135355030D02*
X139979871Y-135355030D01*
X140342729Y-134847030D02*
X140342729Y-136153316D01*
X140270157Y-136298459D01*
X140125014Y-136371030D01*
X139979871Y-136371030D01*
X139689586Y-135355030D02*
X139109014Y-135355030D01*
X139471871Y-134847030D02*
X139471871Y-136153316D01*
X139399300Y-136298459D01*
X139254157Y-136371030D01*
X139109014Y-136371030D01*
X138601014Y-135355030D02*
X138601014Y-136879030D01*
X138601014Y-135427602D02*
X138455871Y-135355030D01*
X138165586Y-135355030D01*
X138020443Y-135427602D01*
X137947871Y-135500173D01*
X137875300Y-135645316D01*
X137875300Y-136080744D01*
X137947871Y-136225887D01*
X138020443Y-136298459D01*
X138165586Y-136371030D01*
X138455871Y-136371030D01*
X138601014Y-136298459D01*
X137294729Y-136298459D02*
X137149586Y-136371030D01*
X136859300Y-136371030D01*
X136714157Y-136298459D01*
X136641586Y-136153316D01*
X136641586Y-136080744D01*
X136714157Y-135935602D01*
X136859300Y-135863030D01*
X137077014Y-135863030D01*
X137222157Y-135790459D01*
X137294729Y-135645316D01*
X137294729Y-135572744D01*
X137222157Y-135427602D01*
X137077014Y-135355030D01*
X136859300Y-135355030D01*
X136714157Y-135427602D01*
X135988443Y-136225887D02*
X135915871Y-136298459D01*
X135988443Y-136371030D01*
X136061014Y-136298459D01*
X135988443Y-136225887D01*
X135988443Y-136371030D01*
X135988443Y-135427602D02*
X135915871Y-135500173D01*
X135988443Y-135572744D01*
X136061014Y-135500173D01*
X135988443Y-135427602D01*
X135988443Y-135572744D01*
X134174157Y-134774459D02*
X135480443Y-136733887D01*
X132577586Y-134774459D02*
X133883871Y-136733887D01*
X131416443Y-135355030D02*
X131416443Y-136588744D01*
X131489014Y-136733887D01*
X131561586Y-136806459D01*
X131706729Y-136879030D01*
X131924443Y-136879030D01*
X132069586Y-136806459D01*
X131416443Y-136298459D02*
X131561586Y-136371030D01*
X131851871Y-136371030D01*
X131997014Y-136298459D01*
X132069586Y-136225887D01*
X132142157Y-136080744D01*
X132142157Y-135645316D01*
X132069586Y-135500173D01*
X131997014Y-135427602D01*
X131851871Y-135355030D01*
X131561586Y-135355030D01*
X131416443Y-135427602D01*
X130690729Y-136371030D02*
X130690729Y-135355030D01*
X130690729Y-134847030D02*
X130763300Y-134919602D01*
X130690729Y-134992173D01*
X130618157Y-134919602D01*
X130690729Y-134847030D01*
X130690729Y-134992173D01*
X130182729Y-135355030D02*
X129602157Y-135355030D01*
X129965014Y-134847030D02*
X129965014Y-136153316D01*
X129892443Y-136298459D01*
X129747300Y-136371030D01*
X129602157Y-136371030D01*
X129094157Y-136371030D02*
X129094157Y-134847030D01*
X128441014Y-136371030D02*
X128441014Y-135572744D01*
X128513586Y-135427602D01*
X128658729Y-135355030D01*
X128876443Y-135355030D01*
X129021586Y-135427602D01*
X129094157Y-135500173D01*
X127062157Y-135355030D02*
X127062157Y-136371030D01*
X127715300Y-135355030D02*
X127715300Y-136153316D01*
X127642729Y-136298459D01*
X127497586Y-136371030D01*
X127279871Y-136371030D01*
X127134729Y-136298459D01*
X127062157Y-136225887D01*
X126336443Y-136371030D02*
X126336443Y-134847030D01*
X126336443Y-135427602D02*
X126191300Y-135355030D01*
X125901014Y-135355030D01*
X125755871Y-135427602D01*
X125683300Y-135500173D01*
X125610729Y-135645316D01*
X125610729Y-136080744D01*
X125683300Y-136225887D01*
X125755871Y-136298459D01*
X125901014Y-136371030D01*
X126191300Y-136371030D01*
X126336443Y-136298459D01*
X124957586Y-136225887D02*
X124885014Y-136298459D01*
X124957586Y-136371030D01*
X125030157Y-136298459D01*
X124957586Y-136225887D01*
X124957586Y-136371030D01*
X123578729Y-136298459D02*
X123723871Y-136371030D01*
X124014157Y-136371030D01*
X124159300Y-136298459D01*
X124231871Y-136225887D01*
X124304443Y-136080744D01*
X124304443Y-135645316D01*
X124231871Y-135500173D01*
X124159300Y-135427602D01*
X124014157Y-135355030D01*
X123723871Y-135355030D01*
X123578729Y-135427602D01*
X122707871Y-136371030D02*
X122853014Y-136298459D01*
X122925586Y-136225887D01*
X122998157Y-136080744D01*
X122998157Y-135645316D01*
X122925586Y-135500173D01*
X122853014Y-135427602D01*
X122707871Y-135355030D01*
X122490157Y-135355030D01*
X122345014Y-135427602D01*
X122272443Y-135500173D01*
X122199871Y-135645316D01*
X122199871Y-136080744D01*
X122272443Y-136225887D01*
X122345014Y-136298459D01*
X122490157Y-136371030D01*
X122707871Y-136371030D01*
X121546729Y-136371030D02*
X121546729Y-135355030D01*
X121546729Y-135500173D02*
X121474157Y-135427602D01*
X121329014Y-135355030D01*
X121111300Y-135355030D01*
X120966157Y-135427602D01*
X120893586Y-135572744D01*
X120893586Y-136371030D01*
X120893586Y-135572744D02*
X120821014Y-135427602D01*
X120675871Y-135355030D01*
X120458157Y-135355030D01*
X120313014Y-135427602D01*
X120240443Y-135572744D01*
X120240443Y-136371030D01*
X118426157Y-134774459D02*
X119732443Y-136733887D01*
X118063300Y-135355030D02*
X117265014Y-135355030D01*
X118063300Y-136371030D01*
X117265014Y-136371030D01*
X116829586Y-135355030D02*
X116031300Y-135355030D01*
X116829586Y-136371030D01*
X116031300Y-136371030D01*
X114725014Y-136371030D02*
X115450729Y-136371030D01*
X115450729Y-134847030D01*
X114217014Y-136371030D02*
X114217014Y-135355030D01*
X114217014Y-134847030D02*
X114289586Y-134919602D01*
X114217014Y-134992173D01*
X114144443Y-134919602D01*
X114217014Y-134847030D01*
X114217014Y-134992173D01*
X113491300Y-135355030D02*
X113491300Y-136371030D01*
X113491300Y-135500173D02*
X113418729Y-135427602D01*
X113273586Y-135355030D01*
X113055871Y-135355030D01*
X112910729Y-135427602D01*
X112838157Y-135572744D01*
X112838157Y-136371030D01*
X111459300Y-135355030D02*
X111459300Y-136371030D01*
X112112443Y-135355030D02*
X112112443Y-136153316D01*
X112039871Y-136298459D01*
X111894729Y-136371030D01*
X111677014Y-136371030D01*
X111531871Y-136298459D01*
X111459300Y-136225887D01*
X110806157Y-136298459D02*
X110661014Y-136371030D01*
X110370729Y-136371030D01*
X110225586Y-136298459D01*
X110153014Y-136153316D01*
X110153014Y-136080744D01*
X110225586Y-135935602D01*
X110370729Y-135863030D01*
X110588443Y-135863030D01*
X110733586Y-135790459D01*
X110806157Y-135645316D01*
X110806157Y-135572744D01*
X110733586Y-135427602D01*
X110588443Y-135355030D01*
X110370729Y-135355030D01*
X110225586Y-135427602D01*
X108411300Y-134774459D02*
X109717586Y-136733887D01*
X108048443Y-134847030D02*
X107032443Y-134847030D01*
X108048443Y-136371030D01*
X107032443Y-136371030D01*
X106597014Y-135355030D02*
X105798729Y-135355030D01*
X106597014Y-136371030D01*
X105798729Y-136371030D01*
X105290729Y-136298459D02*
X105073014Y-136371030D01*
X104710157Y-136371030D01*
X104565014Y-136298459D01*
X104492443Y-136225887D01*
X104419871Y-136080744D01*
X104419871Y-135935602D01*
X104492443Y-135790459D01*
X104565014Y-135717887D01*
X104710157Y-135645316D01*
X105000443Y-135572744D01*
X105145586Y-135500173D01*
X105218157Y-135427602D01*
X105290729Y-135282459D01*
X105290729Y-135137316D01*
X105218157Y-134992173D01*
X105145586Y-134919602D01*
X105000443Y-134847030D01*
X104637586Y-134847030D01*
X104419871Y-134919602D01*
X103766729Y-135355030D02*
X103766729Y-136879030D01*
X103766729Y-135427602D02*
X103621586Y-135355030D01*
X103331300Y-135355030D01*
X103186157Y-135427602D01*
X103113586Y-135500173D01*
X103041014Y-135645316D01*
X103041014Y-136080744D01*
X103113586Y-136225887D01*
X103186157Y-136298459D01*
X103331300Y-136371030D01*
X103621586Y-136371030D01*
X103766729Y-136298459D01*
X102170157Y-136371030D02*
X102315300Y-136298459D01*
X102387871Y-136153316D01*
X102387871Y-134847030D01*
X101589586Y-136371030D02*
X101589586Y-135355030D01*
X101589586Y-134847030D02*
X101662157Y-134919602D01*
X101589586Y-134992173D01*
X101517014Y-134919602D01*
X101589586Y-134847030D01*
X101589586Y-134992173D01*
X101081586Y-135355030D02*
X100501014Y-135355030D01*
X100863871Y-134847030D02*
X100863871Y-136153316D01*
X100791300Y-136298459D01*
X100646157Y-136371030D01*
X100501014Y-136371030D01*
D12*
X148493490Y-136308744D02*
X148445871Y-136356363D01*
X148493490Y-136403982D01*
X148541109Y-136356363D01*
X148493490Y-136308744D01*
X148493490Y-136403982D01*
X148160157Y-135403982D02*
X147826824Y-136403982D01*
X147493490Y-135403982D01*
X146636348Y-136403982D02*
X147207776Y-136403982D01*
X146922062Y-136403982D02*
X146922062Y-135403982D01*
X147017300Y-135546840D01*
X147112538Y-135642078D01*
X147207776Y-135689697D01*
G36*
X185520366Y-66634868D02*
G01*
X185800808Y-66642181D01*
X185957676Y-66666559D01*
X186026064Y-66717357D01*
X186041062Y-66803936D01*
X186041020Y-66810077D01*
X186010207Y-66914793D01*
X185893754Y-66970712D01*
X185649893Y-66998625D01*
X185258723Y-67023982D01*
X185628726Y-67587322D01*
X185826774Y-67906144D01*
X185959519Y-68177984D01*
X185994322Y-68364098D01*
X185938817Y-68486625D01*
X185839674Y-68512585D01*
X185617573Y-68526001D01*
X185324983Y-68521903D01*
X185053630Y-68505512D01*
X184871976Y-68475339D01*
X184790123Y-68420467D01*
X184771062Y-68327936D01*
X184774200Y-68283751D01*
X184846931Y-68178543D01*
X185046229Y-68132071D01*
X185066831Y-68129924D01*
X185247295Y-68094369D01*
X185321395Y-68048138D01*
X185285886Y-67969678D01*
X185176454Y-67788746D01*
X185018862Y-67551471D01*
X184927568Y-67412292D01*
X184775962Y-67108417D01*
X184743696Y-66873404D01*
X184756968Y-66778899D01*
X184795588Y-66695629D01*
X184891816Y-66652774D01*
X185082893Y-66636907D01*
X185406062Y-66634602D01*
X185520366Y-66634868D01*
G37*
G36*
X184584935Y-67684608D02*
G01*
X184614356Y-67723499D01*
X184619078Y-67873756D01*
X184504370Y-68020603D01*
X184300894Y-68117332D01*
X184201481Y-68147221D01*
X184177693Y-68195065D01*
X184259172Y-68287140D01*
X184460086Y-68453349D01*
X184535631Y-68516056D01*
X184736678Y-68726897D01*
X184779861Y-68882754D01*
X184664346Y-68990726D01*
X184389305Y-69057912D01*
X183993089Y-69100436D01*
X183707760Y-69095989D01*
X183549741Y-69036971D01*
X183501062Y-68920602D01*
X183532279Y-68808324D01*
X183691562Y-68724214D01*
X183757345Y-68712524D01*
X183865036Y-68655145D01*
X183835389Y-68547330D01*
X183666874Y-68366961D01*
X183633180Y-68334319D01*
X183482320Y-68126397D01*
X183490043Y-67956875D01*
X183659583Y-67819234D01*
X183994171Y-67706956D01*
X184286031Y-67646037D01*
X184478734Y-67637049D01*
X184584935Y-67684608D01*
G37*
G36*
X192518062Y-74426395D02*
G01*
X192517941Y-74592124D01*
X192515267Y-75209857D01*
X192509443Y-75766346D01*
X192500932Y-76239975D01*
X192490198Y-76609126D01*
X192477706Y-76852181D01*
X192463920Y-76947523D01*
X192405741Y-76981654D01*
X192356088Y-76940880D01*
X192318886Y-76804802D01*
X192292610Y-76558628D01*
X192275732Y-76187565D01*
X192266725Y-75676822D01*
X192264062Y-75011605D01*
X192264062Y-73111602D01*
X189300729Y-73111602D01*
X189300729Y-73525877D01*
X189301703Y-73596160D01*
X189335396Y-73865360D01*
X189414696Y-73983885D01*
X189455199Y-74011352D01*
X189597410Y-74149620D01*
X189798426Y-74372942D01*
X190028529Y-74649110D01*
X190356085Y-75056366D01*
X190528395Y-75270602D01*
X190486062Y-76097132D01*
X190472362Y-76311609D01*
X190439619Y-76629349D01*
X190400149Y-76844258D01*
X190359062Y-76923101D01*
X190341930Y-76909454D01*
X190302226Y-76770957D01*
X190270010Y-76510036D01*
X190250052Y-76160071D01*
X190225708Y-75397602D01*
X189980249Y-75397602D01*
X189845524Y-75407727D01*
X189746855Y-75481753D01*
X189708260Y-75672769D01*
X189706059Y-75693188D01*
X189661884Y-75873775D01*
X189597062Y-75947936D01*
X189590706Y-75947180D01*
X189526755Y-75860202D01*
X189485864Y-75672769D01*
X189459333Y-75397602D01*
X187868518Y-75397602D01*
X187843790Y-76053769D01*
X187843663Y-76057131D01*
X187817856Y-76424344D01*
X187778727Y-76627579D01*
X187732196Y-76671059D01*
X187684183Y-76559005D01*
X187640610Y-76295639D01*
X187607395Y-75885184D01*
X187603557Y-75817886D01*
X187561844Y-75367457D01*
X187495063Y-75042542D01*
X187395729Y-74804936D01*
X187226395Y-74508602D01*
X187184062Y-74997045D01*
X187159903Y-75214678D01*
X187112798Y-75434678D01*
X187061543Y-75495537D01*
X187012642Y-75403167D01*
X186972598Y-75163479D01*
X186947912Y-74782384D01*
X186942924Y-74613256D01*
X186941443Y-74310961D01*
X186946949Y-74254602D01*
X187296588Y-74254602D01*
X187581473Y-74699102D01*
X187866359Y-75143602D01*
X189011678Y-75143602D01*
X189453259Y-75144899D01*
X189786864Y-75140416D01*
X189981356Y-75115724D01*
X190052410Y-75056366D01*
X190015706Y-74947887D01*
X189886920Y-74775831D01*
X189681729Y-74525740D01*
X189540048Y-74364803D01*
X189362698Y-74236840D01*
X189209131Y-74250790D01*
X189048420Y-74400538D01*
X188895969Y-74588808D01*
X188345537Y-74394489D01*
X188051542Y-74304840D01*
X187754003Y-74241409D01*
X187545846Y-74227386D01*
X187296588Y-74254602D01*
X186946949Y-74254602D01*
X186959268Y-74128513D01*
X187001918Y-74031232D01*
X187074912Y-73984436D01*
X187159740Y-73941464D01*
X187294103Y-73816487D01*
X187347839Y-73763673D01*
X187536170Y-73712039D01*
X187771241Y-73736057D01*
X187983411Y-73833962D01*
X188086560Y-73893448D01*
X188288986Y-73951364D01*
X188485447Y-73959062D01*
X188623844Y-73917146D01*
X188652075Y-73826218D01*
X188649653Y-73731284D01*
X188781732Y-73647010D01*
X188920159Y-73556807D01*
X188962062Y-73355727D01*
X188962062Y-73111602D01*
X186171302Y-73111602D01*
X186148515Y-74974373D01*
X186141101Y-75434114D01*
X186123896Y-76038217D01*
X186101408Y-76474151D01*
X186075014Y-76742533D01*
X186046095Y-76843976D01*
X186016028Y-76779099D01*
X185986191Y-76548514D01*
X185957964Y-76152840D01*
X185932724Y-75592691D01*
X185911851Y-74868682D01*
X185867307Y-72899936D01*
X185851517Y-72857602D01*
X186168062Y-72857602D01*
X188962062Y-72857602D01*
X189300729Y-72857602D01*
X192264062Y-72857602D01*
X192264062Y-72095602D01*
X189300729Y-72095602D01*
X189300729Y-72857602D01*
X188962062Y-72857602D01*
X188962062Y-72095602D01*
X186168062Y-72095602D01*
X186168062Y-72857602D01*
X185851517Y-72857602D01*
X185472559Y-71841602D01*
X185077811Y-70783269D01*
X185051436Y-72561269D01*
X185040391Y-73108561D01*
X185022226Y-73629591D01*
X184999022Y-74016121D01*
X184971504Y-74256548D01*
X184940395Y-74339269D01*
X184938490Y-74338862D01*
X184912617Y-74247607D01*
X184889811Y-74014117D01*
X184870276Y-73663707D01*
X184854215Y-73221693D01*
X184841834Y-72713391D01*
X184833336Y-72164116D01*
X184828926Y-71599184D01*
X184828807Y-71043910D01*
X184833185Y-70523611D01*
X184842262Y-70063602D01*
X184846419Y-69952293D01*
X185082391Y-69952293D01*
X185117064Y-70094644D01*
X185196157Y-70355629D01*
X185310565Y-70706039D01*
X185451186Y-71116667D01*
X185512138Y-71290424D01*
X185671630Y-71736504D01*
X185786019Y-72038935D01*
X185860854Y-72210899D01*
X185901685Y-72265578D01*
X185914062Y-72216157D01*
X185913504Y-72209497D01*
X185879738Y-72084824D01*
X185802530Y-71849067D01*
X185694227Y-71536116D01*
X185567180Y-71179861D01*
X185433735Y-70814191D01*
X185306241Y-70472997D01*
X185197046Y-70190168D01*
X185118499Y-69999593D01*
X185082947Y-69935162D01*
X185082391Y-69952293D01*
X184846419Y-69952293D01*
X184856244Y-69689199D01*
X184873592Y-69449769D01*
X185236326Y-69449769D01*
X185240787Y-69472330D01*
X185286934Y-69627394D01*
X185375180Y-69899910D01*
X185495656Y-70259767D01*
X185638493Y-70676856D01*
X186041062Y-71840443D01*
X187543895Y-71841023D01*
X187979106Y-71838056D01*
X188405837Y-71828089D01*
X188743953Y-71812350D01*
X188966551Y-71792134D01*
X189046729Y-71768733D01*
X189023236Y-71752208D01*
X188869436Y-71731493D01*
X188603834Y-71725134D01*
X188263562Y-71734743D01*
X187480395Y-71773621D01*
X187432206Y-71723661D01*
X189385395Y-71723661D01*
X189395135Y-71752044D01*
X189426087Y-71768733D01*
X189463774Y-71789054D01*
X189616402Y-71814727D01*
X189874343Y-71830850D01*
X190258919Y-71839212D01*
X190791454Y-71841602D01*
X191085258Y-71841326D01*
X191522439Y-71838325D01*
X191825073Y-71829983D01*
X192015897Y-71813813D01*
X192117648Y-71787324D01*
X192153062Y-71748028D01*
X192144877Y-71693436D01*
X192141096Y-71682925D01*
X192084233Y-71530192D01*
X191982063Y-71259488D01*
X191847822Y-70905787D01*
X191694746Y-70504061D01*
X191655501Y-70401313D01*
X191503836Y-70009797D01*
X191393079Y-69746782D01*
X191307491Y-69587686D01*
X191231336Y-69507923D01*
X191148877Y-69482910D01*
X191044377Y-69488061D01*
X190965166Y-69498142D01*
X190875633Y-69531310D01*
X190867687Y-69540546D01*
X190805912Y-69612348D01*
X190741320Y-69770486D01*
X190667176Y-70034960D01*
X190568799Y-70435001D01*
X190535152Y-70571563D01*
X190410732Y-71013388D01*
X190337012Y-71196270D01*
X190290088Y-71312676D01*
X190159549Y-71489790D01*
X190005441Y-71565090D01*
X189814095Y-71558935D01*
X189653517Y-71542568D01*
X189456413Y-71589240D01*
X189385395Y-71723661D01*
X187432206Y-71723661D01*
X187143555Y-71424402D01*
X187096468Y-71374836D01*
X186919021Y-71149770D01*
X186911842Y-71116609D01*
X187376414Y-71116609D01*
X187477691Y-71245947D01*
X187576511Y-71330605D01*
X187766786Y-71396328D01*
X188065018Y-71409829D01*
X188205940Y-71404481D01*
X188497160Y-71379178D01*
X188708062Y-71342512D01*
X188828285Y-71297415D01*
X188900409Y-71196270D01*
X188890095Y-70994936D01*
X188889401Y-70991638D01*
X188799568Y-70934058D01*
X188612052Y-70910269D01*
X188579669Y-70909624D01*
X188304500Y-70877215D01*
X188015220Y-70810953D01*
X187991644Y-70803942D01*
X187879650Y-70778508D01*
X189221204Y-70778508D01*
X189250904Y-70933509D01*
X189290959Y-71021482D01*
X189417299Y-71131629D01*
X189652570Y-71180036D01*
X189802725Y-71191089D01*
X189935751Y-71166424D01*
X190017151Y-71058508D01*
X190096801Y-70827792D01*
X190125588Y-70732496D01*
X190207508Y-70429106D01*
X190262543Y-70179313D01*
X190307448Y-69945736D01*
X190364149Y-69692480D01*
X190366058Y-69684836D01*
X190386122Y-69540546D01*
X190319526Y-69481974D01*
X190125062Y-69470936D01*
X190068656Y-69471347D01*
X189903786Y-69494691D01*
X189823577Y-69589237D01*
X189777173Y-69803620D01*
X189682510Y-70091098D01*
X189448851Y-70427117D01*
X189435852Y-70440907D01*
X189275360Y-70633476D01*
X189221204Y-70778508D01*
X187879650Y-70778508D01*
X187776432Y-70755067D01*
X187638292Y-70780673D01*
X187502737Y-70892631D01*
X187387206Y-71020441D01*
X187376414Y-71116609D01*
X186911842Y-71116609D01*
X186880953Y-70973916D01*
X186987106Y-70807335D01*
X187242327Y-70610088D01*
X187496369Y-70436908D01*
X187340216Y-70145743D01*
X187324238Y-70114724D01*
X187224730Y-69853443D01*
X187184062Y-69620423D01*
X187184062Y-69407436D01*
X187353712Y-69407436D01*
X187394860Y-69471389D01*
X187531160Y-69465240D01*
X187724854Y-69388523D01*
X187936311Y-69261792D01*
X188125902Y-69105600D01*
X188253996Y-68940503D01*
X188319981Y-68778963D01*
X188313826Y-68621902D01*
X188187835Y-68580347D01*
X187952046Y-68663508D01*
X187950685Y-68664214D01*
X187757660Y-68808131D01*
X187563748Y-69017366D01*
X187414062Y-69235830D01*
X187353712Y-69407436D01*
X187184062Y-69407436D01*
X187184062Y-69386269D01*
X186210395Y-69386269D01*
X185848277Y-69390848D01*
X185530709Y-69404401D01*
X185315580Y-69424768D01*
X185236326Y-69449769D01*
X184873592Y-69449769D01*
X184875335Y-69425717D01*
X184899738Y-69298472D01*
X184936456Y-69243627D01*
X185008197Y-69193204D01*
X185134640Y-69160733D01*
X185344436Y-69142336D01*
X185666241Y-69134140D01*
X186128708Y-69132269D01*
X187268729Y-69132269D01*
X187598775Y-68802223D01*
X187838094Y-68598683D01*
X188233768Y-68407450D01*
X188635797Y-68384258D01*
X189036600Y-68528947D01*
X189350315Y-68778963D01*
X189428600Y-68841352D01*
X189793625Y-69216935D01*
X190600513Y-69216936D01*
X190737716Y-69217951D01*
X191101993Y-69233101D01*
X191353336Y-69264109D01*
X191463691Y-69308013D01*
X191488516Y-69359906D01*
X191570030Y-69552519D01*
X191693398Y-69855824D01*
X191846951Y-70241006D01*
X192019021Y-70679250D01*
X192435660Y-71748028D01*
X192518062Y-71959410D01*
X192518062Y-74426395D01*
G37*
%LPC*%
D13*
X64688729Y-107331602D03*
X183078729Y-131271602D03*
X83468729Y-63031602D03*
X187688729Y-61801602D03*
M02*
