G04 #@! TF.GenerationSoftware,KiCad,Pcbnew,(6.0.7)*
G04 #@! TF.CreationDate,2022-08-10T12:47:21+00:00*
G04 #@! TF.ProjectId,zzsplit-right,7a7a7370-6c69-4742-9d72-696768742e6b,rev?*
G04 #@! TF.SameCoordinates,Original*
G04 #@! TF.FileFunction,Soldermask,Bot*
G04 #@! TF.FilePolarity,Negative*
%FSLAX46Y46*%
G04 Gerber Fmt 4.6, Leading zero omitted, Abs format (unit mm)*
G04 Created by KiCad (PCBNEW (6.0.7)) date 2022-08-10 12:47:21*
%MOMM*%
%LPD*%
G01*
G04 APERTURE LIST*
G04 Aperture macros list*
%AMRoundRect*
0 Rectangle with rounded corners*
0 $1 Rounding radius*
0 $2 $3 $4 $5 $6 $7 $8 $9 X,Y pos of 4 corners*
0 Add a 4 corners polygon primitive as box body*
4,1,4,$2,$3,$4,$5,$6,$7,$8,$9,$2,$3,0*
0 Add four circle primitives for the rounded corners*
1,1,$1+$1,$2,$3*
1,1,$1+$1,$4,$5*
1,1,$1+$1,$6,$7*
1,1,$1+$1,$8,$9*
0 Add four rect primitives between the rounded corners*
20,1,$1+$1,$2,$3,$4,$5,0*
20,1,$1+$1,$4,$5,$6,$7,0*
20,1,$1+$1,$6,$7,$8,$9,0*
20,1,$1+$1,$8,$9,$2,$3,0*%
G04 Aperture macros list end*
G04 #@! TA.AperFunction,Profile*
%ADD10C,0.150000*%
G04 #@! TD*
G04 #@! TA.AperFunction,Profile*
%ADD11C,0.100000*%
G04 #@! TD*
%ADD12C,3.000000*%
%ADD13C,1.700000*%
%ADD14C,1.900000*%
%ADD15C,4.100000*%
%ADD16R,1.600000X1.000000*%
%ADD17R,2.300000X2.000000*%
%ADD18R,0.950000X1.300000*%
%ADD19R,2.000000X1.000000*%
%ADD20C,4.700000*%
%ADD21RoundRect,0.250000X-0.550000X-0.550000X0.550000X-0.550000X0.550000X0.550000X-0.550000X0.550000X0*%
%ADD22C,1.600000*%
%ADD23C,2.000000*%
%ADD24C,1.200000*%
%ADD25O,2.500000X1.700000*%
%ADD26C,1.397000*%
%ADD27R,1.752600X1.752600*%
%ADD28C,1.752600*%
%ADD29RoundRect,0.249999X1.025001X1.025001X-1.025001X1.025001X-1.025001X-1.025001X1.025001X-1.025001X0*%
%ADD30C,2.550000*%
G04 APERTURE END LIST*
D10*
X130560000Y-126630000D02*
X134060000Y-126630000D01*
X134060000Y-112070000D02*
X130560000Y-112070000D01*
X168670000Y-126640000D02*
X172170000Y-126640000D01*
D11*
X87924000Y-49490000D02*
X87964000Y-143250000D01*
D10*
X129320000Y-50370000D02*
X129320000Y-54870000D01*
X205540000Y-126630000D02*
X205540000Y-131130000D01*
D11*
X246333920Y-145889980D02*
X90464000Y-145750000D01*
D10*
X173460000Y-69460000D02*
X176960000Y-69460000D01*
X119820000Y-73940000D02*
X116320000Y-73940000D01*
X210290000Y-112060000D02*
X206790000Y-112060000D01*
X167410000Y-54890000D02*
X163910000Y-54890000D01*
X172170000Y-112070000D02*
X168670000Y-112070000D01*
X192520000Y-73960000D02*
X192520000Y-69460000D01*
X106750000Y-112050000D02*
X106750000Y-107550000D01*
X172170000Y-131140000D02*
X168670000Y-131140000D01*
X205520000Y-50390000D02*
X205520000Y-54890000D01*
X168670000Y-107570000D02*
X172170000Y-107570000D01*
X172170000Y-126640000D02*
X172170000Y-131140000D01*
X196020000Y-73960000D02*
X192520000Y-73960000D01*
X181690000Y-88510000D02*
X181690000Y-93010000D01*
X153130000Y-107580000D02*
X153130000Y-112080000D01*
X202020000Y-54890000D02*
X202020000Y-50390000D01*
X124520000Y-93000000D02*
X121020000Y-93000000D01*
X178190000Y-93010000D02*
X178190000Y-88510000D01*
D11*
X90424000Y-46990000D02*
G75*
G03*
X87924000Y-49490000I0J-2500000D01*
G01*
D10*
X219800000Y-92990000D02*
X216300000Y-92990000D01*
X202020000Y-50390000D02*
X205520000Y-50390000D01*
X134060000Y-107570000D02*
X134060000Y-112070000D01*
X130560000Y-107570000D02*
X134060000Y-107570000D01*
X149630000Y-107580000D02*
X153130000Y-107580000D01*
X226950000Y-73910000D02*
X223450000Y-73910000D01*
D11*
X246333920Y-145889980D02*
G75*
G03*
X248854000Y-143380000I10080J2509980D01*
G01*
D10*
X202040000Y-131130000D02*
X202040000Y-126630000D01*
X234110000Y-126630000D02*
X234110000Y-131130000D01*
X221060000Y-50370000D02*
X224560000Y-50370000D01*
X235370000Y-92980000D02*
X235370000Y-88480000D01*
X143580000Y-93010000D02*
X140080000Y-93010000D01*
D11*
X248824019Y-49520000D02*
X248854000Y-143380000D01*
D10*
X138870000Y-69440000D02*
X138870000Y-73940000D01*
X238870000Y-88480000D02*
X238870000Y-92980000D01*
X202040000Y-126630000D02*
X205540000Y-126630000D01*
X138870000Y-73940000D02*
X135370000Y-73940000D01*
X124520000Y-88500000D02*
X124520000Y-93000000D01*
X230610000Y-126630000D02*
X234110000Y-126630000D01*
X129320000Y-54870000D02*
X125820000Y-54870000D01*
X197240000Y-88510000D02*
X200740000Y-88510000D01*
X238870000Y-92980000D02*
X235370000Y-92980000D01*
X230600000Y-107550000D02*
X234100000Y-107550000D01*
X162630000Y-93010000D02*
X159130000Y-93010000D01*
X182960000Y-54890000D02*
X182960000Y-50390000D01*
X187730000Y-112070000D02*
X187730000Y-107570000D01*
X192520000Y-69460000D02*
X196020000Y-69460000D01*
X157920000Y-73950000D02*
X154420000Y-73950000D01*
X140080000Y-88510000D02*
X143580000Y-88510000D01*
X224560000Y-54870000D02*
X221060000Y-54870000D01*
X186460000Y-54890000D02*
X182960000Y-54890000D01*
X178190000Y-88510000D02*
X181690000Y-88510000D01*
X216300000Y-92990000D02*
X216300000Y-88490000D01*
X163910000Y-50390000D02*
X167410000Y-50390000D01*
X230610000Y-131130000D02*
X230610000Y-126630000D01*
X154420000Y-69450000D02*
X157920000Y-69450000D01*
X168670000Y-131140000D02*
X168670000Y-126640000D01*
X210290000Y-107560000D02*
X210290000Y-112060000D01*
X140080000Y-93010000D02*
X140080000Y-88510000D01*
X121020000Y-93000000D02*
X121020000Y-88500000D01*
X172170000Y-107570000D02*
X172170000Y-112070000D01*
X167410000Y-50390000D02*
X167410000Y-54890000D01*
X168670000Y-112070000D02*
X168670000Y-107570000D01*
X134060000Y-131130000D02*
X130560000Y-131130000D01*
X121020000Y-88500000D02*
X124520000Y-88500000D01*
X159130000Y-93010000D02*
X159130000Y-88510000D01*
X119820000Y-69440000D02*
X119820000Y-73940000D01*
X159130000Y-88510000D02*
X162630000Y-88510000D01*
X234110000Y-131130000D02*
X230610000Y-131130000D01*
X143580000Y-88510000D02*
X143580000Y-93010000D01*
X219800000Y-88490000D02*
X219800000Y-92990000D01*
X191230000Y-107570000D02*
X191230000Y-112070000D01*
X116320000Y-73940000D02*
X116320000Y-69440000D01*
X110250000Y-112050000D02*
X106750000Y-112050000D01*
X144860000Y-50390000D02*
X148360000Y-50390000D01*
X224560000Y-50370000D02*
X224560000Y-54870000D01*
X176960000Y-73960000D02*
X173460000Y-73960000D01*
X197240000Y-93010000D02*
X197240000Y-88510000D01*
D11*
X87964000Y-143250000D02*
G75*
G03*
X90464000Y-145750000I2500000J0D01*
G01*
D10*
X148360000Y-50390000D02*
X148360000Y-54890000D01*
X226950000Y-69410000D02*
X226950000Y-73910000D01*
X130560000Y-112070000D02*
X130560000Y-107570000D01*
X223450000Y-73910000D02*
X223450000Y-69410000D01*
X106750000Y-107550000D02*
X110250000Y-107550000D01*
X135370000Y-73940000D02*
X135370000Y-69440000D01*
X176960000Y-69460000D02*
X176960000Y-73960000D01*
X205540000Y-131130000D02*
X202040000Y-131130000D01*
X116320000Y-69440000D02*
X119820000Y-69440000D01*
X200740000Y-88510000D02*
X200740000Y-93010000D01*
X196020000Y-69460000D02*
X196020000Y-73960000D01*
X206790000Y-112060000D02*
X206790000Y-107560000D01*
X234100000Y-112050000D02*
X230600000Y-112050000D01*
X181690000Y-93010000D02*
X178190000Y-93010000D01*
X191230000Y-112070000D02*
X187730000Y-112070000D01*
X187730000Y-107570000D02*
X191230000Y-107570000D01*
X200740000Y-93010000D02*
X197240000Y-93010000D01*
X235370000Y-88480000D02*
X238870000Y-88480000D01*
X148360000Y-54890000D02*
X144860000Y-54890000D01*
X134060000Y-126630000D02*
X134060000Y-131130000D01*
X153130000Y-112080000D02*
X149630000Y-112080000D01*
X154420000Y-73950000D02*
X154420000Y-69450000D01*
X162630000Y-88510000D02*
X162630000Y-93010000D01*
X221060000Y-54870000D02*
X221060000Y-50370000D01*
X186460000Y-50390000D02*
X186460000Y-54890000D01*
X110250000Y-107550000D02*
X110250000Y-112050000D01*
X206790000Y-107560000D02*
X210290000Y-107560000D01*
X135370000Y-69440000D02*
X138870000Y-69440000D01*
X163910000Y-54890000D02*
X163910000Y-50390000D01*
X125820000Y-50370000D02*
X129320000Y-50370000D01*
X149630000Y-112080000D02*
X149630000Y-107580000D01*
X157920000Y-69450000D02*
X157920000Y-73950000D01*
D11*
X248824019Y-49520000D02*
G75*
G03*
X246334000Y-47020001I-2500019J0D01*
G01*
D10*
X234100000Y-107550000D02*
X234100000Y-112050000D01*
X230600000Y-112050000D02*
X230600000Y-107550000D01*
X173460000Y-73960000D02*
X173460000Y-69460000D01*
X144860000Y-54890000D02*
X144860000Y-50390000D01*
X130560000Y-131130000D02*
X130560000Y-126630000D01*
X223450000Y-69410000D02*
X226950000Y-69410000D01*
X182960000Y-50390000D02*
X186460000Y-50390000D01*
D11*
X90424000Y-46990000D02*
X246334000Y-47020001D01*
D10*
X125820000Y-54870000D02*
X125820000Y-50370000D01*
X205520000Y-54890000D02*
X202020000Y-54890000D01*
X216300000Y-88490000D02*
X219800000Y-88490000D01*
D12*
X188520000Y-60680000D03*
D13*
X180210000Y-58140000D03*
D14*
X189790000Y-58140000D03*
D13*
X189210000Y-58140000D03*
D12*
X182170000Y-63220000D03*
X187250000Y-63220000D03*
X180900000Y-60680001D03*
D14*
X179630000Y-58140000D03*
D15*
X184710000Y-58140000D03*
D16*
X187110000Y-53515000D03*
X187110000Y-51765000D03*
X182310000Y-51765000D03*
X182310000Y-53515000D03*
D17*
X191710000Y-60720000D03*
X179010000Y-63260000D03*
D13*
X161160000Y-58140000D03*
D12*
X161850000Y-60680001D03*
D13*
X170160000Y-58140000D03*
D14*
X160580000Y-58140000D03*
D12*
X169470000Y-60680000D03*
D14*
X170740000Y-58140000D03*
D15*
X165660000Y-58140000D03*
D12*
X168200000Y-63220000D03*
X163120000Y-63220000D03*
D16*
X168060000Y-53515000D03*
X168060000Y-51765000D03*
X163260000Y-51765000D03*
X163260000Y-53515000D03*
D17*
X172660000Y-60720000D03*
X159960000Y-63260000D03*
D14*
X189190000Y-77210000D03*
D12*
X190460000Y-79750001D03*
D15*
X194270000Y-77210000D03*
D13*
X198770000Y-77210000D03*
D12*
X198080000Y-79750000D03*
D13*
X189770000Y-77210000D03*
D12*
X191730000Y-82290000D03*
X196810000Y-82290000D03*
D14*
X199350000Y-77210000D03*
D16*
X196670000Y-72585000D03*
X196670000Y-70835000D03*
X191870000Y-70835000D03*
X191870000Y-72585000D03*
D17*
X201270000Y-79790000D03*
X188570000Y-82330000D03*
D18*
X176500000Y-57235000D03*
X176500000Y-53685000D03*
X217170000Y-75943000D03*
X217170000Y-72393000D03*
D14*
X123150000Y-77190000D03*
D12*
X120610000Y-82270000D03*
D13*
X113570000Y-77190000D03*
D15*
X118070000Y-77190000D03*
D12*
X121880000Y-79730000D03*
D14*
X112990000Y-77190000D03*
D13*
X122570000Y-77190000D03*
D12*
X115530000Y-82270000D03*
X114260000Y-79730001D03*
D16*
X120470000Y-72565000D03*
X120470000Y-70815000D03*
X115670000Y-70815000D03*
X115670000Y-72565000D03*
D17*
X125070000Y-79770000D03*
X112370000Y-82310000D03*
D18*
X100838000Y-114551000D03*
X100838000Y-111001000D03*
D19*
X163830000Y-69185000D03*
X163830000Y-67435000D03*
X168230000Y-67435000D03*
X168230000Y-69185000D03*
D18*
X167640000Y-76451000D03*
X167640000Y-72901000D03*
X124206000Y-133601000D03*
X124206000Y-130051000D03*
X129210000Y-76630000D03*
X129210000Y-73080000D03*
D12*
X166610000Y-117860001D03*
D14*
X175500000Y-115320000D03*
D12*
X167880000Y-120400000D03*
D15*
X170420000Y-115320000D03*
D14*
X165340000Y-115320000D03*
D12*
X172960000Y-120400000D03*
D13*
X174920000Y-115320000D03*
D12*
X174230000Y-117860000D03*
D13*
X165920000Y-115320000D03*
D16*
X172820000Y-110695000D03*
X172820000Y-108945000D03*
X168020000Y-108945000D03*
X168020000Y-110695000D03*
D17*
X177420000Y-117900000D03*
X164720000Y-120440000D03*
D12*
X240930000Y-98770000D03*
D15*
X237120000Y-96230000D03*
D13*
X241620000Y-96230000D03*
D12*
X234580000Y-101310000D03*
X239660000Y-101310000D03*
D14*
X232040000Y-96230000D03*
X242200000Y-96230000D03*
D13*
X232620000Y-96230000D03*
D12*
X233310000Y-98770001D03*
D16*
X239520000Y-91605000D03*
X239520000Y-89855000D03*
X234720000Y-89855000D03*
X234720000Y-91605000D03*
D17*
X244120000Y-98810000D03*
X231420000Y-101350000D03*
D14*
X208870000Y-134380000D03*
D12*
X201250000Y-139460000D03*
D13*
X199290000Y-134380000D03*
D12*
X199980000Y-136920001D03*
X206330000Y-139460000D03*
D13*
X208290000Y-134380000D03*
D14*
X198710000Y-134380000D03*
D12*
X207600000Y-136920000D03*
D15*
X203790000Y-134380000D03*
D16*
X206190000Y-129755000D03*
X206190000Y-128005000D03*
X201390000Y-128005000D03*
X201390000Y-129755000D03*
D17*
X210790000Y-136960000D03*
X198090000Y-139500000D03*
D12*
X139660000Y-82270000D03*
X140930000Y-79730000D03*
X134580000Y-82270000D03*
X133310000Y-79730001D03*
D15*
X137120000Y-77190000D03*
D13*
X141620000Y-77190000D03*
D14*
X142200000Y-77190000D03*
X132040000Y-77190000D03*
D13*
X132620000Y-77190000D03*
D16*
X139520000Y-72565000D03*
X139520000Y-70815000D03*
X134720000Y-70815000D03*
X134720000Y-72565000D03*
D17*
X144120000Y-79770000D03*
X131420000Y-82310000D03*
D19*
X111300000Y-61215000D03*
X111300000Y-59465000D03*
X115700000Y-59465000D03*
X115700000Y-61215000D03*
D20*
X97780000Y-137480000D03*
D14*
X212970000Y-96240000D03*
D15*
X218050000Y-96240000D03*
D12*
X214240000Y-98780001D03*
X215510000Y-101320000D03*
X221860000Y-98780000D03*
D14*
X223130000Y-96240000D03*
D13*
X222550000Y-96240000D03*
X213550000Y-96240000D03*
D12*
X220590000Y-101320000D03*
D16*
X220450000Y-91615000D03*
X220450000Y-89865000D03*
X215650000Y-89865000D03*
X215650000Y-91615000D03*
D17*
X225050000Y-98820000D03*
X212350000Y-101360000D03*
D21*
X96476000Y-82042000D03*
D22*
X100076000Y-82042000D03*
D14*
X165960000Y-96260000D03*
D12*
X158340000Y-101340000D03*
X164690000Y-98800000D03*
D13*
X165380000Y-96260000D03*
D12*
X163420000Y-101340000D03*
X157070000Y-98800001D03*
D13*
X156380000Y-96260000D03*
D14*
X155800000Y-96260000D03*
D15*
X160880000Y-96260000D03*
D16*
X163280000Y-91635000D03*
X163280000Y-89885000D03*
X158480000Y-89885000D03*
X158480000Y-91635000D03*
D17*
X167880000Y-98840000D03*
X155180000Y-101380000D03*
D18*
X138684000Y-57401000D03*
X138684000Y-53851000D03*
D20*
X112460000Y-51670000D03*
D14*
X122490000Y-58130000D03*
X132650000Y-58130000D03*
D12*
X123760000Y-60670001D03*
X130110000Y-63210000D03*
X131380000Y-60670000D03*
D13*
X132070000Y-58130000D03*
D12*
X125030000Y-63210000D03*
D13*
X123070000Y-58130000D03*
D15*
X127570000Y-58130000D03*
D16*
X129970000Y-53505000D03*
X129970000Y-51755000D03*
X125170000Y-51755000D03*
X125170000Y-53505000D03*
D17*
X134570000Y-60710000D03*
X121870000Y-63250000D03*
D18*
X157480000Y-57147000D03*
X157480000Y-53597000D03*
D14*
X165340000Y-134390000D03*
D15*
X170420000Y-134390000D03*
D12*
X166610000Y-136930001D03*
X174230000Y-136930000D03*
D14*
X175500000Y-134390000D03*
D12*
X172960000Y-139470000D03*
X167880000Y-139470000D03*
D13*
X165920000Y-134390000D03*
X174920000Y-134390000D03*
D16*
X172820000Y-129765000D03*
X172820000Y-128015000D03*
X168020000Y-128015000D03*
X168020000Y-129765000D03*
D17*
X177420000Y-136970000D03*
X164720000Y-139510000D03*
D18*
X114808000Y-95501000D03*
X114808000Y-91951000D03*
D23*
X90170000Y-93120000D03*
X90170000Y-86620000D03*
D18*
X214884000Y-57655000D03*
X214884000Y-54105000D03*
D12*
X150420000Y-60680000D03*
D15*
X146610000Y-58140000D03*
D12*
X144070000Y-63220000D03*
D14*
X151690000Y-58140000D03*
D13*
X151110000Y-58140000D03*
X142110000Y-58140000D03*
D12*
X149150000Y-63220000D03*
D14*
X141530000Y-58140000D03*
D12*
X142800000Y-60680001D03*
D16*
X149010000Y-53515000D03*
X149010000Y-51765000D03*
X144210000Y-51765000D03*
X144210000Y-53515000D03*
D17*
X153610000Y-60720000D03*
X140910000Y-63260000D03*
D15*
X122770000Y-96250000D03*
D14*
X117690000Y-96250000D03*
D12*
X125310000Y-101330000D03*
X126580000Y-98790000D03*
D13*
X127270000Y-96250000D03*
D12*
X120230000Y-101330000D03*
D14*
X127850000Y-96250000D03*
D12*
X118960000Y-98790001D03*
D13*
X118270000Y-96250000D03*
D16*
X125170000Y-91625000D03*
X125170000Y-89875000D03*
X120370000Y-89875000D03*
X120370000Y-91625000D03*
D17*
X129770000Y-98830000D03*
X117070000Y-101370000D03*
D14*
X137400000Y-134390000D03*
D15*
X132320000Y-134390000D03*
D13*
X136820000Y-134390000D03*
D12*
X134860000Y-139470000D03*
X128510000Y-136930001D03*
X136130000Y-136930000D03*
X129780000Y-139470000D03*
D14*
X127240000Y-134390000D03*
D13*
X127820000Y-134390000D03*
D16*
X134720000Y-129765000D03*
X134720000Y-128015000D03*
X129920000Y-128015000D03*
X129920000Y-129765000D03*
D17*
X139320000Y-136970000D03*
X126620000Y-139510000D03*
D18*
X224282000Y-133601000D03*
X224282000Y-130051000D03*
D12*
X228550000Y-136920001D03*
D13*
X227860000Y-134380000D03*
D12*
X236170000Y-136920000D03*
X234900000Y-139460000D03*
D14*
X227280000Y-134380000D03*
D13*
X236860000Y-134380000D03*
D12*
X229820000Y-139460000D03*
D14*
X237440000Y-134380000D03*
D15*
X232360000Y-134380000D03*
D16*
X234760000Y-129755000D03*
X234760000Y-128005000D03*
X229960000Y-128005000D03*
X229960000Y-129755000D03*
D17*
X239360000Y-136960000D03*
X226660000Y-139500000D03*
D12*
X195180000Y-98800001D03*
D13*
X194490000Y-96260000D03*
D15*
X198990000Y-96260000D03*
D14*
X193910000Y-96260000D03*
X204070000Y-96260000D03*
D12*
X201530000Y-101340000D03*
X196450000Y-101340000D03*
X202800000Y-98800000D03*
D13*
X203490000Y-96260000D03*
D16*
X201390000Y-91635000D03*
X201390000Y-89885000D03*
X196590000Y-89885000D03*
X196590000Y-91635000D03*
D17*
X205990000Y-98840000D03*
X193290000Y-101380000D03*
D13*
X113000000Y-115300000D03*
D14*
X103420000Y-115300000D03*
D12*
X112310000Y-117840000D03*
D15*
X108500000Y-115300000D03*
D12*
X111040000Y-120380000D03*
X104690000Y-117840001D03*
D14*
X113580000Y-115300000D03*
D12*
X105960000Y-120380000D03*
D13*
X104000000Y-115300000D03*
D16*
X110900000Y-110675000D03*
X110900000Y-108925000D03*
X106100000Y-108925000D03*
X106100000Y-110675000D03*
D17*
X115500000Y-117880000D03*
X102800000Y-120420000D03*
D18*
X119530000Y-57415000D03*
X119530000Y-53865000D03*
X186436000Y-76705000D03*
X186436000Y-73155000D03*
D24*
X89630000Y-100015000D03*
X96630000Y-100015000D03*
X89630000Y-98265000D03*
X96630000Y-98265000D03*
D25*
X98430000Y-96165000D03*
X98430000Y-102115000D03*
X94430000Y-96165000D03*
X94430000Y-102115000D03*
X91430000Y-102115000D03*
X91430000Y-96165000D03*
X99930000Y-100365000D03*
X99930000Y-97915000D03*
D14*
X127230000Y-115320000D03*
D12*
X128500000Y-117860001D03*
D13*
X136810000Y-115320000D03*
D14*
X137390000Y-115320000D03*
D12*
X136120000Y-117860000D03*
D15*
X132310000Y-115320000D03*
D12*
X129770000Y-120400000D03*
X134850000Y-120400000D03*
D13*
X127810000Y-115320000D03*
D16*
X134710000Y-110695000D03*
X134710000Y-108945000D03*
X129910000Y-108945000D03*
X129910000Y-110695000D03*
D17*
X139310000Y-117900000D03*
X126610000Y-120440000D03*
D18*
X210058000Y-95501000D03*
X210058000Y-91951000D03*
D12*
X155190000Y-117870000D03*
X153920000Y-120410000D03*
D13*
X155880000Y-115330000D03*
D15*
X151380000Y-115330000D03*
D12*
X148840000Y-120410000D03*
D14*
X146300000Y-115330000D03*
D12*
X147570000Y-117870001D03*
D14*
X156460000Y-115330000D03*
D13*
X146880000Y-115330000D03*
D16*
X153780000Y-110705000D03*
X153780000Y-108955000D03*
X148980000Y-108955000D03*
X148980000Y-110705000D03*
D17*
X158380000Y-117910000D03*
X145680000Y-120450000D03*
D15*
X208540000Y-115310000D03*
D14*
X213620000Y-115310000D03*
D13*
X213040000Y-115310000D03*
D12*
X212350000Y-117850000D03*
D14*
X203460000Y-115310000D03*
D12*
X211080000Y-120390000D03*
D13*
X204040000Y-115310000D03*
D12*
X204730000Y-117850001D03*
X206000000Y-120390000D03*
D16*
X210940000Y-110685000D03*
X210940000Y-108935000D03*
X206140000Y-108935000D03*
X206140000Y-110685000D03*
D17*
X215540000Y-117890000D03*
X202840000Y-120430000D03*
D12*
X221390000Y-79710001D03*
D13*
X229700000Y-77170000D03*
D14*
X220120000Y-77170000D03*
D12*
X229010000Y-79710000D03*
X222660000Y-82250000D03*
X227740000Y-82250000D03*
D13*
X220700000Y-77170000D03*
D15*
X225200000Y-77170000D03*
D14*
X230280000Y-77170000D03*
D16*
X227600000Y-72545000D03*
X227600000Y-70795000D03*
X222800000Y-70795000D03*
X222800000Y-72545000D03*
D17*
X232200000Y-79750000D03*
X219500000Y-82290000D03*
D19*
X114260000Y-130375000D03*
X114260000Y-128625000D03*
X118660000Y-128625000D03*
X118660000Y-130375000D03*
D18*
X153162000Y-95501000D03*
X153162000Y-91951000D03*
X109982000Y-76451000D03*
X109982000Y-72901000D03*
D13*
X227310000Y-58130000D03*
D12*
X226620000Y-60670000D03*
X220270000Y-63210000D03*
D15*
X222810000Y-58130000D03*
D14*
X227890000Y-58130000D03*
X217730000Y-58130000D03*
D12*
X225350000Y-63210000D03*
X219000000Y-60670001D03*
D13*
X218310000Y-58130000D03*
D16*
X225210000Y-53505000D03*
X225210000Y-51755000D03*
X220410000Y-51755000D03*
X220410000Y-53505000D03*
D17*
X229810000Y-60710000D03*
X217110000Y-63250000D03*
D18*
X195580000Y-133601000D03*
X195580000Y-130051000D03*
D26*
X94930000Y-87390000D03*
X97470000Y-87390000D03*
X100010000Y-87390000D03*
X102550000Y-87390000D03*
D18*
X229108000Y-95755000D03*
X229108000Y-92205000D03*
X181610000Y-114805000D03*
X181610000Y-111255000D03*
X191008000Y-95755000D03*
X191008000Y-92205000D03*
D20*
X184120000Y-136850000D03*
D14*
X208850000Y-58140000D03*
D12*
X206310000Y-63220000D03*
D13*
X199270000Y-58140000D03*
X208270000Y-58140000D03*
D12*
X199960000Y-60680001D03*
X201230000Y-63220000D03*
D15*
X203770000Y-58140000D03*
D12*
X207580000Y-60680000D03*
D14*
X198690000Y-58140000D03*
D16*
X206170000Y-53515000D03*
X206170000Y-51765000D03*
X201370000Y-51765000D03*
X201370000Y-53515000D03*
D17*
X210770000Y-60720000D03*
X198070000Y-63260000D03*
D14*
X180290000Y-77210000D03*
D12*
X171400000Y-79750001D03*
X172670000Y-82290000D03*
D13*
X170710000Y-77210000D03*
D15*
X175210000Y-77210000D03*
D13*
X179710000Y-77210000D03*
D14*
X170130000Y-77210000D03*
D12*
X177750000Y-82290000D03*
X179020000Y-79750000D03*
D16*
X177610000Y-72585000D03*
X177610000Y-70835000D03*
X172810000Y-70835000D03*
X172810000Y-72585000D03*
D17*
X182210000Y-79790000D03*
X169510000Y-82330000D03*
D19*
X149820000Y-130245000D03*
X149820000Y-128495000D03*
X154220000Y-128495000D03*
X154220000Y-130245000D03*
D18*
X195720000Y-57375000D03*
X195720000Y-53825000D03*
X162560000Y-114805000D03*
X162560000Y-111255000D03*
X171710000Y-95245000D03*
X171710000Y-91695000D03*
D27*
X91186000Y-54864000D03*
D28*
X91186000Y-57404000D03*
X91186000Y-59944000D03*
X91186000Y-62484000D03*
X91186000Y-65024000D03*
X91186000Y-67564000D03*
X91186000Y-70104000D03*
X91186000Y-72644000D03*
X91186000Y-75184000D03*
X91186000Y-77724000D03*
X91186000Y-80264000D03*
X91186000Y-82804000D03*
X106426000Y-82804000D03*
X106426000Y-80264000D03*
X106426000Y-77724000D03*
X106426000Y-75184000D03*
X106426000Y-72644000D03*
X106426000Y-70104000D03*
X106426000Y-67564000D03*
X106426000Y-65024000D03*
X106426000Y-62484000D03*
X106426000Y-59944000D03*
X106426000Y-57404000D03*
X106426000Y-54864000D03*
D19*
X216602100Y-131305000D03*
X216602100Y-129555000D03*
X221002100Y-129555000D03*
X221002100Y-131305000D03*
D13*
X137330000Y-96260000D03*
D12*
X144370000Y-101340000D03*
D14*
X146910000Y-96260000D03*
D12*
X138020000Y-98800001D03*
D15*
X141830000Y-96260000D03*
D12*
X145640000Y-98800000D03*
D13*
X146330000Y-96260000D03*
D14*
X136750000Y-96260000D03*
D12*
X139290000Y-101340000D03*
D16*
X144230000Y-91635000D03*
X144230000Y-89885000D03*
X139430000Y-89885000D03*
X139430000Y-91635000D03*
D17*
X148830000Y-98840000D03*
X136130000Y-101380000D03*
D19*
X207322100Y-70145000D03*
X207322100Y-68395000D03*
X211722100Y-68395000D03*
X211722100Y-70145000D03*
D18*
X148340000Y-76695000D03*
X148340000Y-73145000D03*
D12*
X186940000Y-120400000D03*
D13*
X184980000Y-115320000D03*
D12*
X192020000Y-120400000D03*
D14*
X184400000Y-115320000D03*
X194560000Y-115320000D03*
D12*
X193290000Y-117860000D03*
X185670000Y-117860001D03*
D13*
X193980000Y-115320000D03*
D15*
X189480000Y-115320000D03*
D16*
X191880000Y-110695000D03*
X191880000Y-108945000D03*
X187080000Y-108945000D03*
X187080000Y-110695000D03*
D17*
X196480000Y-117900000D03*
X183780000Y-120440000D03*
D13*
X227850000Y-115300000D03*
X236850000Y-115300000D03*
D12*
X234890000Y-120380000D03*
D15*
X232350000Y-115300000D03*
D12*
X229810000Y-120380000D03*
D14*
X227270000Y-115300000D03*
X237430000Y-115300000D03*
D12*
X236160000Y-117840000D03*
X228540000Y-117840001D03*
D16*
X234750000Y-110675000D03*
X234750000Y-108925000D03*
X229950000Y-108925000D03*
X229950000Y-110675000D03*
D17*
X239350000Y-117880000D03*
X226650000Y-120420000D03*
D29*
X104140000Y-51308000D03*
D30*
X99340000Y-51308000D03*
X94540000Y-51308000D03*
D18*
X124460000Y-114551000D03*
X124460000Y-111001000D03*
X133604000Y-95504000D03*
X133604000Y-91954000D03*
X200630000Y-114595000D03*
X200630000Y-111045000D03*
D12*
X159980000Y-79740000D03*
D14*
X161250000Y-77200000D03*
D12*
X158710000Y-82280000D03*
X153630000Y-82280000D03*
D13*
X151670000Y-77200000D03*
X160670000Y-77200000D03*
D12*
X152360000Y-79740001D03*
D15*
X156170000Y-77200000D03*
D14*
X151090000Y-77200000D03*
D16*
X158570000Y-72575000D03*
X158570000Y-70825000D03*
X153770000Y-70825000D03*
X153770000Y-72575000D03*
D17*
X163170000Y-79780000D03*
X150470000Y-82320000D03*
D18*
X143510000Y-114551000D03*
X143510000Y-111001000D03*
X224282000Y-114551000D03*
X224282000Y-111001000D03*
X162210000Y-133385000D03*
X162210000Y-129835000D03*
D15*
X179940000Y-96260000D03*
D12*
X182480000Y-101340000D03*
D13*
X184440000Y-96260000D03*
D12*
X183750000Y-98800000D03*
D14*
X185020000Y-96260000D03*
D12*
X177400000Y-101340000D03*
D13*
X175440000Y-96260000D03*
D12*
X176130000Y-98800001D03*
D14*
X174860000Y-96260000D03*
D16*
X182340000Y-91635000D03*
X182340000Y-89885000D03*
X177540000Y-89885000D03*
X177540000Y-91635000D03*
D17*
X186940000Y-98840000D03*
X174240000Y-101380000D03*
D20*
X241960000Y-66950000D03*
M02*
