G04 #@! TF.GenerationSoftware,KiCad,Pcbnew,(6.0.7)*
G04 #@! TF.CreationDate,2022-08-16T06:35:40+00:00*
G04 #@! TF.ProjectId,zzsplit-right,7a7a7370-6c69-4742-9d72-696768742e6b,rev?*
G04 #@! TF.SameCoordinates,Original*
G04 #@! TF.FileFunction,Legend,Bot*
G04 #@! TF.FilePolarity,Positive*
%FSLAX46Y46*%
G04 Gerber Fmt 4.6, Leading zero omitted, Abs format (unit mm)*
G04 Created by KiCad (PCBNEW (6.0.7)) date 2022-08-16 06:35:40*
%MOMM*%
%LPD*%
G01*
G04 APERTURE LIST*
G04 Aperture macros list*
%AMRoundRect*
0 Rectangle with rounded corners*
0 $1 Rounding radius*
0 $2 $3 $4 $5 $6 $7 $8 $9 X,Y pos of 4 corners*
0 Add a 4 corners polygon primitive as box body*
4,1,4,$2,$3,$4,$5,$6,$7,$8,$9,$2,$3,0*
0 Add four circle primitives for the rounded corners*
1,1,$1+$1,$2,$3*
1,1,$1+$1,$4,$5*
1,1,$1+$1,$6,$7*
1,1,$1+$1,$8,$9*
0 Add four rect primitives between the rounded corners*
20,1,$1+$1,$2,$3,$4,$5,0*
20,1,$1+$1,$4,$5,$6,$7,0*
20,1,$1+$1,$6,$7,$8,$9,0*
20,1,$1+$1,$8,$9,$2,$3,0*%
G04 Aperture macros list end*
G04 #@! TA.AperFunction,Profile*
%ADD10C,0.150000*%
G04 #@! TD*
G04 #@! TA.AperFunction,Profile*
%ADD11C,0.100000*%
G04 #@! TD*
%ADD12C,0.250000*%
%ADD13C,0.150000*%
%ADD14C,0.300000*%
%ADD15C,3.500000*%
%ADD16C,0.400000*%
%ADD17C,1.000000*%
%ADD18C,0.800000*%
%ADD19C,0.500000*%
%ADD20C,3.000000*%
%ADD21C,0.381000*%
%ADD22R,1.752600X1.752600*%
%ADD23C,1.752600*%
%ADD24C,3.000000*%
%ADD25C,1.700000*%
%ADD26C,1.900000*%
%ADD27C,4.100000*%
%ADD28R,1.600000X1.000000*%
%ADD29R,2.300000X2.000000*%
%ADD30R,0.950000X1.300000*%
%ADD31R,2.000000X1.000000*%
%ADD32C,4.700000*%
%ADD33RoundRect,0.250000X-0.550000X-0.550000X0.550000X-0.550000X0.550000X0.550000X-0.550000X0.550000X0*%
%ADD34C,1.600000*%
%ADD35C,2.000000*%
%ADD36C,1.200000*%
%ADD37O,2.500000X1.700000*%
%ADD38C,1.397000*%
%ADD39C,0.700000*%
G04 APERTURE END LIST*
D10*
X130560000Y-126630000D02*
X134060000Y-126630000D01*
X134060000Y-112070000D02*
X130560000Y-112070000D01*
X168670000Y-126640000D02*
X172170000Y-126640000D01*
D11*
X87924000Y-49490000D02*
X87964000Y-143250000D01*
D10*
X129320000Y-50370000D02*
X129320000Y-54870000D01*
X205540000Y-126630000D02*
X205540000Y-131130000D01*
D11*
X246333920Y-145889980D02*
X90464000Y-145750000D01*
D10*
X173460000Y-69460000D02*
X176960000Y-69460000D01*
X119820000Y-73940000D02*
X116320000Y-73940000D01*
X210290000Y-112060000D02*
X206790000Y-112060000D01*
X167410000Y-54890000D02*
X163910000Y-54890000D01*
X172170000Y-112070000D02*
X168670000Y-112070000D01*
X192520000Y-73960000D02*
X192520000Y-69460000D01*
X106750000Y-112050000D02*
X106750000Y-107550000D01*
X172170000Y-131140000D02*
X168670000Y-131140000D01*
X205520000Y-50390000D02*
X205520000Y-54890000D01*
X168670000Y-107570000D02*
X172170000Y-107570000D01*
X172170000Y-126640000D02*
X172170000Y-131140000D01*
X196020000Y-73960000D02*
X192520000Y-73960000D01*
X181690000Y-88510000D02*
X181690000Y-93010000D01*
X153130000Y-107580000D02*
X153130000Y-112080000D01*
X202020000Y-54890000D02*
X202020000Y-50390000D01*
X124520000Y-93000000D02*
X121020000Y-93000000D01*
X178190000Y-93010000D02*
X178190000Y-88510000D01*
D11*
X90424000Y-46990000D02*
G75*
G03*
X87924000Y-49490000I0J-2500000D01*
G01*
D10*
X219800000Y-92990000D02*
X216300000Y-92990000D01*
X202020000Y-50390000D02*
X205520000Y-50390000D01*
X134060000Y-107570000D02*
X134060000Y-112070000D01*
X130560000Y-107570000D02*
X134060000Y-107570000D01*
X149630000Y-107580000D02*
X153130000Y-107580000D01*
X226950000Y-73910000D02*
X223450000Y-73910000D01*
D11*
X246333920Y-145889980D02*
G75*
G03*
X248854000Y-143380000I10080J2509980D01*
G01*
D10*
X202040000Y-131130000D02*
X202040000Y-126630000D01*
X234110000Y-126630000D02*
X234110000Y-131130000D01*
X221060000Y-50370000D02*
X224560000Y-50370000D01*
X235370000Y-92980000D02*
X235370000Y-88480000D01*
X143580000Y-93010000D02*
X140080000Y-93010000D01*
D11*
X248824019Y-49520000D02*
X248854000Y-143380000D01*
D10*
X138870000Y-69440000D02*
X138870000Y-73940000D01*
X238870000Y-88480000D02*
X238870000Y-92980000D01*
X202040000Y-126630000D02*
X205540000Y-126630000D01*
X138870000Y-73940000D02*
X135370000Y-73940000D01*
X124520000Y-88500000D02*
X124520000Y-93000000D01*
X230610000Y-126630000D02*
X234110000Y-126630000D01*
X129320000Y-54870000D02*
X125820000Y-54870000D01*
X197240000Y-88510000D02*
X200740000Y-88510000D01*
X238870000Y-92980000D02*
X235370000Y-92980000D01*
X230600000Y-107550000D02*
X234100000Y-107550000D01*
X162630000Y-93010000D02*
X159130000Y-93010000D01*
X182960000Y-54890000D02*
X182960000Y-50390000D01*
X187730000Y-112070000D02*
X187730000Y-107570000D01*
X192520000Y-69460000D02*
X196020000Y-69460000D01*
X157920000Y-73950000D02*
X154420000Y-73950000D01*
X140080000Y-88510000D02*
X143580000Y-88510000D01*
X224560000Y-54870000D02*
X221060000Y-54870000D01*
X186460000Y-54890000D02*
X182960000Y-54890000D01*
X178190000Y-88510000D02*
X181690000Y-88510000D01*
X216300000Y-92990000D02*
X216300000Y-88490000D01*
X163910000Y-50390000D02*
X167410000Y-50390000D01*
X230610000Y-131130000D02*
X230610000Y-126630000D01*
X154420000Y-69450000D02*
X157920000Y-69450000D01*
X168670000Y-131140000D02*
X168670000Y-126640000D01*
X210290000Y-107560000D02*
X210290000Y-112060000D01*
X140080000Y-93010000D02*
X140080000Y-88510000D01*
X121020000Y-93000000D02*
X121020000Y-88500000D01*
X172170000Y-107570000D02*
X172170000Y-112070000D01*
X167410000Y-50390000D02*
X167410000Y-54890000D01*
X168670000Y-112070000D02*
X168670000Y-107570000D01*
X134060000Y-131130000D02*
X130560000Y-131130000D01*
X121020000Y-88500000D02*
X124520000Y-88500000D01*
X159130000Y-93010000D02*
X159130000Y-88510000D01*
X119820000Y-69440000D02*
X119820000Y-73940000D01*
X159130000Y-88510000D02*
X162630000Y-88510000D01*
X234110000Y-131130000D02*
X230610000Y-131130000D01*
X143580000Y-88510000D02*
X143580000Y-93010000D01*
X219800000Y-88490000D02*
X219800000Y-92990000D01*
X191230000Y-107570000D02*
X191230000Y-112070000D01*
X116320000Y-73940000D02*
X116320000Y-69440000D01*
X110250000Y-112050000D02*
X106750000Y-112050000D01*
X144860000Y-50390000D02*
X148360000Y-50390000D01*
X224560000Y-50370000D02*
X224560000Y-54870000D01*
X176960000Y-73960000D02*
X173460000Y-73960000D01*
X197240000Y-93010000D02*
X197240000Y-88510000D01*
D11*
X87964000Y-143250000D02*
G75*
G03*
X90464000Y-145750000I2500000J0D01*
G01*
D10*
X148360000Y-50390000D02*
X148360000Y-54890000D01*
X226950000Y-69410000D02*
X226950000Y-73910000D01*
X130560000Y-112070000D02*
X130560000Y-107570000D01*
X223450000Y-73910000D02*
X223450000Y-69410000D01*
X106750000Y-107550000D02*
X110250000Y-107550000D01*
X135370000Y-73940000D02*
X135370000Y-69440000D01*
X176960000Y-69460000D02*
X176960000Y-73960000D01*
X205540000Y-131130000D02*
X202040000Y-131130000D01*
X116320000Y-69440000D02*
X119820000Y-69440000D01*
X200740000Y-88510000D02*
X200740000Y-93010000D01*
X196020000Y-69460000D02*
X196020000Y-73960000D01*
X206790000Y-112060000D02*
X206790000Y-107560000D01*
X234100000Y-112050000D02*
X230600000Y-112050000D01*
X181690000Y-93010000D02*
X178190000Y-93010000D01*
X191230000Y-112070000D02*
X187730000Y-112070000D01*
X187730000Y-107570000D02*
X191230000Y-107570000D01*
X200740000Y-93010000D02*
X197240000Y-93010000D01*
X235370000Y-88480000D02*
X238870000Y-88480000D01*
X148360000Y-54890000D02*
X144860000Y-54890000D01*
X134060000Y-126630000D02*
X134060000Y-131130000D01*
X153130000Y-112080000D02*
X149630000Y-112080000D01*
X154420000Y-73950000D02*
X154420000Y-69450000D01*
X162630000Y-88510000D02*
X162630000Y-93010000D01*
X221060000Y-54870000D02*
X221060000Y-50370000D01*
X186460000Y-50390000D02*
X186460000Y-54890000D01*
X110250000Y-107550000D02*
X110250000Y-112050000D01*
X206790000Y-107560000D02*
X210290000Y-107560000D01*
X135370000Y-69440000D02*
X138870000Y-69440000D01*
X163910000Y-54890000D02*
X163910000Y-50390000D01*
X125820000Y-50370000D02*
X129320000Y-50370000D01*
X149630000Y-112080000D02*
X149630000Y-107580000D01*
X157920000Y-69450000D02*
X157920000Y-73950000D01*
D11*
X248824019Y-49520000D02*
G75*
G03*
X246334000Y-47020001I-2500019J0D01*
G01*
D10*
X234100000Y-107550000D02*
X234100000Y-112050000D01*
X230600000Y-112050000D02*
X230600000Y-107550000D01*
X173460000Y-73960000D02*
X173460000Y-69460000D01*
X144860000Y-54890000D02*
X144860000Y-50390000D01*
X130560000Y-131130000D02*
X130560000Y-126630000D01*
X223450000Y-69410000D02*
X226950000Y-69410000D01*
X182960000Y-50390000D02*
X186460000Y-50390000D01*
D11*
X90424000Y-46990000D02*
X246334000Y-47020001D01*
D10*
X125820000Y-54870000D02*
X125820000Y-50370000D01*
X205520000Y-54890000D02*
X202020000Y-54890000D01*
X216300000Y-88490000D02*
X219800000Y-88490000D01*
D12*
X193694761Y-143607142D02*
X193647142Y-143654761D01*
X193694761Y-143702380D01*
X193742380Y-143654761D01*
X193694761Y-143607142D01*
X193694761Y-143702380D01*
X193361428Y-142702380D02*
X193028095Y-143702380D01*
X192694761Y-142702380D01*
X191837619Y-143702380D02*
X192409047Y-143702380D01*
X192123333Y-143702380D02*
X192123333Y-142702380D01*
X192218571Y-142845238D01*
X192313809Y-142940476D01*
X192409047Y-142988095D01*
D13*
X93954523Y-59544000D02*
X94030714Y-59505904D01*
X94145000Y-59505904D01*
X94259285Y-59544000D01*
X94335476Y-59620190D01*
X94373571Y-59696380D01*
X94411666Y-59848761D01*
X94411666Y-59963047D01*
X94373571Y-60115428D01*
X94335476Y-60191619D01*
X94259285Y-60267809D01*
X94145000Y-60305904D01*
X94068809Y-60305904D01*
X93954523Y-60267809D01*
X93916428Y-60229714D01*
X93916428Y-59963047D01*
X94068809Y-59963047D01*
X93573571Y-60305904D02*
X93573571Y-59505904D01*
X93116428Y-60305904D01*
X93116428Y-59505904D01*
X92735476Y-60305904D02*
X92735476Y-59505904D01*
X92545000Y-59505904D01*
X92430714Y-59544000D01*
X92354523Y-59620190D01*
X92316428Y-59696380D01*
X92278333Y-59848761D01*
X92278333Y-59963047D01*
X92316428Y-60115428D01*
X92354523Y-60191619D01*
X92430714Y-60267809D01*
X92545000Y-60305904D01*
X92735476Y-60305904D01*
X93935476Y-65385904D02*
X93935476Y-64585904D01*
X93745000Y-64585904D01*
X93630714Y-64624000D01*
X93554523Y-64700190D01*
X93516428Y-64776380D01*
X93478333Y-64928761D01*
X93478333Y-65043047D01*
X93516428Y-65195428D01*
X93554523Y-65271619D01*
X93630714Y-65347809D01*
X93745000Y-65385904D01*
X93935476Y-65385904D01*
X92716428Y-65385904D02*
X93173571Y-65385904D01*
X92945000Y-65385904D02*
X92945000Y-64585904D01*
X93021190Y-64700190D01*
X93097380Y-64776380D01*
X93173571Y-64814476D01*
X104590809Y-82746857D02*
X104476523Y-82784952D01*
X104438428Y-82823047D01*
X104400333Y-82899238D01*
X104400333Y-83013523D01*
X104438428Y-83089714D01*
X104476523Y-83127809D01*
X104552714Y-83165904D01*
X104857476Y-83165904D01*
X104857476Y-82365904D01*
X104590809Y-82365904D01*
X104514619Y-82404000D01*
X104476523Y-82442095D01*
X104438428Y-82518285D01*
X104438428Y-82594476D01*
X104476523Y-82670666D01*
X104514619Y-82708761D01*
X104590809Y-82746857D01*
X104857476Y-82746857D01*
X103714619Y-82365904D02*
X103867000Y-82365904D01*
X103943190Y-82404000D01*
X103981285Y-82442095D01*
X104057476Y-82556380D01*
X104095571Y-82708761D01*
X104095571Y-83013523D01*
X104057476Y-83089714D01*
X104019380Y-83127809D01*
X103943190Y-83165904D01*
X103790809Y-83165904D01*
X103714619Y-83127809D01*
X103676523Y-83089714D01*
X103638428Y-83013523D01*
X103638428Y-82823047D01*
X103676523Y-82746857D01*
X103714619Y-82708761D01*
X103790809Y-82670666D01*
X103943190Y-82670666D01*
X104019380Y-82708761D01*
X104057476Y-82746857D01*
X104095571Y-82823047D01*
X97424604Y-54425904D02*
X96967461Y-54425904D01*
X97196032Y-55225904D02*
X97196032Y-54425904D01*
X96776985Y-54425904D02*
X96243651Y-55225904D01*
X96243651Y-54425904D02*
X96776985Y-55225904D01*
X95786508Y-54425904D02*
X95710318Y-54425904D01*
X95634128Y-54464000D01*
X95596032Y-54502095D01*
X95557937Y-54578285D01*
X95519842Y-54730666D01*
X95519842Y-54921142D01*
X95557937Y-55073523D01*
X95596032Y-55149714D01*
X95634128Y-55187809D01*
X95710318Y-55225904D01*
X95786508Y-55225904D01*
X95862699Y-55187809D01*
X95900794Y-55149714D01*
X95938889Y-55073523D01*
X95976985Y-54921142D01*
X95976985Y-54730666D01*
X95938889Y-54578285D01*
X95900794Y-54502095D01*
X95862699Y-54464000D01*
X95786508Y-54425904D01*
X94605556Y-54387809D02*
X95291270Y-55416380D01*
X94338889Y-55225904D02*
X94338889Y-54425904D01*
X94148413Y-54425904D01*
X94034128Y-54464000D01*
X93957937Y-54540190D01*
X93919842Y-54616380D01*
X93881747Y-54768761D01*
X93881747Y-54883047D01*
X93919842Y-55035428D01*
X93957937Y-55111619D01*
X94034128Y-55187809D01*
X94148413Y-55225904D01*
X94338889Y-55225904D01*
X93615080Y-54425904D02*
X93119842Y-54425904D01*
X93386508Y-54730666D01*
X93272223Y-54730666D01*
X93196032Y-54768761D01*
X93157937Y-54806857D01*
X93119842Y-54883047D01*
X93119842Y-55073523D01*
X93157937Y-55149714D01*
X93196032Y-55187809D01*
X93272223Y-55225904D01*
X93500794Y-55225904D01*
X93576985Y-55187809D01*
X93615080Y-55149714D01*
X104590809Y-77666857D02*
X104476523Y-77704952D01*
X104438428Y-77743047D01*
X104400333Y-77819238D01*
X104400333Y-77933523D01*
X104438428Y-78009714D01*
X104476523Y-78047809D01*
X104552714Y-78085904D01*
X104857476Y-78085904D01*
X104857476Y-77285904D01*
X104590809Y-77285904D01*
X104514619Y-77324000D01*
X104476523Y-77362095D01*
X104438428Y-77438285D01*
X104438428Y-77514476D01*
X104476523Y-77590666D01*
X104514619Y-77628761D01*
X104590809Y-77666857D01*
X104857476Y-77666857D01*
X104133666Y-77285904D02*
X103638428Y-77285904D01*
X103905095Y-77590666D01*
X103790809Y-77590666D01*
X103714619Y-77628761D01*
X103676523Y-77666857D01*
X103638428Y-77743047D01*
X103638428Y-77933523D01*
X103676523Y-78009714D01*
X103714619Y-78047809D01*
X103790809Y-78085904D01*
X104019380Y-78085904D01*
X104095571Y-78047809D01*
X104133666Y-78009714D01*
X93935476Y-67925904D02*
X93935476Y-67125904D01*
X93745000Y-67125904D01*
X93630714Y-67164000D01*
X93554523Y-67240190D01*
X93516428Y-67316380D01*
X93478333Y-67468761D01*
X93478333Y-67583047D01*
X93516428Y-67735428D01*
X93554523Y-67811619D01*
X93630714Y-67887809D01*
X93745000Y-67925904D01*
X93935476Y-67925904D01*
X92983095Y-67125904D02*
X92906904Y-67125904D01*
X92830714Y-67164000D01*
X92792619Y-67202095D01*
X92754523Y-67278285D01*
X92716428Y-67430666D01*
X92716428Y-67621142D01*
X92754523Y-67773523D01*
X92792619Y-67849714D01*
X92830714Y-67887809D01*
X92906904Y-67925904D01*
X92983095Y-67925904D01*
X93059285Y-67887809D01*
X93097380Y-67849714D01*
X93135476Y-67773523D01*
X93173571Y-67621142D01*
X93173571Y-67430666D01*
X93135476Y-67278285D01*
X93097380Y-67202095D01*
X93059285Y-67164000D01*
X92983095Y-67125904D01*
X104590809Y-75126857D02*
X104476523Y-75164952D01*
X104438428Y-75203047D01*
X104400333Y-75279238D01*
X104400333Y-75393523D01*
X104438428Y-75469714D01*
X104476523Y-75507809D01*
X104552714Y-75545904D01*
X104857476Y-75545904D01*
X104857476Y-74745904D01*
X104590809Y-74745904D01*
X104514619Y-74784000D01*
X104476523Y-74822095D01*
X104438428Y-74898285D01*
X104438428Y-74974476D01*
X104476523Y-75050666D01*
X104514619Y-75088761D01*
X104590809Y-75126857D01*
X104857476Y-75126857D01*
X103638428Y-75545904D02*
X104095571Y-75545904D01*
X103867000Y-75545904D02*
X103867000Y-74745904D01*
X103943190Y-74860190D01*
X104019380Y-74936380D01*
X104095571Y-74974476D01*
X93935476Y-75545904D02*
X93935476Y-74745904D01*
X93745000Y-74745904D01*
X93630714Y-74784000D01*
X93554523Y-74860190D01*
X93516428Y-74936380D01*
X93478333Y-75088761D01*
X93478333Y-75203047D01*
X93516428Y-75355428D01*
X93554523Y-75431619D01*
X93630714Y-75507809D01*
X93745000Y-75545904D01*
X93935476Y-75545904D01*
X93211666Y-74745904D02*
X92678333Y-74745904D01*
X93021190Y-75545904D01*
X104379333Y-60247809D02*
X104265047Y-60285904D01*
X104074571Y-60285904D01*
X103998380Y-60247809D01*
X103960285Y-60209714D01*
X103922190Y-60133523D01*
X103922190Y-60057333D01*
X103960285Y-59981142D01*
X103998380Y-59943047D01*
X104074571Y-59904952D01*
X104226952Y-59866857D01*
X104303142Y-59828761D01*
X104341238Y-59790666D01*
X104379333Y-59714476D01*
X104379333Y-59638285D01*
X104341238Y-59562095D01*
X104303142Y-59524000D01*
X104226952Y-59485904D01*
X104036476Y-59485904D01*
X103922190Y-59524000D01*
X103693619Y-59485904D02*
X103236476Y-59485904D01*
X103465047Y-60285904D02*
X103465047Y-59485904D01*
X104533666Y-67506857D02*
X104800333Y-67506857D01*
X104800333Y-67925904D02*
X104800333Y-67125904D01*
X104419380Y-67125904D01*
X103733666Y-67125904D02*
X104114619Y-67125904D01*
X104152714Y-67506857D01*
X104114619Y-67468761D01*
X104038428Y-67430666D01*
X103847952Y-67430666D01*
X103771761Y-67468761D01*
X103733666Y-67506857D01*
X103695571Y-67583047D01*
X103695571Y-67773523D01*
X103733666Y-67849714D01*
X103771761Y-67887809D01*
X103847952Y-67925904D01*
X104038428Y-67925904D01*
X104114619Y-67887809D01*
X104152714Y-67849714D01*
X93935476Y-57765904D02*
X93935476Y-56965904D01*
X93745000Y-56965904D01*
X93630714Y-57004000D01*
X93554523Y-57080190D01*
X93516428Y-57156380D01*
X93478333Y-57308761D01*
X93478333Y-57423047D01*
X93516428Y-57575428D01*
X93554523Y-57651619D01*
X93630714Y-57727809D01*
X93745000Y-57765904D01*
X93935476Y-57765904D01*
X93173571Y-57042095D02*
X93135476Y-57004000D01*
X93059285Y-56965904D01*
X92868809Y-56965904D01*
X92792619Y-57004000D01*
X92754523Y-57042095D01*
X92716428Y-57118285D01*
X92716428Y-57194476D01*
X92754523Y-57308761D01*
X93211666Y-57765904D01*
X92716428Y-57765904D01*
X93668809Y-80206857D02*
X93554523Y-80244952D01*
X93516428Y-80283047D01*
X93478333Y-80359238D01*
X93478333Y-80473523D01*
X93516428Y-80549714D01*
X93554523Y-80587809D01*
X93630714Y-80625904D01*
X93935476Y-80625904D01*
X93935476Y-79825904D01*
X93668809Y-79825904D01*
X93592619Y-79864000D01*
X93554523Y-79902095D01*
X93516428Y-79978285D01*
X93516428Y-80054476D01*
X93554523Y-80130666D01*
X93592619Y-80168761D01*
X93668809Y-80206857D01*
X93935476Y-80206857D01*
X92792619Y-80092571D02*
X92792619Y-80625904D01*
X92983095Y-79787809D02*
X93173571Y-80359238D01*
X92678333Y-80359238D01*
X104533666Y-70046857D02*
X104800333Y-70046857D01*
X104800333Y-70465904D02*
X104800333Y-69665904D01*
X104419380Y-69665904D01*
X103771761Y-69665904D02*
X103924142Y-69665904D01*
X104000333Y-69704000D01*
X104038428Y-69742095D01*
X104114619Y-69856380D01*
X104152714Y-70008761D01*
X104152714Y-70313523D01*
X104114619Y-70389714D01*
X104076523Y-70427809D01*
X104000333Y-70465904D01*
X103847952Y-70465904D01*
X103771761Y-70427809D01*
X103733666Y-70389714D01*
X103695571Y-70313523D01*
X103695571Y-70123047D01*
X103733666Y-70046857D01*
X103771761Y-70008761D01*
X103847952Y-69970666D01*
X104000333Y-69970666D01*
X104076523Y-70008761D01*
X104114619Y-70046857D01*
X104152714Y-70123047D01*
X104533666Y-72586857D02*
X104800333Y-72586857D01*
X104800333Y-73005904D02*
X104800333Y-72205904D01*
X104419380Y-72205904D01*
X104190809Y-72205904D02*
X103657476Y-72205904D01*
X104000333Y-73005904D01*
X104819380Y-55225904D02*
X105086047Y-54844952D01*
X105276523Y-55225904D02*
X105276523Y-54425904D01*
X104971761Y-54425904D01*
X104895571Y-54464000D01*
X104857476Y-54502095D01*
X104819380Y-54578285D01*
X104819380Y-54692571D01*
X104857476Y-54768761D01*
X104895571Y-54806857D01*
X104971761Y-54844952D01*
X105276523Y-54844952D01*
X104514619Y-54997333D02*
X104133666Y-54997333D01*
X104590809Y-55225904D02*
X104324142Y-54425904D01*
X104057476Y-55225904D01*
X103867000Y-54425904D02*
X103676523Y-55225904D01*
X103524142Y-54654476D01*
X103371761Y-55225904D01*
X103181285Y-54425904D01*
X93954523Y-62084000D02*
X94030714Y-62045904D01*
X94145000Y-62045904D01*
X94259285Y-62084000D01*
X94335476Y-62160190D01*
X94373571Y-62236380D01*
X94411666Y-62388761D01*
X94411666Y-62503047D01*
X94373571Y-62655428D01*
X94335476Y-62731619D01*
X94259285Y-62807809D01*
X94145000Y-62845904D01*
X94068809Y-62845904D01*
X93954523Y-62807809D01*
X93916428Y-62769714D01*
X93916428Y-62503047D01*
X94068809Y-62503047D01*
X93573571Y-62845904D02*
X93573571Y-62045904D01*
X93116428Y-62845904D01*
X93116428Y-62045904D01*
X92735476Y-62845904D02*
X92735476Y-62045904D01*
X92545000Y-62045904D01*
X92430714Y-62084000D01*
X92354523Y-62160190D01*
X92316428Y-62236380D01*
X92278333Y-62388761D01*
X92278333Y-62503047D01*
X92316428Y-62655428D01*
X92354523Y-62731619D01*
X92430714Y-62807809D01*
X92545000Y-62845904D01*
X92735476Y-62845904D01*
X93668809Y-82746857D02*
X93554523Y-82784952D01*
X93516428Y-82823047D01*
X93478333Y-82899238D01*
X93478333Y-83013523D01*
X93516428Y-83089714D01*
X93554523Y-83127809D01*
X93630714Y-83165904D01*
X93935476Y-83165904D01*
X93935476Y-82365904D01*
X93668809Y-82365904D01*
X93592619Y-82404000D01*
X93554523Y-82442095D01*
X93516428Y-82518285D01*
X93516428Y-82594476D01*
X93554523Y-82670666D01*
X93592619Y-82708761D01*
X93668809Y-82746857D01*
X93935476Y-82746857D01*
X92754523Y-82365904D02*
X93135476Y-82365904D01*
X93173571Y-82746857D01*
X93135476Y-82708761D01*
X93059285Y-82670666D01*
X92868809Y-82670666D01*
X92792619Y-82708761D01*
X92754523Y-82746857D01*
X92716428Y-82823047D01*
X92716428Y-83013523D01*
X92754523Y-83089714D01*
X92792619Y-83127809D01*
X92868809Y-83165904D01*
X93059285Y-83165904D01*
X93135476Y-83127809D01*
X93173571Y-83089714D01*
X104590809Y-80206857D02*
X104476523Y-80244952D01*
X104438428Y-80283047D01*
X104400333Y-80359238D01*
X104400333Y-80473523D01*
X104438428Y-80549714D01*
X104476523Y-80587809D01*
X104552714Y-80625904D01*
X104857476Y-80625904D01*
X104857476Y-79825904D01*
X104590809Y-79825904D01*
X104514619Y-79864000D01*
X104476523Y-79902095D01*
X104438428Y-79978285D01*
X104438428Y-80054476D01*
X104476523Y-80130666D01*
X104514619Y-80168761D01*
X104590809Y-80206857D01*
X104857476Y-80206857D01*
X104095571Y-79902095D02*
X104057476Y-79864000D01*
X103981285Y-79825904D01*
X103790809Y-79825904D01*
X103714619Y-79864000D01*
X103676523Y-79902095D01*
X103638428Y-79978285D01*
X103638428Y-80054476D01*
X103676523Y-80168761D01*
X104133666Y-80625904D01*
X103638428Y-80625904D01*
X93935476Y-70465904D02*
X93935476Y-69665904D01*
X93745000Y-69665904D01*
X93630714Y-69704000D01*
X93554523Y-69780190D01*
X93516428Y-69856380D01*
X93478333Y-70008761D01*
X93478333Y-70123047D01*
X93516428Y-70275428D01*
X93554523Y-70351619D01*
X93630714Y-70427809D01*
X93745000Y-70465904D01*
X93935476Y-70465904D01*
X92792619Y-69932571D02*
X92792619Y-70465904D01*
X92983095Y-69627809D02*
X93173571Y-70199238D01*
X92678333Y-70199238D01*
X104876523Y-57004000D02*
X104952714Y-56965904D01*
X105067000Y-56965904D01*
X105181285Y-57004000D01*
X105257476Y-57080190D01*
X105295571Y-57156380D01*
X105333666Y-57308761D01*
X105333666Y-57423047D01*
X105295571Y-57575428D01*
X105257476Y-57651619D01*
X105181285Y-57727809D01*
X105067000Y-57765904D01*
X104990809Y-57765904D01*
X104876523Y-57727809D01*
X104838428Y-57689714D01*
X104838428Y-57423047D01*
X104990809Y-57423047D01*
X104495571Y-57765904D02*
X104495571Y-56965904D01*
X104038428Y-57765904D01*
X104038428Y-56965904D01*
X103657476Y-57765904D02*
X103657476Y-56965904D01*
X103467000Y-56965904D01*
X103352714Y-57004000D01*
X103276523Y-57080190D01*
X103238428Y-57156380D01*
X103200333Y-57308761D01*
X103200333Y-57423047D01*
X103238428Y-57575428D01*
X103276523Y-57651619D01*
X103352714Y-57727809D01*
X103467000Y-57765904D01*
X103657476Y-57765904D01*
X105333666Y-62045904D02*
X105067000Y-62845904D01*
X104800333Y-62045904D01*
X104076523Y-62769714D02*
X104114619Y-62807809D01*
X104228904Y-62845904D01*
X104305095Y-62845904D01*
X104419380Y-62807809D01*
X104495571Y-62731619D01*
X104533666Y-62655428D01*
X104571761Y-62503047D01*
X104571761Y-62388761D01*
X104533666Y-62236380D01*
X104495571Y-62160190D01*
X104419380Y-62084000D01*
X104305095Y-62045904D01*
X104228904Y-62045904D01*
X104114619Y-62084000D01*
X104076523Y-62122095D01*
X103276523Y-62769714D02*
X103314619Y-62807809D01*
X103428904Y-62845904D01*
X103505095Y-62845904D01*
X103619380Y-62807809D01*
X103695571Y-62731619D01*
X103733666Y-62655428D01*
X103771761Y-62503047D01*
X103771761Y-62388761D01*
X103733666Y-62236380D01*
X103695571Y-62160190D01*
X103619380Y-62084000D01*
X103505095Y-62045904D01*
X103428904Y-62045904D01*
X103314619Y-62084000D01*
X103276523Y-62122095D01*
X93478333Y-72929714D02*
X93516428Y-72967809D01*
X93630714Y-73005904D01*
X93706904Y-73005904D01*
X93821190Y-72967809D01*
X93897380Y-72891619D01*
X93935476Y-72815428D01*
X93973571Y-72663047D01*
X93973571Y-72548761D01*
X93935476Y-72396380D01*
X93897380Y-72320190D01*
X93821190Y-72244000D01*
X93706904Y-72205904D01*
X93630714Y-72205904D01*
X93516428Y-72244000D01*
X93478333Y-72282095D01*
X92792619Y-72205904D02*
X92945000Y-72205904D01*
X93021190Y-72244000D01*
X93059285Y-72282095D01*
X93135476Y-72396380D01*
X93173571Y-72548761D01*
X93173571Y-72853523D01*
X93135476Y-72929714D01*
X93097380Y-72967809D01*
X93021190Y-73005904D01*
X92868809Y-73005904D01*
X92792619Y-72967809D01*
X92754523Y-72929714D01*
X92716428Y-72853523D01*
X92716428Y-72663047D01*
X92754523Y-72586857D01*
X92792619Y-72548761D01*
X92868809Y-72510666D01*
X93021190Y-72510666D01*
X93097380Y-72548761D01*
X93135476Y-72586857D01*
X93173571Y-72663047D01*
X104533666Y-64966857D02*
X104800333Y-64966857D01*
X104800333Y-65385904D02*
X104800333Y-64585904D01*
X104419380Y-64585904D01*
X103771761Y-64852571D02*
X103771761Y-65385904D01*
X103962238Y-64547809D02*
X104152714Y-65119238D01*
X103657476Y-65119238D01*
X93897380Y-77666857D02*
X93630714Y-77666857D01*
X93516428Y-78085904D02*
X93897380Y-78085904D01*
X93897380Y-77285904D01*
X93516428Y-77285904D01*
X92830714Y-77285904D02*
X92983095Y-77285904D01*
X93059285Y-77324000D01*
X93097380Y-77362095D01*
X93173571Y-77476380D01*
X93211666Y-77628761D01*
X93211666Y-77933523D01*
X93173571Y-78009714D01*
X93135476Y-78047809D01*
X93059285Y-78085904D01*
X92906904Y-78085904D01*
X92830714Y-78047809D01*
X92792619Y-78009714D01*
X92754523Y-77933523D01*
X92754523Y-77743047D01*
X92792619Y-77666857D01*
X92830714Y-77628761D01*
X92906904Y-77590666D01*
X93059285Y-77590666D01*
X93135476Y-77628761D01*
X93173571Y-77666857D01*
X93211666Y-77743047D01*
D14*
X202005142Y-142305428D02*
X200989142Y-142305428D01*
X202005142Y-143829428D01*
X200989142Y-143829428D01*
X200553714Y-142813428D02*
X199755428Y-142813428D01*
X200553714Y-143829428D01*
X199755428Y-143829428D01*
X199247428Y-143756857D02*
X199029714Y-143829428D01*
X198666857Y-143829428D01*
X198521714Y-143756857D01*
X198449142Y-143684285D01*
X198376571Y-143539142D01*
X198376571Y-143394000D01*
X198449142Y-143248857D01*
X198521714Y-143176285D01*
X198666857Y-143103714D01*
X198957142Y-143031142D01*
X199102285Y-142958571D01*
X199174857Y-142886000D01*
X199247428Y-142740857D01*
X199247428Y-142595714D01*
X199174857Y-142450571D01*
X199102285Y-142378000D01*
X198957142Y-142305428D01*
X198594285Y-142305428D01*
X198376571Y-142378000D01*
X197723428Y-142813428D02*
X197723428Y-144337428D01*
X197723428Y-142886000D02*
X197578285Y-142813428D01*
X197288000Y-142813428D01*
X197142857Y-142886000D01*
X197070285Y-142958571D01*
X196997714Y-143103714D01*
X196997714Y-143539142D01*
X197070285Y-143684285D01*
X197142857Y-143756857D01*
X197288000Y-143829428D01*
X197578285Y-143829428D01*
X197723428Y-143756857D01*
X196126857Y-143829428D02*
X196272000Y-143756857D01*
X196344571Y-143611714D01*
X196344571Y-142305428D01*
X195546285Y-143829428D02*
X195546285Y-142813428D01*
X195546285Y-142305428D02*
X195618857Y-142378000D01*
X195546285Y-142450571D01*
X195473714Y-142378000D01*
X195546285Y-142305428D01*
X195546285Y-142450571D01*
X195038285Y-142813428D02*
X194457714Y-142813428D01*
X194820571Y-142305428D02*
X194820571Y-143611714D01*
X194748000Y-143756857D01*
X194602857Y-143829428D01*
X194457714Y-143829428D01*
X186982857Y-143829428D02*
X186982857Y-142305428D01*
X186329714Y-143829428D02*
X186329714Y-143031142D01*
X186402285Y-142886000D01*
X186547428Y-142813428D01*
X186765142Y-142813428D01*
X186910285Y-142886000D01*
X186982857Y-142958571D01*
X185821714Y-142813428D02*
X185241142Y-142813428D01*
X185604000Y-142305428D02*
X185604000Y-143611714D01*
X185531428Y-143756857D01*
X185386285Y-143829428D01*
X185241142Y-143829428D01*
X184950857Y-142813428D02*
X184370285Y-142813428D01*
X184733142Y-142305428D02*
X184733142Y-143611714D01*
X184660571Y-143756857D01*
X184515428Y-143829428D01*
X184370285Y-143829428D01*
X183862285Y-142813428D02*
X183862285Y-144337428D01*
X183862285Y-142886000D02*
X183717142Y-142813428D01*
X183426857Y-142813428D01*
X183281714Y-142886000D01*
X183209142Y-142958571D01*
X183136571Y-143103714D01*
X183136571Y-143539142D01*
X183209142Y-143684285D01*
X183281714Y-143756857D01*
X183426857Y-143829428D01*
X183717142Y-143829428D01*
X183862285Y-143756857D01*
X182556000Y-143756857D02*
X182410857Y-143829428D01*
X182120571Y-143829428D01*
X181975428Y-143756857D01*
X181902857Y-143611714D01*
X181902857Y-143539142D01*
X181975428Y-143394000D01*
X182120571Y-143321428D01*
X182338285Y-143321428D01*
X182483428Y-143248857D01*
X182556000Y-143103714D01*
X182556000Y-143031142D01*
X182483428Y-142886000D01*
X182338285Y-142813428D01*
X182120571Y-142813428D01*
X181975428Y-142886000D01*
X181249714Y-143684285D02*
X181177142Y-143756857D01*
X181249714Y-143829428D01*
X181322285Y-143756857D01*
X181249714Y-143684285D01*
X181249714Y-143829428D01*
X181249714Y-142886000D02*
X181177142Y-142958571D01*
X181249714Y-143031142D01*
X181322285Y-142958571D01*
X181249714Y-142886000D01*
X181249714Y-143031142D01*
X179435428Y-142232857D02*
X180741714Y-144192285D01*
X177838857Y-142232857D02*
X179145142Y-144192285D01*
X176677714Y-142813428D02*
X176677714Y-144047142D01*
X176750285Y-144192285D01*
X176822857Y-144264857D01*
X176968000Y-144337428D01*
X177185714Y-144337428D01*
X177330857Y-144264857D01*
X176677714Y-143756857D02*
X176822857Y-143829428D01*
X177113142Y-143829428D01*
X177258285Y-143756857D01*
X177330857Y-143684285D01*
X177403428Y-143539142D01*
X177403428Y-143103714D01*
X177330857Y-142958571D01*
X177258285Y-142886000D01*
X177113142Y-142813428D01*
X176822857Y-142813428D01*
X176677714Y-142886000D01*
X175952000Y-143829428D02*
X175952000Y-142813428D01*
X175952000Y-142305428D02*
X176024571Y-142378000D01*
X175952000Y-142450571D01*
X175879428Y-142378000D01*
X175952000Y-142305428D01*
X175952000Y-142450571D01*
X175444000Y-142813428D02*
X174863428Y-142813428D01*
X175226285Y-142305428D02*
X175226285Y-143611714D01*
X175153714Y-143756857D01*
X175008571Y-143829428D01*
X174863428Y-143829428D01*
X174355428Y-143829428D02*
X174355428Y-142305428D01*
X173702285Y-143829428D02*
X173702285Y-143031142D01*
X173774857Y-142886000D01*
X173920000Y-142813428D01*
X174137714Y-142813428D01*
X174282857Y-142886000D01*
X174355428Y-142958571D01*
X172323428Y-142813428D02*
X172323428Y-143829428D01*
X172976571Y-142813428D02*
X172976571Y-143611714D01*
X172904000Y-143756857D01*
X172758857Y-143829428D01*
X172541142Y-143829428D01*
X172396000Y-143756857D01*
X172323428Y-143684285D01*
X171597714Y-143829428D02*
X171597714Y-142305428D01*
X171597714Y-142886000D02*
X171452571Y-142813428D01*
X171162285Y-142813428D01*
X171017142Y-142886000D01*
X170944571Y-142958571D01*
X170872000Y-143103714D01*
X170872000Y-143539142D01*
X170944571Y-143684285D01*
X171017142Y-143756857D01*
X171162285Y-143829428D01*
X171452571Y-143829428D01*
X171597714Y-143756857D01*
X170218857Y-143684285D02*
X170146285Y-143756857D01*
X170218857Y-143829428D01*
X170291428Y-143756857D01*
X170218857Y-143684285D01*
X170218857Y-143829428D01*
X168840000Y-143756857D02*
X168985142Y-143829428D01*
X169275428Y-143829428D01*
X169420571Y-143756857D01*
X169493142Y-143684285D01*
X169565714Y-143539142D01*
X169565714Y-143103714D01*
X169493142Y-142958571D01*
X169420571Y-142886000D01*
X169275428Y-142813428D01*
X168985142Y-142813428D01*
X168840000Y-142886000D01*
X167969142Y-143829428D02*
X168114285Y-143756857D01*
X168186857Y-143684285D01*
X168259428Y-143539142D01*
X168259428Y-143103714D01*
X168186857Y-142958571D01*
X168114285Y-142886000D01*
X167969142Y-142813428D01*
X167751428Y-142813428D01*
X167606285Y-142886000D01*
X167533714Y-142958571D01*
X167461142Y-143103714D01*
X167461142Y-143539142D01*
X167533714Y-143684285D01*
X167606285Y-143756857D01*
X167751428Y-143829428D01*
X167969142Y-143829428D01*
X166808000Y-143829428D02*
X166808000Y-142813428D01*
X166808000Y-142958571D02*
X166735428Y-142886000D01*
X166590285Y-142813428D01*
X166372571Y-142813428D01*
X166227428Y-142886000D01*
X166154857Y-143031142D01*
X166154857Y-143829428D01*
X166154857Y-143031142D02*
X166082285Y-142886000D01*
X165937142Y-142813428D01*
X165719428Y-142813428D01*
X165574285Y-142886000D01*
X165501714Y-143031142D01*
X165501714Y-143829428D01*
X163687428Y-142232857D02*
X164993714Y-144192285D01*
X163324571Y-142813428D02*
X162526285Y-142813428D01*
X163324571Y-143829428D01*
X162526285Y-143829428D01*
X162090857Y-142813428D02*
X161292571Y-142813428D01*
X162090857Y-143829428D01*
X161292571Y-143829428D01*
X159986285Y-143829428D02*
X160712000Y-143829428D01*
X160712000Y-142305428D01*
X159478285Y-143829428D02*
X159478285Y-142813428D01*
X159478285Y-142305428D02*
X159550857Y-142378000D01*
X159478285Y-142450571D01*
X159405714Y-142378000D01*
X159478285Y-142305428D01*
X159478285Y-142450571D01*
X158752571Y-142813428D02*
X158752571Y-143829428D01*
X158752571Y-142958571D02*
X158680000Y-142886000D01*
X158534857Y-142813428D01*
X158317142Y-142813428D01*
X158172000Y-142886000D01*
X158099428Y-143031142D01*
X158099428Y-143829428D01*
X156720571Y-142813428D02*
X156720571Y-143829428D01*
X157373714Y-142813428D02*
X157373714Y-143611714D01*
X157301142Y-143756857D01*
X157156000Y-143829428D01*
X156938285Y-143829428D01*
X156793142Y-143756857D01*
X156720571Y-143684285D01*
X156067428Y-143756857D02*
X155922285Y-143829428D01*
X155632000Y-143829428D01*
X155486857Y-143756857D01*
X155414285Y-143611714D01*
X155414285Y-143539142D01*
X155486857Y-143394000D01*
X155632000Y-143321428D01*
X155849714Y-143321428D01*
X155994857Y-143248857D01*
X156067428Y-143103714D01*
X156067428Y-143031142D01*
X155994857Y-142886000D01*
X155849714Y-142813428D01*
X155632000Y-142813428D01*
X155486857Y-142886000D01*
X153672571Y-142232857D02*
X154978857Y-144192285D01*
X153309714Y-142305428D02*
X152293714Y-142305428D01*
X153309714Y-143829428D01*
X152293714Y-143829428D01*
X151858285Y-142813428D02*
X151060000Y-142813428D01*
X151858285Y-143829428D01*
X151060000Y-143829428D01*
X150552000Y-143756857D02*
X150334285Y-143829428D01*
X149971428Y-143829428D01*
X149826285Y-143756857D01*
X149753714Y-143684285D01*
X149681142Y-143539142D01*
X149681142Y-143394000D01*
X149753714Y-143248857D01*
X149826285Y-143176285D01*
X149971428Y-143103714D01*
X150261714Y-143031142D01*
X150406857Y-142958571D01*
X150479428Y-142886000D01*
X150552000Y-142740857D01*
X150552000Y-142595714D01*
X150479428Y-142450571D01*
X150406857Y-142378000D01*
X150261714Y-142305428D01*
X149898857Y-142305428D01*
X149681142Y-142378000D01*
X149028000Y-142813428D02*
X149028000Y-144337428D01*
X149028000Y-142886000D02*
X148882857Y-142813428D01*
X148592571Y-142813428D01*
X148447428Y-142886000D01*
X148374857Y-142958571D01*
X148302285Y-143103714D01*
X148302285Y-143539142D01*
X148374857Y-143684285D01*
X148447428Y-143756857D01*
X148592571Y-143829428D01*
X148882857Y-143829428D01*
X149028000Y-143756857D01*
X147431428Y-143829428D02*
X147576571Y-143756857D01*
X147649142Y-143611714D01*
X147649142Y-142305428D01*
X146850857Y-143829428D02*
X146850857Y-142813428D01*
X146850857Y-142305428D02*
X146923428Y-142378000D01*
X146850857Y-142450571D01*
X146778285Y-142378000D01*
X146850857Y-142305428D01*
X146850857Y-142450571D01*
X146342857Y-142813428D02*
X145762285Y-142813428D01*
X146125142Y-142305428D02*
X146125142Y-143611714D01*
X146052571Y-143756857D01*
X145907428Y-143829428D01*
X145762285Y-143829428D01*
D13*
X190610000Y-62840000D02*
X190610000Y-61840000D01*
X180110000Y-61140000D02*
X180110000Y-62140000D01*
D14*
X188130600Y-54240000D02*
X186080600Y-54240000D01*
D13*
X180330000Y-62140000D02*
X180330000Y-64390000D01*
D15*
X182110000Y-62940000D02*
X188810000Y-62940000D01*
D16*
X180310000Y-62040000D02*
X180310000Y-61340000D01*
D13*
X190380000Y-61840000D02*
X190380000Y-59600000D01*
D17*
X180810000Y-64140000D02*
X180810000Y-61640000D01*
D16*
X180310000Y-64540000D02*
X181710000Y-64540000D01*
D14*
X188130600Y-52790000D02*
X188130600Y-54240000D01*
D13*
X180310000Y-64390000D02*
X180110000Y-64390000D01*
X180110000Y-64390000D02*
X180110000Y-64740000D01*
D18*
X190010000Y-59740000D02*
X190010000Y-61539999D01*
D13*
X180110000Y-62140000D02*
X180310000Y-62140000D01*
X185110000Y-61140000D02*
X180110000Y-61140000D01*
D19*
X180410000Y-61440000D02*
X181810000Y-61440000D01*
D13*
X190610000Y-59240000D02*
X187330000Y-59240000D01*
D14*
X190510000Y-61940001D02*
X190510000Y-62840000D01*
D13*
X190410000Y-59600000D02*
X190610000Y-59600000D01*
D14*
X186080600Y-54240000D02*
X186080600Y-52790000D01*
X186080600Y-52790000D02*
X188130600Y-52790000D01*
D13*
X180110000Y-64740000D02*
X188510001Y-64740000D01*
X190610000Y-59240000D02*
X190610000Y-59600000D01*
D20*
X188880000Y-63240000D02*
X188880000Y-61000000D01*
D19*
X190410000Y-59440000D02*
X187710000Y-59440000D01*
D13*
X190610000Y-61840000D02*
X190410000Y-61840000D01*
X188510001Y-64740001D02*
G75*
G03*
X190610000Y-62839999I100000J1999999D01*
G01*
X185110000Y-61140000D02*
G75*
G03*
X187326318Y-59261471I65001J2169999D01*
G01*
D17*
X185510000Y-61540000D02*
G75*
G03*
X187726318Y-59661471I65001J2169999D01*
G01*
D14*
X169080600Y-54240000D02*
X167030600Y-54240000D01*
D13*
X161260000Y-64390000D02*
X161060000Y-64390000D01*
X161060000Y-62140000D02*
X161260000Y-62140000D01*
X161060000Y-64390000D02*
X161060000Y-64740000D01*
D19*
X171360000Y-59440000D02*
X168660000Y-59440000D01*
D16*
X161260000Y-64540000D02*
X162660000Y-64540000D01*
D18*
X170960000Y-59740000D02*
X170960000Y-61539999D01*
D13*
X166060000Y-61140000D02*
X161060000Y-61140000D01*
X171560000Y-62840000D02*
X171560000Y-61840000D01*
X171360000Y-59600000D02*
X171560000Y-59600000D01*
D19*
X161360000Y-61440000D02*
X162760000Y-61440000D01*
D14*
X167030600Y-54240000D02*
X167030600Y-52790000D01*
X169080600Y-52790000D02*
X169080600Y-54240000D01*
D13*
X161060000Y-64740000D02*
X169460001Y-64740000D01*
X161280000Y-62140000D02*
X161280000Y-64390000D01*
D15*
X163060000Y-62940000D02*
X169760000Y-62940000D01*
D13*
X161060000Y-61140000D02*
X161060000Y-62140000D01*
D14*
X167030600Y-52790000D02*
X169080600Y-52790000D01*
D13*
X171560000Y-59240000D02*
X168280000Y-59240000D01*
X171560000Y-59240000D02*
X171560000Y-59600000D01*
D20*
X169830000Y-63240000D02*
X169830000Y-61000000D01*
D16*
X161260000Y-62040000D02*
X161260000Y-61340000D01*
D13*
X171330000Y-61840000D02*
X171330000Y-59600000D01*
D17*
X161760000Y-64140000D02*
X161760000Y-61640000D01*
D13*
X171560000Y-61840000D02*
X171360000Y-61840000D01*
D14*
X171460000Y-61940001D02*
X171460000Y-62840000D01*
D13*
X166060000Y-61140000D02*
G75*
G03*
X168276318Y-59261471I65001J2169999D01*
G01*
D17*
X166460000Y-61540000D02*
G75*
G03*
X168676318Y-59661471I65001J2169999D01*
G01*
D13*
X169460001Y-64740001D02*
G75*
G03*
X171560000Y-62839999I100000J1999999D01*
G01*
D16*
X189870000Y-81110000D02*
X189870000Y-80410000D01*
D17*
X190370000Y-83210000D02*
X190370000Y-80710000D01*
D13*
X200170000Y-81910000D02*
X200170000Y-80910000D01*
X189870000Y-83460000D02*
X189670000Y-83460000D01*
X199970000Y-78670000D02*
X200170000Y-78670000D01*
D14*
X195640600Y-73310000D02*
X195640600Y-71860000D01*
D13*
X200170000Y-78310000D02*
X196890000Y-78310000D01*
D14*
X197690600Y-71860000D02*
X197690600Y-73310000D01*
D13*
X199940000Y-80910000D02*
X199940000Y-78670000D01*
D15*
X191670000Y-82010000D02*
X198370000Y-82010000D01*
D20*
X198440000Y-82310000D02*
X198440000Y-80070000D01*
D13*
X189670000Y-80210000D02*
X189670000Y-81210000D01*
D19*
X189970000Y-80510000D02*
X191370000Y-80510000D01*
X199970000Y-78510000D02*
X197270000Y-78510000D01*
D16*
X189870000Y-83610000D02*
X191270000Y-83610000D01*
D13*
X200170000Y-78310000D02*
X200170000Y-78670000D01*
X200170000Y-80910000D02*
X199970000Y-80910000D01*
X189670000Y-81210000D02*
X189870000Y-81210000D01*
X189670000Y-83460000D02*
X189670000Y-83810000D01*
D14*
X195640600Y-71860000D02*
X197690600Y-71860000D01*
X200070000Y-81010001D02*
X200070000Y-81910000D01*
D18*
X199570000Y-78810000D02*
X199570000Y-80609999D01*
D13*
X189890000Y-81210000D02*
X189890000Y-83460000D01*
X189670000Y-83810000D02*
X198070001Y-83810000D01*
X194670000Y-80210000D02*
X189670000Y-80210000D01*
D14*
X197690600Y-73310000D02*
X195640600Y-73310000D01*
D13*
X198070001Y-83810001D02*
G75*
G03*
X200170000Y-81909999I100000J1999999D01*
G01*
X194670000Y-80210000D02*
G75*
G03*
X196886318Y-78331471I65001J2169999D01*
G01*
D17*
X195070000Y-80610000D02*
G75*
G03*
X197286318Y-78731471I65001J2169999D01*
G01*
D13*
X176000000Y-55960000D02*
X177000000Y-55960000D01*
X177250000Y-52760000D02*
X175750000Y-52760000D01*
X176500000Y-55860000D02*
X176000000Y-54960000D01*
X177000000Y-54960000D02*
X176500000Y-55860000D01*
X177250000Y-58160000D02*
X177250000Y-52760000D01*
X175750000Y-52760000D02*
X175750000Y-58160000D01*
X175750000Y-58160000D02*
X177250000Y-58160000D01*
X176000000Y-54960000D02*
X177000000Y-54960000D01*
X218580000Y-72850000D02*
X217080000Y-72850000D01*
X217330000Y-75050000D02*
X218330000Y-75050000D01*
X217330000Y-76050000D02*
X218330000Y-76050000D01*
X218330000Y-75050000D02*
X217830000Y-75950000D01*
X217080000Y-72850000D02*
X217080000Y-78250000D01*
X217080000Y-78250000D02*
X218580000Y-78250000D01*
X218580000Y-78250000D02*
X218580000Y-72850000D01*
X217830000Y-75950000D02*
X217330000Y-75050000D01*
D20*
X122240000Y-82290000D02*
X122240000Y-80050000D01*
D13*
X123740000Y-80890000D02*
X123740000Y-78650000D01*
X113670000Y-83440000D02*
X113470000Y-83440000D01*
D16*
X113670000Y-81090000D02*
X113670000Y-80390000D01*
D13*
X113470000Y-81190000D02*
X113670000Y-81190000D01*
X123970000Y-78290000D02*
X120690000Y-78290000D01*
D14*
X119440600Y-73290000D02*
X119440600Y-71840000D01*
D13*
X113470000Y-80190000D02*
X113470000Y-81190000D01*
D14*
X119440600Y-71840000D02*
X121490600Y-71840000D01*
D13*
X123970000Y-81890000D02*
X123970000Y-80890000D01*
X113690000Y-81190000D02*
X113690000Y-83440000D01*
X113470000Y-83440000D02*
X113470000Y-83790000D01*
D19*
X123770000Y-78490000D02*
X121070000Y-78490000D01*
D18*
X123370000Y-78790000D02*
X123370000Y-80589999D01*
D13*
X123770000Y-78650000D02*
X123970000Y-78650000D01*
X123970000Y-78290000D02*
X123970000Y-78650000D01*
D14*
X121490600Y-71840000D02*
X121490600Y-73290000D01*
X121490600Y-73290000D02*
X119440600Y-73290000D01*
D17*
X114170000Y-83190000D02*
X114170000Y-80690000D01*
D19*
X113770000Y-80490000D02*
X115170000Y-80490000D01*
D13*
X113470000Y-83790000D02*
X121870001Y-83790000D01*
D16*
X113670000Y-83590000D02*
X115070000Y-83590000D01*
D15*
X115470000Y-81990000D02*
X122170000Y-81990000D01*
D14*
X123870000Y-80990001D02*
X123870000Y-81890000D01*
D13*
X123970000Y-80890000D02*
X123770000Y-80890000D01*
X118470000Y-80190000D02*
X113470000Y-80190000D01*
X118470000Y-80190000D02*
G75*
G03*
X120686318Y-78311471I65001J2169999D01*
G01*
D17*
X118870000Y-80590000D02*
G75*
G03*
X121086318Y-78711471I65001J2169999D01*
G01*
D13*
X121870001Y-83790001D02*
G75*
G03*
X123970000Y-81889999I100000J1999999D01*
G01*
X100338000Y-113276000D02*
X101338000Y-113276000D01*
X101588000Y-110076000D02*
X100088000Y-110076000D01*
X100338000Y-112276000D02*
X101338000Y-112276000D01*
X101588000Y-115476000D02*
X101588000Y-110076000D01*
X100838000Y-113176000D02*
X100338000Y-112276000D01*
X100088000Y-115476000D02*
X101588000Y-115476000D01*
X100088000Y-110076000D02*
X100088000Y-115476000D01*
X101338000Y-112276000D02*
X100838000Y-113176000D01*
D14*
X162615800Y-68460000D02*
X165035800Y-68460000D01*
X165065800Y-69910000D02*
X162615800Y-69910000D01*
X162615800Y-69910000D02*
X162615800Y-68460000D01*
X165065800Y-68460000D02*
X165065800Y-69910000D01*
D13*
X166890000Y-77376000D02*
X168390000Y-77376000D01*
X167140000Y-74176000D02*
X168140000Y-74176000D01*
X168140000Y-74176000D02*
X167640000Y-75076000D01*
X168390000Y-77376000D02*
X168390000Y-71976000D01*
X167640000Y-75076000D02*
X167140000Y-74176000D01*
X168390000Y-71976000D02*
X166890000Y-71976000D01*
X166890000Y-71976000D02*
X166890000Y-77376000D01*
X167140000Y-75176000D02*
X168140000Y-75176000D01*
X123710000Y-129440000D02*
X123710000Y-134840000D01*
X124460000Y-132540000D02*
X123960000Y-131640000D01*
X123960000Y-131640000D02*
X124960000Y-131640000D01*
X124960000Y-131640000D02*
X124460000Y-132540000D01*
X125210000Y-134840000D02*
X125210000Y-129440000D01*
X123960000Y-132640000D02*
X124960000Y-132640000D01*
X125210000Y-129440000D02*
X123710000Y-129440000D01*
X123710000Y-134840000D02*
X125210000Y-134840000D01*
X128460000Y-77555000D02*
X129960000Y-77555000D01*
X128710000Y-75355000D02*
X129710000Y-75355000D01*
X128460000Y-72155000D02*
X128460000Y-77555000D01*
X129210000Y-75255000D02*
X128710000Y-74355000D01*
X128710000Y-74355000D02*
X129710000Y-74355000D01*
X129960000Y-77555000D02*
X129960000Y-72155000D01*
X129960000Y-72155000D02*
X128460000Y-72155000D01*
X129710000Y-74355000D02*
X129210000Y-75255000D01*
X176090000Y-119020000D02*
X176090000Y-116780000D01*
D14*
X173840600Y-109970000D02*
X173840600Y-111420000D01*
D13*
X166020000Y-121570000D02*
X165820000Y-121570000D01*
D17*
X166520000Y-121320000D02*
X166520000Y-118820000D01*
D13*
X176320000Y-116420000D02*
X176320000Y-116780000D01*
D15*
X167820000Y-120120000D02*
X174520000Y-120120000D01*
D13*
X165820000Y-121570000D02*
X165820000Y-121920000D01*
D16*
X166020000Y-119220000D02*
X166020000Y-118520000D01*
D14*
X173840600Y-111420000D02*
X171790600Y-111420000D01*
D13*
X166040000Y-119320000D02*
X166040000Y-121570000D01*
X176320000Y-116420000D02*
X173040000Y-116420000D01*
D19*
X166120000Y-118620000D02*
X167520000Y-118620000D01*
D13*
X170820000Y-118320000D02*
X165820000Y-118320000D01*
D14*
X171790600Y-109970000D02*
X173840600Y-109970000D01*
X176220000Y-119120001D02*
X176220000Y-120020000D01*
D13*
X165820000Y-119320000D02*
X166020000Y-119320000D01*
D19*
X176120000Y-116620000D02*
X173420000Y-116620000D01*
D13*
X165820000Y-118320000D02*
X165820000Y-119320000D01*
D16*
X166020000Y-121720000D02*
X167420000Y-121720000D01*
D18*
X175720000Y-116920000D02*
X175720000Y-118719999D01*
D13*
X176320000Y-119020000D02*
X176120000Y-119020000D01*
X165820000Y-121920000D02*
X174220001Y-121920000D01*
D14*
X171790600Y-111420000D02*
X171790600Y-109970000D01*
D13*
X176320000Y-120020000D02*
X176320000Y-119020000D01*
X176120000Y-116780000D02*
X176320000Y-116780000D01*
D20*
X174590000Y-120420000D02*
X174590000Y-118180000D01*
D17*
X171220000Y-118720000D02*
G75*
G03*
X173436318Y-116841471I65001J2169999D01*
G01*
D13*
X170820000Y-118320000D02*
G75*
G03*
X173036318Y-116441471I65001J2169999D01*
G01*
X174220001Y-121920001D02*
G75*
G03*
X176320000Y-120019999I100000J1999999D01*
G01*
X232520000Y-102480000D02*
X232520000Y-102830000D01*
X243020000Y-97330000D02*
X239740000Y-97330000D01*
D20*
X241290000Y-101330000D02*
X241290000Y-99090000D01*
D14*
X242920000Y-100030001D02*
X242920000Y-100930000D01*
D19*
X242820000Y-97530000D02*
X240120000Y-97530000D01*
D14*
X238490600Y-92330000D02*
X238490600Y-90880000D01*
D13*
X232520000Y-100230000D02*
X232720000Y-100230000D01*
X232520000Y-99230000D02*
X232520000Y-100230000D01*
X242790000Y-99930000D02*
X242790000Y-97690000D01*
X243020000Y-100930000D02*
X243020000Y-99930000D01*
D14*
X238490600Y-90880000D02*
X240540600Y-90880000D01*
D16*
X232720000Y-102630000D02*
X234120000Y-102630000D01*
D13*
X237520000Y-99230000D02*
X232520000Y-99230000D01*
X232720000Y-102480000D02*
X232520000Y-102480000D01*
X243020000Y-99930000D02*
X242820000Y-99930000D01*
D19*
X232820000Y-99530000D02*
X234220000Y-99530000D01*
D13*
X232740000Y-100230000D02*
X232740000Y-102480000D01*
X243020000Y-97330000D02*
X243020000Y-97690000D01*
D18*
X242420000Y-97830000D02*
X242420000Y-99629999D01*
D14*
X240540600Y-92330000D02*
X238490600Y-92330000D01*
D15*
X234520000Y-101030000D02*
X241220000Y-101030000D01*
D13*
X242820000Y-97690000D02*
X243020000Y-97690000D01*
X232520000Y-102830000D02*
X240920001Y-102830000D01*
D16*
X232720000Y-100130000D02*
X232720000Y-99430000D01*
D17*
X233220000Y-102230000D02*
X233220000Y-99730000D01*
D14*
X240540600Y-90880000D02*
X240540600Y-92330000D01*
D13*
X240920001Y-102830001D02*
G75*
G03*
X243020000Y-100929999I100000J1999999D01*
G01*
D17*
X237920000Y-99630000D02*
G75*
G03*
X240136318Y-97751471I65001J2169999D01*
G01*
D13*
X237520000Y-99230000D02*
G75*
G03*
X239736318Y-97351471I65001J2169999D01*
G01*
D17*
X199890000Y-140380000D02*
X199890000Y-137880000D01*
D13*
X199190000Y-138380000D02*
X199390000Y-138380000D01*
X199390000Y-140630000D02*
X199190000Y-140630000D01*
X199410000Y-138380000D02*
X199410000Y-140630000D01*
X209690000Y-135480000D02*
X209690000Y-135840000D01*
D15*
X201190000Y-139180000D02*
X207890000Y-139180000D01*
D13*
X204190000Y-137380000D02*
X199190000Y-137380000D01*
X199190000Y-137380000D02*
X199190000Y-138380000D01*
D14*
X209590000Y-138180001D02*
X209590000Y-139080000D01*
D13*
X209490000Y-135840000D02*
X209690000Y-135840000D01*
D19*
X199490000Y-137680000D02*
X200890000Y-137680000D01*
D14*
X207210600Y-130480000D02*
X205160600Y-130480000D01*
D16*
X199390000Y-140780000D02*
X200790000Y-140780000D01*
D13*
X209460000Y-138080000D02*
X209460000Y-135840000D01*
X209690000Y-138080000D02*
X209490000Y-138080000D01*
D14*
X205160600Y-130480000D02*
X205160600Y-129030000D01*
D13*
X199190000Y-140630000D02*
X199190000Y-140980000D01*
D16*
X199390000Y-138280000D02*
X199390000Y-137580000D01*
D13*
X209690000Y-139080000D02*
X209690000Y-138080000D01*
D14*
X205160600Y-129030000D02*
X207210600Y-129030000D01*
X207210600Y-129030000D02*
X207210600Y-130480000D01*
D18*
X209090000Y-135980000D02*
X209090000Y-137779999D01*
D20*
X207960000Y-139480000D02*
X207960000Y-137240000D01*
D19*
X209490000Y-135680000D02*
X206790000Y-135680000D01*
D13*
X199190000Y-140980000D02*
X207590001Y-140980000D01*
X209690000Y-135480000D02*
X206410000Y-135480000D01*
X204190000Y-137380000D02*
G75*
G03*
X206406318Y-135501471I65001J2169999D01*
G01*
D17*
X204590000Y-137780000D02*
G75*
G03*
X206806318Y-135901471I65001J2169999D01*
G01*
D13*
X207590001Y-140980001D02*
G75*
G03*
X209690000Y-139079999I100000J1999999D01*
G01*
X132520000Y-80190000D02*
X132520000Y-81190000D01*
D20*
X141290000Y-82290000D02*
X141290000Y-80050000D01*
D17*
X133220000Y-83190000D02*
X133220000Y-80690000D01*
D13*
X137520000Y-80190000D02*
X132520000Y-80190000D01*
X143020000Y-78290000D02*
X143020000Y-78650000D01*
X143020000Y-80890000D02*
X142820000Y-80890000D01*
X132720000Y-83440000D02*
X132520000Y-83440000D01*
D19*
X142820000Y-78490000D02*
X140120000Y-78490000D01*
D14*
X142920000Y-80990001D02*
X142920000Y-81890000D01*
D16*
X132720000Y-83590000D02*
X134120000Y-83590000D01*
D14*
X138490600Y-73290000D02*
X138490600Y-71840000D01*
D16*
X132720000Y-81090000D02*
X132720000Y-80390000D01*
D13*
X132520000Y-83790000D02*
X140920001Y-83790000D01*
D15*
X134520000Y-81990000D02*
X141220000Y-81990000D01*
D13*
X132520000Y-81190000D02*
X132720000Y-81190000D01*
X143020000Y-81890000D02*
X143020000Y-80890000D01*
X132740000Y-81190000D02*
X132740000Y-83440000D01*
X132520000Y-83440000D02*
X132520000Y-83790000D01*
X143020000Y-78290000D02*
X139740000Y-78290000D01*
D18*
X142420000Y-78790000D02*
X142420000Y-80589999D01*
D14*
X140540600Y-73290000D02*
X138490600Y-73290000D01*
X140540600Y-71840000D02*
X140540600Y-73290000D01*
D13*
X142790000Y-80890000D02*
X142790000Y-78650000D01*
D19*
X132820000Y-80490000D02*
X134220000Y-80490000D01*
D13*
X142820000Y-78650000D02*
X143020000Y-78650000D01*
D14*
X138490600Y-71840000D02*
X140540600Y-71840000D01*
D13*
X140920001Y-83790001D02*
G75*
G03*
X143020000Y-81889999I100000J1999999D01*
G01*
D17*
X137920000Y-80590000D02*
G75*
G03*
X140136318Y-78711471I65001J2169999D01*
G01*
D13*
X137520000Y-80190000D02*
G75*
G03*
X139736318Y-78311471I65001J2169999D01*
G01*
D14*
X206165800Y-69330000D02*
X208585800Y-69330000D01*
X208615800Y-70780000D02*
X206165800Y-70780000D01*
X206165800Y-70780000D02*
X206165800Y-69330000D01*
X208615800Y-69330000D02*
X208615800Y-70780000D01*
D13*
X223750000Y-97700000D02*
X223950000Y-97700000D01*
D14*
X221470600Y-92340000D02*
X219420600Y-92340000D01*
D13*
X223720000Y-99940000D02*
X223720000Y-97700000D01*
X223950000Y-97340000D02*
X223950000Y-97700000D01*
X223950000Y-100940000D02*
X223950000Y-99940000D01*
X213450000Y-99240000D02*
X213450000Y-100240000D01*
X218450000Y-99240000D02*
X213450000Y-99240000D01*
X213650000Y-102490000D02*
X213450000Y-102490000D01*
D15*
X215450000Y-101040000D02*
X222150000Y-101040000D01*
D14*
X219420600Y-90890000D02*
X221470600Y-90890000D01*
D20*
X222220000Y-101340000D02*
X222220000Y-99100000D01*
D14*
X219420600Y-92340000D02*
X219420600Y-90890000D01*
D13*
X223950000Y-97340000D02*
X220670000Y-97340000D01*
D19*
X223750000Y-97540000D02*
X221050000Y-97540000D01*
X213750000Y-99540000D02*
X215150000Y-99540000D01*
D13*
X213450000Y-102490000D02*
X213450000Y-102840000D01*
D16*
X213650000Y-100140000D02*
X213650000Y-99440000D01*
D14*
X223850000Y-100040001D02*
X223850000Y-100940000D01*
D13*
X213670000Y-100240000D02*
X213670000Y-102490000D01*
D17*
X214150000Y-102240000D02*
X214150000Y-99740000D01*
D14*
X221470600Y-90890000D02*
X221470600Y-92340000D01*
D13*
X213450000Y-100240000D02*
X213650000Y-100240000D01*
D16*
X213650000Y-102640000D02*
X215050000Y-102640000D01*
D18*
X223350000Y-97840000D02*
X223350000Y-99639999D01*
D13*
X223950000Y-99940000D02*
X223750000Y-99940000D01*
X213450000Y-102840000D02*
X221850001Y-102840000D01*
D17*
X218850000Y-99640000D02*
G75*
G03*
X221066318Y-97761471I65001J2169999D01*
G01*
D13*
X221850001Y-102840001D02*
G75*
G03*
X223950000Y-100939999I100000J1999999D01*
G01*
X218450000Y-99240000D02*
G75*
G03*
X220666318Y-97361471I65001J2169999D01*
G01*
D14*
X166680000Y-100060001D02*
X166680000Y-100960000D01*
D13*
X156280000Y-99260000D02*
X156280000Y-100260000D01*
X166780000Y-99960000D02*
X166580000Y-99960000D01*
D18*
X166180000Y-97860000D02*
X166180000Y-99659999D01*
D14*
X164300600Y-90910000D02*
X164300600Y-92360000D01*
X162250600Y-90910000D02*
X164300600Y-90910000D01*
D15*
X158280000Y-101060000D02*
X164980000Y-101060000D01*
D14*
X164300600Y-92360000D02*
X162250600Y-92360000D01*
D13*
X166780000Y-97360000D02*
X166780000Y-97720000D01*
X166780000Y-97360000D02*
X163500000Y-97360000D01*
X156280000Y-102860000D02*
X164680001Y-102860000D01*
D19*
X156580000Y-99560000D02*
X157980000Y-99560000D01*
D13*
X161280000Y-99260000D02*
X156280000Y-99260000D01*
D14*
X162250600Y-92360000D02*
X162250600Y-90910000D01*
D16*
X156480000Y-102660000D02*
X157880000Y-102660000D01*
D13*
X166550000Y-99960000D02*
X166550000Y-97720000D01*
X166580000Y-97720000D02*
X166780000Y-97720000D01*
X166780000Y-100960000D02*
X166780000Y-99960000D01*
D16*
X156480000Y-100160000D02*
X156480000Y-99460000D01*
D13*
X156280000Y-102510000D02*
X156280000Y-102860000D01*
D17*
X156980000Y-102260000D02*
X156980000Y-99760000D01*
D13*
X156280000Y-100260000D02*
X156480000Y-100260000D01*
X156500000Y-100260000D02*
X156500000Y-102510000D01*
D19*
X166580000Y-97560000D02*
X163880000Y-97560000D01*
D20*
X165050000Y-101360000D02*
X165050000Y-99120000D01*
D13*
X156480000Y-102510000D02*
X156280000Y-102510000D01*
X164680001Y-102860001D02*
G75*
G03*
X166780000Y-100959999I100000J1999999D01*
G01*
D17*
X161680000Y-99660000D02*
G75*
G03*
X163896318Y-97781471I65001J2169999D01*
G01*
D13*
X161280000Y-99260000D02*
G75*
G03*
X163496318Y-97381471I65001J2169999D01*
G01*
X137934000Y-52926000D02*
X137934000Y-58326000D01*
X138684000Y-56026000D02*
X138184000Y-55126000D01*
X137934000Y-58326000D02*
X139434000Y-58326000D01*
X138184000Y-55126000D02*
X139184000Y-55126000D01*
X139184000Y-55126000D02*
X138684000Y-56026000D01*
X138184000Y-56126000D02*
X139184000Y-56126000D01*
X139434000Y-58326000D02*
X139434000Y-52926000D01*
X139434000Y-52926000D02*
X137934000Y-52926000D01*
D17*
X123670000Y-64130000D02*
X123670000Y-61630000D01*
D13*
X123190000Y-62130000D02*
X123190000Y-64380000D01*
X122970000Y-62130000D02*
X123170000Y-62130000D01*
X133470000Y-59230000D02*
X133470000Y-59590000D01*
D14*
X128940600Y-52780000D02*
X130990600Y-52780000D01*
D13*
X122970000Y-64380000D02*
X122970000Y-64730000D01*
X127970000Y-61130000D02*
X122970000Y-61130000D01*
X133470000Y-62830000D02*
X133470000Y-61830000D01*
D14*
X130990600Y-54230000D02*
X128940600Y-54230000D01*
X128940600Y-54230000D02*
X128940600Y-52780000D01*
D19*
X133270000Y-59430000D02*
X130570000Y-59430000D01*
D13*
X133240000Y-61830000D02*
X133240000Y-59590000D01*
X122970000Y-64730000D02*
X131370001Y-64730000D01*
D18*
X132870000Y-59730000D02*
X132870000Y-61529999D01*
D14*
X130990600Y-52780000D02*
X130990600Y-54230000D01*
D15*
X124970000Y-62930000D02*
X131670000Y-62930000D01*
D19*
X123270000Y-61430000D02*
X124670000Y-61430000D01*
D16*
X123170000Y-62030000D02*
X123170000Y-61330000D01*
D13*
X133470000Y-59230000D02*
X130190000Y-59230000D01*
D20*
X131740000Y-63230000D02*
X131740000Y-60990000D01*
D13*
X133270000Y-59590000D02*
X133470000Y-59590000D01*
X123170000Y-64380000D02*
X122970000Y-64380000D01*
X122970000Y-61130000D02*
X122970000Y-62130000D01*
D14*
X133370000Y-61930001D02*
X133370000Y-62830000D01*
D13*
X133470000Y-61830000D02*
X133270000Y-61830000D01*
D16*
X123170000Y-64530000D02*
X124570000Y-64530000D01*
D17*
X128370000Y-61530000D02*
G75*
G03*
X130586318Y-59651471I65001J2169999D01*
G01*
D13*
X127970000Y-61130000D02*
G75*
G03*
X130186318Y-59251471I65001J2169999D01*
G01*
X131370001Y-64730001D02*
G75*
G03*
X133470000Y-62829999I100000J1999999D01*
G01*
X157980000Y-54872000D02*
X157480000Y-55772000D01*
X158230000Y-52672000D02*
X156730000Y-52672000D01*
X156730000Y-52672000D02*
X156730000Y-58072000D01*
X156980000Y-55872000D02*
X157980000Y-55872000D01*
X158230000Y-58072000D02*
X158230000Y-52672000D01*
X156730000Y-58072000D02*
X158230000Y-58072000D01*
X156980000Y-54872000D02*
X157980000Y-54872000D01*
X157480000Y-55772000D02*
X156980000Y-54872000D01*
X165820000Y-137390000D02*
X165820000Y-138390000D01*
D19*
X166120000Y-137690000D02*
X167520000Y-137690000D01*
D14*
X171790600Y-129040000D02*
X173840600Y-129040000D01*
D13*
X165820000Y-138390000D02*
X166020000Y-138390000D01*
X165820000Y-140990000D02*
X174220001Y-140990000D01*
X176120000Y-135850000D02*
X176320000Y-135850000D01*
X176320000Y-138090000D02*
X176120000Y-138090000D01*
D17*
X166520000Y-140390000D02*
X166520000Y-137890000D01*
D13*
X170820000Y-137390000D02*
X165820000Y-137390000D01*
D14*
X173840600Y-129040000D02*
X173840600Y-130490000D01*
D16*
X166020000Y-140790000D02*
X167420000Y-140790000D01*
D18*
X175720000Y-135990000D02*
X175720000Y-137789999D01*
D13*
X176090000Y-138090000D02*
X176090000Y-135850000D01*
X176320000Y-139090000D02*
X176320000Y-138090000D01*
D15*
X167820000Y-139190000D02*
X174520000Y-139190000D01*
D14*
X176220000Y-138190001D02*
X176220000Y-139090000D01*
X173840600Y-130490000D02*
X171790600Y-130490000D01*
D16*
X166020000Y-138290000D02*
X166020000Y-137590000D01*
D13*
X166040000Y-138390000D02*
X166040000Y-140640000D01*
D20*
X174590000Y-139490000D02*
X174590000Y-137250000D01*
D14*
X171790600Y-130490000D02*
X171790600Y-129040000D01*
D19*
X176120000Y-135690000D02*
X173420000Y-135690000D01*
D13*
X166020000Y-140640000D02*
X165820000Y-140640000D01*
X176320000Y-135490000D02*
X173040000Y-135490000D01*
X176320000Y-135490000D02*
X176320000Y-135850000D01*
X165820000Y-140640000D02*
X165820000Y-140990000D01*
X170820000Y-137390000D02*
G75*
G03*
X173036318Y-135511471I65001J2169999D01*
G01*
X174220001Y-140990001D02*
G75*
G03*
X176320000Y-139089999I100000J1999999D01*
G01*
D17*
X171220000Y-137790000D02*
G75*
G03*
X173436318Y-135911471I65001J2169999D01*
G01*
D13*
X114720000Y-93570000D02*
X115720000Y-93570000D01*
X115720000Y-93570000D02*
X115220000Y-94470000D01*
X115220000Y-94470000D02*
X114720000Y-93570000D01*
X115970000Y-96770000D02*
X115970000Y-91370000D01*
X114720000Y-94570000D02*
X115720000Y-94570000D01*
X114470000Y-91370000D02*
X114470000Y-96770000D01*
X114470000Y-96770000D02*
X115970000Y-96770000D01*
X115970000Y-91370000D02*
X114470000Y-91370000D01*
X91870000Y-86870000D02*
X91270000Y-86870000D01*
X88370000Y-92870000D02*
X88370000Y-86970000D01*
X88370000Y-92870000D02*
X89070000Y-92870000D01*
X88370000Y-92870000D02*
X88370000Y-86870000D01*
X91870000Y-86870000D02*
X91870000Y-92870000D01*
X88370000Y-86870000D02*
X89070000Y-86870000D01*
X91870000Y-92870000D02*
X91270000Y-92870000D01*
X214710000Y-54000000D02*
X214710000Y-59400000D01*
X216210000Y-59400000D02*
X216210000Y-54000000D01*
X215960000Y-56200000D02*
X215460000Y-57100000D01*
X214960000Y-56200000D02*
X215960000Y-56200000D01*
X216210000Y-54000000D02*
X214710000Y-54000000D01*
X215460000Y-57100000D02*
X214960000Y-56200000D01*
X214960000Y-57200000D02*
X215960000Y-57200000D01*
X214710000Y-59400000D02*
X216210000Y-59400000D01*
D18*
X151910000Y-59740000D02*
X151910000Y-61539999D01*
D13*
X142010000Y-62140000D02*
X142210000Y-62140000D01*
D14*
X147980600Y-52790000D02*
X150030600Y-52790000D01*
X150030600Y-52790000D02*
X150030600Y-54240000D01*
D20*
X150780000Y-63240000D02*
X150780000Y-61000000D01*
D13*
X147010000Y-61140000D02*
X142010000Y-61140000D01*
D17*
X142710000Y-64140000D02*
X142710000Y-61640000D01*
D16*
X142210000Y-62040000D02*
X142210000Y-61340000D01*
D13*
X152310000Y-59600000D02*
X152510000Y-59600000D01*
D19*
X152310000Y-59440000D02*
X149610000Y-59440000D01*
D14*
X150030600Y-54240000D02*
X147980600Y-54240000D01*
D16*
X142210000Y-64540000D02*
X143610000Y-64540000D01*
D13*
X152510000Y-59240000D02*
X149230000Y-59240000D01*
D14*
X152410000Y-61940001D02*
X152410000Y-62840000D01*
D13*
X152510000Y-61840000D02*
X152310000Y-61840000D01*
X142210000Y-64390000D02*
X142010000Y-64390000D01*
X142010000Y-61140000D02*
X142010000Y-62140000D01*
D14*
X147980600Y-54240000D02*
X147980600Y-52790000D01*
D13*
X152510000Y-59240000D02*
X152510000Y-59600000D01*
X142010000Y-64740000D02*
X150410001Y-64740000D01*
X142230000Y-62140000D02*
X142230000Y-64390000D01*
X152510000Y-62840000D02*
X152510000Y-61840000D01*
X152280000Y-61840000D02*
X152280000Y-59600000D01*
D19*
X142310000Y-61440000D02*
X143710000Y-61440000D01*
D13*
X142010000Y-64390000D02*
X142010000Y-64740000D01*
D15*
X144010000Y-62940000D02*
X150710000Y-62940000D01*
D13*
X150410001Y-64740001D02*
G75*
G03*
X152510000Y-62839999I100000J1999999D01*
G01*
D17*
X147410000Y-61540000D02*
G75*
G03*
X149626318Y-59661471I65001J2169999D01*
G01*
D13*
X147010000Y-61140000D02*
G75*
G03*
X149226318Y-59261471I65001J2169999D01*
G01*
D19*
X128470000Y-97550000D02*
X125770000Y-97550000D01*
D15*
X120170000Y-101050000D02*
X126870000Y-101050000D01*
D19*
X118470000Y-99550000D02*
X119870000Y-99550000D01*
D14*
X124140600Y-92350000D02*
X124140600Y-90900000D01*
D13*
X128670000Y-97350000D02*
X125390000Y-97350000D01*
X118390000Y-100250000D02*
X118390000Y-102500000D01*
D14*
X126190600Y-90900000D02*
X126190600Y-92350000D01*
D13*
X118170000Y-102500000D02*
X118170000Y-102850000D01*
X118170000Y-102850000D02*
X126570001Y-102850000D01*
X123170000Y-99250000D02*
X118170000Y-99250000D01*
X118170000Y-99250000D02*
X118170000Y-100250000D01*
X118170000Y-100250000D02*
X118370000Y-100250000D01*
D18*
X128070000Y-97850000D02*
X128070000Y-99649999D01*
D14*
X126190600Y-92350000D02*
X124140600Y-92350000D01*
D17*
X118870000Y-102250000D02*
X118870000Y-99750000D01*
D16*
X118370000Y-102650000D02*
X119770000Y-102650000D01*
D13*
X128670000Y-100950000D02*
X128670000Y-99950000D01*
X128440000Y-99950000D02*
X128440000Y-97710000D01*
X128670000Y-99950000D02*
X128470000Y-99950000D01*
X128470000Y-97710000D02*
X128670000Y-97710000D01*
D14*
X124140600Y-90900000D02*
X126190600Y-90900000D01*
D16*
X118370000Y-100150000D02*
X118370000Y-99450000D01*
D13*
X128670000Y-97350000D02*
X128670000Y-97710000D01*
D20*
X126940000Y-101350000D02*
X126940000Y-99110000D01*
D14*
X128570000Y-100050001D02*
X128570000Y-100950000D01*
D13*
X118370000Y-102500000D02*
X118170000Y-102500000D01*
X123170000Y-99250000D02*
G75*
G03*
X125386318Y-97371471I65001J2169999D01*
G01*
X126570001Y-102850001D02*
G75*
G03*
X128670000Y-100949999I100000J1999999D01*
G01*
D17*
X123570000Y-99650000D02*
G75*
G03*
X125786318Y-97771471I65001J2169999D01*
G01*
D14*
X135740600Y-129040000D02*
X135740600Y-130490000D01*
D16*
X127920000Y-138290000D02*
X127920000Y-137590000D01*
D19*
X128020000Y-137690000D02*
X129420000Y-137690000D01*
D13*
X132720000Y-137390000D02*
X127720000Y-137390000D01*
X127940000Y-138390000D02*
X127940000Y-140640000D01*
D14*
X135740600Y-130490000D02*
X133690600Y-130490000D01*
X133690600Y-129040000D02*
X135740600Y-129040000D01*
D13*
X138220000Y-135490000D02*
X134940000Y-135490000D01*
D15*
X129720000Y-139190000D02*
X136420000Y-139190000D01*
D13*
X127720000Y-137390000D02*
X127720000Y-138390000D01*
X137990000Y-138090000D02*
X137990000Y-135850000D01*
X127920000Y-140640000D02*
X127720000Y-140640000D01*
X138020000Y-135850000D02*
X138220000Y-135850000D01*
X127720000Y-140640000D02*
X127720000Y-140990000D01*
X138220000Y-138090000D02*
X138020000Y-138090000D01*
X138220000Y-139090000D02*
X138220000Y-138090000D01*
X138220000Y-135490000D02*
X138220000Y-135850000D01*
X127720000Y-138390000D02*
X127920000Y-138390000D01*
D17*
X128420000Y-140390000D02*
X128420000Y-137890000D01*
D16*
X127920000Y-140790000D02*
X129320000Y-140790000D01*
D19*
X138020000Y-135690000D02*
X135320000Y-135690000D01*
D20*
X136490000Y-139490000D02*
X136490000Y-137250000D01*
D14*
X133690600Y-130490000D02*
X133690600Y-129040000D01*
X138120000Y-138190001D02*
X138120000Y-139090000D01*
D18*
X137620000Y-135990000D02*
X137620000Y-137789999D01*
D13*
X127720000Y-140990000D02*
X136120001Y-140990000D01*
X136120001Y-140990001D02*
G75*
G03*
X138220000Y-139089999I100000J1999999D01*
G01*
X132720000Y-137390000D02*
G75*
G03*
X134936318Y-135511471I65001J2169999D01*
G01*
D17*
X133120000Y-137790000D02*
G75*
G03*
X135336318Y-135911471I65001J2169999D01*
G01*
D13*
X225032000Y-129126000D02*
X223532000Y-129126000D01*
X224782000Y-131326000D02*
X224282000Y-132226000D01*
X223532000Y-129126000D02*
X223532000Y-134526000D01*
X223782000Y-132326000D02*
X224782000Y-132326000D01*
X224282000Y-132226000D02*
X223782000Y-131326000D01*
X225032000Y-134526000D02*
X225032000Y-129126000D01*
X223782000Y-131326000D02*
X224782000Y-131326000D01*
X223532000Y-134526000D02*
X225032000Y-134526000D01*
X227760000Y-140630000D02*
X227760000Y-140980000D01*
X238260000Y-135480000D02*
X238260000Y-135840000D01*
D14*
X235780600Y-129030000D02*
X235780600Y-130480000D01*
D19*
X238060000Y-135680000D02*
X235360000Y-135680000D01*
D16*
X227960000Y-140780000D02*
X229360000Y-140780000D01*
D13*
X238030000Y-138080000D02*
X238030000Y-135840000D01*
X227960000Y-140630000D02*
X227760000Y-140630000D01*
X227980000Y-138380000D02*
X227980000Y-140630000D01*
X227760000Y-137380000D02*
X227760000Y-138380000D01*
X238260000Y-135480000D02*
X234980000Y-135480000D01*
D20*
X236530000Y-139480000D02*
X236530000Y-137240000D01*
D19*
X228060000Y-137680000D02*
X229460000Y-137680000D01*
D13*
X232760000Y-137380000D02*
X227760000Y-137380000D01*
X238060000Y-135840000D02*
X238260000Y-135840000D01*
D17*
X228460000Y-140380000D02*
X228460000Y-137880000D01*
D13*
X227760000Y-140980000D02*
X236160001Y-140980000D01*
D14*
X233730600Y-129030000D02*
X235780600Y-129030000D01*
D13*
X227760000Y-138380000D02*
X227960000Y-138380000D01*
D14*
X235780600Y-130480000D02*
X233730600Y-130480000D01*
X238160000Y-138180001D02*
X238160000Y-139080000D01*
D13*
X238260000Y-138080000D02*
X238060000Y-138080000D01*
D15*
X229760000Y-139180000D02*
X236460000Y-139180000D01*
D18*
X237660000Y-135980000D02*
X237660000Y-137779999D01*
D14*
X233730600Y-130480000D02*
X233730600Y-129030000D01*
D13*
X238260000Y-139080000D02*
X238260000Y-138080000D01*
D16*
X227960000Y-138280000D02*
X227960000Y-137580000D01*
D17*
X233160000Y-137780000D02*
G75*
G03*
X235376318Y-135901471I65001J2169999D01*
G01*
D13*
X232760000Y-137380000D02*
G75*
G03*
X234976318Y-135501471I65001J2169999D01*
G01*
X236160001Y-140980001D02*
G75*
G03*
X238260000Y-139079999I100000J1999999D01*
G01*
D16*
X194590000Y-102660000D02*
X195990000Y-102660000D01*
D14*
X204790000Y-100060001D02*
X204790000Y-100960000D01*
D18*
X204290000Y-97860000D02*
X204290000Y-99659999D01*
D13*
X204660000Y-99960000D02*
X204660000Y-97720000D01*
D17*
X195090000Y-102260000D02*
X195090000Y-99760000D01*
D15*
X196390000Y-101060000D02*
X203090000Y-101060000D01*
D13*
X199390000Y-99260000D02*
X194390000Y-99260000D01*
X194390000Y-102860000D02*
X202790001Y-102860000D01*
X204890000Y-99960000D02*
X204690000Y-99960000D01*
D14*
X200360600Y-92360000D02*
X200360600Y-90910000D01*
D13*
X204890000Y-100960000D02*
X204890000Y-99960000D01*
D19*
X204690000Y-97560000D02*
X201990000Y-97560000D01*
D13*
X194390000Y-99260000D02*
X194390000Y-100260000D01*
D14*
X202410600Y-92360000D02*
X200360600Y-92360000D01*
D13*
X204890000Y-97360000D02*
X204890000Y-97720000D01*
D14*
X200360600Y-90910000D02*
X202410600Y-90910000D01*
D13*
X194590000Y-102510000D02*
X194390000Y-102510000D01*
X194390000Y-100260000D02*
X194590000Y-100260000D01*
D16*
X194590000Y-100160000D02*
X194590000Y-99460000D01*
D13*
X204690000Y-97720000D02*
X204890000Y-97720000D01*
X194610000Y-100260000D02*
X194610000Y-102510000D01*
D20*
X203160000Y-101360000D02*
X203160000Y-99120000D01*
D13*
X194390000Y-102510000D02*
X194390000Y-102860000D01*
D14*
X202410600Y-90910000D02*
X202410600Y-92360000D01*
D19*
X194690000Y-99560000D02*
X196090000Y-99560000D01*
D13*
X204890000Y-97360000D02*
X201610000Y-97360000D01*
X202790001Y-102860001D02*
G75*
G03*
X204890000Y-100959999I100000J1999999D01*
G01*
X199390000Y-99260000D02*
G75*
G03*
X201606318Y-97381471I65001J2169999D01*
G01*
D17*
X199790000Y-99660000D02*
G75*
G03*
X202006318Y-97781471I65001J2169999D01*
G01*
X104600000Y-121300000D02*
X104600000Y-118800000D01*
D13*
X103900000Y-121550000D02*
X103900000Y-121900000D01*
X103900000Y-121900000D02*
X112300001Y-121900000D01*
D14*
X109870600Y-109950000D02*
X111920600Y-109950000D01*
D13*
X108900000Y-118300000D02*
X103900000Y-118300000D01*
D19*
X104200000Y-118600000D02*
X105600000Y-118600000D01*
D15*
X105900000Y-120100000D02*
X112600000Y-120100000D01*
D14*
X114300000Y-119100001D02*
X114300000Y-120000000D01*
D13*
X104120000Y-119300000D02*
X104120000Y-121550000D01*
X114400000Y-119000000D02*
X114200000Y-119000000D01*
X114170000Y-119000000D02*
X114170000Y-116760000D01*
D14*
X109870600Y-111400000D02*
X109870600Y-109950000D01*
D13*
X103900000Y-119300000D02*
X104100000Y-119300000D01*
D14*
X111920600Y-111400000D02*
X109870600Y-111400000D01*
D19*
X114200000Y-116600000D02*
X111500000Y-116600000D01*
D13*
X104100000Y-121550000D02*
X103900000Y-121550000D01*
D20*
X112670000Y-120400000D02*
X112670000Y-118160000D01*
D18*
X113800000Y-116900000D02*
X113800000Y-118699999D01*
D13*
X114400000Y-120000000D02*
X114400000Y-119000000D01*
X114400000Y-116400000D02*
X111120000Y-116400000D01*
X114200000Y-116760000D02*
X114400000Y-116760000D01*
X103900000Y-118300000D02*
X103900000Y-119300000D01*
D16*
X104100000Y-119200000D02*
X104100000Y-118500000D01*
X104100000Y-121700000D02*
X105500000Y-121700000D01*
D14*
X111920600Y-109950000D02*
X111920600Y-111400000D01*
D13*
X114400000Y-116400000D02*
X114400000Y-116760000D01*
X112300001Y-121900001D02*
G75*
G03*
X114400000Y-119999999I100000J1999999D01*
G01*
D17*
X109300000Y-118700000D02*
G75*
G03*
X111516318Y-116821471I65001J2169999D01*
G01*
D13*
X108900000Y-118300000D02*
G75*
G03*
X111116318Y-116421471I65001J2169999D01*
G01*
X119030000Y-56140000D02*
X120030000Y-56140000D01*
X118780000Y-52940000D02*
X118780000Y-58340000D01*
X119530000Y-56040000D02*
X119030000Y-55140000D01*
X120280000Y-58340000D02*
X120280000Y-52940000D01*
X120030000Y-55140000D02*
X119530000Y-56040000D01*
X118780000Y-58340000D02*
X120280000Y-58340000D01*
X119030000Y-55140000D02*
X120030000Y-55140000D01*
X120280000Y-52940000D02*
X118780000Y-52940000D01*
X186436000Y-75330000D02*
X185936000Y-74430000D01*
X185686000Y-77630000D02*
X187186000Y-77630000D01*
X185936000Y-75430000D02*
X186936000Y-75430000D01*
X187186000Y-72230000D02*
X185686000Y-72230000D01*
X187186000Y-77630000D02*
X187186000Y-72230000D01*
X186936000Y-74430000D02*
X186436000Y-75330000D01*
X185686000Y-72230000D02*
X185686000Y-77630000D01*
X185936000Y-74430000D02*
X186936000Y-74430000D01*
X88130000Y-97015000D02*
X100130000Y-97015000D01*
X100130000Y-103015000D02*
X88130000Y-103015000D01*
X100130000Y-97015000D02*
X100130000Y-103015000D01*
X88130000Y-103015000D02*
X88130000Y-97015000D01*
D19*
X138010000Y-116620000D02*
X135310000Y-116620000D01*
D13*
X127710000Y-119320000D02*
X127910000Y-119320000D01*
D14*
X133680600Y-109970000D02*
X135730600Y-109970000D01*
D13*
X127710000Y-118320000D02*
X127710000Y-119320000D01*
D20*
X136480000Y-120420000D02*
X136480000Y-118180000D01*
D14*
X135730600Y-109970000D02*
X135730600Y-111420000D01*
X138110000Y-119120001D02*
X138110000Y-120020000D01*
D13*
X138210000Y-119020000D02*
X138010000Y-119020000D01*
X138010000Y-116780000D02*
X138210000Y-116780000D01*
D16*
X127910000Y-121720000D02*
X129310000Y-121720000D01*
D17*
X128410000Y-121320000D02*
X128410000Y-118820000D01*
D13*
X137980000Y-119020000D02*
X137980000Y-116780000D01*
X127910000Y-121570000D02*
X127710000Y-121570000D01*
D16*
X127910000Y-119220000D02*
X127910000Y-118520000D01*
D14*
X135730600Y-111420000D02*
X133680600Y-111420000D01*
D19*
X128010000Y-118620000D02*
X129410000Y-118620000D01*
D18*
X137610000Y-116920000D02*
X137610000Y-118719999D01*
D13*
X138210000Y-120020000D02*
X138210000Y-119020000D01*
D14*
X133680600Y-111420000D02*
X133680600Y-109970000D01*
D13*
X132710000Y-118320000D02*
X127710000Y-118320000D01*
X127710000Y-121570000D02*
X127710000Y-121920000D01*
X138210000Y-116420000D02*
X134930000Y-116420000D01*
X127710000Y-121920000D02*
X136110001Y-121920000D01*
X138210000Y-116420000D02*
X138210000Y-116780000D01*
D15*
X129710000Y-120120000D02*
X136410000Y-120120000D01*
D13*
X127930000Y-119320000D02*
X127930000Y-121570000D01*
X136110001Y-121920001D02*
G75*
G03*
X138210000Y-120019999I100000J1999999D01*
G01*
D17*
X133110000Y-118720000D02*
G75*
G03*
X135326318Y-116841471I65001J2169999D01*
G01*
D13*
X132710000Y-118320000D02*
G75*
G03*
X134926318Y-116441471I65001J2169999D01*
G01*
X210270000Y-94780000D02*
X211270000Y-94780000D01*
X211270000Y-93780000D02*
X210770000Y-94680000D01*
X211520000Y-91580000D02*
X210020000Y-91580000D01*
X210020000Y-96980000D02*
X211520000Y-96980000D01*
X210270000Y-93780000D02*
X211270000Y-93780000D01*
X211520000Y-96980000D02*
X211520000Y-91580000D01*
X210770000Y-94680000D02*
X210270000Y-93780000D01*
X210020000Y-91580000D02*
X210020000Y-96980000D01*
X147000000Y-119330000D02*
X147000000Y-121580000D01*
X151780000Y-118330000D02*
X146780000Y-118330000D01*
D14*
X152750600Y-111430000D02*
X152750600Y-109980000D01*
D13*
X157080000Y-116790000D02*
X157280000Y-116790000D01*
X146780000Y-121930000D02*
X155180001Y-121930000D01*
D15*
X148780000Y-120130000D02*
X155480000Y-120130000D01*
D18*
X156680000Y-116930000D02*
X156680000Y-118729999D01*
D13*
X157280000Y-119030000D02*
X157080000Y-119030000D01*
D20*
X155550000Y-120430000D02*
X155550000Y-118190000D01*
D13*
X146780000Y-118330000D02*
X146780000Y-119330000D01*
D14*
X154800600Y-111430000D02*
X152750600Y-111430000D01*
D13*
X157050000Y-119030000D02*
X157050000Y-116790000D01*
D16*
X146980000Y-119230000D02*
X146980000Y-118530000D01*
D19*
X157080000Y-116630000D02*
X154380000Y-116630000D01*
D13*
X157280000Y-120030000D02*
X157280000Y-119030000D01*
D16*
X146980000Y-121730000D02*
X148380000Y-121730000D01*
D19*
X147080000Y-118630000D02*
X148480000Y-118630000D01*
D14*
X154800600Y-109980000D02*
X154800600Y-111430000D01*
D13*
X146780000Y-121580000D02*
X146780000Y-121930000D01*
X146780000Y-119330000D02*
X146980000Y-119330000D01*
D14*
X152750600Y-109980000D02*
X154800600Y-109980000D01*
D13*
X157280000Y-116430000D02*
X157280000Y-116790000D01*
D17*
X147480000Y-121330000D02*
X147480000Y-118830000D01*
D13*
X146980000Y-121580000D02*
X146780000Y-121580000D01*
X157280000Y-116430000D02*
X154000000Y-116430000D01*
D14*
X157180000Y-119130001D02*
X157180000Y-120030000D01*
D17*
X152180000Y-118730000D02*
G75*
G03*
X154396318Y-116851471I65001J2169999D01*
G01*
D13*
X151780000Y-118330000D02*
G75*
G03*
X153996318Y-116451471I65001J2169999D01*
G01*
X155180001Y-121930001D02*
G75*
G03*
X157280000Y-120029999I100000J1999999D01*
G01*
X203940000Y-118310000D02*
X203940000Y-119310000D01*
X204160000Y-119310000D02*
X204160000Y-121560000D01*
D20*
X212710000Y-120410000D02*
X212710000Y-118170000D01*
D13*
X214440000Y-119010000D02*
X214240000Y-119010000D01*
X214210000Y-119010000D02*
X214210000Y-116770000D01*
X214240000Y-116770000D02*
X214440000Y-116770000D01*
D19*
X204240000Y-118610000D02*
X205640000Y-118610000D01*
D14*
X211960600Y-109960000D02*
X211960600Y-111410000D01*
D16*
X204140000Y-119210000D02*
X204140000Y-118510000D01*
D14*
X211960600Y-111410000D02*
X209910600Y-111410000D01*
D16*
X204140000Y-121710000D02*
X205540000Y-121710000D01*
D17*
X204640000Y-121310000D02*
X204640000Y-118810000D01*
D13*
X214440000Y-120010000D02*
X214440000Y-119010000D01*
X203940000Y-119310000D02*
X204140000Y-119310000D01*
D15*
X205940000Y-120110000D02*
X212640000Y-120110000D01*
D18*
X213840000Y-116910000D02*
X213840000Y-118709999D01*
D14*
X214340000Y-119110001D02*
X214340000Y-120010000D01*
D13*
X214440000Y-116410000D02*
X211160000Y-116410000D01*
D14*
X209910600Y-109960000D02*
X211960600Y-109960000D01*
D13*
X208940000Y-118310000D02*
X203940000Y-118310000D01*
X214440000Y-116410000D02*
X214440000Y-116770000D01*
X204140000Y-121560000D02*
X203940000Y-121560000D01*
D14*
X209910600Y-111410000D02*
X209910600Y-109960000D01*
D19*
X214240000Y-116610000D02*
X211540000Y-116610000D01*
D13*
X203940000Y-121910000D02*
X212340001Y-121910000D01*
X203940000Y-121560000D02*
X203940000Y-121910000D01*
X208940000Y-118310000D02*
G75*
G03*
X211156318Y-116431471I65001J2169999D01*
G01*
D17*
X209340000Y-118710000D02*
G75*
G03*
X211556318Y-116831471I65001J2169999D01*
G01*
D13*
X212340001Y-121910001D02*
G75*
G03*
X214440000Y-120009999I100000J1999999D01*
G01*
D19*
X230900000Y-78470000D02*
X228200000Y-78470000D01*
D15*
X222600000Y-81970000D02*
X229300000Y-81970000D01*
D20*
X229370000Y-82270000D02*
X229370000Y-80030000D01*
D13*
X220800000Y-83420000D02*
X220600000Y-83420000D01*
X231100000Y-80870000D02*
X230900000Y-80870000D01*
X220600000Y-81170000D02*
X220800000Y-81170000D01*
X231100000Y-78270000D02*
X227820000Y-78270000D01*
X231100000Y-81870000D02*
X231100000Y-80870000D01*
X220600000Y-83770000D02*
X229000001Y-83770000D01*
D18*
X230500000Y-78770000D02*
X230500000Y-80569999D01*
D14*
X226570600Y-73270000D02*
X226570600Y-71820000D01*
D17*
X221300000Y-83170000D02*
X221300000Y-80670000D01*
D16*
X220800000Y-81070000D02*
X220800000Y-80370000D01*
X220800000Y-83570000D02*
X222200000Y-83570000D01*
D13*
X220820000Y-81170000D02*
X220820000Y-83420000D01*
X220600000Y-80170000D02*
X220600000Y-81170000D01*
D14*
X231000000Y-80970001D02*
X231000000Y-81870000D01*
D13*
X220600000Y-83420000D02*
X220600000Y-83770000D01*
D14*
X228620600Y-73270000D02*
X226570600Y-73270000D01*
X228620600Y-71820000D02*
X228620600Y-73270000D01*
D13*
X230900000Y-78630000D02*
X231100000Y-78630000D01*
X230870000Y-80870000D02*
X230870000Y-78630000D01*
X231100000Y-78270000D02*
X231100000Y-78630000D01*
X225600000Y-80170000D02*
X220600000Y-80170000D01*
D14*
X226570600Y-71820000D02*
X228620600Y-71820000D01*
D19*
X220900000Y-80470000D02*
X222300000Y-80470000D01*
D17*
X226000000Y-80570000D02*
G75*
G03*
X228216318Y-78691471I65001J2169999D01*
G01*
D13*
X225600000Y-80170000D02*
G75*
G03*
X227816318Y-78291471I65001J2169999D01*
G01*
X229000001Y-83770001D02*
G75*
G03*
X231100000Y-81869999I100000J1999999D01*
G01*
D14*
X217815800Y-130510000D02*
X217815800Y-131960000D01*
X215365800Y-130510000D02*
X217785800Y-130510000D01*
X217815800Y-131960000D02*
X215365800Y-131960000D01*
X215365800Y-131960000D02*
X215365800Y-130510000D01*
D13*
X153660000Y-93620000D02*
X153160000Y-94520000D01*
X152660000Y-93620000D02*
X153660000Y-93620000D01*
X152410000Y-91420000D02*
X152410000Y-96820000D01*
X152660000Y-94620000D02*
X153660000Y-94620000D01*
X153910000Y-91420000D02*
X152410000Y-91420000D01*
X152410000Y-96820000D02*
X153910000Y-96820000D01*
X153910000Y-96820000D02*
X153910000Y-91420000D01*
X153160000Y-94520000D02*
X152660000Y-93620000D01*
X110732000Y-71976000D02*
X109232000Y-71976000D01*
X109232000Y-77376000D02*
X110732000Y-77376000D01*
X109232000Y-71976000D02*
X109232000Y-77376000D01*
X109482000Y-74176000D02*
X110482000Y-74176000D01*
X109982000Y-75076000D02*
X109482000Y-74176000D01*
X109482000Y-75176000D02*
X110482000Y-75176000D01*
X110732000Y-77376000D02*
X110732000Y-71976000D01*
X110482000Y-74176000D02*
X109982000Y-75076000D01*
D14*
X226230600Y-52780000D02*
X226230600Y-54230000D01*
D13*
X218430000Y-62130000D02*
X218430000Y-64380000D01*
X228510000Y-59590000D02*
X228710000Y-59590000D01*
X218210000Y-64380000D02*
X218210000Y-64730000D01*
D17*
X218910000Y-64130000D02*
X218910000Y-61630000D01*
D13*
X228480000Y-61830000D02*
X228480000Y-59590000D01*
D20*
X226980000Y-63230000D02*
X226980000Y-60990000D01*
D13*
X223210000Y-61130000D02*
X218210000Y-61130000D01*
X228710000Y-61830000D02*
X228510000Y-61830000D01*
D16*
X218410000Y-62030000D02*
X218410000Y-61330000D01*
D14*
X224180600Y-54230000D02*
X224180600Y-52780000D01*
D19*
X218510000Y-61430000D02*
X219910000Y-61430000D01*
D18*
X228110000Y-59730000D02*
X228110000Y-61529999D01*
D13*
X218210000Y-62130000D02*
X218410000Y-62130000D01*
X228710000Y-59230000D02*
X225430000Y-59230000D01*
X218210000Y-61130000D02*
X218210000Y-62130000D01*
X228710000Y-59230000D02*
X228710000Y-59590000D01*
D15*
X220210000Y-62930000D02*
X226910000Y-62930000D01*
D14*
X226230600Y-54230000D02*
X224180600Y-54230000D01*
D19*
X228510000Y-59430000D02*
X225810000Y-59430000D01*
D16*
X218410000Y-64530000D02*
X219810000Y-64530000D01*
D13*
X218410000Y-64380000D02*
X218210000Y-64380000D01*
X228710000Y-62830000D02*
X228710000Y-61830000D01*
X218210000Y-64730000D02*
X226610001Y-64730000D01*
D14*
X224180600Y-52780000D02*
X226230600Y-52780000D01*
X228610000Y-61930001D02*
X228610000Y-62830000D01*
D13*
X223210000Y-61130000D02*
G75*
G03*
X225426318Y-59251471I65001J2169999D01*
G01*
X226610001Y-64730001D02*
G75*
G03*
X228710000Y-62829999I100000J1999999D01*
G01*
D17*
X223610000Y-61530000D02*
G75*
G03*
X225826318Y-59651471I65001J2169999D01*
G01*
D13*
X195450000Y-135060000D02*
X196950000Y-135060000D01*
X195700000Y-132860000D02*
X196700000Y-132860000D01*
X196950000Y-135060000D02*
X196950000Y-129660000D01*
X196200000Y-132760000D02*
X195700000Y-131860000D01*
X195700000Y-131860000D02*
X196700000Y-131860000D01*
X196950000Y-129660000D02*
X195450000Y-129660000D01*
X196700000Y-131860000D02*
X196200000Y-132760000D01*
X195450000Y-129660000D02*
X195450000Y-135060000D01*
X103820000Y-86120000D02*
X103820000Y-88660000D01*
X93660000Y-86120000D02*
X103820000Y-86120000D01*
X93660000Y-88660000D02*
X93660000Y-86120000D01*
X103820000Y-88660000D02*
X93660000Y-88660000D01*
X229940000Y-94880000D02*
X229440000Y-93980000D01*
X229440000Y-94980000D02*
X230440000Y-94980000D01*
X230440000Y-93980000D02*
X229940000Y-94880000D01*
X230690000Y-97180000D02*
X230690000Y-91780000D01*
X229190000Y-91780000D02*
X229190000Y-97180000D01*
X230690000Y-91780000D02*
X229190000Y-91780000D01*
X229440000Y-93980000D02*
X230440000Y-93980000D01*
X229190000Y-97180000D02*
X230690000Y-97180000D01*
X181670000Y-113900000D02*
X182670000Y-113900000D01*
X182920000Y-116100000D02*
X182920000Y-110700000D01*
X182170000Y-113800000D02*
X181670000Y-112900000D01*
X182670000Y-112900000D02*
X182170000Y-113800000D01*
X181420000Y-116100000D02*
X182920000Y-116100000D01*
X182920000Y-110700000D02*
X181420000Y-110700000D01*
X181670000Y-112900000D02*
X182670000Y-112900000D01*
X181420000Y-110700000D02*
X181420000Y-116100000D01*
X190258000Y-96680000D02*
X191758000Y-96680000D01*
X191008000Y-94380000D02*
X190508000Y-93480000D01*
X191758000Y-96680000D02*
X191758000Y-91280000D01*
X191508000Y-93480000D02*
X191008000Y-94380000D01*
X190508000Y-93480000D02*
X191508000Y-93480000D01*
X190508000Y-94480000D02*
X191508000Y-94480000D01*
X191758000Y-91280000D02*
X190258000Y-91280000D01*
X190258000Y-91280000D02*
X190258000Y-96680000D01*
X199170000Y-64740000D02*
X207570001Y-64740000D01*
X199170000Y-62140000D02*
X199370000Y-62140000D01*
D16*
X199370000Y-64540000D02*
X200770000Y-64540000D01*
D20*
X207940000Y-63240000D02*
X207940000Y-61000000D01*
D14*
X205140600Y-54240000D02*
X205140600Y-52790000D01*
D17*
X199870000Y-64140000D02*
X199870000Y-61640000D01*
D14*
X209570000Y-61940001D02*
X209570000Y-62840000D01*
X207190600Y-54240000D02*
X205140600Y-54240000D01*
D13*
X199170000Y-64390000D02*
X199170000Y-64740000D01*
X209440000Y-61840000D02*
X209440000Y-59600000D01*
D18*
X209070000Y-59740000D02*
X209070000Y-61539999D01*
D13*
X209470000Y-59600000D02*
X209670000Y-59600000D01*
X209670000Y-59240000D02*
X206390000Y-59240000D01*
D19*
X199470000Y-61440000D02*
X200870000Y-61440000D01*
D13*
X199390000Y-62140000D02*
X199390000Y-64390000D01*
D19*
X209470000Y-59440000D02*
X206770000Y-59440000D01*
D13*
X209670000Y-59240000D02*
X209670000Y-59600000D01*
D14*
X207190600Y-52790000D02*
X207190600Y-54240000D01*
D15*
X201170000Y-62940000D02*
X207870000Y-62940000D01*
D14*
X205140600Y-52790000D02*
X207190600Y-52790000D01*
D13*
X199170000Y-61140000D02*
X199170000Y-62140000D01*
X209670000Y-62840000D02*
X209670000Y-61840000D01*
D16*
X199370000Y-62040000D02*
X199370000Y-61340000D01*
D13*
X204170000Y-61140000D02*
X199170000Y-61140000D01*
X209670000Y-61840000D02*
X209470000Y-61840000D01*
X199370000Y-64390000D02*
X199170000Y-64390000D01*
X204170000Y-61140000D02*
G75*
G03*
X206386318Y-59261471I65001J2169999D01*
G01*
X207570001Y-64740001D02*
G75*
G03*
X209670000Y-62839999I100000J1999999D01*
G01*
D17*
X204570000Y-61540000D02*
G75*
G03*
X206786318Y-59661471I65001J2169999D01*
G01*
D13*
X170610000Y-80210000D02*
X170610000Y-81210000D01*
X170610000Y-81210000D02*
X170810000Y-81210000D01*
D20*
X179380000Y-82310000D02*
X179380000Y-80070000D01*
D18*
X180510000Y-78810000D02*
X180510000Y-80609999D01*
D16*
X170810000Y-83610000D02*
X172210000Y-83610000D01*
D13*
X180880000Y-80910000D02*
X180880000Y-78670000D01*
D14*
X176580600Y-73310000D02*
X176580600Y-71860000D01*
D15*
X172610000Y-82010000D02*
X179310000Y-82010000D01*
D13*
X181110000Y-81910000D02*
X181110000Y-80910000D01*
D19*
X180910000Y-78510000D02*
X178210000Y-78510000D01*
D13*
X170810000Y-83460000D02*
X170610000Y-83460000D01*
X170830000Y-81210000D02*
X170830000Y-83460000D01*
X181110000Y-78310000D02*
X181110000Y-78670000D01*
D14*
X181010000Y-81010001D02*
X181010000Y-81910000D01*
D19*
X170910000Y-80510000D02*
X172310000Y-80510000D01*
D13*
X175610000Y-80210000D02*
X170610000Y-80210000D01*
D14*
X178630600Y-73310000D02*
X176580600Y-73310000D01*
D13*
X170610000Y-83460000D02*
X170610000Y-83810000D01*
D14*
X176580600Y-71860000D02*
X178630600Y-71860000D01*
D13*
X170610000Y-83810000D02*
X179010001Y-83810000D01*
D14*
X178630600Y-71860000D02*
X178630600Y-73310000D01*
D17*
X171310000Y-83210000D02*
X171310000Y-80710000D01*
D13*
X181110000Y-80910000D02*
X180910000Y-80910000D01*
X181110000Y-78310000D02*
X177830000Y-78310000D01*
X180910000Y-78670000D02*
X181110000Y-78670000D01*
D16*
X170810000Y-81110000D02*
X170810000Y-80410000D01*
D17*
X176010000Y-80610000D02*
G75*
G03*
X178226318Y-78731471I65001J2169999D01*
G01*
D13*
X179010001Y-83810001D02*
G75*
G03*
X181110000Y-81909999I100000J1999999D01*
G01*
X175610000Y-80210000D02*
G75*
G03*
X177826318Y-78331471I65001J2169999D01*
G01*
D14*
X148605800Y-130970000D02*
X148605800Y-129520000D01*
X148605800Y-129520000D02*
X151025800Y-129520000D01*
X151055800Y-129520000D02*
X151055800Y-130970000D01*
X151055800Y-130970000D02*
X148605800Y-130970000D01*
D13*
X195220000Y-55100000D02*
X196220000Y-55100000D01*
X194970000Y-58300000D02*
X196470000Y-58300000D01*
X195220000Y-56100000D02*
X196220000Y-56100000D01*
X194970000Y-52900000D02*
X194970000Y-58300000D01*
X196470000Y-52900000D02*
X194970000Y-52900000D01*
X195720000Y-56000000D02*
X195220000Y-55100000D01*
X196470000Y-58300000D02*
X196470000Y-52900000D01*
X196220000Y-55100000D02*
X195720000Y-56000000D01*
X161810000Y-115730000D02*
X163310000Y-115730000D01*
X163310000Y-110330000D02*
X161810000Y-110330000D01*
X162060000Y-112530000D02*
X163060000Y-112530000D01*
X161810000Y-110330000D02*
X161810000Y-115730000D01*
X162560000Y-113430000D02*
X162060000Y-112530000D01*
X162060000Y-113530000D02*
X163060000Y-113530000D01*
X163060000Y-112530000D02*
X162560000Y-113430000D01*
X163310000Y-115730000D02*
X163310000Y-110330000D01*
X170960000Y-90770000D02*
X170960000Y-96170000D01*
X172210000Y-92970000D02*
X171710000Y-93870000D01*
X171210000Y-92970000D02*
X172210000Y-92970000D01*
X170960000Y-96170000D02*
X172460000Y-96170000D01*
X171710000Y-93870000D02*
X171210000Y-92970000D01*
X172460000Y-90770000D02*
X170960000Y-90770000D01*
X171210000Y-93970000D02*
X172210000Y-93970000D01*
X172460000Y-96170000D02*
X172460000Y-90770000D01*
D21*
X107696000Y-84074000D02*
X107696000Y-51054000D01*
X92456000Y-53594000D02*
X92456000Y-56134000D01*
X107696000Y-51054000D02*
X89916000Y-51054000D01*
X89916000Y-51054000D02*
X89916000Y-84074000D01*
X92456000Y-56134000D02*
X89916000Y-56134000D01*
X92456000Y-53594000D02*
X89916000Y-53594000D01*
X89916000Y-84074000D02*
X107696000Y-84074000D01*
G36*
X105150635Y-60283030D02*
G01*
X105050635Y-60283030D01*
X105050635Y-59483030D01*
X105150635Y-59483030D01*
X105150635Y-60283030D01*
G37*
D13*
X105150635Y-60283030D02*
X105050635Y-60283030D01*
X105050635Y-59483030D01*
X105150635Y-59483030D01*
X105150635Y-60283030D01*
G36*
X104950635Y-59983030D02*
G01*
X104850635Y-59983030D01*
X104850635Y-59883030D01*
X104950635Y-59883030D01*
X104950635Y-59983030D01*
G37*
X104950635Y-59983030D02*
X104850635Y-59983030D01*
X104850635Y-59883030D01*
X104950635Y-59883030D01*
X104950635Y-59983030D01*
G36*
X104750635Y-59783030D02*
G01*
X104650635Y-59783030D01*
X104650635Y-59483030D01*
X104750635Y-59483030D01*
X104750635Y-59783030D01*
G37*
X104750635Y-59783030D02*
X104650635Y-59783030D01*
X104650635Y-59483030D01*
X104750635Y-59483030D01*
X104750635Y-59783030D01*
G36*
X104750635Y-60283030D02*
G01*
X104650635Y-60283030D01*
X104650635Y-60083030D01*
X104750635Y-60083030D01*
X104750635Y-60283030D01*
G37*
X104750635Y-60283030D02*
X104650635Y-60283030D01*
X104650635Y-60083030D01*
X104750635Y-60083030D01*
X104750635Y-60283030D01*
G36*
X105150635Y-59583030D02*
G01*
X104650635Y-59583030D01*
X104650635Y-59483030D01*
X105150635Y-59483030D01*
X105150635Y-59583030D01*
G37*
X105150635Y-59583030D02*
X104650635Y-59583030D01*
X104650635Y-59483030D01*
X105150635Y-59483030D01*
X105150635Y-59583030D01*
D14*
X115555800Y-131040000D02*
X113105800Y-131040000D01*
X113105800Y-131040000D02*
X113105800Y-129590000D01*
X115555800Y-129590000D02*
X115555800Y-131040000D01*
X113105800Y-129590000D02*
X115525800Y-129590000D01*
D13*
X137230000Y-102510000D02*
X137230000Y-102860000D01*
D17*
X137930000Y-102260000D02*
X137930000Y-99760000D01*
D16*
X137430000Y-100160000D02*
X137430000Y-99460000D01*
D13*
X137230000Y-100260000D02*
X137430000Y-100260000D01*
D14*
X145250600Y-90910000D02*
X145250600Y-92360000D01*
X143200600Y-90910000D02*
X145250600Y-90910000D01*
D13*
X147530000Y-97720000D02*
X147730000Y-97720000D01*
X147730000Y-97360000D02*
X147730000Y-97720000D01*
X147730000Y-97360000D02*
X144450000Y-97360000D01*
X147500000Y-99960000D02*
X147500000Y-97720000D01*
D19*
X147530000Y-97560000D02*
X144830000Y-97560000D01*
D14*
X143200600Y-92360000D02*
X143200600Y-90910000D01*
D13*
X147730000Y-100960000D02*
X147730000Y-99960000D01*
X137230000Y-99260000D02*
X137230000Y-100260000D01*
D16*
X137430000Y-102660000D02*
X138830000Y-102660000D01*
D14*
X147630000Y-100060001D02*
X147630000Y-100960000D01*
D13*
X137450000Y-100260000D02*
X137450000Y-102510000D01*
D18*
X147130000Y-97860000D02*
X147130000Y-99659999D01*
D13*
X137230000Y-102860000D02*
X145630001Y-102860000D01*
D20*
X146000000Y-101360000D02*
X146000000Y-99120000D01*
D14*
X145250600Y-92360000D02*
X143200600Y-92360000D01*
D13*
X142230000Y-99260000D02*
X137230000Y-99260000D01*
D19*
X137530000Y-99560000D02*
X138930000Y-99560000D01*
D13*
X137430000Y-102510000D02*
X137230000Y-102510000D01*
D15*
X139230000Y-101060000D02*
X145930000Y-101060000D01*
D13*
X147730000Y-99960000D02*
X147530000Y-99960000D01*
D17*
X142630000Y-99660000D02*
G75*
G03*
X144846318Y-97781471I65001J2169999D01*
G01*
D13*
X145630001Y-102860001D02*
G75*
G03*
X147730000Y-100959999I100000J1999999D01*
G01*
X142230000Y-99260000D02*
G75*
G03*
X144446318Y-97381471I65001J2169999D01*
G01*
D14*
X112465800Y-61810000D02*
X110015800Y-61810000D01*
X112465800Y-60360000D02*
X112465800Y-61810000D01*
X110015800Y-60360000D02*
X112435800Y-60360000D01*
X110015800Y-61810000D02*
X110015800Y-60360000D01*
D13*
X148340000Y-75320000D02*
X147840000Y-74420000D01*
X147840000Y-74420000D02*
X148840000Y-74420000D01*
X147590000Y-77620000D02*
X149090000Y-77620000D01*
X147840000Y-75420000D02*
X148840000Y-75420000D01*
X149090000Y-72220000D02*
X147590000Y-72220000D01*
X148840000Y-74420000D02*
X148340000Y-75320000D01*
X149090000Y-77620000D02*
X149090000Y-72220000D01*
X147590000Y-72220000D02*
X147590000Y-77620000D01*
X195380000Y-116420000D02*
X192100000Y-116420000D01*
D14*
X195280000Y-119120001D02*
X195280000Y-120020000D01*
D20*
X193650000Y-120420000D02*
X193650000Y-118180000D01*
D13*
X184880000Y-119320000D02*
X185080000Y-119320000D01*
D19*
X195180000Y-116620000D02*
X192480000Y-116620000D01*
D13*
X195380000Y-119020000D02*
X195180000Y-119020000D01*
X195380000Y-120020000D02*
X195380000Y-119020000D01*
X184880000Y-121570000D02*
X184880000Y-121920000D01*
X195380000Y-116420000D02*
X195380000Y-116780000D01*
X195150000Y-119020000D02*
X195150000Y-116780000D01*
D19*
X185180000Y-118620000D02*
X186580000Y-118620000D01*
D13*
X195180000Y-116780000D02*
X195380000Y-116780000D01*
D14*
X190850600Y-111420000D02*
X190850600Y-109970000D01*
D18*
X194780000Y-116920000D02*
X194780000Y-118719999D01*
D14*
X190850600Y-109970000D02*
X192900600Y-109970000D01*
D16*
X185080000Y-121720000D02*
X186480000Y-121720000D01*
D17*
X185580000Y-121320000D02*
X185580000Y-118820000D01*
D13*
X184880000Y-118320000D02*
X184880000Y-119320000D01*
D14*
X192900600Y-109970000D02*
X192900600Y-111420000D01*
D13*
X185100000Y-119320000D02*
X185100000Y-121570000D01*
D15*
X186880000Y-120120000D02*
X193580000Y-120120000D01*
D13*
X185080000Y-121570000D02*
X184880000Y-121570000D01*
X189880000Y-118320000D02*
X184880000Y-118320000D01*
D14*
X192900600Y-111420000D02*
X190850600Y-111420000D01*
D13*
X184880000Y-121920000D02*
X193280001Y-121920000D01*
D16*
X185080000Y-119220000D02*
X185080000Y-118520000D01*
D13*
X193280001Y-121920001D02*
G75*
G03*
X195380000Y-120019999I100000J1999999D01*
G01*
X189880000Y-118320000D02*
G75*
G03*
X192096318Y-116441471I65001J2169999D01*
G01*
D17*
X190280000Y-118720000D02*
G75*
G03*
X192496318Y-116841471I65001J2169999D01*
G01*
D19*
X238050000Y-116600000D02*
X235350000Y-116600000D01*
X228050000Y-118600000D02*
X229450000Y-118600000D01*
D16*
X227950000Y-119200000D02*
X227950000Y-118500000D01*
D13*
X238250000Y-116400000D02*
X234970000Y-116400000D01*
X238250000Y-120000000D02*
X238250000Y-119000000D01*
X238020000Y-119000000D02*
X238020000Y-116760000D01*
D20*
X236520000Y-120400000D02*
X236520000Y-118160000D01*
D14*
X233720600Y-111400000D02*
X233720600Y-109950000D01*
X238150000Y-119100001D02*
X238150000Y-120000000D01*
X235770600Y-111400000D02*
X233720600Y-111400000D01*
D17*
X228450000Y-121300000D02*
X228450000Y-118800000D01*
D13*
X238250000Y-119000000D02*
X238050000Y-119000000D01*
X232750000Y-118300000D02*
X227750000Y-118300000D01*
D15*
X229750000Y-120100000D02*
X236450000Y-120100000D01*
D16*
X227950000Y-121700000D02*
X229350000Y-121700000D01*
D13*
X238250000Y-116400000D02*
X238250000Y-116760000D01*
D18*
X237650000Y-116900000D02*
X237650000Y-118699999D01*
D13*
X227750000Y-119300000D02*
X227950000Y-119300000D01*
X238050000Y-116760000D02*
X238250000Y-116760000D01*
X227750000Y-121900000D02*
X236150001Y-121900000D01*
D14*
X235770600Y-109950000D02*
X235770600Y-111400000D01*
D13*
X227750000Y-121550000D02*
X227750000Y-121900000D01*
X227950000Y-121550000D02*
X227750000Y-121550000D01*
D14*
X233720600Y-109950000D02*
X235770600Y-109950000D01*
D13*
X227750000Y-118300000D02*
X227750000Y-119300000D01*
X227970000Y-119300000D02*
X227970000Y-121550000D01*
X232750000Y-118300000D02*
G75*
G03*
X234966318Y-116421471I65001J2169999D01*
G01*
X236150001Y-121900001D02*
G75*
G03*
X238250000Y-119999999I100000J1999999D01*
G01*
D17*
X233150000Y-118700000D02*
G75*
G03*
X235366318Y-116821471I65001J2169999D01*
G01*
D13*
X124960000Y-112276000D02*
X124460000Y-113176000D01*
X123710000Y-115476000D02*
X125210000Y-115476000D01*
X124460000Y-113176000D02*
X123960000Y-112276000D01*
X123710000Y-110076000D02*
X123710000Y-115476000D01*
X123960000Y-112276000D02*
X124960000Y-112276000D01*
X125210000Y-115476000D02*
X125210000Y-110076000D01*
X123960000Y-113276000D02*
X124960000Y-113276000D01*
X125210000Y-110076000D02*
X123710000Y-110076000D01*
X133690000Y-93710000D02*
X134690000Y-93710000D01*
X134940000Y-96910000D02*
X134940000Y-91510000D01*
X134940000Y-91510000D02*
X133440000Y-91510000D01*
X134190000Y-94610000D02*
X133690000Y-93710000D01*
X133440000Y-96910000D02*
X134940000Y-96910000D01*
X133690000Y-94710000D02*
X134690000Y-94710000D01*
X133440000Y-91510000D02*
X133440000Y-96910000D01*
X134690000Y-93710000D02*
X134190000Y-94610000D01*
X201380000Y-115520000D02*
X201380000Y-110120000D01*
X201380000Y-110120000D02*
X199880000Y-110120000D01*
X200130000Y-113320000D02*
X201130000Y-113320000D01*
X200630000Y-113220000D02*
X200130000Y-112320000D01*
X199880000Y-115520000D02*
X201380000Y-115520000D01*
X200130000Y-112320000D02*
X201130000Y-112320000D01*
X199880000Y-110120000D02*
X199880000Y-115520000D01*
X201130000Y-112320000D02*
X200630000Y-113220000D01*
D20*
X160340000Y-82300000D02*
X160340000Y-80060000D01*
D17*
X152270000Y-83200000D02*
X152270000Y-80700000D01*
D14*
X157540600Y-71850000D02*
X159590600Y-71850000D01*
D13*
X151770000Y-83450000D02*
X151570000Y-83450000D01*
X161870000Y-78660000D02*
X162070000Y-78660000D01*
X151570000Y-83800000D02*
X159970001Y-83800000D01*
D16*
X151770000Y-81100000D02*
X151770000Y-80400000D01*
D13*
X151570000Y-80200000D02*
X151570000Y-81200000D01*
D14*
X159590600Y-71850000D02*
X159590600Y-73300000D01*
D15*
X153570000Y-82000000D02*
X160270000Y-82000000D01*
D13*
X151790000Y-81200000D02*
X151790000Y-83450000D01*
X162070000Y-81900000D02*
X162070000Y-80900000D01*
D19*
X151870000Y-80500000D02*
X153270000Y-80500000D01*
D14*
X161970000Y-81000001D02*
X161970000Y-81900000D01*
D18*
X161470000Y-78800000D02*
X161470000Y-80599999D01*
D19*
X161870000Y-78500000D02*
X159170000Y-78500000D01*
D13*
X151570000Y-83450000D02*
X151570000Y-83800000D01*
X161840000Y-80900000D02*
X161840000Y-78660000D01*
X162070000Y-78300000D02*
X162070000Y-78660000D01*
X156570000Y-80200000D02*
X151570000Y-80200000D01*
D14*
X157540600Y-73300000D02*
X157540600Y-71850000D01*
X159590600Y-73300000D02*
X157540600Y-73300000D01*
D13*
X151570000Y-81200000D02*
X151770000Y-81200000D01*
X162070000Y-78300000D02*
X158790000Y-78300000D01*
D16*
X151770000Y-83600000D02*
X153170000Y-83600000D01*
D13*
X162070000Y-80900000D02*
X161870000Y-80900000D01*
X156570000Y-80200000D02*
G75*
G03*
X158786318Y-78321471I65001J2169999D01*
G01*
D17*
X156970000Y-80600000D02*
G75*
G03*
X159186318Y-78721471I65001J2169999D01*
G01*
D13*
X159970001Y-83800001D02*
G75*
G03*
X162070000Y-81899999I100000J1999999D01*
G01*
X144490000Y-115830000D02*
X144490000Y-110430000D01*
X144490000Y-110430000D02*
X142990000Y-110430000D01*
X143240000Y-112630000D02*
X144240000Y-112630000D01*
X142990000Y-110430000D02*
X142990000Y-115830000D01*
X142990000Y-115830000D02*
X144490000Y-115830000D01*
X143240000Y-113630000D02*
X144240000Y-113630000D01*
X144240000Y-112630000D02*
X143740000Y-113530000D01*
X143740000Y-113530000D02*
X143240000Y-112630000D01*
X224910000Y-113730000D02*
X224410000Y-112830000D01*
X225410000Y-112830000D02*
X224910000Y-113730000D01*
X225660000Y-116030000D02*
X225660000Y-110630000D01*
X225660000Y-110630000D02*
X224160000Y-110630000D01*
X224410000Y-112830000D02*
X225410000Y-112830000D01*
X224160000Y-116030000D02*
X225660000Y-116030000D01*
X224160000Y-110630000D02*
X224160000Y-116030000D01*
X224410000Y-113830000D02*
X225410000Y-113830000D01*
X162340000Y-132860000D02*
X163340000Y-132860000D01*
X162340000Y-131860000D02*
X163340000Y-131860000D01*
X163590000Y-129660000D02*
X162090000Y-129660000D01*
X162090000Y-135060000D02*
X163590000Y-135060000D01*
X162090000Y-129660000D02*
X162090000Y-135060000D01*
X162840000Y-132760000D02*
X162340000Y-131860000D01*
X163340000Y-131860000D02*
X162840000Y-132760000D01*
X163590000Y-135060000D02*
X163590000Y-129660000D01*
D14*
X181310600Y-90910000D02*
X183360600Y-90910000D01*
D18*
X185240000Y-97860000D02*
X185240000Y-99659999D01*
D13*
X185840000Y-99960000D02*
X185640000Y-99960000D01*
D14*
X185740000Y-100060001D02*
X185740000Y-100960000D01*
D13*
X180340000Y-99260000D02*
X175340000Y-99260000D01*
X185610000Y-99960000D02*
X185610000Y-97720000D01*
X185840000Y-97360000D02*
X185840000Y-97720000D01*
X185840000Y-100960000D02*
X185840000Y-99960000D01*
D19*
X175640000Y-99560000D02*
X177040000Y-99560000D01*
D15*
X177340000Y-101060000D02*
X184040000Y-101060000D01*
D13*
X185840000Y-97360000D02*
X182560000Y-97360000D01*
X175340000Y-102510000D02*
X175340000Y-102860000D01*
D20*
X184110000Y-101360000D02*
X184110000Y-99120000D01*
D16*
X175540000Y-102660000D02*
X176940000Y-102660000D01*
D13*
X175340000Y-100260000D02*
X175540000Y-100260000D01*
X175340000Y-102860000D02*
X183740001Y-102860000D01*
D14*
X181310600Y-92360000D02*
X181310600Y-90910000D01*
D13*
X175540000Y-102510000D02*
X175340000Y-102510000D01*
X175340000Y-99260000D02*
X175340000Y-100260000D01*
X175560000Y-100260000D02*
X175560000Y-102510000D01*
X185640000Y-97720000D02*
X185840000Y-97720000D01*
D14*
X183360600Y-90910000D02*
X183360600Y-92360000D01*
D17*
X176040000Y-102260000D02*
X176040000Y-99760000D01*
D14*
X183360600Y-92360000D02*
X181310600Y-92360000D01*
D16*
X175540000Y-100160000D02*
X175540000Y-99460000D01*
D19*
X185640000Y-97560000D02*
X182940000Y-97560000D01*
D17*
X180740000Y-99660000D02*
G75*
G03*
X182956318Y-97781471I65001J2169999D01*
G01*
D13*
X180340000Y-99260000D02*
G75*
G03*
X182556318Y-97381471I65001J2169999D01*
G01*
X183740001Y-102860001D02*
G75*
G03*
X185840000Y-100959999I100000J1999999D01*
G01*
G36*
X236711637Y-51763266D02*
G01*
X236992079Y-51770579D01*
X237148947Y-51794957D01*
X237217335Y-51845755D01*
X237232333Y-51932334D01*
X237232291Y-51938475D01*
X237201478Y-52043191D01*
X237085025Y-52099110D01*
X236841164Y-52127023D01*
X236449994Y-52152380D01*
X236819997Y-52715720D01*
X237018045Y-53034542D01*
X237150790Y-53306382D01*
X237185593Y-53492496D01*
X237130088Y-53615023D01*
X237030945Y-53640983D01*
X236808844Y-53654399D01*
X236516254Y-53650301D01*
X236244901Y-53633910D01*
X236063247Y-53603737D01*
X235981394Y-53548865D01*
X235962333Y-53456334D01*
X235965471Y-53412149D01*
X236038202Y-53306941D01*
X236237500Y-53260469D01*
X236258102Y-53258322D01*
X236438566Y-53222767D01*
X236512666Y-53176536D01*
X236477157Y-53098076D01*
X236367725Y-52917144D01*
X236210133Y-52679869D01*
X236118839Y-52540690D01*
X235967233Y-52236815D01*
X235934967Y-52001802D01*
X235948239Y-51907297D01*
X235986859Y-51824027D01*
X236083087Y-51781172D01*
X236274164Y-51765305D01*
X236597333Y-51763000D01*
X236711637Y-51763266D01*
G37*
G36*
X243709333Y-59554793D02*
G01*
X243709212Y-59720522D01*
X243706538Y-60338255D01*
X243700714Y-60894744D01*
X243692203Y-61368373D01*
X243681469Y-61737524D01*
X243668977Y-61980579D01*
X243655191Y-62075921D01*
X243597012Y-62110052D01*
X243547359Y-62069278D01*
X243510157Y-61933200D01*
X243483881Y-61687026D01*
X243467003Y-61315963D01*
X243457996Y-60805220D01*
X243455333Y-60140003D01*
X243455333Y-58240000D01*
X240492000Y-58240000D01*
X240492000Y-58654275D01*
X240492974Y-58724558D01*
X240526667Y-58993758D01*
X240605967Y-59112283D01*
X240646470Y-59139750D01*
X240788681Y-59278018D01*
X240989697Y-59501340D01*
X241219800Y-59777508D01*
X241547356Y-60184764D01*
X241719666Y-60399000D01*
X241677333Y-61225530D01*
X241663633Y-61440007D01*
X241630890Y-61757747D01*
X241591420Y-61972656D01*
X241550333Y-62051499D01*
X241533201Y-62037852D01*
X241493497Y-61899355D01*
X241461281Y-61638434D01*
X241441323Y-61288469D01*
X241416979Y-60526000D01*
X241171520Y-60526000D01*
X241036795Y-60536125D01*
X240938126Y-60610151D01*
X240899531Y-60801167D01*
X240897330Y-60821586D01*
X240853155Y-61002173D01*
X240788333Y-61076334D01*
X240781977Y-61075578D01*
X240718026Y-60988600D01*
X240677135Y-60801167D01*
X240650604Y-60526000D01*
X239059789Y-60526000D01*
X239035061Y-61182167D01*
X239034934Y-61185529D01*
X239009127Y-61552742D01*
X238969998Y-61755977D01*
X238923467Y-61799457D01*
X238875454Y-61687403D01*
X238831881Y-61424037D01*
X238798666Y-61013582D01*
X238794828Y-60946284D01*
X238753115Y-60495855D01*
X238686334Y-60170940D01*
X238587000Y-59933334D01*
X238417666Y-59637000D01*
X238375333Y-60125443D01*
X238351174Y-60343076D01*
X238304069Y-60563076D01*
X238252814Y-60623935D01*
X238203913Y-60531565D01*
X238163869Y-60291877D01*
X238139183Y-59910782D01*
X238134195Y-59741654D01*
X238132714Y-59439359D01*
X238138220Y-59383000D01*
X238487859Y-59383000D01*
X238772744Y-59827500D01*
X239057630Y-60272000D01*
X240202949Y-60272000D01*
X240644530Y-60273297D01*
X240978135Y-60268814D01*
X241172627Y-60244122D01*
X241243681Y-60184764D01*
X241206977Y-60076285D01*
X241078191Y-59904229D01*
X240873000Y-59654138D01*
X240731319Y-59493201D01*
X240553969Y-59365238D01*
X240400402Y-59379188D01*
X240239691Y-59528936D01*
X240087240Y-59717206D01*
X239536808Y-59522887D01*
X239242813Y-59433238D01*
X238945274Y-59369807D01*
X238737117Y-59355784D01*
X238487859Y-59383000D01*
X238138220Y-59383000D01*
X238150539Y-59256911D01*
X238193189Y-59159630D01*
X238266183Y-59112834D01*
X238351011Y-59069862D01*
X238485374Y-58944885D01*
X238539110Y-58892071D01*
X238727441Y-58840437D01*
X238962512Y-58864455D01*
X239174682Y-58962360D01*
X239277831Y-59021846D01*
X239480257Y-59079762D01*
X239676718Y-59087460D01*
X239815115Y-59045544D01*
X239843346Y-58954616D01*
X239840924Y-58859682D01*
X239973003Y-58775408D01*
X240111430Y-58685205D01*
X240153333Y-58484125D01*
X240153333Y-58240000D01*
X237362573Y-58240000D01*
X237339786Y-60102771D01*
X237332372Y-60562512D01*
X237315167Y-61166615D01*
X237292679Y-61602549D01*
X237266285Y-61870931D01*
X237237366Y-61972374D01*
X237207299Y-61907497D01*
X237177462Y-61676912D01*
X237149235Y-61281238D01*
X237123995Y-60721089D01*
X237103122Y-59997080D01*
X237058578Y-58028334D01*
X237042788Y-57986000D01*
X237359333Y-57986000D01*
X240153333Y-57986000D01*
X240492000Y-57986000D01*
X243455333Y-57986000D01*
X243455333Y-57224000D01*
X240492000Y-57224000D01*
X240492000Y-57986000D01*
X240153333Y-57986000D01*
X240153333Y-57224000D01*
X237359333Y-57224000D01*
X237359333Y-57986000D01*
X237042788Y-57986000D01*
X236663830Y-56970000D01*
X236269082Y-55911667D01*
X236242707Y-57689667D01*
X236231662Y-58236959D01*
X236213497Y-58757989D01*
X236190293Y-59144519D01*
X236162775Y-59384946D01*
X236131666Y-59467667D01*
X236129761Y-59467260D01*
X236103888Y-59376005D01*
X236081082Y-59142515D01*
X236061547Y-58792105D01*
X236045486Y-58350091D01*
X236033105Y-57841789D01*
X236024607Y-57292514D01*
X236020197Y-56727582D01*
X236020078Y-56172308D01*
X236024456Y-55652009D01*
X236033533Y-55192000D01*
X236037690Y-55080691D01*
X236273662Y-55080691D01*
X236308335Y-55223042D01*
X236387428Y-55484027D01*
X236501836Y-55834437D01*
X236642457Y-56245065D01*
X236703409Y-56418822D01*
X236862901Y-56864902D01*
X236977290Y-57167333D01*
X237052125Y-57339297D01*
X237092956Y-57393976D01*
X237105333Y-57344555D01*
X237104775Y-57337895D01*
X237071009Y-57213222D01*
X236993801Y-56977465D01*
X236885498Y-56664514D01*
X236758451Y-56308259D01*
X236625006Y-55942589D01*
X236497512Y-55601395D01*
X236388317Y-55318566D01*
X236309770Y-55127991D01*
X236274218Y-55063560D01*
X236273662Y-55080691D01*
X236037690Y-55080691D01*
X236047515Y-54817597D01*
X236064863Y-54578167D01*
X236427597Y-54578167D01*
X236432058Y-54600728D01*
X236478205Y-54755792D01*
X236566451Y-55028308D01*
X236686927Y-55388165D01*
X236829764Y-55805254D01*
X237232333Y-56968841D01*
X238735166Y-56969421D01*
X239170377Y-56966454D01*
X239597108Y-56956487D01*
X239935224Y-56940748D01*
X240157822Y-56920532D01*
X240238000Y-56897131D01*
X240214507Y-56880606D01*
X240060707Y-56859891D01*
X239795105Y-56853532D01*
X239454833Y-56863141D01*
X238671666Y-56902019D01*
X238623477Y-56852059D01*
X240576666Y-56852059D01*
X240586406Y-56880442D01*
X240617358Y-56897131D01*
X240655045Y-56917452D01*
X240807673Y-56943125D01*
X241065614Y-56959248D01*
X241450190Y-56967610D01*
X241982725Y-56970000D01*
X242276529Y-56969724D01*
X242713710Y-56966723D01*
X243016344Y-56958381D01*
X243207168Y-56942211D01*
X243308919Y-56915722D01*
X243344333Y-56876426D01*
X243336148Y-56821834D01*
X243332367Y-56811323D01*
X243275504Y-56658590D01*
X243173334Y-56387886D01*
X243039093Y-56034185D01*
X242886017Y-55632459D01*
X242846772Y-55529711D01*
X242695107Y-55138195D01*
X242584350Y-54875180D01*
X242498762Y-54716084D01*
X242422607Y-54636321D01*
X242340148Y-54611308D01*
X242235648Y-54616459D01*
X242156437Y-54626540D01*
X242066904Y-54659708D01*
X242058958Y-54668944D01*
X241997183Y-54740746D01*
X241932591Y-54898884D01*
X241858447Y-55163358D01*
X241760070Y-55563399D01*
X241726423Y-55699961D01*
X241602003Y-56141786D01*
X241528283Y-56324668D01*
X241481359Y-56441074D01*
X241350820Y-56618188D01*
X241196712Y-56693488D01*
X241005366Y-56687333D01*
X240844788Y-56670966D01*
X240647684Y-56717638D01*
X240576666Y-56852059D01*
X238623477Y-56852059D01*
X238334826Y-56552800D01*
X238287739Y-56503234D01*
X238110292Y-56278168D01*
X238103113Y-56245007D01*
X238567685Y-56245007D01*
X238668962Y-56374345D01*
X238767782Y-56459003D01*
X238958057Y-56524726D01*
X239256289Y-56538227D01*
X239397211Y-56532879D01*
X239688431Y-56507576D01*
X239899333Y-56470910D01*
X240019556Y-56425813D01*
X240091680Y-56324668D01*
X240081366Y-56123334D01*
X240080672Y-56120036D01*
X239990839Y-56062456D01*
X239803323Y-56038667D01*
X239770940Y-56038022D01*
X239495771Y-56005613D01*
X239206491Y-55939351D01*
X239182915Y-55932340D01*
X239070921Y-55906906D01*
X240412475Y-55906906D01*
X240442175Y-56061907D01*
X240482230Y-56149880D01*
X240608570Y-56260027D01*
X240843841Y-56308434D01*
X240993996Y-56319487D01*
X241127022Y-56294822D01*
X241208422Y-56186906D01*
X241288072Y-55956190D01*
X241316859Y-55860894D01*
X241398779Y-55557504D01*
X241453814Y-55307711D01*
X241498719Y-55074134D01*
X241555420Y-54820878D01*
X241557329Y-54813234D01*
X241577393Y-54668944D01*
X241510797Y-54610372D01*
X241316333Y-54599334D01*
X241259927Y-54599745D01*
X241095057Y-54623089D01*
X241014848Y-54717635D01*
X240968444Y-54932018D01*
X240873781Y-55219496D01*
X240640122Y-55555515D01*
X240627123Y-55569305D01*
X240466631Y-55761874D01*
X240412475Y-55906906D01*
X239070921Y-55906906D01*
X238967703Y-55883465D01*
X238829563Y-55909071D01*
X238694008Y-56021029D01*
X238578477Y-56148839D01*
X238567685Y-56245007D01*
X238103113Y-56245007D01*
X238072224Y-56102314D01*
X238178377Y-55935733D01*
X238433598Y-55738486D01*
X238687640Y-55565306D01*
X238531487Y-55274141D01*
X238515509Y-55243122D01*
X238416001Y-54981841D01*
X238375333Y-54748821D01*
X238375333Y-54535834D01*
X238544983Y-54535834D01*
X238586131Y-54599787D01*
X238722431Y-54593638D01*
X238916125Y-54516921D01*
X239127582Y-54390190D01*
X239317173Y-54233998D01*
X239445267Y-54068901D01*
X239511252Y-53907361D01*
X239505097Y-53750300D01*
X239379106Y-53708745D01*
X239143317Y-53791906D01*
X239141956Y-53792612D01*
X238948931Y-53936529D01*
X238755019Y-54145764D01*
X238605333Y-54364228D01*
X238544983Y-54535834D01*
X238375333Y-54535834D01*
X238375333Y-54514667D01*
X237401666Y-54514667D01*
X237039548Y-54519246D01*
X236721980Y-54532799D01*
X236506851Y-54553166D01*
X236427597Y-54578167D01*
X236064863Y-54578167D01*
X236066606Y-54554115D01*
X236091009Y-54426870D01*
X236127727Y-54372025D01*
X236199468Y-54321602D01*
X236325911Y-54289131D01*
X236535707Y-54270734D01*
X236857512Y-54262538D01*
X237319979Y-54260667D01*
X238460000Y-54260667D01*
X238790046Y-53930621D01*
X239029365Y-53727081D01*
X239425039Y-53535848D01*
X239827068Y-53512656D01*
X240227871Y-53657345D01*
X240541586Y-53907361D01*
X240619871Y-53969750D01*
X240984896Y-54345333D01*
X241791784Y-54345334D01*
X241928987Y-54346349D01*
X242293264Y-54361499D01*
X242544607Y-54392507D01*
X242654962Y-54436411D01*
X242679787Y-54488304D01*
X242761301Y-54680917D01*
X242884669Y-54984222D01*
X243038222Y-55369404D01*
X243210292Y-55807648D01*
X243626931Y-56876426D01*
X243709333Y-57087808D01*
X243709333Y-59554793D01*
G37*
G36*
X235776206Y-52813006D02*
G01*
X235805627Y-52851897D01*
X235810349Y-53002154D01*
X235695641Y-53149001D01*
X235492165Y-53245730D01*
X235392752Y-53275619D01*
X235368964Y-53323463D01*
X235450443Y-53415538D01*
X235651357Y-53581747D01*
X235726902Y-53644454D01*
X235927949Y-53855295D01*
X235971132Y-54011152D01*
X235855617Y-54119124D01*
X235580576Y-54186310D01*
X235184360Y-54228834D01*
X234899031Y-54224387D01*
X234741012Y-54165369D01*
X234692333Y-54049000D01*
X234723550Y-53936722D01*
X234882833Y-53852612D01*
X234948616Y-53840922D01*
X235056307Y-53783543D01*
X235026660Y-53675728D01*
X234858145Y-53495359D01*
X234824451Y-53462717D01*
X234673591Y-53254795D01*
X234681314Y-53085273D01*
X234850854Y-52947632D01*
X235185442Y-52835354D01*
X235477302Y-52774435D01*
X235670005Y-52765447D01*
X235776206Y-52813006D01*
G37*
D22*
X91186000Y-54864000D03*
D23*
X91186000Y-57404000D03*
X91186000Y-59944000D03*
X91186000Y-62484000D03*
X91186000Y-65024000D03*
X91186000Y-67564000D03*
X91186000Y-70104000D03*
X91186000Y-72644000D03*
X91186000Y-75184000D03*
X91186000Y-77724000D03*
X91186000Y-80264000D03*
X91186000Y-82804000D03*
X106426000Y-82804000D03*
X106426000Y-80264000D03*
X106426000Y-77724000D03*
X106426000Y-75184000D03*
X106426000Y-72644000D03*
X106426000Y-70104000D03*
X106426000Y-67564000D03*
X106426000Y-65024000D03*
X106426000Y-62484000D03*
X106426000Y-59944000D03*
X106426000Y-57404000D03*
X106426000Y-54864000D03*
%LPC*%
D24*
X188520000Y-60680000D03*
D25*
X180210000Y-58140000D03*
D26*
X189790000Y-58140000D03*
D25*
X189210000Y-58140000D03*
D24*
X182170000Y-63220000D03*
X187250000Y-63220000D03*
X180900000Y-60680001D03*
D26*
X179630000Y-58140000D03*
D27*
X184710000Y-58140000D03*
D28*
X187110000Y-53515000D03*
X187110000Y-51765000D03*
X182310000Y-51765000D03*
X182310000Y-53515000D03*
D29*
X191710000Y-60720000D03*
X179010000Y-63260000D03*
D25*
X161160000Y-58140000D03*
D24*
X161850000Y-60680001D03*
D25*
X170160000Y-58140000D03*
D26*
X160580000Y-58140000D03*
D24*
X169470000Y-60680000D03*
D26*
X170740000Y-58140000D03*
D27*
X165660000Y-58140000D03*
D24*
X168200000Y-63220000D03*
X163120000Y-63220000D03*
D28*
X168060000Y-53515000D03*
X168060000Y-51765000D03*
X163260000Y-51765000D03*
X163260000Y-53515000D03*
D29*
X172660000Y-60720000D03*
X159960000Y-63260000D03*
D26*
X189190000Y-77210000D03*
D24*
X190460000Y-79750001D03*
D27*
X194270000Y-77210000D03*
D25*
X198770000Y-77210000D03*
D24*
X198080000Y-79750000D03*
D25*
X189770000Y-77210000D03*
D24*
X191730000Y-82290000D03*
X196810000Y-82290000D03*
D26*
X199350000Y-77210000D03*
D28*
X196670000Y-72585000D03*
X196670000Y-70835000D03*
X191870000Y-70835000D03*
X191870000Y-72585000D03*
D29*
X201270000Y-79790000D03*
X188570000Y-82330000D03*
D30*
X176500000Y-57235000D03*
X176500000Y-53685000D03*
X217830000Y-77325000D03*
X217830000Y-73775000D03*
D26*
X123150000Y-77190000D03*
D24*
X120610000Y-82270000D03*
D25*
X113570000Y-77190000D03*
D27*
X118070000Y-77190000D03*
D24*
X121880000Y-79730000D03*
D26*
X112990000Y-77190000D03*
D25*
X122570000Y-77190000D03*
D24*
X115530000Y-82270000D03*
X114260000Y-79730001D03*
D28*
X120470000Y-72565000D03*
X120470000Y-70815000D03*
X115670000Y-70815000D03*
X115670000Y-72565000D03*
D29*
X125070000Y-79770000D03*
X112370000Y-82310000D03*
D30*
X100838000Y-114551000D03*
X100838000Y-111001000D03*
D31*
X163830000Y-69185000D03*
X163830000Y-67435000D03*
X168230000Y-67435000D03*
X168230000Y-69185000D03*
D30*
X167640000Y-76451000D03*
X167640000Y-72901000D03*
X124460000Y-133915000D03*
X124460000Y-130365000D03*
X129210000Y-76630000D03*
X129210000Y-73080000D03*
D24*
X166610000Y-117860001D03*
D26*
X175500000Y-115320000D03*
D24*
X167880000Y-120400000D03*
D27*
X170420000Y-115320000D03*
D26*
X165340000Y-115320000D03*
D24*
X172960000Y-120400000D03*
D25*
X174920000Y-115320000D03*
D24*
X174230000Y-117860000D03*
D25*
X165920000Y-115320000D03*
D28*
X172820000Y-110695000D03*
X172820000Y-108945000D03*
X168020000Y-108945000D03*
X168020000Y-110695000D03*
D29*
X177420000Y-117900000D03*
X164720000Y-120440000D03*
D24*
X240930000Y-98770000D03*
D27*
X237120000Y-96230000D03*
D25*
X241620000Y-96230000D03*
D24*
X234580000Y-101310000D03*
X239660000Y-101310000D03*
D26*
X232040000Y-96230000D03*
X242200000Y-96230000D03*
D25*
X232620000Y-96230000D03*
D24*
X233310000Y-98770001D03*
D28*
X239520000Y-91605000D03*
X239520000Y-89855000D03*
X234720000Y-89855000D03*
X234720000Y-91605000D03*
D29*
X244120000Y-98810000D03*
X231420000Y-101350000D03*
D26*
X208870000Y-134380000D03*
D24*
X201250000Y-139460000D03*
D25*
X199290000Y-134380000D03*
D24*
X199980000Y-136920001D03*
X206330000Y-139460000D03*
D25*
X208290000Y-134380000D03*
D26*
X198710000Y-134380000D03*
D24*
X207600000Y-136920000D03*
D27*
X203790000Y-134380000D03*
D28*
X206190000Y-129755000D03*
X206190000Y-128005000D03*
X201390000Y-128005000D03*
X201390000Y-129755000D03*
D29*
X210790000Y-136960000D03*
X198090000Y-139500000D03*
D24*
X139660000Y-82270000D03*
X140930000Y-79730000D03*
X134580000Y-82270000D03*
X133310000Y-79730001D03*
D27*
X137120000Y-77190000D03*
D25*
X141620000Y-77190000D03*
D26*
X142200000Y-77190000D03*
X132040000Y-77190000D03*
D25*
X132620000Y-77190000D03*
D28*
X139520000Y-72565000D03*
X139520000Y-70815000D03*
X134720000Y-70815000D03*
X134720000Y-72565000D03*
D29*
X144120000Y-79770000D03*
X131420000Y-82310000D03*
D31*
X207380000Y-70055000D03*
X207380000Y-68305000D03*
X211780000Y-68305000D03*
X211780000Y-70055000D03*
D32*
X97780000Y-137480000D03*
D26*
X212970000Y-96240000D03*
D27*
X218050000Y-96240000D03*
D24*
X214240000Y-98780001D03*
X215510000Y-101320000D03*
X221860000Y-98780000D03*
D26*
X223130000Y-96240000D03*
D25*
X222550000Y-96240000D03*
X213550000Y-96240000D03*
D24*
X220590000Y-101320000D03*
D28*
X220450000Y-91615000D03*
X220450000Y-89865000D03*
X215650000Y-89865000D03*
X215650000Y-91615000D03*
D29*
X225050000Y-98820000D03*
X212350000Y-101360000D03*
D33*
X96476000Y-82042000D03*
D34*
X100076000Y-82042000D03*
D26*
X165960000Y-96260000D03*
D24*
X158340000Y-101340000D03*
X164690000Y-98800000D03*
D25*
X165380000Y-96260000D03*
D24*
X163420000Y-101340000D03*
X157070000Y-98800001D03*
D25*
X156380000Y-96260000D03*
D26*
X155800000Y-96260000D03*
D27*
X160880000Y-96260000D03*
D28*
X163280000Y-91635000D03*
X163280000Y-89885000D03*
X158480000Y-89885000D03*
X158480000Y-91635000D03*
D29*
X167880000Y-98840000D03*
X155180000Y-101380000D03*
D30*
X138684000Y-57401000D03*
X138684000Y-53851000D03*
D32*
X112460000Y-51670000D03*
D26*
X122490000Y-58130000D03*
X132650000Y-58130000D03*
D24*
X123760000Y-60670001D03*
X130110000Y-63210000D03*
X131380000Y-60670000D03*
D25*
X132070000Y-58130000D03*
D24*
X125030000Y-63210000D03*
D25*
X123070000Y-58130000D03*
D27*
X127570000Y-58130000D03*
D28*
X129970000Y-53505000D03*
X129970000Y-51755000D03*
X125170000Y-51755000D03*
X125170000Y-53505000D03*
D29*
X134570000Y-60710000D03*
X121870000Y-63250000D03*
D30*
X157480000Y-57147000D03*
X157480000Y-53597000D03*
D26*
X165340000Y-134390000D03*
D27*
X170420000Y-134390000D03*
D24*
X166610000Y-136930001D03*
X174230000Y-136930000D03*
D26*
X175500000Y-134390000D03*
D24*
X172960000Y-139470000D03*
X167880000Y-139470000D03*
D25*
X165920000Y-134390000D03*
X174920000Y-134390000D03*
D28*
X172820000Y-129765000D03*
X172820000Y-128015000D03*
X168020000Y-128015000D03*
X168020000Y-129765000D03*
D29*
X177420000Y-136970000D03*
X164720000Y-139510000D03*
D30*
X115220000Y-95845000D03*
X115220000Y-92295000D03*
D35*
X90170000Y-93120000D03*
X90170000Y-86620000D03*
D30*
X215460000Y-58475000D03*
X215460000Y-54925000D03*
D24*
X150420000Y-60680000D03*
D27*
X146610000Y-58140000D03*
D24*
X144070000Y-63220000D03*
D26*
X151690000Y-58140000D03*
D25*
X151110000Y-58140000D03*
X142110000Y-58140000D03*
D24*
X149150000Y-63220000D03*
D26*
X141530000Y-58140000D03*
D24*
X142800000Y-60680001D03*
D28*
X149010000Y-53515000D03*
X149010000Y-51765000D03*
X144210000Y-51765000D03*
X144210000Y-53515000D03*
D29*
X153610000Y-60720000D03*
X140910000Y-63260000D03*
D27*
X122770000Y-96250000D03*
D26*
X117690000Y-96250000D03*
D24*
X125310000Y-101330000D03*
X126580000Y-98790000D03*
D25*
X127270000Y-96250000D03*
D24*
X120230000Y-101330000D03*
D26*
X127850000Y-96250000D03*
D24*
X118960000Y-98790001D03*
D25*
X118270000Y-96250000D03*
D28*
X125170000Y-91625000D03*
X125170000Y-89875000D03*
X120370000Y-89875000D03*
X120370000Y-91625000D03*
D29*
X129770000Y-98830000D03*
X117070000Y-101370000D03*
D26*
X137400000Y-134390000D03*
D27*
X132320000Y-134390000D03*
D25*
X136820000Y-134390000D03*
D24*
X134860000Y-139470000D03*
X128510000Y-136930001D03*
X136130000Y-136930000D03*
X129780000Y-139470000D03*
D26*
X127240000Y-134390000D03*
D25*
X127820000Y-134390000D03*
D28*
X134720000Y-129765000D03*
X134720000Y-128015000D03*
X129920000Y-128015000D03*
X129920000Y-129765000D03*
D29*
X139320000Y-136970000D03*
X126620000Y-139510000D03*
D30*
X224282000Y-133601000D03*
X224282000Y-130051000D03*
D24*
X228550000Y-136920001D03*
D25*
X227860000Y-134380000D03*
D24*
X236170000Y-136920000D03*
X234900000Y-139460000D03*
D26*
X227280000Y-134380000D03*
D25*
X236860000Y-134380000D03*
D24*
X229820000Y-139460000D03*
D26*
X237440000Y-134380000D03*
D27*
X232360000Y-134380000D03*
D28*
X234760000Y-129755000D03*
X234760000Y-128005000D03*
X229960000Y-128005000D03*
X229960000Y-129755000D03*
D29*
X239360000Y-136960000D03*
X226660000Y-139500000D03*
D24*
X195180000Y-98800001D03*
D25*
X194490000Y-96260000D03*
D27*
X198990000Y-96260000D03*
D26*
X193910000Y-96260000D03*
X204070000Y-96260000D03*
D24*
X201530000Y-101340000D03*
X196450000Y-101340000D03*
X202800000Y-98800000D03*
D25*
X203490000Y-96260000D03*
D28*
X201390000Y-91635000D03*
X201390000Y-89885000D03*
X196590000Y-89885000D03*
X196590000Y-91635000D03*
D29*
X205990000Y-98840000D03*
X193290000Y-101380000D03*
D25*
X113000000Y-115300000D03*
D26*
X103420000Y-115300000D03*
D24*
X112310000Y-117840000D03*
D27*
X108500000Y-115300000D03*
D24*
X111040000Y-120380000D03*
X104690000Y-117840001D03*
D26*
X113580000Y-115300000D03*
D24*
X105960000Y-120380000D03*
D25*
X104000000Y-115300000D03*
D28*
X110900000Y-110675000D03*
X110900000Y-108925000D03*
X106100000Y-108925000D03*
X106100000Y-110675000D03*
D29*
X115500000Y-117880000D03*
X102800000Y-120420000D03*
D30*
X119530000Y-57415000D03*
X119530000Y-53865000D03*
X186436000Y-76705000D03*
X186436000Y-73155000D03*
D36*
X89630000Y-100015000D03*
X96630000Y-100015000D03*
X89630000Y-98265000D03*
X96630000Y-98265000D03*
D37*
X98430000Y-96165000D03*
X98430000Y-102115000D03*
X94430000Y-96165000D03*
X94430000Y-102115000D03*
X91430000Y-102115000D03*
X91430000Y-96165000D03*
X99930000Y-100365000D03*
X99930000Y-97915000D03*
D26*
X127230000Y-115320000D03*
D24*
X128500000Y-117860001D03*
D25*
X136810000Y-115320000D03*
D26*
X137390000Y-115320000D03*
D24*
X136120000Y-117860000D03*
D27*
X132310000Y-115320000D03*
D24*
X129770000Y-120400000D03*
X134850000Y-120400000D03*
D25*
X127810000Y-115320000D03*
D28*
X134710000Y-110695000D03*
X134710000Y-108945000D03*
X129910000Y-108945000D03*
X129910000Y-110695000D03*
D29*
X139310000Y-117900000D03*
X126610000Y-120440000D03*
D30*
X210770000Y-96055000D03*
X210770000Y-92505000D03*
D24*
X155190000Y-117870000D03*
X153920000Y-120410000D03*
D25*
X155880000Y-115330000D03*
D27*
X151380000Y-115330000D03*
D24*
X148840000Y-120410000D03*
D26*
X146300000Y-115330000D03*
D24*
X147570000Y-117870001D03*
D26*
X156460000Y-115330000D03*
D25*
X146880000Y-115330000D03*
D28*
X153780000Y-110705000D03*
X153780000Y-108955000D03*
X148980000Y-108955000D03*
X148980000Y-110705000D03*
D29*
X158380000Y-117910000D03*
X145680000Y-120450000D03*
D27*
X208540000Y-115310000D03*
D26*
X213620000Y-115310000D03*
D25*
X213040000Y-115310000D03*
D24*
X212350000Y-117850000D03*
D26*
X203460000Y-115310000D03*
D24*
X211080000Y-120390000D03*
D25*
X204040000Y-115310000D03*
D24*
X204730000Y-117850001D03*
X206000000Y-120390000D03*
D28*
X210940000Y-110685000D03*
X210940000Y-108935000D03*
X206140000Y-108935000D03*
X206140000Y-110685000D03*
D29*
X215540000Y-117890000D03*
X202840000Y-120430000D03*
D24*
X221390000Y-79710001D03*
D25*
X229700000Y-77170000D03*
D26*
X220120000Y-77170000D03*
D24*
X229010000Y-79710000D03*
X222660000Y-82250000D03*
X227740000Y-82250000D03*
D25*
X220700000Y-77170000D03*
D27*
X225200000Y-77170000D03*
D26*
X230280000Y-77170000D03*
D28*
X227600000Y-72545000D03*
X227600000Y-70795000D03*
X222800000Y-70795000D03*
X222800000Y-72545000D03*
D29*
X232200000Y-79750000D03*
X219500000Y-82290000D03*
D31*
X216580000Y-131235000D03*
X216580000Y-129485000D03*
X220980000Y-129485000D03*
X220980000Y-131235000D03*
D30*
X153160000Y-95895000D03*
X153160000Y-92345000D03*
X109982000Y-76451000D03*
X109982000Y-72901000D03*
D25*
X227310000Y-58130000D03*
D24*
X226620000Y-60670000D03*
X220270000Y-63210000D03*
D27*
X222810000Y-58130000D03*
D26*
X227890000Y-58130000D03*
X217730000Y-58130000D03*
D24*
X225350000Y-63210000D03*
X219000000Y-60670001D03*
D25*
X218310000Y-58130000D03*
D28*
X225210000Y-53505000D03*
X225210000Y-51755000D03*
X220410000Y-51755000D03*
X220410000Y-53505000D03*
D29*
X229810000Y-60710000D03*
X217110000Y-63250000D03*
D30*
X196200000Y-134135000D03*
X196200000Y-130585000D03*
D38*
X94930000Y-87390000D03*
X97470000Y-87390000D03*
X100010000Y-87390000D03*
X102550000Y-87390000D03*
D30*
X229940000Y-96255000D03*
X229940000Y-92705000D03*
X182170000Y-115175000D03*
X182170000Y-111625000D03*
X191008000Y-95755000D03*
X191008000Y-92205000D03*
D32*
X184120000Y-136850000D03*
D26*
X208850000Y-58140000D03*
D24*
X206310000Y-63220000D03*
D25*
X199270000Y-58140000D03*
X208270000Y-58140000D03*
D24*
X199960000Y-60680001D03*
X201230000Y-63220000D03*
D27*
X203770000Y-58140000D03*
D24*
X207580000Y-60680000D03*
D26*
X198690000Y-58140000D03*
D28*
X206170000Y-53515000D03*
X206170000Y-51765000D03*
X201370000Y-51765000D03*
X201370000Y-53515000D03*
D29*
X210770000Y-60720000D03*
X198070000Y-63260000D03*
D26*
X180290000Y-77210000D03*
D24*
X171400000Y-79750001D03*
X172670000Y-82290000D03*
D25*
X170710000Y-77210000D03*
D27*
X175210000Y-77210000D03*
D25*
X179710000Y-77210000D03*
D26*
X170130000Y-77210000D03*
D24*
X177750000Y-82290000D03*
X179020000Y-79750000D03*
D28*
X177610000Y-72585000D03*
X177610000Y-70835000D03*
X172810000Y-70835000D03*
X172810000Y-72585000D03*
D29*
X182210000Y-79790000D03*
X169510000Y-82330000D03*
D31*
X149820000Y-130245000D03*
X149820000Y-128495000D03*
X154220000Y-128495000D03*
X154220000Y-130245000D03*
D30*
X195720000Y-57375000D03*
X195720000Y-53825000D03*
X162560000Y-114805000D03*
X162560000Y-111255000D03*
X171710000Y-95245000D03*
X171710000Y-91695000D03*
D22*
X91186000Y-54864000D03*
D23*
X91186000Y-57404000D03*
X91186000Y-59944000D03*
X91186000Y-62484000D03*
X91186000Y-65024000D03*
X91186000Y-67564000D03*
X91186000Y-70104000D03*
X91186000Y-72644000D03*
X91186000Y-75184000D03*
X91186000Y-77724000D03*
X91186000Y-80264000D03*
X91186000Y-82804000D03*
X106426000Y-82804000D03*
X106426000Y-80264000D03*
X106426000Y-77724000D03*
X106426000Y-75184000D03*
X106426000Y-72644000D03*
X106426000Y-70104000D03*
X106426000Y-67564000D03*
X106426000Y-65024000D03*
X106426000Y-62484000D03*
X106426000Y-59944000D03*
X106426000Y-57404000D03*
X106426000Y-54864000D03*
D31*
X114320000Y-130315000D03*
X114320000Y-128565000D03*
X118720000Y-128565000D03*
X118720000Y-130315000D03*
D25*
X137330000Y-96260000D03*
D24*
X144370000Y-101340000D03*
D26*
X146910000Y-96260000D03*
D24*
X138020000Y-98800001D03*
D27*
X141830000Y-96260000D03*
D24*
X145640000Y-98800000D03*
D25*
X146330000Y-96260000D03*
D26*
X136750000Y-96260000D03*
D24*
X139290000Y-101340000D03*
D28*
X144230000Y-91635000D03*
X144230000Y-89885000D03*
X139430000Y-89885000D03*
X139430000Y-91635000D03*
D29*
X148830000Y-98840000D03*
X136130000Y-101380000D03*
D31*
X111230000Y-61085000D03*
X111230000Y-59335000D03*
X115630000Y-59335000D03*
X115630000Y-61085000D03*
D30*
X148340000Y-76695000D03*
X148340000Y-73145000D03*
D24*
X186940000Y-120400000D03*
D25*
X184980000Y-115320000D03*
D24*
X192020000Y-120400000D03*
D26*
X184400000Y-115320000D03*
X194560000Y-115320000D03*
D24*
X193290000Y-117860000D03*
X185670000Y-117860001D03*
D25*
X193980000Y-115320000D03*
D27*
X189480000Y-115320000D03*
D28*
X191880000Y-110695000D03*
X191880000Y-108945000D03*
X187080000Y-108945000D03*
X187080000Y-110695000D03*
D29*
X196480000Y-117900000D03*
X183780000Y-120440000D03*
D25*
X227850000Y-115300000D03*
X236850000Y-115300000D03*
D24*
X234890000Y-120380000D03*
D27*
X232350000Y-115300000D03*
D24*
X229810000Y-120380000D03*
D26*
X227270000Y-115300000D03*
X237430000Y-115300000D03*
D24*
X236160000Y-117840000D03*
X228540000Y-117840001D03*
D28*
X234750000Y-110675000D03*
X234750000Y-108925000D03*
X229950000Y-108925000D03*
X229950000Y-110675000D03*
D29*
X239350000Y-117880000D03*
X226650000Y-120420000D03*
D39*
X98690000Y-48657500D03*
X95790000Y-48657500D03*
D30*
X124460000Y-114551000D03*
X124460000Y-111001000D03*
X134190000Y-95985000D03*
X134190000Y-92435000D03*
X200630000Y-114595000D03*
X200630000Y-111045000D03*
D24*
X159980000Y-79740000D03*
D26*
X161250000Y-77200000D03*
D24*
X158710000Y-82280000D03*
X153630000Y-82280000D03*
D25*
X151670000Y-77200000D03*
X160670000Y-77200000D03*
D24*
X152360000Y-79740001D03*
D27*
X156170000Y-77200000D03*
D26*
X151090000Y-77200000D03*
D28*
X158570000Y-72575000D03*
X158570000Y-70825000D03*
X153770000Y-70825000D03*
X153770000Y-72575000D03*
D29*
X163170000Y-79780000D03*
X150470000Y-82320000D03*
D30*
X143740000Y-114905000D03*
X143740000Y-111355000D03*
X224910000Y-115105000D03*
X224910000Y-111555000D03*
X162840000Y-134135000D03*
X162840000Y-130585000D03*
D27*
X179940000Y-96260000D03*
D24*
X182480000Y-101340000D03*
D25*
X184440000Y-96260000D03*
D24*
X183750000Y-98800000D03*
D26*
X185020000Y-96260000D03*
D24*
X177400000Y-101340000D03*
D25*
X175440000Y-96260000D03*
D24*
X176130000Y-98800001D03*
D26*
X174860000Y-96260000D03*
D28*
X182340000Y-91635000D03*
X182340000Y-89885000D03*
X177540000Y-89885000D03*
X177540000Y-91635000D03*
D29*
X186940000Y-98840000D03*
X174240000Y-101380000D03*
D32*
X241960000Y-66950000D03*
M02*
