M48
; DRILL file {KiCad (6.0.7)} date 2022年08月16日 星期二 06时35分42秒
; FORMAT={-:-/ absolute / metric / decimal}
; #@! TF.CreationDate,2022-08-16T06:35:42+00:00
; #@! TF.GenerationSoftware,Kicad,Pcbnew,(6.0.7)
; #@! TF.FileFunction,Plated,1,2,PTH
FMAT,2
METRIC
; #@! TA.AperFunction,Plated,PTH,ViaDrill
T1C0.100
; #@! TA.AperFunction,Plated,PTH,ViaDrill
T2C0.150
; #@! TA.AperFunction,Plated,PTH,ViaDrill
T3C0.200
; #@! TA.AperFunction,Plated,PTH,ViaDrill
T4C0.400
; #@! TA.AperFunction,Plated,PTH,ComponentDrill
T5C0.600
; #@! TA.AperFunction,Plated,PTH,ComponentDrill
T6C0.813
; #@! TA.AperFunction,Plated,PTH,ComponentDrill
T7C1.000
; #@! TA.AperFunction,Plated,PTH,ComponentDrill
T8C1.092
; #@! TA.AperFunction,Plated,PTH,ComponentDrill
T9C1.300
; #@! TA.AperFunction,Plated,PTH,ComponentDrill
T10C4.100
%
G90
G05
T1
X106.29Y-106.79
X109.27Y-78.48
X113.04Y-73.3
X113.45Y-58.03
X113.99Y-70.38
X120.94Y-128.28
X121.79Y-112.13
X122.35Y-72.8
X123.23Y-107.89
X124.02Y-105.86
X124.83Y-85.12
X125.86Y-67.61
X126.59Y-83.89
X128.07Y-127.45
X128.09Y-131.6
X130.52Y-103.24
X132.93Y-94.65
X133.04Y-104.74
X133.05Y-70.95
X133.11Y-54.35
X134.7Y-88.54
X137.82Y-90.81
X139.3Y-132.63
X142.12Y-54.71
X142.32Y-69.0
X142.62Y-52.07
X143.95Y-107.39
X145.14Y-127.77
X145.43Y-128.95
X147.32Y-109.16
X147.95Y-84.31
X149.67Y-68.64
X150.98Y-55.67
X153.32Y-69.51
X154.77Y-64.64
X156.4Y-129.19
X156.86Y-142.54
X158.5Y-87.76
X161.28Y-54.67
X161.4Y-134.57
X163.17Y-50.32
X164.24Y-86.69
X165.89Y-67.06
X166.27Y-83.97
X167.67Y-126.18
X167.75Y-107.21
X168.78Y-105.4
X169.45Y-101.25
X170.13Y-95.8
X171.6Y-55.98
X172.74Y-68.97
X172.83Y-92.57
X174.3Y-130.66
X175.45Y-51.64
X175.71Y-58.86
X178.43Y-124.56
X178.71Y-66.34
X179.41Y-116.61
X180.66Y-51.75
X181.7Y-113.7
X184.62Y-83.11
X185.43Y-86.63
X186.27Y-93.62
X187.12Y-106.98
X187.22Y-71.57
X189.48Y-68.35
X189.56Y-102.93
X192.96Y-142.54
X194.35Y-86.09
X195.35Y-135.58
X198.298Y-122.427
X199.3Y-73.48
X201.37Y-126.31
X206.06Y-107.27
X206.58Y-131.06
X207.76Y-105.27
X207.97Y-53.94
X208.91Y-102.31
X215.75Y-67.19
X215.76Y-87.84
X216.08Y-132.39
X218.65Y-52.12
X220.9Y-71.36
X220.92Y-126.28
X223.54Y-122.4
X224.3Y-125.78
X224.43Y-87.76
X226.36Y-130.71
X228.54Y-112.58
X229.13Y-105.06
X229.77Y-107.75
X230.94Y-72.06
X236.46Y-130.13
X239.01Y-113.32
X239.56Y-132.13
X246.43Y-107.44
T2
X93.81Y-75.83
X94.84Y-89.94
X97.43Y-77.57
X97.6Y-92.59
X98.22Y-72.81
X99.425Y-104.485
X100.56Y-72.67
X100.66Y-69.26
X101.084Y-77.593
X101.18Y-103.93
X101.32Y-88.74
X103.52Y-122.92
X106.85Y-87.04
X108.21Y-87.6
X112.37Y-84.49
X112.5Y-86.25
X113.27Y-107.02
X114.4Y-63.51
X114.9Y-65.04
X116.9Y-103.08
X118.112Y-64.118
X119.21Y-64.99
X120.45Y-107.19
X121.31Y-121.79
X121.9Y-117.15
X122.33Y-137.13
X123.072Y-129.227
X126.55Y-82.89
X127.62Y-72.8
X135.81Y-87.88
X135.97Y-84.22
X137.15Y-105.876
X140.34Y-75.29
X143.27Y-121.03
X145.65Y-70.8
X152.9Y-85.57
X152.96Y-87.94
X154.91Y-103.23
X157.48Y-107.17
X158.905Y-66.615
X160.49Y-70.12
X161.67Y-68.89
X164.15Y-83.55
X164.36Y-122.29
X165.19Y-130.3
X171.69Y-87.16
X172.38Y-101.13
X180.55Y-64.72
X180.67Y-67.09
X181.87Y-120.48
X182.63Y-71.37
X183.8Y-124.3
X184.14Y-110.15
X188.49Y-69.64
X188.85Y-83.86
X190.26Y-88.2
X193.74Y-105.72
X194.2Y-128.63
X197.74Y-64.92
X198.27Y-121.28
X207.94Y-85.89
X210.14Y-101.22
X215.23Y-65.28
X215.79Y-71.2
X215.95Y-125.6
X219.36Y-105.71
X220.09Y-108.75
X222.67Y-127.8
X222.729Y-129.217
X223.926Y-138.656
X228.91Y-103.08
X236.45Y-124.69
T3
X195.91Y-50.25
X222.1Y-88.78
T4
X102.87Y-60.91
X103.41Y-108.63
X113.34Y-68.37
X117.89Y-89.2
X122.6Y-128.31
X122.646Y-50.442
X127.17Y-107.81
X131.92Y-69.73
X136.43Y-88.77
X141.48Y-49.31
X146.38Y-107.76
X152.37Y-69.317
X155.38Y-88.36
X159.56Y-128.68
X160.42Y-50.88
X165.26Y-107.83
X170.09Y-71.44
X174.58Y-88.22
X179.95Y-50.25
X185.0Y-106.97
X189.81Y-71.83
X193.84Y-88.1
X198.4Y-127.29
X198.76Y-50.41
X203.52Y-107.51
X211.34Y-72.1
X212.26Y-88.49
X217.26Y-50.08
X226.74Y-108.16
X231.7Y-88.26
T5
X96.476Y-82.042
X100.076Y-82.042
T6
X94.93Y-87.39
X97.47Y-87.39
X100.01Y-87.39
X102.55Y-87.39
T8
X91.186Y-54.864
X91.186Y-57.404
X91.186Y-59.944
X91.186Y-62.484
X91.186Y-65.024
X91.186Y-67.564
X91.186Y-70.104
X91.186Y-72.644
X91.186Y-75.184
X91.186Y-77.724
X91.186Y-80.264
X91.186Y-82.804
X106.426Y-54.864
X106.426Y-57.404
X106.426Y-59.944
X106.426Y-62.484
X106.426Y-65.024
X106.426Y-67.564
X106.426Y-70.104
X106.426Y-72.644
X106.426Y-75.184
X106.426Y-77.724
X106.426Y-80.264
X106.426Y-82.804
T9
X90.17Y-86.62
X90.17Y-93.12
T10
X97.78Y-137.48
X112.46Y-51.67
X184.12Y-136.85
X241.96Y-66.95
T7
X91.18Y-96.165G85X91.68Y-96.165
G05
X91.18Y-102.115G85X91.68Y-102.115
G05
X94.18Y-96.165G85X94.68Y-96.165
G05
X94.18Y-102.115G85X94.68Y-102.115
G05
X98.18Y-96.165G85X98.68Y-96.165
G05
X98.18Y-102.115G85X98.68Y-102.115
G05
X99.68Y-97.915G85X100.18Y-97.915
G05
X99.68Y-100.365G85X100.18Y-100.365
G05
T0
M30
