M48
; DRILL file {KiCad (6.0.7)} date 2022年08月16日 星期二 06时35分42秒
; FORMAT={-:-/ absolute / metric / decimal}
; #@! TF.CreationDate,2022-08-16T06:35:42+00:00
; #@! TF.GenerationSoftware,Kicad,Pcbnew,(6.0.7)
; #@! TF.FileFunction,NonPlated,1,2,NPTH
FMAT,2
METRIC
; #@! TA.AperFunction,NonPlated,NPTH,ComponentDrill
T1C0.700
; #@! TA.AperFunction,NonPlated,NPTH,ComponentDrill
T2C1.200
; #@! TA.AperFunction,NonPlated,NPTH,ComponentDrill
T3C1.700
; #@! TA.AperFunction,NonPlated,NPTH,ComponentDrill
T4C1.900
; #@! TA.AperFunction,NonPlated,NPTH,ComponentDrill
T5C3.000
; #@! TA.AperFunction,NonPlated,NPTH,ComponentDrill
T6C4.100
%
G90
G05
T1
X95.79Y-48.657
X98.69Y-48.657
T2
X89.63Y-98.265
X89.63Y-100.015
X96.63Y-98.265
X96.63Y-100.015
T3
X104.0Y-115.3
X113.0Y-115.3
X113.57Y-77.19
X118.27Y-96.25
X122.57Y-77.19
X123.07Y-58.13
X127.27Y-96.25
X127.81Y-115.32
X127.82Y-134.39
X132.07Y-58.13
X132.62Y-77.19
X136.81Y-115.32
X136.82Y-134.39
X137.33Y-96.26
X141.62Y-77.19
X142.11Y-58.14
X146.33Y-96.26
X146.88Y-115.33
X151.11Y-58.14
X151.67Y-77.2
X155.88Y-115.33
X156.38Y-96.26
X160.67Y-77.2
X161.16Y-58.14
X165.38Y-96.26
X165.92Y-115.32
X165.92Y-134.39
X170.16Y-58.14
X170.71Y-77.21
X174.92Y-115.32
X174.92Y-134.39
X175.44Y-96.26
X179.71Y-77.21
X180.21Y-58.14
X184.44Y-96.26
X184.98Y-115.32
X189.21Y-58.14
X189.77Y-77.21
X193.98Y-115.32
X194.49Y-96.26
X198.77Y-77.21
X199.27Y-58.14
X199.29Y-134.38
X203.49Y-96.26
X204.04Y-115.31
X208.27Y-58.14
X208.29Y-134.38
X213.04Y-115.31
X213.55Y-96.24
X218.31Y-58.13
X220.7Y-77.17
X222.55Y-96.24
X227.31Y-58.13
X227.85Y-115.3
X227.86Y-134.38
X229.7Y-77.17
X232.62Y-96.23
X236.85Y-115.3
X236.86Y-134.38
X241.62Y-96.23
T4
X103.42Y-115.3
X112.99Y-77.19
X113.58Y-115.3
X117.69Y-96.25
X122.49Y-58.13
X123.15Y-77.19
X127.23Y-115.32
X127.24Y-134.39
X127.85Y-96.25
X132.04Y-77.19
X132.65Y-58.13
X136.75Y-96.26
X137.39Y-115.32
X137.4Y-134.39
X141.53Y-58.14
X142.2Y-77.19
X146.3Y-115.33
X146.91Y-96.26
X151.09Y-77.2
X151.69Y-58.14
X155.8Y-96.26
X156.46Y-115.33
X160.58Y-58.14
X161.25Y-77.2
X165.34Y-115.32
X165.34Y-134.39
X165.96Y-96.26
X170.13Y-77.21
X170.74Y-58.14
X174.86Y-96.26
X175.5Y-115.32
X175.5Y-134.39
X179.63Y-58.14
X180.29Y-77.21
X184.4Y-115.32
X185.02Y-96.26
X189.19Y-77.21
X189.79Y-58.14
X193.91Y-96.26
X194.56Y-115.32
X198.69Y-58.14
X198.71Y-134.38
X199.35Y-77.21
X203.46Y-115.31
X204.07Y-96.26
X208.85Y-58.14
X208.87Y-134.38
X212.97Y-96.24
X213.62Y-115.31
X217.73Y-58.13
X220.12Y-77.17
X223.13Y-96.24
X227.27Y-115.3
X227.28Y-134.38
X227.89Y-58.13
X230.28Y-77.17
X232.04Y-96.23
X237.43Y-115.3
X237.44Y-134.38
X242.2Y-96.23
T5
X104.69Y-117.84
X105.96Y-120.38
X111.04Y-120.38
X112.31Y-117.84
X114.26Y-79.73
X115.53Y-82.27
X118.96Y-98.79
X120.23Y-101.33
X120.61Y-82.27
X121.88Y-79.73
X123.76Y-60.67
X125.03Y-63.21
X125.31Y-101.33
X126.58Y-98.79
X128.5Y-117.86
X128.51Y-136.93
X129.77Y-120.4
X129.78Y-139.47
X130.11Y-63.21
X131.38Y-60.67
X133.31Y-79.73
X134.58Y-82.27
X134.85Y-120.4
X134.86Y-139.47
X136.12Y-117.86
X136.13Y-136.93
X138.02Y-98.8
X139.29Y-101.34
X139.66Y-82.27
X140.93Y-79.73
X142.8Y-60.68
X144.07Y-63.22
X144.37Y-101.34
X145.64Y-98.8
X147.57Y-117.87
X148.84Y-120.41
X149.15Y-63.22
X150.42Y-60.68
X152.36Y-79.74
X153.63Y-82.28
X153.92Y-120.41
X155.19Y-117.87
X157.07Y-98.8
X158.34Y-101.34
X158.71Y-82.28
X159.98Y-79.74
X161.85Y-60.68
X163.12Y-63.22
X163.42Y-101.34
X164.69Y-98.8
X166.61Y-117.86
X166.61Y-136.93
X167.88Y-120.4
X167.88Y-139.47
X168.2Y-63.22
X169.47Y-60.68
X171.4Y-79.75
X172.67Y-82.29
X172.96Y-120.4
X172.96Y-139.47
X174.23Y-117.86
X174.23Y-136.93
X176.13Y-98.8
X177.4Y-101.34
X177.75Y-82.29
X179.02Y-79.75
X180.9Y-60.68
X182.17Y-63.22
X182.48Y-101.34
X183.75Y-98.8
X185.67Y-117.86
X186.94Y-120.4
X187.25Y-63.22
X188.52Y-60.68
X190.46Y-79.75
X191.73Y-82.29
X192.02Y-120.4
X193.29Y-117.86
X195.18Y-98.8
X196.45Y-101.34
X196.81Y-82.29
X198.08Y-79.75
X199.96Y-60.68
X199.98Y-136.92
X201.23Y-63.22
X201.25Y-139.46
X201.53Y-101.34
X202.8Y-98.8
X204.73Y-117.85
X206.0Y-120.39
X206.31Y-63.22
X206.33Y-139.46
X207.58Y-60.68
X207.6Y-136.92
X211.08Y-120.39
X212.35Y-117.85
X214.24Y-98.78
X215.51Y-101.32
X219.0Y-60.67
X220.27Y-63.21
X220.59Y-101.32
X221.39Y-79.71
X221.86Y-98.78
X222.66Y-82.25
X225.35Y-63.21
X226.62Y-60.67
X227.74Y-82.25
X228.54Y-117.84
X228.55Y-136.92
X229.01Y-79.71
X229.81Y-120.38
X229.82Y-139.46
X233.31Y-98.77
X234.58Y-101.31
X234.89Y-120.38
X234.9Y-139.46
X236.16Y-117.84
X236.17Y-136.92
X239.66Y-101.31
X240.93Y-98.77
T6
X108.5Y-115.3
X118.07Y-77.19
X122.77Y-96.25
X127.57Y-58.13
X132.31Y-115.32
X132.32Y-134.39
X137.12Y-77.19
X141.83Y-96.26
X146.61Y-58.14
X151.38Y-115.33
X156.17Y-77.2
X160.88Y-96.26
X165.66Y-58.14
X170.42Y-115.32
X170.42Y-134.39
X175.21Y-77.21
X179.94Y-96.26
X184.71Y-58.14
X189.48Y-115.32
X194.27Y-77.21
X198.99Y-96.26
X203.77Y-58.14
X203.79Y-134.38
X208.54Y-115.31
X218.05Y-96.24
X222.81Y-58.13
X225.2Y-77.17
X232.35Y-115.3
X232.36Y-134.38
X237.12Y-96.23
T0
M30
