G04 #@! TF.GenerationSoftware,KiCad,Pcbnew,(6.0.7)*
G04 #@! TF.CreationDate,2022-08-16T06:35:40+00:00*
G04 #@! TF.ProjectId,zzsplit-right,7a7a7370-6c69-4742-9d72-696768742e6b,rev?*
G04 #@! TF.SameCoordinates,Original*
G04 #@! TF.FileFunction,Paste,Bot*
G04 #@! TF.FilePolarity,Positive*
%FSLAX46Y46*%
G04 Gerber Fmt 4.6, Leading zero omitted, Abs format (unit mm)*
G04 Created by KiCad (PCBNEW (6.0.7)) date 2022-08-16 06:35:40*
%MOMM*%
%LPD*%
G01*
G04 APERTURE LIST*
G04 #@! TA.AperFunction,Profile*
%ADD10C,0.150000*%
G04 #@! TD*
G04 #@! TA.AperFunction,Profile*
%ADD11C,0.100000*%
G04 #@! TD*
%ADD12R,1.600000X1.000000*%
%ADD13R,2.300000X2.000000*%
%ADD14R,0.950000X1.300000*%
%ADD15R,2.000000X1.000000*%
G04 APERTURE END LIST*
D10*
X130560000Y-126630000D02*
X134060000Y-126630000D01*
X134060000Y-112070000D02*
X130560000Y-112070000D01*
X168670000Y-126640000D02*
X172170000Y-126640000D01*
D11*
X87924000Y-49490000D02*
X87964000Y-143250000D01*
D10*
X129320000Y-50370000D02*
X129320000Y-54870000D01*
X205540000Y-126630000D02*
X205540000Y-131130000D01*
D11*
X246333920Y-145889980D02*
X90464000Y-145750000D01*
D10*
X173460000Y-69460000D02*
X176960000Y-69460000D01*
X119820000Y-73940000D02*
X116320000Y-73940000D01*
X210290000Y-112060000D02*
X206790000Y-112060000D01*
X167410000Y-54890000D02*
X163910000Y-54890000D01*
X172170000Y-112070000D02*
X168670000Y-112070000D01*
X192520000Y-73960000D02*
X192520000Y-69460000D01*
X106750000Y-112050000D02*
X106750000Y-107550000D01*
X172170000Y-131140000D02*
X168670000Y-131140000D01*
X205520000Y-50390000D02*
X205520000Y-54890000D01*
X168670000Y-107570000D02*
X172170000Y-107570000D01*
X172170000Y-126640000D02*
X172170000Y-131140000D01*
X196020000Y-73960000D02*
X192520000Y-73960000D01*
X181690000Y-88510000D02*
X181690000Y-93010000D01*
X153130000Y-107580000D02*
X153130000Y-112080000D01*
X202020000Y-54890000D02*
X202020000Y-50390000D01*
X124520000Y-93000000D02*
X121020000Y-93000000D01*
X178190000Y-93010000D02*
X178190000Y-88510000D01*
D11*
X90424000Y-46990000D02*
G75*
G03*
X87924000Y-49490000I0J-2500000D01*
G01*
D10*
X219800000Y-92990000D02*
X216300000Y-92990000D01*
X202020000Y-50390000D02*
X205520000Y-50390000D01*
X134060000Y-107570000D02*
X134060000Y-112070000D01*
X130560000Y-107570000D02*
X134060000Y-107570000D01*
X149630000Y-107580000D02*
X153130000Y-107580000D01*
X226950000Y-73910000D02*
X223450000Y-73910000D01*
D11*
X246333920Y-145889980D02*
G75*
G03*
X248854000Y-143380000I10080J2509980D01*
G01*
D10*
X202040000Y-131130000D02*
X202040000Y-126630000D01*
X234110000Y-126630000D02*
X234110000Y-131130000D01*
X221060000Y-50370000D02*
X224560000Y-50370000D01*
X235370000Y-92980000D02*
X235370000Y-88480000D01*
X143580000Y-93010000D02*
X140080000Y-93010000D01*
D11*
X248824019Y-49520000D02*
X248854000Y-143380000D01*
D10*
X138870000Y-69440000D02*
X138870000Y-73940000D01*
X238870000Y-88480000D02*
X238870000Y-92980000D01*
X202040000Y-126630000D02*
X205540000Y-126630000D01*
X138870000Y-73940000D02*
X135370000Y-73940000D01*
X124520000Y-88500000D02*
X124520000Y-93000000D01*
X230610000Y-126630000D02*
X234110000Y-126630000D01*
X129320000Y-54870000D02*
X125820000Y-54870000D01*
X197240000Y-88510000D02*
X200740000Y-88510000D01*
X238870000Y-92980000D02*
X235370000Y-92980000D01*
X230600000Y-107550000D02*
X234100000Y-107550000D01*
X162630000Y-93010000D02*
X159130000Y-93010000D01*
X182960000Y-54890000D02*
X182960000Y-50390000D01*
X187730000Y-112070000D02*
X187730000Y-107570000D01*
X192520000Y-69460000D02*
X196020000Y-69460000D01*
X157920000Y-73950000D02*
X154420000Y-73950000D01*
X140080000Y-88510000D02*
X143580000Y-88510000D01*
X224560000Y-54870000D02*
X221060000Y-54870000D01*
X186460000Y-54890000D02*
X182960000Y-54890000D01*
X178190000Y-88510000D02*
X181690000Y-88510000D01*
X216300000Y-92990000D02*
X216300000Y-88490000D01*
X163910000Y-50390000D02*
X167410000Y-50390000D01*
X230610000Y-131130000D02*
X230610000Y-126630000D01*
X154420000Y-69450000D02*
X157920000Y-69450000D01*
X168670000Y-131140000D02*
X168670000Y-126640000D01*
X210290000Y-107560000D02*
X210290000Y-112060000D01*
X140080000Y-93010000D02*
X140080000Y-88510000D01*
X121020000Y-93000000D02*
X121020000Y-88500000D01*
X172170000Y-107570000D02*
X172170000Y-112070000D01*
X167410000Y-50390000D02*
X167410000Y-54890000D01*
X168670000Y-112070000D02*
X168670000Y-107570000D01*
X134060000Y-131130000D02*
X130560000Y-131130000D01*
X121020000Y-88500000D02*
X124520000Y-88500000D01*
X159130000Y-93010000D02*
X159130000Y-88510000D01*
X119820000Y-69440000D02*
X119820000Y-73940000D01*
X159130000Y-88510000D02*
X162630000Y-88510000D01*
X234110000Y-131130000D02*
X230610000Y-131130000D01*
X143580000Y-88510000D02*
X143580000Y-93010000D01*
X219800000Y-88490000D02*
X219800000Y-92990000D01*
X191230000Y-107570000D02*
X191230000Y-112070000D01*
X116320000Y-73940000D02*
X116320000Y-69440000D01*
X110250000Y-112050000D02*
X106750000Y-112050000D01*
X144860000Y-50390000D02*
X148360000Y-50390000D01*
X224560000Y-50370000D02*
X224560000Y-54870000D01*
X176960000Y-73960000D02*
X173460000Y-73960000D01*
X197240000Y-93010000D02*
X197240000Y-88510000D01*
D11*
X87964000Y-143250000D02*
G75*
G03*
X90464000Y-145750000I2500000J0D01*
G01*
D10*
X148360000Y-50390000D02*
X148360000Y-54890000D01*
X226950000Y-69410000D02*
X226950000Y-73910000D01*
X130560000Y-112070000D02*
X130560000Y-107570000D01*
X223450000Y-73910000D02*
X223450000Y-69410000D01*
X106750000Y-107550000D02*
X110250000Y-107550000D01*
X135370000Y-73940000D02*
X135370000Y-69440000D01*
X176960000Y-69460000D02*
X176960000Y-73960000D01*
X205540000Y-131130000D02*
X202040000Y-131130000D01*
X116320000Y-69440000D02*
X119820000Y-69440000D01*
X200740000Y-88510000D02*
X200740000Y-93010000D01*
X196020000Y-69460000D02*
X196020000Y-73960000D01*
X206790000Y-112060000D02*
X206790000Y-107560000D01*
X234100000Y-112050000D02*
X230600000Y-112050000D01*
X181690000Y-93010000D02*
X178190000Y-93010000D01*
X191230000Y-112070000D02*
X187730000Y-112070000D01*
X187730000Y-107570000D02*
X191230000Y-107570000D01*
X200740000Y-93010000D02*
X197240000Y-93010000D01*
X235370000Y-88480000D02*
X238870000Y-88480000D01*
X148360000Y-54890000D02*
X144860000Y-54890000D01*
X134060000Y-126630000D02*
X134060000Y-131130000D01*
X153130000Y-112080000D02*
X149630000Y-112080000D01*
X154420000Y-73950000D02*
X154420000Y-69450000D01*
X162630000Y-88510000D02*
X162630000Y-93010000D01*
X221060000Y-54870000D02*
X221060000Y-50370000D01*
X186460000Y-50390000D02*
X186460000Y-54890000D01*
X110250000Y-107550000D02*
X110250000Y-112050000D01*
X206790000Y-107560000D02*
X210290000Y-107560000D01*
X135370000Y-69440000D02*
X138870000Y-69440000D01*
X163910000Y-54890000D02*
X163910000Y-50390000D01*
X125820000Y-50370000D02*
X129320000Y-50370000D01*
X149630000Y-112080000D02*
X149630000Y-107580000D01*
X157920000Y-69450000D02*
X157920000Y-73950000D01*
D11*
X248824019Y-49520000D02*
G75*
G03*
X246334000Y-47020001I-2500019J0D01*
G01*
D10*
X234100000Y-107550000D02*
X234100000Y-112050000D01*
X230600000Y-112050000D02*
X230600000Y-107550000D01*
X173460000Y-73960000D02*
X173460000Y-69460000D01*
X144860000Y-54890000D02*
X144860000Y-50390000D01*
X130560000Y-131130000D02*
X130560000Y-126630000D01*
X223450000Y-69410000D02*
X226950000Y-69410000D01*
X182960000Y-50390000D02*
X186460000Y-50390000D01*
D11*
X90424000Y-46990000D02*
X246334000Y-47020001D01*
D10*
X125820000Y-54870000D02*
X125820000Y-50370000D01*
X205520000Y-54890000D02*
X202020000Y-54890000D01*
X216300000Y-88490000D02*
X219800000Y-88490000D01*
D12*
X187110000Y-53515000D03*
X187110000Y-51765000D03*
X182310000Y-51765000D03*
X182310000Y-53515000D03*
D13*
X191710000Y-60720000D03*
X179010000Y-63260000D03*
D12*
X168060000Y-53515000D03*
X168060000Y-51765000D03*
X163260000Y-51765000D03*
X163260000Y-53515000D03*
D13*
X172660000Y-60720000D03*
X159960000Y-63260000D03*
D12*
X196670000Y-72585000D03*
X196670000Y-70835000D03*
X191870000Y-70835000D03*
X191870000Y-72585000D03*
D13*
X201270000Y-79790000D03*
X188570000Y-82330000D03*
D14*
X176500000Y-57235000D03*
X176500000Y-53685000D03*
X217830000Y-77325000D03*
X217830000Y-73775000D03*
D12*
X120470000Y-72565000D03*
X120470000Y-70815000D03*
X115670000Y-70815000D03*
X115670000Y-72565000D03*
D13*
X125070000Y-79770000D03*
X112370000Y-82310000D03*
D14*
X100838000Y-114551000D03*
X100838000Y-111001000D03*
D15*
X163830000Y-69185000D03*
X163830000Y-67435000D03*
X168230000Y-67435000D03*
X168230000Y-69185000D03*
D14*
X167640000Y-76451000D03*
X167640000Y-72901000D03*
X124460000Y-133915000D03*
X124460000Y-130365000D03*
X129210000Y-76630000D03*
X129210000Y-73080000D03*
D12*
X172820000Y-110695000D03*
X172820000Y-108945000D03*
X168020000Y-108945000D03*
X168020000Y-110695000D03*
D13*
X177420000Y-117900000D03*
X164720000Y-120440000D03*
D12*
X239520000Y-91605000D03*
X239520000Y-89855000D03*
X234720000Y-89855000D03*
X234720000Y-91605000D03*
D13*
X244120000Y-98810000D03*
X231420000Y-101350000D03*
D12*
X206190000Y-129755000D03*
X206190000Y-128005000D03*
X201390000Y-128005000D03*
X201390000Y-129755000D03*
D13*
X210790000Y-136960000D03*
X198090000Y-139500000D03*
D12*
X139520000Y-72565000D03*
X139520000Y-70815000D03*
X134720000Y-70815000D03*
X134720000Y-72565000D03*
D13*
X144120000Y-79770000D03*
X131420000Y-82310000D03*
D15*
X207380000Y-70055000D03*
X207380000Y-68305000D03*
X211780000Y-68305000D03*
X211780000Y-70055000D03*
D12*
X220450000Y-91615000D03*
X220450000Y-89865000D03*
X215650000Y-89865000D03*
X215650000Y-91615000D03*
D13*
X225050000Y-98820000D03*
X212350000Y-101360000D03*
D12*
X163280000Y-91635000D03*
X163280000Y-89885000D03*
X158480000Y-89885000D03*
X158480000Y-91635000D03*
D13*
X167880000Y-98840000D03*
X155180000Y-101380000D03*
D14*
X138684000Y-57401000D03*
X138684000Y-53851000D03*
D12*
X129970000Y-53505000D03*
X129970000Y-51755000D03*
X125170000Y-51755000D03*
X125170000Y-53505000D03*
D13*
X134570000Y-60710000D03*
X121870000Y-63250000D03*
D14*
X157480000Y-57147000D03*
X157480000Y-53597000D03*
D12*
X172820000Y-129765000D03*
X172820000Y-128015000D03*
X168020000Y-128015000D03*
X168020000Y-129765000D03*
D13*
X177420000Y-136970000D03*
X164720000Y-139510000D03*
D14*
X115220000Y-95845000D03*
X115220000Y-92295000D03*
X215460000Y-58475000D03*
X215460000Y-54925000D03*
D12*
X149010000Y-53515000D03*
X149010000Y-51765000D03*
X144210000Y-51765000D03*
X144210000Y-53515000D03*
D13*
X153610000Y-60720000D03*
X140910000Y-63260000D03*
D12*
X125170000Y-91625000D03*
X125170000Y-89875000D03*
X120370000Y-89875000D03*
X120370000Y-91625000D03*
D13*
X129770000Y-98830000D03*
X117070000Y-101370000D03*
D12*
X134720000Y-129765000D03*
X134720000Y-128015000D03*
X129920000Y-128015000D03*
X129920000Y-129765000D03*
D13*
X139320000Y-136970000D03*
X126620000Y-139510000D03*
D14*
X224282000Y-133601000D03*
X224282000Y-130051000D03*
D12*
X234760000Y-129755000D03*
X234760000Y-128005000D03*
X229960000Y-128005000D03*
X229960000Y-129755000D03*
D13*
X239360000Y-136960000D03*
X226660000Y-139500000D03*
D12*
X201390000Y-91635000D03*
X201390000Y-89885000D03*
X196590000Y-89885000D03*
X196590000Y-91635000D03*
D13*
X205990000Y-98840000D03*
X193290000Y-101380000D03*
D12*
X110900000Y-110675000D03*
X110900000Y-108925000D03*
X106100000Y-108925000D03*
X106100000Y-110675000D03*
D13*
X115500000Y-117880000D03*
X102800000Y-120420000D03*
D14*
X119530000Y-57415000D03*
X119530000Y-53865000D03*
X186436000Y-76705000D03*
X186436000Y-73155000D03*
D12*
X134710000Y-110695000D03*
X134710000Y-108945000D03*
X129910000Y-108945000D03*
X129910000Y-110695000D03*
D13*
X139310000Y-117900000D03*
X126610000Y-120440000D03*
D14*
X210770000Y-96055000D03*
X210770000Y-92505000D03*
D12*
X153780000Y-110705000D03*
X153780000Y-108955000D03*
X148980000Y-108955000D03*
X148980000Y-110705000D03*
D13*
X158380000Y-117910000D03*
X145680000Y-120450000D03*
D12*
X210940000Y-110685000D03*
X210940000Y-108935000D03*
X206140000Y-108935000D03*
X206140000Y-110685000D03*
D13*
X215540000Y-117890000D03*
X202840000Y-120430000D03*
D12*
X227600000Y-72545000D03*
X227600000Y-70795000D03*
X222800000Y-70795000D03*
X222800000Y-72545000D03*
D13*
X232200000Y-79750000D03*
X219500000Y-82290000D03*
D15*
X216580000Y-131235000D03*
X216580000Y-129485000D03*
X220980000Y-129485000D03*
X220980000Y-131235000D03*
D14*
X153160000Y-95895000D03*
X153160000Y-92345000D03*
X109982000Y-76451000D03*
X109982000Y-72901000D03*
D12*
X225210000Y-53505000D03*
X225210000Y-51755000D03*
X220410000Y-51755000D03*
X220410000Y-53505000D03*
D13*
X229810000Y-60710000D03*
X217110000Y-63250000D03*
D14*
X196200000Y-134135000D03*
X196200000Y-130585000D03*
X229940000Y-96255000D03*
X229940000Y-92705000D03*
X182170000Y-115175000D03*
X182170000Y-111625000D03*
X191008000Y-95755000D03*
X191008000Y-92205000D03*
D12*
X206170000Y-53515000D03*
X206170000Y-51765000D03*
X201370000Y-51765000D03*
X201370000Y-53515000D03*
D13*
X210770000Y-60720000D03*
X198070000Y-63260000D03*
D12*
X177610000Y-72585000D03*
X177610000Y-70835000D03*
X172810000Y-70835000D03*
X172810000Y-72585000D03*
D13*
X182210000Y-79790000D03*
X169510000Y-82330000D03*
D15*
X149820000Y-130245000D03*
X149820000Y-128495000D03*
X154220000Y-128495000D03*
X154220000Y-130245000D03*
D14*
X195720000Y-57375000D03*
X195720000Y-53825000D03*
X162560000Y-114805000D03*
X162560000Y-111255000D03*
X171710000Y-95245000D03*
X171710000Y-91695000D03*
D15*
X114320000Y-130315000D03*
X114320000Y-128565000D03*
X118720000Y-128565000D03*
X118720000Y-130315000D03*
D12*
X144230000Y-91635000D03*
X144230000Y-89885000D03*
X139430000Y-89885000D03*
X139430000Y-91635000D03*
D13*
X148830000Y-98840000D03*
X136130000Y-101380000D03*
D15*
X111230000Y-61085000D03*
X111230000Y-59335000D03*
X115630000Y-59335000D03*
X115630000Y-61085000D03*
D14*
X148340000Y-76695000D03*
X148340000Y-73145000D03*
D12*
X191880000Y-110695000D03*
X191880000Y-108945000D03*
X187080000Y-108945000D03*
X187080000Y-110695000D03*
D13*
X196480000Y-117900000D03*
X183780000Y-120440000D03*
D12*
X234750000Y-110675000D03*
X234750000Y-108925000D03*
X229950000Y-108925000D03*
X229950000Y-110675000D03*
D13*
X239350000Y-117880000D03*
X226650000Y-120420000D03*
D14*
X124460000Y-114551000D03*
X124460000Y-111001000D03*
X134190000Y-95985000D03*
X134190000Y-92435000D03*
X200630000Y-114595000D03*
X200630000Y-111045000D03*
D12*
X158570000Y-72575000D03*
X158570000Y-70825000D03*
X153770000Y-70825000D03*
X153770000Y-72575000D03*
D13*
X163170000Y-79780000D03*
X150470000Y-82320000D03*
D14*
X143740000Y-114905000D03*
X143740000Y-111355000D03*
X224910000Y-115105000D03*
X224910000Y-111555000D03*
X162840000Y-134135000D03*
X162840000Y-130585000D03*
D12*
X182340000Y-91635000D03*
X182340000Y-89885000D03*
X177540000Y-89885000D03*
X177540000Y-91635000D03*
D13*
X186940000Y-98840000D03*
X174240000Y-101380000D03*
M02*
