M48
; DRILL file {KiCad (6.0.7)} date 2022年08月06日 星期六 08时27分35秒
; FORMAT={-:-/ absolute / metric / decimal}
; #@! TF.CreationDate,2022-08-06T08:27:35+00:00
; #@! TF.GenerationSoftware,Kicad,Pcbnew,(6.0.7)
; #@! TF.FileFunction,Plated,1,2,PTH
FMAT,2
METRIC
; #@! TA.AperFunction,Plated,PTH,ViaDrill
T1C0.400
; #@! TA.AperFunction,Plated,PTH,ComponentDrill
T2C0.600
; #@! TA.AperFunction,Plated,PTH,ComponentDrill
T3C0.813
; #@! TA.AperFunction,Plated,PTH,ComponentDrill
T4C1.000
; #@! TA.AperFunction,Plated,PTH,ComponentDrill
T5C1.092
; #@! TA.AperFunction,Plated,PTH,ComponentDrill
T6C1.300
; #@! TA.AperFunction,Plated,PTH,ComponentDrill
T7C1.550
; #@! TA.AperFunction,Plated,PTH,ComponentDrill
T8C4.100
%
G90
G05
T1
X88.72Y-67.52
X95.35Y-70.48
X103.19Y-62.36
X107.91Y-123.66
X108.09Y-103.99
X108.39Y-86.74
X109.97Y-85.23
X111.92Y-87.36
X112.51Y-56.33
X113.13Y-65.41
X113.3Y-109.52
X113.38Y-104.47
X113.65Y-71.64
X113.93Y-62.64
X114.01Y-69.78
X115.64Y-65.6
X116.27Y-109.19
X116.933Y-63.589
X116.94Y-50.14
X117.051Y-66.165
X118.6Y-65.73
X118.77Y-91.62
X119.13Y-126.92
X120.16Y-87.9
X120.62Y-127.72
X121.37Y-108.01
X121.43Y-126.0
X122.33Y-51.73
X122.8Y-103.32
X122.96Y-71.72
X123.45Y-123.49
X125.23Y-122.34
X126.57Y-84.1
X127.058Y-107.425
X127.36Y-70.78
X127.46Y-64.73
X127.64Y-90.76
X127.7Y-84.32
X127.985Y-125.665
X128.0Y-128.79
X128.47Y-85.26
X129.31Y-83.85
X131.41Y-89.54
X131.44Y-102.69
X131.76Y-72.69
X131.82Y-52.49
X132.08Y-54.56
X132.84Y-72.19
X132.89Y-104.39
X134.14Y-65.1
X134.37Y-103.08
X134.52Y-87.23
X134.7Y-54.95
X136.87Y-66.2
X137.12Y-109.77
X137.35Y-64.41
X137.66Y-128.99
X137.93Y-50.56
X138.46Y-65.195
X138.603Y-63.247
X140.12Y-129.79
X140.92Y-121.95
X141.41Y-71.47
X141.71Y-53.83
X142.59Y-123.08
X142.76Y-72.78
X143.55Y-134.97
X143.77Y-121.55
X144.68Y-84.08
X145.27Y-107.68
X145.97Y-135.74
X146.1Y-70.35
X146.15Y-129.14
X146.32Y-110.81
X146.49Y-91.11
X147.16Y-85.13
X147.37Y-130.45
X147.64Y-90.63
X148.3Y-83.34
X150.62Y-102.81
X151.26Y-52.77
X151.43Y-72.21
X151.72Y-104.34
X152.62Y-69.11
X153.04Y-102.76
X156.404Y-109.894
X156.48Y-129.08
X156.63Y-125.38
X156.99Y-65.78
X157.26Y-88.1
X157.54Y-110.18
X158.1Y-64.23
X158.16Y-68.75
X158.86Y-107.67
X159.96Y-66.06
X160.1Y-51.17
X160.18Y-126.41
X161.17Y-71.91
X161.59Y-123.54
X162.15Y-73.28
X162.41Y-140.1
X162.86Y-122.12
X163.945Y-71.915
X164.53Y-127.39
X164.77Y-87.23
X164.84Y-70.96
X165.18Y-125.36
X165.43Y-72.75
X165.45Y-90.92
X165.6Y-92.63
X165.85Y-127.9
X166.04Y-70.14
X166.31Y-84.97
X166.55Y-107.27
X167.43Y-83.41
X169.4Y-106.38
X170.54Y-54.81
X170.554Y-52.76
X170.79Y-104.59
X170.89Y-72.08
X172.87Y-103.67
X174.12Y-63.68
X175.43Y-129.06
X175.68Y-65.49
X175.77Y-111.72
X175.771Y-109.695
X175.945Y-90.845
X176.87Y-64.11
X179.14Y-53.4
X180.61Y-123.0
X180.68Y-71.85
X181.45Y-106.96
X181.81Y-121.11
X182.42Y-73.02
X183.44Y-68.07
X183.89Y-83.84
X184.44Y-64.18
X184.82Y-90.72
X185.34Y-84.94
X186.105Y-91.515
X186.73Y-83.15
X187.64Y-86.85
X188.25Y-103.48
X188.73Y-88.12
X189.53Y-71.59
X189.54Y-52.49
X189.99Y-105.26
X191.19Y-103.68
X192.29Y-67.78
X192.91Y-138.15
X193.47Y-126.31
X194.24Y-109.68
X194.86Y-91.65
X195.04Y-65.76
X195.43Y-111.02
X196.06Y-64.24
X197.267Y-106.97
X197.43Y-51.25
X198.26Y-121.22
X198.27Y-127.19
X199.36Y-71.96
X199.54Y-123.84
X200.747Y-122.319
X202.53Y-85.89
X203.89Y-90.88
X204.47Y-107.38
X205.3Y-82.07
X206.949Y-94.533
X208.84Y-105.12
X208.92Y-54.67
X209.09Y-52.66
X209.27Y-128.61
X210.61Y-129.61
X211.83Y-72.18
X211.88Y-90.96
X212.09Y-106.89
X213.23Y-104.32
X213.72Y-110.16
X214.02Y-65.76
X214.36Y-48.48
X214.56Y-67.76
X215.79Y-72.45
X216.11Y-84.94
X217.82Y-53.02
X217.85Y-112.97
X218.77Y-66.85
X219.99Y-138.45
X220.64Y-72.23
X220.89Y-85.53
X220.95Y-133.52
X221.4Y-126.95
X222.06Y-136.6
X223.13Y-123.49
X223.14Y-90.82
X225.13Y-93.35
X225.279Y-126.342
X225.62Y-108.68
X226.3Y-123.32
X227.877Y-105.151
X228.01Y-52.77
X228.04Y-108.67
X229.68Y-103.67
X229.91Y-71.45
X236.86Y-128.99
X236.98Y-109.47
X238.35Y-127.08
X241.95Y-90.67
X244.74Y-92.51
T2
X96.476Y-82.042
X100.076Y-82.042
T3
X94.93Y-87.39
X97.47Y-87.39
X100.01Y-87.39
X102.55Y-87.39
T5
X91.186Y-54.864
X91.186Y-57.404
X91.186Y-59.944
X91.186Y-62.484
X91.186Y-65.024
X91.186Y-67.564
X91.186Y-70.104
X91.186Y-72.644
X91.186Y-75.184
X91.186Y-77.724
X91.186Y-80.264
X91.186Y-82.804
X106.426Y-54.864
X106.426Y-57.404
X106.426Y-59.944
X106.426Y-62.484
X106.426Y-65.024
X106.426Y-67.564
X106.426Y-70.104
X106.426Y-72.644
X106.426Y-75.184
X106.426Y-77.724
X106.426Y-80.264
X106.426Y-82.804
T6
X90.17Y-86.62
X90.17Y-93.12
T7
X94.54Y-51.308
X99.34Y-51.308
X104.14Y-51.308
T8
X97.78Y-137.48
X112.46Y-51.67
X184.12Y-136.85
X241.96Y-66.95
T4
X91.18Y-96.165G85X91.68Y-96.165
G05
X91.18Y-102.115G85X91.68Y-102.115
G05
X94.18Y-96.165G85X94.68Y-96.165
G05
X94.18Y-102.115G85X94.68Y-102.115
G05
X98.18Y-96.165G85X98.68Y-96.165
G05
X98.18Y-102.115G85X98.68Y-102.115
G05
X99.68Y-97.915G85X100.18Y-97.915
G05
X99.68Y-100.365G85X100.18Y-100.365
G05
T0
M30
