%TF.GenerationSoftware,KiCad,Pcbnew,(6.0.7)*%
%TF.CreationDate,2022-08-16T18:04:40+00:00*%
%TF.ProjectId,top-right,746f702d-7269-4676-9874-2e6b69636164,rev?*%
%TF.SameCoordinates,Original*%
%TF.FileFunction,Profile,NP*%
%FSLAX46Y46*%
G04 Gerber Fmt 4.6, Leading zero omitted, Abs format (unit mm)*
G04 Created by KiCad (PCBNEW (6.0.7)) date 2022-08-16 18:04:40*
%MOMM*%
%LPD*%
G01*
G04 APERTURE LIST*
%TA.AperFunction,Profile*%
%ADD10C,0.150000*%
%TD*%
%TA.AperFunction,Profile*%
%ADD11C,0.100000*%
%TD*%
G04 APERTURE END LIST*
D10*
X174080000Y-58810000D02*
X174080000Y-72810000D01*
X117180000Y-96920000D02*
X131180000Y-96920000D01*
X117180000Y-110920000D02*
X131180000Y-110920000D01*
X145480000Y-39740000D02*
X145480000Y-53740000D01*
X193410000Y-110910000D02*
X193410000Y-96910000D01*
X160080000Y-58810000D02*
X174080000Y-58810000D01*
X135990000Y-58790000D02*
X135990000Y-72790000D01*
X221990000Y-91830000D02*
X235990000Y-91830000D01*
X117180000Y-110920000D02*
X117180000Y-96920000D01*
X93370000Y-110900000D02*
X93370000Y-96900000D01*
X150530000Y-39740000D02*
X164530000Y-39740000D01*
X216920000Y-77840000D02*
X216920000Y-91840000D01*
X131190000Y-115990000D02*
X131190000Y-129990000D01*
X224070000Y-58770000D02*
X224070000Y-72770000D01*
X221990000Y-77830000D02*
X235990000Y-77830000D01*
X155040000Y-58800000D02*
X155040000Y-72800000D01*
X160080000Y-72810000D02*
X160080000Y-58810000D01*
X141040000Y-72800000D02*
X141040000Y-58800000D01*
X121990000Y-58790000D02*
X135990000Y-58790000D01*
D11*
X98431213Y-84625773D02*
G75*
G03*
X100951293Y-82115759I10087J2509973D01*
G01*
D10*
X179140000Y-72810000D02*
X179140000Y-58810000D01*
D11*
X238203920Y-134489980D02*
G75*
G03*
X240724000Y-131980000I10080J2509980D01*
G01*
D10*
X202920000Y-91840000D02*
X216920000Y-91840000D01*
X107370000Y-96900000D02*
X107370000Y-110900000D01*
X126700000Y-77860000D02*
X140700000Y-77860000D01*
X188660000Y-129980000D02*
X202660000Y-129980000D01*
X155290000Y-96920000D02*
X169290000Y-96920000D01*
X121990000Y-72790000D02*
X121990000Y-58790000D01*
X169580000Y-53740000D02*
X169580000Y-39740000D01*
X126700000Y-91860000D02*
X140700000Y-91860000D01*
X136250000Y-110930000D02*
X136250000Y-96930000D01*
X217220000Y-96900000D02*
X231220000Y-96900000D01*
X141040000Y-72800000D02*
X155040000Y-72800000D01*
X202660000Y-115980000D02*
X202660000Y-129980000D01*
X164810000Y-91860000D02*
X178810000Y-91860000D01*
X136250000Y-110930000D02*
X150250000Y-110930000D01*
X193140000Y-58810000D02*
X193140000Y-72810000D01*
X183860000Y-91860000D02*
X183860000Y-77860000D01*
X121990000Y-72790000D02*
X135990000Y-72790000D01*
X126440000Y-39730000D02*
X126440000Y-53730000D01*
X210070000Y-58770000D02*
X224070000Y-58770000D01*
X202640000Y-39740000D02*
X202640000Y-53740000D01*
X131180000Y-96920000D02*
X131180000Y-110920000D01*
D11*
X101010000Y-38090000D02*
X100951293Y-82115759D01*
D10*
X183860000Y-91860000D02*
X197860000Y-91860000D01*
X210070000Y-72770000D02*
X224070000Y-72770000D01*
X169580000Y-39740000D02*
X183580000Y-39740000D01*
D11*
X82270000Y-84620000D02*
G75*
G03*
X79770000Y-87120000I0J-2500000D01*
G01*
D10*
X193410000Y-110910000D02*
X207410000Y-110910000D01*
X155290000Y-110920000D02*
X169290000Y-110920000D01*
X188660000Y-129980000D02*
X188660000Y-115980000D01*
X131480000Y-53740000D02*
X145480000Y-53740000D01*
X188350000Y-96920000D02*
X188350000Y-110920000D01*
X221680000Y-39730000D02*
X221680000Y-53730000D01*
X193410000Y-96910000D02*
X207410000Y-96910000D01*
D11*
X103510000Y-35590000D02*
G75*
G03*
X101010000Y-38090000I0J-2500000D01*
G01*
D10*
X102940000Y-72790000D02*
X102940000Y-58790000D01*
X207680000Y-39730000D02*
X221680000Y-39730000D01*
X126700000Y-91860000D02*
X126700000Y-77860000D01*
X164530000Y-39740000D02*
X164530000Y-53740000D01*
X155290000Y-129990000D02*
X155290000Y-115990000D01*
X131480000Y-53740000D02*
X131480000Y-39740000D01*
X140700000Y-77860000D02*
X140700000Y-91860000D01*
X207680000Y-53730000D02*
X221680000Y-53730000D01*
X117190000Y-129990000D02*
X117190000Y-115990000D01*
X174350000Y-96920000D02*
X188350000Y-96920000D01*
X221990000Y-91830000D02*
X221990000Y-77830000D01*
X202920000Y-77840000D02*
X216920000Y-77840000D01*
X231230000Y-115980000D02*
X231230000Y-129980000D01*
X145750000Y-91860000D02*
X145750000Y-77860000D01*
X179140000Y-58810000D02*
X193140000Y-58810000D01*
X207410000Y-96910000D02*
X207410000Y-110910000D01*
X150530000Y-53740000D02*
X164530000Y-53740000D01*
X93370000Y-110900000D02*
X107370000Y-110900000D01*
X155290000Y-110920000D02*
X155290000Y-96920000D01*
X183860000Y-77860000D02*
X197860000Y-77860000D01*
X197860000Y-77860000D02*
X197860000Y-91860000D01*
X102940000Y-58790000D02*
X116940000Y-58790000D01*
X112440000Y-53730000D02*
X126440000Y-53730000D01*
X150250000Y-96930000D02*
X150250000Y-110930000D01*
X217230000Y-129980000D02*
X217230000Y-115980000D01*
X136250000Y-96930000D02*
X150250000Y-96930000D01*
X145750000Y-91860000D02*
X159750000Y-91860000D01*
X93370000Y-96900000D02*
X107370000Y-96900000D01*
X188640000Y-53740000D02*
X188640000Y-39740000D01*
X169290000Y-96920000D02*
X169290000Y-110920000D01*
D11*
X79774000Y-87110000D02*
X79834000Y-131850000D01*
D10*
X155290000Y-129990000D02*
X169290000Y-129990000D01*
X210070000Y-58770000D02*
X210070000Y-72770000D01*
X174350000Y-110920000D02*
X188350000Y-110920000D01*
X160080000Y-72810000D02*
X174080000Y-72810000D01*
X217220000Y-110900000D02*
X231220000Y-110900000D01*
D11*
X240694019Y-38120000D02*
X240724000Y-131980000D01*
D10*
X188660000Y-115980000D02*
X202660000Y-115980000D01*
X107640000Y-91850000D02*
X107640000Y-77850000D01*
X150530000Y-53740000D02*
X150530000Y-39740000D01*
X116940000Y-58790000D02*
X116940000Y-72790000D01*
D11*
X82270000Y-84620000D02*
X98591213Y-84625739D01*
D10*
X217220000Y-110900000D02*
X217220000Y-96900000D01*
X188640000Y-39740000D02*
X202640000Y-39740000D01*
X231220000Y-96900000D02*
X231220000Y-110900000D01*
X112440000Y-53730000D02*
X112440000Y-39730000D01*
X188640000Y-53740000D02*
X202640000Y-53740000D01*
D11*
X240694019Y-38120000D02*
G75*
G03*
X238204000Y-35620001I-2500019J0D01*
G01*
D10*
X102940000Y-72790000D02*
X116940000Y-72790000D01*
X112440000Y-39730000D02*
X126440000Y-39730000D01*
X117190000Y-129990000D02*
X131190000Y-129990000D01*
X164810000Y-77860000D02*
X178810000Y-77860000D01*
X159750000Y-77860000D02*
X159750000Y-91860000D01*
X155290000Y-115990000D02*
X169290000Y-115990000D01*
X202920000Y-91840000D02*
X202920000Y-77840000D01*
X169580000Y-53740000D02*
X183580000Y-53740000D01*
X179140000Y-72810000D02*
X193140000Y-72810000D01*
X178810000Y-77860000D02*
X178810000Y-91860000D01*
X164810000Y-91860000D02*
X164810000Y-77860000D01*
X235990000Y-77830000D02*
X235990000Y-91830000D01*
X117190000Y-115990000D02*
X131190000Y-115990000D01*
D11*
X103510000Y-35590000D02*
X238204000Y-35620001D01*
D10*
X107640000Y-91850000D02*
X121640000Y-91850000D01*
X183580000Y-39740000D02*
X183580000Y-53740000D01*
X169290000Y-115990000D02*
X169290000Y-129990000D01*
X131480000Y-39740000D02*
X145480000Y-39740000D01*
X145750000Y-77860000D02*
X159750000Y-77860000D01*
X141040000Y-58800000D02*
X155040000Y-58800000D01*
X121640000Y-77850000D02*
X121640000Y-91850000D01*
X107640000Y-77850000D02*
X121640000Y-77850000D01*
X207680000Y-53730000D02*
X207680000Y-39730000D01*
X217230000Y-129980000D02*
X231230000Y-129980000D01*
X174350000Y-110920000D02*
X174350000Y-96920000D01*
D11*
X238203920Y-134489980D02*
X82334000Y-134350000D01*
X79834000Y-131850000D02*
G75*
G03*
X82334000Y-134350000I2500000J0D01*
G01*
D10*
X217230000Y-115980000D02*
X231230000Y-115980000D01*
M02*
