%TF.GenerationSoftware,KiCad,Pcbnew,(6.0.7)*%
%TF.CreationDate,2022-09-08T23:08:26+00:00*%
%TF.ProjectId,top-right,746f702d-7269-4676-9874-2e6b69636164,rev?*%
%TF.SameCoordinates,Original*%
%TF.FileFunction,Drillmap*%
%TF.FilePolarity,Positive*%
%FSLAX45Y45*%
G04 Gerber Fmt 4.5, Leading zero omitted, Abs format (unit mm)*
G04 Created by KiCad (PCBNEW (6.0.7)) date 2022-09-08 23:08:26*
%MOMM*%
%LPD*%
G01*
G04 APERTURE LIST*
%ADD10C,0.150000*%
%ADD11C,0.100000*%
%ADD12C,0.200000*%
%ADD13C,0.220000*%
G04 APERTURE END LIST*
D10*
X17408000Y-5881000D02*
X17408000Y-7281000D01*
X11718000Y-9692000D02*
X13118000Y-9692000D01*
X11718000Y-11092000D02*
X13118000Y-11092000D01*
X14548000Y-3974000D02*
X14548000Y-5374000D01*
X19341000Y-11091000D02*
X19341000Y-9691000D01*
X16008000Y-5881000D02*
X17408000Y-5881000D01*
X13599000Y-5879000D02*
X13599000Y-7279000D01*
X22199000Y-9183000D02*
X23599000Y-9183000D01*
X11718000Y-11092000D02*
X11718000Y-9692000D01*
X9337000Y-11090000D02*
X9337000Y-9690000D01*
X15053000Y-3974000D02*
X16453000Y-3974000D01*
X21692000Y-7784000D02*
X21692000Y-9184000D01*
X13119000Y-11599000D02*
X13119000Y-12999000D01*
X22407000Y-5877000D02*
X22407000Y-7277000D01*
X22199000Y-7783000D02*
X23599000Y-7783000D01*
X15504000Y-5880000D02*
X15504000Y-7280000D01*
X16008000Y-7281000D02*
X16008000Y-5881000D01*
X14104000Y-7280000D02*
X14104000Y-5880000D01*
X12199000Y-5879000D02*
X13599000Y-5879000D01*
D11*
X9843121Y-8462577D02*
G75*
G03*
X10095129Y-8211576I1009J250997D01*
G01*
D10*
X17914000Y-7281000D02*
X17914000Y-5881000D01*
D11*
X23820392Y-13448998D02*
G75*
G03*
X24072400Y-13198000I1008J250998D01*
G01*
D10*
X20292000Y-9184000D02*
X21692000Y-9184000D01*
X10737000Y-9690000D02*
X10737000Y-11090000D01*
X12670000Y-7786000D02*
X14070000Y-7786000D01*
X18866000Y-12998000D02*
X20266000Y-12998000D01*
X15529000Y-9692000D02*
X16929000Y-9692000D01*
X12199000Y-7279000D02*
X12199000Y-5879000D01*
X16958000Y-5374000D02*
X16958000Y-3974000D01*
X12670000Y-9186000D02*
X14070000Y-9186000D01*
X13625000Y-11093000D02*
X13625000Y-9693000D01*
X21722000Y-9690000D02*
X23122000Y-9690000D01*
X14104000Y-7280000D02*
X15504000Y-7280000D01*
X20266000Y-11598000D02*
X20266000Y-12998000D01*
X16481000Y-9186000D02*
X17881000Y-9186000D01*
X13625000Y-11093000D02*
X15025000Y-11093000D01*
X19314000Y-5881000D02*
X19314000Y-7281000D01*
X18386000Y-9186000D02*
X18386000Y-7786000D01*
X12199000Y-7279000D02*
X13599000Y-7279000D01*
X12644000Y-3973000D02*
X12644000Y-5373000D01*
X21007000Y-5877000D02*
X22407000Y-5877000D01*
X20264000Y-3974000D02*
X20264000Y-5374000D01*
X13118000Y-9692000D02*
X13118000Y-11092000D01*
D11*
X10101000Y-3809000D02*
X10095129Y-8211576D01*
D10*
X18386000Y-9186000D02*
X19786000Y-9186000D01*
X21007000Y-7277000D02*
X22407000Y-7277000D01*
X16958000Y-3974000D02*
X18358000Y-3974000D01*
D11*
X8227000Y-8462000D02*
G75*
G03*
X7977000Y-8712000I0J-250000D01*
G01*
D10*
X19341000Y-11091000D02*
X20741000Y-11091000D01*
X15529000Y-11092000D02*
X16929000Y-11092000D01*
X18866000Y-12998000D02*
X18866000Y-11598000D01*
X13148000Y-5374000D02*
X14548000Y-5374000D01*
X18835000Y-9692000D02*
X18835000Y-11092000D01*
X22168000Y-3973000D02*
X22168000Y-5373000D01*
X19341000Y-9691000D02*
X20741000Y-9691000D01*
D11*
X10351000Y-3559000D02*
G75*
G03*
X10101000Y-3809000I0J-250000D01*
G01*
D10*
X10294000Y-7279000D02*
X10294000Y-5879000D01*
X20768000Y-3973000D02*
X22168000Y-3973000D01*
X12670000Y-9186000D02*
X12670000Y-7786000D01*
X16453000Y-3974000D02*
X16453000Y-5374000D01*
X15529000Y-12999000D02*
X15529000Y-11599000D01*
X13148000Y-5374000D02*
X13148000Y-3974000D01*
X14070000Y-7786000D02*
X14070000Y-9186000D01*
X20768000Y-5373000D02*
X22168000Y-5373000D01*
X11719000Y-12999000D02*
X11719000Y-11599000D01*
X17435000Y-9692000D02*
X18835000Y-9692000D01*
X22199000Y-9183000D02*
X22199000Y-7783000D01*
X20292000Y-7784000D02*
X21692000Y-7784000D01*
X23123000Y-11598000D02*
X23123000Y-12998000D01*
X14575000Y-9186000D02*
X14575000Y-7786000D01*
X17914000Y-5881000D02*
X19314000Y-5881000D01*
X20741000Y-9691000D02*
X20741000Y-11091000D01*
X15053000Y-5374000D02*
X16453000Y-5374000D01*
X9337000Y-11090000D02*
X10737000Y-11090000D01*
X15529000Y-11092000D02*
X15529000Y-9692000D01*
X18386000Y-7786000D02*
X19786000Y-7786000D01*
X19786000Y-7786000D02*
X19786000Y-9186000D01*
X10294000Y-5879000D02*
X11694000Y-5879000D01*
X11244000Y-5373000D02*
X12644000Y-5373000D01*
X15025000Y-9693000D02*
X15025000Y-11093000D01*
X21723000Y-12998000D02*
X21723000Y-11598000D01*
X13625000Y-9693000D02*
X15025000Y-9693000D01*
X14575000Y-9186000D02*
X15975000Y-9186000D01*
X9337000Y-9690000D02*
X10737000Y-9690000D01*
X18864000Y-5374000D02*
X18864000Y-3974000D01*
X16929000Y-9692000D02*
X16929000Y-11092000D01*
D11*
X7977400Y-8711000D02*
X7983400Y-13185000D01*
D10*
X15529000Y-12999000D02*
X16929000Y-12999000D01*
X21007000Y-5877000D02*
X21007000Y-7277000D01*
X17435000Y-11092000D02*
X18835000Y-11092000D01*
X16008000Y-7281000D02*
X17408000Y-7281000D01*
X21722000Y-11090000D02*
X23122000Y-11090000D01*
D11*
X24069402Y-3812000D02*
X24072400Y-13198000D01*
D10*
X18866000Y-11598000D02*
X20266000Y-11598000D01*
X10764000Y-9185000D02*
X10764000Y-7785000D01*
X15053000Y-5374000D02*
X15053000Y-3974000D01*
X11694000Y-5879000D02*
X11694000Y-7279000D01*
D11*
X8227000Y-8462000D02*
X9859121Y-8462574D01*
D10*
X21722000Y-11090000D02*
X21722000Y-9690000D01*
X18864000Y-3974000D02*
X20264000Y-3974000D01*
X23122000Y-9690000D02*
X23122000Y-11090000D01*
X11244000Y-5373000D02*
X11244000Y-3973000D01*
X18864000Y-5374000D02*
X20264000Y-5374000D01*
D11*
X24069402Y-3812000D02*
G75*
G03*
X23820400Y-3562000I-250002J0D01*
G01*
D10*
X10294000Y-7279000D02*
X11694000Y-7279000D01*
X11244000Y-3973000D02*
X12644000Y-3973000D01*
X11719000Y-12999000D02*
X13119000Y-12999000D01*
X16481000Y-7786000D02*
X17881000Y-7786000D01*
X15975000Y-7786000D02*
X15975000Y-9186000D01*
X15529000Y-11599000D02*
X16929000Y-11599000D01*
X20292000Y-9184000D02*
X20292000Y-7784000D01*
X16958000Y-5374000D02*
X18358000Y-5374000D01*
X17914000Y-7281000D02*
X19314000Y-7281000D01*
X17881000Y-7786000D02*
X17881000Y-9186000D01*
X16481000Y-9186000D02*
X16481000Y-7786000D01*
X23599000Y-7783000D02*
X23599000Y-9183000D01*
X11719000Y-11599000D02*
X13119000Y-11599000D01*
D11*
X10351000Y-3559000D02*
X23820400Y-3562000D01*
D10*
X10764000Y-9185000D02*
X12164000Y-9185000D01*
X18358000Y-3974000D02*
X18358000Y-5374000D01*
X16929000Y-11599000D02*
X16929000Y-12999000D01*
X13148000Y-3974000D02*
X14548000Y-3974000D01*
X14575000Y-7786000D02*
X15975000Y-7786000D01*
X14104000Y-5880000D02*
X15504000Y-5880000D01*
X12164000Y-7785000D02*
X12164000Y-9185000D01*
X10764000Y-7785000D02*
X12164000Y-7785000D01*
X20768000Y-5373000D02*
X20768000Y-3973000D01*
X21723000Y-12998000D02*
X23123000Y-12998000D01*
X17435000Y-11092000D02*
X17435000Y-9692000D01*
D11*
X23820392Y-13448998D02*
X8233400Y-13435000D01*
X7983400Y-13185000D02*
G75*
G03*
X8233400Y-13435000I250000J0D01*
G01*
D10*
X21723000Y-11598000D02*
X23123000Y-11598000D01*
D12*
D13*
X8856000Y-12498000D02*
X9076000Y-12718000D01*
X9076000Y-12498000D02*
X8856000Y-12718000D01*
X10634000Y-4943000D02*
X10854000Y-5163000D01*
X10854000Y-4943000D02*
X10634000Y-5163000D01*
X17489000Y-12435000D02*
X17709000Y-12655000D01*
X17709000Y-12435000D02*
X17489000Y-12655000D01*
X23274000Y-5445000D02*
X23494000Y-5665000D01*
X23494000Y-5445000D02*
X23274000Y-5665000D01*
D12*
X8229619Y-13764476D02*
X8229619Y-13564476D01*
X8277238Y-13564476D01*
X8305809Y-13574000D01*
X8324857Y-13593048D01*
X8334381Y-13612095D01*
X8343905Y-13650190D01*
X8343905Y-13678762D01*
X8334381Y-13716857D01*
X8324857Y-13735905D01*
X8305809Y-13754952D01*
X8277238Y-13764476D01*
X8229619Y-13764476D01*
X8429619Y-13764476D02*
X8429619Y-13631143D01*
X8429619Y-13669238D02*
X8439143Y-13650190D01*
X8448667Y-13640667D01*
X8467714Y-13631143D01*
X8486762Y-13631143D01*
X8553429Y-13764476D02*
X8553429Y-13631143D01*
X8553429Y-13564476D02*
X8543905Y-13574000D01*
X8553429Y-13583524D01*
X8562952Y-13574000D01*
X8553429Y-13564476D01*
X8553429Y-13583524D01*
X8677238Y-13764476D02*
X8658190Y-13754952D01*
X8648667Y-13735905D01*
X8648667Y-13564476D01*
X8782000Y-13764476D02*
X8762952Y-13754952D01*
X8753429Y-13735905D01*
X8753429Y-13564476D01*
X9010571Y-13764476D02*
X9010571Y-13564476D01*
X9077238Y-13707333D01*
X9143905Y-13564476D01*
X9143905Y-13764476D01*
X9324857Y-13764476D02*
X9324857Y-13659714D01*
X9315333Y-13640667D01*
X9296286Y-13631143D01*
X9258190Y-13631143D01*
X9239143Y-13640667D01*
X9324857Y-13754952D02*
X9305810Y-13764476D01*
X9258190Y-13764476D01*
X9239143Y-13754952D01*
X9229619Y-13735905D01*
X9229619Y-13716857D01*
X9239143Y-13697809D01*
X9258190Y-13688286D01*
X9305810Y-13688286D01*
X9324857Y-13678762D01*
X9420095Y-13631143D02*
X9420095Y-13831143D01*
X9420095Y-13640667D02*
X9439143Y-13631143D01*
X9477238Y-13631143D01*
X9496286Y-13640667D01*
X9505810Y-13650190D01*
X9515333Y-13669238D01*
X9515333Y-13726381D01*
X9505810Y-13745428D01*
X9496286Y-13754952D01*
X9477238Y-13764476D01*
X9439143Y-13764476D01*
X9420095Y-13754952D01*
X9601048Y-13745428D02*
X9610571Y-13754952D01*
X9601048Y-13764476D01*
X9591524Y-13754952D01*
X9601048Y-13745428D01*
X9601048Y-13764476D01*
X9601048Y-13640667D02*
X9610571Y-13650190D01*
X9601048Y-13659714D01*
X9591524Y-13650190D01*
X9601048Y-13640667D01*
X9601048Y-13659714D01*
X7772000Y-13994000D02*
X7972000Y-14194000D01*
X7972000Y-13994000D02*
X7772000Y-14194000D01*
X8220095Y-14003524D02*
X8229619Y-13994000D01*
X8248667Y-13984476D01*
X8296286Y-13984476D01*
X8315333Y-13994000D01*
X8324857Y-14003524D01*
X8334381Y-14022571D01*
X8334381Y-14041619D01*
X8324857Y-14070190D01*
X8210571Y-14184476D01*
X8334381Y-14184476D01*
X8420095Y-14165428D02*
X8429619Y-14174952D01*
X8420095Y-14184476D01*
X8410571Y-14174952D01*
X8420095Y-14165428D01*
X8420095Y-14184476D01*
X8505810Y-14003524D02*
X8515333Y-13994000D01*
X8534381Y-13984476D01*
X8582000Y-13984476D01*
X8601048Y-13994000D01*
X8610571Y-14003524D01*
X8620095Y-14022571D01*
X8620095Y-14041619D01*
X8610571Y-14070190D01*
X8496286Y-14184476D01*
X8620095Y-14184476D01*
X8743905Y-13984476D02*
X8762952Y-13984476D01*
X8782000Y-13994000D01*
X8791524Y-14003524D01*
X8801048Y-14022571D01*
X8810571Y-14060667D01*
X8810571Y-14108286D01*
X8801048Y-14146381D01*
X8791524Y-14165428D01*
X8782000Y-14174952D01*
X8762952Y-14184476D01*
X8743905Y-14184476D01*
X8724857Y-14174952D01*
X8715333Y-14165428D01*
X8705810Y-14146381D01*
X8696286Y-14108286D01*
X8696286Y-14060667D01*
X8705810Y-14022571D01*
X8715333Y-14003524D01*
X8724857Y-13994000D01*
X8743905Y-13984476D01*
X8934381Y-13984476D02*
X8953429Y-13984476D01*
X8972476Y-13994000D01*
X8982000Y-14003524D01*
X8991524Y-14022571D01*
X9001048Y-14060667D01*
X9001048Y-14108286D01*
X8991524Y-14146381D01*
X8982000Y-14165428D01*
X8972476Y-14174952D01*
X8953429Y-14184476D01*
X8934381Y-14184476D01*
X8915333Y-14174952D01*
X8905810Y-14165428D01*
X8896286Y-14146381D01*
X8886762Y-14108286D01*
X8886762Y-14060667D01*
X8896286Y-14022571D01*
X8905810Y-14003524D01*
X8915333Y-13994000D01*
X8934381Y-13984476D01*
X9086762Y-14184476D02*
X9086762Y-14051143D01*
X9086762Y-14070190D02*
X9096286Y-14060667D01*
X9115333Y-14051143D01*
X9143905Y-14051143D01*
X9162952Y-14060667D01*
X9172476Y-14079714D01*
X9172476Y-14184476D01*
X9172476Y-14079714D02*
X9182000Y-14060667D01*
X9201048Y-14051143D01*
X9229619Y-14051143D01*
X9248667Y-14060667D01*
X9258190Y-14079714D01*
X9258190Y-14184476D01*
X9353429Y-14184476D02*
X9353429Y-14051143D01*
X9353429Y-14070190D02*
X9362952Y-14060667D01*
X9382000Y-14051143D01*
X9410571Y-14051143D01*
X9429619Y-14060667D01*
X9439143Y-14079714D01*
X9439143Y-14184476D01*
X9439143Y-14079714D02*
X9448667Y-14060667D01*
X9467714Y-14051143D01*
X9496286Y-14051143D01*
X9515333Y-14060667D01*
X9524857Y-14079714D01*
X9524857Y-14184476D01*
X9915333Y-13974952D02*
X9743905Y-14232095D01*
X10172476Y-13984476D02*
X10191524Y-13984476D01*
X10210571Y-13994000D01*
X10220095Y-14003524D01*
X10229619Y-14022571D01*
X10239143Y-14060667D01*
X10239143Y-14108286D01*
X10229619Y-14146381D01*
X10220095Y-14165428D01*
X10210571Y-14174952D01*
X10191524Y-14184476D01*
X10172476Y-14184476D01*
X10153429Y-14174952D01*
X10143905Y-14165428D01*
X10134381Y-14146381D01*
X10124857Y-14108286D01*
X10124857Y-14060667D01*
X10134381Y-14022571D01*
X10143905Y-14003524D01*
X10153429Y-13994000D01*
X10172476Y-13984476D01*
X10324857Y-14165428D02*
X10334381Y-14174952D01*
X10324857Y-14184476D01*
X10315333Y-14174952D01*
X10324857Y-14165428D01*
X10324857Y-14184476D01*
X10458190Y-13984476D02*
X10477238Y-13984476D01*
X10496286Y-13994000D01*
X10505810Y-14003524D01*
X10515333Y-14022571D01*
X10524857Y-14060667D01*
X10524857Y-14108286D01*
X10515333Y-14146381D01*
X10505810Y-14165428D01*
X10496286Y-14174952D01*
X10477238Y-14184476D01*
X10458190Y-14184476D01*
X10439143Y-14174952D01*
X10429619Y-14165428D01*
X10420095Y-14146381D01*
X10410571Y-14108286D01*
X10410571Y-14060667D01*
X10420095Y-14022571D01*
X10429619Y-14003524D01*
X10439143Y-13994000D01*
X10458190Y-13984476D01*
X10639143Y-14070190D02*
X10620095Y-14060667D01*
X10610571Y-14051143D01*
X10601048Y-14032095D01*
X10601048Y-14022571D01*
X10610571Y-14003524D01*
X10620095Y-13994000D01*
X10639143Y-13984476D01*
X10677238Y-13984476D01*
X10696286Y-13994000D01*
X10705810Y-14003524D01*
X10715333Y-14022571D01*
X10715333Y-14032095D01*
X10705810Y-14051143D01*
X10696286Y-14060667D01*
X10677238Y-14070190D01*
X10639143Y-14070190D01*
X10620095Y-14079714D01*
X10610571Y-14089238D01*
X10601048Y-14108286D01*
X10601048Y-14146381D01*
X10610571Y-14165428D01*
X10620095Y-14174952D01*
X10639143Y-14184476D01*
X10677238Y-14184476D01*
X10696286Y-14174952D01*
X10705810Y-14165428D01*
X10715333Y-14146381D01*
X10715333Y-14108286D01*
X10705810Y-14089238D01*
X10696286Y-14079714D01*
X10677238Y-14070190D01*
X10886762Y-13984476D02*
X10848667Y-13984476D01*
X10829619Y-13994000D01*
X10820095Y-14003524D01*
X10801048Y-14032095D01*
X10791524Y-14070190D01*
X10791524Y-14146381D01*
X10801048Y-14165428D01*
X10810571Y-14174952D01*
X10829619Y-14184476D01*
X10867714Y-14184476D01*
X10886762Y-14174952D01*
X10896286Y-14165428D01*
X10905810Y-14146381D01*
X10905810Y-14098762D01*
X10896286Y-14079714D01*
X10886762Y-14070190D01*
X10867714Y-14060667D01*
X10829619Y-14060667D01*
X10810571Y-14070190D01*
X10801048Y-14079714D01*
X10791524Y-14098762D01*
X11077238Y-13984476D02*
X11039143Y-13984476D01*
X11020095Y-13994000D01*
X11010571Y-14003524D01*
X10991524Y-14032095D01*
X10982000Y-14070190D01*
X10982000Y-14146381D01*
X10991524Y-14165428D01*
X11001048Y-14174952D01*
X11020095Y-14184476D01*
X11058190Y-14184476D01*
X11077238Y-14174952D01*
X11086762Y-14165428D01*
X11096286Y-14146381D01*
X11096286Y-14098762D01*
X11086762Y-14079714D01*
X11077238Y-14070190D01*
X11058190Y-14060667D01*
X11020095Y-14060667D01*
X11001048Y-14070190D01*
X10991524Y-14079714D01*
X10982000Y-14098762D01*
X11172476Y-13984476D02*
X11172476Y-14022571D01*
X11248667Y-13984476D02*
X11248667Y-14022571D01*
X11543905Y-14260667D02*
X11534381Y-14251143D01*
X11515333Y-14222571D01*
X11505809Y-14203524D01*
X11496286Y-14174952D01*
X11486762Y-14127333D01*
X11486762Y-14089238D01*
X11496286Y-14041619D01*
X11505809Y-14013048D01*
X11515333Y-13994000D01*
X11534381Y-13965428D01*
X11543905Y-13955905D01*
X11705809Y-14051143D02*
X11705809Y-14184476D01*
X11658190Y-13974952D02*
X11610571Y-14117809D01*
X11734381Y-14117809D01*
X11962952Y-14184476D02*
X11962952Y-13984476D01*
X12048667Y-14184476D02*
X12048667Y-14079714D01*
X12039143Y-14060667D01*
X12020095Y-14051143D01*
X11991524Y-14051143D01*
X11972476Y-14060667D01*
X11962952Y-14070190D01*
X12172476Y-14184476D02*
X12153428Y-14174952D01*
X12143905Y-14165428D01*
X12134381Y-14146381D01*
X12134381Y-14089238D01*
X12143905Y-14070190D01*
X12153428Y-14060667D01*
X12172476Y-14051143D01*
X12201048Y-14051143D01*
X12220095Y-14060667D01*
X12229619Y-14070190D01*
X12239143Y-14089238D01*
X12239143Y-14146381D01*
X12229619Y-14165428D01*
X12220095Y-14174952D01*
X12201048Y-14184476D01*
X12172476Y-14184476D01*
X12353428Y-14184476D02*
X12334381Y-14174952D01*
X12324857Y-14155905D01*
X12324857Y-13984476D01*
X12505809Y-14174952D02*
X12486762Y-14184476D01*
X12448667Y-14184476D01*
X12429619Y-14174952D01*
X12420095Y-14155905D01*
X12420095Y-14079714D01*
X12429619Y-14060667D01*
X12448667Y-14051143D01*
X12486762Y-14051143D01*
X12505809Y-14060667D01*
X12515333Y-14079714D01*
X12515333Y-14098762D01*
X12420095Y-14117809D01*
X12591524Y-14174952D02*
X12610571Y-14184476D01*
X12648667Y-14184476D01*
X12667714Y-14174952D01*
X12677238Y-14155905D01*
X12677238Y-14146381D01*
X12667714Y-14127333D01*
X12648667Y-14117809D01*
X12620095Y-14117809D01*
X12601048Y-14108286D01*
X12591524Y-14089238D01*
X12591524Y-14079714D01*
X12601048Y-14060667D01*
X12620095Y-14051143D01*
X12648667Y-14051143D01*
X12667714Y-14060667D01*
X12743905Y-14260667D02*
X12753428Y-14251143D01*
X12772476Y-14222571D01*
X12782000Y-14203524D01*
X12791524Y-14174952D01*
X12801048Y-14127333D01*
X12801048Y-14089238D01*
X12791524Y-14041619D01*
X12782000Y-14013048D01*
X12772476Y-13994000D01*
X12753428Y-13965428D01*
X12743905Y-13955905D01*
M02*
