G04 #@! TF.GenerationSoftware,KiCad,Pcbnew,(6.0.7)*
G04 #@! TF.CreationDate,2022-08-16T06:32:24+00:00*
G04 #@! TF.ProjectId,zzsplit,7a7a7370-6c69-4742-9e6b-696361645f70,rev?*
G04 #@! TF.SameCoordinates,Original*
G04 #@! TF.FileFunction,Legend,Bot*
G04 #@! TF.FilePolarity,Positive*
%FSLAX46Y46*%
G04 Gerber Fmt 4.6, Leading zero omitted, Abs format (unit mm)*
G04 Created by KiCad (PCBNEW (6.0.7)) date 2022-08-16 06:32:24*
%MOMM*%
%LPD*%
G01*
G04 APERTURE LIST*
G04 Aperture macros list*
%AMRoundRect*
0 Rectangle with rounded corners*
0 $1 Rounding radius*
0 $2 $3 $4 $5 $6 $7 $8 $9 X,Y pos of 4 corners*
0 Add a 4 corners polygon primitive as box body*
4,1,4,$2,$3,$4,$5,$6,$7,$8,$9,$2,$3,0*
0 Add four circle primitives for the rounded corners*
1,1,$1+$1,$2,$3*
1,1,$1+$1,$4,$5*
1,1,$1+$1,$6,$7*
1,1,$1+$1,$8,$9*
0 Add four rect primitives between the rounded corners*
20,1,$1+$1,$2,$3,$4,$5,0*
20,1,$1+$1,$4,$5,$6,$7,0*
20,1,$1+$1,$6,$7,$8,$9,0*
20,1,$1+$1,$8,$9,$2,$3,0*%
G04 Aperture macros list end*
G04 #@! TA.AperFunction,Profile*
%ADD10C,0.150000*%
G04 #@! TD*
G04 #@! TA.AperFunction,Profile*
%ADD11C,0.100000*%
G04 #@! TD*
%ADD12C,0.300000*%
%ADD13C,0.150000*%
%ADD14C,0.250000*%
%ADD15C,0.400000*%
%ADD16C,0.500000*%
%ADD17C,3.000000*%
%ADD18C,3.500000*%
%ADD19C,0.800000*%
%ADD20C,1.000000*%
%ADD21C,0.381000*%
%ADD22R,1.752600X1.752600*%
%ADD23C,1.752600*%
%ADD24C,0.700000*%
%ADD25R,0.950000X1.300000*%
%ADD26R,2.000000X1.000000*%
%ADD27C,4.100000*%
%ADD28C,3.000000*%
%ADD29C,1.900000*%
%ADD30C,1.700000*%
%ADD31R,1.600000X1.000000*%
%ADD32R,2.300000X2.000000*%
%ADD33C,4.700000*%
%ADD34C,1.200000*%
%ADD35O,2.500000X1.700000*%
%ADD36RoundRect,0.250000X-0.550000X-0.550000X0.550000X-0.550000X0.550000X0.550000X-0.550000X0.550000X0*%
%ADD37C,1.600000*%
%ADD38C,1.397000*%
%ADD39C,2.000000*%
G04 APERTURE END LIST*
D10*
X127620000Y-104490000D02*
X131120000Y-104490000D01*
X70460000Y-128070000D02*
X70460000Y-123570000D01*
X151440000Y-66360000D02*
X154940000Y-66360000D01*
X65690000Y-51800000D02*
X65690000Y-47300000D01*
X135890000Y-66360000D02*
X135890000Y-70860000D01*
D11*
X58200000Y-43460000D02*
X214110000Y-43490001D01*
D10*
X72850000Y-85400000D02*
X76350000Y-85400000D01*
X154940000Y-70860000D02*
X151440000Y-70860000D01*
D11*
X55740000Y-139720000D02*
G75*
G03*
X58240000Y-142220000I2500000J0D01*
G01*
D10*
X164450000Y-47300000D02*
X164450000Y-51800000D01*
X165700000Y-108980000D02*
X165700000Y-104480000D01*
X107290000Y-51800000D02*
X103790000Y-51800000D01*
X166830000Y-123540000D02*
X166830000Y-128040000D01*
X141890000Y-51800000D02*
X141890000Y-47300000D01*
X199040000Y-123550000D02*
X202540000Y-123550000D01*
X65690000Y-47300000D02*
X69190000Y-47300000D01*
X131120000Y-104490000D02*
X131120000Y-108990000D01*
X160950000Y-47300000D02*
X164450000Y-47300000D01*
X121600000Y-89930000D02*
X118100000Y-89930000D01*
X169200000Y-108980000D02*
X165700000Y-108980000D01*
X180000000Y-51800000D02*
X180000000Y-47300000D01*
X84750000Y-47300000D02*
X88250000Y-47300000D01*
X132390000Y-66360000D02*
X135890000Y-66360000D01*
X99050000Y-89930000D02*
X99050000Y-85430000D01*
X97790000Y-66360000D02*
X97790000Y-70860000D01*
X163330000Y-128040000D02*
X163330000Y-123540000D01*
D11*
X216600019Y-45990000D02*
X216630000Y-139850000D01*
D10*
X154940000Y-66360000D02*
X154940000Y-70860000D01*
X73960000Y-123570000D02*
X73960000Y-128070000D01*
X116830000Y-66360000D02*
X116830000Y-70860000D01*
X151440000Y-70860000D02*
X151440000Y-66360000D01*
X99050000Y-85430000D02*
X102550000Y-85430000D01*
X103790000Y-47300000D02*
X107290000Y-47300000D01*
X113330000Y-70860000D02*
X113330000Y-66360000D01*
X77610000Y-104520000D02*
X81110000Y-104520000D01*
X112060000Y-104500000D02*
X112060000Y-109000000D01*
X69190000Y-47300000D02*
X69190000Y-51800000D01*
X140650000Y-85420000D02*
X140650000Y-89920000D01*
X107290000Y-47300000D02*
X107290000Y-51800000D01*
X146670000Y-108990000D02*
X146670000Y-104490000D01*
X84750000Y-51800000D02*
X84750000Y-47300000D01*
X116830000Y-70860000D02*
X113330000Y-70860000D01*
X118100000Y-85430000D02*
X121600000Y-85430000D01*
X170490000Y-66360000D02*
X173990000Y-66360000D01*
X118100000Y-89930000D02*
X118100000Y-85430000D01*
X127610000Y-128050000D02*
X127610000Y-123550000D01*
X88250000Y-47300000D02*
X88250000Y-51800000D01*
X126340000Y-47300000D02*
X126340000Y-51800000D01*
X94290000Y-70860000D02*
X94290000Y-66360000D01*
X103790000Y-51800000D02*
X103790000Y-47300000D01*
X98960000Y-123560000D02*
X102460000Y-123560000D01*
X180000000Y-47300000D02*
X183500000Y-47300000D01*
X159700000Y-85420000D02*
X159700000Y-89920000D01*
X102550000Y-89930000D02*
X99050000Y-89930000D01*
X102460000Y-128060000D02*
X98960000Y-128060000D01*
X173990000Y-66360000D02*
X173990000Y-70860000D01*
X173990000Y-70860000D02*
X170490000Y-70860000D01*
X183500000Y-47300000D02*
X183500000Y-51800000D01*
X131110000Y-123550000D02*
X131110000Y-128050000D01*
D11*
X214109920Y-142359980D02*
X58240000Y-142220000D01*
D10*
X178750000Y-85430000D02*
X178750000Y-89930000D01*
X97790000Y-70860000D02*
X94290000Y-70860000D01*
D11*
X55700000Y-45960000D02*
X55740000Y-139720000D01*
D10*
X72850000Y-89900000D02*
X72850000Y-85400000D01*
X150170000Y-108990000D02*
X146670000Y-108990000D01*
X188270000Y-104490000D02*
X188270000Y-108990000D01*
X70460000Y-123570000D02*
X73960000Y-123570000D01*
X175250000Y-85430000D02*
X178750000Y-85430000D01*
X81110000Y-109020000D02*
X77610000Y-109020000D01*
X98960000Y-128060000D02*
X98960000Y-123560000D01*
X156200000Y-89920000D02*
X156200000Y-85420000D01*
X132390000Y-70860000D02*
X132390000Y-66360000D01*
X73950000Y-70850000D02*
X70450000Y-70850000D01*
X146670000Y-104490000D02*
X150170000Y-104490000D01*
X122840000Y-51800000D02*
X122840000Y-47300000D01*
X112060000Y-109000000D02*
X108560000Y-109000000D01*
X202540000Y-128050000D02*
X199040000Y-128050000D01*
X70450000Y-66350000D02*
X73950000Y-66350000D01*
X126340000Y-51800000D02*
X122840000Y-51800000D01*
X122840000Y-47300000D02*
X126340000Y-47300000D01*
X131120000Y-108990000D02*
X127620000Y-108990000D01*
X121600000Y-85430000D02*
X121600000Y-89930000D01*
X108560000Y-104500000D02*
X112060000Y-104500000D01*
X165700000Y-104480000D02*
X169200000Y-104480000D01*
X113330000Y-66360000D02*
X116830000Y-66360000D01*
X108560000Y-109000000D02*
X108560000Y-104500000D01*
X94290000Y-66360000D02*
X97790000Y-66360000D01*
X73950000Y-66350000D02*
X73950000Y-70850000D01*
D11*
X214109920Y-142359980D02*
G75*
G03*
X216630000Y-139850000I10080J2509980D01*
G01*
D10*
X102550000Y-85430000D02*
X102550000Y-89930000D01*
X202540000Y-123550000D02*
X202540000Y-128050000D01*
X156200000Y-85420000D02*
X159700000Y-85420000D01*
X127610000Y-123550000D02*
X131110000Y-123550000D01*
X164450000Y-51800000D02*
X160950000Y-51800000D01*
X141890000Y-47300000D02*
X145390000Y-47300000D01*
X76350000Y-89900000D02*
X72850000Y-89900000D01*
D11*
X216600019Y-45990000D02*
G75*
G03*
X214110000Y-43490001I-2500019J0D01*
G01*
D10*
X137150000Y-85420000D02*
X140650000Y-85420000D01*
X140650000Y-89920000D02*
X137150000Y-89920000D01*
X76350000Y-85400000D02*
X76350000Y-89900000D01*
X102460000Y-123560000D02*
X102460000Y-128060000D01*
X178750000Y-89930000D02*
X175250000Y-89930000D01*
X145390000Y-47300000D02*
X145390000Y-51800000D01*
X73960000Y-128070000D02*
X70460000Y-128070000D01*
X159700000Y-89920000D02*
X156200000Y-89920000D01*
X184770000Y-108990000D02*
X184770000Y-104490000D01*
X137150000Y-89920000D02*
X137150000Y-85420000D01*
X169200000Y-104480000D02*
X169200000Y-108980000D01*
X183500000Y-51800000D02*
X180000000Y-51800000D01*
X170490000Y-70860000D02*
X170490000Y-66360000D01*
X166830000Y-128040000D02*
X163330000Y-128040000D01*
X70450000Y-70850000D02*
X70450000Y-66350000D01*
X175250000Y-89930000D02*
X175250000Y-85430000D01*
X188270000Y-108990000D02*
X184770000Y-108990000D01*
X184770000Y-104490000D02*
X188270000Y-104490000D01*
X81110000Y-104520000D02*
X81110000Y-109020000D01*
X160950000Y-51800000D02*
X160950000Y-47300000D01*
X135890000Y-70860000D02*
X132390000Y-70860000D01*
X150170000Y-104490000D02*
X150170000Y-108990000D01*
X131110000Y-128050000D02*
X127610000Y-128050000D01*
X69190000Y-51800000D02*
X65690000Y-51800000D01*
X145390000Y-51800000D02*
X141890000Y-51800000D01*
D11*
X58200000Y-43460000D02*
G75*
G03*
X55700000Y-45960000I0J-2500000D01*
G01*
D10*
X88250000Y-51800000D02*
X84750000Y-51800000D01*
X77610000Y-109020000D02*
X77610000Y-104520000D01*
X163330000Y-123540000D02*
X166830000Y-123540000D01*
X127620000Y-108990000D02*
X127620000Y-104490000D01*
X199040000Y-128050000D02*
X199040000Y-123550000D01*
D12*
X156935142Y-139285428D02*
X155919142Y-139285428D01*
X156935142Y-140809428D01*
X155919142Y-140809428D01*
X155483714Y-139793428D02*
X154685428Y-139793428D01*
X155483714Y-140809428D01*
X154685428Y-140809428D01*
X154177428Y-140736857D02*
X153959714Y-140809428D01*
X153596857Y-140809428D01*
X153451714Y-140736857D01*
X153379142Y-140664285D01*
X153306571Y-140519142D01*
X153306571Y-140374000D01*
X153379142Y-140228857D01*
X153451714Y-140156285D01*
X153596857Y-140083714D01*
X153887142Y-140011142D01*
X154032285Y-139938571D01*
X154104857Y-139866000D01*
X154177428Y-139720857D01*
X154177428Y-139575714D01*
X154104857Y-139430571D01*
X154032285Y-139358000D01*
X153887142Y-139285428D01*
X153524285Y-139285428D01*
X153306571Y-139358000D01*
X152653428Y-139793428D02*
X152653428Y-141317428D01*
X152653428Y-139866000D02*
X152508285Y-139793428D01*
X152218000Y-139793428D01*
X152072857Y-139866000D01*
X152000285Y-139938571D01*
X151927714Y-140083714D01*
X151927714Y-140519142D01*
X152000285Y-140664285D01*
X152072857Y-140736857D01*
X152218000Y-140809428D01*
X152508285Y-140809428D01*
X152653428Y-140736857D01*
X151056857Y-140809428D02*
X151202000Y-140736857D01*
X151274571Y-140591714D01*
X151274571Y-139285428D01*
X150476285Y-140809428D02*
X150476285Y-139793428D01*
X150476285Y-139285428D02*
X150548857Y-139358000D01*
X150476285Y-139430571D01*
X150403714Y-139358000D01*
X150476285Y-139285428D01*
X150476285Y-139430571D01*
X149968285Y-139793428D02*
X149387714Y-139793428D01*
X149750571Y-139285428D02*
X149750571Y-140591714D01*
X149678000Y-140736857D01*
X149532857Y-140809428D01*
X149387714Y-140809428D01*
X141912857Y-140809428D02*
X141912857Y-139285428D01*
X141259714Y-140809428D02*
X141259714Y-140011142D01*
X141332285Y-139866000D01*
X141477428Y-139793428D01*
X141695142Y-139793428D01*
X141840285Y-139866000D01*
X141912857Y-139938571D01*
X140751714Y-139793428D02*
X140171142Y-139793428D01*
X140534000Y-139285428D02*
X140534000Y-140591714D01*
X140461428Y-140736857D01*
X140316285Y-140809428D01*
X140171142Y-140809428D01*
X139880857Y-139793428D02*
X139300285Y-139793428D01*
X139663142Y-139285428D02*
X139663142Y-140591714D01*
X139590571Y-140736857D01*
X139445428Y-140809428D01*
X139300285Y-140809428D01*
X138792285Y-139793428D02*
X138792285Y-141317428D01*
X138792285Y-139866000D02*
X138647142Y-139793428D01*
X138356857Y-139793428D01*
X138211714Y-139866000D01*
X138139142Y-139938571D01*
X138066571Y-140083714D01*
X138066571Y-140519142D01*
X138139142Y-140664285D01*
X138211714Y-140736857D01*
X138356857Y-140809428D01*
X138647142Y-140809428D01*
X138792285Y-140736857D01*
X137486000Y-140736857D02*
X137340857Y-140809428D01*
X137050571Y-140809428D01*
X136905428Y-140736857D01*
X136832857Y-140591714D01*
X136832857Y-140519142D01*
X136905428Y-140374000D01*
X137050571Y-140301428D01*
X137268285Y-140301428D01*
X137413428Y-140228857D01*
X137486000Y-140083714D01*
X137486000Y-140011142D01*
X137413428Y-139866000D01*
X137268285Y-139793428D01*
X137050571Y-139793428D01*
X136905428Y-139866000D01*
X136179714Y-140664285D02*
X136107142Y-140736857D01*
X136179714Y-140809428D01*
X136252285Y-140736857D01*
X136179714Y-140664285D01*
X136179714Y-140809428D01*
X136179714Y-139866000D02*
X136107142Y-139938571D01*
X136179714Y-140011142D01*
X136252285Y-139938571D01*
X136179714Y-139866000D01*
X136179714Y-140011142D01*
X134365428Y-139212857D02*
X135671714Y-141172285D01*
X132768857Y-139212857D02*
X134075142Y-141172285D01*
X131607714Y-139793428D02*
X131607714Y-141027142D01*
X131680285Y-141172285D01*
X131752857Y-141244857D01*
X131898000Y-141317428D01*
X132115714Y-141317428D01*
X132260857Y-141244857D01*
X131607714Y-140736857D02*
X131752857Y-140809428D01*
X132043142Y-140809428D01*
X132188285Y-140736857D01*
X132260857Y-140664285D01*
X132333428Y-140519142D01*
X132333428Y-140083714D01*
X132260857Y-139938571D01*
X132188285Y-139866000D01*
X132043142Y-139793428D01*
X131752857Y-139793428D01*
X131607714Y-139866000D01*
X130882000Y-140809428D02*
X130882000Y-139793428D01*
X130882000Y-139285428D02*
X130954571Y-139358000D01*
X130882000Y-139430571D01*
X130809428Y-139358000D01*
X130882000Y-139285428D01*
X130882000Y-139430571D01*
X130374000Y-139793428D02*
X129793428Y-139793428D01*
X130156285Y-139285428D02*
X130156285Y-140591714D01*
X130083714Y-140736857D01*
X129938571Y-140809428D01*
X129793428Y-140809428D01*
X129285428Y-140809428D02*
X129285428Y-139285428D01*
X128632285Y-140809428D02*
X128632285Y-140011142D01*
X128704857Y-139866000D01*
X128850000Y-139793428D01*
X129067714Y-139793428D01*
X129212857Y-139866000D01*
X129285428Y-139938571D01*
X127253428Y-139793428D02*
X127253428Y-140809428D01*
X127906571Y-139793428D02*
X127906571Y-140591714D01*
X127834000Y-140736857D01*
X127688857Y-140809428D01*
X127471142Y-140809428D01*
X127326000Y-140736857D01*
X127253428Y-140664285D01*
X126527714Y-140809428D02*
X126527714Y-139285428D01*
X126527714Y-139866000D02*
X126382571Y-139793428D01*
X126092285Y-139793428D01*
X125947142Y-139866000D01*
X125874571Y-139938571D01*
X125802000Y-140083714D01*
X125802000Y-140519142D01*
X125874571Y-140664285D01*
X125947142Y-140736857D01*
X126092285Y-140809428D01*
X126382571Y-140809428D01*
X126527714Y-140736857D01*
X125148857Y-140664285D02*
X125076285Y-140736857D01*
X125148857Y-140809428D01*
X125221428Y-140736857D01*
X125148857Y-140664285D01*
X125148857Y-140809428D01*
X123770000Y-140736857D02*
X123915142Y-140809428D01*
X124205428Y-140809428D01*
X124350571Y-140736857D01*
X124423142Y-140664285D01*
X124495714Y-140519142D01*
X124495714Y-140083714D01*
X124423142Y-139938571D01*
X124350571Y-139866000D01*
X124205428Y-139793428D01*
X123915142Y-139793428D01*
X123770000Y-139866000D01*
X122899142Y-140809428D02*
X123044285Y-140736857D01*
X123116857Y-140664285D01*
X123189428Y-140519142D01*
X123189428Y-140083714D01*
X123116857Y-139938571D01*
X123044285Y-139866000D01*
X122899142Y-139793428D01*
X122681428Y-139793428D01*
X122536285Y-139866000D01*
X122463714Y-139938571D01*
X122391142Y-140083714D01*
X122391142Y-140519142D01*
X122463714Y-140664285D01*
X122536285Y-140736857D01*
X122681428Y-140809428D01*
X122899142Y-140809428D01*
X121738000Y-140809428D02*
X121738000Y-139793428D01*
X121738000Y-139938571D02*
X121665428Y-139866000D01*
X121520285Y-139793428D01*
X121302571Y-139793428D01*
X121157428Y-139866000D01*
X121084857Y-140011142D01*
X121084857Y-140809428D01*
X121084857Y-140011142D02*
X121012285Y-139866000D01*
X120867142Y-139793428D01*
X120649428Y-139793428D01*
X120504285Y-139866000D01*
X120431714Y-140011142D01*
X120431714Y-140809428D01*
X118617428Y-139212857D02*
X119923714Y-141172285D01*
X118254571Y-139793428D02*
X117456285Y-139793428D01*
X118254571Y-140809428D01*
X117456285Y-140809428D01*
X117020857Y-139793428D02*
X116222571Y-139793428D01*
X117020857Y-140809428D01*
X116222571Y-140809428D01*
X114916285Y-140809428D02*
X115642000Y-140809428D01*
X115642000Y-139285428D01*
X114408285Y-140809428D02*
X114408285Y-139793428D01*
X114408285Y-139285428D02*
X114480857Y-139358000D01*
X114408285Y-139430571D01*
X114335714Y-139358000D01*
X114408285Y-139285428D01*
X114408285Y-139430571D01*
X113682571Y-139793428D02*
X113682571Y-140809428D01*
X113682571Y-139938571D02*
X113610000Y-139866000D01*
X113464857Y-139793428D01*
X113247142Y-139793428D01*
X113102000Y-139866000D01*
X113029428Y-140011142D01*
X113029428Y-140809428D01*
X111650571Y-139793428D02*
X111650571Y-140809428D01*
X112303714Y-139793428D02*
X112303714Y-140591714D01*
X112231142Y-140736857D01*
X112086000Y-140809428D01*
X111868285Y-140809428D01*
X111723142Y-140736857D01*
X111650571Y-140664285D01*
X110997428Y-140736857D02*
X110852285Y-140809428D01*
X110562000Y-140809428D01*
X110416857Y-140736857D01*
X110344285Y-140591714D01*
X110344285Y-140519142D01*
X110416857Y-140374000D01*
X110562000Y-140301428D01*
X110779714Y-140301428D01*
X110924857Y-140228857D01*
X110997428Y-140083714D01*
X110997428Y-140011142D01*
X110924857Y-139866000D01*
X110779714Y-139793428D01*
X110562000Y-139793428D01*
X110416857Y-139866000D01*
X108602571Y-139212857D02*
X109908857Y-141172285D01*
X108239714Y-139285428D02*
X107223714Y-139285428D01*
X108239714Y-140809428D01*
X107223714Y-140809428D01*
X106788285Y-139793428D02*
X105990000Y-139793428D01*
X106788285Y-140809428D01*
X105990000Y-140809428D01*
X105482000Y-140736857D02*
X105264285Y-140809428D01*
X104901428Y-140809428D01*
X104756285Y-140736857D01*
X104683714Y-140664285D01*
X104611142Y-140519142D01*
X104611142Y-140374000D01*
X104683714Y-140228857D01*
X104756285Y-140156285D01*
X104901428Y-140083714D01*
X105191714Y-140011142D01*
X105336857Y-139938571D01*
X105409428Y-139866000D01*
X105482000Y-139720857D01*
X105482000Y-139575714D01*
X105409428Y-139430571D01*
X105336857Y-139358000D01*
X105191714Y-139285428D01*
X104828857Y-139285428D01*
X104611142Y-139358000D01*
X103958000Y-139793428D02*
X103958000Y-141317428D01*
X103958000Y-139866000D02*
X103812857Y-139793428D01*
X103522571Y-139793428D01*
X103377428Y-139866000D01*
X103304857Y-139938571D01*
X103232285Y-140083714D01*
X103232285Y-140519142D01*
X103304857Y-140664285D01*
X103377428Y-140736857D01*
X103522571Y-140809428D01*
X103812857Y-140809428D01*
X103958000Y-140736857D01*
X102361428Y-140809428D02*
X102506571Y-140736857D01*
X102579142Y-140591714D01*
X102579142Y-139285428D01*
X101780857Y-140809428D02*
X101780857Y-139793428D01*
X101780857Y-139285428D02*
X101853428Y-139358000D01*
X101780857Y-139430571D01*
X101708285Y-139358000D01*
X101780857Y-139285428D01*
X101780857Y-139430571D01*
X101272857Y-139793428D02*
X100692285Y-139793428D01*
X101055142Y-139285428D02*
X101055142Y-140591714D01*
X100982571Y-140736857D01*
X100837428Y-140809428D01*
X100692285Y-140809428D01*
D13*
X211659809Y-78569607D02*
X211545523Y-78607702D01*
X211507428Y-78645797D01*
X211469333Y-78721988D01*
X211469333Y-78836273D01*
X211507428Y-78912464D01*
X211545523Y-78950559D01*
X211621714Y-78988654D01*
X211926476Y-78988654D01*
X211926476Y-78188654D01*
X211659809Y-78188654D01*
X211583619Y-78226750D01*
X211545523Y-78264845D01*
X211507428Y-78341035D01*
X211507428Y-78417226D01*
X211545523Y-78493416D01*
X211583619Y-78531511D01*
X211659809Y-78569607D01*
X211926476Y-78569607D01*
X210783619Y-78188654D02*
X210936000Y-78188654D01*
X211012190Y-78226750D01*
X211050285Y-78264845D01*
X211126476Y-78379130D01*
X211164571Y-78531511D01*
X211164571Y-78836273D01*
X211126476Y-78912464D01*
X211088380Y-78950559D01*
X211012190Y-78988654D01*
X210859809Y-78988654D01*
X210783619Y-78950559D01*
X210745523Y-78912464D01*
X210707428Y-78836273D01*
X210707428Y-78645797D01*
X210745523Y-78569607D01*
X210783619Y-78531511D01*
X210859809Y-78493416D01*
X211012190Y-78493416D01*
X211088380Y-78531511D01*
X211126476Y-78569607D01*
X211164571Y-78645797D01*
X212402666Y-57868654D02*
X212136000Y-58668654D01*
X211869333Y-57868654D01*
X211145523Y-58592464D02*
X211183619Y-58630559D01*
X211297904Y-58668654D01*
X211374095Y-58668654D01*
X211488380Y-58630559D01*
X211564571Y-58554369D01*
X211602666Y-58478178D01*
X211640761Y-58325797D01*
X211640761Y-58211511D01*
X211602666Y-58059130D01*
X211564571Y-57982940D01*
X211488380Y-57906750D01*
X211374095Y-57868654D01*
X211297904Y-57868654D01*
X211183619Y-57906750D01*
X211145523Y-57944845D01*
X210345523Y-58592464D02*
X210383619Y-58630559D01*
X210497904Y-58668654D01*
X210574095Y-58668654D01*
X210688380Y-58630559D01*
X210764571Y-58554369D01*
X210802666Y-58478178D01*
X210840761Y-58325797D01*
X210840761Y-58211511D01*
X210802666Y-58059130D01*
X210764571Y-57982940D01*
X210688380Y-57906750D01*
X210574095Y-57868654D01*
X210497904Y-57868654D01*
X210383619Y-57906750D01*
X210345523Y-57944845D01*
X201004476Y-61208654D02*
X201004476Y-60408654D01*
X200814000Y-60408654D01*
X200699714Y-60446750D01*
X200623523Y-60522940D01*
X200585428Y-60599130D01*
X200547333Y-60751511D01*
X200547333Y-60865797D01*
X200585428Y-61018178D01*
X200623523Y-61094369D01*
X200699714Y-61170559D01*
X200814000Y-61208654D01*
X201004476Y-61208654D01*
X199785428Y-61208654D02*
X200242571Y-61208654D01*
X200014000Y-61208654D02*
X200014000Y-60408654D01*
X200090190Y-60522940D01*
X200166380Y-60599130D01*
X200242571Y-60637226D01*
X211659809Y-73489607D02*
X211545523Y-73527702D01*
X211507428Y-73565797D01*
X211469333Y-73641988D01*
X211469333Y-73756273D01*
X211507428Y-73832464D01*
X211545523Y-73870559D01*
X211621714Y-73908654D01*
X211926476Y-73908654D01*
X211926476Y-73108654D01*
X211659809Y-73108654D01*
X211583619Y-73146750D01*
X211545523Y-73184845D01*
X211507428Y-73261035D01*
X211507428Y-73337226D01*
X211545523Y-73413416D01*
X211583619Y-73451511D01*
X211659809Y-73489607D01*
X211926476Y-73489607D01*
X211202666Y-73108654D02*
X210707428Y-73108654D01*
X210974095Y-73413416D01*
X210859809Y-73413416D01*
X210783619Y-73451511D01*
X210745523Y-73489607D01*
X210707428Y-73565797D01*
X210707428Y-73756273D01*
X210745523Y-73832464D01*
X210783619Y-73870559D01*
X210859809Y-73908654D01*
X211088380Y-73908654D01*
X211164571Y-73870559D01*
X211202666Y-73832464D01*
X201023523Y-55366750D02*
X201099714Y-55328654D01*
X201214000Y-55328654D01*
X201328285Y-55366750D01*
X201404476Y-55442940D01*
X201442571Y-55519130D01*
X201480666Y-55671511D01*
X201480666Y-55785797D01*
X201442571Y-55938178D01*
X201404476Y-56014369D01*
X201328285Y-56090559D01*
X201214000Y-56128654D01*
X201137809Y-56128654D01*
X201023523Y-56090559D01*
X200985428Y-56052464D01*
X200985428Y-55785797D01*
X201137809Y-55785797D01*
X200642571Y-56128654D02*
X200642571Y-55328654D01*
X200185428Y-56128654D01*
X200185428Y-55328654D01*
X199804476Y-56128654D02*
X199804476Y-55328654D01*
X199614000Y-55328654D01*
X199499714Y-55366750D01*
X199423523Y-55442940D01*
X199385428Y-55519130D01*
X199347333Y-55671511D01*
X199347333Y-55785797D01*
X199385428Y-55938178D01*
X199423523Y-56014369D01*
X199499714Y-56090559D01*
X199614000Y-56128654D01*
X199804476Y-56128654D01*
X200547333Y-68752464D02*
X200585428Y-68790559D01*
X200699714Y-68828654D01*
X200775904Y-68828654D01*
X200890190Y-68790559D01*
X200966380Y-68714369D01*
X201004476Y-68638178D01*
X201042571Y-68485797D01*
X201042571Y-68371511D01*
X201004476Y-68219130D01*
X200966380Y-68142940D01*
X200890190Y-68066750D01*
X200775904Y-68028654D01*
X200699714Y-68028654D01*
X200585428Y-68066750D01*
X200547333Y-68104845D01*
X199861619Y-68028654D02*
X200014000Y-68028654D01*
X200090190Y-68066750D01*
X200128285Y-68104845D01*
X200204476Y-68219130D01*
X200242571Y-68371511D01*
X200242571Y-68676273D01*
X200204476Y-68752464D01*
X200166380Y-68790559D01*
X200090190Y-68828654D01*
X199937809Y-68828654D01*
X199861619Y-68790559D01*
X199823523Y-68752464D01*
X199785428Y-68676273D01*
X199785428Y-68485797D01*
X199823523Y-68409607D01*
X199861619Y-68371511D01*
X199937809Y-68333416D01*
X200090190Y-68333416D01*
X200166380Y-68371511D01*
X200204476Y-68409607D01*
X200242571Y-68485797D01*
X200966380Y-73489607D02*
X200699714Y-73489607D01*
X200585428Y-73908654D02*
X200966380Y-73908654D01*
X200966380Y-73108654D01*
X200585428Y-73108654D01*
X199899714Y-73108654D02*
X200052095Y-73108654D01*
X200128285Y-73146750D01*
X200166380Y-73184845D01*
X200242571Y-73299130D01*
X200280666Y-73451511D01*
X200280666Y-73756273D01*
X200242571Y-73832464D01*
X200204476Y-73870559D01*
X200128285Y-73908654D01*
X199975904Y-73908654D01*
X199899714Y-73870559D01*
X199861619Y-73832464D01*
X199823523Y-73756273D01*
X199823523Y-73565797D01*
X199861619Y-73489607D01*
X199899714Y-73451511D01*
X199975904Y-73413416D01*
X200128285Y-73413416D01*
X200204476Y-73451511D01*
X200242571Y-73489607D01*
X200280666Y-73565797D01*
X204493604Y-50248654D02*
X204036461Y-50248654D01*
X204265032Y-51048654D02*
X204265032Y-50248654D01*
X203845985Y-50248654D02*
X203312651Y-51048654D01*
X203312651Y-50248654D02*
X203845985Y-51048654D01*
X202855508Y-50248654D02*
X202779318Y-50248654D01*
X202703128Y-50286750D01*
X202665032Y-50324845D01*
X202626937Y-50401035D01*
X202588842Y-50553416D01*
X202588842Y-50743892D01*
X202626937Y-50896273D01*
X202665032Y-50972464D01*
X202703128Y-51010559D01*
X202779318Y-51048654D01*
X202855508Y-51048654D01*
X202931699Y-51010559D01*
X202969794Y-50972464D01*
X203007889Y-50896273D01*
X203045985Y-50743892D01*
X203045985Y-50553416D01*
X203007889Y-50401035D01*
X202969794Y-50324845D01*
X202931699Y-50286750D01*
X202855508Y-50248654D01*
X201674556Y-50210559D02*
X202360270Y-51239130D01*
X201407889Y-51048654D02*
X201407889Y-50248654D01*
X201217413Y-50248654D01*
X201103128Y-50286750D01*
X201026937Y-50362940D01*
X200988842Y-50439130D01*
X200950747Y-50591511D01*
X200950747Y-50705797D01*
X200988842Y-50858178D01*
X201026937Y-50934369D01*
X201103128Y-51010559D01*
X201217413Y-51048654D01*
X201407889Y-51048654D01*
X200684080Y-50248654D02*
X200188842Y-50248654D01*
X200455508Y-50553416D01*
X200341223Y-50553416D01*
X200265032Y-50591511D01*
X200226937Y-50629607D01*
X200188842Y-50705797D01*
X200188842Y-50896273D01*
X200226937Y-50972464D01*
X200265032Y-51010559D01*
X200341223Y-51048654D01*
X200569794Y-51048654D01*
X200645985Y-51010559D01*
X200684080Y-50972464D01*
X211602666Y-65869607D02*
X211869333Y-65869607D01*
X211869333Y-66288654D02*
X211869333Y-65488654D01*
X211488380Y-65488654D01*
X210840761Y-65488654D02*
X210993142Y-65488654D01*
X211069333Y-65526750D01*
X211107428Y-65564845D01*
X211183619Y-65679130D01*
X211221714Y-65831511D01*
X211221714Y-66136273D01*
X211183619Y-66212464D01*
X211145523Y-66250559D01*
X211069333Y-66288654D01*
X210916952Y-66288654D01*
X210840761Y-66250559D01*
X210802666Y-66212464D01*
X210764571Y-66136273D01*
X210764571Y-65945797D01*
X210802666Y-65869607D01*
X210840761Y-65831511D01*
X210916952Y-65793416D01*
X211069333Y-65793416D01*
X211145523Y-65831511D01*
X211183619Y-65869607D01*
X211221714Y-65945797D01*
X211945523Y-52826750D02*
X212021714Y-52788654D01*
X212136000Y-52788654D01*
X212250285Y-52826750D01*
X212326476Y-52902940D01*
X212364571Y-52979130D01*
X212402666Y-53131511D01*
X212402666Y-53245797D01*
X212364571Y-53398178D01*
X212326476Y-53474369D01*
X212250285Y-53550559D01*
X212136000Y-53588654D01*
X212059809Y-53588654D01*
X211945523Y-53550559D01*
X211907428Y-53512464D01*
X211907428Y-53245797D01*
X212059809Y-53245797D01*
X211564571Y-53588654D02*
X211564571Y-52788654D01*
X211107428Y-53588654D01*
X211107428Y-52788654D01*
X210726476Y-53588654D02*
X210726476Y-52788654D01*
X210536000Y-52788654D01*
X210421714Y-52826750D01*
X210345523Y-52902940D01*
X210307428Y-52979130D01*
X210269333Y-53131511D01*
X210269333Y-53245797D01*
X210307428Y-53398178D01*
X210345523Y-53474369D01*
X210421714Y-53550559D01*
X210536000Y-53588654D01*
X210726476Y-53588654D01*
X201004476Y-71368654D02*
X201004476Y-70568654D01*
X200814000Y-70568654D01*
X200699714Y-70606750D01*
X200623523Y-70682940D01*
X200585428Y-70759130D01*
X200547333Y-70911511D01*
X200547333Y-71025797D01*
X200585428Y-71178178D01*
X200623523Y-71254369D01*
X200699714Y-71330559D01*
X200814000Y-71368654D01*
X201004476Y-71368654D01*
X200280666Y-70568654D02*
X199747333Y-70568654D01*
X200090190Y-71368654D01*
X201004476Y-63748654D02*
X201004476Y-62948654D01*
X200814000Y-62948654D01*
X200699714Y-62986750D01*
X200623523Y-63062940D01*
X200585428Y-63139130D01*
X200547333Y-63291511D01*
X200547333Y-63405797D01*
X200585428Y-63558178D01*
X200623523Y-63634369D01*
X200699714Y-63710559D01*
X200814000Y-63748654D01*
X201004476Y-63748654D01*
X200052095Y-62948654D02*
X199975904Y-62948654D01*
X199899714Y-62986750D01*
X199861619Y-63024845D01*
X199823523Y-63101035D01*
X199785428Y-63253416D01*
X199785428Y-63443892D01*
X199823523Y-63596273D01*
X199861619Y-63672464D01*
X199899714Y-63710559D01*
X199975904Y-63748654D01*
X200052095Y-63748654D01*
X200128285Y-63710559D01*
X200166380Y-63672464D01*
X200204476Y-63596273D01*
X200242571Y-63443892D01*
X200242571Y-63253416D01*
X200204476Y-63101035D01*
X200166380Y-63024845D01*
X200128285Y-62986750D01*
X200052095Y-62948654D01*
X200737809Y-78569607D02*
X200623523Y-78607702D01*
X200585428Y-78645797D01*
X200547333Y-78721988D01*
X200547333Y-78836273D01*
X200585428Y-78912464D01*
X200623523Y-78950559D01*
X200699714Y-78988654D01*
X201004476Y-78988654D01*
X201004476Y-78188654D01*
X200737809Y-78188654D01*
X200661619Y-78226750D01*
X200623523Y-78264845D01*
X200585428Y-78341035D01*
X200585428Y-78417226D01*
X200623523Y-78493416D01*
X200661619Y-78531511D01*
X200737809Y-78569607D01*
X201004476Y-78569607D01*
X199823523Y-78188654D02*
X200204476Y-78188654D01*
X200242571Y-78569607D01*
X200204476Y-78531511D01*
X200128285Y-78493416D01*
X199937809Y-78493416D01*
X199861619Y-78531511D01*
X199823523Y-78569607D01*
X199785428Y-78645797D01*
X199785428Y-78836273D01*
X199823523Y-78912464D01*
X199861619Y-78950559D01*
X199937809Y-78988654D01*
X200128285Y-78988654D01*
X200204476Y-78950559D01*
X200242571Y-78912464D01*
X200737809Y-76029607D02*
X200623523Y-76067702D01*
X200585428Y-76105797D01*
X200547333Y-76181988D01*
X200547333Y-76296273D01*
X200585428Y-76372464D01*
X200623523Y-76410559D01*
X200699714Y-76448654D01*
X201004476Y-76448654D01*
X201004476Y-75648654D01*
X200737809Y-75648654D01*
X200661619Y-75686750D01*
X200623523Y-75724845D01*
X200585428Y-75801035D01*
X200585428Y-75877226D01*
X200623523Y-75953416D01*
X200661619Y-75991511D01*
X200737809Y-76029607D01*
X201004476Y-76029607D01*
X199861619Y-75915321D02*
X199861619Y-76448654D01*
X200052095Y-75610559D02*
X200242571Y-76181988D01*
X199747333Y-76181988D01*
X201004476Y-66288654D02*
X201004476Y-65488654D01*
X200814000Y-65488654D01*
X200699714Y-65526750D01*
X200623523Y-65602940D01*
X200585428Y-65679130D01*
X200547333Y-65831511D01*
X200547333Y-65945797D01*
X200585428Y-66098178D01*
X200623523Y-66174369D01*
X200699714Y-66250559D01*
X200814000Y-66288654D01*
X201004476Y-66288654D01*
X199861619Y-65755321D02*
X199861619Y-66288654D01*
X200052095Y-65450559D02*
X200242571Y-66021988D01*
X199747333Y-66021988D01*
X201004476Y-53588654D02*
X201004476Y-52788654D01*
X200814000Y-52788654D01*
X200699714Y-52826750D01*
X200623523Y-52902940D01*
X200585428Y-52979130D01*
X200547333Y-53131511D01*
X200547333Y-53245797D01*
X200585428Y-53398178D01*
X200623523Y-53474369D01*
X200699714Y-53550559D01*
X200814000Y-53588654D01*
X201004476Y-53588654D01*
X200242571Y-52864845D02*
X200204476Y-52826750D01*
X200128285Y-52788654D01*
X199937809Y-52788654D01*
X199861619Y-52826750D01*
X199823523Y-52864845D01*
X199785428Y-52941035D01*
X199785428Y-53017226D01*
X199823523Y-53131511D01*
X200280666Y-53588654D01*
X199785428Y-53588654D01*
X211602666Y-63329607D02*
X211869333Y-63329607D01*
X211869333Y-63748654D02*
X211869333Y-62948654D01*
X211488380Y-62948654D01*
X210802666Y-62948654D02*
X211183619Y-62948654D01*
X211221714Y-63329607D01*
X211183619Y-63291511D01*
X211107428Y-63253416D01*
X210916952Y-63253416D01*
X210840761Y-63291511D01*
X210802666Y-63329607D01*
X210764571Y-63405797D01*
X210764571Y-63596273D01*
X210802666Y-63672464D01*
X210840761Y-63710559D01*
X210916952Y-63748654D01*
X211107428Y-63748654D01*
X211183619Y-63710559D01*
X211221714Y-63672464D01*
X211602666Y-68409607D02*
X211869333Y-68409607D01*
X211869333Y-68828654D02*
X211869333Y-68028654D01*
X211488380Y-68028654D01*
X211259809Y-68028654D02*
X210726476Y-68028654D01*
X211069333Y-68828654D01*
X201023523Y-57906750D02*
X201099714Y-57868654D01*
X201214000Y-57868654D01*
X201328285Y-57906750D01*
X201404476Y-57982940D01*
X201442571Y-58059130D01*
X201480666Y-58211511D01*
X201480666Y-58325797D01*
X201442571Y-58478178D01*
X201404476Y-58554369D01*
X201328285Y-58630559D01*
X201214000Y-58668654D01*
X201137809Y-58668654D01*
X201023523Y-58630559D01*
X200985428Y-58592464D01*
X200985428Y-58325797D01*
X201137809Y-58325797D01*
X200642571Y-58668654D02*
X200642571Y-57868654D01*
X200185428Y-58668654D01*
X200185428Y-57868654D01*
X199804476Y-58668654D02*
X199804476Y-57868654D01*
X199614000Y-57868654D01*
X199499714Y-57906750D01*
X199423523Y-57982940D01*
X199385428Y-58059130D01*
X199347333Y-58211511D01*
X199347333Y-58325797D01*
X199385428Y-58478178D01*
X199423523Y-58554369D01*
X199499714Y-58630559D01*
X199614000Y-58668654D01*
X199804476Y-58668654D01*
X211659809Y-70949607D02*
X211545523Y-70987702D01*
X211507428Y-71025797D01*
X211469333Y-71101988D01*
X211469333Y-71216273D01*
X211507428Y-71292464D01*
X211545523Y-71330559D01*
X211621714Y-71368654D01*
X211926476Y-71368654D01*
X211926476Y-70568654D01*
X211659809Y-70568654D01*
X211583619Y-70606750D01*
X211545523Y-70644845D01*
X211507428Y-70721035D01*
X211507428Y-70797226D01*
X211545523Y-70873416D01*
X211583619Y-70911511D01*
X211659809Y-70949607D01*
X211926476Y-70949607D01*
X210707428Y-71368654D02*
X211164571Y-71368654D01*
X210936000Y-71368654D02*
X210936000Y-70568654D01*
X211012190Y-70682940D01*
X211088380Y-70759130D01*
X211164571Y-70797226D01*
X211448333Y-56070559D02*
X211334047Y-56108654D01*
X211143571Y-56108654D01*
X211067380Y-56070559D01*
X211029285Y-56032464D01*
X210991190Y-55956273D01*
X210991190Y-55880083D01*
X211029285Y-55803892D01*
X211067380Y-55765797D01*
X211143571Y-55727702D01*
X211295952Y-55689607D01*
X211372142Y-55651511D01*
X211410238Y-55613416D01*
X211448333Y-55537226D01*
X211448333Y-55461035D01*
X211410238Y-55384845D01*
X211372142Y-55346750D01*
X211295952Y-55308654D01*
X211105476Y-55308654D01*
X210991190Y-55346750D01*
X210762619Y-55308654D02*
X210305476Y-55308654D01*
X210534047Y-56108654D02*
X210534047Y-55308654D01*
X211602666Y-60789607D02*
X211869333Y-60789607D01*
X211869333Y-61208654D02*
X211869333Y-60408654D01*
X211488380Y-60408654D01*
X210840761Y-60675321D02*
X210840761Y-61208654D01*
X211031238Y-60370559D02*
X211221714Y-60941988D01*
X210726476Y-60941988D01*
X211659809Y-76029607D02*
X211545523Y-76067702D01*
X211507428Y-76105797D01*
X211469333Y-76181988D01*
X211469333Y-76296273D01*
X211507428Y-76372464D01*
X211545523Y-76410559D01*
X211621714Y-76448654D01*
X211926476Y-76448654D01*
X211926476Y-75648654D01*
X211659809Y-75648654D01*
X211583619Y-75686750D01*
X211545523Y-75724845D01*
X211507428Y-75801035D01*
X211507428Y-75877226D01*
X211545523Y-75953416D01*
X211583619Y-75991511D01*
X211659809Y-76029607D01*
X211926476Y-76029607D01*
X211164571Y-75724845D02*
X211126476Y-75686750D01*
X211050285Y-75648654D01*
X210859809Y-75648654D01*
X210783619Y-75686750D01*
X210745523Y-75724845D01*
X210707428Y-75801035D01*
X210707428Y-75877226D01*
X210745523Y-75991511D01*
X211202666Y-76448654D01*
X210707428Y-76448654D01*
X211888380Y-51048654D02*
X212155047Y-50667702D01*
X212345523Y-51048654D02*
X212345523Y-50248654D01*
X212040761Y-50248654D01*
X211964571Y-50286750D01*
X211926476Y-50324845D01*
X211888380Y-50401035D01*
X211888380Y-50515321D01*
X211926476Y-50591511D01*
X211964571Y-50629607D01*
X212040761Y-50667702D01*
X212345523Y-50667702D01*
X211583619Y-50820083D02*
X211202666Y-50820083D01*
X211659809Y-51048654D02*
X211393142Y-50248654D01*
X211126476Y-51048654D01*
X210936000Y-50248654D02*
X210745523Y-51048654D01*
X210593142Y-50477226D01*
X210440761Y-51048654D01*
X210250285Y-50248654D01*
D14*
X148684761Y-140747142D02*
X148637142Y-140794761D01*
X148684761Y-140842380D01*
X148732380Y-140794761D01*
X148684761Y-140747142D01*
X148684761Y-140842380D01*
X148351428Y-139842380D02*
X148018095Y-140842380D01*
X147684761Y-139842380D01*
X146827619Y-140842380D02*
X147399047Y-140842380D01*
X147113333Y-140842380D02*
X147113333Y-139842380D01*
X147208571Y-139985238D01*
X147303809Y-140080476D01*
X147399047Y-140128095D01*
D13*
X158020000Y-126580000D02*
X156520000Y-126580000D01*
X156520000Y-126580000D02*
X156520000Y-131980000D01*
X156520000Y-131980000D02*
X158020000Y-131980000D01*
X156770000Y-129780000D02*
X157770000Y-129780000D01*
X157270000Y-129680000D02*
X156770000Y-128780000D01*
X158020000Y-131980000D02*
X158020000Y-126580000D01*
X157770000Y-128780000D02*
X157270000Y-129680000D01*
X156770000Y-128780000D02*
X157770000Y-128780000D01*
D12*
X123715800Y-65700000D02*
X121265800Y-65700000D01*
X121265800Y-64250000D02*
X123685800Y-64250000D01*
X121265800Y-65700000D02*
X121265800Y-64250000D01*
X123715800Y-64250000D02*
X123715800Y-65700000D01*
D15*
X70200000Y-97050001D02*
X70200000Y-96350001D01*
D12*
X75970600Y-89250001D02*
X75970600Y-87800001D01*
D16*
X80300000Y-94450001D02*
X77600000Y-94450001D01*
D13*
X70000000Y-99750001D02*
X78400001Y-99750001D01*
D16*
X70300000Y-96450001D02*
X71700000Y-96450001D01*
D13*
X70200000Y-99400001D02*
X70000000Y-99400001D01*
X80500000Y-97850001D02*
X80500000Y-96850001D01*
X70220000Y-97150001D02*
X70220000Y-99400001D01*
D17*
X78770000Y-98250001D02*
X78770000Y-96010001D01*
D13*
X80270000Y-96850001D02*
X80270000Y-94610001D01*
D15*
X70200000Y-99550001D02*
X71600000Y-99550001D01*
D18*
X72000000Y-97950001D02*
X78700000Y-97950001D01*
D19*
X79900000Y-94750001D02*
X79900000Y-96550000D01*
D13*
X70000000Y-99400001D02*
X70000000Y-99750001D01*
X80300000Y-94610001D02*
X80500000Y-94610001D01*
D12*
X80400000Y-96950002D02*
X80400000Y-97850001D01*
D13*
X70000000Y-97150001D02*
X70200000Y-97150001D01*
X80500000Y-96850001D02*
X80300000Y-96850001D01*
D20*
X70700000Y-99150001D02*
X70700000Y-96650001D01*
D12*
X78020600Y-89250001D02*
X75970600Y-89250001D01*
D13*
X80500000Y-94250001D02*
X80500000Y-94610001D01*
X75000000Y-96150001D02*
X70000000Y-96150001D01*
D12*
X75970600Y-87800001D02*
X78020600Y-87800001D01*
D13*
X70000000Y-96150001D02*
X70000000Y-97150001D01*
X80500000Y-94250001D02*
X77220000Y-94250001D01*
D12*
X78020600Y-87800001D02*
X78020600Y-89250001D01*
D13*
X75000000Y-96150001D02*
G75*
G03*
X77216318Y-94271472I65001J2169999D01*
G01*
D20*
X75400000Y-96550001D02*
G75*
G03*
X77616318Y-94671472I65001J2169999D01*
G01*
D13*
X78400001Y-99750002D02*
G75*
G03*
X80500000Y-97850000I100000J1999999D01*
G01*
D12*
X189940600Y-106890000D02*
X189940600Y-108340000D01*
D13*
X192190000Y-115940000D02*
X192190000Y-113700000D01*
D19*
X191820000Y-113840000D02*
X191820000Y-115639999D01*
D12*
X187890600Y-108340000D02*
X187890600Y-106890000D01*
D13*
X186920000Y-115240000D02*
X181920000Y-115240000D01*
D15*
X182120000Y-118640000D02*
X183520000Y-118640000D01*
D16*
X192220000Y-113540000D02*
X189520000Y-113540000D01*
D18*
X183920000Y-117040000D02*
X190620000Y-117040000D01*
D13*
X192420000Y-113340000D02*
X192420000Y-113700000D01*
X181920000Y-115240000D02*
X181920000Y-116240000D01*
X182120000Y-118490000D02*
X181920000Y-118490000D01*
D17*
X190690000Y-117340000D02*
X190690000Y-115100000D01*
D16*
X182220000Y-115540000D02*
X183620000Y-115540000D01*
D20*
X182620000Y-118240000D02*
X182620000Y-115740000D01*
D13*
X181920000Y-118490000D02*
X181920000Y-118840000D01*
D12*
X189940600Y-108340000D02*
X187890600Y-108340000D01*
D13*
X192420000Y-115940000D02*
X192220000Y-115940000D01*
D15*
X182120000Y-116140000D02*
X182120000Y-115440000D01*
D13*
X181920000Y-116240000D02*
X182120000Y-116240000D01*
X192420000Y-116940000D02*
X192420000Y-115940000D01*
X192420000Y-113340000D02*
X189140000Y-113340000D01*
X181920000Y-118840000D02*
X190320001Y-118840000D01*
X192220000Y-113700000D02*
X192420000Y-113700000D01*
D12*
X192320000Y-116040001D02*
X192320000Y-116940000D01*
D13*
X182140000Y-116240000D02*
X182140000Y-118490000D01*
D12*
X187890600Y-106890000D02*
X189940600Y-106890000D01*
D20*
X187320000Y-115640000D02*
G75*
G03*
X189536318Y-113761471I65001J2169999D01*
G01*
D13*
X190320001Y-118840001D02*
G75*
G03*
X192420000Y-116939999I100000J1999999D01*
G01*
X186920000Y-115240000D02*
G75*
G03*
X189136318Y-113361471I65001J2169999D01*
G01*
X129540000Y-80360000D02*
X129540000Y-80710000D01*
X129760000Y-78110000D02*
X129760000Y-80360000D01*
D19*
X139440000Y-75710000D02*
X139440000Y-77509999D01*
D16*
X139840000Y-75410000D02*
X137140000Y-75410000D01*
D15*
X129740000Y-80510000D02*
X131140000Y-80510000D01*
D13*
X139810000Y-77810000D02*
X139810000Y-75570000D01*
X140040000Y-75210000D02*
X140040000Y-75570000D01*
X129540000Y-80710000D02*
X137940001Y-80710000D01*
D15*
X129740000Y-78010000D02*
X129740000Y-77310000D01*
D13*
X139840000Y-75570000D02*
X140040000Y-75570000D01*
D12*
X135510600Y-68760000D02*
X137560600Y-68760000D01*
D13*
X129540000Y-78110000D02*
X129740000Y-78110000D01*
D12*
X137560600Y-68760000D02*
X137560600Y-70210000D01*
D13*
X129540000Y-77110000D02*
X129540000Y-78110000D01*
D12*
X139940000Y-77910001D02*
X139940000Y-78810000D01*
D13*
X140040000Y-77810000D02*
X139840000Y-77810000D01*
X134540000Y-77110000D02*
X129540000Y-77110000D01*
X140040000Y-78810000D02*
X140040000Y-77810000D01*
D12*
X135510600Y-70210000D02*
X135510600Y-68760000D01*
D20*
X130240000Y-80110000D02*
X130240000Y-77610000D01*
D16*
X129840000Y-77410000D02*
X131240000Y-77410000D01*
D18*
X131540000Y-78910000D02*
X138240000Y-78910000D01*
D12*
X137560600Y-70210000D02*
X135510600Y-70210000D01*
D17*
X138310000Y-79210000D02*
X138310000Y-76970000D01*
D13*
X140040000Y-75210000D02*
X136760000Y-75210000D01*
X129740000Y-80360000D02*
X129540000Y-80360000D01*
D20*
X134940000Y-77510000D02*
G75*
G03*
X137156318Y-75631471I65001J2169999D01*
G01*
D13*
X137940001Y-80710001D02*
G75*
G03*
X140040000Y-78809999I100000J1999999D01*
G01*
X134540000Y-77110000D02*
G75*
G03*
X136756318Y-75231471I65001J2169999D01*
G01*
X122360000Y-109450000D02*
X121860000Y-110350000D01*
X121110000Y-112650000D02*
X122610000Y-112650000D01*
X121360000Y-109450000D02*
X122360000Y-109450000D01*
X122610000Y-112650000D02*
X122610000Y-107250000D01*
X122610000Y-107250000D02*
X121110000Y-107250000D01*
X121110000Y-107250000D02*
X121110000Y-112650000D01*
X121360000Y-110450000D02*
X122360000Y-110450000D01*
X121860000Y-110350000D02*
X121360000Y-109450000D01*
X163850000Y-94280000D02*
X163850000Y-94640000D01*
X153350000Y-97180000D02*
X153550000Y-97180000D01*
D15*
X153550000Y-99580000D02*
X154950000Y-99580000D01*
D13*
X163650000Y-94640000D02*
X163850000Y-94640000D01*
X163850000Y-96880000D02*
X163650000Y-96880000D01*
X158350000Y-96180000D02*
X153350000Y-96180000D01*
D12*
X159320600Y-89280000D02*
X159320600Y-87830000D01*
D13*
X153350000Y-96180000D02*
X153350000Y-97180000D01*
D20*
X154050000Y-99180000D02*
X154050000Y-96680000D01*
D19*
X163250000Y-94780000D02*
X163250000Y-96579999D01*
D13*
X153570000Y-97180000D02*
X153570000Y-99430000D01*
X163620000Y-96880000D02*
X163620000Y-94640000D01*
D16*
X163650000Y-94480000D02*
X160950000Y-94480000D01*
D17*
X162120000Y-98280000D02*
X162120000Y-96040000D01*
D13*
X153550000Y-99430000D02*
X153350000Y-99430000D01*
D16*
X153650000Y-96480000D02*
X155050000Y-96480000D01*
D13*
X163850000Y-94280000D02*
X160570000Y-94280000D01*
X163850000Y-97880000D02*
X163850000Y-96880000D01*
D12*
X161370600Y-89280000D02*
X159320600Y-89280000D01*
D13*
X153350000Y-99780000D02*
X161750001Y-99780000D01*
X153350000Y-99430000D02*
X153350000Y-99780000D01*
D15*
X153550000Y-97080000D02*
X153550000Y-96380000D01*
D12*
X159320600Y-87830000D02*
X161370600Y-87830000D01*
X163750000Y-96980001D02*
X163750000Y-97880000D01*
D18*
X155350000Y-97980000D02*
X162050000Y-97980000D01*
D12*
X161370600Y-87830000D02*
X161370600Y-89280000D01*
D20*
X158750000Y-96580000D02*
G75*
G03*
X160966318Y-94701471I65001J2169999D01*
G01*
D13*
X158350000Y-96180000D02*
G75*
G03*
X160566318Y-94301471I65001J2169999D01*
G01*
X161750001Y-99780001D02*
G75*
G03*
X163850000Y-97879999I100000J1999999D01*
G01*
D12*
X142767900Y-129530000D02*
X140317900Y-129530000D01*
X140317900Y-128080000D02*
X142737900Y-128080000D01*
X140317900Y-129530000D02*
X140317900Y-128080000D01*
X142767900Y-128080000D02*
X142767900Y-129530000D01*
D13*
X98530000Y-55225000D02*
X98530000Y-49825000D01*
X97280000Y-52025000D02*
X98280000Y-52025000D01*
X97780000Y-52925000D02*
X97280000Y-52025000D01*
X97030000Y-55225000D02*
X98530000Y-55225000D01*
X98530000Y-49825000D02*
X97030000Y-49825000D01*
X98280000Y-52025000D02*
X97780000Y-52925000D01*
X97030000Y-49825000D02*
X97030000Y-55225000D01*
X97280000Y-53025000D02*
X98280000Y-53025000D01*
X92760000Y-91495000D02*
X92260000Y-90595000D01*
X93260000Y-90595000D02*
X92760000Y-91495000D01*
X92260000Y-91595000D02*
X93260000Y-91595000D01*
X92260000Y-90595000D02*
X93260000Y-90595000D01*
X92010000Y-88395000D02*
X92010000Y-93795000D01*
X92010000Y-93795000D02*
X93510000Y-93795000D01*
X93510000Y-88395000D02*
X92010000Y-88395000D01*
X93510000Y-93795000D02*
X93510000Y-88395000D01*
X127810000Y-68590000D02*
X126310000Y-68590000D01*
X127060000Y-71690000D02*
X126560000Y-70790000D01*
X127560000Y-70790000D02*
X127060000Y-71690000D01*
X126560000Y-70790000D02*
X127560000Y-70790000D01*
X126560000Y-71790000D02*
X127560000Y-71790000D01*
X126310000Y-73990000D02*
X127810000Y-73990000D01*
X127810000Y-73990000D02*
X127810000Y-68590000D01*
X126310000Y-68590000D02*
X126310000Y-73990000D01*
X135250000Y-55360000D02*
X136750000Y-55360000D01*
X136500000Y-52160000D02*
X136000000Y-53060000D01*
X136000000Y-53060000D02*
X135500000Y-52160000D01*
X136750000Y-49960000D02*
X135250000Y-49960000D01*
X135250000Y-49960000D02*
X135250000Y-55360000D01*
X135500000Y-52160000D02*
X136500000Y-52160000D01*
X135500000Y-53160000D02*
X136500000Y-53160000D01*
X136750000Y-55360000D02*
X136750000Y-49960000D01*
X92200000Y-131810000D02*
X93700000Y-131810000D01*
X93700000Y-126410000D02*
X92200000Y-126410000D01*
X93700000Y-131810000D02*
X93700000Y-126410000D01*
X92450000Y-128610000D02*
X93450000Y-128610000D01*
X92950000Y-129510000D02*
X92450000Y-128610000D01*
X92200000Y-126410000D02*
X92200000Y-131810000D01*
X93450000Y-128610000D02*
X92950000Y-129510000D01*
X92450000Y-129610000D02*
X93450000Y-129610000D01*
X206690000Y-132400000D02*
X203410000Y-132400000D01*
D16*
X196490000Y-134600000D02*
X197890000Y-134600000D01*
D13*
X196190000Y-135300000D02*
X196390000Y-135300000D01*
X206690000Y-132400000D02*
X206690000Y-132760000D01*
D12*
X204210600Y-125950000D02*
X204210600Y-127400000D01*
D19*
X206090000Y-132900000D02*
X206090000Y-134699999D01*
D20*
X196890000Y-137300000D02*
X196890000Y-134800000D01*
D18*
X198190000Y-136100000D02*
X204890000Y-136100000D01*
D15*
X196390000Y-135200000D02*
X196390000Y-134500000D01*
D12*
X204210600Y-127400000D02*
X202160600Y-127400000D01*
X202160600Y-127400000D02*
X202160600Y-125950000D01*
D15*
X196390000Y-137700000D02*
X197790000Y-137700000D01*
D16*
X206490000Y-132600000D02*
X203790000Y-132600000D01*
D13*
X206490000Y-132760000D02*
X206690000Y-132760000D01*
X206690000Y-135000000D02*
X206490000Y-135000000D01*
X196410000Y-135300000D02*
X196410000Y-137550000D01*
X196190000Y-134300000D02*
X196190000Y-135300000D01*
X196390000Y-137550000D02*
X196190000Y-137550000D01*
X201190000Y-134300000D02*
X196190000Y-134300000D01*
D12*
X206590000Y-135100001D02*
X206590000Y-136000000D01*
X202160600Y-125950000D02*
X204210600Y-125950000D01*
D17*
X204960000Y-136400000D02*
X204960000Y-134160000D01*
D13*
X196190000Y-137900000D02*
X204590001Y-137900000D01*
X196190000Y-137550000D02*
X196190000Y-137900000D01*
X206460000Y-135000000D02*
X206460000Y-132760000D01*
X206690000Y-136000000D02*
X206690000Y-135000000D01*
X204590001Y-137900001D02*
G75*
G03*
X206690000Y-135999999I100000J1999999D01*
G01*
D20*
X201590000Y-134700000D02*
G75*
G03*
X203806318Y-132821471I65001J2169999D01*
G01*
D13*
X201190000Y-134300000D02*
G75*
G03*
X203406318Y-132421471I65001J2169999D01*
G01*
X88700000Y-71015000D02*
X88200000Y-71915000D01*
X87700000Y-71015000D02*
X88700000Y-71015000D01*
X88200000Y-71915000D02*
X87700000Y-71015000D01*
X87450000Y-74215000D02*
X88950000Y-74215000D01*
X88950000Y-68815000D02*
X87450000Y-68815000D01*
X87450000Y-68815000D02*
X87450000Y-74215000D01*
X88950000Y-74215000D02*
X88950000Y-68815000D01*
X87700000Y-72015000D02*
X88700000Y-72015000D01*
X162850000Y-118830000D02*
X171250001Y-118830000D01*
X173350000Y-113330000D02*
X173350000Y-113690000D01*
D12*
X170870600Y-106880000D02*
X170870600Y-108330000D01*
D15*
X163050000Y-116130000D02*
X163050000Y-115430000D01*
D13*
X162850000Y-118480000D02*
X162850000Y-118830000D01*
D18*
X164850000Y-117030000D02*
X171550000Y-117030000D01*
D13*
X163050000Y-118480000D02*
X162850000Y-118480000D01*
D16*
X173150000Y-113530000D02*
X170450000Y-113530000D01*
D13*
X173350000Y-113330000D02*
X170070000Y-113330000D01*
X173150000Y-113690000D02*
X173350000Y-113690000D01*
D12*
X170870600Y-108330000D02*
X168820600Y-108330000D01*
D20*
X163550000Y-118230000D02*
X163550000Y-115730000D01*
D16*
X163150000Y-115530000D02*
X164550000Y-115530000D01*
D13*
X162850000Y-116230000D02*
X163050000Y-116230000D01*
X163070000Y-116230000D02*
X163070000Y-118480000D01*
D12*
X168820600Y-106880000D02*
X170870600Y-106880000D01*
D13*
X173350000Y-115930000D02*
X173150000Y-115930000D01*
D15*
X163050000Y-118630000D02*
X164450000Y-118630000D01*
D13*
X162850000Y-115230000D02*
X162850000Y-116230000D01*
D17*
X171620000Y-117330000D02*
X171620000Y-115090000D01*
D13*
X167850000Y-115230000D02*
X162850000Y-115230000D01*
X173350000Y-116930000D02*
X173350000Y-115930000D01*
D12*
X173250000Y-116030001D02*
X173250000Y-116930000D01*
X168820600Y-108330000D02*
X168820600Y-106880000D01*
D19*
X172750000Y-113830000D02*
X172750000Y-115629999D01*
D13*
X173120000Y-115930000D02*
X173120000Y-113690000D01*
D20*
X168250000Y-115630000D02*
G75*
G03*
X170466318Y-113751471I65001J2169999D01*
G01*
D13*
X167850000Y-115230000D02*
G75*
G03*
X170066318Y-113351471I65001J2169999D01*
G01*
X171250001Y-118830001D02*
G75*
G03*
X173350000Y-116929999I100000J1999999D01*
G01*
D20*
X63540000Y-61050000D02*
X63540000Y-58550000D01*
D12*
X73240000Y-58850001D02*
X73240000Y-59750000D01*
D13*
X73340000Y-56150000D02*
X70060000Y-56150000D01*
D12*
X68810600Y-49700000D02*
X70860600Y-49700000D01*
X68810600Y-51150000D02*
X68810600Y-49700000D01*
D13*
X67840000Y-58050000D02*
X62840000Y-58050000D01*
X73340000Y-56150000D02*
X73340000Y-56510000D01*
X73140000Y-56510000D02*
X73340000Y-56510000D01*
D18*
X64840000Y-59850000D02*
X71540000Y-59850000D01*
D13*
X62840000Y-61650000D02*
X71240001Y-61650000D01*
X73340000Y-58750000D02*
X73140000Y-58750000D01*
D12*
X70860600Y-49700000D02*
X70860600Y-51150000D01*
D15*
X63040000Y-58950000D02*
X63040000Y-58250000D01*
D12*
X70860600Y-51150000D02*
X68810600Y-51150000D01*
D15*
X63040000Y-61450000D02*
X64440000Y-61450000D01*
D13*
X73110000Y-58750000D02*
X73110000Y-56510000D01*
X62840000Y-59050000D02*
X63040000Y-59050000D01*
X62840000Y-61300000D02*
X62840000Y-61650000D01*
X62840000Y-58050000D02*
X62840000Y-59050000D01*
D19*
X72740000Y-56650000D02*
X72740000Y-58449999D01*
D17*
X71610000Y-60150000D02*
X71610000Y-57910000D01*
D16*
X73140000Y-56350000D02*
X70440000Y-56350000D01*
X63140000Y-58350000D02*
X64540000Y-58350000D01*
D13*
X63040000Y-61300000D02*
X62840000Y-61300000D01*
X63060000Y-59050000D02*
X63060000Y-61300000D01*
X73340000Y-59750000D02*
X73340000Y-58750000D01*
X67840000Y-58050000D02*
G75*
G03*
X70056318Y-56171471I65001J2169999D01*
G01*
D20*
X68240000Y-58450000D02*
G75*
G03*
X70456318Y-56571471I65001J2169999D01*
G01*
D13*
X71240001Y-61650001D02*
G75*
G03*
X73340000Y-59749999I100000J1999999D01*
G01*
X140480000Y-105680000D02*
X140480000Y-111080000D01*
X141980000Y-111080000D02*
X141980000Y-105680000D01*
X141730000Y-107880000D02*
X141230000Y-108780000D01*
X141980000Y-105680000D02*
X140480000Y-105680000D01*
X141230000Y-108780000D02*
X140730000Y-107880000D01*
X140730000Y-108880000D02*
X141730000Y-108880000D01*
X140730000Y-107880000D02*
X141730000Y-107880000D01*
X140480000Y-111080000D02*
X141980000Y-111080000D01*
X169820000Y-93110000D02*
X169820000Y-87710000D01*
X168320000Y-87710000D02*
X168320000Y-93110000D01*
X168570000Y-89910000D02*
X169570000Y-89910000D01*
X169820000Y-87710000D02*
X168320000Y-87710000D01*
X168320000Y-93110000D02*
X169820000Y-93110000D01*
X169070000Y-90810000D02*
X168570000Y-89910000D01*
X168570000Y-90910000D02*
X169570000Y-90910000D01*
X169570000Y-89910000D02*
X169070000Y-90810000D01*
X131170000Y-90110000D02*
X132170000Y-90110000D01*
X132420000Y-93310000D02*
X132420000Y-87910000D01*
X130920000Y-93310000D02*
X132420000Y-93310000D01*
X130920000Y-87910000D02*
X130920000Y-93310000D01*
X131170000Y-91110000D02*
X132170000Y-91110000D01*
X132170000Y-90110000D02*
X131670000Y-91010000D01*
X132420000Y-87910000D02*
X130920000Y-87910000D01*
X131670000Y-91010000D02*
X131170000Y-90110000D01*
D12*
X202565800Y-53770000D02*
X204985800Y-53770000D01*
X205015800Y-53770000D02*
X205015800Y-55220000D01*
X202565800Y-55220000D02*
X202565800Y-53770000D01*
X205015800Y-55220000D02*
X202565800Y-55220000D01*
D13*
X173940000Y-52085000D02*
X173440000Y-52985000D01*
X172690000Y-55285000D02*
X174190000Y-55285000D01*
X172940000Y-52085000D02*
X173940000Y-52085000D01*
X174190000Y-55285000D02*
X174190000Y-49885000D01*
X172940000Y-53085000D02*
X173940000Y-53085000D01*
X172690000Y-49885000D02*
X172690000Y-55285000D01*
X174190000Y-49885000D02*
X172690000Y-49885000D01*
X173440000Y-52985000D02*
X172940000Y-52085000D01*
X103080000Y-112525000D02*
X103080000Y-107125000D01*
X101830000Y-109325000D02*
X102830000Y-109325000D01*
X101830000Y-110325000D02*
X102830000Y-110325000D01*
X102830000Y-109325000D02*
X102330000Y-110225000D01*
X102330000Y-110225000D02*
X101830000Y-109325000D01*
X101580000Y-112525000D02*
X103080000Y-112525000D01*
X101580000Y-107125000D02*
X101580000Y-112525000D01*
X103080000Y-107125000D02*
X101580000Y-107125000D01*
X192070000Y-129480000D02*
X193070000Y-129480000D01*
X192570000Y-129380000D02*
X192070000Y-128480000D01*
X193070000Y-128480000D02*
X192570000Y-129380000D01*
X193320000Y-126280000D02*
X191820000Y-126280000D01*
X192070000Y-128480000D02*
X193070000Y-128480000D01*
X191820000Y-131680000D02*
X193320000Y-131680000D01*
X193320000Y-131680000D02*
X193320000Y-126280000D01*
X191820000Y-126280000D02*
X191820000Y-131680000D01*
X163700000Y-71945000D02*
X164700000Y-71945000D01*
X164950000Y-74145000D02*
X164950000Y-68745000D01*
X164200000Y-71845000D02*
X163700000Y-70945000D01*
X163450000Y-74145000D02*
X164950000Y-74145000D01*
X164950000Y-68745000D02*
X163450000Y-68745000D01*
X163450000Y-68745000D02*
X163450000Y-74145000D01*
X163700000Y-70945000D02*
X164700000Y-70945000D01*
X164700000Y-70945000D02*
X164200000Y-71845000D01*
D17*
X185915000Y-60150000D02*
X185915000Y-57910000D01*
D13*
X187645000Y-56150000D02*
X184365000Y-56150000D01*
X177365000Y-59050000D02*
X177365000Y-61300000D01*
X187645000Y-59750000D02*
X187645000Y-58750000D01*
D20*
X177845000Y-61050000D02*
X177845000Y-58550000D01*
D13*
X177145000Y-59050000D02*
X177345000Y-59050000D01*
X177145000Y-61300000D02*
X177145000Y-61650000D01*
D15*
X177345000Y-61450000D02*
X178745000Y-61450000D01*
D13*
X177145000Y-61650000D02*
X185545001Y-61650000D01*
X187445000Y-56510000D02*
X187645000Y-56510000D01*
X187645000Y-56150000D02*
X187645000Y-56510000D01*
D16*
X177445000Y-58350000D02*
X178845000Y-58350000D01*
D15*
X177345000Y-58950000D02*
X177345000Y-58250000D01*
D13*
X177345000Y-61300000D02*
X177145000Y-61300000D01*
D12*
X183115600Y-51150000D02*
X183115600Y-49700000D01*
D13*
X187415000Y-58750000D02*
X187415000Y-56510000D01*
D19*
X187045000Y-56650000D02*
X187045000Y-58449999D01*
D12*
X185165600Y-51150000D02*
X183115600Y-51150000D01*
D13*
X187645000Y-58750000D02*
X187445000Y-58750000D01*
D18*
X179145000Y-59850000D02*
X185845000Y-59850000D01*
D12*
X185165600Y-49700000D02*
X185165600Y-51150000D01*
D13*
X177145000Y-58050000D02*
X177145000Y-59050000D01*
X182145000Y-58050000D02*
X177145000Y-58050000D01*
D12*
X187545000Y-58850001D02*
X187545000Y-59750000D01*
X183115600Y-49700000D02*
X185165600Y-49700000D01*
D16*
X187445000Y-56350000D02*
X184745000Y-56350000D01*
D20*
X182545000Y-58450000D02*
G75*
G03*
X184761318Y-56571471I65001J2169999D01*
G01*
D13*
X182145000Y-58050000D02*
G75*
G03*
X184361318Y-56171471I65001J2169999D01*
G01*
X185545001Y-61650001D02*
G75*
G03*
X187645000Y-59749999I100000J1999999D01*
G01*
X159200000Y-112620000D02*
X160700000Y-112620000D01*
X160700000Y-107220000D02*
X159200000Y-107220000D01*
X159200000Y-107220000D02*
X159200000Y-112620000D01*
X160700000Y-112620000D02*
X160700000Y-107220000D01*
X159450000Y-110420000D02*
X160450000Y-110420000D01*
X159950000Y-110320000D02*
X159450000Y-109420000D01*
X160450000Y-109420000D02*
X159950000Y-110320000D01*
X159450000Y-109420000D02*
X160450000Y-109420000D01*
X108300000Y-71070000D02*
X107800000Y-71970000D01*
X107800000Y-71970000D02*
X107300000Y-71070000D01*
X107050000Y-68870000D02*
X107050000Y-74270000D01*
X107300000Y-71070000D02*
X108300000Y-71070000D01*
X108550000Y-74270000D02*
X108550000Y-68870000D01*
X108550000Y-68870000D02*
X107050000Y-68870000D01*
X107050000Y-74270000D02*
X108550000Y-74270000D01*
X107300000Y-72070000D02*
X108300000Y-72070000D01*
X172400000Y-97180000D02*
X172600000Y-97180000D01*
D16*
X172700000Y-96480000D02*
X174100000Y-96480000D01*
D12*
X180420600Y-87830000D02*
X180420600Y-89280000D01*
X182800000Y-96980001D02*
X182800000Y-97880000D01*
D13*
X182900000Y-94280000D02*
X179620000Y-94280000D01*
X172600000Y-99430000D02*
X172400000Y-99430000D01*
D12*
X178370600Y-89280000D02*
X178370600Y-87830000D01*
D13*
X172620000Y-97180000D02*
X172620000Y-99430000D01*
X182670000Y-96880000D02*
X182670000Y-94640000D01*
D20*
X173100000Y-99180000D02*
X173100000Y-96680000D01*
D13*
X182900000Y-97880000D02*
X182900000Y-96880000D01*
X182700000Y-94640000D02*
X182900000Y-94640000D01*
X172400000Y-99430000D02*
X172400000Y-99780000D01*
X182900000Y-94280000D02*
X182900000Y-94640000D01*
D16*
X182700000Y-94480000D02*
X180000000Y-94480000D01*
D15*
X172600000Y-99580000D02*
X174000000Y-99580000D01*
D13*
X172400000Y-96180000D02*
X172400000Y-97180000D01*
X177400000Y-96180000D02*
X172400000Y-96180000D01*
D15*
X172600000Y-97080000D02*
X172600000Y-96380000D01*
D12*
X180420600Y-89280000D02*
X178370600Y-89280000D01*
D19*
X182300000Y-94780000D02*
X182300000Y-96579999D01*
D13*
X172400000Y-99780000D02*
X180800001Y-99780000D01*
D12*
X178370600Y-87830000D02*
X180420600Y-87830000D01*
D13*
X182900000Y-96880000D02*
X182700000Y-96880000D01*
D17*
X181170000Y-98280000D02*
X181170000Y-96040000D01*
D18*
X174400000Y-97980000D02*
X181100000Y-97980000D01*
D13*
X177400000Y-96180000D02*
G75*
G03*
X179616318Y-94301471I65001J2169999D01*
G01*
D20*
X177800000Y-96580000D02*
G75*
G03*
X180016318Y-94701471I65001J2169999D01*
G01*
D13*
X180800001Y-99780001D02*
G75*
G03*
X182900000Y-97879999I100000J1999999D01*
G01*
D17*
X169250000Y-136390000D02*
X169250000Y-134150000D01*
D12*
X166450600Y-125940000D02*
X168500600Y-125940000D01*
D16*
X160780000Y-134590000D02*
X162180000Y-134590000D01*
D15*
X160680000Y-135190000D02*
X160680000Y-134490000D01*
D13*
X160480000Y-135290000D02*
X160680000Y-135290000D01*
X170980000Y-135990000D02*
X170980000Y-134990000D01*
D12*
X168500600Y-125940000D02*
X168500600Y-127390000D01*
D20*
X161180000Y-137290000D02*
X161180000Y-134790000D01*
D13*
X170980000Y-132390000D02*
X167700000Y-132390000D01*
X170980000Y-134990000D02*
X170780000Y-134990000D01*
D12*
X166450600Y-127390000D02*
X166450600Y-125940000D01*
X168500600Y-127390000D02*
X166450600Y-127390000D01*
D15*
X160680000Y-137690000D02*
X162080000Y-137690000D01*
D13*
X170750000Y-134990000D02*
X170750000Y-132750000D01*
D18*
X162480000Y-136090000D02*
X169180000Y-136090000D01*
D19*
X170380000Y-132890000D02*
X170380000Y-134689999D01*
D13*
X160480000Y-134290000D02*
X160480000Y-135290000D01*
X160480000Y-137890000D02*
X168880001Y-137890000D01*
X170980000Y-132390000D02*
X170980000Y-132750000D01*
X160680000Y-137540000D02*
X160480000Y-137540000D01*
X165480000Y-134290000D02*
X160480000Y-134290000D01*
D16*
X170780000Y-132590000D02*
X168080000Y-132590000D01*
D12*
X170880000Y-135090001D02*
X170880000Y-135990000D01*
D13*
X160480000Y-137540000D02*
X160480000Y-137890000D01*
X160700000Y-135290000D02*
X160700000Y-137540000D01*
X170780000Y-132750000D02*
X170980000Y-132750000D01*
X168880001Y-137890001D02*
G75*
G03*
X170980000Y-135989999I100000J1999999D01*
G01*
D20*
X165880000Y-134690000D02*
G75*
G03*
X168096318Y-132811471I65001J2169999D01*
G01*
D13*
X165480000Y-134290000D02*
G75*
G03*
X167696318Y-132411471I65001J2169999D01*
G01*
X66370000Y-90320000D02*
X67370000Y-90320000D01*
X66870000Y-91220000D02*
X66370000Y-90320000D01*
X66120000Y-88120000D02*
X66120000Y-93520000D01*
X66120000Y-93520000D02*
X67620000Y-93520000D01*
X67620000Y-88120000D02*
X66120000Y-88120000D01*
X67620000Y-93520000D02*
X67620000Y-88120000D01*
X67370000Y-90320000D02*
X66870000Y-91220000D01*
X66370000Y-91320000D02*
X67370000Y-91320000D01*
D18*
X150590000Y-78910000D02*
X157290000Y-78910000D01*
D13*
X158890000Y-75570000D02*
X159090000Y-75570000D01*
X148590000Y-80360000D02*
X148590000Y-80710000D01*
D15*
X148790000Y-80510000D02*
X150190000Y-80510000D01*
D12*
X156610600Y-68760000D02*
X156610600Y-70210000D01*
D16*
X148890000Y-77410000D02*
X150290000Y-77410000D01*
D13*
X159090000Y-75210000D02*
X159090000Y-75570000D01*
D12*
X154560600Y-68760000D02*
X156610600Y-68760000D01*
D16*
X158890000Y-75410000D02*
X156190000Y-75410000D01*
D20*
X149290000Y-80110000D02*
X149290000Y-77610000D01*
D13*
X148790000Y-80360000D02*
X148590000Y-80360000D01*
D15*
X148790000Y-78010000D02*
X148790000Y-77310000D01*
D13*
X148810000Y-78110000D02*
X148810000Y-80360000D01*
D12*
X158990000Y-77910001D02*
X158990000Y-78810000D01*
D19*
X158490000Y-75710000D02*
X158490000Y-77509999D01*
D13*
X148590000Y-80710000D02*
X156990001Y-80710000D01*
D12*
X154560600Y-70210000D02*
X154560600Y-68760000D01*
D13*
X159090000Y-75210000D02*
X155810000Y-75210000D01*
X148590000Y-78110000D02*
X148790000Y-78110000D01*
X159090000Y-77810000D02*
X158890000Y-77810000D01*
D17*
X157360000Y-79210000D02*
X157360000Y-76970000D01*
D13*
X159090000Y-78810000D02*
X159090000Y-77810000D01*
X153590000Y-77110000D02*
X148590000Y-77110000D01*
D12*
X156610600Y-70210000D02*
X154560600Y-70210000D01*
D13*
X148590000Y-77110000D02*
X148590000Y-78110000D01*
X158860000Y-77810000D02*
X158860000Y-75570000D01*
X153590000Y-77110000D02*
G75*
G03*
X155806318Y-75231471I65001J2169999D01*
G01*
X156990001Y-80710001D02*
G75*
G03*
X159090000Y-78809999I100000J1999999D01*
G01*
D20*
X153990000Y-77510000D02*
G75*
G03*
X156206318Y-75631471I65001J2169999D01*
G01*
D13*
X172640000Y-77110000D02*
X167640000Y-77110000D01*
X178140000Y-75210000D02*
X174860000Y-75210000D01*
D12*
X175660600Y-68760000D02*
X175660600Y-70210000D01*
D16*
X167940000Y-77410000D02*
X169340000Y-77410000D01*
D13*
X167840000Y-80360000D02*
X167640000Y-80360000D01*
X167640000Y-77110000D02*
X167640000Y-78110000D01*
D12*
X173610600Y-70210000D02*
X173610600Y-68760000D01*
D13*
X167640000Y-80360000D02*
X167640000Y-80710000D01*
X178140000Y-78810000D02*
X178140000Y-77810000D01*
D15*
X167840000Y-78010000D02*
X167840000Y-77310000D01*
D12*
X173610600Y-68760000D02*
X175660600Y-68760000D01*
D13*
X167860000Y-78110000D02*
X167860000Y-80360000D01*
X177940000Y-75570000D02*
X178140000Y-75570000D01*
X167640000Y-80710000D02*
X176040001Y-80710000D01*
X167640000Y-78110000D02*
X167840000Y-78110000D01*
D12*
X175660600Y-70210000D02*
X173610600Y-70210000D01*
D13*
X178140000Y-75210000D02*
X178140000Y-75570000D01*
D18*
X169640000Y-78910000D02*
X176340000Y-78910000D01*
D17*
X176410000Y-79210000D02*
X176410000Y-76970000D01*
D15*
X167840000Y-80510000D02*
X169240000Y-80510000D01*
D20*
X168340000Y-80110000D02*
X168340000Y-77610000D01*
D13*
X177910000Y-77810000D02*
X177910000Y-75570000D01*
X178140000Y-77810000D02*
X177940000Y-77810000D01*
D19*
X177540000Y-75710000D02*
X177540000Y-77509999D01*
D16*
X177940000Y-75410000D02*
X175240000Y-75410000D01*
D12*
X178040000Y-77910001D02*
X178040000Y-78810000D01*
D13*
X172640000Y-77110000D02*
G75*
G03*
X174856318Y-75231471I65001J2169999D01*
G01*
X176040001Y-80710001D02*
G75*
G03*
X178140000Y-78809999I100000J1999999D01*
G01*
D20*
X173040000Y-77510000D02*
G75*
G03*
X175256318Y-75631471I65001J2169999D01*
G01*
D12*
X206754200Y-115650000D02*
X206754200Y-117100000D01*
X204304200Y-117100000D02*
X204304200Y-115650000D01*
X206754200Y-117100000D02*
X204334200Y-117100000D01*
X204304200Y-115650000D02*
X206754200Y-115650000D01*
D13*
X216085000Y-97815000D02*
X204085000Y-97815000D01*
X204085000Y-91815000D02*
X216085000Y-91815000D01*
X216085000Y-91815000D02*
X216085000Y-97815000D01*
X204085000Y-97815000D02*
X204085000Y-91815000D01*
X134300000Y-99430000D02*
X134300000Y-99780000D01*
D20*
X135000000Y-99180000D02*
X135000000Y-96680000D01*
D13*
X134300000Y-97180000D02*
X134500000Y-97180000D01*
X144800000Y-94280000D02*
X144800000Y-94640000D01*
X144800000Y-96880000D02*
X144600000Y-96880000D01*
D18*
X136300000Y-97980000D02*
X143000000Y-97980000D01*
D19*
X144200000Y-94780000D02*
X144200000Y-96579999D01*
D12*
X144700000Y-96980001D02*
X144700000Y-97880000D01*
D13*
X139300000Y-96180000D02*
X134300000Y-96180000D01*
D15*
X134500000Y-99580000D02*
X135900000Y-99580000D01*
D12*
X142320600Y-87830000D02*
X142320600Y-89280000D01*
X140270600Y-89280000D02*
X140270600Y-87830000D01*
D17*
X143070000Y-98280000D02*
X143070000Y-96040000D01*
D16*
X144600000Y-94480000D02*
X141900000Y-94480000D01*
D13*
X144600000Y-94640000D02*
X144800000Y-94640000D01*
X134520000Y-97180000D02*
X134520000Y-99430000D01*
X144800000Y-97880000D02*
X144800000Y-96880000D01*
X144800000Y-94280000D02*
X141520000Y-94280000D01*
X144570000Y-96880000D02*
X144570000Y-94640000D01*
D15*
X134500000Y-97080000D02*
X134500000Y-96380000D01*
D16*
X134600000Y-96480000D02*
X136000000Y-96480000D01*
D13*
X134500000Y-99430000D02*
X134300000Y-99430000D01*
D12*
X142320600Y-89280000D02*
X140270600Y-89280000D01*
D13*
X134300000Y-96180000D02*
X134300000Y-97180000D01*
X134300000Y-99780000D02*
X142700001Y-99780000D01*
D12*
X140270600Y-87830000D02*
X142320600Y-87830000D01*
D20*
X139700000Y-96580000D02*
G75*
G03*
X141916318Y-94701471I65001J2169999D01*
G01*
D13*
X139300000Y-96180000D02*
G75*
G03*
X141516318Y-94301471I65001J2169999D01*
G01*
X142700001Y-99780001D02*
G75*
G03*
X144800000Y-97879999I100000J1999999D01*
G01*
D18*
X121995000Y-59850000D02*
X128695000Y-59850000D01*
D16*
X120295000Y-58350000D02*
X121695000Y-58350000D01*
D13*
X130295000Y-56510000D02*
X130495000Y-56510000D01*
D16*
X130295000Y-56350000D02*
X127595000Y-56350000D01*
D13*
X130265000Y-58750000D02*
X130265000Y-56510000D01*
X119995000Y-58050000D02*
X119995000Y-59050000D01*
D12*
X125965600Y-51150000D02*
X125965600Y-49700000D01*
D13*
X120195000Y-61300000D02*
X119995000Y-61300000D01*
D17*
X128765000Y-60150000D02*
X128765000Y-57910000D01*
D13*
X130495000Y-56150000D02*
X130495000Y-56510000D01*
X119995000Y-61300000D02*
X119995000Y-61650000D01*
D12*
X130395000Y-58850001D02*
X130395000Y-59750000D01*
D15*
X120195000Y-58950000D02*
X120195000Y-58250000D01*
D13*
X119995000Y-61650000D02*
X128395001Y-61650000D01*
D20*
X120695000Y-61050000D02*
X120695000Y-58550000D01*
D13*
X119995000Y-59050000D02*
X120195000Y-59050000D01*
X130495000Y-59750000D02*
X130495000Y-58750000D01*
X120215000Y-59050000D02*
X120215000Y-61300000D01*
D12*
X125965600Y-49700000D02*
X128015600Y-49700000D01*
D15*
X120195000Y-61450000D02*
X121595000Y-61450000D01*
D13*
X130495000Y-58750000D02*
X130295000Y-58750000D01*
D12*
X128015600Y-49700000D02*
X128015600Y-51150000D01*
D13*
X130495000Y-56150000D02*
X127215000Y-56150000D01*
D12*
X128015600Y-51150000D02*
X125965600Y-51150000D01*
D19*
X129895000Y-56650000D02*
X129895000Y-58449999D01*
D13*
X124995000Y-58050000D02*
X119995000Y-58050000D01*
X128395001Y-61650001D02*
G75*
G03*
X130495000Y-59749999I100000J1999999D01*
G01*
D20*
X125395000Y-58450000D02*
G75*
G03*
X127611318Y-56571471I65001J2169999D01*
G01*
D13*
X124995000Y-58050000D02*
G75*
G03*
X127211318Y-56171471I65001J2169999D01*
G01*
D16*
X77900000Y-75390000D02*
X75200000Y-75390000D01*
D13*
X67600000Y-80340000D02*
X67600000Y-80690000D01*
D12*
X78000000Y-77890001D02*
X78000000Y-78790000D01*
X75620600Y-68740000D02*
X75620600Y-70190000D01*
D13*
X67600000Y-78090000D02*
X67800000Y-78090000D01*
X77900000Y-75550000D02*
X78100000Y-75550000D01*
D18*
X69600000Y-78890000D02*
X76300000Y-78890000D01*
D13*
X67600000Y-80690000D02*
X76000001Y-80690000D01*
X77870000Y-77790000D02*
X77870000Y-75550000D01*
X78100000Y-75190000D02*
X78100000Y-75550000D01*
X67600000Y-77090000D02*
X67600000Y-78090000D01*
D12*
X75620600Y-70190000D02*
X73570600Y-70190000D01*
D15*
X67800000Y-77990000D02*
X67800000Y-77290000D01*
D17*
X76370000Y-79190000D02*
X76370000Y-76950000D01*
D13*
X78100000Y-75190000D02*
X74820000Y-75190000D01*
D20*
X68300000Y-80090000D02*
X68300000Y-77590000D01*
D15*
X67800000Y-80490000D02*
X69200000Y-80490000D01*
D12*
X73570600Y-68740000D02*
X75620600Y-68740000D01*
D13*
X78100000Y-78790000D02*
X78100000Y-77790000D01*
D16*
X67900000Y-77390000D02*
X69300000Y-77390000D01*
D12*
X73570600Y-70190000D02*
X73570600Y-68740000D01*
D13*
X67820000Y-78090000D02*
X67820000Y-80340000D01*
X78100000Y-77790000D02*
X77900000Y-77790000D01*
D19*
X77500000Y-75690000D02*
X77500000Y-77489999D01*
D13*
X72600000Y-77090000D02*
X67600000Y-77090000D01*
X67800000Y-80340000D02*
X67600000Y-80340000D01*
X76000001Y-80690001D02*
G75*
G03*
X78100000Y-78789999I100000J1999999D01*
G01*
D20*
X73000000Y-77490000D02*
G75*
G03*
X75216318Y-75611471I65001J2169999D01*
G01*
D13*
X72600000Y-77090000D02*
G75*
G03*
X74816318Y-75211471I65001J2169999D01*
G01*
D21*
X196985000Y-79896750D02*
X214765000Y-79896750D01*
X214765000Y-79896750D02*
X214765000Y-46876750D01*
X214765000Y-46876750D02*
X196985000Y-46876750D01*
X199525000Y-49416750D02*
X199525000Y-51956750D01*
X196985000Y-46876750D02*
X196985000Y-79896750D01*
X199525000Y-51956750D02*
X196985000Y-51956750D01*
X199525000Y-49416750D02*
X196985000Y-49416750D01*
G36*
X212019635Y-55805780D02*
G01*
X211919635Y-55805780D01*
X211919635Y-55705780D01*
X212019635Y-55705780D01*
X212019635Y-55805780D01*
G37*
D13*
X212019635Y-55805780D02*
X211919635Y-55805780D01*
X211919635Y-55705780D01*
X212019635Y-55705780D01*
X212019635Y-55805780D01*
G36*
X211819635Y-56105780D02*
G01*
X211719635Y-56105780D01*
X211719635Y-55905780D01*
X211819635Y-55905780D01*
X211819635Y-56105780D01*
G37*
X211819635Y-56105780D02*
X211719635Y-56105780D01*
X211719635Y-55905780D01*
X211819635Y-55905780D01*
X211819635Y-56105780D01*
G36*
X211819635Y-55605780D02*
G01*
X211719635Y-55605780D01*
X211719635Y-55305780D01*
X211819635Y-55305780D01*
X211819635Y-55605780D01*
G37*
X211819635Y-55605780D02*
X211719635Y-55605780D01*
X211719635Y-55305780D01*
X211819635Y-55305780D01*
X211819635Y-55605780D01*
G36*
X212219635Y-55405780D02*
G01*
X211719635Y-55405780D01*
X211719635Y-55305780D01*
X212219635Y-55305780D01*
X212219635Y-55405780D01*
G37*
X212219635Y-55405780D02*
X211719635Y-55405780D01*
X211719635Y-55305780D01*
X212219635Y-55305780D01*
X212219635Y-55405780D01*
G36*
X212219635Y-56105780D02*
G01*
X212119635Y-56105780D01*
X212119635Y-55305780D01*
X212219635Y-55305780D01*
X212219635Y-56105780D01*
G37*
X212219635Y-56105780D02*
X212119635Y-56105780D01*
X212119635Y-55305780D01*
X212219635Y-55305780D01*
X212219635Y-56105780D01*
X63680000Y-72170000D02*
X64680000Y-72170000D01*
X64930000Y-68970000D02*
X63430000Y-68970000D01*
X64680000Y-71170000D02*
X64180000Y-72070000D01*
X64930000Y-74370000D02*
X64930000Y-68970000D01*
X63680000Y-71170000D02*
X64680000Y-71170000D01*
X63430000Y-74370000D02*
X64930000Y-74370000D01*
X63430000Y-68970000D02*
X63430000Y-74370000D01*
X64180000Y-72070000D02*
X63680000Y-71170000D01*
D12*
X77357900Y-64120000D02*
X77357900Y-65570000D01*
X74907900Y-64120000D02*
X77327900Y-64120000D01*
X77357900Y-65570000D02*
X74907900Y-65570000D01*
X74907900Y-65570000D02*
X74907900Y-64120000D01*
D13*
X112110000Y-91260000D02*
X111610000Y-90360000D01*
X111360000Y-93560000D02*
X112860000Y-93560000D01*
X111360000Y-88160000D02*
X111360000Y-93560000D01*
X111610000Y-90360000D02*
X112610000Y-90360000D01*
X111610000Y-91360000D02*
X112610000Y-91360000D01*
X112610000Y-90360000D02*
X112110000Y-91260000D01*
X112860000Y-93560000D02*
X112860000Y-88160000D01*
X112860000Y-88160000D02*
X111360000Y-88160000D01*
X122090000Y-129020000D02*
X121590000Y-129920000D01*
X120840000Y-132220000D02*
X122340000Y-132220000D01*
X121090000Y-130020000D02*
X122090000Y-130020000D01*
X122340000Y-132220000D02*
X122340000Y-126820000D01*
X121090000Y-129020000D02*
X122090000Y-129020000D01*
X121590000Y-129920000D02*
X121090000Y-129020000D01*
X122340000Y-126820000D02*
X120840000Y-126820000D01*
X120840000Y-126820000D02*
X120840000Y-132220000D01*
X210955000Y-81720000D02*
X210955000Y-84260000D01*
X200795000Y-81720000D02*
X210955000Y-81720000D01*
X210955000Y-84260000D02*
X200795000Y-84260000D01*
X200795000Y-84260000D02*
X200795000Y-81720000D01*
X154320000Y-113340000D02*
X151040000Y-113340000D01*
X143820000Y-115240000D02*
X143820000Y-116240000D01*
D17*
X152590000Y-117340000D02*
X152590000Y-115100000D01*
D13*
X144040000Y-116240000D02*
X144040000Y-118490000D01*
D12*
X149790600Y-106890000D02*
X151840600Y-106890000D01*
D15*
X144020000Y-116140000D02*
X144020000Y-115440000D01*
D12*
X151840600Y-108340000D02*
X149790600Y-108340000D01*
D13*
X144020000Y-118490000D02*
X143820000Y-118490000D01*
X154320000Y-115940000D02*
X154120000Y-115940000D01*
D12*
X149790600Y-108340000D02*
X149790600Y-106890000D01*
D13*
X143820000Y-118490000D02*
X143820000Y-118840000D01*
D18*
X145820000Y-117040000D02*
X152520000Y-117040000D01*
D13*
X148820000Y-115240000D02*
X143820000Y-115240000D01*
D20*
X144520000Y-118240000D02*
X144520000Y-115740000D01*
D12*
X154220000Y-116040001D02*
X154220000Y-116940000D01*
D15*
X144020000Y-118640000D02*
X145420000Y-118640000D01*
D13*
X154090000Y-115940000D02*
X154090000Y-113700000D01*
D16*
X144120000Y-115540000D02*
X145520000Y-115540000D01*
D13*
X154320000Y-116940000D02*
X154320000Y-115940000D01*
X154320000Y-113340000D02*
X154320000Y-113700000D01*
X154120000Y-113700000D02*
X154320000Y-113700000D01*
X143820000Y-116240000D02*
X144020000Y-116240000D01*
D19*
X153720000Y-113840000D02*
X153720000Y-115639999D01*
D12*
X151840600Y-106890000D02*
X151840600Y-108340000D01*
D16*
X154120000Y-113540000D02*
X151420000Y-113540000D01*
D13*
X143820000Y-118840000D02*
X152220001Y-118840000D01*
D20*
X149220000Y-115640000D02*
G75*
G03*
X151436318Y-113761471I65001J2169999D01*
G01*
D13*
X148820000Y-115240000D02*
G75*
G03*
X151036318Y-113361471I65001J2169999D01*
G01*
X152220001Y-118840001D02*
G75*
G03*
X154320000Y-116939999I100000J1999999D01*
G01*
X74760000Y-118870000D02*
X83160001Y-118870000D01*
X85260000Y-116970000D02*
X85260000Y-115970000D01*
D17*
X83530000Y-117370000D02*
X83530000Y-115130000D01*
D15*
X74960000Y-118670000D02*
X76360000Y-118670000D01*
D13*
X85260000Y-113370000D02*
X85260000Y-113730000D01*
D18*
X76760000Y-117070000D02*
X83460000Y-117070000D01*
D13*
X79760000Y-115270000D02*
X74760000Y-115270000D01*
X74760000Y-118520000D02*
X74760000Y-118870000D01*
D16*
X85060000Y-113570000D02*
X82360000Y-113570000D01*
D13*
X74960000Y-118520000D02*
X74760000Y-118520000D01*
X74760000Y-116270000D02*
X74960000Y-116270000D01*
X74980000Y-116270000D02*
X74980000Y-118520000D01*
D12*
X85160000Y-116070001D02*
X85160000Y-116970000D01*
X80730600Y-108370000D02*
X80730600Y-106920000D01*
D15*
X74960000Y-116170000D02*
X74960000Y-115470000D01*
D13*
X74760000Y-115270000D02*
X74760000Y-116270000D01*
X85260000Y-115970000D02*
X85060000Y-115970000D01*
D12*
X82780600Y-108370000D02*
X80730600Y-108370000D01*
X82780600Y-106920000D02*
X82780600Y-108370000D01*
X80730600Y-106920000D02*
X82780600Y-106920000D01*
D19*
X84660000Y-113870000D02*
X84660000Y-115669999D01*
D16*
X75060000Y-115570000D02*
X76460000Y-115570000D01*
D13*
X85060000Y-113730000D02*
X85260000Y-113730000D01*
X85030000Y-115970000D02*
X85030000Y-113730000D01*
D20*
X75460000Y-118270000D02*
X75460000Y-115770000D01*
D13*
X85260000Y-113370000D02*
X81980000Y-113370000D01*
X79760000Y-115270000D02*
G75*
G03*
X81976318Y-113391471I65001J2169999D01*
G01*
X83160001Y-118870001D02*
G75*
G03*
X85260000Y-116969999I100000J1999999D01*
G01*
D20*
X80160000Y-115670000D02*
G75*
G03*
X82376318Y-113791471I65001J2169999D01*
G01*
D15*
X124970000Y-118640000D02*
X126370000Y-118640000D01*
X124970000Y-116140000D02*
X124970000Y-115440000D01*
D13*
X124770000Y-115240000D02*
X124770000Y-116240000D01*
X129770000Y-115240000D02*
X124770000Y-115240000D01*
D18*
X126770000Y-117040000D02*
X133470000Y-117040000D01*
D13*
X124770000Y-118490000D02*
X124770000Y-118840000D01*
X135040000Y-115940000D02*
X135040000Y-113700000D01*
D12*
X132790600Y-106890000D02*
X132790600Y-108340000D01*
D17*
X133540000Y-117340000D02*
X133540000Y-115100000D01*
D13*
X135270000Y-115940000D02*
X135070000Y-115940000D01*
X124770000Y-118840000D02*
X133170001Y-118840000D01*
X135270000Y-116940000D02*
X135270000Y-115940000D01*
D12*
X132790600Y-108340000D02*
X130740600Y-108340000D01*
X130740600Y-106890000D02*
X132790600Y-106890000D01*
X135170000Y-116040001D02*
X135170000Y-116940000D01*
D13*
X124970000Y-118490000D02*
X124770000Y-118490000D01*
D16*
X135070000Y-113540000D02*
X132370000Y-113540000D01*
D13*
X124770000Y-116240000D02*
X124970000Y-116240000D01*
D20*
X125470000Y-118240000D02*
X125470000Y-115740000D01*
D13*
X135270000Y-113340000D02*
X135270000Y-113700000D01*
D16*
X125070000Y-115540000D02*
X126470000Y-115540000D01*
D13*
X135070000Y-113700000D02*
X135270000Y-113700000D01*
X135270000Y-113340000D02*
X131990000Y-113340000D01*
D12*
X130740600Y-108340000D02*
X130740600Y-106890000D01*
D19*
X134670000Y-113840000D02*
X134670000Y-115639999D01*
D13*
X124990000Y-116240000D02*
X124990000Y-118490000D01*
X133170001Y-118840001D02*
G75*
G03*
X135270000Y-116939999I100000J1999999D01*
G01*
D20*
X130170000Y-115640000D02*
G75*
G03*
X132386318Y-113761471I65001J2169999D01*
G01*
D13*
X129770000Y-115240000D02*
G75*
G03*
X131986318Y-113361471I65001J2169999D01*
G01*
D16*
X77910000Y-132620001D02*
X75210000Y-132620001D01*
D18*
X69610000Y-136120001D02*
X76310000Y-136120001D01*
D13*
X67610000Y-134320001D02*
X67610000Y-135320001D01*
X67830000Y-135320001D02*
X67830000Y-137570001D01*
X78110000Y-132420001D02*
X78110000Y-132780001D01*
D16*
X67910000Y-134620001D02*
X69310000Y-134620001D01*
D13*
X78110000Y-136020001D02*
X78110000Y-135020001D01*
D12*
X78010000Y-135120002D02*
X78010000Y-136020001D01*
D15*
X67810000Y-135220001D02*
X67810000Y-134520001D01*
D19*
X77510000Y-132920001D02*
X77510000Y-134720000D01*
D12*
X73580600Y-127420001D02*
X73580600Y-125970001D01*
D15*
X67810000Y-137720001D02*
X69210000Y-137720001D01*
D13*
X67810000Y-137570001D02*
X67610000Y-137570001D01*
X78110000Y-132420001D02*
X74830000Y-132420001D01*
D20*
X68310000Y-137320001D02*
X68310000Y-134820001D01*
D12*
X75630600Y-125970001D02*
X75630600Y-127420001D01*
D13*
X78110000Y-135020001D02*
X77910000Y-135020001D01*
X67610000Y-137570001D02*
X67610000Y-137920001D01*
X77880000Y-135020001D02*
X77880000Y-132780001D01*
D17*
X76380000Y-136420001D02*
X76380000Y-134180001D01*
D13*
X67610000Y-135320001D02*
X67810000Y-135320001D01*
D12*
X75630600Y-127420001D02*
X73580600Y-127420001D01*
D13*
X77910000Y-132780001D02*
X78110000Y-132780001D01*
X67610000Y-137920001D02*
X76010001Y-137920001D01*
D12*
X73580600Y-125970001D02*
X75630600Y-125970001D01*
D13*
X72610000Y-134320001D02*
X67610000Y-134320001D01*
X72610000Y-134320001D02*
G75*
G03*
X74826318Y-132441472I65001J2169999D01*
G01*
D20*
X73010000Y-134720001D02*
G75*
G03*
X75226318Y-132841472I65001J2169999D01*
G01*
D13*
X76010001Y-137920002D02*
G75*
G03*
X78110000Y-136020000I100000J1999999D01*
G01*
X63660000Y-131690000D02*
X65160000Y-131690000D01*
X63910000Y-129490000D02*
X64910000Y-129490000D01*
X64910000Y-128490000D02*
X64410000Y-129390000D01*
X65160000Y-126290000D02*
X63660000Y-126290000D01*
X65160000Y-131690000D02*
X65160000Y-126290000D01*
X63660000Y-126290000D02*
X63660000Y-131690000D01*
X63910000Y-128490000D02*
X64910000Y-128490000D01*
X64410000Y-129390000D02*
X63910000Y-128490000D01*
D12*
X82147900Y-129150000D02*
X84567900Y-129150000D01*
X84597900Y-129150000D02*
X84597900Y-130600000D01*
X84597900Y-130600000D02*
X82147900Y-130600000D01*
X82147900Y-130600000D02*
X82147900Y-129150000D01*
D13*
X178240000Y-110590000D02*
X179240000Y-110590000D01*
X179490000Y-107390000D02*
X177990000Y-107390000D01*
X178740000Y-110490000D02*
X178240000Y-109590000D01*
X177990000Y-107390000D02*
X177990000Y-112790000D01*
X179240000Y-109590000D02*
X178740000Y-110490000D01*
X178240000Y-109590000D02*
X179240000Y-109590000D01*
X177990000Y-112790000D02*
X179490000Y-112790000D01*
X179490000Y-112790000D02*
X179490000Y-107390000D01*
X155600000Y-49940000D02*
X154100000Y-49940000D01*
X154100000Y-49940000D02*
X154100000Y-55340000D01*
X155600000Y-55340000D02*
X155600000Y-49940000D01*
X154100000Y-55340000D02*
X155600000Y-55340000D01*
X154850000Y-53040000D02*
X154350000Y-52140000D01*
X155350000Y-52140000D02*
X154850000Y-53040000D01*
X154350000Y-53140000D02*
X155350000Y-53140000D01*
X154350000Y-52140000D02*
X155350000Y-52140000D01*
X145170000Y-71815000D02*
X144670000Y-70915000D01*
X145670000Y-70915000D02*
X145170000Y-71815000D01*
X145920000Y-74115000D02*
X145920000Y-68715000D01*
X144420000Y-68715000D02*
X144420000Y-74115000D01*
X145920000Y-68715000D02*
X144420000Y-68715000D01*
X144420000Y-74115000D02*
X145920000Y-74115000D01*
X144670000Y-71915000D02*
X145670000Y-71915000D01*
X144670000Y-70915000D02*
X145670000Y-70915000D01*
X125750000Y-96880000D02*
X125550000Y-96880000D01*
D15*
X115450000Y-97080000D02*
X115450000Y-96380000D01*
D16*
X125550000Y-94480000D02*
X122850000Y-94480000D01*
D13*
X115250000Y-97180000D02*
X115450000Y-97180000D01*
X125750000Y-94280000D02*
X125750000Y-94640000D01*
D16*
X115550000Y-96480000D02*
X116950000Y-96480000D01*
D17*
X124020000Y-98280000D02*
X124020000Y-96040000D01*
D13*
X125750000Y-94280000D02*
X122470000Y-94280000D01*
X115470000Y-97180000D02*
X115470000Y-99430000D01*
X115250000Y-99780000D02*
X123650001Y-99780000D01*
D12*
X125650000Y-96980001D02*
X125650000Y-97880000D01*
D13*
X115450000Y-99430000D02*
X115250000Y-99430000D01*
X125550000Y-94640000D02*
X125750000Y-94640000D01*
X125520000Y-96880000D02*
X125520000Y-94640000D01*
D20*
X115950000Y-99180000D02*
X115950000Y-96680000D01*
D13*
X115250000Y-99430000D02*
X115250000Y-99780000D01*
D18*
X117250000Y-97980000D02*
X123950000Y-97980000D01*
D13*
X120250000Y-96180000D02*
X115250000Y-96180000D01*
D15*
X115450000Y-99580000D02*
X116850000Y-99580000D01*
D12*
X123270600Y-87830000D02*
X123270600Y-89280000D01*
X123270600Y-89280000D02*
X121220600Y-89280000D01*
X121220600Y-87830000D02*
X123270600Y-87830000D01*
D19*
X125150000Y-94780000D02*
X125150000Y-96579999D01*
D13*
X115250000Y-96180000D02*
X115250000Y-97180000D01*
D12*
X121220600Y-89280000D02*
X121220600Y-87830000D01*
D13*
X125750000Y-97880000D02*
X125750000Y-96880000D01*
X120250000Y-96180000D02*
G75*
G03*
X122466318Y-94301471I65001J2169999D01*
G01*
D20*
X120650000Y-96580000D02*
G75*
G03*
X122866318Y-94701471I65001J2169999D01*
G01*
D13*
X123650001Y-99780001D02*
G75*
G03*
X125750000Y-97879999I100000J1999999D01*
G01*
X163095000Y-58050000D02*
X158095000Y-58050000D01*
D19*
X167995000Y-56650000D02*
X167995000Y-58449999D01*
D12*
X164065600Y-49700000D02*
X166115600Y-49700000D01*
D13*
X168365000Y-58750000D02*
X168365000Y-56510000D01*
D20*
X158795000Y-61050000D02*
X158795000Y-58550000D01*
D15*
X158295000Y-61450000D02*
X159695000Y-61450000D01*
D13*
X158315000Y-59050000D02*
X158315000Y-61300000D01*
X168595000Y-58750000D02*
X168395000Y-58750000D01*
D17*
X166865000Y-60150000D02*
X166865000Y-57910000D01*
D13*
X168595000Y-56150000D02*
X165315000Y-56150000D01*
X158295000Y-61300000D02*
X158095000Y-61300000D01*
D16*
X158395000Y-58350000D02*
X159795000Y-58350000D01*
D12*
X166115600Y-49700000D02*
X166115600Y-51150000D01*
D13*
X158095000Y-61300000D02*
X158095000Y-61650000D01*
X158095000Y-61650000D02*
X166495001Y-61650000D01*
X158095000Y-58050000D02*
X158095000Y-59050000D01*
D15*
X158295000Y-58950000D02*
X158295000Y-58250000D01*
D12*
X164065600Y-51150000D02*
X164065600Y-49700000D01*
D13*
X158095000Y-59050000D02*
X158295000Y-59050000D01*
D16*
X168395000Y-56350000D02*
X165695000Y-56350000D01*
D13*
X168395000Y-56510000D02*
X168595000Y-56510000D01*
D12*
X166115600Y-51150000D02*
X164065600Y-51150000D01*
D18*
X160095000Y-59850000D02*
X166795000Y-59850000D01*
D12*
X168495000Y-58850001D02*
X168495000Y-59750000D01*
D13*
X168595000Y-59750000D02*
X168595000Y-58750000D01*
X168595000Y-56150000D02*
X168595000Y-56510000D01*
X163095000Y-58050000D02*
G75*
G03*
X165311318Y-56171471I65001J2169999D01*
G01*
D20*
X163495000Y-58450000D02*
G75*
G03*
X165711318Y-56571471I65001J2169999D01*
G01*
D13*
X166495001Y-61650001D02*
G75*
G03*
X168595000Y-59749999I100000J1999999D01*
G01*
X111245000Y-56510000D02*
X111445000Y-56510000D01*
D16*
X111245000Y-56350000D02*
X108545000Y-56350000D01*
D13*
X111445000Y-58750000D02*
X111245000Y-58750000D01*
X111445000Y-59750000D02*
X111445000Y-58750000D01*
X100945000Y-61300000D02*
X100945000Y-61650000D01*
D15*
X101145000Y-58950000D02*
X101145000Y-58250000D01*
D16*
X101245000Y-58350000D02*
X102645000Y-58350000D01*
D12*
X106915600Y-51150000D02*
X106915600Y-49700000D01*
D15*
X101145000Y-61450000D02*
X102545000Y-61450000D01*
D12*
X111345000Y-58850001D02*
X111345000Y-59750000D01*
D17*
X109715000Y-60150000D02*
X109715000Y-57910000D01*
D13*
X100945000Y-58050000D02*
X100945000Y-59050000D01*
X100945000Y-59050000D02*
X101145000Y-59050000D01*
D12*
X108965600Y-51150000D02*
X106915600Y-51150000D01*
D20*
X101645000Y-61050000D02*
X101645000Y-58550000D01*
D13*
X101145000Y-61300000D02*
X100945000Y-61300000D01*
X111215000Y-58750000D02*
X111215000Y-56510000D01*
X105945000Y-58050000D02*
X100945000Y-58050000D01*
X101165000Y-59050000D02*
X101165000Y-61300000D01*
D19*
X110845000Y-56650000D02*
X110845000Y-58449999D01*
D13*
X100945000Y-61650000D02*
X109345001Y-61650000D01*
D12*
X108965600Y-49700000D02*
X108965600Y-51150000D01*
D18*
X102945000Y-59850000D02*
X109645000Y-59850000D01*
D13*
X111445000Y-56150000D02*
X111445000Y-56510000D01*
D12*
X106915600Y-49700000D02*
X108965600Y-49700000D01*
D13*
X111445000Y-56150000D02*
X108165000Y-56150000D01*
X105945000Y-58050000D02*
G75*
G03*
X108161318Y-56171471I65001J2169999D01*
G01*
D20*
X106345000Y-58450000D02*
G75*
G03*
X108561318Y-56571471I65001J2169999D01*
G01*
D13*
X109345001Y-61650001D02*
G75*
G03*
X111445000Y-59749999I100000J1999999D01*
G01*
X135260000Y-132400000D02*
X131980000Y-132400000D01*
D15*
X124960000Y-135200000D02*
X124960000Y-134500000D01*
D12*
X130730600Y-125950000D02*
X132780600Y-125950000D01*
D13*
X124760000Y-134300000D02*
X124760000Y-135300000D01*
X129760000Y-134300000D02*
X124760000Y-134300000D01*
X135260000Y-136000000D02*
X135260000Y-135000000D01*
X135260000Y-132400000D02*
X135260000Y-132760000D01*
X124760000Y-137900000D02*
X133160001Y-137900000D01*
D17*
X133530000Y-136400000D02*
X133530000Y-134160000D01*
D15*
X124960000Y-137700000D02*
X126360000Y-137700000D01*
D20*
X125460000Y-137300000D02*
X125460000Y-134800000D01*
D12*
X130730600Y-127400000D02*
X130730600Y-125950000D01*
X135160000Y-135100001D02*
X135160000Y-136000000D01*
D19*
X134660000Y-132900000D02*
X134660000Y-134699999D01*
D13*
X124760000Y-137550000D02*
X124760000Y-137900000D01*
D18*
X126760000Y-136100000D02*
X133460000Y-136100000D01*
D13*
X135060000Y-132760000D02*
X135260000Y-132760000D01*
X135260000Y-135000000D02*
X135060000Y-135000000D01*
D12*
X132780600Y-125950000D02*
X132780600Y-127400000D01*
D16*
X125060000Y-134600000D02*
X126460000Y-134600000D01*
D13*
X124980000Y-135300000D02*
X124980000Y-137550000D01*
X124960000Y-137550000D02*
X124760000Y-137550000D01*
X135030000Y-135000000D02*
X135030000Y-132760000D01*
D12*
X132780600Y-127400000D02*
X130730600Y-127400000D01*
D16*
X135060000Y-132600000D02*
X132360000Y-132600000D01*
D13*
X124760000Y-135300000D02*
X124960000Y-135300000D01*
X133160001Y-137900001D02*
G75*
G03*
X135260000Y-135999999I100000J1999999D01*
G01*
X129760000Y-134300000D02*
G75*
G03*
X131976318Y-132421471I65001J2169999D01*
G01*
D20*
X130160000Y-134700000D02*
G75*
G03*
X132376318Y-132821471I65001J2169999D01*
G01*
D12*
X99460600Y-70210000D02*
X97410600Y-70210000D01*
D20*
X92140000Y-80110000D02*
X92140000Y-77610000D01*
D12*
X99460600Y-68760000D02*
X99460600Y-70210000D01*
D13*
X91640000Y-80360000D02*
X91440000Y-80360000D01*
D16*
X101740000Y-75410000D02*
X99040000Y-75410000D01*
D13*
X91440000Y-80360000D02*
X91440000Y-80710000D01*
D18*
X93440000Y-78910000D02*
X100140000Y-78910000D01*
D12*
X97410600Y-68760000D02*
X99460600Y-68760000D01*
D13*
X101940000Y-75210000D02*
X98660000Y-75210000D01*
D17*
X100210000Y-79210000D02*
X100210000Y-76970000D01*
D13*
X91440000Y-77110000D02*
X91440000Y-78110000D01*
X91440000Y-78110000D02*
X91640000Y-78110000D01*
X101740000Y-75570000D02*
X101940000Y-75570000D01*
D19*
X101340000Y-75710000D02*
X101340000Y-77509999D01*
D12*
X97410600Y-70210000D02*
X97410600Y-68760000D01*
D13*
X91660000Y-78110000D02*
X91660000Y-80360000D01*
D15*
X91640000Y-78010000D02*
X91640000Y-77310000D01*
D13*
X101940000Y-75210000D02*
X101940000Y-75570000D01*
X91440000Y-80710000D02*
X99840001Y-80710000D01*
D16*
X91740000Y-77410000D02*
X93140000Y-77410000D01*
D13*
X101940000Y-78810000D02*
X101940000Y-77810000D01*
X101710000Y-77810000D02*
X101710000Y-75570000D01*
X96440000Y-77110000D02*
X91440000Y-77110000D01*
D15*
X91640000Y-80510000D02*
X93040000Y-80510000D01*
D13*
X101940000Y-77810000D02*
X101740000Y-77810000D01*
D12*
X101840000Y-77910001D02*
X101840000Y-78810000D01*
D13*
X96440000Y-77110000D02*
G75*
G03*
X98656318Y-75231471I65001J2169999D01*
G01*
X99840001Y-80710001D02*
G75*
G03*
X101940000Y-78809999I100000J1999999D01*
G01*
D20*
X96840000Y-77510000D02*
G75*
G03*
X99056318Y-75631471I65001J2169999D01*
G01*
X82595000Y-61050000D02*
X82595000Y-58550000D01*
D13*
X92165000Y-58750000D02*
X92165000Y-56510000D01*
X81895000Y-61300000D02*
X81895000Y-61650000D01*
X86895000Y-58050000D02*
X81895000Y-58050000D01*
X82115000Y-59050000D02*
X82115000Y-61300000D01*
D17*
X90665000Y-60150000D02*
X90665000Y-57910000D01*
D15*
X82095000Y-61450000D02*
X83495000Y-61450000D01*
D16*
X92195000Y-56350000D02*
X89495000Y-56350000D01*
D13*
X81895000Y-59050000D02*
X82095000Y-59050000D01*
D19*
X91795000Y-56650000D02*
X91795000Y-58449999D01*
D13*
X92395000Y-59750000D02*
X92395000Y-58750000D01*
D15*
X82095000Y-58950000D02*
X82095000Y-58250000D01*
D12*
X92295000Y-58850001D02*
X92295000Y-59750000D01*
X87865600Y-51150000D02*
X87865600Y-49700000D01*
D13*
X92395000Y-56150000D02*
X92395000Y-56510000D01*
D18*
X83895000Y-59850000D02*
X90595000Y-59850000D01*
D13*
X92395000Y-56150000D02*
X89115000Y-56150000D01*
X92395000Y-58750000D02*
X92195000Y-58750000D01*
X92195000Y-56510000D02*
X92395000Y-56510000D01*
X82095000Y-61300000D02*
X81895000Y-61300000D01*
D12*
X87865600Y-49700000D02*
X89915600Y-49700000D01*
D13*
X81895000Y-58050000D02*
X81895000Y-59050000D01*
D12*
X89915600Y-49700000D02*
X89915600Y-51150000D01*
X89915600Y-51150000D02*
X87865600Y-51150000D01*
D16*
X82195000Y-58350000D02*
X83595000Y-58350000D01*
D13*
X81895000Y-61650000D02*
X90295001Y-61650000D01*
X90295001Y-61650001D02*
G75*
G03*
X92395000Y-59749999I100000J1999999D01*
G01*
D20*
X87295000Y-58450000D02*
G75*
G03*
X89511318Y-56571471I65001J2169999D01*
G01*
D13*
X86895000Y-58050000D02*
G75*
G03*
X89111318Y-56171471I65001J2169999D01*
G01*
D16*
X106420000Y-132610000D02*
X103720000Y-132610000D01*
D13*
X96120000Y-134310000D02*
X96120000Y-135310000D01*
D17*
X104890000Y-136410000D02*
X104890000Y-134170000D01*
D13*
X101120000Y-134310000D02*
X96120000Y-134310000D01*
D19*
X106020000Y-132910000D02*
X106020000Y-134709999D01*
D13*
X106420000Y-132770000D02*
X106620000Y-132770000D01*
D12*
X104140600Y-127410000D02*
X102090600Y-127410000D01*
D15*
X96320000Y-135210000D02*
X96320000Y-134510000D01*
D13*
X106620000Y-135010000D02*
X106420000Y-135010000D01*
D12*
X102090600Y-127410000D02*
X102090600Y-125960000D01*
D13*
X96120000Y-137560000D02*
X96120000Y-137910000D01*
X106620000Y-136010000D02*
X106620000Y-135010000D01*
D16*
X96420000Y-134610000D02*
X97820000Y-134610000D01*
D15*
X96320000Y-137710000D02*
X97720000Y-137710000D01*
D13*
X106390000Y-135010000D02*
X106390000Y-132770000D01*
X96120000Y-137910000D02*
X104520001Y-137910000D01*
X96320000Y-137560000D02*
X96120000Y-137560000D01*
D12*
X106520000Y-135110001D02*
X106520000Y-136010000D01*
X102090600Y-125960000D02*
X104140600Y-125960000D01*
D20*
X96820000Y-137310000D02*
X96820000Y-134810000D01*
D13*
X106620000Y-132410000D02*
X106620000Y-132770000D01*
D18*
X98120000Y-136110000D02*
X104820000Y-136110000D01*
D13*
X96340000Y-135310000D02*
X96340000Y-137560000D01*
D12*
X104140600Y-125960000D02*
X104140600Y-127410000D01*
D13*
X106620000Y-132410000D02*
X103340000Y-132410000D01*
X96120000Y-135310000D02*
X96320000Y-135310000D01*
X101120000Y-134310000D02*
G75*
G03*
X103336318Y-132431471I65001J2169999D01*
G01*
D20*
X101520000Y-134710000D02*
G75*
G03*
X103736318Y-132831471I65001J2169999D01*
G01*
D13*
X104520001Y-137910001D02*
G75*
G03*
X106620000Y-136009999I100000J1999999D01*
G01*
X116020000Y-55105000D02*
X117520000Y-55105000D01*
X116270000Y-51905000D02*
X117270000Y-51905000D01*
X117270000Y-51905000D02*
X116770000Y-52805000D01*
X116020000Y-49705000D02*
X116020000Y-55105000D01*
X117520000Y-49705000D02*
X116020000Y-49705000D01*
X116270000Y-52905000D02*
X117270000Y-52905000D01*
X116770000Y-52805000D02*
X116270000Y-51905000D01*
X117520000Y-55105000D02*
X117520000Y-49705000D01*
X77530000Y-49875000D02*
X77530000Y-55275000D01*
X79030000Y-55275000D02*
X79030000Y-49875000D01*
X77780000Y-52075000D02*
X78780000Y-52075000D01*
X77780000Y-53075000D02*
X78780000Y-53075000D01*
X78280000Y-52975000D02*
X77780000Y-52075000D01*
X79030000Y-49875000D02*
X77530000Y-49875000D01*
X78780000Y-52075000D02*
X78280000Y-52975000D01*
X77530000Y-55275000D02*
X79030000Y-55275000D01*
X149460000Y-93820000D02*
X150960000Y-93820000D01*
X150960000Y-88420000D02*
X149460000Y-88420000D01*
X149710000Y-90620000D02*
X150710000Y-90620000D01*
X150710000Y-90620000D02*
X150210000Y-91520000D01*
X149460000Y-88420000D02*
X149460000Y-93820000D01*
X150210000Y-91520000D02*
X149710000Y-90620000D01*
X149710000Y-91620000D02*
X150710000Y-91620000D01*
X150960000Y-93820000D02*
X150960000Y-88420000D01*
X105720000Y-116240000D02*
X105920000Y-116240000D01*
D12*
X111690600Y-108340000D02*
X111690600Y-106890000D01*
D13*
X105720000Y-115240000D02*
X105720000Y-116240000D01*
D12*
X113740600Y-108340000D02*
X111690600Y-108340000D01*
D15*
X105920000Y-116140000D02*
X105920000Y-115440000D01*
D12*
X116120000Y-116040001D02*
X116120000Y-116940000D01*
D17*
X114490000Y-117340000D02*
X114490000Y-115100000D01*
D12*
X111690600Y-106890000D02*
X113740600Y-106890000D01*
D15*
X105920000Y-118640000D02*
X107320000Y-118640000D01*
D13*
X116220000Y-115940000D02*
X116020000Y-115940000D01*
X105720000Y-118490000D02*
X105720000Y-118840000D01*
D12*
X113740600Y-106890000D02*
X113740600Y-108340000D01*
D13*
X116020000Y-113700000D02*
X116220000Y-113700000D01*
D19*
X115620000Y-113840000D02*
X115620000Y-115639999D01*
D13*
X105720000Y-118840000D02*
X114120001Y-118840000D01*
X116220000Y-113340000D02*
X112940000Y-113340000D01*
D16*
X106020000Y-115540000D02*
X107420000Y-115540000D01*
D20*
X106420000Y-118240000D02*
X106420000Y-115740000D01*
D18*
X107720000Y-117040000D02*
X114420000Y-117040000D01*
D16*
X116020000Y-113540000D02*
X113320000Y-113540000D01*
D13*
X116220000Y-116940000D02*
X116220000Y-115940000D01*
X115990000Y-115940000D02*
X115990000Y-113700000D01*
X105940000Y-116240000D02*
X105940000Y-118490000D01*
X105920000Y-118490000D02*
X105720000Y-118490000D01*
X116220000Y-113340000D02*
X116220000Y-113700000D01*
X110720000Y-115240000D02*
X105720000Y-115240000D01*
X110720000Y-115240000D02*
G75*
G03*
X112936318Y-113361471I65001J2169999D01*
G01*
X114120001Y-118840001D02*
G75*
G03*
X116220000Y-116939999I100000J1999999D01*
G01*
D20*
X111120000Y-115640000D02*
G75*
G03*
X113336318Y-113761471I65001J2169999D01*
G01*
D13*
X215830000Y-83165000D02*
X215230000Y-83165000D01*
X215830000Y-83165000D02*
X215830000Y-89165000D01*
X212330000Y-83165000D02*
X213030000Y-83165000D01*
X212330000Y-89165000D02*
X213030000Y-89165000D01*
X212330000Y-89165000D02*
X212330000Y-83165000D01*
X215830000Y-89165000D02*
X215230000Y-89165000D01*
X212330000Y-89165000D02*
X212330000Y-83265000D01*
D16*
X149345000Y-56350000D02*
X146645000Y-56350000D01*
D13*
X144045000Y-58050000D02*
X139045000Y-58050000D01*
X139265000Y-59050000D02*
X139265000Y-61300000D01*
X139045000Y-61300000D02*
X139045000Y-61650000D01*
X149315000Y-58750000D02*
X149315000Y-56510000D01*
D15*
X139245000Y-58950000D02*
X139245000Y-58250000D01*
D13*
X139245000Y-61300000D02*
X139045000Y-61300000D01*
D12*
X145015600Y-51150000D02*
X145015600Y-49700000D01*
D13*
X139045000Y-61650000D02*
X147445001Y-61650000D01*
D12*
X149445000Y-58850001D02*
X149445000Y-59750000D01*
D13*
X139045000Y-58050000D02*
X139045000Y-59050000D01*
D16*
X139345000Y-58350000D02*
X140745000Y-58350000D01*
D12*
X147065600Y-49700000D02*
X147065600Y-51150000D01*
D13*
X149545000Y-58750000D02*
X149345000Y-58750000D01*
D17*
X147815000Y-60150000D02*
X147815000Y-57910000D01*
D15*
X139245000Y-61450000D02*
X140645000Y-61450000D01*
D13*
X149345000Y-56510000D02*
X149545000Y-56510000D01*
D12*
X145015600Y-49700000D02*
X147065600Y-49700000D01*
D13*
X149545000Y-59750000D02*
X149545000Y-58750000D01*
D18*
X141045000Y-59850000D02*
X147745000Y-59850000D01*
D20*
X139745000Y-61050000D02*
X139745000Y-58550000D01*
D13*
X139045000Y-59050000D02*
X139245000Y-59050000D01*
D12*
X147065600Y-51150000D02*
X145015600Y-51150000D01*
D13*
X149545000Y-56150000D02*
X146265000Y-56150000D01*
D19*
X148945000Y-56650000D02*
X148945000Y-58449999D01*
D13*
X149545000Y-56150000D02*
X149545000Y-56510000D01*
D20*
X144445000Y-58450000D02*
G75*
G03*
X146661318Y-56571471I65001J2169999D01*
G01*
D13*
X144045000Y-58050000D02*
G75*
G03*
X146261318Y-56171471I65001J2169999D01*
G01*
X147445001Y-61650001D02*
G75*
G03*
X149545000Y-59749999I100000J1999999D01*
G01*
X96200000Y-99780000D02*
X104600001Y-99780000D01*
D12*
X102170600Y-89280000D02*
X102170600Y-87830000D01*
D13*
X106700000Y-94280000D02*
X106700000Y-94640000D01*
D12*
X104220600Y-87830000D02*
X104220600Y-89280000D01*
D19*
X106100000Y-94780000D02*
X106100000Y-96579999D01*
D17*
X104970000Y-98280000D02*
X104970000Y-96040000D01*
D16*
X96500000Y-96480000D02*
X97900000Y-96480000D01*
D13*
X106700000Y-97880000D02*
X106700000Y-96880000D01*
X106700000Y-96880000D02*
X106500000Y-96880000D01*
D18*
X98200000Y-97980000D02*
X104900000Y-97980000D01*
D20*
X96900000Y-99180000D02*
X96900000Y-96680000D01*
D15*
X96400000Y-99580000D02*
X97800000Y-99580000D01*
D12*
X102170600Y-87830000D02*
X104220600Y-87830000D01*
D13*
X101200000Y-96180000D02*
X96200000Y-96180000D01*
X96200000Y-99430000D02*
X96200000Y-99780000D01*
X96400000Y-99430000D02*
X96200000Y-99430000D01*
X96200000Y-97180000D02*
X96400000Y-97180000D01*
X96420000Y-97180000D02*
X96420000Y-99430000D01*
D15*
X96400000Y-97080000D02*
X96400000Y-96380000D01*
D16*
X106500000Y-94480000D02*
X103800000Y-94480000D01*
D13*
X106470000Y-96880000D02*
X106470000Y-94640000D01*
X106700000Y-94280000D02*
X103420000Y-94280000D01*
X106500000Y-94640000D02*
X106700000Y-94640000D01*
X96200000Y-96180000D02*
X96200000Y-97180000D01*
D12*
X104220600Y-89280000D02*
X102170600Y-89280000D01*
X106600000Y-96980001D02*
X106600000Y-97880000D01*
D13*
X101200000Y-96180000D02*
G75*
G03*
X103416318Y-94301471I65001J2169999D01*
G01*
X104600001Y-99780001D02*
G75*
G03*
X106700000Y-97879999I100000J1999999D01*
G01*
D20*
X101600000Y-96580000D02*
G75*
G03*
X103816318Y-94701471I65001J2169999D01*
G01*
D13*
X71980000Y-109465000D02*
X71480000Y-110365000D01*
X70980000Y-110465000D02*
X71980000Y-110465000D01*
X72230000Y-107265000D02*
X70730000Y-107265000D01*
X71480000Y-110365000D02*
X70980000Y-109465000D01*
X70730000Y-112665000D02*
X72230000Y-112665000D01*
X70980000Y-109465000D02*
X71980000Y-109465000D01*
X70730000Y-107265000D02*
X70730000Y-112665000D01*
X72230000Y-112665000D02*
X72230000Y-107265000D01*
X59570000Y-53115000D02*
X59070000Y-52215000D01*
X58820000Y-50015000D02*
X58820000Y-55415000D01*
X59070000Y-53215000D02*
X60070000Y-53215000D01*
X60320000Y-50015000D02*
X58820000Y-50015000D01*
X59070000Y-52215000D02*
X60070000Y-52215000D01*
X60320000Y-55415000D02*
X60320000Y-50015000D01*
X60070000Y-52215000D02*
X59570000Y-53115000D01*
X58820000Y-55415000D02*
X60320000Y-55415000D01*
X120990000Y-77810000D02*
X120790000Y-77810000D01*
D19*
X120390000Y-75710000D02*
X120390000Y-77509999D01*
D20*
X111190000Y-80110000D02*
X111190000Y-77610000D01*
D16*
X120790000Y-75410000D02*
X118090000Y-75410000D01*
X110790000Y-77410000D02*
X112190000Y-77410000D01*
D13*
X115490000Y-77110000D02*
X110490000Y-77110000D01*
D12*
X116460600Y-70210000D02*
X116460600Y-68760000D01*
X118510600Y-70210000D02*
X116460600Y-70210000D01*
D13*
X110690000Y-80360000D02*
X110490000Y-80360000D01*
X110490000Y-78110000D02*
X110690000Y-78110000D01*
X120790000Y-75570000D02*
X120990000Y-75570000D01*
X120990000Y-75210000D02*
X120990000Y-75570000D01*
X120760000Y-77810000D02*
X120760000Y-75570000D01*
D12*
X120890000Y-77910001D02*
X120890000Y-78810000D01*
D15*
X110690000Y-80510000D02*
X112090000Y-80510000D01*
D12*
X118510600Y-68760000D02*
X118510600Y-70210000D01*
D13*
X110490000Y-80360000D02*
X110490000Y-80710000D01*
X120990000Y-75210000D02*
X117710000Y-75210000D01*
X110710000Y-78110000D02*
X110710000Y-80360000D01*
D17*
X119260000Y-79210000D02*
X119260000Y-76970000D01*
D15*
X110690000Y-78010000D02*
X110690000Y-77310000D01*
D18*
X112490000Y-78910000D02*
X119190000Y-78910000D01*
D12*
X116460600Y-68760000D02*
X118510600Y-68760000D01*
D13*
X110490000Y-80710000D02*
X118890001Y-80710000D01*
X110490000Y-77110000D02*
X110490000Y-78110000D01*
X120990000Y-78810000D02*
X120990000Y-77810000D01*
D20*
X115890000Y-77510000D02*
G75*
G03*
X118106318Y-75631471I65001J2169999D01*
G01*
D13*
X115490000Y-77110000D02*
G75*
G03*
X117706318Y-75231471I65001J2169999D01*
G01*
X118890001Y-80710001D02*
G75*
G03*
X120990000Y-78809999I100000J1999999D01*
G01*
G36*
X185711637Y-71073266D02*
G01*
X185992079Y-71080579D01*
X186148947Y-71104957D01*
X186217335Y-71155755D01*
X186232333Y-71242334D01*
X186232291Y-71248475D01*
X186201478Y-71353191D01*
X186085025Y-71409110D01*
X185841164Y-71437023D01*
X185449994Y-71462380D01*
X185819997Y-72025720D01*
X186018045Y-72344542D01*
X186150790Y-72616382D01*
X186185593Y-72802496D01*
X186130088Y-72925023D01*
X186030945Y-72950983D01*
X185808844Y-72964399D01*
X185516254Y-72960301D01*
X185244901Y-72943910D01*
X185063247Y-72913737D01*
X184981394Y-72858865D01*
X184962333Y-72766334D01*
X184965471Y-72722149D01*
X185038202Y-72616941D01*
X185237500Y-72570469D01*
X185258102Y-72568322D01*
X185438566Y-72532767D01*
X185512666Y-72486536D01*
X185477157Y-72408076D01*
X185367725Y-72227144D01*
X185210133Y-71989869D01*
X185118839Y-71850690D01*
X184967233Y-71546815D01*
X184934967Y-71311802D01*
X184948239Y-71217297D01*
X184986859Y-71134027D01*
X185083087Y-71091172D01*
X185274164Y-71075305D01*
X185597333Y-71073000D01*
X185711637Y-71073266D01*
G37*
G36*
X184776206Y-72123006D02*
G01*
X184805627Y-72161897D01*
X184810349Y-72312154D01*
X184695641Y-72459001D01*
X184492165Y-72555730D01*
X184392752Y-72585619D01*
X184368964Y-72633463D01*
X184450443Y-72725538D01*
X184651357Y-72891747D01*
X184726902Y-72954454D01*
X184927949Y-73165295D01*
X184971132Y-73321152D01*
X184855617Y-73429124D01*
X184580576Y-73496310D01*
X184184360Y-73538834D01*
X183899031Y-73534387D01*
X183741012Y-73475369D01*
X183692333Y-73359000D01*
X183723550Y-73246722D01*
X183882833Y-73162612D01*
X183948616Y-73150922D01*
X184056307Y-73093543D01*
X184026660Y-72985728D01*
X183858145Y-72805359D01*
X183824451Y-72772717D01*
X183673591Y-72564795D01*
X183681314Y-72395273D01*
X183850854Y-72257632D01*
X184185442Y-72145354D01*
X184477302Y-72084435D01*
X184670005Y-72075447D01*
X184776206Y-72123006D01*
G37*
G36*
X192709333Y-78864793D02*
G01*
X192709212Y-79030522D01*
X192706538Y-79648255D01*
X192700714Y-80204744D01*
X192692203Y-80678373D01*
X192681469Y-81047524D01*
X192668977Y-81290579D01*
X192655191Y-81385921D01*
X192597012Y-81420052D01*
X192547359Y-81379278D01*
X192510157Y-81243200D01*
X192483881Y-80997026D01*
X192467003Y-80625963D01*
X192457996Y-80115220D01*
X192455333Y-79450003D01*
X192455333Y-77550000D01*
X189492000Y-77550000D01*
X189492000Y-77964275D01*
X189492974Y-78034558D01*
X189526667Y-78303758D01*
X189605967Y-78422283D01*
X189646470Y-78449750D01*
X189788681Y-78588018D01*
X189989697Y-78811340D01*
X190219800Y-79087508D01*
X190547356Y-79494764D01*
X190719666Y-79709000D01*
X190677333Y-80535530D01*
X190663633Y-80750007D01*
X190630890Y-81067747D01*
X190591420Y-81282656D01*
X190550333Y-81361499D01*
X190533201Y-81347852D01*
X190493497Y-81209355D01*
X190461281Y-80948434D01*
X190441323Y-80598469D01*
X190416979Y-79836000D01*
X190171520Y-79836000D01*
X190036795Y-79846125D01*
X189938126Y-79920151D01*
X189899531Y-80111167D01*
X189897330Y-80131586D01*
X189853155Y-80312173D01*
X189788333Y-80386334D01*
X189781977Y-80385578D01*
X189718026Y-80298600D01*
X189677135Y-80111167D01*
X189650604Y-79836000D01*
X188059789Y-79836000D01*
X188035061Y-80492167D01*
X188034934Y-80495529D01*
X188009127Y-80862742D01*
X187969998Y-81065977D01*
X187923467Y-81109457D01*
X187875454Y-80997403D01*
X187831881Y-80734037D01*
X187798666Y-80323582D01*
X187794828Y-80256284D01*
X187753115Y-79805855D01*
X187686334Y-79480940D01*
X187587000Y-79243334D01*
X187417666Y-78947000D01*
X187375333Y-79435443D01*
X187351174Y-79653076D01*
X187304069Y-79873076D01*
X187252814Y-79933935D01*
X187203913Y-79841565D01*
X187163869Y-79601877D01*
X187139183Y-79220782D01*
X187134195Y-79051654D01*
X187132714Y-78749359D01*
X187138220Y-78693000D01*
X187487859Y-78693000D01*
X187772744Y-79137500D01*
X188057630Y-79582000D01*
X189202949Y-79582000D01*
X189644530Y-79583297D01*
X189978135Y-79578814D01*
X190172627Y-79554122D01*
X190243681Y-79494764D01*
X190206977Y-79386285D01*
X190078191Y-79214229D01*
X189873000Y-78964138D01*
X189731319Y-78803201D01*
X189553969Y-78675238D01*
X189400402Y-78689188D01*
X189239691Y-78838936D01*
X189087240Y-79027206D01*
X188536808Y-78832887D01*
X188242813Y-78743238D01*
X187945274Y-78679807D01*
X187737117Y-78665784D01*
X187487859Y-78693000D01*
X187138220Y-78693000D01*
X187150539Y-78566911D01*
X187193189Y-78469630D01*
X187266183Y-78422834D01*
X187351011Y-78379862D01*
X187485374Y-78254885D01*
X187539110Y-78202071D01*
X187727441Y-78150437D01*
X187962512Y-78174455D01*
X188174682Y-78272360D01*
X188277831Y-78331846D01*
X188480257Y-78389762D01*
X188676718Y-78397460D01*
X188815115Y-78355544D01*
X188843346Y-78264616D01*
X188840924Y-78169682D01*
X188973003Y-78085408D01*
X189111430Y-77995205D01*
X189153333Y-77794125D01*
X189153333Y-77550000D01*
X186362573Y-77550000D01*
X186339786Y-79412771D01*
X186332372Y-79872512D01*
X186315167Y-80476615D01*
X186292679Y-80912549D01*
X186266285Y-81180931D01*
X186237366Y-81282374D01*
X186207299Y-81217497D01*
X186177462Y-80986912D01*
X186149235Y-80591238D01*
X186123995Y-80031089D01*
X186103122Y-79307080D01*
X186058578Y-77338334D01*
X186042788Y-77296000D01*
X186359333Y-77296000D01*
X189153333Y-77296000D01*
X189492000Y-77296000D01*
X192455333Y-77296000D01*
X192455333Y-76534000D01*
X189492000Y-76534000D01*
X189492000Y-77296000D01*
X189153333Y-77296000D01*
X189153333Y-76534000D01*
X186359333Y-76534000D01*
X186359333Y-77296000D01*
X186042788Y-77296000D01*
X185663830Y-76280000D01*
X185269082Y-75221667D01*
X185242707Y-76999667D01*
X185231662Y-77546959D01*
X185213497Y-78067989D01*
X185190293Y-78454519D01*
X185162775Y-78694946D01*
X185131666Y-78777667D01*
X185129761Y-78777260D01*
X185103888Y-78686005D01*
X185081082Y-78452515D01*
X185061547Y-78102105D01*
X185045486Y-77660091D01*
X185033105Y-77151789D01*
X185024607Y-76602514D01*
X185020197Y-76037582D01*
X185020078Y-75482308D01*
X185024456Y-74962009D01*
X185033533Y-74502000D01*
X185037690Y-74390691D01*
X185273662Y-74390691D01*
X185308335Y-74533042D01*
X185387428Y-74794027D01*
X185501836Y-75144437D01*
X185642457Y-75555065D01*
X185703409Y-75728822D01*
X185862901Y-76174902D01*
X185977290Y-76477333D01*
X186052125Y-76649297D01*
X186092956Y-76703976D01*
X186105333Y-76654555D01*
X186104775Y-76647895D01*
X186071009Y-76523222D01*
X185993801Y-76287465D01*
X185885498Y-75974514D01*
X185758451Y-75618259D01*
X185625006Y-75252589D01*
X185497512Y-74911395D01*
X185388317Y-74628566D01*
X185309770Y-74437991D01*
X185274218Y-74373560D01*
X185273662Y-74390691D01*
X185037690Y-74390691D01*
X185047515Y-74127597D01*
X185064863Y-73888167D01*
X185427597Y-73888167D01*
X185432058Y-73910728D01*
X185478205Y-74065792D01*
X185566451Y-74338308D01*
X185686927Y-74698165D01*
X185829764Y-75115254D01*
X186232333Y-76278841D01*
X187735166Y-76279421D01*
X188170377Y-76276454D01*
X188597108Y-76266487D01*
X188935224Y-76250748D01*
X189157822Y-76230532D01*
X189238000Y-76207131D01*
X189214507Y-76190606D01*
X189060707Y-76169891D01*
X188795105Y-76163532D01*
X188454833Y-76173141D01*
X187671666Y-76212019D01*
X187623477Y-76162059D01*
X189576666Y-76162059D01*
X189586406Y-76190442D01*
X189617358Y-76207131D01*
X189655045Y-76227452D01*
X189807673Y-76253125D01*
X190065614Y-76269248D01*
X190450190Y-76277610D01*
X190982725Y-76280000D01*
X191276529Y-76279724D01*
X191713710Y-76276723D01*
X192016344Y-76268381D01*
X192207168Y-76252211D01*
X192308919Y-76225722D01*
X192344333Y-76186426D01*
X192336148Y-76131834D01*
X192332367Y-76121323D01*
X192275504Y-75968590D01*
X192173334Y-75697886D01*
X192039093Y-75344185D01*
X191886017Y-74942459D01*
X191846772Y-74839711D01*
X191695107Y-74448195D01*
X191584350Y-74185180D01*
X191498762Y-74026084D01*
X191422607Y-73946321D01*
X191340148Y-73921308D01*
X191235648Y-73926459D01*
X191156437Y-73936540D01*
X191066904Y-73969708D01*
X191058958Y-73978944D01*
X190997183Y-74050746D01*
X190932591Y-74208884D01*
X190858447Y-74473358D01*
X190760070Y-74873399D01*
X190726423Y-75009961D01*
X190602003Y-75451786D01*
X190528283Y-75634668D01*
X190481359Y-75751074D01*
X190350820Y-75928188D01*
X190196712Y-76003488D01*
X190005366Y-75997333D01*
X189844788Y-75980966D01*
X189647684Y-76027638D01*
X189576666Y-76162059D01*
X187623477Y-76162059D01*
X187334826Y-75862800D01*
X187287739Y-75813234D01*
X187110292Y-75588168D01*
X187103113Y-75555007D01*
X187567685Y-75555007D01*
X187668962Y-75684345D01*
X187767782Y-75769003D01*
X187958057Y-75834726D01*
X188256289Y-75848227D01*
X188397211Y-75842879D01*
X188688431Y-75817576D01*
X188899333Y-75780910D01*
X189019556Y-75735813D01*
X189091680Y-75634668D01*
X189081366Y-75433334D01*
X189080672Y-75430036D01*
X188990839Y-75372456D01*
X188803323Y-75348667D01*
X188770940Y-75348022D01*
X188495771Y-75315613D01*
X188206491Y-75249351D01*
X188182915Y-75242340D01*
X188070921Y-75216906D01*
X189412475Y-75216906D01*
X189442175Y-75371907D01*
X189482230Y-75459880D01*
X189608570Y-75570027D01*
X189843841Y-75618434D01*
X189993996Y-75629487D01*
X190127022Y-75604822D01*
X190208422Y-75496906D01*
X190288072Y-75266190D01*
X190316859Y-75170894D01*
X190398779Y-74867504D01*
X190453814Y-74617711D01*
X190498719Y-74384134D01*
X190555420Y-74130878D01*
X190557329Y-74123234D01*
X190577393Y-73978944D01*
X190510797Y-73920372D01*
X190316333Y-73909334D01*
X190259927Y-73909745D01*
X190095057Y-73933089D01*
X190014848Y-74027635D01*
X189968444Y-74242018D01*
X189873781Y-74529496D01*
X189640122Y-74865515D01*
X189627123Y-74879305D01*
X189466631Y-75071874D01*
X189412475Y-75216906D01*
X188070921Y-75216906D01*
X187967703Y-75193465D01*
X187829563Y-75219071D01*
X187694008Y-75331029D01*
X187578477Y-75458839D01*
X187567685Y-75555007D01*
X187103113Y-75555007D01*
X187072224Y-75412314D01*
X187178377Y-75245733D01*
X187433598Y-75048486D01*
X187687640Y-74875306D01*
X187531487Y-74584141D01*
X187515509Y-74553122D01*
X187416001Y-74291841D01*
X187375333Y-74058821D01*
X187375333Y-73845834D01*
X187544983Y-73845834D01*
X187586131Y-73909787D01*
X187722431Y-73903638D01*
X187916125Y-73826921D01*
X188127582Y-73700190D01*
X188317173Y-73543998D01*
X188445267Y-73378901D01*
X188511252Y-73217361D01*
X188505097Y-73060300D01*
X188379106Y-73018745D01*
X188143317Y-73101906D01*
X188141956Y-73102612D01*
X187948931Y-73246529D01*
X187755019Y-73455764D01*
X187605333Y-73674228D01*
X187544983Y-73845834D01*
X187375333Y-73845834D01*
X187375333Y-73824667D01*
X186401666Y-73824667D01*
X186039548Y-73829246D01*
X185721980Y-73842799D01*
X185506851Y-73863166D01*
X185427597Y-73888167D01*
X185064863Y-73888167D01*
X185066606Y-73864115D01*
X185091009Y-73736870D01*
X185127727Y-73682025D01*
X185199468Y-73631602D01*
X185325911Y-73599131D01*
X185535707Y-73580734D01*
X185857512Y-73572538D01*
X186319979Y-73570667D01*
X187460000Y-73570667D01*
X187790046Y-73240621D01*
X188029365Y-73037081D01*
X188425039Y-72845848D01*
X188827068Y-72822656D01*
X189227871Y-72967345D01*
X189541586Y-73217361D01*
X189619871Y-73279750D01*
X189984896Y-73655333D01*
X190791784Y-73655334D01*
X190928987Y-73656349D01*
X191293264Y-73671499D01*
X191544607Y-73702507D01*
X191654962Y-73746411D01*
X191679787Y-73798304D01*
X191761301Y-73990917D01*
X191884669Y-74294222D01*
X192038222Y-74679404D01*
X192210292Y-75117648D01*
X192626931Y-76186426D01*
X192709333Y-76397808D01*
X192709333Y-78864793D01*
G37*
D22*
X198255000Y-50686750D03*
D23*
X198255000Y-53226750D03*
X198255000Y-55766750D03*
X198255000Y-58306750D03*
X198255000Y-60846750D03*
X198255000Y-63386750D03*
X198255000Y-65926750D03*
X198255000Y-68466750D03*
X198255000Y-71006750D03*
X198255000Y-73546750D03*
X198255000Y-76086750D03*
X198255000Y-78626750D03*
X213495000Y-78626750D03*
X213495000Y-76086750D03*
X213495000Y-73546750D03*
X213495000Y-71006750D03*
X213495000Y-68466750D03*
X213495000Y-65926750D03*
X213495000Y-63386750D03*
X213495000Y-60846750D03*
X213495000Y-58306750D03*
X213495000Y-55766750D03*
X213495000Y-53226750D03*
X213495000Y-50686750D03*
%LPC*%
D24*
X204830000Y-45110000D03*
X207730000Y-45110000D03*
D25*
X157270000Y-131055000D03*
X157270000Y-127505000D03*
D26*
X122480000Y-64975000D03*
X122480000Y-63225000D03*
X126880000Y-63225000D03*
X126880000Y-64975000D03*
D27*
X74600000Y-93150001D03*
D28*
X77140000Y-98230001D03*
D29*
X69520000Y-93150001D03*
D28*
X78410000Y-95690001D03*
X70790000Y-95690002D03*
D30*
X79100000Y-93150001D03*
D28*
X72060000Y-98230001D03*
D30*
X70100000Y-93150001D03*
D29*
X79680000Y-93150001D03*
D31*
X77000000Y-88525001D03*
X77000000Y-86775001D03*
X72200000Y-86775001D03*
X72200000Y-88525001D03*
D32*
X81600000Y-95730001D03*
X68900000Y-98270001D03*
D28*
X189060000Y-117320000D03*
D30*
X191020000Y-112240000D03*
X182020000Y-112240000D03*
D28*
X183980000Y-117320000D03*
D27*
X186520000Y-112240000D03*
D29*
X181440000Y-112240000D03*
D28*
X190330000Y-114780000D03*
X182710000Y-114780001D03*
D29*
X191600000Y-112240000D03*
D31*
X188920000Y-107615000D03*
X188920000Y-105865000D03*
X184120000Y-105865000D03*
X184120000Y-107615000D03*
D32*
X193520000Y-114820000D03*
X180820000Y-117360000D03*
D29*
X139220000Y-74110000D03*
D28*
X137950000Y-76650000D03*
D30*
X138640000Y-74110000D03*
D29*
X129060000Y-74110000D03*
D28*
X130330000Y-76650001D03*
D30*
X129640000Y-74110000D03*
D28*
X131600000Y-79190000D03*
X136680000Y-79190000D03*
D27*
X134140000Y-74110000D03*
D31*
X136540000Y-69485000D03*
X136540000Y-67735000D03*
X131740000Y-67735000D03*
X131740000Y-69485000D03*
D32*
X141140000Y-76690000D03*
X128440000Y-79230000D03*
D25*
X121860000Y-111725000D03*
X121860000Y-108175000D03*
D33*
X187880000Y-66240000D03*
D27*
X157950000Y-93180000D03*
D28*
X160490000Y-98260000D03*
X155410000Y-98260000D03*
X154140000Y-95720001D03*
D30*
X153450000Y-93180000D03*
D28*
X161760000Y-95720000D03*
D29*
X163030000Y-93180000D03*
D30*
X162450000Y-93180000D03*
D29*
X152870000Y-93180000D03*
D31*
X160350000Y-88555000D03*
X160350000Y-86805000D03*
X155550000Y-86805000D03*
X155550000Y-88555000D03*
D32*
X164950000Y-95760000D03*
X152250000Y-98300000D03*
D26*
X141532100Y-128805000D03*
X141532100Y-127055000D03*
X145932100Y-127055000D03*
X145932100Y-128805000D03*
D25*
X97780000Y-54300000D03*
X97780000Y-50750000D03*
X92760000Y-92870000D03*
X92760000Y-89320000D03*
X127060000Y-73065000D03*
X127060000Y-69515000D03*
X136000000Y-54435000D03*
X136000000Y-50885000D03*
X92950000Y-130885000D03*
X92950000Y-127335000D03*
D28*
X198250000Y-136380000D03*
D30*
X196290000Y-131300000D03*
D27*
X200790000Y-131300000D03*
D28*
X196980000Y-133840001D03*
X203330000Y-136380000D03*
D29*
X195710000Y-131300000D03*
D28*
X204600000Y-133840000D03*
D29*
X205870000Y-131300000D03*
D30*
X205290000Y-131300000D03*
D31*
X203190000Y-126675000D03*
X203190000Y-124925000D03*
X198390000Y-124925000D03*
X198390000Y-126675000D03*
D32*
X207790000Y-133880000D03*
X195090000Y-136420000D03*
D25*
X88200000Y-73290000D03*
X88200000Y-69740000D03*
D28*
X169990000Y-117310000D03*
D29*
X162370000Y-112230000D03*
D28*
X163640000Y-114770001D03*
D29*
X172530000Y-112230000D03*
D28*
X171260000Y-114770000D03*
D30*
X162950000Y-112230000D03*
X171950000Y-112230000D03*
D27*
X167450000Y-112230000D03*
D28*
X164910000Y-117310000D03*
D31*
X169850000Y-107605000D03*
X169850000Y-105855000D03*
X165050000Y-105855000D03*
X165050000Y-107605000D03*
D32*
X174450000Y-114810000D03*
X161750000Y-117350000D03*
D30*
X71940000Y-55050000D03*
D28*
X71250000Y-57590000D03*
D27*
X67440000Y-55050000D03*
D28*
X69980000Y-60130000D03*
X63630000Y-57590001D03*
D29*
X62360000Y-55050000D03*
X72520000Y-55050000D03*
D28*
X64900000Y-60130000D03*
D30*
X62940000Y-55050000D03*
D31*
X69840000Y-50425000D03*
X69840000Y-48675000D03*
X65040000Y-48675000D03*
X65040000Y-50425000D03*
D32*
X74440000Y-57630000D03*
X61740000Y-60170000D03*
D25*
X141230000Y-110155000D03*
X141230000Y-106605000D03*
X169070000Y-92185000D03*
X169070000Y-88635000D03*
X131670000Y-92385000D03*
X131670000Y-88835000D03*
D26*
X203780000Y-54495000D03*
X203780000Y-52745000D03*
X208180000Y-52745000D03*
X208180000Y-54495000D03*
D25*
X173440000Y-54360000D03*
X173440000Y-50810000D03*
X102330000Y-111600000D03*
X102330000Y-108050000D03*
X192570000Y-130755000D03*
X192570000Y-127205000D03*
X164200000Y-73220000D03*
X164200000Y-69670000D03*
D33*
X83660000Y-67470000D03*
D27*
X181745000Y-55050000D03*
D28*
X179205000Y-60130000D03*
D30*
X186245000Y-55050000D03*
D28*
X185555000Y-57590000D03*
D29*
X186825000Y-55050000D03*
X176665000Y-55050000D03*
D28*
X184285000Y-60130000D03*
D30*
X177245000Y-55050000D03*
D28*
X177935000Y-57590001D03*
D31*
X184145000Y-50425000D03*
X184145000Y-48675000D03*
X179345000Y-48675000D03*
X179345000Y-50425000D03*
D32*
X188745000Y-57630000D03*
X176045000Y-60170000D03*
D25*
X159950000Y-111695000D03*
X159950000Y-108145000D03*
D33*
X183270000Y-135710000D03*
D25*
X107800000Y-73345000D03*
X107800000Y-69795000D03*
D30*
X181500000Y-93180000D03*
D28*
X174460000Y-98260000D03*
X173190000Y-95720001D03*
D27*
X177000000Y-93180000D03*
D28*
X179540000Y-98260000D03*
D29*
X182080000Y-93180000D03*
D28*
X180810000Y-95720000D03*
D30*
X172500000Y-93180000D03*
D29*
X171920000Y-93180000D03*
D31*
X179400000Y-88555000D03*
X179400000Y-86805000D03*
X174600000Y-86805000D03*
X174600000Y-88555000D03*
D32*
X184000000Y-95760000D03*
X171300000Y-98300000D03*
D33*
X64880000Y-111770000D03*
D30*
X160580000Y-131290000D03*
D27*
X165080000Y-131290000D03*
D29*
X160000000Y-131290000D03*
D28*
X162540000Y-136370000D03*
D29*
X170160000Y-131290000D03*
D30*
X169580000Y-131290000D03*
D28*
X167620000Y-136370000D03*
X161270000Y-133830001D03*
X168890000Y-133830000D03*
D31*
X167480000Y-126665000D03*
X167480000Y-124915000D03*
X162680000Y-124915000D03*
X162680000Y-126665000D03*
D32*
X172080000Y-133870000D03*
X159380000Y-136410000D03*
D25*
X66870000Y-92595000D03*
X66870000Y-89045000D03*
D29*
X158270000Y-74110000D03*
D28*
X155730000Y-79190000D03*
D30*
X148690000Y-74110000D03*
D28*
X149380000Y-76650001D03*
D29*
X148110000Y-74110000D03*
D27*
X153190000Y-74110000D03*
D28*
X150650000Y-79190000D03*
X157000000Y-76650000D03*
D30*
X157690000Y-74110000D03*
D31*
X155590000Y-69485000D03*
X155590000Y-67735000D03*
X150790000Y-67735000D03*
X150790000Y-69485000D03*
D32*
X160190000Y-76690000D03*
X147490000Y-79230000D03*
D30*
X176740000Y-74110000D03*
D28*
X168430000Y-76650001D03*
X176050000Y-76650000D03*
X169700000Y-79190000D03*
X174780000Y-79190000D03*
D27*
X172240000Y-74110000D03*
D29*
X167160000Y-74110000D03*
D30*
X167740000Y-74110000D03*
D29*
X177320000Y-74110000D03*
D31*
X174640000Y-69485000D03*
X174640000Y-67735000D03*
X169840000Y-67735000D03*
X169840000Y-69485000D03*
D32*
X179240000Y-76690000D03*
X166540000Y-79230000D03*
D26*
X205540000Y-116375000D03*
X205540000Y-118125000D03*
X201140000Y-118125000D03*
X201140000Y-116375000D03*
D34*
X207585000Y-96565000D03*
X214585000Y-94815000D03*
X207585000Y-94815000D03*
X214585000Y-96565000D03*
D35*
X205785000Y-98665000D03*
X205785000Y-92715000D03*
X209785000Y-92715000D03*
X209785000Y-98665000D03*
X212785000Y-98665000D03*
X212785000Y-92715000D03*
X204285000Y-96915000D03*
X204285000Y-94465000D03*
D29*
X143980000Y-93180000D03*
D28*
X135090000Y-95720001D03*
D29*
X133820000Y-93180000D03*
D28*
X141440000Y-98260000D03*
D30*
X143400000Y-93180000D03*
D27*
X138900000Y-93180000D03*
D28*
X136360000Y-98260000D03*
D30*
X134400000Y-93180000D03*
D28*
X142710000Y-95720000D03*
D31*
X141300000Y-88555000D03*
X141300000Y-86805000D03*
X136500000Y-86805000D03*
X136500000Y-88555000D03*
D32*
X145900000Y-95760000D03*
X133200000Y-98300000D03*
D28*
X122055000Y-60130000D03*
X120785000Y-57590001D03*
D29*
X119515000Y-55050000D03*
D27*
X124595000Y-55050000D03*
D30*
X120095000Y-55050000D03*
D28*
X127135000Y-60130000D03*
D30*
X129095000Y-55050000D03*
D29*
X129675000Y-55050000D03*
D28*
X128405000Y-57590000D03*
D31*
X126995000Y-50425000D03*
X126995000Y-48675000D03*
X122195000Y-48675000D03*
X122195000Y-50425000D03*
D32*
X131595000Y-57630000D03*
X118895000Y-60170000D03*
D27*
X72200000Y-74090000D03*
D28*
X76010000Y-76630000D03*
D29*
X67120000Y-74090000D03*
D28*
X69660000Y-79170000D03*
X68390000Y-76630001D03*
D29*
X77280000Y-74090000D03*
D28*
X74740000Y-79170000D03*
D30*
X76700000Y-74090000D03*
X67700000Y-74090000D03*
D31*
X74600000Y-69465000D03*
X74600000Y-67715000D03*
X69800000Y-67715000D03*
X69800000Y-69465000D03*
D32*
X79200000Y-76670000D03*
X66500000Y-79210000D03*
D36*
X204075000Y-78545000D03*
D37*
X207675000Y-78545000D03*
D22*
X198255000Y-50686750D03*
D23*
X198255000Y-53226750D03*
X198255000Y-55766750D03*
X198255000Y-58306750D03*
X198255000Y-60846750D03*
X198255000Y-63386750D03*
X198255000Y-65926750D03*
X198255000Y-68466750D03*
X198255000Y-71006750D03*
X198255000Y-73546750D03*
X198255000Y-76086750D03*
X198255000Y-78626750D03*
X213495000Y-78626750D03*
X213495000Y-76086750D03*
X213495000Y-73546750D03*
X213495000Y-71006750D03*
X213495000Y-68466750D03*
X213495000Y-65926750D03*
X213495000Y-63386750D03*
X213495000Y-60846750D03*
X213495000Y-58306750D03*
X213495000Y-55766750D03*
X213495000Y-53226750D03*
X213495000Y-50686750D03*
D25*
X64180000Y-73445000D03*
X64180000Y-69895000D03*
D26*
X76122100Y-64845000D03*
X76122100Y-63095000D03*
X80522100Y-63095000D03*
X80522100Y-64845000D03*
D25*
X112110000Y-92635000D03*
X112110000Y-89085000D03*
X121590000Y-131295000D03*
X121590000Y-127745000D03*
D38*
X202065000Y-82990000D03*
X204605000Y-82990000D03*
X207145000Y-82990000D03*
X209685000Y-82990000D03*
D30*
X152920000Y-112240000D03*
D29*
X143340000Y-112240000D03*
D28*
X144610000Y-114780001D03*
X150960000Y-117320000D03*
D29*
X153500000Y-112240000D03*
D28*
X152230000Y-114780000D03*
D27*
X148420000Y-112240000D03*
D28*
X145880000Y-117320000D03*
D30*
X143920000Y-112240000D03*
D31*
X150820000Y-107615000D03*
X150820000Y-105865000D03*
X146020000Y-105865000D03*
X146020000Y-107615000D03*
D32*
X155420000Y-114820000D03*
X142720000Y-117360000D03*
D29*
X74280000Y-112270000D03*
X84440000Y-112270000D03*
D27*
X79360000Y-112270000D03*
D28*
X76820000Y-117350000D03*
X81900000Y-117350000D03*
D30*
X74860000Y-112270000D03*
D28*
X75550000Y-114810001D03*
X83170000Y-114810000D03*
D30*
X83860000Y-112270000D03*
D31*
X81760000Y-107645000D03*
X81760000Y-105895000D03*
X76960000Y-105895000D03*
X76960000Y-107645000D03*
D32*
X86360000Y-114850000D03*
X73660000Y-117390000D03*
D28*
X133180000Y-114780000D03*
D30*
X133870000Y-112240000D03*
D29*
X124290000Y-112240000D03*
D30*
X124870000Y-112240000D03*
D29*
X134450000Y-112240000D03*
D28*
X125560000Y-114780001D03*
X126830000Y-117320000D03*
D27*
X129370000Y-112240000D03*
D28*
X131910000Y-117320000D03*
D31*
X131770000Y-107615000D03*
X131770000Y-105865000D03*
X126970000Y-105865000D03*
X126970000Y-107615000D03*
D32*
X136370000Y-114820000D03*
X123670000Y-117360000D03*
D28*
X74750000Y-136400001D03*
D30*
X76710000Y-131320001D03*
D28*
X69670000Y-136400001D03*
X76020000Y-133860001D03*
D29*
X77290000Y-131320001D03*
X67130000Y-131320001D03*
D28*
X68400000Y-133860002D03*
D27*
X72210000Y-131320001D03*
D30*
X67710000Y-131320001D03*
D31*
X74610000Y-126695001D03*
X74610000Y-124945001D03*
X69810000Y-124945001D03*
X69810000Y-126695001D03*
D32*
X79210000Y-133900001D03*
X66510000Y-136440001D03*
D25*
X64410000Y-130765000D03*
X64410000Y-127215000D03*
D26*
X83362100Y-129875000D03*
X83362100Y-128125000D03*
X87762100Y-128125000D03*
X87762100Y-129875000D03*
D25*
X178740000Y-111865000D03*
X178740000Y-108315000D03*
X154850000Y-54415000D03*
X154850000Y-50865000D03*
X145170000Y-73190000D03*
X145170000Y-69640000D03*
D29*
X114770000Y-93180000D03*
D27*
X119850000Y-93180000D03*
D30*
X115350000Y-93180000D03*
X124350000Y-93180000D03*
D28*
X122390000Y-98260000D03*
X116040000Y-95720001D03*
D29*
X124930000Y-93180000D03*
D28*
X117310000Y-98260000D03*
X123660000Y-95720000D03*
D31*
X122250000Y-88555000D03*
X122250000Y-86805000D03*
X117450000Y-86805000D03*
X117450000Y-88555000D03*
D32*
X126850000Y-95760000D03*
X114150000Y-98300000D03*
D27*
X162695000Y-55050000D03*
D29*
X157615000Y-55050000D03*
D30*
X158195000Y-55050000D03*
D29*
X167775000Y-55050000D03*
D28*
X165235000Y-60130000D03*
X166505000Y-57590000D03*
X160155000Y-60130000D03*
D30*
X167195000Y-55050000D03*
D28*
X158885000Y-57590001D03*
D31*
X165095000Y-50425000D03*
X165095000Y-48675000D03*
X160295000Y-48675000D03*
X160295000Y-50425000D03*
D32*
X169695000Y-57630000D03*
X156995000Y-60170000D03*
D28*
X108085000Y-60130000D03*
D29*
X100465000Y-55050000D03*
D30*
X110045000Y-55050000D03*
D28*
X109355000Y-57590000D03*
X101735000Y-57590001D03*
D29*
X110625000Y-55050000D03*
D28*
X103005000Y-60130000D03*
D30*
X101045000Y-55050000D03*
D27*
X105545000Y-55050000D03*
D31*
X107945000Y-50425000D03*
X107945000Y-48675000D03*
X103145000Y-48675000D03*
X103145000Y-50425000D03*
D32*
X112545000Y-57630000D03*
X99845000Y-60170000D03*
D29*
X124280000Y-131300000D03*
D28*
X133170000Y-133840000D03*
X125550000Y-133840001D03*
D30*
X133860000Y-131300000D03*
D28*
X126820000Y-136380000D03*
D30*
X124860000Y-131300000D03*
D29*
X134440000Y-131300000D03*
D27*
X129360000Y-131300000D03*
D28*
X131900000Y-136380000D03*
D31*
X131760000Y-126675000D03*
X131760000Y-124925000D03*
X126960000Y-124925000D03*
X126960000Y-126675000D03*
D32*
X136360000Y-133880000D03*
X123660000Y-136420000D03*
D28*
X98580000Y-79190000D03*
X92230000Y-76650001D03*
X99850000Y-76650000D03*
X93500000Y-79190000D03*
D29*
X90960000Y-74110000D03*
D30*
X91540000Y-74110000D03*
D29*
X101120000Y-74110000D03*
D30*
X100540000Y-74110000D03*
D27*
X96040000Y-74110000D03*
D31*
X98440000Y-69485000D03*
X98440000Y-67735000D03*
X93640000Y-67735000D03*
X93640000Y-69485000D03*
D32*
X103040000Y-76690000D03*
X90340000Y-79230000D03*
D30*
X90995000Y-55050000D03*
D28*
X90305000Y-57590000D03*
X83955000Y-60130000D03*
X82685000Y-57590001D03*
D29*
X81415000Y-55050000D03*
D28*
X89035000Y-60130000D03*
D27*
X86495000Y-55050000D03*
D30*
X81995000Y-55050000D03*
D29*
X91575000Y-55050000D03*
D31*
X88895000Y-50425000D03*
X88895000Y-48675000D03*
X84095000Y-48675000D03*
X84095000Y-50425000D03*
D32*
X93495000Y-57630000D03*
X80795000Y-60170000D03*
D28*
X104530000Y-133850000D03*
D30*
X105220000Y-131310000D03*
D29*
X95640000Y-131310000D03*
D30*
X96220000Y-131310000D03*
D29*
X105800000Y-131310000D03*
D28*
X103260000Y-136390000D03*
D27*
X100720000Y-131310000D03*
D28*
X96910000Y-133850001D03*
X98180000Y-136390000D03*
D31*
X103120000Y-126685000D03*
X103120000Y-124935000D03*
X98320000Y-124935000D03*
X98320000Y-126685000D03*
D32*
X107720000Y-133890000D03*
X95020000Y-136430000D03*
D25*
X116770000Y-54180000D03*
X116770000Y-50630000D03*
X78280000Y-54350000D03*
X78280000Y-50800000D03*
X150210000Y-92895000D03*
X150210000Y-89345000D03*
D27*
X110320000Y-112240000D03*
D28*
X112860000Y-117320000D03*
X114130000Y-114780000D03*
D29*
X105240000Y-112240000D03*
D30*
X105820000Y-112240000D03*
D29*
X115400000Y-112240000D03*
D28*
X107780000Y-117320000D03*
X106510000Y-114780001D03*
D30*
X114820000Y-112240000D03*
D31*
X112720000Y-107615000D03*
X112720000Y-105865000D03*
X107920000Y-105865000D03*
X107920000Y-107615000D03*
D32*
X117320000Y-114820000D03*
X104620000Y-117360000D03*
D39*
X214130000Y-89415000D03*
X214130000Y-82915000D03*
D28*
X147455000Y-57590000D03*
D27*
X143645000Y-55050000D03*
D28*
X141105000Y-60130000D03*
D29*
X138565000Y-55050000D03*
X148725000Y-55050000D03*
D28*
X146185000Y-60130000D03*
D30*
X139145000Y-55050000D03*
D28*
X139835000Y-57590001D03*
D30*
X148145000Y-55050000D03*
D31*
X146045000Y-50425000D03*
X146045000Y-48675000D03*
X141245000Y-48675000D03*
X141245000Y-50425000D03*
D32*
X150645000Y-57630000D03*
X137945000Y-60170000D03*
D29*
X105880000Y-93180000D03*
D28*
X96990000Y-95720001D03*
D27*
X100800000Y-93180000D03*
D30*
X105300000Y-93180000D03*
X96300000Y-93180000D03*
D28*
X103340000Y-98260000D03*
D29*
X95720000Y-93180000D03*
D28*
X104610000Y-95720000D03*
X98260000Y-98260000D03*
D31*
X103200000Y-88555000D03*
X103200000Y-86805000D03*
X98400000Y-86805000D03*
X98400000Y-88555000D03*
D32*
X107800000Y-95760000D03*
X95100000Y-98300000D03*
D25*
X71480000Y-111740000D03*
X71480000Y-108190000D03*
X59570000Y-54490000D03*
X59570000Y-50940000D03*
D30*
X119590000Y-74110000D03*
D29*
X110010000Y-74110000D03*
X120170000Y-74110000D03*
D28*
X117630000Y-79190000D03*
D27*
X115090000Y-74110000D03*
D28*
X112550000Y-79190000D03*
X118900000Y-76650000D03*
D30*
X110590000Y-74110000D03*
D28*
X111280000Y-76650001D03*
D31*
X117490000Y-69485000D03*
X117490000Y-67735000D03*
X112690000Y-67735000D03*
X112690000Y-69485000D03*
D32*
X122090000Y-76690000D03*
X109390000Y-79230000D03*
M02*
