G04 #@! TF.GenerationSoftware,KiCad,Pcbnew,(6.0.7)*
G04 #@! TF.CreationDate,2022-08-10T12:46:35+00:00*
G04 #@! TF.ProjectId,zzsplit,7a7a7370-6c69-4742-9e6b-696361645f70,rev?*
G04 #@! TF.SameCoordinates,Original*
G04 #@! TF.FileFunction,Profile,NP*
%FSLAX46Y46*%
G04 Gerber Fmt 4.6, Leading zero omitted, Abs format (unit mm)*
G04 Created by KiCad (PCBNEW (6.0.7)) date 2022-08-10 12:46:35*
%MOMM*%
%LPD*%
G01*
G04 APERTURE LIST*
G04 #@! TA.AperFunction,Profile*
%ADD10C,0.150000*%
G04 #@! TD*
G04 #@! TA.AperFunction,Profile*
%ADD11C,0.100000*%
G04 #@! TD*
G04 APERTURE END LIST*
D10*
X65690000Y-47300000D02*
X69190000Y-47300000D01*
X69190000Y-51800000D02*
X65690000Y-51800000D01*
X65690000Y-51800000D02*
X65690000Y-47300000D01*
X69190000Y-47300000D02*
X69190000Y-51800000D01*
X84750000Y-47300000D02*
X88250000Y-47300000D01*
X88250000Y-51800000D02*
X84750000Y-51800000D01*
X84750000Y-51800000D02*
X84750000Y-47300000D01*
X88250000Y-47300000D02*
X88250000Y-51800000D01*
X94290000Y-66360000D02*
X97790000Y-66360000D01*
X97790000Y-70860000D02*
X94290000Y-70860000D01*
X94290000Y-70860000D02*
X94290000Y-66360000D01*
X97790000Y-66360000D02*
X97790000Y-70860000D01*
X70450000Y-66350000D02*
X73950000Y-66350000D01*
X73950000Y-70850000D02*
X70450000Y-70850000D01*
X70450000Y-70850000D02*
X70450000Y-66350000D01*
X73950000Y-66350000D02*
X73950000Y-70850000D01*
X72850000Y-85400000D02*
X76350000Y-85400000D01*
X76350000Y-89900000D02*
X72850000Y-89900000D01*
X72850000Y-89900000D02*
X72850000Y-85400000D01*
X76350000Y-85400000D02*
X76350000Y-89900000D01*
X99050000Y-85430000D02*
X102550000Y-85430000D01*
X102550000Y-89930000D02*
X99050000Y-89930000D01*
X99050000Y-89930000D02*
X99050000Y-85430000D01*
X102550000Y-85430000D02*
X102550000Y-89930000D01*
X77610000Y-104520000D02*
X81110000Y-104520000D01*
X81110000Y-109020000D02*
X77610000Y-109020000D01*
X77610000Y-109020000D02*
X77610000Y-104520000D01*
X81110000Y-104520000D02*
X81110000Y-109020000D01*
X70460000Y-123570000D02*
X73960000Y-123570000D01*
X73960000Y-128070000D02*
X70460000Y-128070000D01*
X70460000Y-128070000D02*
X70460000Y-123570000D01*
X73960000Y-123570000D02*
X73960000Y-128070000D01*
X108560000Y-104500000D02*
X112060000Y-104500000D01*
X112060000Y-109000000D02*
X108560000Y-109000000D01*
X108560000Y-109000000D02*
X108560000Y-104500000D01*
X112060000Y-104500000D02*
X112060000Y-109000000D01*
X98960000Y-123560000D02*
X102460000Y-123560000D01*
X102460000Y-128060000D02*
X98960000Y-128060000D01*
X98960000Y-128060000D02*
X98960000Y-123560000D01*
X102460000Y-123560000D02*
X102460000Y-128060000D01*
X127610000Y-123550000D02*
X131110000Y-123550000D01*
X131110000Y-128050000D02*
X127610000Y-128050000D01*
X127610000Y-128050000D02*
X127610000Y-123550000D01*
X131110000Y-123550000D02*
X131110000Y-128050000D01*
X127620000Y-104490000D02*
X131120000Y-104490000D01*
X131120000Y-108990000D02*
X127620000Y-108990000D01*
X127620000Y-108990000D02*
X127620000Y-104490000D01*
X131120000Y-104490000D02*
X131120000Y-108990000D01*
X118100000Y-85430000D02*
X121600000Y-85430000D01*
X121600000Y-89930000D02*
X118100000Y-89930000D01*
X118100000Y-89930000D02*
X118100000Y-85430000D01*
X121600000Y-85430000D02*
X121600000Y-89930000D01*
X113330000Y-66360000D02*
X116830000Y-66360000D01*
X116830000Y-70860000D02*
X113330000Y-70860000D01*
X113330000Y-70860000D02*
X113330000Y-66360000D01*
X116830000Y-66360000D02*
X116830000Y-70860000D01*
X103790000Y-47300000D02*
X107290000Y-47300000D01*
X107290000Y-51800000D02*
X103790000Y-51800000D01*
X103790000Y-51800000D02*
X103790000Y-47300000D01*
X107290000Y-47300000D02*
X107290000Y-51800000D01*
X122840000Y-47300000D02*
X126340000Y-47300000D01*
X126340000Y-51800000D02*
X122840000Y-51800000D01*
X122840000Y-51800000D02*
X122840000Y-47300000D01*
X126340000Y-47300000D02*
X126340000Y-51800000D01*
X141890000Y-47300000D02*
X145390000Y-47300000D01*
X145390000Y-51800000D02*
X141890000Y-51800000D01*
X141890000Y-51800000D02*
X141890000Y-47300000D01*
X145390000Y-47300000D02*
X145390000Y-51800000D01*
X132390000Y-66360000D02*
X135890000Y-66360000D01*
X135890000Y-70860000D02*
X132390000Y-70860000D01*
X132390000Y-70860000D02*
X132390000Y-66360000D01*
X135890000Y-66360000D02*
X135890000Y-70860000D01*
X137150000Y-85420000D02*
X140650000Y-85420000D01*
X140650000Y-89920000D02*
X137150000Y-89920000D01*
X137150000Y-89920000D02*
X137150000Y-85420000D01*
X140650000Y-85420000D02*
X140650000Y-89920000D01*
X146670000Y-104490000D02*
X150170000Y-104490000D01*
X150170000Y-108990000D02*
X146670000Y-108990000D01*
X146670000Y-108990000D02*
X146670000Y-104490000D01*
X150170000Y-104490000D02*
X150170000Y-108990000D01*
X160950000Y-47300000D02*
X164450000Y-47300000D01*
X164450000Y-51800000D02*
X160950000Y-51800000D01*
X160950000Y-51800000D02*
X160950000Y-47300000D01*
X164450000Y-47300000D02*
X164450000Y-51800000D01*
X151440000Y-66360000D02*
X154940000Y-66360000D01*
X154940000Y-70860000D02*
X151440000Y-70860000D01*
X151440000Y-70860000D02*
X151440000Y-66360000D01*
X154940000Y-66360000D02*
X154940000Y-70860000D01*
X156200000Y-85420000D02*
X159700000Y-85420000D01*
X159700000Y-89920000D02*
X156200000Y-89920000D01*
X156200000Y-89920000D02*
X156200000Y-85420000D01*
X159700000Y-85420000D02*
X159700000Y-89920000D01*
X165700000Y-104480000D02*
X169200000Y-104480000D01*
X169200000Y-108980000D02*
X165700000Y-108980000D01*
X165700000Y-108980000D02*
X165700000Y-104480000D01*
X169200000Y-104480000D02*
X169200000Y-108980000D01*
X163330000Y-123540000D02*
X166830000Y-123540000D01*
X166830000Y-128040000D02*
X163330000Y-128040000D01*
X163330000Y-128040000D02*
X163330000Y-123540000D01*
X166830000Y-123540000D02*
X166830000Y-128040000D01*
X199040000Y-123550000D02*
X202540000Y-123550000D01*
X202540000Y-128050000D02*
X199040000Y-128050000D01*
X199040000Y-128050000D02*
X199040000Y-123550000D01*
X202540000Y-123550000D02*
X202540000Y-128050000D01*
X184770000Y-104490000D02*
X188270000Y-104490000D01*
X188270000Y-108990000D02*
X184770000Y-108990000D01*
X184770000Y-108990000D02*
X184770000Y-104490000D01*
X188270000Y-104490000D02*
X188270000Y-108990000D01*
X180000000Y-47300000D02*
X183500000Y-47300000D01*
X183500000Y-51800000D02*
X180000000Y-51800000D01*
X180000000Y-51800000D02*
X180000000Y-47300000D01*
X183500000Y-47300000D02*
X183500000Y-51800000D01*
X170490000Y-66360000D02*
X173990000Y-66360000D01*
X173990000Y-70860000D02*
X170490000Y-70860000D01*
X170490000Y-70860000D02*
X170490000Y-66360000D01*
X173990000Y-66360000D02*
X173990000Y-70860000D01*
X175250000Y-85430000D02*
X178750000Y-85430000D01*
X178750000Y-89930000D02*
X175250000Y-89930000D01*
X175250000Y-89930000D02*
X175250000Y-85430000D01*
X178750000Y-85430000D02*
X178750000Y-89930000D01*
D11*
X58200000Y-43460000D02*
X214110000Y-43490001D01*
X55740000Y-139720000D02*
G75*
G03*
X58240000Y-142220000I2500000J0D01*
G01*
X216600019Y-45990000D02*
X216630000Y-139850000D01*
X214109920Y-142359980D02*
X58240000Y-142220000D01*
X55700000Y-45960000D02*
X55740000Y-139720000D01*
X214109920Y-142359980D02*
G75*
G03*
X216630000Y-139850000I10080J2509980D01*
G01*
X216600019Y-45990000D02*
G75*
G03*
X214110000Y-43490001I-2500019J0D01*
G01*
X58200000Y-43460000D02*
G75*
G03*
X55700000Y-45960000I0J-2500000D01*
G01*
M02*
