G04 #@! TF.GenerationSoftware,KiCad,Pcbnew,(6.0.7)*
G04 #@! TF.CreationDate,2022-08-10T12:46:35+00:00*
G04 #@! TF.ProjectId,zzsplit,7a7a7370-6c69-4742-9e6b-696361645f70,rev?*
G04 #@! TF.SameCoordinates,Original*
G04 #@! TF.FileFunction,Paste,Top*
G04 #@! TF.FilePolarity,Positive*
%FSLAX46Y46*%
G04 Gerber Fmt 4.6, Leading zero omitted, Abs format (unit mm)*
G04 Created by KiCad (PCBNEW (6.0.7)) date 2022-08-10 12:46:35*
%MOMM*%
%LPD*%
G01*
G04 APERTURE LIST*
G04 #@! TA.AperFunction,Profile*
%ADD10C,0.150000*%
G04 #@! TD*
G04 #@! TA.AperFunction,Profile*
%ADD11C,0.100000*%
G04 #@! TD*
%ADD12R,0.950000X1.300000*%
%ADD13R,2.000000X1.000000*%
%ADD14R,1.600000X1.000000*%
%ADD15R,2.300000X2.000000*%
G04 APERTURE END LIST*
D10*
X65690000Y-47300000D02*
X69190000Y-47300000D01*
X69190000Y-51800000D02*
X65690000Y-51800000D01*
X65690000Y-51800000D02*
X65690000Y-47300000D01*
X69190000Y-47300000D02*
X69190000Y-51800000D01*
X84750000Y-47300000D02*
X88250000Y-47300000D01*
X88250000Y-51800000D02*
X84750000Y-51800000D01*
X84750000Y-51800000D02*
X84750000Y-47300000D01*
X88250000Y-47300000D02*
X88250000Y-51800000D01*
X94290000Y-66360000D02*
X97790000Y-66360000D01*
X97790000Y-70860000D02*
X94290000Y-70860000D01*
X94290000Y-70860000D02*
X94290000Y-66360000D01*
X97790000Y-66360000D02*
X97790000Y-70860000D01*
X70450000Y-66350000D02*
X73950000Y-66350000D01*
X73950000Y-70850000D02*
X70450000Y-70850000D01*
X70450000Y-70850000D02*
X70450000Y-66350000D01*
X73950000Y-66350000D02*
X73950000Y-70850000D01*
X72850000Y-85400000D02*
X76350000Y-85400000D01*
X76350000Y-89900000D02*
X72850000Y-89900000D01*
X72850000Y-89900000D02*
X72850000Y-85400000D01*
X76350000Y-85400000D02*
X76350000Y-89900000D01*
X99050000Y-85430000D02*
X102550000Y-85430000D01*
X102550000Y-89930000D02*
X99050000Y-89930000D01*
X99050000Y-89930000D02*
X99050000Y-85430000D01*
X102550000Y-85430000D02*
X102550000Y-89930000D01*
X77610000Y-104520000D02*
X81110000Y-104520000D01*
X81110000Y-109020000D02*
X77610000Y-109020000D01*
X77610000Y-109020000D02*
X77610000Y-104520000D01*
X81110000Y-104520000D02*
X81110000Y-109020000D01*
X70460000Y-123570000D02*
X73960000Y-123570000D01*
X73960000Y-128070000D02*
X70460000Y-128070000D01*
X70460000Y-128070000D02*
X70460000Y-123570000D01*
X73960000Y-123570000D02*
X73960000Y-128070000D01*
X108560000Y-104500000D02*
X112060000Y-104500000D01*
X112060000Y-109000000D02*
X108560000Y-109000000D01*
X108560000Y-109000000D02*
X108560000Y-104500000D01*
X112060000Y-104500000D02*
X112060000Y-109000000D01*
X98960000Y-123560000D02*
X102460000Y-123560000D01*
X102460000Y-128060000D02*
X98960000Y-128060000D01*
X98960000Y-128060000D02*
X98960000Y-123560000D01*
X102460000Y-123560000D02*
X102460000Y-128060000D01*
X127610000Y-123550000D02*
X131110000Y-123550000D01*
X131110000Y-128050000D02*
X127610000Y-128050000D01*
X127610000Y-128050000D02*
X127610000Y-123550000D01*
X131110000Y-123550000D02*
X131110000Y-128050000D01*
X127620000Y-104490000D02*
X131120000Y-104490000D01*
X131120000Y-108990000D02*
X127620000Y-108990000D01*
X127620000Y-108990000D02*
X127620000Y-104490000D01*
X131120000Y-104490000D02*
X131120000Y-108990000D01*
X118100000Y-85430000D02*
X121600000Y-85430000D01*
X121600000Y-89930000D02*
X118100000Y-89930000D01*
X118100000Y-89930000D02*
X118100000Y-85430000D01*
X121600000Y-85430000D02*
X121600000Y-89930000D01*
X113330000Y-66360000D02*
X116830000Y-66360000D01*
X116830000Y-70860000D02*
X113330000Y-70860000D01*
X113330000Y-70860000D02*
X113330000Y-66360000D01*
X116830000Y-66360000D02*
X116830000Y-70860000D01*
X103790000Y-47300000D02*
X107290000Y-47300000D01*
X107290000Y-51800000D02*
X103790000Y-51800000D01*
X103790000Y-51800000D02*
X103790000Y-47300000D01*
X107290000Y-47300000D02*
X107290000Y-51800000D01*
X122840000Y-47300000D02*
X126340000Y-47300000D01*
X126340000Y-51800000D02*
X122840000Y-51800000D01*
X122840000Y-51800000D02*
X122840000Y-47300000D01*
X126340000Y-47300000D02*
X126340000Y-51800000D01*
X141890000Y-47300000D02*
X145390000Y-47300000D01*
X145390000Y-51800000D02*
X141890000Y-51800000D01*
X141890000Y-51800000D02*
X141890000Y-47300000D01*
X145390000Y-47300000D02*
X145390000Y-51800000D01*
X132390000Y-66360000D02*
X135890000Y-66360000D01*
X135890000Y-70860000D02*
X132390000Y-70860000D01*
X132390000Y-70860000D02*
X132390000Y-66360000D01*
X135890000Y-66360000D02*
X135890000Y-70860000D01*
X137150000Y-85420000D02*
X140650000Y-85420000D01*
X140650000Y-89920000D02*
X137150000Y-89920000D01*
X137150000Y-89920000D02*
X137150000Y-85420000D01*
X140650000Y-85420000D02*
X140650000Y-89920000D01*
X146670000Y-104490000D02*
X150170000Y-104490000D01*
X150170000Y-108990000D02*
X146670000Y-108990000D01*
X146670000Y-108990000D02*
X146670000Y-104490000D01*
X150170000Y-104490000D02*
X150170000Y-108990000D01*
X160950000Y-47300000D02*
X164450000Y-47300000D01*
X164450000Y-51800000D02*
X160950000Y-51800000D01*
X160950000Y-51800000D02*
X160950000Y-47300000D01*
X164450000Y-47300000D02*
X164450000Y-51800000D01*
X151440000Y-66360000D02*
X154940000Y-66360000D01*
X154940000Y-70860000D02*
X151440000Y-70860000D01*
X151440000Y-70860000D02*
X151440000Y-66360000D01*
X154940000Y-66360000D02*
X154940000Y-70860000D01*
X156200000Y-85420000D02*
X159700000Y-85420000D01*
X159700000Y-89920000D02*
X156200000Y-89920000D01*
X156200000Y-89920000D02*
X156200000Y-85420000D01*
X159700000Y-85420000D02*
X159700000Y-89920000D01*
X165700000Y-104480000D02*
X169200000Y-104480000D01*
X169200000Y-108980000D02*
X165700000Y-108980000D01*
X165700000Y-108980000D02*
X165700000Y-104480000D01*
X169200000Y-104480000D02*
X169200000Y-108980000D01*
X163330000Y-123540000D02*
X166830000Y-123540000D01*
X166830000Y-128040000D02*
X163330000Y-128040000D01*
X163330000Y-128040000D02*
X163330000Y-123540000D01*
X166830000Y-123540000D02*
X166830000Y-128040000D01*
X199040000Y-123550000D02*
X202540000Y-123550000D01*
X202540000Y-128050000D02*
X199040000Y-128050000D01*
X199040000Y-128050000D02*
X199040000Y-123550000D01*
X202540000Y-123550000D02*
X202540000Y-128050000D01*
X184770000Y-104490000D02*
X188270000Y-104490000D01*
X188270000Y-108990000D02*
X184770000Y-108990000D01*
X184770000Y-108990000D02*
X184770000Y-104490000D01*
X188270000Y-104490000D02*
X188270000Y-108990000D01*
X180000000Y-47300000D02*
X183500000Y-47300000D01*
X183500000Y-51800000D02*
X180000000Y-51800000D01*
X180000000Y-51800000D02*
X180000000Y-47300000D01*
X183500000Y-47300000D02*
X183500000Y-51800000D01*
X170490000Y-66360000D02*
X173990000Y-66360000D01*
X173990000Y-70860000D02*
X170490000Y-70860000D01*
X170490000Y-70860000D02*
X170490000Y-66360000D01*
X173990000Y-66360000D02*
X173990000Y-70860000D01*
X175250000Y-85430000D02*
X178750000Y-85430000D01*
X178750000Y-89930000D02*
X175250000Y-89930000D01*
X175250000Y-89930000D02*
X175250000Y-85430000D01*
X178750000Y-85430000D02*
X178750000Y-89930000D01*
D11*
X58200000Y-43460000D02*
X214110000Y-43490001D01*
X55740000Y-139720000D02*
G75*
G03*
X58240000Y-142220000I2500000J0D01*
G01*
X216600019Y-45990000D02*
X216630000Y-139850000D01*
X214109920Y-142359980D02*
X58240000Y-142220000D01*
X55700000Y-45960000D02*
X55740000Y-139720000D01*
X214109920Y-142359980D02*
G75*
G03*
X216630000Y-139850000I10080J2509980D01*
G01*
X216600019Y-45990000D02*
G75*
G03*
X214110000Y-43490001I-2500019J0D01*
G01*
X58200000Y-43460000D02*
G75*
G03*
X55700000Y-45960000I0J-2500000D01*
G01*
D12*
X157270000Y-131055000D03*
X157270000Y-127505000D03*
D13*
X132270000Y-63465000D03*
X132270000Y-65215000D03*
X136670000Y-65215000D03*
X136670000Y-63465000D03*
D14*
X77000000Y-86775001D03*
X77000000Y-88525001D03*
X72200000Y-88525001D03*
X72200000Y-86775001D03*
D15*
X67600000Y-95730001D03*
D14*
X188920000Y-105865000D03*
X188920000Y-107615000D03*
X184120000Y-107615000D03*
X184120000Y-105865000D03*
D15*
X179520000Y-114820000D03*
D14*
X136540000Y-67735000D03*
X136540000Y-69485000D03*
X131740000Y-69485000D03*
X131740000Y-67735000D03*
D15*
X127140000Y-76690000D03*
D12*
X121860000Y-111725000D03*
X121860000Y-108175000D03*
D14*
X160350000Y-86805000D03*
X160350000Y-88555000D03*
X155550000Y-88555000D03*
X155550000Y-86805000D03*
D15*
X150950000Y-95760000D03*
D13*
X141532100Y-127055000D03*
X141532100Y-128805000D03*
X145932100Y-128805000D03*
X145932100Y-127055000D03*
D12*
X97780000Y-54300000D03*
X97780000Y-50750000D03*
X92760000Y-92870000D03*
X92760000Y-89320000D03*
X126150000Y-73250000D03*
X126150000Y-69700000D03*
X136000000Y-54435000D03*
X136000000Y-50885000D03*
X92950000Y-130885000D03*
X92950000Y-127335000D03*
D14*
X203190000Y-124925000D03*
X203190000Y-126675000D03*
X198390000Y-126675000D03*
X198390000Y-124925000D03*
D15*
X193790000Y-133880000D03*
D12*
X88200000Y-73290000D03*
X88200000Y-69740000D03*
D14*
X169850000Y-105855000D03*
X169850000Y-107605000D03*
X165050000Y-107605000D03*
X165050000Y-105855000D03*
D15*
X160450000Y-114810000D03*
D14*
X69840000Y-48675000D03*
X69840000Y-50425000D03*
X65040000Y-50425000D03*
X65040000Y-48675000D03*
D15*
X60440000Y-57630000D03*
D12*
X140310000Y-111765000D03*
X140310000Y-108215000D03*
X169070000Y-92185000D03*
X169070000Y-88635000D03*
X130950000Y-92145000D03*
X130950000Y-88595000D03*
D13*
X203780000Y-52745000D03*
X203780000Y-54495000D03*
X208180000Y-54495000D03*
X208180000Y-52745000D03*
D12*
X173440000Y-54360000D03*
X173440000Y-50810000D03*
X102330000Y-111600000D03*
X102330000Y-108050000D03*
X192570000Y-130755000D03*
X192570000Y-127205000D03*
X164200000Y-73220000D03*
X164200000Y-69670000D03*
D14*
X184145000Y-48675000D03*
X184145000Y-50425000D03*
X179345000Y-50425000D03*
X179345000Y-48675000D03*
D15*
X174745000Y-57630000D03*
D12*
X159950000Y-111695000D03*
X159950000Y-108145000D03*
X106780000Y-73420000D03*
X106780000Y-69870000D03*
D14*
X179400000Y-86805000D03*
X179400000Y-88555000D03*
X174600000Y-88555000D03*
X174600000Y-86805000D03*
D15*
X170000000Y-95760000D03*
D14*
X167480000Y-124915000D03*
X167480000Y-126665000D03*
X162680000Y-126665000D03*
X162680000Y-124915000D03*
D15*
X158080000Y-133870000D03*
D12*
X66870000Y-92595000D03*
X66870000Y-89045000D03*
D14*
X155590000Y-67735000D03*
X155590000Y-69485000D03*
X150790000Y-69485000D03*
X150790000Y-67735000D03*
D15*
X146190000Y-76690000D03*
D14*
X174640000Y-67735000D03*
X174640000Y-69485000D03*
X169840000Y-69485000D03*
X169840000Y-67735000D03*
D15*
X165240000Y-76690000D03*
D13*
X205540000Y-118125000D03*
X205540000Y-116375000D03*
X201140000Y-116375000D03*
X201140000Y-118125000D03*
D14*
X141300000Y-86805000D03*
X141300000Y-88555000D03*
X136500000Y-88555000D03*
X136500000Y-86805000D03*
D15*
X131900000Y-95760000D03*
D14*
X126995000Y-48675000D03*
X126995000Y-50425000D03*
X122195000Y-50425000D03*
X122195000Y-48675000D03*
D15*
X117595000Y-57630000D03*
D14*
X74600000Y-67715000D03*
X74600000Y-69465000D03*
X69800000Y-69465000D03*
X69800000Y-67715000D03*
D15*
X65200000Y-76670000D03*
D12*
X64180000Y-73445000D03*
X64180000Y-69895000D03*
D13*
X76122100Y-63095000D03*
X76122100Y-64845000D03*
X80522100Y-64845000D03*
X80522100Y-63095000D03*
D12*
X111820000Y-92315000D03*
X111820000Y-88765000D03*
X121590000Y-131295000D03*
X121590000Y-127745000D03*
D14*
X150820000Y-105865000D03*
X150820000Y-107615000D03*
X146020000Y-107615000D03*
X146020000Y-105865000D03*
D15*
X141420000Y-114820000D03*
D14*
X81760000Y-105895000D03*
X81760000Y-107645000D03*
X76960000Y-107645000D03*
X76960000Y-105895000D03*
D15*
X72360000Y-114850000D03*
D14*
X131770000Y-105865000D03*
X131770000Y-107615000D03*
X126970000Y-107615000D03*
X126970000Y-105865000D03*
D15*
X122370000Y-114820000D03*
D14*
X74610000Y-124945001D03*
X74610000Y-126695001D03*
X69810000Y-126695001D03*
X69810000Y-124945001D03*
D15*
X65210000Y-133900001D03*
D12*
X64410000Y-130765000D03*
X64410000Y-127215000D03*
D13*
X83362100Y-128125000D03*
X83362100Y-129875000D03*
X87762100Y-129875000D03*
X87762100Y-128125000D03*
D12*
X178740000Y-111865000D03*
X178740000Y-108315000D03*
X154850000Y-54415000D03*
X154850000Y-50865000D03*
X145170000Y-73190000D03*
X145170000Y-69640000D03*
D14*
X122250000Y-86805000D03*
X122250000Y-88555000D03*
X117450000Y-88555000D03*
X117450000Y-86805000D03*
D15*
X112850000Y-95760000D03*
D14*
X165095000Y-48675000D03*
X165095000Y-50425000D03*
X160295000Y-50425000D03*
X160295000Y-48675000D03*
D15*
X155695000Y-57630000D03*
D14*
X107945000Y-48675000D03*
X107945000Y-50425000D03*
X103145000Y-50425000D03*
X103145000Y-48675000D03*
D15*
X98545000Y-57630000D03*
D14*
X131760000Y-124925000D03*
X131760000Y-126675000D03*
X126960000Y-126675000D03*
X126960000Y-124925000D03*
D15*
X122360000Y-133880000D03*
D14*
X98440000Y-67735000D03*
X98440000Y-69485000D03*
X93640000Y-69485000D03*
X93640000Y-67735000D03*
D15*
X89040000Y-76690000D03*
D14*
X88895000Y-48675000D03*
X88895000Y-50425000D03*
X84095000Y-50425000D03*
X84095000Y-48675000D03*
D15*
X79495000Y-57630000D03*
D14*
X103120000Y-124935000D03*
X103120000Y-126685000D03*
X98320000Y-126685000D03*
X98320000Y-124935000D03*
D15*
X93720000Y-133890000D03*
D12*
X116770000Y-54180000D03*
X116770000Y-50630000D03*
X78280000Y-54350000D03*
X78280000Y-50800000D03*
X150210000Y-92895000D03*
X150210000Y-89345000D03*
D14*
X112720000Y-105865000D03*
X112720000Y-107615000D03*
X107920000Y-107615000D03*
X107920000Y-105865000D03*
D15*
X103320000Y-114820000D03*
D14*
X146045000Y-48675000D03*
X146045000Y-50425000D03*
X141245000Y-50425000D03*
X141245000Y-48675000D03*
D15*
X136645000Y-57630000D03*
D14*
X103200000Y-86805000D03*
X103200000Y-88555000D03*
X98400000Y-88555000D03*
X98400000Y-86805000D03*
D15*
X93800000Y-95760000D03*
D12*
X71480000Y-111740000D03*
X71480000Y-108190000D03*
X59570000Y-54490000D03*
X59570000Y-50940000D03*
D14*
X117490000Y-67735000D03*
X117490000Y-69485000D03*
X112690000Y-69485000D03*
X112690000Y-67735000D03*
D15*
X108090000Y-76690000D03*
M02*
