%TF.GenerationSoftware,KiCad,Pcbnew,(6.0.7)*%
%TF.CreationDate,2022-08-06T08:23:59+00:00*%
%TF.ProjectId,zzsplit,7a7a7370-6c69-4742-9e6b-696361645f70,rev?*%
%TF.SameCoordinates,Original*%
%TF.FileFunction,Drillmap*%
%TF.FilePolarity,Positive*%
%FSLAX45Y45*%
G04 Gerber Fmt 4.5, Leading zero omitted, Abs format (unit mm)*
G04 Created by KiCad (PCBNEW (6.0.7)) date 2022-08-06 08:23:59*
%MOMM*%
%LPD*%
G01*
G04 APERTURE LIST*
%ADD10C,0.100000*%
%ADD11C,0.200000*%
%ADD12C,0.120000*%
%ADD13C,0.170000*%
%ADD14C,0.190000*%
%ADD15C,0.300000*%
%ADD16C,0.410000*%
G04 APERTURE END LIST*
D10*
X5820000Y-4346000D02*
X21411000Y-4349000D01*
X5574000Y-13972000D02*
G75*
G03*
X5824000Y-14222000I250000J0D01*
G01*
X21660002Y-4599000D02*
X21663000Y-13985000D01*
X21410992Y-14235998D02*
X5824000Y-14222000D01*
X5570000Y-4596000D02*
X5574000Y-13972000D01*
X21410992Y-14235998D02*
G75*
G03*
X21663000Y-13985000I1008J250998D01*
G01*
X21660002Y-4599000D02*
G75*
G03*
X21411000Y-4349000I-250002J0D01*
G01*
X5820000Y-4346000D02*
G75*
G03*
X5570000Y-4596000I0J-250000D01*
G01*
D11*
D12*
X20698500Y-9421500D02*
X20818500Y-9541500D01*
X20818500Y-9421500D02*
X20698500Y-9541500D01*
X20698500Y-9596500D02*
X20818500Y-9716500D01*
X20818500Y-9596500D02*
X20698500Y-9716500D01*
X21398500Y-9421500D02*
X21518500Y-9541500D01*
X21518500Y-9421500D02*
X21398500Y-9541500D01*
X21398500Y-9596500D02*
X21518500Y-9716500D01*
X21518500Y-9596500D02*
X21398500Y-9716500D01*
D13*
X6379000Y-5505000D02*
G75*
G03*
X6379000Y-5505000I-85000J0D01*
G01*
X6855000Y-7409000D02*
G75*
G03*
X6855000Y-7409000I-85000J0D01*
G01*
X6856000Y-13132000D02*
G75*
G03*
X6856000Y-13132000I-85000J0D01*
G01*
X7095000Y-9315000D02*
G75*
G03*
X7095000Y-9315000I-85000J0D01*
G01*
X7279000Y-5505000D02*
G75*
G03*
X7279000Y-5505000I-85000J0D01*
G01*
X7571000Y-11227000D02*
G75*
G03*
X7571000Y-11227000I-85000J0D01*
G01*
X7755000Y-7409000D02*
G75*
G03*
X7755000Y-7409000I-85000J0D01*
G01*
X7756000Y-13132000D02*
G75*
G03*
X7756000Y-13132000I-85000J0D01*
G01*
X7995000Y-9315000D02*
G75*
G03*
X7995000Y-9315000I-85000J0D01*
G01*
X8284500Y-5505000D02*
G75*
G03*
X8284500Y-5505000I-85000J0D01*
G01*
X8471000Y-11227000D02*
G75*
G03*
X8471000Y-11227000I-85000J0D01*
G01*
X9184500Y-5505000D02*
G75*
G03*
X9184500Y-5505000I-85000J0D01*
G01*
X9239000Y-7411000D02*
G75*
G03*
X9239000Y-7411000I-85000J0D01*
G01*
X9707000Y-13131000D02*
G75*
G03*
X9707000Y-13131000I-85000J0D01*
G01*
X9715000Y-9318000D02*
G75*
G03*
X9715000Y-9318000I-85000J0D01*
G01*
X10139000Y-7411000D02*
G75*
G03*
X10139000Y-7411000I-85000J0D01*
G01*
X10189500Y-5505000D02*
G75*
G03*
X10189500Y-5505000I-85000J0D01*
G01*
X10607000Y-13131000D02*
G75*
G03*
X10607000Y-13131000I-85000J0D01*
G01*
X10615000Y-9318000D02*
G75*
G03*
X10615000Y-9318000I-85000J0D01*
G01*
X10667000Y-11224000D02*
G75*
G03*
X10667000Y-11224000I-85000J0D01*
G01*
X11089500Y-5505000D02*
G75*
G03*
X11089500Y-5505000I-85000J0D01*
G01*
X11144000Y-7411000D02*
G75*
G03*
X11144000Y-7411000I-85000J0D01*
G01*
X11567000Y-11224000D02*
G75*
G03*
X11567000Y-11224000I-85000J0D01*
G01*
X11620000Y-9318000D02*
G75*
G03*
X11620000Y-9318000I-85000J0D01*
G01*
X12044000Y-7411000D02*
G75*
G03*
X12044000Y-7411000I-85000J0D01*
G01*
X12094500Y-5505000D02*
G75*
G03*
X12094500Y-5505000I-85000J0D01*
G01*
X12520000Y-9318000D02*
G75*
G03*
X12520000Y-9318000I-85000J0D01*
G01*
X12571000Y-13130000D02*
G75*
G03*
X12571000Y-13130000I-85000J0D01*
G01*
X12572000Y-11224000D02*
G75*
G03*
X12572000Y-11224000I-85000J0D01*
G01*
X12994500Y-5505000D02*
G75*
G03*
X12994500Y-5505000I-85000J0D01*
G01*
X13049000Y-7411000D02*
G75*
G03*
X13049000Y-7411000I-85000J0D01*
G01*
X13471000Y-13130000D02*
G75*
G03*
X13471000Y-13130000I-85000J0D01*
G01*
X13472000Y-11224000D02*
G75*
G03*
X13472000Y-11224000I-85000J0D01*
G01*
X13525000Y-9318000D02*
G75*
G03*
X13525000Y-9318000I-85000J0D01*
G01*
X13949000Y-7411000D02*
G75*
G03*
X13949000Y-7411000I-85000J0D01*
G01*
X13999500Y-5505000D02*
G75*
G03*
X13999500Y-5505000I-85000J0D01*
G01*
X14425000Y-9318000D02*
G75*
G03*
X14425000Y-9318000I-85000J0D01*
G01*
X14477000Y-11224000D02*
G75*
G03*
X14477000Y-11224000I-85000J0D01*
G01*
X14899500Y-5505000D02*
G75*
G03*
X14899500Y-5505000I-85000J0D01*
G01*
X14954000Y-7411000D02*
G75*
G03*
X14954000Y-7411000I-85000J0D01*
G01*
X15377000Y-11224000D02*
G75*
G03*
X15377000Y-11224000I-85000J0D01*
G01*
X15430000Y-9318000D02*
G75*
G03*
X15430000Y-9318000I-85000J0D01*
G01*
X15854000Y-7411000D02*
G75*
G03*
X15854000Y-7411000I-85000J0D01*
G01*
X15904500Y-5505000D02*
G75*
G03*
X15904500Y-5505000I-85000J0D01*
G01*
X16143000Y-13129000D02*
G75*
G03*
X16143000Y-13129000I-85000J0D01*
G01*
X16330000Y-9318000D02*
G75*
G03*
X16330000Y-9318000I-85000J0D01*
G01*
X16380000Y-11223000D02*
G75*
G03*
X16380000Y-11223000I-85000J0D01*
G01*
X16804500Y-5505000D02*
G75*
G03*
X16804500Y-5505000I-85000J0D01*
G01*
X16859000Y-7411000D02*
G75*
G03*
X16859000Y-7411000I-85000J0D01*
G01*
X17043000Y-13129000D02*
G75*
G03*
X17043000Y-13129000I-85000J0D01*
G01*
X17280000Y-11223000D02*
G75*
G03*
X17280000Y-11223000I-85000J0D01*
G01*
X17335000Y-9318000D02*
G75*
G03*
X17335000Y-9318000I-85000J0D01*
G01*
X17759000Y-7411000D02*
G75*
G03*
X17759000Y-7411000I-85000J0D01*
G01*
X17809500Y-5505000D02*
G75*
G03*
X17809500Y-5505000I-85000J0D01*
G01*
X18235000Y-9318000D02*
G75*
G03*
X18235000Y-9318000I-85000J0D01*
G01*
X18287000Y-11224000D02*
G75*
G03*
X18287000Y-11224000I-85000J0D01*
G01*
X18709500Y-5505000D02*
G75*
G03*
X18709500Y-5505000I-85000J0D01*
G01*
X19187000Y-11224000D02*
G75*
G03*
X19187000Y-11224000I-85000J0D01*
G01*
X19714000Y-13130000D02*
G75*
G03*
X19714000Y-13130000I-85000J0D01*
G01*
X20614000Y-13130000D02*
G75*
G03*
X20614000Y-13130000I-85000J0D01*
G01*
D14*
X6236000Y-5410000D02*
X6236000Y-5600000D01*
X6141000Y-5505000D02*
X6331000Y-5505000D01*
X6712000Y-7314000D02*
X6712000Y-7504000D01*
X6617000Y-7409000D02*
X6807000Y-7409000D01*
X6713000Y-13037000D02*
X6713000Y-13227000D01*
X6618000Y-13132000D02*
X6808000Y-13132000D01*
X6952000Y-9220000D02*
X6952000Y-9410000D01*
X6857000Y-9315000D02*
X7047000Y-9315000D01*
X7252000Y-5410000D02*
X7252000Y-5600000D01*
X7157000Y-5505000D02*
X7347000Y-5505000D01*
X7428000Y-11132000D02*
X7428000Y-11322000D01*
X7333000Y-11227000D02*
X7523000Y-11227000D01*
X7728000Y-7314000D02*
X7728000Y-7504000D01*
X7633000Y-7409000D02*
X7823000Y-7409000D01*
X7729000Y-13037000D02*
X7729000Y-13227000D01*
X7634000Y-13132000D02*
X7824000Y-13132000D01*
X7968000Y-9220000D02*
X7968000Y-9410000D01*
X7873000Y-9315000D02*
X8063000Y-9315000D01*
X8141500Y-5410000D02*
X8141500Y-5600000D01*
X8046500Y-5505000D02*
X8236500Y-5505000D01*
X8444000Y-11132000D02*
X8444000Y-11322000D01*
X8349000Y-11227000D02*
X8539000Y-11227000D01*
X9096000Y-7316000D02*
X9096000Y-7506000D01*
X9001000Y-7411000D02*
X9191000Y-7411000D01*
X9157500Y-5410000D02*
X9157500Y-5600000D01*
X9062500Y-5505000D02*
X9252500Y-5505000D01*
X9564000Y-13036000D02*
X9564000Y-13226000D01*
X9469000Y-13131000D02*
X9659000Y-13131000D01*
X9572000Y-9223000D02*
X9572000Y-9413000D01*
X9477000Y-9318000D02*
X9667000Y-9318000D01*
X10046500Y-5410000D02*
X10046500Y-5600000D01*
X9951500Y-5505000D02*
X10141500Y-5505000D01*
X10112000Y-7316000D02*
X10112000Y-7506000D01*
X10017000Y-7411000D02*
X10207000Y-7411000D01*
X10524000Y-11129000D02*
X10524000Y-11319000D01*
X10429000Y-11224000D02*
X10619000Y-11224000D01*
X10580000Y-13036000D02*
X10580000Y-13226000D01*
X10485000Y-13131000D02*
X10675000Y-13131000D01*
X10588000Y-9223000D02*
X10588000Y-9413000D01*
X10493000Y-9318000D02*
X10683000Y-9318000D01*
X11001000Y-7316000D02*
X11001000Y-7506000D01*
X10906000Y-7411000D02*
X11096000Y-7411000D01*
X11062500Y-5410000D02*
X11062500Y-5600000D01*
X10967500Y-5505000D02*
X11157500Y-5505000D01*
X11477000Y-9223000D02*
X11477000Y-9413000D01*
X11382000Y-9318000D02*
X11572000Y-9318000D01*
X11540000Y-11129000D02*
X11540000Y-11319000D01*
X11445000Y-11224000D02*
X11635000Y-11224000D01*
X11951500Y-5410000D02*
X11951500Y-5600000D01*
X11856500Y-5505000D02*
X12046500Y-5505000D01*
X12017000Y-7316000D02*
X12017000Y-7506000D01*
X11922000Y-7411000D02*
X12112000Y-7411000D01*
X12428000Y-13035000D02*
X12428000Y-13225000D01*
X12333000Y-13130000D02*
X12523000Y-13130000D01*
X12429000Y-11129000D02*
X12429000Y-11319000D01*
X12334000Y-11224000D02*
X12524000Y-11224000D01*
X12493000Y-9223000D02*
X12493000Y-9413000D01*
X12398000Y-9318000D02*
X12588000Y-9318000D01*
X12906000Y-7316000D02*
X12906000Y-7506000D01*
X12811000Y-7411000D02*
X13001000Y-7411000D01*
X12967500Y-5410000D02*
X12967500Y-5600000D01*
X12872500Y-5505000D02*
X13062500Y-5505000D01*
X13382000Y-9223000D02*
X13382000Y-9413000D01*
X13287000Y-9318000D02*
X13477000Y-9318000D01*
X13444000Y-13035000D02*
X13444000Y-13225000D01*
X13349000Y-13130000D02*
X13539000Y-13130000D01*
X13445000Y-11129000D02*
X13445000Y-11319000D01*
X13350000Y-11224000D02*
X13540000Y-11224000D01*
X13856500Y-5410000D02*
X13856500Y-5600000D01*
X13761500Y-5505000D02*
X13951500Y-5505000D01*
X13922000Y-7316000D02*
X13922000Y-7506000D01*
X13827000Y-7411000D02*
X14017000Y-7411000D01*
X14334000Y-11129000D02*
X14334000Y-11319000D01*
X14239000Y-11224000D02*
X14429000Y-11224000D01*
X14398000Y-9223000D02*
X14398000Y-9413000D01*
X14303000Y-9318000D02*
X14493000Y-9318000D01*
X14811000Y-7316000D02*
X14811000Y-7506000D01*
X14716000Y-7411000D02*
X14906000Y-7411000D01*
X14872500Y-5410000D02*
X14872500Y-5600000D01*
X14777500Y-5505000D02*
X14967500Y-5505000D01*
X15287000Y-9223000D02*
X15287000Y-9413000D01*
X15192000Y-9318000D02*
X15382000Y-9318000D01*
X15350000Y-11129000D02*
X15350000Y-11319000D01*
X15255000Y-11224000D02*
X15445000Y-11224000D01*
X15761500Y-5410000D02*
X15761500Y-5600000D01*
X15666500Y-5505000D02*
X15856500Y-5505000D01*
X15827000Y-7316000D02*
X15827000Y-7506000D01*
X15732000Y-7411000D02*
X15922000Y-7411000D01*
X16000000Y-13034000D02*
X16000000Y-13224000D01*
X15905000Y-13129000D02*
X16095000Y-13129000D01*
X16237000Y-11128000D02*
X16237000Y-11318000D01*
X16142000Y-11223000D02*
X16332000Y-11223000D01*
X16303000Y-9223000D02*
X16303000Y-9413000D01*
X16208000Y-9318000D02*
X16398000Y-9318000D01*
X16716000Y-7316000D02*
X16716000Y-7506000D01*
X16621000Y-7411000D02*
X16811000Y-7411000D01*
X16777500Y-5410000D02*
X16777500Y-5600000D01*
X16682500Y-5505000D02*
X16872500Y-5505000D01*
X17016000Y-13034000D02*
X17016000Y-13224000D01*
X16921000Y-13129000D02*
X17111000Y-13129000D01*
X17192000Y-9223000D02*
X17192000Y-9413000D01*
X17097000Y-9318000D02*
X17287000Y-9318000D01*
X17253000Y-11128000D02*
X17253000Y-11318000D01*
X17158000Y-11223000D02*
X17348000Y-11223000D01*
X17666500Y-5410000D02*
X17666500Y-5600000D01*
X17571500Y-5505000D02*
X17761500Y-5505000D01*
X17732000Y-7316000D02*
X17732000Y-7506000D01*
X17637000Y-7411000D02*
X17827000Y-7411000D01*
X18144000Y-11129000D02*
X18144000Y-11319000D01*
X18049000Y-11224000D02*
X18239000Y-11224000D01*
X18208000Y-9223000D02*
X18208000Y-9413000D01*
X18113000Y-9318000D02*
X18303000Y-9318000D01*
X18682500Y-5410000D02*
X18682500Y-5600000D01*
X18587500Y-5505000D02*
X18777500Y-5505000D01*
X19160000Y-11129000D02*
X19160000Y-11319000D01*
X19065000Y-11224000D02*
X19255000Y-11224000D01*
X19571000Y-13035000D02*
X19571000Y-13225000D01*
X19476000Y-13130000D02*
X19666000Y-13130000D01*
X20587000Y-13035000D02*
X20587000Y-13225000D01*
X20492000Y-13130000D02*
X20682000Y-13130000D01*
D15*
X6469067Y-5865067D02*
X6469067Y-5652933D01*
X6256933Y-5652933D01*
X6256933Y-5865067D01*
X6469067Y-5865067D01*
X6596067Y-6119067D02*
X6596067Y-5906933D01*
X6383933Y-5906933D01*
X6383933Y-6119067D01*
X6596067Y-6119067D01*
X6945067Y-7769067D02*
X6945067Y-7556933D01*
X6732933Y-7556933D01*
X6732933Y-7769067D01*
X6945067Y-7769067D01*
X6946067Y-13492067D02*
X6946067Y-13279933D01*
X6733933Y-13279933D01*
X6733933Y-13492067D01*
X6946067Y-13492067D01*
X7072067Y-8023067D02*
X7072067Y-7810933D01*
X6859933Y-7810933D01*
X6859933Y-8023067D01*
X7072067Y-8023067D01*
X7073067Y-13746067D02*
X7073067Y-13533933D01*
X6860933Y-13533933D01*
X6860933Y-13746067D01*
X7073067Y-13746067D01*
X7104067Y-6119067D02*
X7104067Y-5906933D01*
X6891933Y-5906933D01*
X6891933Y-6119067D01*
X7104067Y-6119067D01*
X7185067Y-9675067D02*
X7185067Y-9462933D01*
X6972933Y-9462933D01*
X6972933Y-9675067D01*
X7185067Y-9675067D01*
X7231067Y-5865067D02*
X7231067Y-5652933D01*
X7018933Y-5652933D01*
X7018933Y-5865067D01*
X7231067Y-5865067D01*
X7312067Y-9929067D02*
X7312067Y-9716933D01*
X7099933Y-9716933D01*
X7099933Y-9929067D01*
X7312067Y-9929067D01*
X7580067Y-8023067D02*
X7580067Y-7810933D01*
X7367933Y-7810933D01*
X7367933Y-8023067D01*
X7580067Y-8023067D01*
X7581067Y-13746067D02*
X7581067Y-13533933D01*
X7368933Y-13533933D01*
X7368933Y-13746067D01*
X7581067Y-13746067D01*
X7661067Y-11587067D02*
X7661067Y-11374933D01*
X7448933Y-11374933D01*
X7448933Y-11587067D01*
X7661067Y-11587067D01*
X7707067Y-7769067D02*
X7707067Y-7556933D01*
X7494933Y-7556933D01*
X7494933Y-7769067D01*
X7707067Y-7769067D01*
X7708067Y-13492067D02*
X7708067Y-13279933D01*
X7495933Y-13279933D01*
X7495933Y-13492067D01*
X7708067Y-13492067D01*
X7788067Y-11841067D02*
X7788067Y-11628933D01*
X7575933Y-11628933D01*
X7575933Y-11841067D01*
X7788067Y-11841067D01*
X7820067Y-9929067D02*
X7820067Y-9716933D01*
X7607933Y-9716933D01*
X7607933Y-9929067D01*
X7820067Y-9929067D01*
X7947067Y-9675067D02*
X7947067Y-9462933D01*
X7734933Y-9462933D01*
X7734933Y-9675067D01*
X7947067Y-9675067D01*
X8296067Y-11841067D02*
X8296067Y-11628933D01*
X8083933Y-11628933D01*
X8083933Y-11841067D01*
X8296067Y-11841067D01*
X8374567Y-5865067D02*
X8374567Y-5652933D01*
X8162433Y-5652933D01*
X8162433Y-5865067D01*
X8374567Y-5865067D01*
X8423067Y-11587067D02*
X8423067Y-11374933D01*
X8210933Y-11374933D01*
X8210933Y-11587067D01*
X8423067Y-11587067D01*
X8501567Y-6119067D02*
X8501567Y-5906933D01*
X8289433Y-5906933D01*
X8289433Y-6119067D01*
X8501567Y-6119067D01*
X9009567Y-6119067D02*
X9009567Y-5906933D01*
X8797433Y-5906933D01*
X8797433Y-6119067D01*
X9009567Y-6119067D01*
X9136567Y-5865067D02*
X9136567Y-5652933D01*
X8924433Y-5652933D01*
X8924433Y-5865067D01*
X9136567Y-5865067D01*
X9329067Y-7771067D02*
X9329067Y-7558933D01*
X9116933Y-7558933D01*
X9116933Y-7771067D01*
X9329067Y-7771067D01*
X9456067Y-8025067D02*
X9456067Y-7812933D01*
X9243933Y-7812933D01*
X9243933Y-8025067D01*
X9456067Y-8025067D01*
X9797067Y-13491067D02*
X9797067Y-13278933D01*
X9584933Y-13278933D01*
X9584933Y-13491067D01*
X9797067Y-13491067D01*
X9805067Y-9678067D02*
X9805067Y-9465933D01*
X9592933Y-9465933D01*
X9592933Y-9678067D01*
X9805067Y-9678067D01*
X9924067Y-13745067D02*
X9924067Y-13532933D01*
X9711933Y-13532933D01*
X9711933Y-13745067D01*
X9924067Y-13745067D01*
X9932067Y-9932067D02*
X9932067Y-9719933D01*
X9719933Y-9719933D01*
X9719933Y-9932067D01*
X9932067Y-9932067D01*
X9964067Y-8025067D02*
X9964067Y-7812933D01*
X9751933Y-7812933D01*
X9751933Y-8025067D01*
X9964067Y-8025067D01*
X10091067Y-7771067D02*
X10091067Y-7558933D01*
X9878933Y-7558933D01*
X9878933Y-7771067D01*
X10091067Y-7771067D01*
X10279567Y-5865067D02*
X10279567Y-5652933D01*
X10067433Y-5652933D01*
X10067433Y-5865067D01*
X10279567Y-5865067D01*
X10406567Y-6119067D02*
X10406567Y-5906933D01*
X10194433Y-5906933D01*
X10194433Y-6119067D01*
X10406567Y-6119067D01*
X10432067Y-13745067D02*
X10432067Y-13532933D01*
X10219933Y-13532933D01*
X10219933Y-13745067D01*
X10432067Y-13745067D01*
X10440067Y-9932067D02*
X10440067Y-9719933D01*
X10227933Y-9719933D01*
X10227933Y-9932067D01*
X10440067Y-9932067D01*
X10559067Y-13491067D02*
X10559067Y-13278933D01*
X10346933Y-13278933D01*
X10346933Y-13491067D01*
X10559067Y-13491067D01*
X10567067Y-9678067D02*
X10567067Y-9465933D01*
X10354933Y-9465933D01*
X10354933Y-9678067D01*
X10567067Y-9678067D01*
X10757067Y-11584067D02*
X10757067Y-11371933D01*
X10544933Y-11371933D01*
X10544933Y-11584067D01*
X10757067Y-11584067D01*
X10884067Y-11838067D02*
X10884067Y-11625933D01*
X10671933Y-11625933D01*
X10671933Y-11838067D01*
X10884067Y-11838067D01*
X10914567Y-6119067D02*
X10914567Y-5906933D01*
X10702433Y-5906933D01*
X10702433Y-6119067D01*
X10914567Y-6119067D01*
X11041567Y-5865067D02*
X11041567Y-5652933D01*
X10829433Y-5652933D01*
X10829433Y-5865067D01*
X11041567Y-5865067D01*
X11234067Y-7771067D02*
X11234067Y-7558933D01*
X11021933Y-7558933D01*
X11021933Y-7771067D01*
X11234067Y-7771067D01*
X11361067Y-8025067D02*
X11361067Y-7812933D01*
X11148933Y-7812933D01*
X11148933Y-8025067D01*
X11361067Y-8025067D01*
X11392067Y-11838067D02*
X11392067Y-11625933D01*
X11179933Y-11625933D01*
X11179933Y-11838067D01*
X11392067Y-11838067D01*
X11519067Y-11584067D02*
X11519067Y-11371933D01*
X11306933Y-11371933D01*
X11306933Y-11584067D01*
X11519067Y-11584067D01*
X11710067Y-9678067D02*
X11710067Y-9465933D01*
X11497933Y-9465933D01*
X11497933Y-9678067D01*
X11710067Y-9678067D01*
X11837067Y-9932067D02*
X11837067Y-9719933D01*
X11624933Y-9719933D01*
X11624933Y-9932067D01*
X11837067Y-9932067D01*
X11869067Y-8025067D02*
X11869067Y-7812933D01*
X11656933Y-7812933D01*
X11656933Y-8025067D01*
X11869067Y-8025067D01*
X11996067Y-7771067D02*
X11996067Y-7558933D01*
X11783933Y-7558933D01*
X11783933Y-7771067D01*
X11996067Y-7771067D01*
X12184567Y-5865067D02*
X12184567Y-5652933D01*
X11972433Y-5652933D01*
X11972433Y-5865067D01*
X12184567Y-5865067D01*
X12311567Y-6119067D02*
X12311567Y-5906933D01*
X12099433Y-5906933D01*
X12099433Y-6119067D01*
X12311567Y-6119067D01*
X12345067Y-9932067D02*
X12345067Y-9719933D01*
X12132933Y-9719933D01*
X12132933Y-9932067D01*
X12345067Y-9932067D01*
X12472067Y-9678067D02*
X12472067Y-9465933D01*
X12259933Y-9465933D01*
X12259933Y-9678067D01*
X12472067Y-9678067D01*
X12661067Y-13490067D02*
X12661067Y-13277933D01*
X12448933Y-13277933D01*
X12448933Y-13490067D01*
X12661067Y-13490067D01*
X12662067Y-11584067D02*
X12662067Y-11371933D01*
X12449933Y-11371933D01*
X12449933Y-11584067D01*
X12662067Y-11584067D01*
X12788067Y-13744067D02*
X12788067Y-13531933D01*
X12575933Y-13531933D01*
X12575933Y-13744067D01*
X12788067Y-13744067D01*
X12789067Y-11838067D02*
X12789067Y-11625933D01*
X12576933Y-11625933D01*
X12576933Y-11838067D01*
X12789067Y-11838067D01*
X12819567Y-6119067D02*
X12819567Y-5906933D01*
X12607433Y-5906933D01*
X12607433Y-6119067D01*
X12819567Y-6119067D01*
X12946567Y-5865067D02*
X12946567Y-5652933D01*
X12734433Y-5652933D01*
X12734433Y-5865067D01*
X12946567Y-5865067D01*
X13139067Y-7771067D02*
X13139067Y-7558933D01*
X12926933Y-7558933D01*
X12926933Y-7771067D01*
X13139067Y-7771067D01*
X13266067Y-8025067D02*
X13266067Y-7812933D01*
X13053933Y-7812933D01*
X13053933Y-8025067D01*
X13266067Y-8025067D01*
X13296067Y-13744067D02*
X13296067Y-13531933D01*
X13083933Y-13531933D01*
X13083933Y-13744067D01*
X13296067Y-13744067D01*
X13297067Y-11838067D02*
X13297067Y-11625933D01*
X13084933Y-11625933D01*
X13084933Y-11838067D01*
X13297067Y-11838067D01*
X13423067Y-13490067D02*
X13423067Y-13277933D01*
X13210933Y-13277933D01*
X13210933Y-13490067D01*
X13423067Y-13490067D01*
X13424067Y-11584067D02*
X13424067Y-11371933D01*
X13211933Y-11371933D01*
X13211933Y-11584067D01*
X13424067Y-11584067D01*
X13615067Y-9678067D02*
X13615067Y-9465933D01*
X13402933Y-9465933D01*
X13402933Y-9678067D01*
X13615067Y-9678067D01*
X13742067Y-9932067D02*
X13742067Y-9719933D01*
X13529933Y-9719933D01*
X13529933Y-9932067D01*
X13742067Y-9932067D01*
X13774067Y-8025067D02*
X13774067Y-7812933D01*
X13561933Y-7812933D01*
X13561933Y-8025067D01*
X13774067Y-8025067D01*
X13901067Y-7771067D02*
X13901067Y-7558933D01*
X13688933Y-7558933D01*
X13688933Y-7771067D01*
X13901067Y-7771067D01*
X14089567Y-5865067D02*
X14089567Y-5652933D01*
X13877433Y-5652933D01*
X13877433Y-5865067D01*
X14089567Y-5865067D01*
X14216567Y-6119067D02*
X14216567Y-5906933D01*
X14004433Y-5906933D01*
X14004433Y-6119067D01*
X14216567Y-6119067D01*
X14250067Y-9932067D02*
X14250067Y-9719933D01*
X14037933Y-9719933D01*
X14037933Y-9932067D01*
X14250067Y-9932067D01*
X14377067Y-9678067D02*
X14377067Y-9465933D01*
X14164933Y-9465933D01*
X14164933Y-9678067D01*
X14377067Y-9678067D01*
X14567067Y-11584067D02*
X14567067Y-11371933D01*
X14354933Y-11371933D01*
X14354933Y-11584067D01*
X14567067Y-11584067D01*
X14694067Y-11838067D02*
X14694067Y-11625933D01*
X14481933Y-11625933D01*
X14481933Y-11838067D01*
X14694067Y-11838067D01*
X14724567Y-6119067D02*
X14724567Y-5906933D01*
X14512433Y-5906933D01*
X14512433Y-6119067D01*
X14724567Y-6119067D01*
X14851567Y-5865067D02*
X14851567Y-5652933D01*
X14639433Y-5652933D01*
X14639433Y-5865067D01*
X14851567Y-5865067D01*
X15044067Y-7771067D02*
X15044067Y-7558933D01*
X14831933Y-7558933D01*
X14831933Y-7771067D01*
X15044067Y-7771067D01*
X15171067Y-8025067D02*
X15171067Y-7812933D01*
X14958933Y-7812933D01*
X14958933Y-8025067D01*
X15171067Y-8025067D01*
X15202067Y-11838067D02*
X15202067Y-11625933D01*
X14989933Y-11625933D01*
X14989933Y-11838067D01*
X15202067Y-11838067D01*
X15329067Y-11584067D02*
X15329067Y-11371933D01*
X15116933Y-11371933D01*
X15116933Y-11584067D01*
X15329067Y-11584067D01*
X15520067Y-9678067D02*
X15520067Y-9465933D01*
X15307933Y-9465933D01*
X15307933Y-9678067D01*
X15520067Y-9678067D01*
X15647067Y-9932067D02*
X15647067Y-9719933D01*
X15434933Y-9719933D01*
X15434933Y-9932067D01*
X15647067Y-9932067D01*
X15679067Y-8025067D02*
X15679067Y-7812933D01*
X15466933Y-7812933D01*
X15466933Y-8025067D01*
X15679067Y-8025067D01*
X15806067Y-7771067D02*
X15806067Y-7558933D01*
X15593933Y-7558933D01*
X15593933Y-7771067D01*
X15806067Y-7771067D01*
X15994567Y-5865067D02*
X15994567Y-5652933D01*
X15782433Y-5652933D01*
X15782433Y-5865067D01*
X15994567Y-5865067D01*
X16121567Y-6119067D02*
X16121567Y-5906933D01*
X15909433Y-5906933D01*
X15909433Y-6119067D01*
X16121567Y-6119067D01*
X16155067Y-9932067D02*
X16155067Y-9719933D01*
X15942933Y-9719933D01*
X15942933Y-9932067D01*
X16155067Y-9932067D01*
X16233067Y-13489067D02*
X16233067Y-13276933D01*
X16020933Y-13276933D01*
X16020933Y-13489067D01*
X16233067Y-13489067D01*
X16282067Y-9678067D02*
X16282067Y-9465933D01*
X16069933Y-9465933D01*
X16069933Y-9678067D01*
X16282067Y-9678067D01*
X16360067Y-13743067D02*
X16360067Y-13530933D01*
X16147933Y-13530933D01*
X16147933Y-13743067D01*
X16360067Y-13743067D01*
X16470067Y-11583067D02*
X16470067Y-11370933D01*
X16257933Y-11370933D01*
X16257933Y-11583067D01*
X16470067Y-11583067D01*
X16597067Y-11837067D02*
X16597067Y-11624933D01*
X16384933Y-11624933D01*
X16384933Y-11837067D01*
X16597067Y-11837067D01*
X16629567Y-6119067D02*
X16629567Y-5906933D01*
X16417433Y-5906933D01*
X16417433Y-6119067D01*
X16629567Y-6119067D01*
X16756567Y-5865067D02*
X16756567Y-5652933D01*
X16544433Y-5652933D01*
X16544433Y-5865067D01*
X16756567Y-5865067D01*
X16868067Y-13743067D02*
X16868067Y-13530933D01*
X16655933Y-13530933D01*
X16655933Y-13743067D01*
X16868067Y-13743067D01*
X16949067Y-7771067D02*
X16949067Y-7558933D01*
X16736933Y-7558933D01*
X16736933Y-7771067D01*
X16949067Y-7771067D01*
X16995067Y-13489067D02*
X16995067Y-13276933D01*
X16782933Y-13276933D01*
X16782933Y-13489067D01*
X16995067Y-13489067D01*
X17076067Y-8025067D02*
X17076067Y-7812933D01*
X16863933Y-7812933D01*
X16863933Y-8025067D01*
X17076067Y-8025067D01*
X17105067Y-11837067D02*
X17105067Y-11624933D01*
X16892933Y-11624933D01*
X16892933Y-11837067D01*
X17105067Y-11837067D01*
X17232067Y-11583067D02*
X17232067Y-11370933D01*
X17019933Y-11370933D01*
X17019933Y-11583067D01*
X17232067Y-11583067D01*
X17425067Y-9678067D02*
X17425067Y-9465933D01*
X17212933Y-9465933D01*
X17212933Y-9678067D01*
X17425067Y-9678067D01*
X17552067Y-9932067D02*
X17552067Y-9719933D01*
X17339933Y-9719933D01*
X17339933Y-9932067D01*
X17552067Y-9932067D01*
X17584067Y-8025067D02*
X17584067Y-7812933D01*
X17371933Y-7812933D01*
X17371933Y-8025067D01*
X17584067Y-8025067D01*
X17711067Y-7771067D02*
X17711067Y-7558933D01*
X17498933Y-7558933D01*
X17498933Y-7771067D01*
X17711067Y-7771067D01*
X17899567Y-5865067D02*
X17899567Y-5652933D01*
X17687433Y-5652933D01*
X17687433Y-5865067D01*
X17899567Y-5865067D01*
X18026567Y-6119067D02*
X18026567Y-5906933D01*
X17814433Y-5906933D01*
X17814433Y-6119067D01*
X18026567Y-6119067D01*
X18060067Y-9932067D02*
X18060067Y-9719933D01*
X17847933Y-9719933D01*
X17847933Y-9932067D01*
X18060067Y-9932067D01*
X18187067Y-9678067D02*
X18187067Y-9465933D01*
X17974933Y-9465933D01*
X17974933Y-9678067D01*
X18187067Y-9678067D01*
X18377067Y-11584067D02*
X18377067Y-11371933D01*
X18164933Y-11371933D01*
X18164933Y-11584067D01*
X18377067Y-11584067D01*
X18504067Y-11838067D02*
X18504067Y-11625933D01*
X18291933Y-11625933D01*
X18291933Y-11838067D01*
X18504067Y-11838067D01*
X18534567Y-6119067D02*
X18534567Y-5906933D01*
X18322433Y-5906933D01*
X18322433Y-6119067D01*
X18534567Y-6119067D01*
X18661567Y-5865067D02*
X18661567Y-5652933D01*
X18449433Y-5652933D01*
X18449433Y-5865067D01*
X18661567Y-5865067D01*
X19012067Y-11838067D02*
X19012067Y-11625933D01*
X18799933Y-11625933D01*
X18799933Y-11838067D01*
X19012067Y-11838067D01*
X19139067Y-11584067D02*
X19139067Y-11371933D01*
X18926933Y-11371933D01*
X18926933Y-11584067D01*
X19139067Y-11584067D01*
X19804067Y-13490067D02*
X19804067Y-13277933D01*
X19591933Y-13277933D01*
X19591933Y-13490067D01*
X19804067Y-13490067D01*
X19931067Y-13744067D02*
X19931067Y-13531933D01*
X19718933Y-13531933D01*
X19718933Y-13744067D01*
X19931067Y-13744067D01*
X20439067Y-13744067D02*
X20439067Y-13531933D01*
X20226933Y-13531933D01*
X20226933Y-13744067D01*
X20439067Y-13744067D01*
X20566067Y-13490067D02*
X20566067Y-13277933D01*
X20353933Y-13277933D01*
X20353933Y-13490067D01*
X20566067Y-13490067D01*
D16*
X6744000Y-5710000D02*
X6949000Y-5505000D01*
X6744000Y-5300000D01*
X6539000Y-5505000D01*
X6744000Y-5710000D01*
X7220000Y-7614000D02*
X7425000Y-7409000D01*
X7220000Y-7204000D01*
X7015000Y-7409000D01*
X7220000Y-7614000D01*
X7221000Y-13337000D02*
X7426000Y-13132000D01*
X7221000Y-12927000D01*
X7016000Y-13132000D01*
X7221000Y-13337000D01*
X7460000Y-9520000D02*
X7665000Y-9315000D01*
X7460000Y-9110000D01*
X7255000Y-9315000D01*
X7460000Y-9520000D01*
X7936000Y-11432000D02*
X8141000Y-11227000D01*
X7936000Y-11022000D01*
X7731000Y-11227000D01*
X7936000Y-11432000D01*
X8649500Y-5710000D02*
X8854500Y-5505000D01*
X8649500Y-5300000D01*
X8444500Y-5505000D01*
X8649500Y-5710000D01*
X9604000Y-7616000D02*
X9809000Y-7411000D01*
X9604000Y-7206000D01*
X9399000Y-7411000D01*
X9604000Y-7616000D01*
X10072000Y-13336000D02*
X10277000Y-13131000D01*
X10072000Y-12926000D01*
X9867000Y-13131000D01*
X10072000Y-13336000D01*
X10080000Y-9523000D02*
X10285000Y-9318000D01*
X10080000Y-9113000D01*
X9875000Y-9318000D01*
X10080000Y-9523000D01*
X10554500Y-5710000D02*
X10759500Y-5505000D01*
X10554500Y-5300000D01*
X10349500Y-5505000D01*
X10554500Y-5710000D01*
X11032000Y-11429000D02*
X11237000Y-11224000D01*
X11032000Y-11019000D01*
X10827000Y-11224000D01*
X11032000Y-11429000D01*
X11509000Y-7616000D02*
X11714000Y-7411000D01*
X11509000Y-7206000D01*
X11304000Y-7411000D01*
X11509000Y-7616000D01*
X11985000Y-9523000D02*
X12190000Y-9318000D01*
X11985000Y-9113000D01*
X11780000Y-9318000D01*
X11985000Y-9523000D01*
X12459500Y-5710000D02*
X12664500Y-5505000D01*
X12459500Y-5300000D01*
X12254500Y-5505000D01*
X12459500Y-5710000D01*
X12936000Y-13335000D02*
X13141000Y-13130000D01*
X12936000Y-12925000D01*
X12731000Y-13130000D01*
X12936000Y-13335000D01*
X12937000Y-11429000D02*
X13142000Y-11224000D01*
X12937000Y-11019000D01*
X12732000Y-11224000D01*
X12937000Y-11429000D01*
X13414000Y-7616000D02*
X13619000Y-7411000D01*
X13414000Y-7206000D01*
X13209000Y-7411000D01*
X13414000Y-7616000D01*
X13890000Y-9523000D02*
X14095000Y-9318000D01*
X13890000Y-9113000D01*
X13685000Y-9318000D01*
X13890000Y-9523000D01*
X14364500Y-5710000D02*
X14569500Y-5505000D01*
X14364500Y-5300000D01*
X14159500Y-5505000D01*
X14364500Y-5710000D01*
X14842000Y-11429000D02*
X15047000Y-11224000D01*
X14842000Y-11019000D01*
X14637000Y-11224000D01*
X14842000Y-11429000D01*
X15319000Y-7616000D02*
X15524000Y-7411000D01*
X15319000Y-7206000D01*
X15114000Y-7411000D01*
X15319000Y-7616000D01*
X15795000Y-9523000D02*
X16000000Y-9318000D01*
X15795000Y-9113000D01*
X15590000Y-9318000D01*
X15795000Y-9523000D01*
X16269500Y-5710000D02*
X16474500Y-5505000D01*
X16269500Y-5300000D01*
X16064500Y-5505000D01*
X16269500Y-5710000D01*
X16508000Y-13334000D02*
X16713000Y-13129000D01*
X16508000Y-12924000D01*
X16303000Y-13129000D01*
X16508000Y-13334000D01*
X16745000Y-11428000D02*
X16950000Y-11223000D01*
X16745000Y-11018000D01*
X16540000Y-11223000D01*
X16745000Y-11428000D01*
X17224000Y-7616000D02*
X17429000Y-7411000D01*
X17224000Y-7206000D01*
X17019000Y-7411000D01*
X17224000Y-7616000D01*
X17700000Y-9523000D02*
X17905000Y-9318000D01*
X17700000Y-9113000D01*
X17495000Y-9318000D01*
X17700000Y-9523000D01*
X18174500Y-5710000D02*
X18379500Y-5505000D01*
X18174500Y-5300000D01*
X17969500Y-5505000D01*
X18174500Y-5710000D01*
X18652000Y-11429000D02*
X18857000Y-11224000D01*
X18652000Y-11019000D01*
X18447000Y-11224000D01*
X18652000Y-11429000D01*
X20079000Y-13335000D02*
X20284000Y-13130000D01*
X20079000Y-12925000D01*
X19874000Y-13130000D01*
X20079000Y-13335000D01*
D11*
X5822619Y-14551476D02*
X5822619Y-14351476D01*
X5870238Y-14351476D01*
X5898809Y-14361000D01*
X5917857Y-14380048D01*
X5927381Y-14399095D01*
X5936905Y-14437190D01*
X5936905Y-14465762D01*
X5927381Y-14503857D01*
X5917857Y-14522905D01*
X5898809Y-14541952D01*
X5870238Y-14551476D01*
X5822619Y-14551476D01*
X6022619Y-14551476D02*
X6022619Y-14418143D01*
X6022619Y-14456238D02*
X6032143Y-14437190D01*
X6041667Y-14427667D01*
X6060714Y-14418143D01*
X6079762Y-14418143D01*
X6146428Y-14551476D02*
X6146428Y-14418143D01*
X6146428Y-14351476D02*
X6136905Y-14361000D01*
X6146428Y-14370524D01*
X6155952Y-14361000D01*
X6146428Y-14351476D01*
X6146428Y-14370524D01*
X6270238Y-14551476D02*
X6251190Y-14541952D01*
X6241667Y-14522905D01*
X6241667Y-14351476D01*
X6375000Y-14551476D02*
X6355952Y-14541952D01*
X6346428Y-14522905D01*
X6346428Y-14351476D01*
X6603571Y-14551476D02*
X6603571Y-14351476D01*
X6670238Y-14494333D01*
X6736905Y-14351476D01*
X6736905Y-14551476D01*
X6917857Y-14551476D02*
X6917857Y-14446714D01*
X6908333Y-14427667D01*
X6889286Y-14418143D01*
X6851190Y-14418143D01*
X6832143Y-14427667D01*
X6917857Y-14541952D02*
X6898809Y-14551476D01*
X6851190Y-14551476D01*
X6832143Y-14541952D01*
X6822619Y-14522905D01*
X6822619Y-14503857D01*
X6832143Y-14484809D01*
X6851190Y-14475286D01*
X6898809Y-14475286D01*
X6917857Y-14465762D01*
X7013095Y-14418143D02*
X7013095Y-14618143D01*
X7013095Y-14427667D02*
X7032143Y-14418143D01*
X7070238Y-14418143D01*
X7089286Y-14427667D01*
X7098809Y-14437190D01*
X7108333Y-14456238D01*
X7108333Y-14513381D01*
X7098809Y-14532428D01*
X7089286Y-14541952D01*
X7070238Y-14551476D01*
X7032143Y-14551476D01*
X7013095Y-14541952D01*
X7194048Y-14532428D02*
X7203571Y-14541952D01*
X7194048Y-14551476D01*
X7184524Y-14541952D01*
X7194048Y-14532428D01*
X7194048Y-14551476D01*
X7194048Y-14427667D02*
X7203571Y-14437190D01*
X7194048Y-14446714D01*
X7184524Y-14437190D01*
X7194048Y-14427667D01*
X7194048Y-14446714D01*
D12*
X5445000Y-14821000D02*
X5565000Y-14941000D01*
X5565000Y-14821000D02*
X5445000Y-14941000D01*
D11*
X5927381Y-14971476D02*
X5813095Y-14971476D01*
X5870238Y-14971476D02*
X5870238Y-14771476D01*
X5851190Y-14800048D01*
X5832143Y-14819095D01*
X5813095Y-14828619D01*
X6013095Y-14952428D02*
X6022619Y-14961952D01*
X6013095Y-14971476D01*
X6003571Y-14961952D01*
X6013095Y-14952428D01*
X6013095Y-14971476D01*
X6098809Y-14790524D02*
X6108333Y-14781000D01*
X6127381Y-14771476D01*
X6175000Y-14771476D01*
X6194048Y-14781000D01*
X6203571Y-14790524D01*
X6213095Y-14809571D01*
X6213095Y-14828619D01*
X6203571Y-14857190D01*
X6089286Y-14971476D01*
X6213095Y-14971476D01*
X6336905Y-14771476D02*
X6355952Y-14771476D01*
X6375000Y-14781000D01*
X6384524Y-14790524D01*
X6394048Y-14809571D01*
X6403571Y-14847667D01*
X6403571Y-14895286D01*
X6394048Y-14933381D01*
X6384524Y-14952428D01*
X6375000Y-14961952D01*
X6355952Y-14971476D01*
X6336905Y-14971476D01*
X6317857Y-14961952D01*
X6308333Y-14952428D01*
X6298809Y-14933381D01*
X6289286Y-14895286D01*
X6289286Y-14847667D01*
X6298809Y-14809571D01*
X6308333Y-14790524D01*
X6317857Y-14781000D01*
X6336905Y-14771476D01*
X6527381Y-14771476D02*
X6546428Y-14771476D01*
X6565476Y-14781000D01*
X6575000Y-14790524D01*
X6584524Y-14809571D01*
X6594048Y-14847667D01*
X6594048Y-14895286D01*
X6584524Y-14933381D01*
X6575000Y-14952428D01*
X6565476Y-14961952D01*
X6546428Y-14971476D01*
X6527381Y-14971476D01*
X6508333Y-14961952D01*
X6498809Y-14952428D01*
X6489286Y-14933381D01*
X6479762Y-14895286D01*
X6479762Y-14847667D01*
X6489286Y-14809571D01*
X6498809Y-14790524D01*
X6508333Y-14781000D01*
X6527381Y-14771476D01*
X6679762Y-14971476D02*
X6679762Y-14838143D01*
X6679762Y-14857190D02*
X6689286Y-14847667D01*
X6708333Y-14838143D01*
X6736905Y-14838143D01*
X6755952Y-14847667D01*
X6765476Y-14866714D01*
X6765476Y-14971476D01*
X6765476Y-14866714D02*
X6775000Y-14847667D01*
X6794048Y-14838143D01*
X6822619Y-14838143D01*
X6841667Y-14847667D01*
X6851190Y-14866714D01*
X6851190Y-14971476D01*
X6946428Y-14971476D02*
X6946428Y-14838143D01*
X6946428Y-14857190D02*
X6955952Y-14847667D01*
X6975000Y-14838143D01*
X7003571Y-14838143D01*
X7022619Y-14847667D01*
X7032143Y-14866714D01*
X7032143Y-14971476D01*
X7032143Y-14866714D02*
X7041667Y-14847667D01*
X7060714Y-14838143D01*
X7089286Y-14838143D01*
X7108333Y-14847667D01*
X7117857Y-14866714D01*
X7117857Y-14971476D01*
X7508333Y-14761952D02*
X7336905Y-15019095D01*
X7765476Y-14771476D02*
X7784524Y-14771476D01*
X7803571Y-14781000D01*
X7813095Y-14790524D01*
X7822619Y-14809571D01*
X7832143Y-14847667D01*
X7832143Y-14895286D01*
X7822619Y-14933381D01*
X7813095Y-14952428D01*
X7803571Y-14961952D01*
X7784524Y-14971476D01*
X7765476Y-14971476D01*
X7746428Y-14961952D01*
X7736905Y-14952428D01*
X7727381Y-14933381D01*
X7717857Y-14895286D01*
X7717857Y-14847667D01*
X7727381Y-14809571D01*
X7736905Y-14790524D01*
X7746428Y-14781000D01*
X7765476Y-14771476D01*
X7917857Y-14952428D02*
X7927381Y-14961952D01*
X7917857Y-14971476D01*
X7908333Y-14961952D01*
X7917857Y-14952428D01*
X7917857Y-14971476D01*
X8051190Y-14771476D02*
X8070238Y-14771476D01*
X8089286Y-14781000D01*
X8098809Y-14790524D01*
X8108333Y-14809571D01*
X8117857Y-14847667D01*
X8117857Y-14895286D01*
X8108333Y-14933381D01*
X8098809Y-14952428D01*
X8089286Y-14961952D01*
X8070238Y-14971476D01*
X8051190Y-14971476D01*
X8032143Y-14961952D01*
X8022619Y-14952428D01*
X8013095Y-14933381D01*
X8003571Y-14895286D01*
X8003571Y-14847667D01*
X8013095Y-14809571D01*
X8022619Y-14790524D01*
X8032143Y-14781000D01*
X8051190Y-14771476D01*
X8289286Y-14838143D02*
X8289286Y-14971476D01*
X8241667Y-14761952D02*
X8194048Y-14904809D01*
X8317857Y-14904809D01*
X8375000Y-14771476D02*
X8508333Y-14771476D01*
X8422619Y-14971476D01*
X8575000Y-14790524D02*
X8584524Y-14781000D01*
X8603571Y-14771476D01*
X8651190Y-14771476D01*
X8670238Y-14781000D01*
X8679762Y-14790524D01*
X8689286Y-14809571D01*
X8689286Y-14828619D01*
X8679762Y-14857190D01*
X8565476Y-14971476D01*
X8689286Y-14971476D01*
X8765476Y-14771476D02*
X8765476Y-14809571D01*
X8841667Y-14771476D02*
X8841667Y-14809571D01*
X9136905Y-15047667D02*
X9127381Y-15038143D01*
X9108333Y-15009571D01*
X9098810Y-14990524D01*
X9089286Y-14961952D01*
X9079762Y-14914333D01*
X9079762Y-14876238D01*
X9089286Y-14828619D01*
X9098810Y-14800048D01*
X9108333Y-14781000D01*
X9127381Y-14752428D01*
X9136905Y-14742905D01*
X9298810Y-14838143D02*
X9298810Y-14971476D01*
X9251190Y-14761952D02*
X9203571Y-14904809D01*
X9327381Y-14904809D01*
X9555952Y-14971476D02*
X9555952Y-14771476D01*
X9641667Y-14971476D02*
X9641667Y-14866714D01*
X9632143Y-14847667D01*
X9613095Y-14838143D01*
X9584524Y-14838143D01*
X9565476Y-14847667D01*
X9555952Y-14857190D01*
X9765476Y-14971476D02*
X9746429Y-14961952D01*
X9736905Y-14952428D01*
X9727381Y-14933381D01*
X9727381Y-14876238D01*
X9736905Y-14857190D01*
X9746429Y-14847667D01*
X9765476Y-14838143D01*
X9794048Y-14838143D01*
X9813095Y-14847667D01*
X9822619Y-14857190D01*
X9832143Y-14876238D01*
X9832143Y-14933381D01*
X9822619Y-14952428D01*
X9813095Y-14961952D01*
X9794048Y-14971476D01*
X9765476Y-14971476D01*
X9946429Y-14971476D02*
X9927381Y-14961952D01*
X9917857Y-14942905D01*
X9917857Y-14771476D01*
X10098810Y-14961952D02*
X10079762Y-14971476D01*
X10041667Y-14971476D01*
X10022619Y-14961952D01*
X10013095Y-14942905D01*
X10013095Y-14866714D01*
X10022619Y-14847667D01*
X10041667Y-14838143D01*
X10079762Y-14838143D01*
X10098810Y-14847667D01*
X10108333Y-14866714D01*
X10108333Y-14885762D01*
X10013095Y-14904809D01*
X10184524Y-14961952D02*
X10203571Y-14971476D01*
X10241667Y-14971476D01*
X10260714Y-14961952D01*
X10270238Y-14942905D01*
X10270238Y-14933381D01*
X10260714Y-14914333D01*
X10241667Y-14904809D01*
X10213095Y-14904809D01*
X10194048Y-14895286D01*
X10184524Y-14876238D01*
X10184524Y-14866714D01*
X10194048Y-14847667D01*
X10213095Y-14838143D01*
X10241667Y-14838143D01*
X10260714Y-14847667D01*
X10336905Y-15047667D02*
X10346429Y-15038143D01*
X10365476Y-15009571D01*
X10375000Y-14990524D01*
X10384524Y-14961952D01*
X10394048Y-14914333D01*
X10394048Y-14876238D01*
X10384524Y-14828619D01*
X10375000Y-14800048D01*
X10365476Y-14781000D01*
X10346429Y-14752428D01*
X10336905Y-14742905D01*
X10698810Y-15047667D02*
X10689286Y-15038143D01*
X10670238Y-15009571D01*
X10660714Y-14990524D01*
X10651190Y-14961952D01*
X10641667Y-14914333D01*
X10641667Y-14876238D01*
X10651190Y-14828619D01*
X10660714Y-14800048D01*
X10670238Y-14781000D01*
X10689286Y-14752428D01*
X10698810Y-14742905D01*
X10775000Y-14838143D02*
X10775000Y-14971476D01*
X10775000Y-14857190D02*
X10784524Y-14847667D01*
X10803571Y-14838143D01*
X10832143Y-14838143D01*
X10851190Y-14847667D01*
X10860714Y-14866714D01*
X10860714Y-14971476D01*
X10984524Y-14971476D02*
X10965476Y-14961952D01*
X10955952Y-14952428D01*
X10946429Y-14933381D01*
X10946429Y-14876238D01*
X10955952Y-14857190D01*
X10965476Y-14847667D01*
X10984524Y-14838143D01*
X11013095Y-14838143D01*
X11032143Y-14847667D01*
X11041667Y-14857190D01*
X11051190Y-14876238D01*
X11051190Y-14933381D01*
X11041667Y-14952428D01*
X11032143Y-14961952D01*
X11013095Y-14971476D01*
X10984524Y-14971476D01*
X11108333Y-14838143D02*
X11184524Y-14838143D01*
X11136905Y-14771476D02*
X11136905Y-14942905D01*
X11146429Y-14961952D01*
X11165476Y-14971476D01*
X11184524Y-14971476D01*
X11403571Y-14838143D02*
X11403571Y-15038143D01*
X11403571Y-14847667D02*
X11422619Y-14838143D01*
X11460714Y-14838143D01*
X11479762Y-14847667D01*
X11489286Y-14857190D01*
X11498809Y-14876238D01*
X11498809Y-14933381D01*
X11489286Y-14952428D01*
X11479762Y-14961952D01*
X11460714Y-14971476D01*
X11422619Y-14971476D01*
X11403571Y-14961952D01*
X11613095Y-14971476D02*
X11594048Y-14961952D01*
X11584524Y-14942905D01*
X11584524Y-14771476D01*
X11775000Y-14971476D02*
X11775000Y-14866714D01*
X11765476Y-14847667D01*
X11746428Y-14838143D01*
X11708333Y-14838143D01*
X11689286Y-14847667D01*
X11775000Y-14961952D02*
X11755952Y-14971476D01*
X11708333Y-14971476D01*
X11689286Y-14961952D01*
X11679762Y-14942905D01*
X11679762Y-14923857D01*
X11689286Y-14904809D01*
X11708333Y-14895286D01*
X11755952Y-14895286D01*
X11775000Y-14885762D01*
X11841667Y-14838143D02*
X11917857Y-14838143D01*
X11870238Y-14771476D02*
X11870238Y-14942905D01*
X11879762Y-14961952D01*
X11898809Y-14971476D01*
X11917857Y-14971476D01*
X12060714Y-14961952D02*
X12041667Y-14971476D01*
X12003571Y-14971476D01*
X11984524Y-14961952D01*
X11975000Y-14942905D01*
X11975000Y-14866714D01*
X11984524Y-14847667D01*
X12003571Y-14838143D01*
X12041667Y-14838143D01*
X12060714Y-14847667D01*
X12070238Y-14866714D01*
X12070238Y-14885762D01*
X11975000Y-14904809D01*
X12241667Y-14971476D02*
X12241667Y-14771476D01*
X12241667Y-14961952D02*
X12222619Y-14971476D01*
X12184524Y-14971476D01*
X12165476Y-14961952D01*
X12155952Y-14952428D01*
X12146428Y-14933381D01*
X12146428Y-14876238D01*
X12155952Y-14857190D01*
X12165476Y-14847667D01*
X12184524Y-14838143D01*
X12222619Y-14838143D01*
X12241667Y-14847667D01*
X12317857Y-15047667D02*
X12327381Y-15038143D01*
X12346428Y-15009571D01*
X12355952Y-14990524D01*
X12365476Y-14961952D01*
X12375000Y-14914333D01*
X12375000Y-14876238D01*
X12365476Y-14828619D01*
X12355952Y-14800048D01*
X12346428Y-14781000D01*
X12327381Y-14752428D01*
X12317857Y-14742905D01*
D13*
X5565000Y-15145000D02*
G75*
G03*
X5565000Y-15145000I-85000J0D01*
G01*
D11*
X5927381Y-15235476D02*
X5813095Y-15235476D01*
X5870238Y-15235476D02*
X5870238Y-15035476D01*
X5851190Y-15064048D01*
X5832143Y-15083095D01*
X5813095Y-15092619D01*
X6013095Y-15216428D02*
X6022619Y-15225952D01*
X6013095Y-15235476D01*
X6003571Y-15225952D01*
X6013095Y-15216428D01*
X6013095Y-15235476D01*
X6089286Y-15035476D02*
X6222619Y-15035476D01*
X6136905Y-15235476D01*
X6336905Y-15035476D02*
X6355952Y-15035476D01*
X6375000Y-15045000D01*
X6384524Y-15054524D01*
X6394048Y-15073571D01*
X6403571Y-15111667D01*
X6403571Y-15159286D01*
X6394048Y-15197381D01*
X6384524Y-15216428D01*
X6375000Y-15225952D01*
X6355952Y-15235476D01*
X6336905Y-15235476D01*
X6317857Y-15225952D01*
X6308333Y-15216428D01*
X6298809Y-15197381D01*
X6289286Y-15159286D01*
X6289286Y-15111667D01*
X6298809Y-15073571D01*
X6308333Y-15054524D01*
X6317857Y-15045000D01*
X6336905Y-15035476D01*
X6527381Y-15035476D02*
X6546428Y-15035476D01*
X6565476Y-15045000D01*
X6575000Y-15054524D01*
X6584524Y-15073571D01*
X6594048Y-15111667D01*
X6594048Y-15159286D01*
X6584524Y-15197381D01*
X6575000Y-15216428D01*
X6565476Y-15225952D01*
X6546428Y-15235476D01*
X6527381Y-15235476D01*
X6508333Y-15225952D01*
X6498809Y-15216428D01*
X6489286Y-15197381D01*
X6479762Y-15159286D01*
X6479762Y-15111667D01*
X6489286Y-15073571D01*
X6498809Y-15054524D01*
X6508333Y-15045000D01*
X6527381Y-15035476D01*
X6679762Y-15235476D02*
X6679762Y-15102143D01*
X6679762Y-15121190D02*
X6689286Y-15111667D01*
X6708333Y-15102143D01*
X6736905Y-15102143D01*
X6755952Y-15111667D01*
X6765476Y-15130714D01*
X6765476Y-15235476D01*
X6765476Y-15130714D02*
X6775000Y-15111667D01*
X6794048Y-15102143D01*
X6822619Y-15102143D01*
X6841667Y-15111667D01*
X6851190Y-15130714D01*
X6851190Y-15235476D01*
X6946428Y-15235476D02*
X6946428Y-15102143D01*
X6946428Y-15121190D02*
X6955952Y-15111667D01*
X6975000Y-15102143D01*
X7003571Y-15102143D01*
X7022619Y-15111667D01*
X7032143Y-15130714D01*
X7032143Y-15235476D01*
X7032143Y-15130714D02*
X7041667Y-15111667D01*
X7060714Y-15102143D01*
X7089286Y-15102143D01*
X7108333Y-15111667D01*
X7117857Y-15130714D01*
X7117857Y-15235476D01*
X7508333Y-15025952D02*
X7336905Y-15283095D01*
X7765476Y-15035476D02*
X7784524Y-15035476D01*
X7803571Y-15045000D01*
X7813095Y-15054524D01*
X7822619Y-15073571D01*
X7832143Y-15111667D01*
X7832143Y-15159286D01*
X7822619Y-15197381D01*
X7813095Y-15216428D01*
X7803571Y-15225952D01*
X7784524Y-15235476D01*
X7765476Y-15235476D01*
X7746428Y-15225952D01*
X7736905Y-15216428D01*
X7727381Y-15197381D01*
X7717857Y-15159286D01*
X7717857Y-15111667D01*
X7727381Y-15073571D01*
X7736905Y-15054524D01*
X7746428Y-15045000D01*
X7765476Y-15035476D01*
X7917857Y-15216428D02*
X7927381Y-15225952D01*
X7917857Y-15235476D01*
X7908333Y-15225952D01*
X7917857Y-15216428D01*
X7917857Y-15235476D01*
X8051190Y-15035476D02*
X8070238Y-15035476D01*
X8089286Y-15045000D01*
X8098809Y-15054524D01*
X8108333Y-15073571D01*
X8117857Y-15111667D01*
X8117857Y-15159286D01*
X8108333Y-15197381D01*
X8098809Y-15216428D01*
X8089286Y-15225952D01*
X8070238Y-15235476D01*
X8051190Y-15235476D01*
X8032143Y-15225952D01*
X8022619Y-15216428D01*
X8013095Y-15197381D01*
X8003571Y-15159286D01*
X8003571Y-15111667D01*
X8013095Y-15073571D01*
X8022619Y-15054524D01*
X8032143Y-15045000D01*
X8051190Y-15035476D01*
X8289286Y-15035476D02*
X8251190Y-15035476D01*
X8232143Y-15045000D01*
X8222619Y-15054524D01*
X8203571Y-15083095D01*
X8194048Y-15121190D01*
X8194048Y-15197381D01*
X8203571Y-15216428D01*
X8213095Y-15225952D01*
X8232143Y-15235476D01*
X8270238Y-15235476D01*
X8289286Y-15225952D01*
X8298809Y-15216428D01*
X8308333Y-15197381D01*
X8308333Y-15149762D01*
X8298809Y-15130714D01*
X8289286Y-15121190D01*
X8270238Y-15111667D01*
X8232143Y-15111667D01*
X8213095Y-15121190D01*
X8203571Y-15130714D01*
X8194048Y-15149762D01*
X8479762Y-15035476D02*
X8441667Y-15035476D01*
X8422619Y-15045000D01*
X8413095Y-15054524D01*
X8394048Y-15083095D01*
X8384524Y-15121190D01*
X8384524Y-15197381D01*
X8394048Y-15216428D01*
X8403571Y-15225952D01*
X8422619Y-15235476D01*
X8460714Y-15235476D01*
X8479762Y-15225952D01*
X8489286Y-15216428D01*
X8498810Y-15197381D01*
X8498810Y-15149762D01*
X8489286Y-15130714D01*
X8479762Y-15121190D01*
X8460714Y-15111667D01*
X8422619Y-15111667D01*
X8403571Y-15121190D01*
X8394048Y-15130714D01*
X8384524Y-15149762D01*
X8594048Y-15235476D02*
X8632143Y-15235476D01*
X8651190Y-15225952D01*
X8660714Y-15216428D01*
X8679762Y-15187857D01*
X8689286Y-15149762D01*
X8689286Y-15073571D01*
X8679762Y-15054524D01*
X8670238Y-15045000D01*
X8651190Y-15035476D01*
X8613095Y-15035476D01*
X8594048Y-15045000D01*
X8584524Y-15054524D01*
X8575000Y-15073571D01*
X8575000Y-15121190D01*
X8584524Y-15140238D01*
X8594048Y-15149762D01*
X8613095Y-15159286D01*
X8651190Y-15159286D01*
X8670238Y-15149762D01*
X8679762Y-15140238D01*
X8689286Y-15121190D01*
X8765476Y-15035476D02*
X8765476Y-15073571D01*
X8841667Y-15035476D02*
X8841667Y-15073571D01*
X9136905Y-15311667D02*
X9127381Y-15302143D01*
X9108333Y-15273571D01*
X9098810Y-15254524D01*
X9089286Y-15225952D01*
X9079762Y-15178333D01*
X9079762Y-15140238D01*
X9089286Y-15092619D01*
X9098810Y-15064048D01*
X9108333Y-15045000D01*
X9127381Y-15016428D01*
X9136905Y-15006905D01*
X9298810Y-15035476D02*
X9260714Y-15035476D01*
X9241667Y-15045000D01*
X9232143Y-15054524D01*
X9213095Y-15083095D01*
X9203571Y-15121190D01*
X9203571Y-15197381D01*
X9213095Y-15216428D01*
X9222619Y-15225952D01*
X9241667Y-15235476D01*
X9279762Y-15235476D01*
X9298810Y-15225952D01*
X9308333Y-15216428D01*
X9317857Y-15197381D01*
X9317857Y-15149762D01*
X9308333Y-15130714D01*
X9298810Y-15121190D01*
X9279762Y-15111667D01*
X9241667Y-15111667D01*
X9222619Y-15121190D01*
X9213095Y-15130714D01*
X9203571Y-15149762D01*
X9441667Y-15035476D02*
X9460714Y-15035476D01*
X9479762Y-15045000D01*
X9489286Y-15054524D01*
X9498810Y-15073571D01*
X9508333Y-15111667D01*
X9508333Y-15159286D01*
X9498810Y-15197381D01*
X9489286Y-15216428D01*
X9479762Y-15225952D01*
X9460714Y-15235476D01*
X9441667Y-15235476D01*
X9422619Y-15225952D01*
X9413095Y-15216428D01*
X9403571Y-15197381D01*
X9394048Y-15159286D01*
X9394048Y-15111667D01*
X9403571Y-15073571D01*
X9413095Y-15054524D01*
X9422619Y-15045000D01*
X9441667Y-15035476D01*
X9746429Y-15235476D02*
X9746429Y-15035476D01*
X9832143Y-15235476D02*
X9832143Y-15130714D01*
X9822619Y-15111667D01*
X9803571Y-15102143D01*
X9775000Y-15102143D01*
X9755952Y-15111667D01*
X9746429Y-15121190D01*
X9955952Y-15235476D02*
X9936905Y-15225952D01*
X9927381Y-15216428D01*
X9917857Y-15197381D01*
X9917857Y-15140238D01*
X9927381Y-15121190D01*
X9936905Y-15111667D01*
X9955952Y-15102143D01*
X9984524Y-15102143D01*
X10003571Y-15111667D01*
X10013095Y-15121190D01*
X10022619Y-15140238D01*
X10022619Y-15197381D01*
X10013095Y-15216428D01*
X10003571Y-15225952D01*
X9984524Y-15235476D01*
X9955952Y-15235476D01*
X10136905Y-15235476D02*
X10117857Y-15225952D01*
X10108333Y-15206905D01*
X10108333Y-15035476D01*
X10289286Y-15225952D02*
X10270238Y-15235476D01*
X10232143Y-15235476D01*
X10213095Y-15225952D01*
X10203571Y-15206905D01*
X10203571Y-15130714D01*
X10213095Y-15111667D01*
X10232143Y-15102143D01*
X10270238Y-15102143D01*
X10289286Y-15111667D01*
X10298810Y-15130714D01*
X10298810Y-15149762D01*
X10203571Y-15168809D01*
X10375000Y-15225952D02*
X10394048Y-15235476D01*
X10432143Y-15235476D01*
X10451190Y-15225952D01*
X10460714Y-15206905D01*
X10460714Y-15197381D01*
X10451190Y-15178333D01*
X10432143Y-15168809D01*
X10403571Y-15168809D01*
X10384524Y-15159286D01*
X10375000Y-15140238D01*
X10375000Y-15130714D01*
X10384524Y-15111667D01*
X10403571Y-15102143D01*
X10432143Y-15102143D01*
X10451190Y-15111667D01*
X10527381Y-15311667D02*
X10536905Y-15302143D01*
X10555952Y-15273571D01*
X10565476Y-15254524D01*
X10575000Y-15225952D01*
X10584524Y-15178333D01*
X10584524Y-15140238D01*
X10575000Y-15092619D01*
X10565476Y-15064048D01*
X10555952Y-15045000D01*
X10536905Y-15016428D01*
X10527381Y-15006905D01*
X10889286Y-15311667D02*
X10879762Y-15302143D01*
X10860714Y-15273571D01*
X10851190Y-15254524D01*
X10841667Y-15225952D01*
X10832143Y-15178333D01*
X10832143Y-15140238D01*
X10841667Y-15092619D01*
X10851190Y-15064048D01*
X10860714Y-15045000D01*
X10879762Y-15016428D01*
X10889286Y-15006905D01*
X10965476Y-15102143D02*
X10965476Y-15235476D01*
X10965476Y-15121190D02*
X10975000Y-15111667D01*
X10994048Y-15102143D01*
X11022619Y-15102143D01*
X11041667Y-15111667D01*
X11051190Y-15130714D01*
X11051190Y-15235476D01*
X11175000Y-15235476D02*
X11155952Y-15225952D01*
X11146429Y-15216428D01*
X11136905Y-15197381D01*
X11136905Y-15140238D01*
X11146429Y-15121190D01*
X11155952Y-15111667D01*
X11175000Y-15102143D01*
X11203571Y-15102143D01*
X11222619Y-15111667D01*
X11232143Y-15121190D01*
X11241667Y-15140238D01*
X11241667Y-15197381D01*
X11232143Y-15216428D01*
X11222619Y-15225952D01*
X11203571Y-15235476D01*
X11175000Y-15235476D01*
X11298809Y-15102143D02*
X11375000Y-15102143D01*
X11327381Y-15035476D02*
X11327381Y-15206905D01*
X11336905Y-15225952D01*
X11355952Y-15235476D01*
X11375000Y-15235476D01*
X11594048Y-15102143D02*
X11594048Y-15302143D01*
X11594048Y-15111667D02*
X11613095Y-15102143D01*
X11651190Y-15102143D01*
X11670238Y-15111667D01*
X11679762Y-15121190D01*
X11689286Y-15140238D01*
X11689286Y-15197381D01*
X11679762Y-15216428D01*
X11670238Y-15225952D01*
X11651190Y-15235476D01*
X11613095Y-15235476D01*
X11594048Y-15225952D01*
X11803571Y-15235476D02*
X11784524Y-15225952D01*
X11775000Y-15206905D01*
X11775000Y-15035476D01*
X11965476Y-15235476D02*
X11965476Y-15130714D01*
X11955952Y-15111667D01*
X11936905Y-15102143D01*
X11898809Y-15102143D01*
X11879762Y-15111667D01*
X11965476Y-15225952D02*
X11946428Y-15235476D01*
X11898809Y-15235476D01*
X11879762Y-15225952D01*
X11870238Y-15206905D01*
X11870238Y-15187857D01*
X11879762Y-15168809D01*
X11898809Y-15159286D01*
X11946428Y-15159286D01*
X11965476Y-15149762D01*
X12032143Y-15102143D02*
X12108333Y-15102143D01*
X12060714Y-15035476D02*
X12060714Y-15206905D01*
X12070238Y-15225952D01*
X12089286Y-15235476D01*
X12108333Y-15235476D01*
X12251190Y-15225952D02*
X12232143Y-15235476D01*
X12194048Y-15235476D01*
X12175000Y-15225952D01*
X12165476Y-15206905D01*
X12165476Y-15130714D01*
X12175000Y-15111667D01*
X12194048Y-15102143D01*
X12232143Y-15102143D01*
X12251190Y-15111667D01*
X12260714Y-15130714D01*
X12260714Y-15149762D01*
X12165476Y-15168809D01*
X12432143Y-15235476D02*
X12432143Y-15035476D01*
X12432143Y-15225952D02*
X12413095Y-15235476D01*
X12375000Y-15235476D01*
X12355952Y-15225952D01*
X12346428Y-15216428D01*
X12336905Y-15197381D01*
X12336905Y-15140238D01*
X12346428Y-15121190D01*
X12355952Y-15111667D01*
X12375000Y-15102143D01*
X12413095Y-15102143D01*
X12432143Y-15111667D01*
X12508333Y-15311667D02*
X12517857Y-15302143D01*
X12536905Y-15273571D01*
X12546428Y-15254524D01*
X12555952Y-15225952D01*
X12565476Y-15178333D01*
X12565476Y-15140238D01*
X12555952Y-15092619D01*
X12546428Y-15064048D01*
X12536905Y-15045000D01*
X12517857Y-15016428D01*
X12508333Y-15006905D01*
D14*
X5470000Y-15340000D02*
X5470000Y-15530000D01*
X5375000Y-15435000D02*
X5565000Y-15435000D01*
D11*
X5927381Y-15525476D02*
X5813095Y-15525476D01*
X5870238Y-15525476D02*
X5870238Y-15325476D01*
X5851190Y-15354048D01*
X5832143Y-15373095D01*
X5813095Y-15382619D01*
X6013095Y-15506428D02*
X6022619Y-15515952D01*
X6013095Y-15525476D01*
X6003571Y-15515952D01*
X6013095Y-15506428D01*
X6013095Y-15525476D01*
X6117857Y-15525476D02*
X6155952Y-15525476D01*
X6175000Y-15515952D01*
X6184524Y-15506428D01*
X6203571Y-15477857D01*
X6213095Y-15439762D01*
X6213095Y-15363571D01*
X6203571Y-15344524D01*
X6194048Y-15335000D01*
X6175000Y-15325476D01*
X6136905Y-15325476D01*
X6117857Y-15335000D01*
X6108333Y-15344524D01*
X6098809Y-15363571D01*
X6098809Y-15411190D01*
X6108333Y-15430238D01*
X6117857Y-15439762D01*
X6136905Y-15449286D01*
X6175000Y-15449286D01*
X6194048Y-15439762D01*
X6203571Y-15430238D01*
X6213095Y-15411190D01*
X6336905Y-15325476D02*
X6355952Y-15325476D01*
X6375000Y-15335000D01*
X6384524Y-15344524D01*
X6394048Y-15363571D01*
X6403571Y-15401667D01*
X6403571Y-15449286D01*
X6394048Y-15487381D01*
X6384524Y-15506428D01*
X6375000Y-15515952D01*
X6355952Y-15525476D01*
X6336905Y-15525476D01*
X6317857Y-15515952D01*
X6308333Y-15506428D01*
X6298809Y-15487381D01*
X6289286Y-15449286D01*
X6289286Y-15401667D01*
X6298809Y-15363571D01*
X6308333Y-15344524D01*
X6317857Y-15335000D01*
X6336905Y-15325476D01*
X6527381Y-15325476D02*
X6546428Y-15325476D01*
X6565476Y-15335000D01*
X6575000Y-15344524D01*
X6584524Y-15363571D01*
X6594048Y-15401667D01*
X6594048Y-15449286D01*
X6584524Y-15487381D01*
X6575000Y-15506428D01*
X6565476Y-15515952D01*
X6546428Y-15525476D01*
X6527381Y-15525476D01*
X6508333Y-15515952D01*
X6498809Y-15506428D01*
X6489286Y-15487381D01*
X6479762Y-15449286D01*
X6479762Y-15401667D01*
X6489286Y-15363571D01*
X6498809Y-15344524D01*
X6508333Y-15335000D01*
X6527381Y-15325476D01*
X6679762Y-15525476D02*
X6679762Y-15392143D01*
X6679762Y-15411190D02*
X6689286Y-15401667D01*
X6708333Y-15392143D01*
X6736905Y-15392143D01*
X6755952Y-15401667D01*
X6765476Y-15420714D01*
X6765476Y-15525476D01*
X6765476Y-15420714D02*
X6775000Y-15401667D01*
X6794048Y-15392143D01*
X6822619Y-15392143D01*
X6841667Y-15401667D01*
X6851190Y-15420714D01*
X6851190Y-15525476D01*
X6946428Y-15525476D02*
X6946428Y-15392143D01*
X6946428Y-15411190D02*
X6955952Y-15401667D01*
X6975000Y-15392143D01*
X7003571Y-15392143D01*
X7022619Y-15401667D01*
X7032143Y-15420714D01*
X7032143Y-15525476D01*
X7032143Y-15420714D02*
X7041667Y-15401667D01*
X7060714Y-15392143D01*
X7089286Y-15392143D01*
X7108333Y-15401667D01*
X7117857Y-15420714D01*
X7117857Y-15525476D01*
X7508333Y-15315952D02*
X7336905Y-15573095D01*
X7765476Y-15325476D02*
X7784524Y-15325476D01*
X7803571Y-15335000D01*
X7813095Y-15344524D01*
X7822619Y-15363571D01*
X7832143Y-15401667D01*
X7832143Y-15449286D01*
X7822619Y-15487381D01*
X7813095Y-15506428D01*
X7803571Y-15515952D01*
X7784524Y-15525476D01*
X7765476Y-15525476D01*
X7746428Y-15515952D01*
X7736905Y-15506428D01*
X7727381Y-15487381D01*
X7717857Y-15449286D01*
X7717857Y-15401667D01*
X7727381Y-15363571D01*
X7736905Y-15344524D01*
X7746428Y-15335000D01*
X7765476Y-15325476D01*
X7917857Y-15506428D02*
X7927381Y-15515952D01*
X7917857Y-15525476D01*
X7908333Y-15515952D01*
X7917857Y-15506428D01*
X7917857Y-15525476D01*
X8051190Y-15325476D02*
X8070238Y-15325476D01*
X8089286Y-15335000D01*
X8098809Y-15344524D01*
X8108333Y-15363571D01*
X8117857Y-15401667D01*
X8117857Y-15449286D01*
X8108333Y-15487381D01*
X8098809Y-15506428D01*
X8089286Y-15515952D01*
X8070238Y-15525476D01*
X8051190Y-15525476D01*
X8032143Y-15515952D01*
X8022619Y-15506428D01*
X8013095Y-15487381D01*
X8003571Y-15449286D01*
X8003571Y-15401667D01*
X8013095Y-15363571D01*
X8022619Y-15344524D01*
X8032143Y-15335000D01*
X8051190Y-15325476D01*
X8184524Y-15325476D02*
X8317857Y-15325476D01*
X8232143Y-15525476D01*
X8479762Y-15392143D02*
X8479762Y-15525476D01*
X8432143Y-15315952D02*
X8384524Y-15458809D01*
X8508333Y-15458809D01*
X8613095Y-15411190D02*
X8594048Y-15401667D01*
X8584524Y-15392143D01*
X8575000Y-15373095D01*
X8575000Y-15363571D01*
X8584524Y-15344524D01*
X8594048Y-15335000D01*
X8613095Y-15325476D01*
X8651190Y-15325476D01*
X8670238Y-15335000D01*
X8679762Y-15344524D01*
X8689286Y-15363571D01*
X8689286Y-15373095D01*
X8679762Y-15392143D01*
X8670238Y-15401667D01*
X8651190Y-15411190D01*
X8613095Y-15411190D01*
X8594048Y-15420714D01*
X8584524Y-15430238D01*
X8575000Y-15449286D01*
X8575000Y-15487381D01*
X8584524Y-15506428D01*
X8594048Y-15515952D01*
X8613095Y-15525476D01*
X8651190Y-15525476D01*
X8670238Y-15515952D01*
X8679762Y-15506428D01*
X8689286Y-15487381D01*
X8689286Y-15449286D01*
X8679762Y-15430238D01*
X8670238Y-15420714D01*
X8651190Y-15411190D01*
X8765476Y-15325476D02*
X8765476Y-15363571D01*
X8841667Y-15325476D02*
X8841667Y-15363571D01*
X9136905Y-15601667D02*
X9127381Y-15592143D01*
X9108333Y-15563571D01*
X9098810Y-15544524D01*
X9089286Y-15515952D01*
X9079762Y-15468333D01*
X9079762Y-15430238D01*
X9089286Y-15382619D01*
X9098810Y-15354048D01*
X9108333Y-15335000D01*
X9127381Y-15306428D01*
X9136905Y-15296905D01*
X9298810Y-15325476D02*
X9260714Y-15325476D01*
X9241667Y-15335000D01*
X9232143Y-15344524D01*
X9213095Y-15373095D01*
X9203571Y-15411190D01*
X9203571Y-15487381D01*
X9213095Y-15506428D01*
X9222619Y-15515952D01*
X9241667Y-15525476D01*
X9279762Y-15525476D01*
X9298810Y-15515952D01*
X9308333Y-15506428D01*
X9317857Y-15487381D01*
X9317857Y-15439762D01*
X9308333Y-15420714D01*
X9298810Y-15411190D01*
X9279762Y-15401667D01*
X9241667Y-15401667D01*
X9222619Y-15411190D01*
X9213095Y-15420714D01*
X9203571Y-15439762D01*
X9441667Y-15325476D02*
X9460714Y-15325476D01*
X9479762Y-15335000D01*
X9489286Y-15344524D01*
X9498810Y-15363571D01*
X9508333Y-15401667D01*
X9508333Y-15449286D01*
X9498810Y-15487381D01*
X9489286Y-15506428D01*
X9479762Y-15515952D01*
X9460714Y-15525476D01*
X9441667Y-15525476D01*
X9422619Y-15515952D01*
X9413095Y-15506428D01*
X9403571Y-15487381D01*
X9394048Y-15449286D01*
X9394048Y-15401667D01*
X9403571Y-15363571D01*
X9413095Y-15344524D01*
X9422619Y-15335000D01*
X9441667Y-15325476D01*
X9746429Y-15525476D02*
X9746429Y-15325476D01*
X9832143Y-15525476D02*
X9832143Y-15420714D01*
X9822619Y-15401667D01*
X9803571Y-15392143D01*
X9775000Y-15392143D01*
X9755952Y-15401667D01*
X9746429Y-15411190D01*
X9955952Y-15525476D02*
X9936905Y-15515952D01*
X9927381Y-15506428D01*
X9917857Y-15487381D01*
X9917857Y-15430238D01*
X9927381Y-15411190D01*
X9936905Y-15401667D01*
X9955952Y-15392143D01*
X9984524Y-15392143D01*
X10003571Y-15401667D01*
X10013095Y-15411190D01*
X10022619Y-15430238D01*
X10022619Y-15487381D01*
X10013095Y-15506428D01*
X10003571Y-15515952D01*
X9984524Y-15525476D01*
X9955952Y-15525476D01*
X10136905Y-15525476D02*
X10117857Y-15515952D01*
X10108333Y-15496905D01*
X10108333Y-15325476D01*
X10289286Y-15515952D02*
X10270238Y-15525476D01*
X10232143Y-15525476D01*
X10213095Y-15515952D01*
X10203571Y-15496905D01*
X10203571Y-15420714D01*
X10213095Y-15401667D01*
X10232143Y-15392143D01*
X10270238Y-15392143D01*
X10289286Y-15401667D01*
X10298810Y-15420714D01*
X10298810Y-15439762D01*
X10203571Y-15458809D01*
X10375000Y-15515952D02*
X10394048Y-15525476D01*
X10432143Y-15525476D01*
X10451190Y-15515952D01*
X10460714Y-15496905D01*
X10460714Y-15487381D01*
X10451190Y-15468333D01*
X10432143Y-15458809D01*
X10403571Y-15458809D01*
X10384524Y-15449286D01*
X10375000Y-15430238D01*
X10375000Y-15420714D01*
X10384524Y-15401667D01*
X10403571Y-15392143D01*
X10432143Y-15392143D01*
X10451190Y-15401667D01*
X10527381Y-15601667D02*
X10536905Y-15592143D01*
X10555952Y-15563571D01*
X10565476Y-15544524D01*
X10575000Y-15515952D01*
X10584524Y-15468333D01*
X10584524Y-15430238D01*
X10575000Y-15382619D01*
X10565476Y-15354048D01*
X10555952Y-15335000D01*
X10536905Y-15306428D01*
X10527381Y-15296905D01*
X10889286Y-15601667D02*
X10879762Y-15592143D01*
X10860714Y-15563571D01*
X10851190Y-15544524D01*
X10841667Y-15515952D01*
X10832143Y-15468333D01*
X10832143Y-15430238D01*
X10841667Y-15382619D01*
X10851190Y-15354048D01*
X10860714Y-15335000D01*
X10879762Y-15306428D01*
X10889286Y-15296905D01*
X10965476Y-15392143D02*
X10965476Y-15525476D01*
X10965476Y-15411190D02*
X10975000Y-15401667D01*
X10994048Y-15392143D01*
X11022619Y-15392143D01*
X11041667Y-15401667D01*
X11051190Y-15420714D01*
X11051190Y-15525476D01*
X11175000Y-15525476D02*
X11155952Y-15515952D01*
X11146429Y-15506428D01*
X11136905Y-15487381D01*
X11136905Y-15430238D01*
X11146429Y-15411190D01*
X11155952Y-15401667D01*
X11175000Y-15392143D01*
X11203571Y-15392143D01*
X11222619Y-15401667D01*
X11232143Y-15411190D01*
X11241667Y-15430238D01*
X11241667Y-15487381D01*
X11232143Y-15506428D01*
X11222619Y-15515952D01*
X11203571Y-15525476D01*
X11175000Y-15525476D01*
X11298809Y-15392143D02*
X11375000Y-15392143D01*
X11327381Y-15325476D02*
X11327381Y-15496905D01*
X11336905Y-15515952D01*
X11355952Y-15525476D01*
X11375000Y-15525476D01*
X11594048Y-15392143D02*
X11594048Y-15592143D01*
X11594048Y-15401667D02*
X11613095Y-15392143D01*
X11651190Y-15392143D01*
X11670238Y-15401667D01*
X11679762Y-15411190D01*
X11689286Y-15430238D01*
X11689286Y-15487381D01*
X11679762Y-15506428D01*
X11670238Y-15515952D01*
X11651190Y-15525476D01*
X11613095Y-15525476D01*
X11594048Y-15515952D01*
X11803571Y-15525476D02*
X11784524Y-15515952D01*
X11775000Y-15496905D01*
X11775000Y-15325476D01*
X11965476Y-15525476D02*
X11965476Y-15420714D01*
X11955952Y-15401667D01*
X11936905Y-15392143D01*
X11898809Y-15392143D01*
X11879762Y-15401667D01*
X11965476Y-15515952D02*
X11946428Y-15525476D01*
X11898809Y-15525476D01*
X11879762Y-15515952D01*
X11870238Y-15496905D01*
X11870238Y-15477857D01*
X11879762Y-15458809D01*
X11898809Y-15449286D01*
X11946428Y-15449286D01*
X11965476Y-15439762D01*
X12032143Y-15392143D02*
X12108333Y-15392143D01*
X12060714Y-15325476D02*
X12060714Y-15496905D01*
X12070238Y-15515952D01*
X12089286Y-15525476D01*
X12108333Y-15525476D01*
X12251190Y-15515952D02*
X12232143Y-15525476D01*
X12194048Y-15525476D01*
X12175000Y-15515952D01*
X12165476Y-15496905D01*
X12165476Y-15420714D01*
X12175000Y-15401667D01*
X12194048Y-15392143D01*
X12232143Y-15392143D01*
X12251190Y-15401667D01*
X12260714Y-15420714D01*
X12260714Y-15439762D01*
X12165476Y-15458809D01*
X12432143Y-15525476D02*
X12432143Y-15325476D01*
X12432143Y-15515952D02*
X12413095Y-15525476D01*
X12375000Y-15525476D01*
X12355952Y-15515952D01*
X12346428Y-15506428D01*
X12336905Y-15487381D01*
X12336905Y-15430238D01*
X12346428Y-15411190D01*
X12355952Y-15401667D01*
X12375000Y-15392143D01*
X12413095Y-15392143D01*
X12432143Y-15401667D01*
X12508333Y-15601667D02*
X12517857Y-15592143D01*
X12536905Y-15563571D01*
X12546428Y-15544524D01*
X12555952Y-15515952D01*
X12565476Y-15468333D01*
X12565476Y-15430238D01*
X12555952Y-15382619D01*
X12546428Y-15354048D01*
X12536905Y-15335000D01*
X12517857Y-15306428D01*
X12508333Y-15296905D01*
X5535711Y-15815711D02*
X5535711Y-15674289D01*
X5394289Y-15674289D01*
X5394289Y-15815711D01*
X5535711Y-15815711D01*
X5803571Y-15635476D02*
X5927381Y-15635476D01*
X5860714Y-15711667D01*
X5889286Y-15711667D01*
X5908333Y-15721190D01*
X5917857Y-15730714D01*
X5927381Y-15749762D01*
X5927381Y-15797381D01*
X5917857Y-15816428D01*
X5908333Y-15825952D01*
X5889286Y-15835476D01*
X5832143Y-15835476D01*
X5813095Y-15825952D01*
X5803571Y-15816428D01*
X6013095Y-15816428D02*
X6022619Y-15825952D01*
X6013095Y-15835476D01*
X6003571Y-15825952D01*
X6013095Y-15816428D01*
X6013095Y-15835476D01*
X6146428Y-15635476D02*
X6165476Y-15635476D01*
X6184524Y-15645000D01*
X6194048Y-15654524D01*
X6203571Y-15673571D01*
X6213095Y-15711667D01*
X6213095Y-15759286D01*
X6203571Y-15797381D01*
X6194048Y-15816428D01*
X6184524Y-15825952D01*
X6165476Y-15835476D01*
X6146428Y-15835476D01*
X6127381Y-15825952D01*
X6117857Y-15816428D01*
X6108333Y-15797381D01*
X6098809Y-15759286D01*
X6098809Y-15711667D01*
X6108333Y-15673571D01*
X6117857Y-15654524D01*
X6127381Y-15645000D01*
X6146428Y-15635476D01*
X6336905Y-15635476D02*
X6355952Y-15635476D01*
X6375000Y-15645000D01*
X6384524Y-15654524D01*
X6394048Y-15673571D01*
X6403571Y-15711667D01*
X6403571Y-15759286D01*
X6394048Y-15797381D01*
X6384524Y-15816428D01*
X6375000Y-15825952D01*
X6355952Y-15835476D01*
X6336905Y-15835476D01*
X6317857Y-15825952D01*
X6308333Y-15816428D01*
X6298809Y-15797381D01*
X6289286Y-15759286D01*
X6289286Y-15711667D01*
X6298809Y-15673571D01*
X6308333Y-15654524D01*
X6317857Y-15645000D01*
X6336905Y-15635476D01*
X6527381Y-15635476D02*
X6546428Y-15635476D01*
X6565476Y-15645000D01*
X6575000Y-15654524D01*
X6584524Y-15673571D01*
X6594048Y-15711667D01*
X6594048Y-15759286D01*
X6584524Y-15797381D01*
X6575000Y-15816428D01*
X6565476Y-15825952D01*
X6546428Y-15835476D01*
X6527381Y-15835476D01*
X6508333Y-15825952D01*
X6498809Y-15816428D01*
X6489286Y-15797381D01*
X6479762Y-15759286D01*
X6479762Y-15711667D01*
X6489286Y-15673571D01*
X6498809Y-15654524D01*
X6508333Y-15645000D01*
X6527381Y-15635476D01*
X6679762Y-15835476D02*
X6679762Y-15702143D01*
X6679762Y-15721190D02*
X6689286Y-15711667D01*
X6708333Y-15702143D01*
X6736905Y-15702143D01*
X6755952Y-15711667D01*
X6765476Y-15730714D01*
X6765476Y-15835476D01*
X6765476Y-15730714D02*
X6775000Y-15711667D01*
X6794048Y-15702143D01*
X6822619Y-15702143D01*
X6841667Y-15711667D01*
X6851190Y-15730714D01*
X6851190Y-15835476D01*
X6946428Y-15835476D02*
X6946428Y-15702143D01*
X6946428Y-15721190D02*
X6955952Y-15711667D01*
X6975000Y-15702143D01*
X7003571Y-15702143D01*
X7022619Y-15711667D01*
X7032143Y-15730714D01*
X7032143Y-15835476D01*
X7032143Y-15730714D02*
X7041667Y-15711667D01*
X7060714Y-15702143D01*
X7089286Y-15702143D01*
X7108333Y-15711667D01*
X7117857Y-15730714D01*
X7117857Y-15835476D01*
X7508333Y-15625952D02*
X7336905Y-15883095D01*
X7765476Y-15635476D02*
X7784524Y-15635476D01*
X7803571Y-15645000D01*
X7813095Y-15654524D01*
X7822619Y-15673571D01*
X7832143Y-15711667D01*
X7832143Y-15759286D01*
X7822619Y-15797381D01*
X7813095Y-15816428D01*
X7803571Y-15825952D01*
X7784524Y-15835476D01*
X7765476Y-15835476D01*
X7746428Y-15825952D01*
X7736905Y-15816428D01*
X7727381Y-15797381D01*
X7717857Y-15759286D01*
X7717857Y-15711667D01*
X7727381Y-15673571D01*
X7736905Y-15654524D01*
X7746428Y-15645000D01*
X7765476Y-15635476D01*
X7917857Y-15816428D02*
X7927381Y-15825952D01*
X7917857Y-15835476D01*
X7908333Y-15825952D01*
X7917857Y-15816428D01*
X7917857Y-15835476D01*
X8117857Y-15835476D02*
X8003571Y-15835476D01*
X8060714Y-15835476D02*
X8060714Y-15635476D01*
X8041667Y-15664048D01*
X8022619Y-15683095D01*
X8003571Y-15692619D01*
X8308333Y-15835476D02*
X8194048Y-15835476D01*
X8251190Y-15835476D02*
X8251190Y-15635476D01*
X8232143Y-15664048D01*
X8213095Y-15683095D01*
X8194048Y-15692619D01*
X8422619Y-15721190D02*
X8403571Y-15711667D01*
X8394048Y-15702143D01*
X8384524Y-15683095D01*
X8384524Y-15673571D01*
X8394048Y-15654524D01*
X8403571Y-15645000D01*
X8422619Y-15635476D01*
X8460714Y-15635476D01*
X8479762Y-15645000D01*
X8489286Y-15654524D01*
X8498810Y-15673571D01*
X8498810Y-15683095D01*
X8489286Y-15702143D01*
X8479762Y-15711667D01*
X8460714Y-15721190D01*
X8422619Y-15721190D01*
X8403571Y-15730714D01*
X8394048Y-15740238D01*
X8384524Y-15759286D01*
X8384524Y-15797381D01*
X8394048Y-15816428D01*
X8403571Y-15825952D01*
X8422619Y-15835476D01*
X8460714Y-15835476D01*
X8479762Y-15825952D01*
X8489286Y-15816428D01*
X8498810Y-15797381D01*
X8498810Y-15759286D01*
X8489286Y-15740238D01*
X8479762Y-15730714D01*
X8460714Y-15721190D01*
X8689286Y-15835476D02*
X8575000Y-15835476D01*
X8632143Y-15835476D02*
X8632143Y-15635476D01*
X8613095Y-15664048D01*
X8594048Y-15683095D01*
X8575000Y-15692619D01*
X8765476Y-15635476D02*
X8765476Y-15673571D01*
X8841667Y-15635476D02*
X8841667Y-15673571D01*
X9136905Y-15911667D02*
X9127381Y-15902143D01*
X9108333Y-15873571D01*
X9098810Y-15854524D01*
X9089286Y-15825952D01*
X9079762Y-15778333D01*
X9079762Y-15740238D01*
X9089286Y-15692619D01*
X9098810Y-15664048D01*
X9108333Y-15645000D01*
X9127381Y-15616428D01*
X9136905Y-15606905D01*
X9317857Y-15835476D02*
X9203571Y-15835476D01*
X9260714Y-15835476D02*
X9260714Y-15635476D01*
X9241667Y-15664048D01*
X9222619Y-15683095D01*
X9203571Y-15692619D01*
X9394048Y-15654524D02*
X9403571Y-15645000D01*
X9422619Y-15635476D01*
X9470238Y-15635476D01*
X9489286Y-15645000D01*
X9498810Y-15654524D01*
X9508333Y-15673571D01*
X9508333Y-15692619D01*
X9498810Y-15721190D01*
X9384524Y-15835476D01*
X9508333Y-15835476D01*
X9632143Y-15635476D02*
X9651190Y-15635476D01*
X9670238Y-15645000D01*
X9679762Y-15654524D01*
X9689286Y-15673571D01*
X9698810Y-15711667D01*
X9698810Y-15759286D01*
X9689286Y-15797381D01*
X9679762Y-15816428D01*
X9670238Y-15825952D01*
X9651190Y-15835476D01*
X9632143Y-15835476D01*
X9613095Y-15825952D01*
X9603571Y-15816428D01*
X9594048Y-15797381D01*
X9584524Y-15759286D01*
X9584524Y-15711667D01*
X9594048Y-15673571D01*
X9603571Y-15654524D01*
X9613095Y-15645000D01*
X9632143Y-15635476D01*
X9936905Y-15835476D02*
X9936905Y-15635476D01*
X10022619Y-15835476D02*
X10022619Y-15730714D01*
X10013095Y-15711667D01*
X9994048Y-15702143D01*
X9965476Y-15702143D01*
X9946429Y-15711667D01*
X9936905Y-15721190D01*
X10146429Y-15835476D02*
X10127381Y-15825952D01*
X10117857Y-15816428D01*
X10108333Y-15797381D01*
X10108333Y-15740238D01*
X10117857Y-15721190D01*
X10127381Y-15711667D01*
X10146429Y-15702143D01*
X10175000Y-15702143D01*
X10194048Y-15711667D01*
X10203571Y-15721190D01*
X10213095Y-15740238D01*
X10213095Y-15797381D01*
X10203571Y-15816428D01*
X10194048Y-15825952D01*
X10175000Y-15835476D01*
X10146429Y-15835476D01*
X10327381Y-15835476D02*
X10308333Y-15825952D01*
X10298810Y-15806905D01*
X10298810Y-15635476D01*
X10479762Y-15825952D02*
X10460714Y-15835476D01*
X10422619Y-15835476D01*
X10403571Y-15825952D01*
X10394048Y-15806905D01*
X10394048Y-15730714D01*
X10403571Y-15711667D01*
X10422619Y-15702143D01*
X10460714Y-15702143D01*
X10479762Y-15711667D01*
X10489286Y-15730714D01*
X10489286Y-15749762D01*
X10394048Y-15768809D01*
X10565476Y-15825952D02*
X10584524Y-15835476D01*
X10622619Y-15835476D01*
X10641667Y-15825952D01*
X10651190Y-15806905D01*
X10651190Y-15797381D01*
X10641667Y-15778333D01*
X10622619Y-15768809D01*
X10594048Y-15768809D01*
X10575000Y-15759286D01*
X10565476Y-15740238D01*
X10565476Y-15730714D01*
X10575000Y-15711667D01*
X10594048Y-15702143D01*
X10622619Y-15702143D01*
X10641667Y-15711667D01*
X10717857Y-15911667D02*
X10727381Y-15902143D01*
X10746429Y-15873571D01*
X10755952Y-15854524D01*
X10765476Y-15825952D01*
X10775000Y-15778333D01*
X10775000Y-15740238D01*
X10765476Y-15692619D01*
X10755952Y-15664048D01*
X10746429Y-15645000D01*
X10727381Y-15616428D01*
X10717857Y-15606905D01*
X11079762Y-15911667D02*
X11070238Y-15902143D01*
X11051190Y-15873571D01*
X11041667Y-15854524D01*
X11032143Y-15825952D01*
X11022619Y-15778333D01*
X11022619Y-15740238D01*
X11032143Y-15692619D01*
X11041667Y-15664048D01*
X11051190Y-15645000D01*
X11070238Y-15616428D01*
X11079762Y-15606905D01*
X11155952Y-15702143D02*
X11155952Y-15835476D01*
X11155952Y-15721190D02*
X11165476Y-15711667D01*
X11184524Y-15702143D01*
X11213095Y-15702143D01*
X11232143Y-15711667D01*
X11241667Y-15730714D01*
X11241667Y-15835476D01*
X11365476Y-15835476D02*
X11346428Y-15825952D01*
X11336905Y-15816428D01*
X11327381Y-15797381D01*
X11327381Y-15740238D01*
X11336905Y-15721190D01*
X11346428Y-15711667D01*
X11365476Y-15702143D01*
X11394048Y-15702143D01*
X11413095Y-15711667D01*
X11422619Y-15721190D01*
X11432143Y-15740238D01*
X11432143Y-15797381D01*
X11422619Y-15816428D01*
X11413095Y-15825952D01*
X11394048Y-15835476D01*
X11365476Y-15835476D01*
X11489286Y-15702143D02*
X11565476Y-15702143D01*
X11517857Y-15635476D02*
X11517857Y-15806905D01*
X11527381Y-15825952D01*
X11546428Y-15835476D01*
X11565476Y-15835476D01*
X11784524Y-15702143D02*
X11784524Y-15902143D01*
X11784524Y-15711667D02*
X11803571Y-15702143D01*
X11841667Y-15702143D01*
X11860714Y-15711667D01*
X11870238Y-15721190D01*
X11879762Y-15740238D01*
X11879762Y-15797381D01*
X11870238Y-15816428D01*
X11860714Y-15825952D01*
X11841667Y-15835476D01*
X11803571Y-15835476D01*
X11784524Y-15825952D01*
X11994048Y-15835476D02*
X11975000Y-15825952D01*
X11965476Y-15806905D01*
X11965476Y-15635476D01*
X12155952Y-15835476D02*
X12155952Y-15730714D01*
X12146428Y-15711667D01*
X12127381Y-15702143D01*
X12089286Y-15702143D01*
X12070238Y-15711667D01*
X12155952Y-15825952D02*
X12136905Y-15835476D01*
X12089286Y-15835476D01*
X12070238Y-15825952D01*
X12060714Y-15806905D01*
X12060714Y-15787857D01*
X12070238Y-15768809D01*
X12089286Y-15759286D01*
X12136905Y-15759286D01*
X12155952Y-15749762D01*
X12222619Y-15702143D02*
X12298809Y-15702143D01*
X12251190Y-15635476D02*
X12251190Y-15806905D01*
X12260714Y-15825952D01*
X12279762Y-15835476D01*
X12298809Y-15835476D01*
X12441667Y-15825952D02*
X12422619Y-15835476D01*
X12384524Y-15835476D01*
X12365476Y-15825952D01*
X12355952Y-15806905D01*
X12355952Y-15730714D01*
X12365476Y-15711667D01*
X12384524Y-15702143D01*
X12422619Y-15702143D01*
X12441667Y-15711667D01*
X12451190Y-15730714D01*
X12451190Y-15749762D01*
X12355952Y-15768809D01*
X12622619Y-15835476D02*
X12622619Y-15635476D01*
X12622619Y-15825952D02*
X12603571Y-15835476D01*
X12565476Y-15835476D01*
X12546428Y-15825952D01*
X12536905Y-15816428D01*
X12527381Y-15797381D01*
X12527381Y-15740238D01*
X12536905Y-15721190D01*
X12546428Y-15711667D01*
X12565476Y-15702143D01*
X12603571Y-15702143D01*
X12622619Y-15711667D01*
X12698809Y-15911667D02*
X12708333Y-15902143D01*
X12727381Y-15873571D01*
X12736905Y-15854524D01*
X12746428Y-15825952D01*
X12755952Y-15778333D01*
X12755952Y-15740238D01*
X12746428Y-15692619D01*
X12736905Y-15664048D01*
X12727381Y-15645000D01*
X12708333Y-15616428D01*
X12698809Y-15606905D01*
X5465000Y-16165000D02*
X5565000Y-16065000D01*
X5465000Y-15965000D01*
X5365000Y-16065000D01*
X5465000Y-16165000D01*
X5908333Y-16022143D02*
X5908333Y-16155476D01*
X5860714Y-15945952D02*
X5813095Y-16088809D01*
X5936905Y-16088809D01*
X6013095Y-16136428D02*
X6022619Y-16145952D01*
X6013095Y-16155476D01*
X6003571Y-16145952D01*
X6013095Y-16136428D01*
X6013095Y-16155476D01*
X6213095Y-16155476D02*
X6098809Y-16155476D01*
X6155952Y-16155476D02*
X6155952Y-15955476D01*
X6136905Y-15984048D01*
X6117857Y-16003095D01*
X6098809Y-16012619D01*
X6336905Y-15955476D02*
X6355952Y-15955476D01*
X6375000Y-15965000D01*
X6384524Y-15974524D01*
X6394048Y-15993571D01*
X6403571Y-16031667D01*
X6403571Y-16079286D01*
X6394048Y-16117381D01*
X6384524Y-16136428D01*
X6375000Y-16145952D01*
X6355952Y-16155476D01*
X6336905Y-16155476D01*
X6317857Y-16145952D01*
X6308333Y-16136428D01*
X6298809Y-16117381D01*
X6289286Y-16079286D01*
X6289286Y-16031667D01*
X6298809Y-15993571D01*
X6308333Y-15974524D01*
X6317857Y-15965000D01*
X6336905Y-15955476D01*
X6527381Y-15955476D02*
X6546428Y-15955476D01*
X6565476Y-15965000D01*
X6575000Y-15974524D01*
X6584524Y-15993571D01*
X6594048Y-16031667D01*
X6594048Y-16079286D01*
X6584524Y-16117381D01*
X6575000Y-16136428D01*
X6565476Y-16145952D01*
X6546428Y-16155476D01*
X6527381Y-16155476D01*
X6508333Y-16145952D01*
X6498809Y-16136428D01*
X6489286Y-16117381D01*
X6479762Y-16079286D01*
X6479762Y-16031667D01*
X6489286Y-15993571D01*
X6498809Y-15974524D01*
X6508333Y-15965000D01*
X6527381Y-15955476D01*
X6679762Y-16155476D02*
X6679762Y-16022143D01*
X6679762Y-16041190D02*
X6689286Y-16031667D01*
X6708333Y-16022143D01*
X6736905Y-16022143D01*
X6755952Y-16031667D01*
X6765476Y-16050714D01*
X6765476Y-16155476D01*
X6765476Y-16050714D02*
X6775000Y-16031667D01*
X6794048Y-16022143D01*
X6822619Y-16022143D01*
X6841667Y-16031667D01*
X6851190Y-16050714D01*
X6851190Y-16155476D01*
X6946428Y-16155476D02*
X6946428Y-16022143D01*
X6946428Y-16041190D02*
X6955952Y-16031667D01*
X6975000Y-16022143D01*
X7003571Y-16022143D01*
X7022619Y-16031667D01*
X7032143Y-16050714D01*
X7032143Y-16155476D01*
X7032143Y-16050714D02*
X7041667Y-16031667D01*
X7060714Y-16022143D01*
X7089286Y-16022143D01*
X7108333Y-16031667D01*
X7117857Y-16050714D01*
X7117857Y-16155476D01*
X7508333Y-15945952D02*
X7336905Y-16203095D01*
X7765476Y-15955476D02*
X7784524Y-15955476D01*
X7803571Y-15965000D01*
X7813095Y-15974524D01*
X7822619Y-15993571D01*
X7832143Y-16031667D01*
X7832143Y-16079286D01*
X7822619Y-16117381D01*
X7813095Y-16136428D01*
X7803571Y-16145952D01*
X7784524Y-16155476D01*
X7765476Y-16155476D01*
X7746428Y-16145952D01*
X7736905Y-16136428D01*
X7727381Y-16117381D01*
X7717857Y-16079286D01*
X7717857Y-16031667D01*
X7727381Y-15993571D01*
X7736905Y-15974524D01*
X7746428Y-15965000D01*
X7765476Y-15955476D01*
X7917857Y-16136428D02*
X7927381Y-16145952D01*
X7917857Y-16155476D01*
X7908333Y-16145952D01*
X7917857Y-16136428D01*
X7917857Y-16155476D01*
X8117857Y-16155476D02*
X8003571Y-16155476D01*
X8060714Y-16155476D02*
X8060714Y-15955476D01*
X8041667Y-15984048D01*
X8022619Y-16003095D01*
X8003571Y-16012619D01*
X8289286Y-15955476D02*
X8251190Y-15955476D01*
X8232143Y-15965000D01*
X8222619Y-15974524D01*
X8203571Y-16003095D01*
X8194048Y-16041190D01*
X8194048Y-16117381D01*
X8203571Y-16136428D01*
X8213095Y-16145952D01*
X8232143Y-16155476D01*
X8270238Y-16155476D01*
X8289286Y-16145952D01*
X8298809Y-16136428D01*
X8308333Y-16117381D01*
X8308333Y-16069762D01*
X8298809Y-16050714D01*
X8289286Y-16041190D01*
X8270238Y-16031667D01*
X8232143Y-16031667D01*
X8213095Y-16041190D01*
X8203571Y-16050714D01*
X8194048Y-16069762D01*
X8498810Y-16155476D02*
X8384524Y-16155476D01*
X8441667Y-16155476D02*
X8441667Y-15955476D01*
X8422619Y-15984048D01*
X8403571Y-16003095D01*
X8384524Y-16012619D01*
X8670238Y-16022143D02*
X8670238Y-16155476D01*
X8622619Y-15945952D02*
X8575000Y-16088809D01*
X8698810Y-16088809D01*
X8765476Y-15955476D02*
X8765476Y-15993571D01*
X8841667Y-15955476D02*
X8841667Y-15993571D01*
X9136905Y-16231667D02*
X9127381Y-16222143D01*
X9108333Y-16193571D01*
X9098810Y-16174524D01*
X9089286Y-16145952D01*
X9079762Y-16098333D01*
X9079762Y-16060238D01*
X9089286Y-16012619D01*
X9098810Y-15984048D01*
X9108333Y-15965000D01*
X9127381Y-15936428D01*
X9136905Y-15926905D01*
X9194048Y-15955476D02*
X9317857Y-15955476D01*
X9251190Y-16031667D01*
X9279762Y-16031667D01*
X9298810Y-16041190D01*
X9308333Y-16050714D01*
X9317857Y-16069762D01*
X9317857Y-16117381D01*
X9308333Y-16136428D01*
X9298810Y-16145952D01*
X9279762Y-16155476D01*
X9222619Y-16155476D01*
X9203571Y-16145952D01*
X9194048Y-16136428D01*
X9441667Y-15955476D02*
X9460714Y-15955476D01*
X9479762Y-15965000D01*
X9489286Y-15974524D01*
X9498810Y-15993571D01*
X9508333Y-16031667D01*
X9508333Y-16079286D01*
X9498810Y-16117381D01*
X9489286Y-16136428D01*
X9479762Y-16145952D01*
X9460714Y-16155476D01*
X9441667Y-16155476D01*
X9422619Y-16145952D01*
X9413095Y-16136428D01*
X9403571Y-16117381D01*
X9394048Y-16079286D01*
X9394048Y-16031667D01*
X9403571Y-15993571D01*
X9413095Y-15974524D01*
X9422619Y-15965000D01*
X9441667Y-15955476D01*
X9746429Y-16155476D02*
X9746429Y-15955476D01*
X9832143Y-16155476D02*
X9832143Y-16050714D01*
X9822619Y-16031667D01*
X9803571Y-16022143D01*
X9775000Y-16022143D01*
X9755952Y-16031667D01*
X9746429Y-16041190D01*
X9955952Y-16155476D02*
X9936905Y-16145952D01*
X9927381Y-16136428D01*
X9917857Y-16117381D01*
X9917857Y-16060238D01*
X9927381Y-16041190D01*
X9936905Y-16031667D01*
X9955952Y-16022143D01*
X9984524Y-16022143D01*
X10003571Y-16031667D01*
X10013095Y-16041190D01*
X10022619Y-16060238D01*
X10022619Y-16117381D01*
X10013095Y-16136428D01*
X10003571Y-16145952D01*
X9984524Y-16155476D01*
X9955952Y-16155476D01*
X10136905Y-16155476D02*
X10117857Y-16145952D01*
X10108333Y-16126905D01*
X10108333Y-15955476D01*
X10289286Y-16145952D02*
X10270238Y-16155476D01*
X10232143Y-16155476D01*
X10213095Y-16145952D01*
X10203571Y-16126905D01*
X10203571Y-16050714D01*
X10213095Y-16031667D01*
X10232143Y-16022143D01*
X10270238Y-16022143D01*
X10289286Y-16031667D01*
X10298810Y-16050714D01*
X10298810Y-16069762D01*
X10203571Y-16088809D01*
X10375000Y-16145952D02*
X10394048Y-16155476D01*
X10432143Y-16155476D01*
X10451190Y-16145952D01*
X10460714Y-16126905D01*
X10460714Y-16117381D01*
X10451190Y-16098333D01*
X10432143Y-16088809D01*
X10403571Y-16088809D01*
X10384524Y-16079286D01*
X10375000Y-16060238D01*
X10375000Y-16050714D01*
X10384524Y-16031667D01*
X10403571Y-16022143D01*
X10432143Y-16022143D01*
X10451190Y-16031667D01*
X10527381Y-16231667D02*
X10536905Y-16222143D01*
X10555952Y-16193571D01*
X10565476Y-16174524D01*
X10575000Y-16145952D01*
X10584524Y-16098333D01*
X10584524Y-16060238D01*
X10575000Y-16012619D01*
X10565476Y-15984048D01*
X10555952Y-15965000D01*
X10536905Y-15936428D01*
X10527381Y-15926905D01*
X10889286Y-16231667D02*
X10879762Y-16222143D01*
X10860714Y-16193571D01*
X10851190Y-16174524D01*
X10841667Y-16145952D01*
X10832143Y-16098333D01*
X10832143Y-16060238D01*
X10841667Y-16012619D01*
X10851190Y-15984048D01*
X10860714Y-15965000D01*
X10879762Y-15936428D01*
X10889286Y-15926905D01*
X10965476Y-16022143D02*
X10965476Y-16155476D01*
X10965476Y-16041190D02*
X10975000Y-16031667D01*
X10994048Y-16022143D01*
X11022619Y-16022143D01*
X11041667Y-16031667D01*
X11051190Y-16050714D01*
X11051190Y-16155476D01*
X11175000Y-16155476D02*
X11155952Y-16145952D01*
X11146429Y-16136428D01*
X11136905Y-16117381D01*
X11136905Y-16060238D01*
X11146429Y-16041190D01*
X11155952Y-16031667D01*
X11175000Y-16022143D01*
X11203571Y-16022143D01*
X11222619Y-16031667D01*
X11232143Y-16041190D01*
X11241667Y-16060238D01*
X11241667Y-16117381D01*
X11232143Y-16136428D01*
X11222619Y-16145952D01*
X11203571Y-16155476D01*
X11175000Y-16155476D01*
X11298809Y-16022143D02*
X11375000Y-16022143D01*
X11327381Y-15955476D02*
X11327381Y-16126905D01*
X11336905Y-16145952D01*
X11355952Y-16155476D01*
X11375000Y-16155476D01*
X11594048Y-16022143D02*
X11594048Y-16222143D01*
X11594048Y-16031667D02*
X11613095Y-16022143D01*
X11651190Y-16022143D01*
X11670238Y-16031667D01*
X11679762Y-16041190D01*
X11689286Y-16060238D01*
X11689286Y-16117381D01*
X11679762Y-16136428D01*
X11670238Y-16145952D01*
X11651190Y-16155476D01*
X11613095Y-16155476D01*
X11594048Y-16145952D01*
X11803571Y-16155476D02*
X11784524Y-16145952D01*
X11775000Y-16126905D01*
X11775000Y-15955476D01*
X11965476Y-16155476D02*
X11965476Y-16050714D01*
X11955952Y-16031667D01*
X11936905Y-16022143D01*
X11898809Y-16022143D01*
X11879762Y-16031667D01*
X11965476Y-16145952D02*
X11946428Y-16155476D01*
X11898809Y-16155476D01*
X11879762Y-16145952D01*
X11870238Y-16126905D01*
X11870238Y-16107857D01*
X11879762Y-16088809D01*
X11898809Y-16079286D01*
X11946428Y-16079286D01*
X11965476Y-16069762D01*
X12032143Y-16022143D02*
X12108333Y-16022143D01*
X12060714Y-15955476D02*
X12060714Y-16126905D01*
X12070238Y-16145952D01*
X12089286Y-16155476D01*
X12108333Y-16155476D01*
X12251190Y-16145952D02*
X12232143Y-16155476D01*
X12194048Y-16155476D01*
X12175000Y-16145952D01*
X12165476Y-16126905D01*
X12165476Y-16050714D01*
X12175000Y-16031667D01*
X12194048Y-16022143D01*
X12232143Y-16022143D01*
X12251190Y-16031667D01*
X12260714Y-16050714D01*
X12260714Y-16069762D01*
X12165476Y-16088809D01*
X12432143Y-16155476D02*
X12432143Y-15955476D01*
X12432143Y-16145952D02*
X12413095Y-16155476D01*
X12375000Y-16155476D01*
X12355952Y-16145952D01*
X12346428Y-16136428D01*
X12336905Y-16117381D01*
X12336905Y-16060238D01*
X12346428Y-16041190D01*
X12355952Y-16031667D01*
X12375000Y-16022143D01*
X12413095Y-16022143D01*
X12432143Y-16031667D01*
X12508333Y-16231667D02*
X12517857Y-16222143D01*
X12536905Y-16193571D01*
X12546428Y-16174524D01*
X12555952Y-16145952D01*
X12565476Y-16098333D01*
X12565476Y-16060238D01*
X12555952Y-16012619D01*
X12546428Y-15984048D01*
X12536905Y-15965000D01*
X12517857Y-15936428D01*
X12508333Y-15926905D01*
M02*
