M48
; DRILL file {KiCad (6.0.7)} date 2022年08月16日 星期二 06时32分26秒
; FORMAT={-:-/ absolute / metric / decimal}
; #@! TF.CreationDate,2022-08-16T06:32:26+00:00
; #@! TF.GenerationSoftware,Kicad,Pcbnew,(6.0.7)
; #@! TF.FileFunction,Plated,1,2,PTH
FMAT,2
METRIC
; #@! TA.AperFunction,Plated,PTH,ViaDrill
T1C0.100
; #@! TA.AperFunction,Plated,PTH,ViaDrill
T2C0.200
; #@! TA.AperFunction,Plated,PTH,ViaDrill
T3C0.400
; #@! TA.AperFunction,Plated,PTH,ComponentDrill
T4C0.600
; #@! TA.AperFunction,Plated,PTH,ComponentDrill
T5C0.813
; #@! TA.AperFunction,Plated,PTH,ComponentDrill
T6C1.000
; #@! TA.AperFunction,Plated,PTH,ComponentDrill
T7C1.092
; #@! TA.AperFunction,Plated,PTH,ComponentDrill
T8C1.300
; #@! TA.AperFunction,Plated,PTH,ComponentDrill
T9C4.100
%
G90
G05
T1
X63.05Y-48.44
X68.81Y-123.68
X76.51Y-126.12
X76.94Y-66.22
X82.35Y-49.15
X85.53Y-63.15
X89.21Y-124.15
X90.61Y-49.78
X91.96Y-124.53
X92.07Y-67.95
X93.27Y-73.35
X93.76Y-70.638
X93.83Y-129.05
X96.97Y-87.05
X97.32Y-102.54
X97.74Y-90.33
X98.45Y-123.51
X98.59Y-105.13
X98.95Y-65.68
X100.17Y-68.98
X101.51Y-52.03
X101.72Y-49.32
X102.121Y-84.07
X103.04Y-74.87
X104.93Y-87.85
X106.23Y-106.23
X109.5Y-51.29
X112.36Y-66.09
X115.05Y-64.21
X116.99Y-71.98
X120.09Y-64.51
X121.0Y-72.04
X121.84Y-122.8
X122.0Y-47.102
X123.39Y-103.58
X124.93Y-125.23
X126.54Y-104.56
X130.42Y-67.88
X131.48Y-71.07
X132.64Y-61.99
X133.0Y-84.25
X134.391Y-52.731
X135.13Y-87.51
X135.68Y-90.31
X138.2Y-68.74
X138.76Y-48.39
X139.038Y-106.26
X142.38Y-102.36
X142.83Y-87.98
X144.49Y-105.82
X146.84Y-125.06
X146.87Y-130.53
X152.42Y-107.79
X157.77Y-124.19
X160.57Y-124.52
X162.39Y-121.03
X162.97Y-101.23
X164.82Y-104.1
X167.83Y-47.74
X168.01Y-68.81
X168.62Y-71.19
X170.69Y-85.04
X173.29Y-47.59
X174.92Y-63.13
X177.68Y-49.52
X177.76Y-68.98
X181.79Y-85.19
X182.42Y-106.03
X185.59Y-89.11
X191.46Y-107.26
X198.79Y-119.7
X208.91Y-121.04
X209.95Y-53.63
T2
X61.03Y-51.38
X62.52Y-76.71
X63.15Y-74.26
X64.16Y-97.93
X65.195Y-92.13
X65.38Y-130.47
X66.89Y-64.04
X67.01Y-62.63
X69.95Y-107.28
X70.14Y-113.43
X70.56Y-52.81
X76.98Y-53.65
X79.04Y-59.56
X80.14Y-51.22
X81.55Y-136.1
X81.63Y-125.27
X82.22Y-82.26
X83.09Y-53.28
X83.34Y-82.36
X86.62Y-71.33
X87.918Y-109.68
X89.41Y-73.51
X90.04Y-110.31
X90.13Y-80.94
X91.9Y-86.02
X92.31Y-91.52
X93.97Y-130.2
X95.891Y-102.424
X98.15Y-55.59
X99.78Y-64.94
X100.4Y-117.98
X100.61Y-110.93
X103.77Y-72.47
X108.86Y-72.76
X109.55Y-70.47
X111.945Y-133.225
X112.15Y-84.16
X113.13Y-91.63
X113.57Y-89.39
X113.69Y-88.62
X116.06Y-103.12
X116.32Y-63.13
X116.51Y-48.78
X116.55Y-55.6
X116.86Y-110.07
X118.71Y-47.06
X119.29Y-119.25
X120.59Y-131.93
X122.48Y-118.96
X123.47Y-111.05
X124.81Y-85.38
X128.12Y-72.55
X128.78Y-84.69
X128.84Y-69.87
X129.45Y-89.9
X130.4Y-91.59
X131.5Y-110.39
X132.4Y-65.19
X132.93Y-103.18
X135.55Y-102.53
X135.55Y-110.7
X136.21Y-55.79
X138.68Y-123.31
X141.22Y-111.78
X141.93Y-120.22
X142.61Y-108.64
X145.33Y-74.69
X146.73Y-70.94
X148.615Y-64.254
X149.839Y-94.15
X151.01Y-84.59
X151.36Y-91.7
X151.66Y-99.97
X154.29Y-91.25
X154.8Y-63.02
X155.31Y-72.27
X155.39Y-55.83
X156.5Y-131.68
X158.94Y-129.81
X159.77Y-72.43
X159.9Y-118.24
X160.01Y-113.03
X160.9Y-127.97
X161.17Y-64.22
X161.45Y-91.16
X161.88Y-108.61
X164.4Y-52.99
X164.93Y-74.5
X167.33Y-82.02
X168.0Y-84.2
X168.47Y-93.74
X169.46Y-110.49
X169.536Y-54.854
X170.48Y-91.27
X171.52Y-100.1
X172.28Y-130.4
X174.49Y-54.09
X174.71Y-111.46
X178.0Y-105.54
X180.07Y-111.21
X180.21Y-121.65
X180.58Y-109.3
X184.714Y-72.306
X185.19Y-132.15
X191.51Y-81.51
X194.6Y-118.79
X194.66Y-127.63
X194.71Y-81.95
X195.087Y-71.635
X195.47Y-81.85
X197.7Y-82.56
X199.17Y-84.54
X199.84Y-71.08
X203.93Y-68.48
X204.08Y-129.08
X204.33Y-72.36
X204.95Y-69.12
X205.41Y-65.11
X207.07Y-62.77
X208.06Y-88.02
X208.715Y-101.716
X209.085Y-103.24
X210.771Y-87.875
X211.52Y-85.22
T3
X66.82Y-66.46
X82.26Y-101.63
X83.46Y-64.04
X84.25Y-85.8
X84.54Y-107.26
X89.41Y-121.06
X93.07Y-48.19
X93.13Y-101.51
X97.48Y-122.01
X104.87Y-83.13
X106.08Y-67.95
X110.81Y-48.69
X116.08Y-120.97
X121.045Y-106.395
X123.715Y-83.052
X124.64Y-68.32
X129.67Y-45.8
X133.65Y-62.56
X134.725Y-124.925
X142.91Y-104.81
X143.285Y-123.045
X143.34Y-84.82
X145.03Y-67.68
X150.78Y-48.66
X153.69Y-61.77
X157.87Y-122.28
X160.32Y-83.32
X161.88Y-105.12
X163.17Y-67.33
X169.43Y-48.61
X169.95Y-124.07
X171.82Y-63.59
X177.845Y-67.735
X182.655Y-83.285
X188.54Y-47.21
X200.78Y-45.0
X201.22Y-112.84
X205.5Y-122.61
X206.51Y-47.43
X209.94Y-58.29
X211.25Y-78.59
T4
X204.075Y-78.545
X207.675Y-78.545
T5
X202.065Y-82.99
X204.605Y-82.99
X207.145Y-82.99
X209.685Y-82.99
T7
X198.255Y-50.687
X198.255Y-53.227
X198.255Y-55.767
X198.255Y-58.307
X198.255Y-60.847
X198.255Y-63.387
X198.255Y-65.927
X198.255Y-68.467
X198.255Y-71.007
X198.255Y-73.547
X198.255Y-76.087
X198.255Y-78.627
X213.495Y-50.687
X213.495Y-53.227
X213.495Y-55.767
X213.495Y-58.307
X213.495Y-60.847
X213.495Y-63.387
X213.495Y-65.927
X213.495Y-68.467
X213.495Y-71.007
X213.495Y-73.547
X213.495Y-76.087
X213.495Y-78.627
T8
X214.13Y-82.915
X214.13Y-89.415
T9
X64.88Y-111.77
X83.66Y-67.47
X183.27Y-135.71
X187.88Y-66.24
T6
X204.535Y-94.465G85X204.035Y-94.465
G05
X204.535Y-96.915G85X204.035Y-96.915
G05
X206.035Y-92.715G85X205.535Y-92.715
G05
X206.035Y-98.665G85X205.535Y-98.665
G05
X210.035Y-92.715G85X209.535Y-92.715
G05
X210.035Y-98.665G85X209.535Y-98.665
G05
X213.035Y-92.715G85X212.535Y-92.715
G05
X213.035Y-98.665G85X212.535Y-98.665
G05
T0
M30
