M48
; DRILL file {KiCad (6.0.7)} date 2022年08月06日 星期六 08时23分58秒
; FORMAT={-:-/ absolute / metric / decimal}
; #@! TF.CreationDate,2022-08-06T08:23:58+00:00
; #@! TF.GenerationSoftware,Kicad,Pcbnew,(6.0.7)
; #@! TF.FileFunction,Plated,1,2,PTH
FMAT,2
METRIC
; #@! TA.AperFunction,Plated,PTH,ViaDrill
T1C0.400
; #@! TA.AperFunction,Plated,PTH,ComponentDrill
T2C0.600
; #@! TA.AperFunction,Plated,PTH,ComponentDrill
T3C0.813
; #@! TA.AperFunction,Plated,PTH,ComponentDrill
T4C1.000
; #@! TA.AperFunction,Plated,PTH,ComponentDrill
T5C1.092
; #@! TA.AperFunction,Plated,PTH,ComponentDrill
T6C1.300
; #@! TA.AperFunction,Plated,PTH,ComponentDrill
T7C1.550
; #@! TA.AperFunction,Plated,PTH,ComponentDrill
T8C4.100
%
G90
G05
T1
X59.04Y-66.81
X60.3Y-66.55
X62.35Y-52.88
X63.14Y-48.25
X65.91Y-128.52
X66.66Y-67.79
X68.07Y-69.86
X69.03Y-123.65
X69.65Y-114.35
X70.38Y-89.29
X71.71Y-49.51
X72.56Y-63.51
X74.32Y-104.17
X74.99Y-106.95
X76.05Y-60.16
X76.123Y-125.622
X76.33Y-47.23
X77.03Y-68.26
X77.05Y-127.45
X77.94Y-125.46
X78.44Y-128.75
X79.45Y-86.87
X79.75Y-90.39
X80.12Y-88.02
X81.59Y-48.37
X84.07Y-107.22
X85.4Y-109.89
X86.7Y-64.64
X87.06Y-117.12
X88.01Y-71.58
X88.35Y-90.27
X89.38Y-47.19
X89.7Y-66.82
X90.06Y-130.22
X91.08Y-70.19
X91.08Y-130.93
X91.27Y-92.87
X91.36Y-48.04
X91.56Y-52.61
X91.84Y-96.15
X91.85Y-62.3
X93.16Y-66.61
X93.23Y-62.55
X95.0Y-45.94
X95.7Y-54.84
X95.97Y-86.0
X96.2Y-126.01
X96.44Y-109.21
X96.66Y-90.19
X97.69Y-61.41
X100.54Y-69.72
X100.87Y-111.6
X101.31Y-67.93
X101.61Y-63.86
X101.67Y-71.58
X101.68Y-52.24
X101.74Y-70.25
X102.12Y-68.98
X102.93Y-82.86
X104.77Y-108.29
X104.95Y-86.82
X105.02Y-80.72
X105.4Y-128.68
X105.44Y-123.35
X105.5Y-125.06
X105.64Y-127.02
X105.87Y-103.45
X105.96Y-86.2
X106.08Y-75.16
X108.396Y-122.767
X108.59Y-53.5
X109.04Y-68.2
X109.47Y-120.79
X109.8Y-48.85
X110.01Y-67.33
X110.11Y-66.19
X110.342Y-91.993
X110.8Y-47.92
X111.67Y-52.5
X111.82Y-50.51
X113.15Y-82.96
X113.249Y-85.341
X114.1Y-105.0
X114.65Y-85.54
X115.57Y-90.46
X115.86Y-109.49
X116.94Y-91.72
X118.14Y-104.98
X119.06Y-52.44
X119.43Y-130.63
X119.64Y-96.53
X119.82Y-68.28
X119.89Y-69.47
X120.07Y-111.16
X120.07Y-111.16
X120.19Y-71.54
X121.41Y-47.18
X123.42Y-66.58
X123.875Y-103.932
X124.33Y-107.79
X124.42Y-87.23
X124.43Y-126.32
X124.7Y-88.89
X124.82Y-74.69
X126.53Y-123.49
X127.73Y-53.8
X127.93Y-65.26
X128.41Y-67.53
X128.59Y-62.41
X129.08Y-49.39
X129.22Y-51.14
X129.43Y-63.83
X129.52Y-91.09
X129.85Y-80.91
X130.15Y-68.13
X130.35Y-52.24
X133.4Y-50.52
X134.12Y-107.88
X134.25Y-105.99
X134.4Y-45.79
X134.4Y-125.584
X134.5Y-85.4
X134.58Y-128.73
X135.06Y-91.16
X135.13Y-109.18
X136.18Y-92.7
X136.2Y-85.42
X137.9Y-96.13
X138.17Y-120.25
X138.3Y-52.29
X138.46Y-67.34
X138.69Y-48.57
X138.82Y-111.38
X139.28Y-68.28
X139.34Y-63.2
X139.8Y-104.67
X140.02Y-101.95
X140.91Y-66.59
X141.533Y-85.541
X142.15Y-65.5
X142.68Y-63.54
X143.3Y-107.79
X143.71Y-62.18
X144.24Y-75.12
X144.26Y-106.46
X147.25Y-102.38
X147.85Y-49.09
X148.1Y-70.09
X148.18Y-123.31
X148.2Y-101.54
X148.563Y-68.687
X148.81Y-52.58
X149.02Y-91.46
X151.37Y-104.28
X152.9Y-85.57
X152.99Y-90.61
X153.73Y-109.39
X155.43Y-130.1
X155.95Y-64.29
X157.1Y-52.29
X157.75Y-67.81
X157.89Y-69.79
X158.14Y-110.58
X158.43Y-47.45
X158.79Y-104.7
X159.32Y-71.12
X159.88Y-47.24
X160.32Y-126.43
X161.87Y-81.12
X162.36Y-85.37
X162.48Y-88.27
X162.52Y-73.16
X162.53Y-107.35
X163.45Y-104.59
X164.03Y-84.19
X167.35Y-49.5
X167.36Y-65.84
X167.86Y-52.3
X167.91Y-93.77
X168.89Y-53.33
X168.9Y-65.89
X169.39Y-127.8
X169.52Y-125.34
X170.05Y-128.69
X170.69Y-123.99
X171.19Y-84.99
X171.86Y-88.2
X171.96Y-106.06
X172.42Y-62.37
X172.5Y-90.94
X172.77Y-86.47
X172.96Y-109.57
X173.41Y-123.01
X174.9Y-66.33
X176.44Y-52.24
X176.55Y-70.29
X176.705Y-65.515
X176.92Y-68.19
X177.195Y-48.675
X177.66Y-71.26
X177.87Y-66.41
X178.47Y-110.33
X178.76Y-93.62
X180.39Y-85.46
X181.15Y-107.23
X186.6Y-49.83
X187.39Y-50.58
X188.549Y-131.696
X190.05Y-103.86
X190.52Y-106.7
X190.7Y-109.58
X191.72Y-46.59
X196.22Y-117.9
X196.24Y-127.07
X199.26Y-116.76
X200.65Y-138.49
X200.93Y-51.46
X204.57Y-122.99
X205.47Y-125.29
X206.9Y-62.08
X209.72Y-55.78
X210.53Y-116.38
T2
X204.075Y-78.545
X207.675Y-78.545
T3
X202.065Y-82.99
X204.605Y-82.99
X207.145Y-82.99
X209.685Y-82.99
T5
X198.255Y-50.687
X198.255Y-53.227
X198.255Y-55.767
X198.255Y-58.307
X198.255Y-60.847
X198.255Y-63.387
X198.255Y-65.927
X198.255Y-68.467
X198.255Y-71.007
X198.255Y-73.547
X198.255Y-76.087
X198.255Y-78.627
X213.495Y-50.687
X213.495Y-53.227
X213.495Y-55.767
X213.495Y-58.307
X213.495Y-60.847
X213.495Y-63.387
X213.495Y-65.927
X213.495Y-68.467
X213.495Y-71.007
X213.495Y-73.547
X213.495Y-76.087
X213.495Y-78.627
T6
X214.13Y-82.915
X214.13Y-89.415
T7
X201.71Y-47.43
X206.51Y-47.43
X211.31Y-47.43
T8
X64.88Y-111.77
X83.66Y-67.47
X183.27Y-135.71
X187.88Y-66.24
T4
X204.535Y-94.465G85X204.035Y-94.465
G05
X204.535Y-96.915G85X204.035Y-96.915
G05
X206.035Y-92.715G85X205.535Y-92.715
G05
X206.035Y-98.665G85X205.535Y-98.665
G05
X210.035Y-92.715G85X209.535Y-92.715
G05
X210.035Y-98.665G85X209.535Y-98.665
G05
X213.035Y-92.715G85X212.535Y-92.715
G05
X213.035Y-98.665G85X212.535Y-98.665
G05
T0
M30
