G04 #@! TF.GenerationSoftware,KiCad,Pcbnew,(6.0.7)*
G04 #@! TF.CreationDate,2022-08-06T08:23:07+00:00*
G04 #@! TF.ProjectId,zzsplit,7a7a7370-6c69-4742-9e6b-696361645f70,rev?*
G04 #@! TF.SameCoordinates,Original*
G04 #@! TF.FileFunction,Paste,Bot*
G04 #@! TF.FilePolarity,Positive*
%FSLAX46Y46*%
G04 Gerber Fmt 4.6, Leading zero omitted, Abs format (unit mm)*
G04 Created by KiCad (PCBNEW (6.0.7)) date 2022-08-06 08:23:07*
%MOMM*%
%LPD*%
G01*
G04 APERTURE LIST*
G04 #@! TA.AperFunction,Profile*
%ADD10C,0.100000*%
G04 #@! TD*
%ADD11R,0.950000X1.300000*%
%ADD12R,2.000000X1.000000*%
%ADD13R,1.600000X1.000000*%
%ADD14R,2.300000X2.000000*%
G04 APERTURE END LIST*
D10*
X58200000Y-43460000D02*
X214110000Y-43490001D01*
X55740000Y-139720000D02*
G75*
G03*
X58240000Y-142220000I2500000J0D01*
G01*
X216600019Y-45990000D02*
X216630000Y-139850000D01*
X214109920Y-142359980D02*
X58240000Y-142220000D01*
X55700000Y-45960000D02*
X55740000Y-139720000D01*
X214109920Y-142359980D02*
G75*
G03*
X216630000Y-139850000I10080J2509980D01*
G01*
X216600019Y-45990000D02*
G75*
G03*
X214110000Y-43490001I-2500019J0D01*
G01*
X58200000Y-43460000D02*
G75*
G03*
X55700000Y-45960000I0J-2500000D01*
G01*
D11*
X157270000Y-131055000D03*
X157270000Y-127505000D03*
D12*
X132270000Y-65215000D03*
X132270000Y-63465000D03*
X136670000Y-63465000D03*
X136670000Y-65215000D03*
D13*
X77000000Y-88525001D03*
X77000000Y-86775001D03*
X72200000Y-86775001D03*
X72200000Y-88525001D03*
D14*
X81600000Y-95730001D03*
X68900000Y-98270001D03*
D13*
X188920000Y-107615000D03*
X188920000Y-105865000D03*
X184120000Y-105865000D03*
X184120000Y-107615000D03*
D14*
X193520000Y-114820000D03*
X180820000Y-117360000D03*
D13*
X136540000Y-69485000D03*
X136540000Y-67735000D03*
X131740000Y-67735000D03*
X131740000Y-69485000D03*
D14*
X141140000Y-76690000D03*
X128440000Y-79230000D03*
D11*
X121860000Y-111725000D03*
X121860000Y-108175000D03*
D13*
X160350000Y-88555000D03*
X160350000Y-86805000D03*
X155550000Y-86805000D03*
X155550000Y-88555000D03*
D14*
X164950000Y-95760000D03*
X152250000Y-98300000D03*
D12*
X141532100Y-128805000D03*
X141532100Y-127055000D03*
X145932100Y-127055000D03*
X145932100Y-128805000D03*
D11*
X97780000Y-54300000D03*
X97780000Y-50750000D03*
X92760000Y-92870000D03*
X92760000Y-89320000D03*
X126150000Y-73250000D03*
X126150000Y-69700000D03*
X136000000Y-54435000D03*
X136000000Y-50885000D03*
X92950000Y-130885000D03*
X92950000Y-127335000D03*
D13*
X203190000Y-126675000D03*
X203190000Y-124925000D03*
X198390000Y-124925000D03*
X198390000Y-126675000D03*
D14*
X207790000Y-133880000D03*
X195090000Y-136420000D03*
D11*
X88200000Y-73290000D03*
X88200000Y-69740000D03*
D13*
X169850000Y-107605000D03*
X169850000Y-105855000D03*
X165050000Y-105855000D03*
X165050000Y-107605000D03*
D14*
X174450000Y-114810000D03*
X161750000Y-117350000D03*
D13*
X69840000Y-50425000D03*
X69840000Y-48675000D03*
X65040000Y-48675000D03*
X65040000Y-50425000D03*
D14*
X74440000Y-57630000D03*
X61740000Y-60170000D03*
D11*
X140310000Y-111765000D03*
X140310000Y-108215000D03*
X169070000Y-92185000D03*
X169070000Y-88635000D03*
X130950000Y-92145000D03*
X130950000Y-88595000D03*
D12*
X203780000Y-54495000D03*
X203780000Y-52745000D03*
X208180000Y-52745000D03*
X208180000Y-54495000D03*
D11*
X173440000Y-54360000D03*
X173440000Y-50810000D03*
X102330000Y-111600000D03*
X102330000Y-108050000D03*
X192570000Y-130755000D03*
X192570000Y-127205000D03*
X164200000Y-73220000D03*
X164200000Y-69670000D03*
D13*
X184145000Y-50425000D03*
X184145000Y-48675000D03*
X179345000Y-48675000D03*
X179345000Y-50425000D03*
D14*
X188745000Y-57630000D03*
X176045000Y-60170000D03*
D11*
X159950000Y-111695000D03*
X159950000Y-108145000D03*
X106780000Y-73420000D03*
X106780000Y-69870000D03*
D13*
X179400000Y-88555000D03*
X179400000Y-86805000D03*
X174600000Y-86805000D03*
X174600000Y-88555000D03*
D14*
X184000000Y-95760000D03*
X171300000Y-98300000D03*
D13*
X167480000Y-126665000D03*
X167480000Y-124915000D03*
X162680000Y-124915000D03*
X162680000Y-126665000D03*
D14*
X172080000Y-133870000D03*
X159380000Y-136410000D03*
D11*
X66870000Y-92595000D03*
X66870000Y-89045000D03*
D13*
X155590000Y-69485000D03*
X155590000Y-67735000D03*
X150790000Y-67735000D03*
X150790000Y-69485000D03*
D14*
X160190000Y-76690000D03*
X147490000Y-79230000D03*
D13*
X174640000Y-69485000D03*
X174640000Y-67735000D03*
X169840000Y-67735000D03*
X169840000Y-69485000D03*
D14*
X179240000Y-76690000D03*
X166540000Y-79230000D03*
D12*
X205540000Y-116375000D03*
X205540000Y-118125000D03*
X201140000Y-118125000D03*
X201140000Y-116375000D03*
D13*
X141300000Y-88555000D03*
X141300000Y-86805000D03*
X136500000Y-86805000D03*
X136500000Y-88555000D03*
D14*
X145900000Y-95760000D03*
X133200000Y-98300000D03*
D13*
X126995000Y-50425000D03*
X126995000Y-48675000D03*
X122195000Y-48675000D03*
X122195000Y-50425000D03*
D14*
X131595000Y-57630000D03*
X118895000Y-60170000D03*
D13*
X74600000Y-69465000D03*
X74600000Y-67715000D03*
X69800000Y-67715000D03*
X69800000Y-69465000D03*
D14*
X79200000Y-76670000D03*
X66500000Y-79210000D03*
D11*
X64180000Y-73445000D03*
X64180000Y-69895000D03*
D12*
X76122100Y-64845000D03*
X76122100Y-63095000D03*
X80522100Y-63095000D03*
X80522100Y-64845000D03*
D11*
X111820000Y-92315000D03*
X111820000Y-88765000D03*
X121590000Y-131295000D03*
X121590000Y-127745000D03*
D13*
X150820000Y-107615000D03*
X150820000Y-105865000D03*
X146020000Y-105865000D03*
X146020000Y-107615000D03*
D14*
X155420000Y-114820000D03*
X142720000Y-117360000D03*
D13*
X81760000Y-107645000D03*
X81760000Y-105895000D03*
X76960000Y-105895000D03*
X76960000Y-107645000D03*
D14*
X86360000Y-114850000D03*
X73660000Y-117390000D03*
D13*
X131770000Y-107615000D03*
X131770000Y-105865000D03*
X126970000Y-105865000D03*
X126970000Y-107615000D03*
D14*
X136370000Y-114820000D03*
X123670000Y-117360000D03*
D13*
X74610000Y-126695001D03*
X74610000Y-124945001D03*
X69810000Y-124945001D03*
X69810000Y-126695001D03*
D14*
X79210000Y-133900001D03*
X66510000Y-136440001D03*
D11*
X64410000Y-130765000D03*
X64410000Y-127215000D03*
D12*
X83362100Y-129875000D03*
X83362100Y-128125000D03*
X87762100Y-128125000D03*
X87762100Y-129875000D03*
D11*
X178740000Y-111865000D03*
X178740000Y-108315000D03*
X154850000Y-54415000D03*
X154850000Y-50865000D03*
X145170000Y-73190000D03*
X145170000Y-69640000D03*
D13*
X122250000Y-88555000D03*
X122250000Y-86805000D03*
X117450000Y-86805000D03*
X117450000Y-88555000D03*
D14*
X126850000Y-95760000D03*
X114150000Y-98300000D03*
D13*
X165095000Y-50425000D03*
X165095000Y-48675000D03*
X160295000Y-48675000D03*
X160295000Y-50425000D03*
D14*
X169695000Y-57630000D03*
X156995000Y-60170000D03*
D13*
X107945000Y-50425000D03*
X107945000Y-48675000D03*
X103145000Y-48675000D03*
X103145000Y-50425000D03*
D14*
X112545000Y-57630000D03*
X99845000Y-60170000D03*
D13*
X131760000Y-126675000D03*
X131760000Y-124925000D03*
X126960000Y-124925000D03*
X126960000Y-126675000D03*
D14*
X136360000Y-133880000D03*
X123660000Y-136420000D03*
D13*
X98440000Y-69485000D03*
X98440000Y-67735000D03*
X93640000Y-67735000D03*
X93640000Y-69485000D03*
D14*
X103040000Y-76690000D03*
X90340000Y-79230000D03*
D13*
X88895000Y-50425000D03*
X88895000Y-48675000D03*
X84095000Y-48675000D03*
X84095000Y-50425000D03*
D14*
X93495000Y-57630000D03*
X80795000Y-60170000D03*
D13*
X103120000Y-126685000D03*
X103120000Y-124935000D03*
X98320000Y-124935000D03*
X98320000Y-126685000D03*
D14*
X107720000Y-133890000D03*
X95020000Y-136430000D03*
D11*
X116770000Y-54180000D03*
X116770000Y-50630000D03*
X78280000Y-54350000D03*
X78280000Y-50800000D03*
X150210000Y-92895000D03*
X150210000Y-89345000D03*
D13*
X112720000Y-107615000D03*
X112720000Y-105865000D03*
X107920000Y-105865000D03*
X107920000Y-107615000D03*
D14*
X117320000Y-114820000D03*
X104620000Y-117360000D03*
D13*
X146045000Y-50425000D03*
X146045000Y-48675000D03*
X141245000Y-48675000D03*
X141245000Y-50425000D03*
D14*
X150645000Y-57630000D03*
X137945000Y-60170000D03*
D13*
X103200000Y-88555000D03*
X103200000Y-86805000D03*
X98400000Y-86805000D03*
X98400000Y-88555000D03*
D14*
X107800000Y-95760000D03*
X95100000Y-98300000D03*
D11*
X71480000Y-111740000D03*
X71480000Y-108190000D03*
X59570000Y-54490000D03*
X59570000Y-50940000D03*
D13*
X117490000Y-69485000D03*
X117490000Y-67735000D03*
X112690000Y-67735000D03*
X112690000Y-69485000D03*
D14*
X122090000Y-76690000D03*
X109390000Y-79230000D03*
M02*
