G04 #@! TF.GenerationSoftware,KiCad,Pcbnew,(6.0.7)*
G04 #@! TF.CreationDate,2022-08-06T08:23:08+00:00*
G04 #@! TF.ProjectId,zzsplit,7a7a7370-6c69-4742-9e6b-696361645f70,rev?*
G04 #@! TF.SameCoordinates,Original*
G04 #@! TF.FileFunction,Soldermask,Top*
G04 #@! TF.FilePolarity,Negative*
%FSLAX46Y46*%
G04 Gerber Fmt 4.6, Leading zero omitted, Abs format (unit mm)*
G04 Created by KiCad (PCBNEW (6.0.7)) date 2022-08-06 08:23:08*
%MOMM*%
%LPD*%
G01*
G04 APERTURE LIST*
G04 Aperture macros list*
%AMRoundRect*
0 Rectangle with rounded corners*
0 $1 Rounding radius*
0 $2 $3 $4 $5 $6 $7 $8 $9 X,Y pos of 4 corners*
0 Add a 4 corners polygon primitive as box body*
4,1,4,$2,$3,$4,$5,$6,$7,$8,$9,$2,$3,0*
0 Add four circle primitives for the rounded corners*
1,1,$1+$1,$2,$3*
1,1,$1+$1,$4,$5*
1,1,$1+$1,$6,$7*
1,1,$1+$1,$8,$9*
0 Add four rect primitives between the rounded corners*
20,1,$1+$1,$2,$3,$4,$5,0*
20,1,$1+$1,$4,$5,$6,$7,0*
20,1,$1+$1,$6,$7,$8,$9,0*
20,1,$1+$1,$8,$9,$2,$3,0*%
G04 Aperture macros list end*
G04 #@! TA.AperFunction,Profile*
%ADD10C,0.100000*%
G04 #@! TD*
%ADD11R,0.950000X1.300000*%
%ADD12R,2.000000X1.000000*%
%ADD13C,4.100000*%
%ADD14C,3.000000*%
%ADD15C,1.900000*%
%ADD16C,1.700000*%
%ADD17R,1.600000X1.000000*%
%ADD18R,2.300000X2.000000*%
%ADD19C,4.700000*%
%ADD20C,1.200000*%
%ADD21O,2.500000X1.700000*%
%ADD22RoundRect,0.250000X-0.550000X-0.550000X0.550000X-0.550000X0.550000X0.550000X-0.550000X0.550000X0*%
%ADD23C,1.600000*%
%ADD24R,1.752600X1.752600*%
%ADD25C,1.752600*%
%ADD26RoundRect,0.249999X1.025001X1.025001X-1.025001X1.025001X-1.025001X-1.025001X1.025001X-1.025001X0*%
%ADD27C,2.550000*%
%ADD28C,1.397000*%
%ADD29C,2.000000*%
G04 APERTURE END LIST*
D10*
X58200000Y-43460000D02*
X214110000Y-43490001D01*
X55740000Y-139720000D02*
G75*
G03*
X58240000Y-142220000I2500000J0D01*
G01*
X216600019Y-45990000D02*
X216630000Y-139850000D01*
X214109920Y-142359980D02*
X58240000Y-142220000D01*
X55700000Y-45960000D02*
X55740000Y-139720000D01*
X214109920Y-142359980D02*
G75*
G03*
X216630000Y-139850000I10080J2509980D01*
G01*
X216600019Y-45990000D02*
G75*
G03*
X214110000Y-43490001I-2500019J0D01*
G01*
X58200000Y-43460000D02*
G75*
G03*
X55700000Y-45960000I0J-2500000D01*
G01*
D11*
X157270000Y-131055000D03*
X157270000Y-127505000D03*
D12*
X132270000Y-63465000D03*
X132270000Y-65215000D03*
X136670000Y-65215000D03*
X136670000Y-63465000D03*
D13*
X74600000Y-93150001D03*
D14*
X77140000Y-98230001D03*
D15*
X69520000Y-93150001D03*
D14*
X78410000Y-95690001D03*
X70790000Y-95690002D03*
D16*
X79100000Y-93150001D03*
D14*
X72060000Y-98230001D03*
D16*
X70100000Y-93150001D03*
D15*
X79680000Y-93150001D03*
D17*
X77000000Y-86775001D03*
X77000000Y-88525001D03*
X72200000Y-88525001D03*
X72200000Y-86775001D03*
D18*
X67600000Y-95730001D03*
X80300000Y-98270001D03*
D14*
X189060000Y-117320000D03*
D16*
X191020000Y-112240000D03*
X182020000Y-112240000D03*
D14*
X183980000Y-117320000D03*
D13*
X186520000Y-112240000D03*
D15*
X181440000Y-112240000D03*
D14*
X190330000Y-114780000D03*
X182710000Y-114780001D03*
D15*
X191600000Y-112240000D03*
D17*
X188920000Y-105865000D03*
X188920000Y-107615000D03*
X184120000Y-107615000D03*
X184120000Y-105865000D03*
D18*
X179520000Y-114820000D03*
X192220000Y-117360000D03*
D15*
X139220000Y-74110000D03*
D14*
X137950000Y-76650000D03*
D16*
X138640000Y-74110000D03*
D15*
X129060000Y-74110000D03*
D14*
X130330000Y-76650001D03*
D16*
X129640000Y-74110000D03*
D14*
X131600000Y-79190000D03*
X136680000Y-79190000D03*
D13*
X134140000Y-74110000D03*
D17*
X136540000Y-67735000D03*
X136540000Y-69485000D03*
X131740000Y-69485000D03*
X131740000Y-67735000D03*
D18*
X127140000Y-76690000D03*
X139840000Y-79230000D03*
D11*
X121860000Y-111725000D03*
X121860000Y-108175000D03*
D19*
X187880000Y-66240000D03*
D13*
X157950000Y-93180000D03*
D14*
X160490000Y-98260000D03*
X155410000Y-98260000D03*
X154140000Y-95720001D03*
D16*
X153450000Y-93180000D03*
D14*
X161760000Y-95720000D03*
D15*
X163030000Y-93180000D03*
D16*
X162450000Y-93180000D03*
D15*
X152870000Y-93180000D03*
D17*
X160350000Y-86805000D03*
X160350000Y-88555000D03*
X155550000Y-88555000D03*
X155550000Y-86805000D03*
D18*
X150950000Y-95760000D03*
X163650000Y-98300000D03*
D12*
X141532100Y-127055000D03*
X141532100Y-128805000D03*
X145932100Y-128805000D03*
X145932100Y-127055000D03*
D11*
X97780000Y-54300000D03*
X97780000Y-50750000D03*
X92760000Y-92870000D03*
X92760000Y-89320000D03*
X126150000Y-73250000D03*
X126150000Y-69700000D03*
X136000000Y-54435000D03*
X136000000Y-50885000D03*
X92950000Y-130885000D03*
X92950000Y-127335000D03*
D14*
X198250000Y-136380000D03*
D16*
X196290000Y-131300000D03*
D13*
X200790000Y-131300000D03*
D14*
X196980000Y-133840001D03*
X203330000Y-136380000D03*
D15*
X195710000Y-131300000D03*
D14*
X204600000Y-133840000D03*
D15*
X205870000Y-131300000D03*
D16*
X205290000Y-131300000D03*
D17*
X203190000Y-124925000D03*
X203190000Y-126675000D03*
X198390000Y-126675000D03*
X198390000Y-124925000D03*
D18*
X193790000Y-133880000D03*
X206490000Y-136420000D03*
D11*
X88200000Y-73290000D03*
X88200000Y-69740000D03*
D14*
X169990000Y-117310000D03*
D15*
X162370000Y-112230000D03*
D14*
X163640000Y-114770001D03*
D15*
X172530000Y-112230000D03*
D14*
X171260000Y-114770000D03*
D16*
X162950000Y-112230000D03*
X171950000Y-112230000D03*
D13*
X167450000Y-112230000D03*
D14*
X164910000Y-117310000D03*
D17*
X169850000Y-105855000D03*
X169850000Y-107605000D03*
X165050000Y-107605000D03*
X165050000Y-105855000D03*
D18*
X160450000Y-114810000D03*
X173150000Y-117350000D03*
D16*
X71940000Y-55050000D03*
D14*
X71250000Y-57590000D03*
D13*
X67440000Y-55050000D03*
D14*
X69980000Y-60130000D03*
X63630000Y-57590001D03*
D15*
X62360000Y-55050000D03*
X72520000Y-55050000D03*
D14*
X64900000Y-60130000D03*
D16*
X62940000Y-55050000D03*
D17*
X69840000Y-48675000D03*
X69840000Y-50425000D03*
X65040000Y-50425000D03*
X65040000Y-48675000D03*
D18*
X60440000Y-57630000D03*
X73140000Y-60170000D03*
D11*
X140310000Y-111765000D03*
X140310000Y-108215000D03*
X169070000Y-92185000D03*
X169070000Y-88635000D03*
X130950000Y-92145000D03*
X130950000Y-88595000D03*
D12*
X203780000Y-52745000D03*
X203780000Y-54495000D03*
X208180000Y-54495000D03*
X208180000Y-52745000D03*
D11*
X173440000Y-54360000D03*
X173440000Y-50810000D03*
X102330000Y-111600000D03*
X102330000Y-108050000D03*
X192570000Y-130755000D03*
X192570000Y-127205000D03*
X164200000Y-73220000D03*
X164200000Y-69670000D03*
D19*
X83660000Y-67470000D03*
D13*
X181745000Y-55050000D03*
D14*
X179205000Y-60130000D03*
D16*
X186245000Y-55050000D03*
D14*
X185555000Y-57590000D03*
D15*
X186825000Y-55050000D03*
X176665000Y-55050000D03*
D14*
X184285000Y-60130000D03*
D16*
X177245000Y-55050000D03*
D14*
X177935000Y-57590001D03*
D17*
X184145000Y-48675000D03*
X184145000Y-50425000D03*
X179345000Y-50425000D03*
X179345000Y-48675000D03*
D18*
X174745000Y-57630000D03*
X187445000Y-60170000D03*
D11*
X159950000Y-111695000D03*
X159950000Y-108145000D03*
D19*
X183270000Y-135710000D03*
D11*
X106780000Y-73420000D03*
X106780000Y-69870000D03*
D16*
X181500000Y-93180000D03*
D14*
X174460000Y-98260000D03*
X173190000Y-95720001D03*
D13*
X177000000Y-93180000D03*
D14*
X179540000Y-98260000D03*
D15*
X182080000Y-93180000D03*
D14*
X180810000Y-95720000D03*
D16*
X172500000Y-93180000D03*
D15*
X171920000Y-93180000D03*
D17*
X179400000Y-86805000D03*
X179400000Y-88555000D03*
X174600000Y-88555000D03*
X174600000Y-86805000D03*
D18*
X170000000Y-95760000D03*
X182700000Y-98300000D03*
D19*
X64880000Y-111770000D03*
D16*
X160580000Y-131290000D03*
D13*
X165080000Y-131290000D03*
D15*
X160000000Y-131290000D03*
D14*
X162540000Y-136370000D03*
D15*
X170160000Y-131290000D03*
D16*
X169580000Y-131290000D03*
D14*
X167620000Y-136370000D03*
X161270000Y-133830001D03*
X168890000Y-133830000D03*
D17*
X167480000Y-124915000D03*
X167480000Y-126665000D03*
X162680000Y-126665000D03*
X162680000Y-124915000D03*
D18*
X158080000Y-133870000D03*
X170780000Y-136410000D03*
D11*
X66870000Y-92595000D03*
X66870000Y-89045000D03*
D15*
X158270000Y-74110000D03*
D14*
X155730000Y-79190000D03*
D16*
X148690000Y-74110000D03*
D14*
X149380000Y-76650001D03*
D15*
X148110000Y-74110000D03*
D13*
X153190000Y-74110000D03*
D14*
X150650000Y-79190000D03*
X157000000Y-76650000D03*
D16*
X157690000Y-74110000D03*
D17*
X155590000Y-67735000D03*
X155590000Y-69485000D03*
X150790000Y-69485000D03*
X150790000Y-67735000D03*
D18*
X146190000Y-76690000D03*
X158890000Y-79230000D03*
D16*
X176740000Y-74110000D03*
D14*
X168430000Y-76650001D03*
X176050000Y-76650000D03*
X169700000Y-79190000D03*
X174780000Y-79190000D03*
D13*
X172240000Y-74110000D03*
D15*
X167160000Y-74110000D03*
D16*
X167740000Y-74110000D03*
D15*
X177320000Y-74110000D03*
D17*
X174640000Y-67735000D03*
X174640000Y-69485000D03*
X169840000Y-69485000D03*
X169840000Y-67735000D03*
D18*
X165240000Y-76690000D03*
X177940000Y-79230000D03*
D12*
X205540000Y-118125000D03*
X205540000Y-116375000D03*
X201140000Y-116375000D03*
X201140000Y-118125000D03*
D20*
X207585000Y-96565000D03*
X214585000Y-94815000D03*
X207585000Y-94815000D03*
X214585000Y-96565000D03*
D21*
X205785000Y-98665000D03*
X205785000Y-92715000D03*
X209785000Y-92715000D03*
X209785000Y-98665000D03*
X212785000Y-98665000D03*
X212785000Y-92715000D03*
X204285000Y-96915000D03*
X204285000Y-94465000D03*
D15*
X143980000Y-93180000D03*
D14*
X135090000Y-95720001D03*
D15*
X133820000Y-93180000D03*
D14*
X141440000Y-98260000D03*
D16*
X143400000Y-93180000D03*
D13*
X138900000Y-93180000D03*
D14*
X136360000Y-98260000D03*
D16*
X134400000Y-93180000D03*
D14*
X142710000Y-95720000D03*
D17*
X141300000Y-86805000D03*
X141300000Y-88555000D03*
X136500000Y-88555000D03*
X136500000Y-86805000D03*
D18*
X131900000Y-95760000D03*
X144600000Y-98300000D03*
D14*
X122055000Y-60130000D03*
X120785000Y-57590001D03*
D15*
X119515000Y-55050000D03*
D13*
X124595000Y-55050000D03*
D16*
X120095000Y-55050000D03*
D14*
X127135000Y-60130000D03*
D16*
X129095000Y-55050000D03*
D15*
X129675000Y-55050000D03*
D14*
X128405000Y-57590000D03*
D17*
X126995000Y-48675000D03*
X126995000Y-50425000D03*
X122195000Y-50425000D03*
X122195000Y-48675000D03*
D18*
X117595000Y-57630000D03*
X130295000Y-60170000D03*
D13*
X72200000Y-74090000D03*
D14*
X76010000Y-76630000D03*
D15*
X67120000Y-74090000D03*
D14*
X69660000Y-79170000D03*
X68390000Y-76630001D03*
D15*
X77280000Y-74090000D03*
D14*
X74740000Y-79170000D03*
D16*
X76700000Y-74090000D03*
X67700000Y-74090000D03*
D17*
X74600000Y-67715000D03*
X74600000Y-69465000D03*
X69800000Y-69465000D03*
X69800000Y-67715000D03*
D18*
X65200000Y-76670000D03*
X77900000Y-79210000D03*
D22*
X204075000Y-78545000D03*
D23*
X207675000Y-78545000D03*
D24*
X198255000Y-50686750D03*
D25*
X198255000Y-53226750D03*
X198255000Y-55766750D03*
X198255000Y-58306750D03*
X198255000Y-60846750D03*
X198255000Y-63386750D03*
X198255000Y-65926750D03*
X198255000Y-68466750D03*
X198255000Y-71006750D03*
X198255000Y-73546750D03*
X198255000Y-76086750D03*
X198255000Y-78626750D03*
X213495000Y-78626750D03*
X213495000Y-76086750D03*
X213495000Y-73546750D03*
X213495000Y-71006750D03*
X213495000Y-68466750D03*
X213495000Y-65926750D03*
X213495000Y-63386750D03*
X213495000Y-60846750D03*
X213495000Y-58306750D03*
X213495000Y-55766750D03*
X213495000Y-53226750D03*
X213495000Y-50686750D03*
D11*
X64180000Y-73445000D03*
X64180000Y-69895000D03*
D26*
X211310000Y-47430000D03*
D27*
X206510000Y-47430000D03*
X201710000Y-47430000D03*
D12*
X76122100Y-63095000D03*
X76122100Y-64845000D03*
X80522100Y-64845000D03*
X80522100Y-63095000D03*
D11*
X111820000Y-92315000D03*
X111820000Y-88765000D03*
X121590000Y-131295000D03*
X121590000Y-127745000D03*
D28*
X202065000Y-82990000D03*
X204605000Y-82990000D03*
X207145000Y-82990000D03*
X209685000Y-82990000D03*
D16*
X152920000Y-112240000D03*
D15*
X143340000Y-112240000D03*
D14*
X144610000Y-114780001D03*
X150960000Y-117320000D03*
D15*
X153500000Y-112240000D03*
D14*
X152230000Y-114780000D03*
D13*
X148420000Y-112240000D03*
D14*
X145880000Y-117320000D03*
D16*
X143920000Y-112240000D03*
D17*
X150820000Y-105865000D03*
X150820000Y-107615000D03*
X146020000Y-107615000D03*
X146020000Y-105865000D03*
D18*
X141420000Y-114820000D03*
X154120000Y-117360000D03*
D15*
X74280000Y-112270000D03*
X84440000Y-112270000D03*
D13*
X79360000Y-112270000D03*
D14*
X76820000Y-117350000D03*
X81900000Y-117350000D03*
D16*
X74860000Y-112270000D03*
D14*
X75550000Y-114810001D03*
X83170000Y-114810000D03*
D16*
X83860000Y-112270000D03*
D17*
X81760000Y-105895000D03*
X81760000Y-107645000D03*
X76960000Y-107645000D03*
X76960000Y-105895000D03*
D18*
X72360000Y-114850000D03*
X85060000Y-117390000D03*
D14*
X133180000Y-114780000D03*
D16*
X133870000Y-112240000D03*
D15*
X124290000Y-112240000D03*
D16*
X124870000Y-112240000D03*
D15*
X134450000Y-112240000D03*
D14*
X125560000Y-114780001D03*
X126830000Y-117320000D03*
D13*
X129370000Y-112240000D03*
D14*
X131910000Y-117320000D03*
D17*
X131770000Y-105865000D03*
X131770000Y-107615000D03*
X126970000Y-107615000D03*
X126970000Y-105865000D03*
D18*
X122370000Y-114820000D03*
X135070000Y-117360000D03*
D14*
X74750000Y-136400001D03*
D16*
X76710000Y-131320001D03*
D14*
X69670000Y-136400001D03*
X76020000Y-133860001D03*
D15*
X77290000Y-131320001D03*
X67130000Y-131320001D03*
D14*
X68400000Y-133860002D03*
D13*
X72210000Y-131320001D03*
D16*
X67710000Y-131320001D03*
D17*
X74610000Y-124945001D03*
X74610000Y-126695001D03*
X69810000Y-126695001D03*
X69810000Y-124945001D03*
D18*
X65210000Y-133900001D03*
X77910000Y-136440001D03*
D11*
X64410000Y-130765000D03*
X64410000Y-127215000D03*
D12*
X83362100Y-128125000D03*
X83362100Y-129875000D03*
X87762100Y-129875000D03*
X87762100Y-128125000D03*
D11*
X178740000Y-111865000D03*
X178740000Y-108315000D03*
X154850000Y-54415000D03*
X154850000Y-50865000D03*
X145170000Y-73190000D03*
X145170000Y-69640000D03*
D15*
X114770000Y-93180000D03*
D13*
X119850000Y-93180000D03*
D16*
X115350000Y-93180000D03*
X124350000Y-93180000D03*
D14*
X122390000Y-98260000D03*
X116040000Y-95720001D03*
D15*
X124930000Y-93180000D03*
D14*
X117310000Y-98260000D03*
X123660000Y-95720000D03*
D17*
X122250000Y-86805000D03*
X122250000Y-88555000D03*
X117450000Y-88555000D03*
X117450000Y-86805000D03*
D18*
X112850000Y-95760000D03*
X125550000Y-98300000D03*
D13*
X162695000Y-55050000D03*
D15*
X157615000Y-55050000D03*
D16*
X158195000Y-55050000D03*
D15*
X167775000Y-55050000D03*
D14*
X165235000Y-60130000D03*
X166505000Y-57590000D03*
X160155000Y-60130000D03*
D16*
X167195000Y-55050000D03*
D14*
X158885000Y-57590001D03*
D17*
X165095000Y-48675000D03*
X165095000Y-50425000D03*
X160295000Y-50425000D03*
X160295000Y-48675000D03*
D18*
X155695000Y-57630000D03*
X168395000Y-60170000D03*
D14*
X108085000Y-60130000D03*
D15*
X100465000Y-55050000D03*
D16*
X110045000Y-55050000D03*
D14*
X109355000Y-57590000D03*
X101735000Y-57590001D03*
D15*
X110625000Y-55050000D03*
D14*
X103005000Y-60130000D03*
D16*
X101045000Y-55050000D03*
D13*
X105545000Y-55050000D03*
D17*
X107945000Y-48675000D03*
X107945000Y-50425000D03*
X103145000Y-50425000D03*
X103145000Y-48675000D03*
D18*
X98545000Y-57630000D03*
X111245000Y-60170000D03*
D15*
X124280000Y-131300000D03*
D14*
X133170000Y-133840000D03*
X125550000Y-133840001D03*
D16*
X133860000Y-131300000D03*
D14*
X126820000Y-136380000D03*
D16*
X124860000Y-131300000D03*
D15*
X134440000Y-131300000D03*
D13*
X129360000Y-131300000D03*
D14*
X131900000Y-136380000D03*
D17*
X131760000Y-124925000D03*
X131760000Y-126675000D03*
X126960000Y-126675000D03*
X126960000Y-124925000D03*
D18*
X122360000Y-133880000D03*
X135060000Y-136420000D03*
D14*
X98580000Y-79190000D03*
X92230000Y-76650001D03*
X99850000Y-76650000D03*
X93500000Y-79190000D03*
D15*
X90960000Y-74110000D03*
D16*
X91540000Y-74110000D03*
D15*
X101120000Y-74110000D03*
D16*
X100540000Y-74110000D03*
D13*
X96040000Y-74110000D03*
D17*
X98440000Y-67735000D03*
X98440000Y-69485000D03*
X93640000Y-69485000D03*
X93640000Y-67735000D03*
D18*
X89040000Y-76690000D03*
X101740000Y-79230000D03*
D16*
X90995000Y-55050000D03*
D14*
X90305000Y-57590000D03*
X83955000Y-60130000D03*
X82685000Y-57590001D03*
D15*
X81415000Y-55050000D03*
D14*
X89035000Y-60130000D03*
D13*
X86495000Y-55050000D03*
D16*
X81995000Y-55050000D03*
D15*
X91575000Y-55050000D03*
D17*
X88895000Y-48675000D03*
X88895000Y-50425000D03*
X84095000Y-50425000D03*
X84095000Y-48675000D03*
D18*
X79495000Y-57630000D03*
X92195000Y-60170000D03*
D14*
X104530000Y-133850000D03*
D16*
X105220000Y-131310000D03*
D15*
X95640000Y-131310000D03*
D16*
X96220000Y-131310000D03*
D15*
X105800000Y-131310000D03*
D14*
X103260000Y-136390000D03*
D13*
X100720000Y-131310000D03*
D14*
X96910000Y-133850001D03*
X98180000Y-136390000D03*
D17*
X103120000Y-124935000D03*
X103120000Y-126685000D03*
X98320000Y-126685000D03*
X98320000Y-124935000D03*
D18*
X93720000Y-133890000D03*
X106420000Y-136430000D03*
D11*
X116770000Y-54180000D03*
X116770000Y-50630000D03*
X78280000Y-54350000D03*
X78280000Y-50800000D03*
X150210000Y-92895000D03*
X150210000Y-89345000D03*
D13*
X110320000Y-112240000D03*
D14*
X112860000Y-117320000D03*
X114130000Y-114780000D03*
D15*
X105240000Y-112240000D03*
D16*
X105820000Y-112240000D03*
D15*
X115400000Y-112240000D03*
D14*
X107780000Y-117320000D03*
X106510000Y-114780001D03*
D16*
X114820000Y-112240000D03*
D17*
X112720000Y-105865000D03*
X112720000Y-107615000D03*
X107920000Y-107615000D03*
X107920000Y-105865000D03*
D18*
X103320000Y-114820000D03*
X116020000Y-117360000D03*
D29*
X214130000Y-89415000D03*
X214130000Y-82915000D03*
D14*
X147455000Y-57590000D03*
D13*
X143645000Y-55050000D03*
D14*
X141105000Y-60130000D03*
D15*
X138565000Y-55050000D03*
X148725000Y-55050000D03*
D14*
X146185000Y-60130000D03*
D16*
X139145000Y-55050000D03*
D14*
X139835000Y-57590001D03*
D16*
X148145000Y-55050000D03*
D17*
X146045000Y-48675000D03*
X146045000Y-50425000D03*
X141245000Y-50425000D03*
X141245000Y-48675000D03*
D18*
X136645000Y-57630000D03*
X149345000Y-60170000D03*
D15*
X105880000Y-93180000D03*
D14*
X96990000Y-95720001D03*
D13*
X100800000Y-93180000D03*
D16*
X105300000Y-93180000D03*
X96300000Y-93180000D03*
D14*
X103340000Y-98260000D03*
D15*
X95720000Y-93180000D03*
D14*
X104610000Y-95720000D03*
X98260000Y-98260000D03*
D17*
X103200000Y-86805000D03*
X103200000Y-88555000D03*
X98400000Y-88555000D03*
X98400000Y-86805000D03*
D18*
X93800000Y-95760000D03*
X106500000Y-98300000D03*
D11*
X71480000Y-111740000D03*
X71480000Y-108190000D03*
X59570000Y-54490000D03*
X59570000Y-50940000D03*
D16*
X119590000Y-74110000D03*
D15*
X110010000Y-74110000D03*
X120170000Y-74110000D03*
D14*
X117630000Y-79190000D03*
D13*
X115090000Y-74110000D03*
D14*
X112550000Y-79190000D03*
X118900000Y-76650000D03*
D16*
X110590000Y-74110000D03*
D14*
X111280000Y-76650001D03*
D17*
X117490000Y-67735000D03*
X117490000Y-69485000D03*
X112690000Y-69485000D03*
X112690000Y-67735000D03*
D18*
X108090000Y-76690000D03*
X120790000Y-79230000D03*
M02*
