M48
; DRILL file {KiCad (6.0.7)} date 2022年08月16日 星期二 06时32分26秒
; FORMAT={-:-/ absolute / metric / decimal}
; #@! TF.CreationDate,2022-08-16T06:32:26+00:00
; #@! TF.GenerationSoftware,Kicad,Pcbnew,(6.0.7)
; #@! TF.FileFunction,NonPlated,1,2,NPTH
FMAT,2
METRIC
; #@! TA.AperFunction,NonPlated,NPTH,ComponentDrill
T1C0.700
; #@! TA.AperFunction,NonPlated,NPTH,ComponentDrill
T2C1.200
; #@! TA.AperFunction,NonPlated,NPTH,ComponentDrill
T3C1.700
; #@! TA.AperFunction,NonPlated,NPTH,ComponentDrill
T4C1.900
; #@! TA.AperFunction,NonPlated,NPTH,ComponentDrill
T5C3.000
; #@! TA.AperFunction,NonPlated,NPTH,ComponentDrill
T6C4.100
%
G90
G05
T1
X204.83Y-45.11
X207.73Y-45.11
T2
X207.585Y-94.815
X207.585Y-96.565
X214.585Y-94.815
X214.585Y-96.565
T3
X62.94Y-55.05
X67.7Y-74.09
X67.71Y-131.32
X70.1Y-93.15
X71.94Y-55.05
X74.86Y-112.27
X76.7Y-74.09
X76.71Y-131.32
X79.1Y-93.15
X81.995Y-55.05
X83.86Y-112.27
X90.995Y-55.05
X91.54Y-74.11
X96.22Y-131.31
X96.3Y-93.18
X100.54Y-74.11
X101.045Y-55.05
X105.22Y-131.31
X105.3Y-93.18
X105.82Y-112.24
X110.045Y-55.05
X110.59Y-74.11
X114.82Y-112.24
X115.35Y-93.18
X119.59Y-74.11
X120.095Y-55.05
X124.35Y-93.18
X124.86Y-131.3
X124.87Y-112.24
X129.095Y-55.05
X129.64Y-74.11
X133.86Y-131.3
X133.87Y-112.24
X134.4Y-93.18
X138.64Y-74.11
X139.145Y-55.05
X143.4Y-93.18
X143.92Y-112.24
X148.145Y-55.05
X148.69Y-74.11
X152.92Y-112.24
X153.45Y-93.18
X157.69Y-74.11
X158.195Y-55.05
X160.58Y-131.29
X162.45Y-93.18
X162.95Y-112.23
X167.195Y-55.05
X167.74Y-74.11
X169.58Y-131.29
X171.95Y-112.23
X172.5Y-93.18
X176.74Y-74.11
X177.245Y-55.05
X181.5Y-93.18
X182.02Y-112.24
X186.245Y-55.05
X191.02Y-112.24
X196.29Y-131.3
X205.29Y-131.3
T4
X62.36Y-55.05
X67.12Y-74.09
X67.13Y-131.32
X69.52Y-93.15
X72.52Y-55.05
X74.28Y-112.27
X77.28Y-74.09
X77.29Y-131.32
X79.68Y-93.15
X81.415Y-55.05
X84.44Y-112.27
X90.96Y-74.11
X91.575Y-55.05
X95.64Y-131.31
X95.72Y-93.18
X100.465Y-55.05
X101.12Y-74.11
X105.24Y-112.24
X105.8Y-131.31
X105.88Y-93.18
X110.01Y-74.11
X110.625Y-55.05
X114.77Y-93.18
X115.4Y-112.24
X119.515Y-55.05
X120.17Y-74.11
X124.28Y-131.3
X124.29Y-112.24
X124.93Y-93.18
X129.06Y-74.11
X129.675Y-55.05
X133.82Y-93.18
X134.44Y-131.3
X134.45Y-112.24
X138.565Y-55.05
X139.22Y-74.11
X143.34Y-112.24
X143.98Y-93.18
X148.11Y-74.11
X148.725Y-55.05
X152.87Y-93.18
X153.5Y-112.24
X157.615Y-55.05
X158.27Y-74.11
X160.0Y-131.29
X162.37Y-112.23
X163.03Y-93.18
X167.16Y-74.11
X167.775Y-55.05
X170.16Y-131.29
X171.92Y-93.18
X172.53Y-112.23
X176.665Y-55.05
X177.32Y-74.11
X181.44Y-112.24
X182.08Y-93.18
X186.825Y-55.05
X191.6Y-112.24
X195.71Y-131.3
X205.87Y-131.3
T5
X63.63Y-57.59
X64.9Y-60.13
X68.39Y-76.63
X68.4Y-133.86
X69.66Y-79.17
X69.67Y-136.4
X69.98Y-60.13
X70.79Y-95.69
X71.25Y-57.59
X72.06Y-98.23
X74.74Y-79.17
X74.75Y-136.4
X75.55Y-114.81
X76.01Y-76.63
X76.02Y-133.86
X76.82Y-117.35
X77.14Y-98.23
X78.41Y-95.69
X81.9Y-117.35
X82.685Y-57.59
X83.17Y-114.81
X83.955Y-60.13
X89.035Y-60.13
X90.305Y-57.59
X92.23Y-76.65
X93.5Y-79.19
X96.91Y-133.85
X96.99Y-95.72
X98.18Y-136.39
X98.26Y-98.26
X98.58Y-79.19
X99.85Y-76.65
X101.735Y-57.59
X103.005Y-60.13
X103.26Y-136.39
X103.34Y-98.26
X104.53Y-133.85
X104.61Y-95.72
X106.51Y-114.78
X107.78Y-117.32
X108.085Y-60.13
X109.355Y-57.59
X111.28Y-76.65
X112.55Y-79.19
X112.86Y-117.32
X114.13Y-114.78
X116.04Y-95.72
X117.31Y-98.26
X117.63Y-79.19
X118.9Y-76.65
X120.785Y-57.59
X122.055Y-60.13
X122.39Y-98.26
X123.66Y-95.72
X125.55Y-133.84
X125.56Y-114.78
X126.82Y-136.38
X126.83Y-117.32
X127.135Y-60.13
X128.405Y-57.59
X130.33Y-76.65
X131.6Y-79.19
X131.9Y-136.38
X131.91Y-117.32
X133.17Y-133.84
X133.18Y-114.78
X135.09Y-95.72
X136.36Y-98.26
X136.68Y-79.19
X137.95Y-76.65
X139.835Y-57.59
X141.105Y-60.13
X141.44Y-98.26
X142.71Y-95.72
X144.61Y-114.78
X145.88Y-117.32
X146.185Y-60.13
X147.455Y-57.59
X149.38Y-76.65
X150.65Y-79.19
X150.96Y-117.32
X152.23Y-114.78
X154.14Y-95.72
X155.41Y-98.26
X155.73Y-79.19
X157.0Y-76.65
X158.885Y-57.59
X160.155Y-60.13
X160.49Y-98.26
X161.27Y-133.83
X161.76Y-95.72
X162.54Y-136.37
X163.64Y-114.77
X164.91Y-117.31
X165.235Y-60.13
X166.505Y-57.59
X167.62Y-136.37
X168.43Y-76.65
X168.89Y-133.83
X169.7Y-79.19
X169.99Y-117.31
X171.26Y-114.77
X173.19Y-95.72
X174.46Y-98.26
X174.78Y-79.19
X176.05Y-76.65
X177.935Y-57.59
X179.205Y-60.13
X179.54Y-98.26
X180.81Y-95.72
X182.71Y-114.78
X183.98Y-117.32
X184.285Y-60.13
X185.555Y-57.59
X189.06Y-117.32
X190.33Y-114.78
X196.98Y-133.84
X198.25Y-136.38
X203.33Y-136.38
X204.6Y-133.84
T6
X67.44Y-55.05
X72.2Y-74.09
X72.21Y-131.32
X74.6Y-93.15
X79.36Y-112.27
X86.495Y-55.05
X96.04Y-74.11
X100.72Y-131.31
X100.8Y-93.18
X105.545Y-55.05
X110.32Y-112.24
X115.09Y-74.11
X119.85Y-93.18
X124.595Y-55.05
X129.36Y-131.3
X129.37Y-112.24
X134.14Y-74.11
X138.9Y-93.18
X143.645Y-55.05
X148.42Y-112.24
X153.19Y-74.11
X157.95Y-93.18
X162.695Y-55.05
X165.08Y-131.29
X167.45Y-112.23
X172.24Y-74.11
X177.0Y-93.18
X181.745Y-55.05
X186.52Y-112.24
X200.79Y-131.3
T0
M30
