G04 #@! TF.GenerationSoftware,KiCad,Pcbnew,(6.0.7)*
G04 #@! TF.CreationDate,2022-08-10T12:46:35+00:00*
G04 #@! TF.ProjectId,zzsplit,7a7a7370-6c69-4742-9e6b-696361645f70,rev?*
G04 #@! TF.SameCoordinates,Original*
G04 #@! TF.FileFunction,Legend,Top*
G04 #@! TF.FilePolarity,Positive*
%FSLAX46Y46*%
G04 Gerber Fmt 4.6, Leading zero omitted, Abs format (unit mm)*
G04 Created by KiCad (PCBNEW (6.0.7)) date 2022-08-10 12:46:35*
%MOMM*%
%LPD*%
G01*
G04 APERTURE LIST*
G04 Aperture macros list*
%AMRoundRect*
0 Rectangle with rounded corners*
0 $1 Rounding radius*
0 $2 $3 $4 $5 $6 $7 $8 $9 X,Y pos of 4 corners*
0 Add a 4 corners polygon primitive as box body*
4,1,4,$2,$3,$4,$5,$6,$7,$8,$9,$2,$3,0*
0 Add four circle primitives for the rounded corners*
1,1,$1+$1,$2,$3*
1,1,$1+$1,$4,$5*
1,1,$1+$1,$6,$7*
1,1,$1+$1,$8,$9*
0 Add four rect primitives between the rounded corners*
20,1,$1+$1,$2,$3,$4,$5,0*
20,1,$1+$1,$4,$5,$6,$7,0*
20,1,$1+$1,$6,$7,$8,$9,0*
20,1,$1+$1,$8,$9,$2,$3,0*%
G04 Aperture macros list end*
G04 #@! TA.AperFunction,Profile*
%ADD10C,0.150000*%
G04 #@! TD*
G04 #@! TA.AperFunction,Profile*
%ADD11C,0.100000*%
G04 #@! TD*
%ADD12C,0.150000*%
%ADD13C,0.300000*%
%ADD14C,0.400000*%
%ADD15C,1.000000*%
%ADD16C,0.800000*%
%ADD17C,0.500000*%
%ADD18C,3.500000*%
%ADD19C,3.000000*%
%ADD20C,0.381000*%
%ADD21C,1.200000*%
%ADD22O,2.500000X1.700000*%
%ADD23R,1.752600X1.752600*%
%ADD24C,1.752600*%
%ADD25C,1.397000*%
%ADD26R,0.950000X1.300000*%
%ADD27R,2.000000X1.000000*%
%ADD28C,4.100000*%
%ADD29C,3.000000*%
%ADD30C,1.900000*%
%ADD31C,1.700000*%
%ADD32R,1.600000X1.000000*%
%ADD33R,2.300000X2.000000*%
%ADD34C,4.700000*%
%ADD35RoundRect,0.250000X-0.550000X-0.550000X0.550000X-0.550000X0.550000X0.550000X-0.550000X0.550000X0*%
%ADD36C,1.600000*%
%ADD37RoundRect,0.249999X1.025001X1.025001X-1.025001X1.025001X-1.025001X-1.025001X1.025001X-1.025001X0*%
%ADD38C,2.550000*%
%ADD39C,2.000000*%
G04 APERTURE END LIST*
D10*
X65690000Y-47300000D02*
X69190000Y-47300000D01*
X69190000Y-51800000D02*
X65690000Y-51800000D01*
X65690000Y-51800000D02*
X65690000Y-47300000D01*
X69190000Y-47300000D02*
X69190000Y-51800000D01*
X84750000Y-47300000D02*
X88250000Y-47300000D01*
X88250000Y-51800000D02*
X84750000Y-51800000D01*
X84750000Y-51800000D02*
X84750000Y-47300000D01*
X88250000Y-47300000D02*
X88250000Y-51800000D01*
X94290000Y-66360000D02*
X97790000Y-66360000D01*
X97790000Y-70860000D02*
X94290000Y-70860000D01*
X94290000Y-70860000D02*
X94290000Y-66360000D01*
X97790000Y-66360000D02*
X97790000Y-70860000D01*
X70450000Y-66350000D02*
X73950000Y-66350000D01*
X73950000Y-70850000D02*
X70450000Y-70850000D01*
X70450000Y-70850000D02*
X70450000Y-66350000D01*
X73950000Y-66350000D02*
X73950000Y-70850000D01*
X72850000Y-85400000D02*
X76350000Y-85400000D01*
X76350000Y-89900000D02*
X72850000Y-89900000D01*
X72850000Y-89900000D02*
X72850000Y-85400000D01*
X76350000Y-85400000D02*
X76350000Y-89900000D01*
X99050000Y-85430000D02*
X102550000Y-85430000D01*
X102550000Y-89930000D02*
X99050000Y-89930000D01*
X99050000Y-89930000D02*
X99050000Y-85430000D01*
X102550000Y-85430000D02*
X102550000Y-89930000D01*
X77610000Y-104520000D02*
X81110000Y-104520000D01*
X81110000Y-109020000D02*
X77610000Y-109020000D01*
X77610000Y-109020000D02*
X77610000Y-104520000D01*
X81110000Y-104520000D02*
X81110000Y-109020000D01*
X70460000Y-123570000D02*
X73960000Y-123570000D01*
X73960000Y-128070000D02*
X70460000Y-128070000D01*
X70460000Y-128070000D02*
X70460000Y-123570000D01*
X73960000Y-123570000D02*
X73960000Y-128070000D01*
X108560000Y-104500000D02*
X112060000Y-104500000D01*
X112060000Y-109000000D02*
X108560000Y-109000000D01*
X108560000Y-109000000D02*
X108560000Y-104500000D01*
X112060000Y-104500000D02*
X112060000Y-109000000D01*
X98960000Y-123560000D02*
X102460000Y-123560000D01*
X102460000Y-128060000D02*
X98960000Y-128060000D01*
X98960000Y-128060000D02*
X98960000Y-123560000D01*
X102460000Y-123560000D02*
X102460000Y-128060000D01*
X127610000Y-123550000D02*
X131110000Y-123550000D01*
X131110000Y-128050000D02*
X127610000Y-128050000D01*
X127610000Y-128050000D02*
X127610000Y-123550000D01*
X131110000Y-123550000D02*
X131110000Y-128050000D01*
X127620000Y-104490000D02*
X131120000Y-104490000D01*
X131120000Y-108990000D02*
X127620000Y-108990000D01*
X127620000Y-108990000D02*
X127620000Y-104490000D01*
X131120000Y-104490000D02*
X131120000Y-108990000D01*
X118100000Y-85430000D02*
X121600000Y-85430000D01*
X121600000Y-89930000D02*
X118100000Y-89930000D01*
X118100000Y-89930000D02*
X118100000Y-85430000D01*
X121600000Y-85430000D02*
X121600000Y-89930000D01*
X113330000Y-66360000D02*
X116830000Y-66360000D01*
X116830000Y-70860000D02*
X113330000Y-70860000D01*
X113330000Y-70860000D02*
X113330000Y-66360000D01*
X116830000Y-66360000D02*
X116830000Y-70860000D01*
X103790000Y-47300000D02*
X107290000Y-47300000D01*
X107290000Y-51800000D02*
X103790000Y-51800000D01*
X103790000Y-51800000D02*
X103790000Y-47300000D01*
X107290000Y-47300000D02*
X107290000Y-51800000D01*
X122840000Y-47300000D02*
X126340000Y-47300000D01*
X126340000Y-51800000D02*
X122840000Y-51800000D01*
X122840000Y-51800000D02*
X122840000Y-47300000D01*
X126340000Y-47300000D02*
X126340000Y-51800000D01*
X141890000Y-47300000D02*
X145390000Y-47300000D01*
X145390000Y-51800000D02*
X141890000Y-51800000D01*
X141890000Y-51800000D02*
X141890000Y-47300000D01*
X145390000Y-47300000D02*
X145390000Y-51800000D01*
X132390000Y-66360000D02*
X135890000Y-66360000D01*
X135890000Y-70860000D02*
X132390000Y-70860000D01*
X132390000Y-70860000D02*
X132390000Y-66360000D01*
X135890000Y-66360000D02*
X135890000Y-70860000D01*
X137150000Y-85420000D02*
X140650000Y-85420000D01*
X140650000Y-89920000D02*
X137150000Y-89920000D01*
X137150000Y-89920000D02*
X137150000Y-85420000D01*
X140650000Y-85420000D02*
X140650000Y-89920000D01*
X146670000Y-104490000D02*
X150170000Y-104490000D01*
X150170000Y-108990000D02*
X146670000Y-108990000D01*
X146670000Y-108990000D02*
X146670000Y-104490000D01*
X150170000Y-104490000D02*
X150170000Y-108990000D01*
X160950000Y-47300000D02*
X164450000Y-47300000D01*
X164450000Y-51800000D02*
X160950000Y-51800000D01*
X160950000Y-51800000D02*
X160950000Y-47300000D01*
X164450000Y-47300000D02*
X164450000Y-51800000D01*
X151440000Y-66360000D02*
X154940000Y-66360000D01*
X154940000Y-70860000D02*
X151440000Y-70860000D01*
X151440000Y-70860000D02*
X151440000Y-66360000D01*
X154940000Y-66360000D02*
X154940000Y-70860000D01*
X156200000Y-85420000D02*
X159700000Y-85420000D01*
X159700000Y-89920000D02*
X156200000Y-89920000D01*
X156200000Y-89920000D02*
X156200000Y-85420000D01*
X159700000Y-85420000D02*
X159700000Y-89920000D01*
X165700000Y-104480000D02*
X169200000Y-104480000D01*
X169200000Y-108980000D02*
X165700000Y-108980000D01*
X165700000Y-108980000D02*
X165700000Y-104480000D01*
X169200000Y-104480000D02*
X169200000Y-108980000D01*
X163330000Y-123540000D02*
X166830000Y-123540000D01*
X166830000Y-128040000D02*
X163330000Y-128040000D01*
X163330000Y-128040000D02*
X163330000Y-123540000D01*
X166830000Y-123540000D02*
X166830000Y-128040000D01*
X199040000Y-123550000D02*
X202540000Y-123550000D01*
X202540000Y-128050000D02*
X199040000Y-128050000D01*
X199040000Y-128050000D02*
X199040000Y-123550000D01*
X202540000Y-123550000D02*
X202540000Y-128050000D01*
X184770000Y-104490000D02*
X188270000Y-104490000D01*
X188270000Y-108990000D02*
X184770000Y-108990000D01*
X184770000Y-108990000D02*
X184770000Y-104490000D01*
X188270000Y-104490000D02*
X188270000Y-108990000D01*
X180000000Y-47300000D02*
X183500000Y-47300000D01*
X183500000Y-51800000D02*
X180000000Y-51800000D01*
X180000000Y-51800000D02*
X180000000Y-47300000D01*
X183500000Y-47300000D02*
X183500000Y-51800000D01*
X170490000Y-66360000D02*
X173990000Y-66360000D01*
X173990000Y-70860000D02*
X170490000Y-70860000D01*
X170490000Y-70860000D02*
X170490000Y-66360000D01*
X173990000Y-66360000D02*
X173990000Y-70860000D01*
X175250000Y-85430000D02*
X178750000Y-85430000D01*
X178750000Y-89930000D02*
X175250000Y-89930000D01*
X175250000Y-89930000D02*
X175250000Y-85430000D01*
X178750000Y-85430000D02*
X178750000Y-89930000D01*
D11*
X58200000Y-43460000D02*
X214110000Y-43490001D01*
X55740000Y-139720000D02*
G75*
G03*
X58240000Y-142220000I2500000J0D01*
G01*
X216600019Y-45990000D02*
X216630000Y-139850000D01*
X214109920Y-142359980D02*
X58240000Y-142220000D01*
X55700000Y-45960000D02*
X55740000Y-139720000D01*
X214109920Y-142359980D02*
G75*
G03*
X216630000Y-139850000I10080J2509980D01*
G01*
X216600019Y-45990000D02*
G75*
G03*
X214110000Y-43490001I-2500019J0D01*
G01*
X58200000Y-43460000D02*
G75*
G03*
X55700000Y-45960000I0J-2500000D01*
G01*
D12*
X209087380Y-97576904D02*
X209087380Y-97005476D01*
X210087380Y-97291190D02*
X209087380Y-97291190D01*
X210087380Y-96100714D02*
X209611190Y-96434047D01*
X210087380Y-96672142D02*
X209087380Y-96672142D01*
X209087380Y-96291190D01*
X209135000Y-96195952D01*
X209182619Y-96148333D01*
X209277857Y-96100714D01*
X209420714Y-96100714D01*
X209515952Y-96148333D01*
X209563571Y-96195952D01*
X209611190Y-96291190D01*
X209611190Y-96672142D01*
X210087380Y-95100714D02*
X209611190Y-95434047D01*
X210087380Y-95672142D02*
X209087380Y-95672142D01*
X209087380Y-95291190D01*
X209135000Y-95195952D01*
X209182619Y-95148333D01*
X209277857Y-95100714D01*
X209420714Y-95100714D01*
X209515952Y-95148333D01*
X209563571Y-95195952D01*
X209611190Y-95291190D01*
X209611190Y-95672142D01*
X210039761Y-94719761D02*
X210087380Y-94576904D01*
X210087380Y-94338809D01*
X210039761Y-94243571D01*
X209992142Y-94195952D01*
X209896904Y-94148333D01*
X209801666Y-94148333D01*
X209706428Y-94195952D01*
X209658809Y-94243571D01*
X209611190Y-94338809D01*
X209563571Y-94529285D01*
X209515952Y-94624523D01*
X209468333Y-94672142D01*
X209373095Y-94719761D01*
X209277857Y-94719761D01*
X209182619Y-94672142D01*
X209135000Y-94624523D01*
X209087380Y-94529285D01*
X209087380Y-94291190D01*
X209135000Y-94148333D01*
X209087380Y-97576904D02*
X209087380Y-97005476D01*
X210087380Y-97291190D02*
X209087380Y-97291190D01*
X210087380Y-96100714D02*
X209611190Y-96434047D01*
X210087380Y-96672142D02*
X209087380Y-96672142D01*
X209087380Y-96291190D01*
X209135000Y-96195952D01*
X209182619Y-96148333D01*
X209277857Y-96100714D01*
X209420714Y-96100714D01*
X209515952Y-96148333D01*
X209563571Y-96195952D01*
X209611190Y-96291190D01*
X209611190Y-96672142D01*
X210087380Y-95100714D02*
X209611190Y-95434047D01*
X210087380Y-95672142D02*
X209087380Y-95672142D01*
X209087380Y-95291190D01*
X209135000Y-95195952D01*
X209182619Y-95148333D01*
X209277857Y-95100714D01*
X209420714Y-95100714D01*
X209515952Y-95148333D01*
X209563571Y-95195952D01*
X209611190Y-95291190D01*
X209611190Y-95672142D01*
X210039761Y-94719761D02*
X210087380Y-94576904D01*
X210087380Y-94338809D01*
X210039761Y-94243571D01*
X209992142Y-94195952D01*
X209896904Y-94148333D01*
X209801666Y-94148333D01*
X209706428Y-94195952D01*
X209658809Y-94243571D01*
X209611190Y-94338809D01*
X209563571Y-94529285D01*
X209515952Y-94624523D01*
X209468333Y-94672142D01*
X209373095Y-94719761D01*
X209277857Y-94719761D01*
X209182619Y-94672142D01*
X209135000Y-94624523D01*
X209087380Y-94529285D01*
X209087380Y-94291190D01*
X209135000Y-94148333D01*
X205541666Y-75997380D02*
X205541666Y-76711666D01*
X205494047Y-76854523D01*
X205398809Y-76949761D01*
X205255952Y-76997380D01*
X205160714Y-76997380D01*
X205922619Y-75997380D02*
X206541666Y-75997380D01*
X206208333Y-76378333D01*
X206351190Y-76378333D01*
X206446428Y-76425952D01*
X206494047Y-76473571D01*
X206541666Y-76568809D01*
X206541666Y-76806904D01*
X206494047Y-76902142D01*
X206446428Y-76949761D01*
X206351190Y-76997380D01*
X206065476Y-76997380D01*
X205970238Y-76949761D01*
X205922619Y-76902142D01*
X199823523Y-71368654D02*
X199823523Y-70568654D01*
X200014000Y-70568654D01*
X200128285Y-70606750D01*
X200204476Y-70682940D01*
X200242571Y-70759130D01*
X200280666Y-70911511D01*
X200280666Y-71025797D01*
X200242571Y-71178178D01*
X200204476Y-71254369D01*
X200128285Y-71330559D01*
X200014000Y-71368654D01*
X199823523Y-71368654D01*
X200547333Y-70568654D02*
X201080666Y-70568654D01*
X200737809Y-71368654D01*
X210726476Y-52826750D02*
X210650285Y-52788654D01*
X210536000Y-52788654D01*
X210421714Y-52826750D01*
X210345523Y-52902940D01*
X210307428Y-52979130D01*
X210269333Y-53131511D01*
X210269333Y-53245797D01*
X210307428Y-53398178D01*
X210345523Y-53474369D01*
X210421714Y-53550559D01*
X210536000Y-53588654D01*
X210612190Y-53588654D01*
X210726476Y-53550559D01*
X210764571Y-53512464D01*
X210764571Y-53245797D01*
X210612190Y-53245797D01*
X211107428Y-53588654D02*
X211107428Y-52788654D01*
X211564571Y-53588654D01*
X211564571Y-52788654D01*
X211945523Y-53588654D02*
X211945523Y-52788654D01*
X212136000Y-52788654D01*
X212250285Y-52826750D01*
X212326476Y-52902940D01*
X212364571Y-52979130D01*
X212402666Y-53131511D01*
X212402666Y-53245797D01*
X212364571Y-53398178D01*
X212326476Y-53474369D01*
X212250285Y-53550559D01*
X212136000Y-53588654D01*
X211945523Y-53588654D01*
X200112651Y-50248654D02*
X200569794Y-50248654D01*
X200341223Y-51048654D02*
X200341223Y-50248654D01*
X200760270Y-50248654D02*
X201293604Y-51048654D01*
X201293604Y-50248654D02*
X200760270Y-51048654D01*
X201750747Y-50248654D02*
X201826937Y-50248654D01*
X201903128Y-50286750D01*
X201941223Y-50324845D01*
X201979318Y-50401035D01*
X202017413Y-50553416D01*
X202017413Y-50743892D01*
X201979318Y-50896273D01*
X201941223Y-50972464D01*
X201903128Y-51010559D01*
X201826937Y-51048654D01*
X201750747Y-51048654D01*
X201674556Y-51010559D01*
X201636461Y-50972464D01*
X201598366Y-50896273D01*
X201560270Y-50743892D01*
X201560270Y-50553416D01*
X201598366Y-50401035D01*
X201636461Y-50324845D01*
X201674556Y-50286750D01*
X201750747Y-50248654D01*
X202931699Y-50210559D02*
X202245985Y-51239130D01*
X203198366Y-51048654D02*
X203198366Y-50248654D01*
X203388842Y-50248654D01*
X203503128Y-50286750D01*
X203579318Y-50362940D01*
X203617413Y-50439130D01*
X203655508Y-50591511D01*
X203655508Y-50705797D01*
X203617413Y-50858178D01*
X203579318Y-50934369D01*
X203503128Y-51010559D01*
X203388842Y-51048654D01*
X203198366Y-51048654D01*
X203922175Y-50248654D02*
X204417413Y-50248654D01*
X204150747Y-50553416D01*
X204265032Y-50553416D01*
X204341223Y-50591511D01*
X204379318Y-50629607D01*
X204417413Y-50705797D01*
X204417413Y-50896273D01*
X204379318Y-50972464D01*
X204341223Y-51010559D01*
X204265032Y-51048654D01*
X204036461Y-51048654D01*
X203960270Y-51010559D01*
X203922175Y-50972464D01*
X211069333Y-60789607D02*
X210802666Y-60789607D01*
X210802666Y-61208654D02*
X210802666Y-60408654D01*
X211183619Y-60408654D01*
X211831238Y-60675321D02*
X211831238Y-61208654D01*
X211640761Y-60370559D02*
X211450285Y-60941988D01*
X211945523Y-60941988D01*
X211074786Y-56060559D02*
X211189072Y-56098654D01*
X211379548Y-56098654D01*
X211455739Y-56060559D01*
X211493834Y-56022464D01*
X211531929Y-55946273D01*
X211531929Y-55870083D01*
X211493834Y-55793892D01*
X211455739Y-55755797D01*
X211379548Y-55717702D01*
X211227167Y-55679607D01*
X211150977Y-55641511D01*
X211112881Y-55603416D01*
X211074786Y-55527226D01*
X211074786Y-55451035D01*
X211112881Y-55374845D01*
X211150977Y-55336750D01*
X211227167Y-55298654D01*
X211417643Y-55298654D01*
X211531929Y-55336750D01*
X211760500Y-55298654D02*
X212217643Y-55298654D01*
X211989072Y-56098654D02*
X211989072Y-55298654D01*
X200090190Y-76029607D02*
X200204476Y-76067702D01*
X200242571Y-76105797D01*
X200280666Y-76181988D01*
X200280666Y-76296273D01*
X200242571Y-76372464D01*
X200204476Y-76410559D01*
X200128285Y-76448654D01*
X199823523Y-76448654D01*
X199823523Y-75648654D01*
X200090190Y-75648654D01*
X200166380Y-75686750D01*
X200204476Y-75724845D01*
X200242571Y-75801035D01*
X200242571Y-75877226D01*
X200204476Y-75953416D01*
X200166380Y-75991511D01*
X200090190Y-76029607D01*
X199823523Y-76029607D01*
X200966380Y-75915321D02*
X200966380Y-76448654D01*
X200775904Y-75610559D02*
X200585428Y-76181988D01*
X201080666Y-76181988D01*
X200280666Y-68752464D02*
X200242571Y-68790559D01*
X200128285Y-68828654D01*
X200052095Y-68828654D01*
X199937809Y-68790559D01*
X199861619Y-68714369D01*
X199823523Y-68638178D01*
X199785428Y-68485797D01*
X199785428Y-68371511D01*
X199823523Y-68219130D01*
X199861619Y-68142940D01*
X199937809Y-68066750D01*
X200052095Y-68028654D01*
X200128285Y-68028654D01*
X200242571Y-68066750D01*
X200280666Y-68104845D01*
X200966380Y-68028654D02*
X200814000Y-68028654D01*
X200737809Y-68066750D01*
X200699714Y-68104845D01*
X200623523Y-68219130D01*
X200585428Y-68371511D01*
X200585428Y-68676273D01*
X200623523Y-68752464D01*
X200661619Y-68790559D01*
X200737809Y-68828654D01*
X200890190Y-68828654D01*
X200966380Y-68790559D01*
X201004476Y-68752464D01*
X201042571Y-68676273D01*
X201042571Y-68485797D01*
X201004476Y-68409607D01*
X200966380Y-68371511D01*
X200890190Y-68333416D01*
X200737809Y-68333416D01*
X200661619Y-68371511D01*
X200623523Y-68409607D01*
X200585428Y-68485797D01*
X211012190Y-73489607D02*
X211126476Y-73527702D01*
X211164571Y-73565797D01*
X211202666Y-73641988D01*
X211202666Y-73756273D01*
X211164571Y-73832464D01*
X211126476Y-73870559D01*
X211050285Y-73908654D01*
X210745523Y-73908654D01*
X210745523Y-73108654D01*
X211012190Y-73108654D01*
X211088380Y-73146750D01*
X211126476Y-73184845D01*
X211164571Y-73261035D01*
X211164571Y-73337226D01*
X211126476Y-73413416D01*
X211088380Y-73451511D01*
X211012190Y-73489607D01*
X210745523Y-73489607D01*
X211469333Y-73108654D02*
X211964571Y-73108654D01*
X211697904Y-73413416D01*
X211812190Y-73413416D01*
X211888380Y-73451511D01*
X211926476Y-73489607D01*
X211964571Y-73565797D01*
X211964571Y-73756273D01*
X211926476Y-73832464D01*
X211888380Y-73870559D01*
X211812190Y-73908654D01*
X211583619Y-73908654D01*
X211507428Y-73870559D01*
X211469333Y-73832464D01*
X211012190Y-76029607D02*
X211126476Y-76067702D01*
X211164571Y-76105797D01*
X211202666Y-76181988D01*
X211202666Y-76296273D01*
X211164571Y-76372464D01*
X211126476Y-76410559D01*
X211050285Y-76448654D01*
X210745523Y-76448654D01*
X210745523Y-75648654D01*
X211012190Y-75648654D01*
X211088380Y-75686750D01*
X211126476Y-75724845D01*
X211164571Y-75801035D01*
X211164571Y-75877226D01*
X211126476Y-75953416D01*
X211088380Y-75991511D01*
X211012190Y-76029607D01*
X210745523Y-76029607D01*
X211507428Y-75724845D02*
X211545523Y-75686750D01*
X211621714Y-75648654D01*
X211812190Y-75648654D01*
X211888380Y-75686750D01*
X211926476Y-75724845D01*
X211964571Y-75801035D01*
X211964571Y-75877226D01*
X211926476Y-75991511D01*
X211469333Y-76448654D01*
X211964571Y-76448654D01*
X211012190Y-70949607D02*
X211126476Y-70987702D01*
X211164571Y-71025797D01*
X211202666Y-71101988D01*
X211202666Y-71216273D01*
X211164571Y-71292464D01*
X211126476Y-71330559D01*
X211050285Y-71368654D01*
X210745523Y-71368654D01*
X210745523Y-70568654D01*
X211012190Y-70568654D01*
X211088380Y-70606750D01*
X211126476Y-70644845D01*
X211164571Y-70721035D01*
X211164571Y-70797226D01*
X211126476Y-70873416D01*
X211088380Y-70911511D01*
X211012190Y-70949607D01*
X210745523Y-70949607D01*
X211964571Y-71368654D02*
X211507428Y-71368654D01*
X211736000Y-71368654D02*
X211736000Y-70568654D01*
X211659809Y-70682940D01*
X211583619Y-70759130D01*
X211507428Y-70797226D01*
X199823523Y-61208654D02*
X199823523Y-60408654D01*
X200014000Y-60408654D01*
X200128285Y-60446750D01*
X200204476Y-60522940D01*
X200242571Y-60599130D01*
X200280666Y-60751511D01*
X200280666Y-60865797D01*
X200242571Y-61018178D01*
X200204476Y-61094369D01*
X200128285Y-61170559D01*
X200014000Y-61208654D01*
X199823523Y-61208654D01*
X201042571Y-61208654D02*
X200585428Y-61208654D01*
X200814000Y-61208654D02*
X200814000Y-60408654D01*
X200737809Y-60522940D01*
X200661619Y-60599130D01*
X200585428Y-60637226D01*
X211069333Y-68409607D02*
X210802666Y-68409607D01*
X210802666Y-68828654D02*
X210802666Y-68028654D01*
X211183619Y-68028654D01*
X211412190Y-68028654D02*
X211945523Y-68028654D01*
X211602666Y-68828654D01*
X210783619Y-51048654D02*
X210516952Y-50667702D01*
X210326476Y-51048654D02*
X210326476Y-50248654D01*
X210631238Y-50248654D01*
X210707428Y-50286750D01*
X210745523Y-50324845D01*
X210783619Y-50401035D01*
X210783619Y-50515321D01*
X210745523Y-50591511D01*
X210707428Y-50629607D01*
X210631238Y-50667702D01*
X210326476Y-50667702D01*
X211088380Y-50820083D02*
X211469333Y-50820083D01*
X211012190Y-51048654D02*
X211278857Y-50248654D01*
X211545523Y-51048654D01*
X211736000Y-50248654D02*
X211926476Y-51048654D01*
X212078857Y-50477226D01*
X212231238Y-51048654D01*
X212421714Y-50248654D01*
X211012190Y-78569607D02*
X211126476Y-78607702D01*
X211164571Y-78645797D01*
X211202666Y-78721988D01*
X211202666Y-78836273D01*
X211164571Y-78912464D01*
X211126476Y-78950559D01*
X211050285Y-78988654D01*
X210745523Y-78988654D01*
X210745523Y-78188654D01*
X211012190Y-78188654D01*
X211088380Y-78226750D01*
X211126476Y-78264845D01*
X211164571Y-78341035D01*
X211164571Y-78417226D01*
X211126476Y-78493416D01*
X211088380Y-78531511D01*
X211012190Y-78569607D01*
X210745523Y-78569607D01*
X211888380Y-78188654D02*
X211736000Y-78188654D01*
X211659809Y-78226750D01*
X211621714Y-78264845D01*
X211545523Y-78379130D01*
X211507428Y-78531511D01*
X211507428Y-78836273D01*
X211545523Y-78912464D01*
X211583619Y-78950559D01*
X211659809Y-78988654D01*
X211812190Y-78988654D01*
X211888380Y-78950559D01*
X211926476Y-78912464D01*
X211964571Y-78836273D01*
X211964571Y-78645797D01*
X211926476Y-78569607D01*
X211888380Y-78531511D01*
X211812190Y-78493416D01*
X211659809Y-78493416D01*
X211583619Y-78531511D01*
X211545523Y-78569607D01*
X211507428Y-78645797D01*
X210269333Y-57868654D02*
X210536000Y-58668654D01*
X210802666Y-57868654D01*
X211526476Y-58592464D02*
X211488380Y-58630559D01*
X211374095Y-58668654D01*
X211297904Y-58668654D01*
X211183619Y-58630559D01*
X211107428Y-58554369D01*
X211069333Y-58478178D01*
X211031238Y-58325797D01*
X211031238Y-58211511D01*
X211069333Y-58059130D01*
X211107428Y-57982940D01*
X211183619Y-57906750D01*
X211297904Y-57868654D01*
X211374095Y-57868654D01*
X211488380Y-57906750D01*
X211526476Y-57944845D01*
X212326476Y-58592464D02*
X212288380Y-58630559D01*
X212174095Y-58668654D01*
X212097904Y-58668654D01*
X211983619Y-58630559D01*
X211907428Y-58554369D01*
X211869333Y-58478178D01*
X211831238Y-58325797D01*
X211831238Y-58211511D01*
X211869333Y-58059130D01*
X211907428Y-57982940D01*
X211983619Y-57906750D01*
X212097904Y-57868654D01*
X212174095Y-57868654D01*
X212288380Y-57906750D01*
X212326476Y-57944845D01*
X211069333Y-65869607D02*
X210802666Y-65869607D01*
X210802666Y-66288654D02*
X210802666Y-65488654D01*
X211183619Y-65488654D01*
X211831238Y-65488654D02*
X211678857Y-65488654D01*
X211602666Y-65526750D01*
X211564571Y-65564845D01*
X211488380Y-65679130D01*
X211450285Y-65831511D01*
X211450285Y-66136273D01*
X211488380Y-66212464D01*
X211526476Y-66250559D01*
X211602666Y-66288654D01*
X211755047Y-66288654D01*
X211831238Y-66250559D01*
X211869333Y-66212464D01*
X211907428Y-66136273D01*
X211907428Y-65945797D01*
X211869333Y-65869607D01*
X211831238Y-65831511D01*
X211755047Y-65793416D01*
X211602666Y-65793416D01*
X211526476Y-65831511D01*
X211488380Y-65869607D01*
X211450285Y-65945797D01*
X199861619Y-73489607D02*
X200128285Y-73489607D01*
X200242571Y-73908654D02*
X199861619Y-73908654D01*
X199861619Y-73108654D01*
X200242571Y-73108654D01*
X200928285Y-73108654D02*
X200775904Y-73108654D01*
X200699714Y-73146750D01*
X200661619Y-73184845D01*
X200585428Y-73299130D01*
X200547333Y-73451511D01*
X200547333Y-73756273D01*
X200585428Y-73832464D01*
X200623523Y-73870559D01*
X200699714Y-73908654D01*
X200852095Y-73908654D01*
X200928285Y-73870559D01*
X200966380Y-73832464D01*
X201004476Y-73756273D01*
X201004476Y-73565797D01*
X200966380Y-73489607D01*
X200928285Y-73451511D01*
X200852095Y-73413416D01*
X200699714Y-73413416D01*
X200623523Y-73451511D01*
X200585428Y-73489607D01*
X200547333Y-73565797D01*
X199823523Y-66288654D02*
X199823523Y-65488654D01*
X200014000Y-65488654D01*
X200128285Y-65526750D01*
X200204476Y-65602940D01*
X200242571Y-65679130D01*
X200280666Y-65831511D01*
X200280666Y-65945797D01*
X200242571Y-66098178D01*
X200204476Y-66174369D01*
X200128285Y-66250559D01*
X200014000Y-66288654D01*
X199823523Y-66288654D01*
X200966380Y-65755321D02*
X200966380Y-66288654D01*
X200775904Y-65450559D02*
X200585428Y-66021988D01*
X201080666Y-66021988D01*
X199804476Y-57906750D02*
X199728285Y-57868654D01*
X199614000Y-57868654D01*
X199499714Y-57906750D01*
X199423523Y-57982940D01*
X199385428Y-58059130D01*
X199347333Y-58211511D01*
X199347333Y-58325797D01*
X199385428Y-58478178D01*
X199423523Y-58554369D01*
X199499714Y-58630559D01*
X199614000Y-58668654D01*
X199690190Y-58668654D01*
X199804476Y-58630559D01*
X199842571Y-58592464D01*
X199842571Y-58325797D01*
X199690190Y-58325797D01*
X200185428Y-58668654D02*
X200185428Y-57868654D01*
X200642571Y-58668654D01*
X200642571Y-57868654D01*
X201023523Y-58668654D02*
X201023523Y-57868654D01*
X201214000Y-57868654D01*
X201328285Y-57906750D01*
X201404476Y-57982940D01*
X201442571Y-58059130D01*
X201480666Y-58211511D01*
X201480666Y-58325797D01*
X201442571Y-58478178D01*
X201404476Y-58554369D01*
X201328285Y-58630559D01*
X201214000Y-58668654D01*
X201023523Y-58668654D01*
X199804476Y-55366750D02*
X199728285Y-55328654D01*
X199614000Y-55328654D01*
X199499714Y-55366750D01*
X199423523Y-55442940D01*
X199385428Y-55519130D01*
X199347333Y-55671511D01*
X199347333Y-55785797D01*
X199385428Y-55938178D01*
X199423523Y-56014369D01*
X199499714Y-56090559D01*
X199614000Y-56128654D01*
X199690190Y-56128654D01*
X199804476Y-56090559D01*
X199842571Y-56052464D01*
X199842571Y-55785797D01*
X199690190Y-55785797D01*
X200185428Y-56128654D02*
X200185428Y-55328654D01*
X200642571Y-56128654D01*
X200642571Y-55328654D01*
X201023523Y-56128654D02*
X201023523Y-55328654D01*
X201214000Y-55328654D01*
X201328285Y-55366750D01*
X201404476Y-55442940D01*
X201442571Y-55519130D01*
X201480666Y-55671511D01*
X201480666Y-55785797D01*
X201442571Y-55938178D01*
X201404476Y-56014369D01*
X201328285Y-56090559D01*
X201214000Y-56128654D01*
X201023523Y-56128654D01*
X199823523Y-53588654D02*
X199823523Y-52788654D01*
X200014000Y-52788654D01*
X200128285Y-52826750D01*
X200204476Y-52902940D01*
X200242571Y-52979130D01*
X200280666Y-53131511D01*
X200280666Y-53245797D01*
X200242571Y-53398178D01*
X200204476Y-53474369D01*
X200128285Y-53550559D01*
X200014000Y-53588654D01*
X199823523Y-53588654D01*
X200585428Y-52864845D02*
X200623523Y-52826750D01*
X200699714Y-52788654D01*
X200890190Y-52788654D01*
X200966380Y-52826750D01*
X201004476Y-52864845D01*
X201042571Y-52941035D01*
X201042571Y-53017226D01*
X201004476Y-53131511D01*
X200547333Y-53588654D01*
X201042571Y-53588654D01*
X199823523Y-63748654D02*
X199823523Y-62948654D01*
X200014000Y-62948654D01*
X200128285Y-62986750D01*
X200204476Y-63062940D01*
X200242571Y-63139130D01*
X200280666Y-63291511D01*
X200280666Y-63405797D01*
X200242571Y-63558178D01*
X200204476Y-63634369D01*
X200128285Y-63710559D01*
X200014000Y-63748654D01*
X199823523Y-63748654D01*
X200775904Y-62948654D02*
X200852095Y-62948654D01*
X200928285Y-62986750D01*
X200966380Y-63024845D01*
X201004476Y-63101035D01*
X201042571Y-63253416D01*
X201042571Y-63443892D01*
X201004476Y-63596273D01*
X200966380Y-63672464D01*
X200928285Y-63710559D01*
X200852095Y-63748654D01*
X200775904Y-63748654D01*
X200699714Y-63710559D01*
X200661619Y-63672464D01*
X200623523Y-63596273D01*
X200585428Y-63443892D01*
X200585428Y-63253416D01*
X200623523Y-63101035D01*
X200661619Y-63024845D01*
X200699714Y-62986750D01*
X200775904Y-62948654D01*
X211069333Y-63329607D02*
X210802666Y-63329607D01*
X210802666Y-63748654D02*
X210802666Y-62948654D01*
X211183619Y-62948654D01*
X211869333Y-62948654D02*
X211488380Y-62948654D01*
X211450285Y-63329607D01*
X211488380Y-63291511D01*
X211564571Y-63253416D01*
X211755047Y-63253416D01*
X211831238Y-63291511D01*
X211869333Y-63329607D01*
X211907428Y-63405797D01*
X211907428Y-63596273D01*
X211869333Y-63672464D01*
X211831238Y-63710559D01*
X211755047Y-63748654D01*
X211564571Y-63748654D01*
X211488380Y-63710559D01*
X211450285Y-63672464D01*
X200090190Y-78569607D02*
X200204476Y-78607702D01*
X200242571Y-78645797D01*
X200280666Y-78721988D01*
X200280666Y-78836273D01*
X200242571Y-78912464D01*
X200204476Y-78950559D01*
X200128285Y-78988654D01*
X199823523Y-78988654D01*
X199823523Y-78188654D01*
X200090190Y-78188654D01*
X200166380Y-78226750D01*
X200204476Y-78264845D01*
X200242571Y-78341035D01*
X200242571Y-78417226D01*
X200204476Y-78493416D01*
X200166380Y-78531511D01*
X200090190Y-78569607D01*
X199823523Y-78569607D01*
X201004476Y-78188654D02*
X200623523Y-78188654D01*
X200585428Y-78569607D01*
X200623523Y-78531511D01*
X200699714Y-78493416D01*
X200890190Y-78493416D01*
X200966380Y-78531511D01*
X201004476Y-78569607D01*
X201042571Y-78645797D01*
X201042571Y-78836273D01*
X201004476Y-78912464D01*
X200966380Y-78950559D01*
X200890190Y-78988654D01*
X200699714Y-78988654D01*
X200623523Y-78950559D01*
X200585428Y-78912464D01*
X204700476Y-50304761D02*
X204843333Y-50352380D01*
X205081428Y-50352380D01*
X205176666Y-50304761D01*
X205224285Y-50257142D01*
X205271904Y-50161904D01*
X205271904Y-50066666D01*
X205224285Y-49971428D01*
X205176666Y-49923809D01*
X205081428Y-49876190D01*
X204890952Y-49828571D01*
X204795714Y-49780952D01*
X204748095Y-49733333D01*
X204700476Y-49638095D01*
X204700476Y-49542857D01*
X204748095Y-49447619D01*
X204795714Y-49400000D01*
X204890952Y-49352380D01*
X205129047Y-49352380D01*
X205271904Y-49400000D01*
X205605238Y-49352380D02*
X205843333Y-50352380D01*
X206033809Y-49638095D01*
X206224285Y-50352380D01*
X206462380Y-49352380D01*
X206748095Y-49352380D02*
X207367142Y-49352380D01*
X207033809Y-49733333D01*
X207176666Y-49733333D01*
X207271904Y-49780952D01*
X207319523Y-49828571D01*
X207367142Y-49923809D01*
X207367142Y-50161904D01*
X207319523Y-50257142D01*
X207271904Y-50304761D01*
X207176666Y-50352380D01*
X206890952Y-50352380D01*
X206795714Y-50304761D01*
X206748095Y-50257142D01*
X208319523Y-50352380D02*
X207748095Y-50352380D01*
X208033809Y-50352380D02*
X208033809Y-49352380D01*
X207938571Y-49495238D01*
X207843333Y-49590476D01*
X207748095Y-49638095D01*
X214491904Y-87326904D02*
X214110952Y-87593571D01*
X214491904Y-87784047D02*
X213691904Y-87784047D01*
X213691904Y-87479285D01*
X213730000Y-87403095D01*
X213768095Y-87365000D01*
X213844285Y-87326904D01*
X213958571Y-87326904D01*
X214034761Y-87365000D01*
X214072857Y-87403095D01*
X214110952Y-87479285D01*
X214110952Y-87784047D01*
X214072857Y-86984047D02*
X214072857Y-86717380D01*
X214491904Y-86603095D02*
X214491904Y-86984047D01*
X213691904Y-86984047D01*
X213691904Y-86603095D01*
X214453809Y-86298333D02*
X214491904Y-86184047D01*
X214491904Y-85993571D01*
X214453809Y-85917380D01*
X214415714Y-85879285D01*
X214339523Y-85841190D01*
X214263333Y-85841190D01*
X214187142Y-85879285D01*
X214149047Y-85917380D01*
X214110952Y-85993571D01*
X214072857Y-86145952D01*
X214034761Y-86222142D01*
X213996666Y-86260238D01*
X213920476Y-86298333D01*
X213844285Y-86298333D01*
X213768095Y-86260238D01*
X213730000Y-86222142D01*
X213691904Y-86145952D01*
X213691904Y-85955476D01*
X213730000Y-85841190D01*
X214072857Y-85498333D02*
X214072857Y-85231666D01*
X214491904Y-85117380D02*
X214491904Y-85498333D01*
X213691904Y-85498333D01*
X213691904Y-85117380D01*
X213691904Y-84888809D02*
X213691904Y-84431666D01*
X214491904Y-84660238D02*
X213691904Y-84660238D01*
X214491904Y-87326904D02*
X214110952Y-87593571D01*
X214491904Y-87784047D02*
X213691904Y-87784047D01*
X213691904Y-87479285D01*
X213730000Y-87403095D01*
X213768095Y-87365000D01*
X213844285Y-87326904D01*
X213958571Y-87326904D01*
X214034761Y-87365000D01*
X214072857Y-87403095D01*
X214110952Y-87479285D01*
X214110952Y-87784047D01*
X214072857Y-86984047D02*
X214072857Y-86717380D01*
X214491904Y-86603095D02*
X214491904Y-86984047D01*
X213691904Y-86984047D01*
X213691904Y-86603095D01*
X214453809Y-86298333D02*
X214491904Y-86184047D01*
X214491904Y-85993571D01*
X214453809Y-85917380D01*
X214415714Y-85879285D01*
X214339523Y-85841190D01*
X214263333Y-85841190D01*
X214187142Y-85879285D01*
X214149047Y-85917380D01*
X214110952Y-85993571D01*
X214072857Y-86145952D01*
X214034761Y-86222142D01*
X213996666Y-86260238D01*
X213920476Y-86298333D01*
X213844285Y-86298333D01*
X213768095Y-86260238D01*
X213730000Y-86222142D01*
X213691904Y-86145952D01*
X213691904Y-85955476D01*
X213730000Y-85841190D01*
X214072857Y-85498333D02*
X214072857Y-85231666D01*
X214491904Y-85117380D02*
X214491904Y-85498333D01*
X213691904Y-85498333D01*
X213691904Y-85117380D01*
X213691904Y-84888809D02*
X213691904Y-84431666D01*
X214491904Y-84660238D02*
X213691904Y-84660238D01*
X156770000Y-129780000D02*
X157770000Y-129780000D01*
X156520000Y-126580000D02*
X156520000Y-131980000D01*
X156520000Y-131980000D02*
X158020000Y-131980000D01*
X157770000Y-128780000D02*
X157270000Y-129680000D01*
X157270000Y-129680000D02*
X156770000Y-128780000D01*
X158020000Y-131980000D02*
X158020000Y-126580000D01*
X156770000Y-128780000D02*
X157770000Y-128780000D01*
X156520000Y-126580000D02*
X158020000Y-126580000D01*
D13*
X133505800Y-64190000D02*
X131055800Y-64190000D01*
X131055800Y-62740000D02*
X133475800Y-62740000D01*
X133505800Y-62740000D02*
X133505800Y-64190000D01*
X131055800Y-64190000D02*
X131055800Y-62740000D01*
D14*
X79000000Y-99550001D02*
X77600000Y-99550001D01*
D13*
X75970600Y-86024601D02*
X78020600Y-86024601D01*
D12*
X74200000Y-96150001D02*
X79200000Y-96150001D01*
D13*
X75970600Y-87474601D02*
X75970600Y-86024601D01*
D15*
X78500000Y-99150001D02*
X78500000Y-96650001D01*
D14*
X79000000Y-97050001D02*
X79000000Y-96350001D01*
D16*
X69300000Y-94750001D02*
X69300000Y-96550001D01*
D12*
X68700000Y-96850001D02*
X68900000Y-96850001D01*
D17*
X78900000Y-96450001D02*
X77500000Y-96450001D01*
D12*
X68900000Y-94610001D02*
X68700000Y-94610001D01*
X68700000Y-94250001D02*
X71980000Y-94250001D01*
X79200000Y-99400001D02*
X79200000Y-99750001D01*
D13*
X68800001Y-96950001D02*
X68800000Y-97850000D01*
D12*
X79200000Y-99750001D02*
X70800000Y-99750002D01*
X79200000Y-97150001D02*
X79000000Y-97150001D01*
D17*
X68900000Y-94450001D02*
X71600000Y-94450001D01*
D18*
X77200000Y-97950001D02*
X70500000Y-97950001D01*
D12*
X68930000Y-96850001D02*
X68930000Y-94610001D01*
X68700000Y-94250001D02*
X68700000Y-94610001D01*
D19*
X70430000Y-98250001D02*
X70430000Y-96010001D01*
D12*
X78980000Y-97150001D02*
X78980000Y-99400001D01*
D13*
X78020600Y-86024601D02*
X78020600Y-87474601D01*
X78020600Y-87474601D02*
X75970600Y-87474601D01*
D12*
X79200000Y-96150001D02*
X79200000Y-97150001D01*
X79000000Y-99400001D02*
X79200000Y-99400001D01*
X68700000Y-97850001D02*
X68700000Y-96850001D01*
X68699999Y-97850001D02*
G75*
G03*
X70800000Y-99750002I2000001J100000D01*
G01*
X71983682Y-94271472D02*
G75*
G03*
X74200000Y-96150001I2151318J291471D01*
G01*
D15*
X71583682Y-94671472D02*
G75*
G03*
X73800000Y-96550001I2151318J291471D01*
G01*
D12*
X191120000Y-118490000D02*
X191120000Y-118840000D01*
D13*
X187890600Y-105114600D02*
X189940600Y-105114600D01*
D12*
X180620000Y-116940000D02*
X180620000Y-115940000D01*
D17*
X190820000Y-115540000D02*
X189420000Y-115540000D01*
D12*
X180620000Y-113340000D02*
X183900000Y-113340000D01*
D14*
X190920000Y-118640000D02*
X189520000Y-118640000D01*
D12*
X191120000Y-115240000D02*
X191120000Y-116240000D01*
D15*
X190420000Y-118240000D02*
X190420000Y-115740000D01*
D13*
X180720001Y-116040000D02*
X180720000Y-116939999D01*
D12*
X191120000Y-118840000D02*
X182720000Y-118840001D01*
D13*
X187890600Y-106564600D02*
X187890600Y-105114600D01*
D12*
X190920000Y-118490000D02*
X191120000Y-118490000D01*
D14*
X190920000Y-116140000D02*
X190920000Y-115440000D01*
D17*
X180820000Y-113540000D02*
X183520000Y-113540000D01*
D12*
X186120000Y-115240000D02*
X191120000Y-115240000D01*
X180620000Y-113340000D02*
X180620000Y-113700000D01*
X180820000Y-113700000D02*
X180620000Y-113700000D01*
X180850000Y-115940000D02*
X180850000Y-113700000D01*
X191120000Y-116240000D02*
X190920000Y-116240000D01*
D16*
X181220000Y-113840000D02*
X181220000Y-115640000D01*
D18*
X189120000Y-117040000D02*
X182420000Y-117040000D01*
D13*
X189940600Y-105114600D02*
X189940600Y-106564600D01*
D19*
X182350000Y-117340000D02*
X182350000Y-115100000D01*
D12*
X190900000Y-116240000D02*
X190900000Y-118490000D01*
X180620000Y-115940000D02*
X180820000Y-115940000D01*
D13*
X189940600Y-106564600D02*
X187890600Y-106564600D01*
D12*
X180619999Y-116940000D02*
G75*
G03*
X182720000Y-118840001I2000001J100000D01*
G01*
X183903682Y-113361471D02*
G75*
G03*
X186120000Y-115240000I2151318J291471D01*
G01*
D15*
X183503682Y-113761471D02*
G75*
G03*
X185720000Y-115640000I2151318J291471D01*
G01*
D12*
X128240000Y-77810000D02*
X128440000Y-77810000D01*
D14*
X138540000Y-78010000D02*
X138540000Y-77310000D01*
D12*
X128240000Y-78810000D02*
X128240000Y-77810000D01*
D13*
X135510600Y-68434600D02*
X135510600Y-66984600D01*
X135510600Y-66984600D02*
X137560600Y-66984600D01*
D12*
X138520000Y-78110000D02*
X138520000Y-80360000D01*
X138540000Y-80360000D02*
X138740000Y-80360000D01*
X133740000Y-77110000D02*
X138740000Y-77110000D01*
X138740000Y-80360000D02*
X138740000Y-80710000D01*
D16*
X128840000Y-75710000D02*
X128840000Y-77510000D01*
D12*
X138740000Y-80710000D02*
X130340000Y-80710001D01*
D14*
X138540000Y-80510000D02*
X137140000Y-80510000D01*
D13*
X137560600Y-68434600D02*
X135510600Y-68434600D01*
D12*
X138740000Y-77110000D02*
X138740000Y-78110000D01*
D17*
X128440000Y-75410000D02*
X131140000Y-75410000D01*
D12*
X128440000Y-75570000D02*
X128240000Y-75570000D01*
X128470000Y-77810000D02*
X128470000Y-75570000D01*
D15*
X138040000Y-80110000D02*
X138040000Y-77610000D01*
D18*
X136740000Y-78910000D02*
X130040000Y-78910000D01*
D12*
X128240000Y-75210000D02*
X131520000Y-75210000D01*
X138740000Y-78110000D02*
X138540000Y-78110000D01*
X128240000Y-75210000D02*
X128240000Y-75570000D01*
D17*
X138440000Y-77410000D02*
X137040000Y-77410000D01*
D19*
X129970000Y-79210000D02*
X129970000Y-76970000D01*
D13*
X128340001Y-77910000D02*
X128340000Y-78809999D01*
X137560600Y-66984600D02*
X137560600Y-68434600D01*
D12*
X128239999Y-78810000D02*
G75*
G03*
X130340000Y-80710001I2000001J100000D01*
G01*
X131523682Y-75231471D02*
G75*
G03*
X133740000Y-77110000I2151318J291471D01*
G01*
D15*
X131123682Y-75631471D02*
G75*
G03*
X133340000Y-77510000I2151318J291471D01*
G01*
D12*
X122360000Y-109450000D02*
X121860000Y-110350000D01*
X121360000Y-109450000D02*
X122360000Y-109450000D01*
X121360000Y-110450000D02*
X122360000Y-110450000D01*
X121110000Y-107250000D02*
X121110000Y-112650000D01*
X121860000Y-110350000D02*
X121360000Y-109450000D01*
X121110000Y-112650000D02*
X122610000Y-112650000D01*
X121110000Y-107250000D02*
X122610000Y-107250000D01*
X122610000Y-112650000D02*
X122610000Y-107250000D01*
X162550000Y-97180000D02*
X162350000Y-97180000D01*
X162550000Y-99430000D02*
X162550000Y-99780000D01*
X162350000Y-99430000D02*
X162550000Y-99430000D01*
D14*
X162350000Y-97080000D02*
X162350000Y-96380000D01*
D17*
X152250000Y-94480000D02*
X154950000Y-94480000D01*
D16*
X152650000Y-94780000D02*
X152650000Y-96580000D01*
D13*
X159320600Y-86054600D02*
X161370600Y-86054600D01*
X161370600Y-87504600D02*
X159320600Y-87504600D01*
D19*
X153780000Y-98280000D02*
X153780000Y-96040000D01*
D13*
X159320600Y-87504600D02*
X159320600Y-86054600D01*
D12*
X162330000Y-97180000D02*
X162330000Y-99430000D01*
X162550000Y-99780000D02*
X154150000Y-99780001D01*
D15*
X161850000Y-99180000D02*
X161850000Y-96680000D01*
D12*
X152280000Y-96880000D02*
X152280000Y-94640000D01*
D13*
X152150001Y-96980000D02*
X152150000Y-97879999D01*
D12*
X152250000Y-94640000D02*
X152050000Y-94640000D01*
X152050000Y-96880000D02*
X152250000Y-96880000D01*
D18*
X160550000Y-97980000D02*
X153850000Y-97980000D01*
D14*
X162350000Y-99580000D02*
X160950000Y-99580000D01*
D13*
X161370600Y-86054600D02*
X161370600Y-87504600D01*
D12*
X152050000Y-97880000D02*
X152050000Y-96880000D01*
X152050000Y-94280000D02*
X152050000Y-94640000D01*
D17*
X162250000Y-96480000D02*
X160850000Y-96480000D01*
D12*
X162550000Y-96180000D02*
X162550000Y-97180000D01*
X157550000Y-96180000D02*
X162550000Y-96180000D01*
X152050000Y-94280000D02*
X155330000Y-94280000D01*
X152049999Y-97880000D02*
G75*
G03*
X154150000Y-99780001I2000001J100000D01*
G01*
X155333682Y-94301471D02*
G75*
G03*
X157550000Y-96180000I2151318J291471D01*
G01*
D15*
X154933682Y-94701471D02*
G75*
G03*
X157150000Y-96580000I2151318J291471D01*
G01*
D13*
X142767900Y-127780000D02*
X140317900Y-127780000D01*
X140317900Y-127780000D02*
X140317900Y-126330000D01*
X140317900Y-126330000D02*
X142737900Y-126330000D01*
X142767900Y-126330000D02*
X142767900Y-127780000D01*
D12*
X98280000Y-52025000D02*
X97780000Y-52925000D01*
X97280000Y-52025000D02*
X98280000Y-52025000D01*
X97030000Y-49825000D02*
X97030000Y-55225000D01*
X98530000Y-55225000D02*
X98530000Y-49825000D01*
X97780000Y-52925000D02*
X97280000Y-52025000D01*
X97030000Y-49825000D02*
X98530000Y-49825000D01*
X97280000Y-53025000D02*
X98280000Y-53025000D01*
X97030000Y-55225000D02*
X98530000Y-55225000D01*
X92010000Y-93795000D02*
X93510000Y-93795000D01*
X92260000Y-91595000D02*
X93260000Y-91595000D01*
X92010000Y-88395000D02*
X92010000Y-93795000D01*
X92010000Y-88395000D02*
X93510000Y-88395000D01*
X92760000Y-91495000D02*
X92260000Y-90595000D01*
X92260000Y-90595000D02*
X93260000Y-90595000D01*
X93510000Y-93795000D02*
X93510000Y-88395000D01*
X93260000Y-90595000D02*
X92760000Y-91495000D01*
X125650000Y-70975000D02*
X126650000Y-70975000D01*
X126150000Y-71875000D02*
X125650000Y-70975000D01*
X125400000Y-74175000D02*
X126900000Y-74175000D01*
X126650000Y-70975000D02*
X126150000Y-71875000D01*
X125400000Y-68775000D02*
X125400000Y-74175000D01*
X126900000Y-74175000D02*
X126900000Y-68775000D01*
X125650000Y-71975000D02*
X126650000Y-71975000D01*
X125400000Y-68775000D02*
X126900000Y-68775000D01*
X136500000Y-52160000D02*
X136000000Y-53060000D01*
X136000000Y-53060000D02*
X135500000Y-52160000D01*
X135250000Y-49960000D02*
X136750000Y-49960000D01*
X135250000Y-55360000D02*
X136750000Y-55360000D01*
X136750000Y-55360000D02*
X136750000Y-49960000D01*
X135500000Y-52160000D02*
X136500000Y-52160000D01*
X135250000Y-49960000D02*
X135250000Y-55360000D01*
X135500000Y-53160000D02*
X136500000Y-53160000D01*
X92200000Y-131810000D02*
X93700000Y-131810000D01*
X92450000Y-128610000D02*
X93450000Y-128610000D01*
X92450000Y-129610000D02*
X93450000Y-129610000D01*
X92200000Y-126410000D02*
X93700000Y-126410000D01*
X92200000Y-126410000D02*
X92200000Y-131810000D01*
X92950000Y-129510000D02*
X92450000Y-128610000D01*
X93450000Y-128610000D02*
X92950000Y-129510000D01*
X93700000Y-131810000D02*
X93700000Y-126410000D01*
D18*
X203390000Y-136100000D02*
X196690000Y-136100000D01*
D12*
X205170000Y-135300000D02*
X205170000Y-137550000D01*
X200390000Y-134300000D02*
X205390000Y-134300000D01*
D19*
X196620000Y-136400000D02*
X196620000Y-134160000D01*
D12*
X205390000Y-137900000D02*
X196990000Y-137900001D01*
D13*
X202160600Y-124174600D02*
X204210600Y-124174600D01*
D14*
X205190000Y-135200000D02*
X205190000Y-134500000D01*
D12*
X195120000Y-135000000D02*
X195120000Y-132760000D01*
D13*
X202160600Y-125624600D02*
X202160600Y-124174600D01*
D12*
X194890000Y-135000000D02*
X195090000Y-135000000D01*
D17*
X195090000Y-132600000D02*
X197790000Y-132600000D01*
D12*
X194890000Y-132400000D02*
X198170000Y-132400000D01*
D13*
X204210600Y-124174600D02*
X204210600Y-125624600D01*
D16*
X195490000Y-132900000D02*
X195490000Y-134700000D01*
D14*
X205190000Y-137700000D02*
X203790000Y-137700000D01*
D12*
X205390000Y-135300000D02*
X205190000Y-135300000D01*
X205390000Y-137550000D02*
X205390000Y-137900000D01*
D15*
X204690000Y-137300000D02*
X204690000Y-134800000D01*
D12*
X194890000Y-132400000D02*
X194890000Y-132760000D01*
D17*
X205090000Y-134600000D02*
X203690000Y-134600000D01*
D12*
X205390000Y-134300000D02*
X205390000Y-135300000D01*
X194890000Y-136000000D02*
X194890000Y-135000000D01*
X195090000Y-132760000D02*
X194890000Y-132760000D01*
D13*
X194990001Y-135100000D02*
X194990000Y-135999999D01*
D12*
X205190000Y-137550000D02*
X205390000Y-137550000D01*
D13*
X204210600Y-125624600D02*
X202160600Y-125624600D01*
D12*
X194889999Y-136000000D02*
G75*
G03*
X196990000Y-137900001I2000001J100000D01*
G01*
X198173682Y-132421471D02*
G75*
G03*
X200390000Y-134300000I2151318J291471D01*
G01*
D15*
X197773682Y-132821471D02*
G75*
G03*
X199990000Y-134700000I2151318J291471D01*
G01*
D12*
X88700000Y-71015000D02*
X88200000Y-71915000D01*
X87450000Y-68815000D02*
X88950000Y-68815000D01*
X87700000Y-72015000D02*
X88700000Y-72015000D01*
X88200000Y-71915000D02*
X87700000Y-71015000D01*
X87450000Y-68815000D02*
X87450000Y-74215000D01*
X87700000Y-71015000D02*
X88700000Y-71015000D01*
X87450000Y-74215000D02*
X88950000Y-74215000D01*
X88950000Y-74215000D02*
X88950000Y-68815000D01*
X171850000Y-118480000D02*
X172050000Y-118480000D01*
D13*
X170870600Y-105104600D02*
X170870600Y-106554600D01*
X161650001Y-116030000D02*
X161650000Y-116929999D01*
D14*
X171850000Y-118630000D02*
X170450000Y-118630000D01*
D16*
X162150000Y-113830000D02*
X162150000Y-115630000D01*
D12*
X171830000Y-116230000D02*
X171830000Y-118480000D01*
X167050000Y-115230000D02*
X172050000Y-115230000D01*
D17*
X161750000Y-113530000D02*
X164450000Y-113530000D01*
D15*
X171350000Y-118230000D02*
X171350000Y-115730000D01*
D12*
X172050000Y-118830000D02*
X163650000Y-118830001D01*
X161750000Y-113690000D02*
X161550000Y-113690000D01*
X161550000Y-116930000D02*
X161550000Y-115930000D01*
X161550000Y-115930000D02*
X161750000Y-115930000D01*
D13*
X168820600Y-106554600D02*
X168820600Y-105104600D01*
D12*
X161550000Y-113330000D02*
X161550000Y-113690000D01*
D13*
X168820600Y-105104600D02*
X170870600Y-105104600D01*
D14*
X171850000Y-116130000D02*
X171850000Y-115430000D01*
D12*
X172050000Y-115230000D02*
X172050000Y-116230000D01*
D17*
X171750000Y-115530000D02*
X170350000Y-115530000D01*
D18*
X170050000Y-117030000D02*
X163350000Y-117030000D01*
D13*
X170870600Y-106554600D02*
X168820600Y-106554600D01*
D12*
X172050000Y-116230000D02*
X171850000Y-116230000D01*
X172050000Y-118480000D02*
X172050000Y-118830000D01*
X161780000Y-115930000D02*
X161780000Y-113690000D01*
D19*
X163280000Y-117330000D02*
X163280000Y-115090000D01*
D12*
X161550000Y-113330000D02*
X164830000Y-113330000D01*
X164833682Y-113351471D02*
G75*
G03*
X167050000Y-115230000I2151318J291471D01*
G01*
D15*
X164433682Y-113751471D02*
G75*
G03*
X166650000Y-115630000I2151318J291471D01*
G01*
D12*
X161549999Y-116930000D02*
G75*
G03*
X163650000Y-118830001I2000001J100000D01*
G01*
D14*
X71840000Y-58950000D02*
X71840000Y-58250000D01*
D16*
X62140000Y-56650000D02*
X62140000Y-58450000D01*
D12*
X71820000Y-59050000D02*
X71820000Y-61300000D01*
D14*
X71840000Y-61450000D02*
X70440000Y-61450000D01*
D12*
X61540000Y-59750000D02*
X61540000Y-58750000D01*
X72040000Y-61300000D02*
X72040000Y-61650000D01*
D19*
X63270000Y-60150000D02*
X63270000Y-57910000D01*
D18*
X70040000Y-59850000D02*
X63340000Y-59850000D01*
D13*
X70860600Y-49374600D02*
X68810600Y-49374600D01*
X68810600Y-47924600D02*
X70860600Y-47924600D01*
D12*
X72040000Y-58050000D02*
X72040000Y-59050000D01*
D17*
X61740000Y-56350000D02*
X64440000Y-56350000D01*
D12*
X61770000Y-58750000D02*
X61770000Y-56510000D01*
X61540000Y-56150000D02*
X61540000Y-56510000D01*
D15*
X71340000Y-61050000D02*
X71340000Y-58550000D01*
D13*
X70860600Y-47924600D02*
X70860600Y-49374600D01*
X68810600Y-49374600D02*
X68810600Y-47924600D01*
D12*
X72040000Y-59050000D02*
X71840000Y-59050000D01*
X67040000Y-58050000D02*
X72040000Y-58050000D01*
X61540000Y-58750000D02*
X61740000Y-58750000D01*
D17*
X71740000Y-58350000D02*
X70340000Y-58350000D01*
D13*
X61640001Y-58850000D02*
X61640000Y-59749999D01*
D12*
X72040000Y-61650000D02*
X63640000Y-61650001D01*
X71840000Y-61300000D02*
X72040000Y-61300000D01*
X61540000Y-56150000D02*
X64820000Y-56150000D01*
X61740000Y-56510000D02*
X61540000Y-56510000D01*
D15*
X64423682Y-56571471D02*
G75*
G03*
X66640000Y-58450000I2151318J291471D01*
G01*
D12*
X64823682Y-56171471D02*
G75*
G03*
X67040000Y-58050000I2151318J291471D01*
G01*
X61539999Y-59750000D02*
G75*
G03*
X63640000Y-61650001I2000001J100000D01*
G01*
X139810000Y-109490000D02*
X140810000Y-109490000D01*
X140810000Y-109490000D02*
X140310000Y-110390000D01*
X141060000Y-112690000D02*
X141060000Y-107290000D01*
X140310000Y-110390000D02*
X139810000Y-109490000D01*
X139560000Y-107290000D02*
X139560000Y-112690000D01*
X139560000Y-112690000D02*
X141060000Y-112690000D01*
X139810000Y-110490000D02*
X140810000Y-110490000D01*
X139560000Y-107290000D02*
X141060000Y-107290000D01*
X168320000Y-87710000D02*
X168320000Y-93110000D01*
X168320000Y-93110000D02*
X169820000Y-93110000D01*
X168570000Y-89910000D02*
X169570000Y-89910000D01*
X168320000Y-87710000D02*
X169820000Y-87710000D01*
X169820000Y-93110000D02*
X169820000Y-87710000D01*
X168570000Y-90910000D02*
X169570000Y-90910000D01*
X169570000Y-89910000D02*
X169070000Y-90810000D01*
X169070000Y-90810000D02*
X168570000Y-89910000D01*
X131700000Y-93070000D02*
X131700000Y-87670000D01*
X130200000Y-93070000D02*
X131700000Y-93070000D01*
X131450000Y-89870000D02*
X130950000Y-90770000D01*
X130200000Y-87670000D02*
X131700000Y-87670000D01*
X130950000Y-90770000D02*
X130450000Y-89870000D01*
X130450000Y-90870000D02*
X131450000Y-90870000D01*
X130200000Y-87670000D02*
X130200000Y-93070000D01*
X130450000Y-89870000D02*
X131450000Y-89870000D01*
D13*
X205015800Y-52020000D02*
X205015800Y-53470000D01*
X202565800Y-53470000D02*
X202565800Y-52020000D01*
X205015800Y-53470000D02*
X202565800Y-53470000D01*
X202565800Y-52020000D02*
X204985800Y-52020000D01*
D12*
X172690000Y-55285000D02*
X174190000Y-55285000D01*
X172940000Y-53085000D02*
X173940000Y-53085000D01*
X172690000Y-49885000D02*
X172690000Y-55285000D01*
X173940000Y-52085000D02*
X173440000Y-52985000D01*
X174190000Y-55285000D02*
X174190000Y-49885000D01*
X173440000Y-52985000D02*
X172940000Y-52085000D01*
X172690000Y-49885000D02*
X174190000Y-49885000D01*
X172940000Y-52085000D02*
X173940000Y-52085000D01*
X101580000Y-107125000D02*
X103080000Y-107125000D01*
X101580000Y-107125000D02*
X101580000Y-112525000D01*
X101830000Y-109325000D02*
X102830000Y-109325000D01*
X101580000Y-112525000D02*
X103080000Y-112525000D01*
X102330000Y-110225000D02*
X101830000Y-109325000D01*
X102830000Y-109325000D02*
X102330000Y-110225000D01*
X101830000Y-110325000D02*
X102830000Y-110325000D01*
X103080000Y-112525000D02*
X103080000Y-107125000D01*
X191820000Y-126280000D02*
X193320000Y-126280000D01*
X193070000Y-128480000D02*
X192570000Y-129380000D01*
X191820000Y-126280000D02*
X191820000Y-131680000D01*
X192070000Y-129480000D02*
X193070000Y-129480000D01*
X193320000Y-131680000D02*
X193320000Y-126280000D01*
X192070000Y-128480000D02*
X193070000Y-128480000D01*
X191820000Y-131680000D02*
X193320000Y-131680000D01*
X192570000Y-129380000D02*
X192070000Y-128480000D01*
X163700000Y-70945000D02*
X164700000Y-70945000D01*
X163450000Y-68745000D02*
X163450000Y-74145000D01*
X164200000Y-71845000D02*
X163700000Y-70945000D01*
X163450000Y-74145000D02*
X164950000Y-74145000D01*
X163700000Y-71945000D02*
X164700000Y-71945000D01*
X164700000Y-70945000D02*
X164200000Y-71845000D01*
X163450000Y-68745000D02*
X164950000Y-68745000D01*
X164950000Y-74145000D02*
X164950000Y-68745000D01*
X175845000Y-59750000D02*
X175845000Y-58750000D01*
D17*
X176045000Y-56350000D02*
X178745000Y-56350000D01*
D19*
X177575000Y-60150000D02*
X177575000Y-57910000D01*
D13*
X183115600Y-47924600D02*
X185165600Y-47924600D01*
D12*
X181345000Y-58050000D02*
X186345000Y-58050000D01*
D13*
X185165600Y-49374600D02*
X183115600Y-49374600D01*
D12*
X186125000Y-59050000D02*
X186125000Y-61300000D01*
X175845000Y-56150000D02*
X175845000Y-56510000D01*
D18*
X184345000Y-59850000D02*
X177645000Y-59850000D01*
D12*
X176045000Y-56510000D02*
X175845000Y-56510000D01*
X186345000Y-59050000D02*
X186145000Y-59050000D01*
D16*
X176445000Y-56650000D02*
X176445000Y-58450000D01*
D12*
X186145000Y-61300000D02*
X186345000Y-61300000D01*
X176075000Y-58750000D02*
X176075000Y-56510000D01*
D13*
X175945001Y-58850000D02*
X175945000Y-59749999D01*
X183115600Y-49374600D02*
X183115600Y-47924600D01*
D12*
X186345000Y-58050000D02*
X186345000Y-59050000D01*
D17*
X186045000Y-58350000D02*
X184645000Y-58350000D01*
D12*
X175845000Y-56150000D02*
X179125000Y-56150000D01*
D15*
X185645000Y-61050000D02*
X185645000Y-58550000D01*
D12*
X175845000Y-58750000D02*
X176045000Y-58750000D01*
D14*
X186145000Y-58950000D02*
X186145000Y-58250000D01*
D13*
X185165600Y-47924600D02*
X185165600Y-49374600D01*
D12*
X186345000Y-61300000D02*
X186345000Y-61650000D01*
D14*
X186145000Y-61450000D02*
X184745000Y-61450000D01*
D12*
X186345000Y-61650000D02*
X177945000Y-61650001D01*
D15*
X178728682Y-56571471D02*
G75*
G03*
X180945000Y-58450000I2151318J291471D01*
G01*
D12*
X175844999Y-59750000D02*
G75*
G03*
X177945000Y-61650001I2000001J100000D01*
G01*
X179128682Y-56171471D02*
G75*
G03*
X181345000Y-58050000I2151318J291471D01*
G01*
X160700000Y-112620000D02*
X160700000Y-107220000D01*
X159200000Y-112620000D02*
X160700000Y-112620000D01*
X159200000Y-107220000D02*
X159200000Y-112620000D01*
X159950000Y-110320000D02*
X159450000Y-109420000D01*
X160450000Y-109420000D02*
X159950000Y-110320000D01*
X159450000Y-109420000D02*
X160450000Y-109420000D01*
X159200000Y-107220000D02*
X160700000Y-107220000D01*
X159450000Y-110420000D02*
X160450000Y-110420000D01*
X106280000Y-71145000D02*
X107280000Y-71145000D01*
X107530000Y-74345000D02*
X107530000Y-68945000D01*
X106030000Y-68945000D02*
X107530000Y-68945000D01*
X107280000Y-71145000D02*
X106780000Y-72045000D01*
X106780000Y-72045000D02*
X106280000Y-71145000D01*
X106030000Y-74345000D02*
X107530000Y-74345000D01*
X106280000Y-72145000D02*
X107280000Y-72145000D01*
X106030000Y-68945000D02*
X106030000Y-74345000D01*
D19*
X172830000Y-98280000D02*
X172830000Y-96040000D01*
D12*
X171100000Y-94280000D02*
X171100000Y-94640000D01*
D16*
X171700000Y-94780000D02*
X171700000Y-96580000D01*
D13*
X180420600Y-87504600D02*
X178370600Y-87504600D01*
X178370600Y-86054600D02*
X180420600Y-86054600D01*
X171200001Y-96980000D02*
X171200000Y-97879999D01*
D12*
X181600000Y-99780000D02*
X173200000Y-99780001D01*
D14*
X181400000Y-99580000D02*
X180000000Y-99580000D01*
D17*
X181300000Y-96480000D02*
X179900000Y-96480000D01*
D15*
X180900000Y-99180000D02*
X180900000Y-96680000D01*
D13*
X180420600Y-86054600D02*
X180420600Y-87504600D01*
D17*
X171300000Y-94480000D02*
X174000000Y-94480000D01*
D18*
X179600000Y-97980000D02*
X172900000Y-97980000D01*
D12*
X171330000Y-96880000D02*
X171330000Y-94640000D01*
X176600000Y-96180000D02*
X181600000Y-96180000D01*
X181600000Y-99430000D02*
X181600000Y-99780000D01*
X181600000Y-97180000D02*
X181400000Y-97180000D01*
X181400000Y-99430000D02*
X181600000Y-99430000D01*
X181380000Y-97180000D02*
X181380000Y-99430000D01*
D13*
X178370600Y-87504600D02*
X178370600Y-86054600D01*
D12*
X171100000Y-96880000D02*
X171300000Y-96880000D01*
D14*
X181400000Y-97080000D02*
X181400000Y-96380000D01*
D12*
X181600000Y-96180000D02*
X181600000Y-97180000D01*
X171100000Y-97880000D02*
X171100000Y-96880000D01*
X171100000Y-94280000D02*
X174380000Y-94280000D01*
X171300000Y-94640000D02*
X171100000Y-94640000D01*
X171099999Y-97880000D02*
G75*
G03*
X173200000Y-99780001I2000001J100000D01*
G01*
X174383682Y-94301471D02*
G75*
G03*
X176600000Y-96180000I2151318J291471D01*
G01*
D15*
X173983682Y-94701471D02*
G75*
G03*
X176200000Y-96580000I2151318J291471D01*
G01*
D18*
X167680000Y-136090000D02*
X160980000Y-136090000D01*
D17*
X169380000Y-134590000D02*
X167980000Y-134590000D01*
D12*
X159180000Y-132390000D02*
X162460000Y-132390000D01*
X159180000Y-134990000D02*
X159380000Y-134990000D01*
X169680000Y-135290000D02*
X169480000Y-135290000D01*
D13*
X168500600Y-125614600D02*
X166450600Y-125614600D01*
X168500600Y-124164600D02*
X168500600Y-125614600D01*
D12*
X169460000Y-135290000D02*
X169460000Y-137540000D01*
X169680000Y-134290000D02*
X169680000Y-135290000D01*
X159380000Y-132750000D02*
X159180000Y-132750000D01*
D15*
X168980000Y-137290000D02*
X168980000Y-134790000D01*
D12*
X169480000Y-137540000D02*
X169680000Y-137540000D01*
X169680000Y-137540000D02*
X169680000Y-137890000D01*
D14*
X169480000Y-137690000D02*
X168080000Y-137690000D01*
D19*
X160910000Y-136390000D02*
X160910000Y-134150000D01*
D17*
X159380000Y-132590000D02*
X162080000Y-132590000D01*
D13*
X166450600Y-124164600D02*
X168500600Y-124164600D01*
D16*
X159780000Y-132890000D02*
X159780000Y-134690000D01*
D14*
X169480000Y-135190000D02*
X169480000Y-134490000D01*
D12*
X159410000Y-134990000D02*
X159410000Y-132750000D01*
X159180000Y-135990000D02*
X159180000Y-134990000D01*
X164680000Y-134290000D02*
X169680000Y-134290000D01*
X159180000Y-132390000D02*
X159180000Y-132750000D01*
X169680000Y-137890000D02*
X161280000Y-137890001D01*
D13*
X166450600Y-125614600D02*
X166450600Y-124164600D01*
X159280001Y-135090000D02*
X159280000Y-135989999D01*
D12*
X162463682Y-132411471D02*
G75*
G03*
X164680000Y-134290000I2151318J291471D01*
G01*
X159179999Y-135990000D02*
G75*
G03*
X161280000Y-137890001I2000001J100000D01*
G01*
D15*
X162063682Y-132811471D02*
G75*
G03*
X164280000Y-134690000I2151318J291471D01*
G01*
D12*
X66370000Y-90320000D02*
X67370000Y-90320000D01*
X67620000Y-93520000D02*
X67620000Y-88120000D01*
X66370000Y-91320000D02*
X67370000Y-91320000D01*
X67370000Y-90320000D02*
X66870000Y-91220000D01*
X66120000Y-93520000D02*
X67620000Y-93520000D01*
X66120000Y-88120000D02*
X66120000Y-93520000D01*
X66120000Y-88120000D02*
X67620000Y-88120000D01*
X66870000Y-91220000D02*
X66370000Y-90320000D01*
X147290000Y-78810000D02*
X147290000Y-77810000D01*
D13*
X154560600Y-68434600D02*
X154560600Y-66984600D01*
D18*
X155790000Y-78910000D02*
X149090000Y-78910000D01*
D12*
X147290000Y-75210000D02*
X147290000Y-75570000D01*
D15*
X157090000Y-80110000D02*
X157090000Y-77610000D01*
D12*
X147290000Y-75210000D02*
X150570000Y-75210000D01*
D13*
X147390001Y-77910000D02*
X147390000Y-78809999D01*
D14*
X157590000Y-78010000D02*
X157590000Y-77310000D01*
D13*
X156610600Y-66984600D02*
X156610600Y-68434600D01*
D12*
X157790000Y-80360000D02*
X157790000Y-80710000D01*
D14*
X157590000Y-80510000D02*
X156190000Y-80510000D01*
D12*
X147520000Y-77810000D02*
X147520000Y-75570000D01*
X157790000Y-78110000D02*
X157590000Y-78110000D01*
D16*
X147890000Y-75710000D02*
X147890000Y-77510000D01*
D12*
X152790000Y-77110000D02*
X157790000Y-77110000D01*
D13*
X154560600Y-66984600D02*
X156610600Y-66984600D01*
D12*
X157570000Y-78110000D02*
X157570000Y-80360000D01*
X157790000Y-77110000D02*
X157790000Y-78110000D01*
X147290000Y-77810000D02*
X147490000Y-77810000D01*
D13*
X156610600Y-68434600D02*
X154560600Y-68434600D01*
D19*
X149020000Y-79210000D02*
X149020000Y-76970000D01*
D17*
X157490000Y-77410000D02*
X156090000Y-77410000D01*
D12*
X157590000Y-80360000D02*
X157790000Y-80360000D01*
X157790000Y-80710000D02*
X149390000Y-80710001D01*
X147490000Y-75570000D02*
X147290000Y-75570000D01*
D17*
X147490000Y-75410000D02*
X150190000Y-75410000D01*
D15*
X150173682Y-75631471D02*
G75*
G03*
X152390000Y-77510000I2151318J291471D01*
G01*
D12*
X147289999Y-78810000D02*
G75*
G03*
X149390000Y-80710001I2000001J100000D01*
G01*
X150573682Y-75231471D02*
G75*
G03*
X152790000Y-77110000I2151318J291471D01*
G01*
X176840000Y-78110000D02*
X176640000Y-78110000D01*
D14*
X176640000Y-80510000D02*
X175240000Y-80510000D01*
D12*
X166340000Y-78810000D02*
X166340000Y-77810000D01*
D13*
X173610600Y-68434600D02*
X173610600Y-66984600D01*
X173610600Y-66984600D02*
X175660600Y-66984600D01*
D12*
X176640000Y-80360000D02*
X176840000Y-80360000D01*
D18*
X174840000Y-78910000D02*
X168140000Y-78910000D01*
D12*
X166570000Y-77810000D02*
X166570000Y-75570000D01*
X166540000Y-75570000D02*
X166340000Y-75570000D01*
X176840000Y-80360000D02*
X176840000Y-80710000D01*
D13*
X175660600Y-66984600D02*
X175660600Y-68434600D01*
D12*
X166340000Y-75210000D02*
X166340000Y-75570000D01*
D17*
X166540000Y-75410000D02*
X169240000Y-75410000D01*
D12*
X166340000Y-77810000D02*
X166540000Y-77810000D01*
X176840000Y-80710000D02*
X168440000Y-80710001D01*
D17*
X176540000Y-77410000D02*
X175140000Y-77410000D01*
D14*
X176640000Y-78010000D02*
X176640000Y-77310000D01*
D12*
X166340000Y-75210000D02*
X169620000Y-75210000D01*
D15*
X176140000Y-80110000D02*
X176140000Y-77610000D01*
D19*
X168070000Y-79210000D02*
X168070000Y-76970000D01*
D12*
X176840000Y-77110000D02*
X176840000Y-78110000D01*
D13*
X166440001Y-77910000D02*
X166440000Y-78809999D01*
D12*
X176620000Y-78110000D02*
X176620000Y-80360000D01*
D13*
X175660600Y-68434600D02*
X173610600Y-68434600D01*
D12*
X171840000Y-77110000D02*
X176840000Y-77110000D01*
D16*
X166940000Y-75710000D02*
X166940000Y-77510000D01*
D12*
X166339999Y-78810000D02*
G75*
G03*
X168440000Y-80710001I2000001J100000D01*
G01*
D15*
X169223682Y-75631471D02*
G75*
G03*
X171440000Y-77510000I2151318J291471D01*
G01*
D12*
X169623682Y-75231471D02*
G75*
G03*
X171840000Y-77110000I2151318J291471D01*
G01*
D13*
X206754200Y-118850000D02*
X204334200Y-118850000D01*
X206754200Y-117400000D02*
X206754200Y-118850000D01*
X204304200Y-118850000D02*
X204304200Y-117400000D01*
X204304200Y-117400000D02*
X206754200Y-117400000D01*
D12*
X204085000Y-99565000D02*
X204085000Y-93565000D01*
X204085000Y-93565000D02*
X216085000Y-93565000D01*
X216085000Y-99565000D02*
X204085000Y-99565000D01*
X216085000Y-93565000D02*
X216085000Y-99565000D01*
X143280000Y-97180000D02*
X143280000Y-99430000D01*
D13*
X140270600Y-87504600D02*
X140270600Y-86054600D01*
X140270600Y-86054600D02*
X142320600Y-86054600D01*
D12*
X143500000Y-99780000D02*
X135100000Y-99780001D01*
D17*
X143200000Y-96480000D02*
X141800000Y-96480000D01*
D12*
X143500000Y-99430000D02*
X143500000Y-99780000D01*
X133230000Y-96880000D02*
X133230000Y-94640000D01*
D13*
X142320600Y-87504600D02*
X140270600Y-87504600D01*
D12*
X133000000Y-94280000D02*
X136280000Y-94280000D01*
X138500000Y-96180000D02*
X143500000Y-96180000D01*
X133000000Y-94280000D02*
X133000000Y-94640000D01*
D19*
X134730000Y-98280000D02*
X134730000Y-96040000D01*
D12*
X133000000Y-96880000D02*
X133200000Y-96880000D01*
X143500000Y-96180000D02*
X143500000Y-97180000D01*
X143500000Y-97180000D02*
X143300000Y-97180000D01*
D14*
X143300000Y-97080000D02*
X143300000Y-96380000D01*
D13*
X133100001Y-96980000D02*
X133100000Y-97879999D01*
D12*
X133200000Y-94640000D02*
X133000000Y-94640000D01*
D16*
X133600000Y-94780000D02*
X133600000Y-96580000D01*
D12*
X133000000Y-97880000D02*
X133000000Y-96880000D01*
D18*
X141500000Y-97980000D02*
X134800000Y-97980000D01*
D17*
X133200000Y-94480000D02*
X135900000Y-94480000D01*
D14*
X143300000Y-99580000D02*
X141900000Y-99580000D01*
D15*
X142800000Y-99180000D02*
X142800000Y-96680000D01*
D13*
X142320600Y-86054600D02*
X142320600Y-87504600D01*
D12*
X143300000Y-99430000D02*
X143500000Y-99430000D01*
X132999999Y-97880000D02*
G75*
G03*
X135100000Y-99780001I2000001J100000D01*
G01*
X136283682Y-94301471D02*
G75*
G03*
X138500000Y-96180000I2151318J291471D01*
G01*
D15*
X135883682Y-94701471D02*
G75*
G03*
X138100000Y-96580000I2151318J291471D01*
G01*
D12*
X118695000Y-58750000D02*
X118895000Y-58750000D01*
D13*
X118795001Y-58850000D02*
X118795000Y-59749999D01*
X125965600Y-49374600D02*
X125965600Y-47924600D01*
D12*
X128975000Y-59050000D02*
X128975000Y-61300000D01*
D17*
X118895000Y-56350000D02*
X121595000Y-56350000D01*
D15*
X128495000Y-61050000D02*
X128495000Y-58550000D01*
D18*
X127195000Y-59850000D02*
X120495000Y-59850000D01*
D12*
X124195000Y-58050000D02*
X129195000Y-58050000D01*
X118695000Y-56150000D02*
X121975000Y-56150000D01*
D13*
X128015600Y-49374600D02*
X125965600Y-49374600D01*
D16*
X119295000Y-56650000D02*
X119295000Y-58450000D01*
D12*
X129195000Y-61300000D02*
X129195000Y-61650000D01*
X118895000Y-56510000D02*
X118695000Y-56510000D01*
X118695000Y-56150000D02*
X118695000Y-56510000D01*
X118925000Y-58750000D02*
X118925000Y-56510000D01*
D17*
X128895000Y-58350000D02*
X127495000Y-58350000D01*
D12*
X129195000Y-59050000D02*
X128995000Y-59050000D01*
D13*
X125965600Y-47924600D02*
X128015600Y-47924600D01*
D12*
X128995000Y-61300000D02*
X129195000Y-61300000D01*
X129195000Y-58050000D02*
X129195000Y-59050000D01*
D19*
X120425000Y-60150000D02*
X120425000Y-57910000D01*
D14*
X128995000Y-58950000D02*
X128995000Y-58250000D01*
X128995000Y-61450000D02*
X127595000Y-61450000D01*
D12*
X118695000Y-59750000D02*
X118695000Y-58750000D01*
X129195000Y-61650000D02*
X120795000Y-61650001D01*
D13*
X128015600Y-47924600D02*
X128015600Y-49374600D01*
D12*
X118694999Y-59750000D02*
G75*
G03*
X120795000Y-61650001I2000001J100000D01*
G01*
D15*
X121578682Y-56571471D02*
G75*
G03*
X123795000Y-58450000I2151318J291471D01*
G01*
D12*
X121978682Y-56171471D02*
G75*
G03*
X124195000Y-58050000I2151318J291471D01*
G01*
X66300000Y-75190000D02*
X69580000Y-75190000D01*
X66500000Y-75550000D02*
X66300000Y-75550000D01*
D18*
X74800000Y-78890000D02*
X68100000Y-78890000D01*
D17*
X66500000Y-75390000D02*
X69200000Y-75390000D01*
D12*
X76800000Y-80340000D02*
X76800000Y-80690000D01*
D13*
X73570600Y-66964600D02*
X75620600Y-66964600D01*
X66400001Y-77890000D02*
X66400000Y-78789999D01*
D16*
X66900000Y-75690000D02*
X66900000Y-77490000D01*
D15*
X76100000Y-80090000D02*
X76100000Y-77590000D01*
D12*
X76580000Y-78090000D02*
X76580000Y-80340000D01*
X76800000Y-77090000D02*
X76800000Y-78090000D01*
X76800000Y-78090000D02*
X76600000Y-78090000D01*
X66300000Y-78790000D02*
X66300000Y-77790000D01*
D13*
X73570600Y-68414600D02*
X73570600Y-66964600D01*
D12*
X71800000Y-77090000D02*
X76800000Y-77090000D01*
D14*
X76600000Y-77990000D02*
X76600000Y-77290000D01*
D13*
X75620600Y-66964600D02*
X75620600Y-68414600D01*
D12*
X66530000Y-77790000D02*
X66530000Y-75550000D01*
D13*
X75620600Y-68414600D02*
X73570600Y-68414600D01*
D14*
X76600000Y-80490000D02*
X75200000Y-80490000D01*
D12*
X76600000Y-80340000D02*
X76800000Y-80340000D01*
D17*
X76500000Y-77390000D02*
X75100000Y-77390000D01*
D12*
X66300000Y-77790000D02*
X66500000Y-77790000D01*
D19*
X68030000Y-79190000D02*
X68030000Y-76950000D01*
D12*
X66300000Y-75190000D02*
X66300000Y-75550000D01*
X76800000Y-80690000D02*
X68400000Y-80690001D01*
X69583682Y-75211471D02*
G75*
G03*
X71800000Y-77090000I2151318J291471D01*
G01*
D15*
X69183682Y-75611471D02*
G75*
G03*
X71400000Y-77490000I2151318J291471D01*
G01*
D12*
X66299999Y-78790000D02*
G75*
G03*
X68400000Y-80690001I2000001J100000D01*
G01*
D20*
X196985000Y-49416750D02*
X196985000Y-79896750D01*
X199525000Y-49416750D02*
X199525000Y-51956750D01*
X214765000Y-79896750D02*
X214765000Y-49416750D01*
X214765000Y-49416750D02*
X214765000Y-46876750D01*
X199525000Y-49416750D02*
X196985000Y-49416750D01*
X196985000Y-79896750D02*
X214765000Y-79896750D01*
X199525000Y-51956750D02*
X196985000Y-51956750D01*
X214765000Y-46876750D02*
X196985000Y-46876750D01*
X196985000Y-46876750D02*
X196985000Y-49416750D01*
G36*
X210806568Y-55596110D02*
G01*
X210706568Y-55596110D01*
X210706568Y-55296110D01*
X210806568Y-55296110D01*
X210806568Y-55596110D01*
G37*
D12*
X210806568Y-55596110D02*
X210706568Y-55596110D01*
X210706568Y-55296110D01*
X210806568Y-55296110D01*
X210806568Y-55596110D01*
G36*
X210806568Y-56096110D02*
G01*
X210706568Y-56096110D01*
X210706568Y-55896110D01*
X210806568Y-55896110D01*
X210806568Y-56096110D01*
G37*
X210806568Y-56096110D02*
X210706568Y-56096110D01*
X210706568Y-55896110D01*
X210806568Y-55896110D01*
X210806568Y-56096110D01*
G36*
X210606568Y-55796110D02*
G01*
X210506568Y-55796110D01*
X210506568Y-55696110D01*
X210606568Y-55696110D01*
X210606568Y-55796110D01*
G37*
X210606568Y-55796110D02*
X210506568Y-55796110D01*
X210506568Y-55696110D01*
X210606568Y-55696110D01*
X210606568Y-55796110D01*
G36*
X210406568Y-56096110D02*
G01*
X210306568Y-56096110D01*
X210306568Y-55296110D01*
X210406568Y-55296110D01*
X210406568Y-56096110D01*
G37*
X210406568Y-56096110D02*
X210306568Y-56096110D01*
X210306568Y-55296110D01*
X210406568Y-55296110D01*
X210406568Y-56096110D01*
G36*
X210806568Y-55396110D02*
G01*
X210306568Y-55396110D01*
X210306568Y-55296110D01*
X210806568Y-55296110D01*
X210806568Y-55396110D01*
G37*
X210806568Y-55396110D02*
X210306568Y-55396110D01*
X210306568Y-55296110D01*
X210806568Y-55296110D01*
X210806568Y-55396110D01*
X63430000Y-68970000D02*
X64930000Y-68970000D01*
X64680000Y-71170000D02*
X64180000Y-72070000D01*
X64180000Y-72070000D02*
X63680000Y-71170000D01*
X63680000Y-72170000D02*
X64680000Y-72170000D01*
X63680000Y-71170000D02*
X64680000Y-71170000D01*
X64930000Y-74370000D02*
X64930000Y-68970000D01*
X63430000Y-74370000D02*
X64930000Y-74370000D01*
X63430000Y-68970000D02*
X63430000Y-74370000D01*
D13*
X77357900Y-62370000D02*
X77357900Y-63820000D01*
X77357900Y-63820000D02*
X74907900Y-63820000D01*
X74907900Y-63820000D02*
X74907900Y-62370000D01*
X74907900Y-62370000D02*
X77327900Y-62370000D01*
D12*
X111070000Y-93240000D02*
X112570000Y-93240000D01*
X111320000Y-90040000D02*
X112320000Y-90040000D01*
X111070000Y-87840000D02*
X111070000Y-93240000D01*
X112320000Y-90040000D02*
X111820000Y-90940000D01*
X111320000Y-91040000D02*
X112320000Y-91040000D01*
X111070000Y-87840000D02*
X112570000Y-87840000D01*
X111820000Y-90940000D02*
X111320000Y-90040000D01*
X112570000Y-93240000D02*
X112570000Y-87840000D01*
X122340000Y-132220000D02*
X122340000Y-126820000D01*
X121090000Y-129020000D02*
X122090000Y-129020000D01*
X120840000Y-132220000D02*
X122340000Y-132220000D01*
X120840000Y-126820000D02*
X120840000Y-132220000D01*
X120840000Y-126820000D02*
X122340000Y-126820000D01*
X122090000Y-129020000D02*
X121590000Y-129920000D01*
X121090000Y-130020000D02*
X122090000Y-130020000D01*
X121590000Y-129920000D02*
X121090000Y-129020000D01*
X200795000Y-81720000D02*
X210955000Y-81720000D01*
X200795000Y-84260000D02*
X200795000Y-81720000D01*
X210955000Y-81720000D02*
X210955000Y-84260000D01*
X200795000Y-84260000D02*
X210955000Y-84260000D01*
X153020000Y-115240000D02*
X153020000Y-116240000D01*
X142720000Y-113700000D02*
X142520000Y-113700000D01*
D17*
X142720000Y-113540000D02*
X145420000Y-113540000D01*
D12*
X153020000Y-118840000D02*
X144620000Y-118840001D01*
X142520000Y-115940000D02*
X142720000Y-115940000D01*
X153020000Y-118490000D02*
X153020000Y-118840000D01*
X142520000Y-113340000D02*
X145800000Y-113340000D01*
X152820000Y-118490000D02*
X153020000Y-118490000D01*
D18*
X151020000Y-117040000D02*
X144320000Y-117040000D01*
D14*
X152820000Y-116140000D02*
X152820000Y-115440000D01*
D12*
X142520000Y-116940000D02*
X142520000Y-115940000D01*
X153020000Y-116240000D02*
X152820000Y-116240000D01*
D13*
X151840600Y-105114600D02*
X151840600Y-106564600D01*
D17*
X152720000Y-115540000D02*
X151320000Y-115540000D01*
D19*
X144250000Y-117340000D02*
X144250000Y-115100000D01*
D12*
X142750000Y-115940000D02*
X142750000Y-113700000D01*
D15*
X152320000Y-118240000D02*
X152320000Y-115740000D01*
D12*
X152800000Y-116240000D02*
X152800000Y-118490000D01*
D14*
X152820000Y-118640000D02*
X151420000Y-118640000D01*
D12*
X148020000Y-115240000D02*
X153020000Y-115240000D01*
D16*
X143120000Y-113840000D02*
X143120000Y-115640000D01*
D12*
X142520000Y-113340000D02*
X142520000Y-113700000D01*
D13*
X149790600Y-105114600D02*
X151840600Y-105114600D01*
X142620001Y-116040000D02*
X142620000Y-116939999D01*
X149790600Y-106564600D02*
X149790600Y-105114600D01*
X151840600Y-106564600D02*
X149790600Y-106564600D01*
D12*
X142519999Y-116940000D02*
G75*
G03*
X144620000Y-118840001I2000001J100000D01*
G01*
X145803682Y-113361471D02*
G75*
G03*
X148020000Y-115240000I2151318J291471D01*
G01*
D15*
X145403682Y-113761471D02*
G75*
G03*
X147620000Y-115640000I2151318J291471D01*
G01*
D12*
X78960000Y-115270000D02*
X83960000Y-115270000D01*
X73660000Y-113730000D02*
X73460000Y-113730000D01*
D15*
X83260000Y-118270000D02*
X83260000Y-115770000D01*
D14*
X83760000Y-116170000D02*
X83760000Y-115470000D01*
D13*
X80730600Y-106594600D02*
X80730600Y-105144600D01*
D12*
X83760000Y-118520000D02*
X83960000Y-118520000D01*
D13*
X80730600Y-105144600D02*
X82780600Y-105144600D01*
D12*
X83740000Y-116270000D02*
X83740000Y-118520000D01*
D14*
X83760000Y-118670000D02*
X82360000Y-118670000D01*
D12*
X73460000Y-116970000D02*
X73460000Y-115970000D01*
X73460000Y-113370000D02*
X73460000Y-113730000D01*
D17*
X83660000Y-115570000D02*
X82260000Y-115570000D01*
D12*
X73460000Y-115970000D02*
X73660000Y-115970000D01*
D18*
X81960000Y-117070000D02*
X75260000Y-117070000D01*
D12*
X73690000Y-115970000D02*
X73690000Y-113730000D01*
D17*
X73660000Y-113570000D02*
X76360000Y-113570000D01*
D19*
X75190000Y-117370000D02*
X75190000Y-115130000D01*
D12*
X83960000Y-115270000D02*
X83960000Y-116270000D01*
X73460000Y-113370000D02*
X76740000Y-113370000D01*
D13*
X82780600Y-105144600D02*
X82780600Y-106594600D01*
D12*
X83960000Y-116270000D02*
X83760000Y-116270000D01*
D16*
X74060000Y-113870000D02*
X74060000Y-115670000D01*
D13*
X82780600Y-106594600D02*
X80730600Y-106594600D01*
D12*
X83960000Y-118870000D02*
X75560000Y-118870001D01*
X83960000Y-118520000D02*
X83960000Y-118870000D01*
D13*
X73560001Y-116070000D02*
X73560000Y-116969999D01*
D15*
X76343682Y-113791471D02*
G75*
G03*
X78560000Y-115670000I2151318J291471D01*
G01*
D12*
X76743682Y-113391471D02*
G75*
G03*
X78960000Y-115270000I2151318J291471D01*
G01*
X73459999Y-116970000D02*
G75*
G03*
X75560000Y-118870001I2000001J100000D01*
G01*
D15*
X133270000Y-118240000D02*
X133270000Y-115740000D01*
D12*
X133970000Y-118840000D02*
X125570000Y-118840001D01*
X123670000Y-113700000D02*
X123470000Y-113700000D01*
X123470000Y-116940000D02*
X123470000Y-115940000D01*
D13*
X130740600Y-106564600D02*
X130740600Y-105114600D01*
D19*
X125200000Y-117340000D02*
X125200000Y-115100000D01*
D14*
X133770000Y-118640000D02*
X132370000Y-118640000D01*
D12*
X123700000Y-115940000D02*
X123700000Y-113700000D01*
D18*
X131970000Y-117040000D02*
X125270000Y-117040000D01*
D12*
X128970000Y-115240000D02*
X133970000Y-115240000D01*
X123470000Y-113340000D02*
X123470000Y-113700000D01*
X133970000Y-116240000D02*
X133770000Y-116240000D01*
X133970000Y-118490000D02*
X133970000Y-118840000D01*
D14*
X133770000Y-116140000D02*
X133770000Y-115440000D01*
D12*
X123470000Y-113340000D02*
X126750000Y-113340000D01*
D17*
X123670000Y-113540000D02*
X126370000Y-113540000D01*
D12*
X133970000Y-115240000D02*
X133970000Y-116240000D01*
X133750000Y-116240000D02*
X133750000Y-118490000D01*
D16*
X124070000Y-113840000D02*
X124070000Y-115640000D01*
D13*
X132790600Y-105114600D02*
X132790600Y-106564600D01*
X130740600Y-105114600D02*
X132790600Y-105114600D01*
D17*
X133670000Y-115540000D02*
X132270000Y-115540000D01*
D12*
X133770000Y-118490000D02*
X133970000Y-118490000D01*
D13*
X132790600Y-106564600D02*
X130740600Y-106564600D01*
D12*
X123470000Y-115940000D02*
X123670000Y-115940000D01*
D13*
X123570001Y-116040000D02*
X123570000Y-116939999D01*
D12*
X126753682Y-113361471D02*
G75*
G03*
X128970000Y-115240000I2151318J291471D01*
G01*
D15*
X126353682Y-113761471D02*
G75*
G03*
X128570000Y-115640000I2151318J291471D01*
G01*
D12*
X123469999Y-116940000D02*
G75*
G03*
X125570000Y-118840001I2000001J100000D01*
G01*
X71810000Y-134320001D02*
X76810000Y-134320001D01*
X76590000Y-135320001D02*
X76590000Y-137570001D01*
D13*
X73580600Y-125644601D02*
X73580600Y-124194601D01*
D12*
X66510000Y-132780001D02*
X66310000Y-132780001D01*
X66540000Y-135020001D02*
X66540000Y-132780001D01*
X76810000Y-134320001D02*
X76810000Y-135320001D01*
D17*
X66510000Y-132620001D02*
X69210000Y-132620001D01*
D14*
X76610000Y-137720001D02*
X75210000Y-137720001D01*
D17*
X76510000Y-134620001D02*
X75110000Y-134620001D01*
D18*
X74810000Y-136120001D02*
X68110000Y-136120001D01*
D12*
X66310000Y-135020001D02*
X66510000Y-135020001D01*
X76810000Y-137920001D02*
X68410000Y-137920002D01*
X76810000Y-135320001D02*
X76610000Y-135320001D01*
D13*
X73580600Y-124194601D02*
X75630600Y-124194601D01*
D15*
X76110000Y-137320001D02*
X76110000Y-134820001D01*
D12*
X76610000Y-137570001D02*
X76810000Y-137570001D01*
D13*
X75630600Y-124194601D02*
X75630600Y-125644601D01*
D12*
X66310000Y-136020001D02*
X66310000Y-135020001D01*
X66310000Y-132420001D02*
X66310000Y-132780001D01*
X76810000Y-137570001D02*
X76810000Y-137920001D01*
D13*
X66410001Y-135120001D02*
X66410000Y-136020000D01*
D12*
X66310000Y-132420001D02*
X69590000Y-132420001D01*
D13*
X75630600Y-125644601D02*
X73580600Y-125644601D01*
D16*
X66910000Y-132920001D02*
X66910000Y-134720001D01*
D14*
X76610000Y-135220001D02*
X76610000Y-134520001D01*
D19*
X68040000Y-136420001D02*
X68040000Y-134180001D01*
D15*
X69193682Y-132841472D02*
G75*
G03*
X71410000Y-134720001I2151318J291471D01*
G01*
D12*
X69593682Y-132441472D02*
G75*
G03*
X71810000Y-134320001I2151318J291471D01*
G01*
X66309999Y-136020001D02*
G75*
G03*
X68410000Y-137920002I2000001J100000D01*
G01*
X63910000Y-128490000D02*
X64910000Y-128490000D01*
X65160000Y-131690000D02*
X65160000Y-126290000D01*
X63910000Y-129490000D02*
X64910000Y-129490000D01*
X63660000Y-126290000D02*
X63660000Y-131690000D01*
X63660000Y-131690000D02*
X65160000Y-131690000D01*
X63660000Y-126290000D02*
X65160000Y-126290000D01*
X64410000Y-129390000D02*
X63910000Y-128490000D01*
X64910000Y-128490000D02*
X64410000Y-129390000D01*
D13*
X82147900Y-127400000D02*
X84567900Y-127400000D01*
X84597900Y-127400000D02*
X84597900Y-128850000D01*
X84597900Y-128850000D02*
X82147900Y-128850000D01*
X82147900Y-128850000D02*
X82147900Y-127400000D01*
D12*
X179240000Y-109590000D02*
X178740000Y-110490000D01*
X179490000Y-112790000D02*
X179490000Y-107390000D01*
X177990000Y-112790000D02*
X179490000Y-112790000D01*
X178240000Y-109590000D02*
X179240000Y-109590000D01*
X177990000Y-107390000D02*
X179490000Y-107390000D01*
X178240000Y-110590000D02*
X179240000Y-110590000D01*
X177990000Y-107390000D02*
X177990000Y-112790000D01*
X178740000Y-110490000D02*
X178240000Y-109590000D01*
X155350000Y-52140000D02*
X154850000Y-53040000D01*
X154350000Y-52140000D02*
X155350000Y-52140000D01*
X155600000Y-55340000D02*
X155600000Y-49940000D01*
X154100000Y-49940000D02*
X154100000Y-55340000D01*
X154350000Y-53140000D02*
X155350000Y-53140000D01*
X154100000Y-55340000D02*
X155600000Y-55340000D01*
X154100000Y-49940000D02*
X155600000Y-49940000D01*
X154850000Y-53040000D02*
X154350000Y-52140000D01*
X144420000Y-68715000D02*
X144420000Y-74115000D01*
X144670000Y-70915000D02*
X145670000Y-70915000D01*
X145920000Y-74115000D02*
X145920000Y-68715000D01*
X144670000Y-71915000D02*
X145670000Y-71915000D01*
X144420000Y-74115000D02*
X145920000Y-74115000D01*
X145670000Y-70915000D02*
X145170000Y-71815000D01*
X144420000Y-68715000D02*
X145920000Y-68715000D01*
X145170000Y-71815000D02*
X144670000Y-70915000D01*
X124250000Y-99430000D02*
X124450000Y-99430000D01*
X119450000Y-96180000D02*
X124450000Y-96180000D01*
X124450000Y-97180000D02*
X124250000Y-97180000D01*
D16*
X114550000Y-94780000D02*
X114550000Y-96580000D01*
D12*
X113950000Y-94280000D02*
X117230000Y-94280000D01*
X114180000Y-96880000D02*
X114180000Y-94640000D01*
X124230000Y-97180000D02*
X124230000Y-99430000D01*
D14*
X124250000Y-99580000D02*
X122850000Y-99580000D01*
D12*
X114150000Y-94640000D02*
X113950000Y-94640000D01*
D15*
X123750000Y-99180000D02*
X123750000Y-96680000D01*
D19*
X115680000Y-98280000D02*
X115680000Y-96040000D01*
D17*
X124150000Y-96480000D02*
X122750000Y-96480000D01*
D13*
X114050001Y-96980000D02*
X114050000Y-97879999D01*
X121220600Y-87504600D02*
X121220600Y-86054600D01*
X121220600Y-86054600D02*
X123270600Y-86054600D01*
D17*
X114150000Y-94480000D02*
X116850000Y-94480000D01*
D18*
X122450000Y-97980000D02*
X115750000Y-97980000D01*
D12*
X113950000Y-96880000D02*
X114150000Y-96880000D01*
X124450000Y-99430000D02*
X124450000Y-99780000D01*
X113950000Y-97880000D02*
X113950000Y-96880000D01*
X124450000Y-99780000D02*
X116050000Y-99780001D01*
D13*
X123270600Y-86054600D02*
X123270600Y-87504600D01*
D14*
X124250000Y-97080000D02*
X124250000Y-96380000D01*
D13*
X123270600Y-87504600D02*
X121220600Y-87504600D01*
D12*
X124450000Y-96180000D02*
X124450000Y-97180000D01*
X113950000Y-94280000D02*
X113950000Y-94640000D01*
D15*
X116833682Y-94701471D02*
G75*
G03*
X119050000Y-96580000I2151318J291471D01*
G01*
D12*
X117233682Y-94301471D02*
G75*
G03*
X119450000Y-96180000I2151318J291471D01*
G01*
X113949999Y-97880000D02*
G75*
G03*
X116050000Y-99780001I2000001J100000D01*
G01*
X157025000Y-58750000D02*
X157025000Y-56510000D01*
X167295000Y-58050000D02*
X167295000Y-59050000D01*
D15*
X166595000Y-61050000D02*
X166595000Y-58550000D01*
D12*
X156795000Y-56150000D02*
X160075000Y-56150000D01*
X167295000Y-59050000D02*
X167095000Y-59050000D01*
X156795000Y-58750000D02*
X156995000Y-58750000D01*
X156795000Y-59750000D02*
X156795000Y-58750000D01*
D13*
X166115600Y-47924600D02*
X166115600Y-49374600D01*
D12*
X167295000Y-61300000D02*
X167295000Y-61650000D01*
D18*
X165295000Y-59850000D02*
X158595000Y-59850000D01*
D12*
X167095000Y-61300000D02*
X167295000Y-61300000D01*
X162295000Y-58050000D02*
X167295000Y-58050000D01*
D13*
X164065600Y-49374600D02*
X164065600Y-47924600D01*
X164065600Y-47924600D02*
X166115600Y-47924600D01*
X156895001Y-58850000D02*
X156895000Y-59749999D01*
D12*
X156995000Y-56510000D02*
X156795000Y-56510000D01*
D14*
X167095000Y-58950000D02*
X167095000Y-58250000D01*
D12*
X156795000Y-56150000D02*
X156795000Y-56510000D01*
D13*
X166115600Y-49374600D02*
X164065600Y-49374600D01*
D19*
X158525000Y-60150000D02*
X158525000Y-57910000D01*
D12*
X167075000Y-59050000D02*
X167075000Y-61300000D01*
D14*
X167095000Y-61450000D02*
X165695000Y-61450000D01*
D16*
X157395000Y-56650000D02*
X157395000Y-58450000D01*
D17*
X156995000Y-56350000D02*
X159695000Y-56350000D01*
D12*
X167295000Y-61650000D02*
X158895000Y-61650001D01*
D17*
X166995000Y-58350000D02*
X165595000Y-58350000D01*
D15*
X159678682Y-56571471D02*
G75*
G03*
X161895000Y-58450000I2151318J291471D01*
G01*
D12*
X156794999Y-59750000D02*
G75*
G03*
X158895000Y-61650001I2000001J100000D01*
G01*
X160078682Y-56171471D02*
G75*
G03*
X162295000Y-58050000I2151318J291471D01*
G01*
D14*
X109945000Y-58950000D02*
X109945000Y-58250000D01*
D12*
X99645000Y-56150000D02*
X102925000Y-56150000D01*
D13*
X106915600Y-47924600D02*
X108965600Y-47924600D01*
D15*
X109445000Y-61050000D02*
X109445000Y-58550000D01*
D12*
X99645000Y-56150000D02*
X99645000Y-56510000D01*
X99875000Y-58750000D02*
X99875000Y-56510000D01*
X99645000Y-59750000D02*
X99645000Y-58750000D01*
X109925000Y-59050000D02*
X109925000Y-61300000D01*
D17*
X109845000Y-58350000D02*
X108445000Y-58350000D01*
D13*
X108965600Y-49374600D02*
X106915600Y-49374600D01*
D18*
X108145000Y-59850000D02*
X101445000Y-59850000D01*
D16*
X100245000Y-56650000D02*
X100245000Y-58450000D01*
D12*
X99845000Y-56510000D02*
X99645000Y-56510000D01*
D14*
X109945000Y-61450000D02*
X108545000Y-61450000D01*
D13*
X108965600Y-47924600D02*
X108965600Y-49374600D01*
D17*
X99845000Y-56350000D02*
X102545000Y-56350000D01*
D12*
X99645000Y-58750000D02*
X99845000Y-58750000D01*
D19*
X101375000Y-60150000D02*
X101375000Y-57910000D01*
D12*
X110145000Y-61650000D02*
X101745000Y-61650001D01*
X105145000Y-58050000D02*
X110145000Y-58050000D01*
D13*
X106915600Y-49374600D02*
X106915600Y-47924600D01*
D12*
X110145000Y-58050000D02*
X110145000Y-59050000D01*
X109945000Y-61300000D02*
X110145000Y-61300000D01*
X110145000Y-59050000D02*
X109945000Y-59050000D01*
X110145000Y-61300000D02*
X110145000Y-61650000D01*
D13*
X99745001Y-58850000D02*
X99745000Y-59749999D01*
D15*
X102528682Y-56571471D02*
G75*
G03*
X104745000Y-58450000I2151318J291471D01*
G01*
D12*
X99644999Y-59750000D02*
G75*
G03*
X101745000Y-61650001I2000001J100000D01*
G01*
X102928682Y-56171471D02*
G75*
G03*
X105145000Y-58050000I2151318J291471D01*
G01*
X123460000Y-135000000D02*
X123660000Y-135000000D01*
D16*
X124060000Y-132900000D02*
X124060000Y-134700000D01*
D12*
X123660000Y-132760000D02*
X123460000Y-132760000D01*
D13*
X130730600Y-124174600D02*
X132780600Y-124174600D01*
D12*
X133960000Y-137550000D02*
X133960000Y-137900000D01*
X123460000Y-136000000D02*
X123460000Y-135000000D01*
D13*
X132780600Y-125624600D02*
X130730600Y-125624600D01*
D12*
X133960000Y-137900000D02*
X125560000Y-137900001D01*
X123460000Y-132400000D02*
X126740000Y-132400000D01*
D13*
X123560001Y-135100000D02*
X123560000Y-135999999D01*
D17*
X133660000Y-134600000D02*
X132260000Y-134600000D01*
D12*
X123690000Y-135000000D02*
X123690000Y-132760000D01*
X123460000Y-132400000D02*
X123460000Y-132760000D01*
X133960000Y-135300000D02*
X133760000Y-135300000D01*
D13*
X130730600Y-125624600D02*
X130730600Y-124174600D01*
D12*
X133760000Y-137550000D02*
X133960000Y-137550000D01*
D17*
X123660000Y-132600000D02*
X126360000Y-132600000D01*
D14*
X133760000Y-135200000D02*
X133760000Y-134500000D01*
D12*
X128960000Y-134300000D02*
X133960000Y-134300000D01*
D13*
X132780600Y-124174600D02*
X132780600Y-125624600D01*
D19*
X125190000Y-136400000D02*
X125190000Y-134160000D01*
D15*
X133260000Y-137300000D02*
X133260000Y-134800000D01*
D14*
X133760000Y-137700000D02*
X132360000Y-137700000D01*
D12*
X133960000Y-134300000D02*
X133960000Y-135300000D01*
D18*
X131960000Y-136100000D02*
X125260000Y-136100000D01*
D12*
X133740000Y-135300000D02*
X133740000Y-137550000D01*
X126743682Y-132421471D02*
G75*
G03*
X128960000Y-134300000I2151318J291471D01*
G01*
D15*
X126343682Y-132821471D02*
G75*
G03*
X128560000Y-134700000I2151318J291471D01*
G01*
D12*
X123459999Y-136000000D02*
G75*
G03*
X125560000Y-137900001I2000001J100000D01*
G01*
D14*
X100440000Y-80510000D02*
X99040000Y-80510000D01*
D12*
X100640000Y-77110000D02*
X100640000Y-78110000D01*
X90370000Y-77810000D02*
X90370000Y-75570000D01*
X100420000Y-78110000D02*
X100420000Y-80360000D01*
D16*
X90740000Y-75710000D02*
X90740000Y-77510000D01*
D13*
X99460600Y-68434600D02*
X97410600Y-68434600D01*
D12*
X90340000Y-75570000D02*
X90140000Y-75570000D01*
X100640000Y-80710000D02*
X92240000Y-80710001D01*
D13*
X90240001Y-77910000D02*
X90240000Y-78809999D01*
D14*
X100440000Y-78010000D02*
X100440000Y-77310000D01*
D18*
X98640000Y-78910000D02*
X91940000Y-78910000D01*
D13*
X97410600Y-68434600D02*
X97410600Y-66984600D01*
D12*
X90140000Y-78810000D02*
X90140000Y-77810000D01*
X90140000Y-75210000D02*
X90140000Y-75570000D01*
X90140000Y-75210000D02*
X93420000Y-75210000D01*
D15*
X99940000Y-80110000D02*
X99940000Y-77610000D01*
D13*
X97410600Y-66984600D02*
X99460600Y-66984600D01*
D12*
X100440000Y-80360000D02*
X100640000Y-80360000D01*
D13*
X99460600Y-66984600D02*
X99460600Y-68434600D01*
D12*
X95640000Y-77110000D02*
X100640000Y-77110000D01*
D17*
X100340000Y-77410000D02*
X98940000Y-77410000D01*
D12*
X100640000Y-78110000D02*
X100440000Y-78110000D01*
D17*
X90340000Y-75410000D02*
X93040000Y-75410000D01*
D19*
X91870000Y-79210000D02*
X91870000Y-76970000D01*
D12*
X100640000Y-80360000D02*
X100640000Y-80710000D01*
X90140000Y-77810000D02*
X90340000Y-77810000D01*
X90139999Y-78810000D02*
G75*
G03*
X92240000Y-80710001I2000001J100000D01*
G01*
X93423682Y-75231471D02*
G75*
G03*
X95640000Y-77110000I2151318J291471D01*
G01*
D15*
X93023682Y-75631471D02*
G75*
G03*
X95240000Y-77510000I2151318J291471D01*
G01*
D17*
X90795000Y-58350000D02*
X89395000Y-58350000D01*
D12*
X80595000Y-56150000D02*
X83875000Y-56150000D01*
D13*
X80695001Y-58850000D02*
X80695000Y-59749999D01*
D12*
X90895000Y-61300000D02*
X91095000Y-61300000D01*
X90875000Y-59050000D02*
X90875000Y-61300000D01*
D16*
X81195000Y-56650000D02*
X81195000Y-58450000D01*
D12*
X80595000Y-56150000D02*
X80595000Y-56510000D01*
X91095000Y-58050000D02*
X91095000Y-59050000D01*
X86095000Y-58050000D02*
X91095000Y-58050000D01*
X80795000Y-56510000D02*
X80595000Y-56510000D01*
D18*
X89095000Y-59850000D02*
X82395000Y-59850000D01*
D13*
X89915600Y-49374600D02*
X87865600Y-49374600D01*
D14*
X90895000Y-61450000D02*
X89495000Y-61450000D01*
D12*
X91095000Y-59050000D02*
X90895000Y-59050000D01*
D13*
X87865600Y-49374600D02*
X87865600Y-47924600D01*
D12*
X80595000Y-59750000D02*
X80595000Y-58750000D01*
D14*
X90895000Y-58950000D02*
X90895000Y-58250000D01*
D12*
X80595000Y-58750000D02*
X80795000Y-58750000D01*
X80825000Y-58750000D02*
X80825000Y-56510000D01*
D17*
X80795000Y-56350000D02*
X83495000Y-56350000D01*
D15*
X90395000Y-61050000D02*
X90395000Y-58550000D01*
D13*
X87865600Y-47924600D02*
X89915600Y-47924600D01*
D12*
X91095000Y-61650000D02*
X82695000Y-61650001D01*
X91095000Y-61300000D02*
X91095000Y-61650000D01*
D19*
X82325000Y-60150000D02*
X82325000Y-57910000D01*
D13*
X89915600Y-47924600D02*
X89915600Y-49374600D01*
D12*
X83878682Y-56171471D02*
G75*
G03*
X86095000Y-58050000I2151318J291471D01*
G01*
D15*
X83478682Y-56571471D02*
G75*
G03*
X85695000Y-58450000I2151318J291471D01*
G01*
D12*
X80594999Y-59750000D02*
G75*
G03*
X82695000Y-61650001I2000001J100000D01*
G01*
D17*
X105020000Y-134610000D02*
X103620000Y-134610000D01*
D12*
X94820000Y-135010000D02*
X95020000Y-135010000D01*
X94820000Y-132410000D02*
X94820000Y-132770000D01*
D16*
X95420000Y-132910000D02*
X95420000Y-134710000D01*
D19*
X96550000Y-136410000D02*
X96550000Y-134170000D01*
D18*
X103320000Y-136110000D02*
X96620000Y-136110000D01*
D12*
X94820000Y-132410000D02*
X98100000Y-132410000D01*
X105120000Y-137560000D02*
X105320000Y-137560000D01*
D17*
X95020000Y-132610000D02*
X97720000Y-132610000D01*
D14*
X105120000Y-137710000D02*
X103720000Y-137710000D01*
X105120000Y-135210000D02*
X105120000Y-134510000D01*
D12*
X105320000Y-137560000D02*
X105320000Y-137910000D01*
D13*
X102090600Y-125634600D02*
X102090600Y-124184600D01*
D15*
X104620000Y-137310000D02*
X104620000Y-134810000D01*
D13*
X104140600Y-124184600D02*
X104140600Y-125634600D01*
D12*
X94820000Y-136010000D02*
X94820000Y-135010000D01*
D13*
X104140600Y-125634600D02*
X102090600Y-125634600D01*
D12*
X95020000Y-132770000D02*
X94820000Y-132770000D01*
D13*
X102090600Y-124184600D02*
X104140600Y-124184600D01*
D12*
X105100000Y-135310000D02*
X105100000Y-137560000D01*
X95050000Y-135010000D02*
X95050000Y-132770000D01*
X105320000Y-135310000D02*
X105120000Y-135310000D01*
D13*
X94920001Y-135110000D02*
X94920000Y-136009999D01*
D12*
X105320000Y-137910000D02*
X96920000Y-137910001D01*
X105320000Y-134310000D02*
X105320000Y-135310000D01*
X100320000Y-134310000D02*
X105320000Y-134310000D01*
X94819999Y-136010000D02*
G75*
G03*
X96920000Y-137910001I2000001J100000D01*
G01*
X98103682Y-132431471D02*
G75*
G03*
X100320000Y-134310000I2151318J291471D01*
G01*
D15*
X97703682Y-132831471D02*
G75*
G03*
X99920000Y-134710000I2151318J291471D01*
G01*
D12*
X116270000Y-52905000D02*
X117270000Y-52905000D01*
X116020000Y-49705000D02*
X117520000Y-49705000D01*
X117270000Y-51905000D02*
X116770000Y-52805000D01*
X116770000Y-52805000D02*
X116270000Y-51905000D01*
X116270000Y-51905000D02*
X117270000Y-51905000D01*
X116020000Y-49705000D02*
X116020000Y-55105000D01*
X116020000Y-55105000D02*
X117520000Y-55105000D01*
X117520000Y-55105000D02*
X117520000Y-49705000D01*
X78780000Y-52075000D02*
X78280000Y-52975000D01*
X77780000Y-52075000D02*
X78780000Y-52075000D01*
X79030000Y-55275000D02*
X79030000Y-49875000D01*
X77530000Y-55275000D02*
X79030000Y-55275000D01*
X77780000Y-53075000D02*
X78780000Y-53075000D01*
X78280000Y-52975000D02*
X77780000Y-52075000D01*
X77530000Y-49875000D02*
X79030000Y-49875000D01*
X77530000Y-49875000D02*
X77530000Y-55275000D01*
X150960000Y-93820000D02*
X150960000Y-88420000D01*
X150210000Y-91520000D02*
X149710000Y-90620000D01*
X150710000Y-90620000D02*
X150210000Y-91520000D01*
X149460000Y-88420000D02*
X149460000Y-93820000D01*
X149460000Y-88420000D02*
X150960000Y-88420000D01*
X149710000Y-91620000D02*
X150710000Y-91620000D01*
X149710000Y-90620000D02*
X150710000Y-90620000D01*
X149460000Y-93820000D02*
X150960000Y-93820000D01*
D19*
X106150000Y-117340000D02*
X106150000Y-115100000D01*
D12*
X104420000Y-113340000D02*
X104420000Y-113700000D01*
D18*
X112920000Y-117040000D02*
X106220000Y-117040000D01*
D13*
X111690600Y-105114600D02*
X113740600Y-105114600D01*
D12*
X114700000Y-116240000D02*
X114700000Y-118490000D01*
D17*
X104620000Y-113540000D02*
X107320000Y-113540000D01*
D15*
X114220000Y-118240000D02*
X114220000Y-115740000D01*
D12*
X114720000Y-118490000D02*
X114920000Y-118490000D01*
X114920000Y-115240000D02*
X114920000Y-116240000D01*
X104420000Y-113340000D02*
X107700000Y-113340000D01*
D13*
X104520001Y-116040000D02*
X104520000Y-116939999D01*
D16*
X105020000Y-113840000D02*
X105020000Y-115640000D01*
D12*
X114920000Y-118840000D02*
X106520000Y-118840001D01*
D13*
X113740600Y-106564600D02*
X111690600Y-106564600D01*
D12*
X104420000Y-116940000D02*
X104420000Y-115940000D01*
D17*
X114620000Y-115540000D02*
X113220000Y-115540000D01*
D12*
X109920000Y-115240000D02*
X114920000Y-115240000D01*
X104650000Y-115940000D02*
X104650000Y-113700000D01*
D13*
X111690600Y-106564600D02*
X111690600Y-105114600D01*
D14*
X114720000Y-116140000D02*
X114720000Y-115440000D01*
D12*
X114920000Y-118490000D02*
X114920000Y-118840000D01*
X104420000Y-115940000D02*
X104620000Y-115940000D01*
D13*
X113740600Y-105114600D02*
X113740600Y-106564600D01*
D14*
X114720000Y-118640000D02*
X113320000Y-118640000D01*
D12*
X114920000Y-116240000D02*
X114720000Y-116240000D01*
X104620000Y-113700000D02*
X104420000Y-113700000D01*
X104419999Y-116940000D02*
G75*
G03*
X106520000Y-118840001I2000001J100000D01*
G01*
X107703682Y-113361471D02*
G75*
G03*
X109920000Y-115240000I2151318J291471D01*
G01*
D15*
X107303682Y-113761471D02*
G75*
G03*
X109520000Y-115640000I2151318J291471D01*
G01*
D12*
X215830000Y-83165000D02*
X215230000Y-83165000D01*
X212330000Y-83165000D02*
X213030000Y-83165000D01*
X215830000Y-89165000D02*
X215830000Y-83165000D01*
X212330000Y-83165000D02*
X212330000Y-89165000D01*
X215830000Y-89165000D02*
X215230000Y-89165000D01*
X212330000Y-89165000D02*
X213030000Y-89165000D01*
D14*
X148045000Y-61450000D02*
X146645000Y-61450000D01*
D12*
X137745000Y-58750000D02*
X137945000Y-58750000D01*
X148245000Y-61650000D02*
X139845000Y-61650001D01*
X148045000Y-61300000D02*
X148245000Y-61300000D01*
X148245000Y-59050000D02*
X148045000Y-59050000D01*
D17*
X137945000Y-56350000D02*
X140645000Y-56350000D01*
D12*
X143245000Y-58050000D02*
X148245000Y-58050000D01*
D17*
X147945000Y-58350000D02*
X146545000Y-58350000D01*
D13*
X145015600Y-49374600D02*
X145015600Y-47924600D01*
X137845001Y-58850000D02*
X137845000Y-59749999D01*
D16*
X138345000Y-56650000D02*
X138345000Y-58450000D01*
D13*
X147065600Y-49374600D02*
X145015600Y-49374600D01*
D12*
X137975000Y-58750000D02*
X137975000Y-56510000D01*
X148025000Y-59050000D02*
X148025000Y-61300000D01*
X137745000Y-56150000D02*
X141025000Y-56150000D01*
D14*
X148045000Y-58950000D02*
X148045000Y-58250000D01*
D18*
X146245000Y-59850000D02*
X139545000Y-59850000D01*
D13*
X147065600Y-47924600D02*
X147065600Y-49374600D01*
D12*
X148245000Y-58050000D02*
X148245000Y-59050000D01*
D13*
X145015600Y-47924600D02*
X147065600Y-47924600D01*
D12*
X137745000Y-56150000D02*
X137745000Y-56510000D01*
X137945000Y-56510000D02*
X137745000Y-56510000D01*
D19*
X139475000Y-60150000D02*
X139475000Y-57910000D01*
D12*
X137745000Y-59750000D02*
X137745000Y-58750000D01*
X148245000Y-61300000D02*
X148245000Y-61650000D01*
D15*
X147545000Y-61050000D02*
X147545000Y-58550000D01*
X140628682Y-56571471D02*
G75*
G03*
X142845000Y-58450000I2151318J291471D01*
G01*
D12*
X137744999Y-59750000D02*
G75*
G03*
X139845000Y-61650001I2000001J100000D01*
G01*
X141028682Y-56171471D02*
G75*
G03*
X143245000Y-58050000I2151318J291471D01*
G01*
X94900000Y-97880000D02*
X94900000Y-96880000D01*
X105200000Y-99430000D02*
X105400000Y-99430000D01*
X105400000Y-97180000D02*
X105200000Y-97180000D01*
X95130000Y-96880000D02*
X95130000Y-94640000D01*
X105180000Y-97180000D02*
X105180000Y-99430000D01*
D13*
X102170600Y-86054600D02*
X104220600Y-86054600D01*
D15*
X104700000Y-99180000D02*
X104700000Y-96680000D01*
D12*
X94900000Y-94280000D02*
X98180000Y-94280000D01*
D14*
X105200000Y-99580000D02*
X103800000Y-99580000D01*
D17*
X95100000Y-94480000D02*
X97800000Y-94480000D01*
D12*
X95100000Y-94640000D02*
X94900000Y-94640000D01*
D17*
X105100000Y-96480000D02*
X103700000Y-96480000D01*
D14*
X105200000Y-97080000D02*
X105200000Y-96380000D01*
D18*
X103400000Y-97980000D02*
X96700000Y-97980000D01*
D13*
X104220600Y-87504600D02*
X102170600Y-87504600D01*
D16*
X95500000Y-94780000D02*
X95500000Y-96580000D01*
D12*
X105400000Y-99430000D02*
X105400000Y-99780000D01*
D19*
X96630000Y-98280000D02*
X96630000Y-96040000D01*
D13*
X102170600Y-87504600D02*
X102170600Y-86054600D01*
D12*
X100400000Y-96180000D02*
X105400000Y-96180000D01*
D13*
X95000001Y-96980000D02*
X95000000Y-97879999D01*
D12*
X94900000Y-96880000D02*
X95100000Y-96880000D01*
X105400000Y-96180000D02*
X105400000Y-97180000D01*
X105400000Y-99780000D02*
X97000000Y-99780001D01*
D13*
X104220600Y-86054600D02*
X104220600Y-87504600D01*
D12*
X94900000Y-94280000D02*
X94900000Y-94640000D01*
D15*
X97783682Y-94701471D02*
G75*
G03*
X100000000Y-96580000I2151318J291471D01*
G01*
D12*
X94899999Y-97880000D02*
G75*
G03*
X97000000Y-99780001I2000001J100000D01*
G01*
X98183682Y-94301471D02*
G75*
G03*
X100400000Y-96180000I2151318J291471D01*
G01*
X72230000Y-112665000D02*
X72230000Y-107265000D01*
X70980000Y-110465000D02*
X71980000Y-110465000D01*
X70980000Y-109465000D02*
X71980000Y-109465000D01*
X71480000Y-110365000D02*
X70980000Y-109465000D01*
X70730000Y-107265000D02*
X72230000Y-107265000D01*
X71980000Y-109465000D02*
X71480000Y-110365000D01*
X70730000Y-107265000D02*
X70730000Y-112665000D01*
X70730000Y-112665000D02*
X72230000Y-112665000D01*
X58820000Y-50015000D02*
X60320000Y-50015000D01*
X58820000Y-55415000D02*
X60320000Y-55415000D01*
X59070000Y-52215000D02*
X60070000Y-52215000D01*
X60070000Y-52215000D02*
X59570000Y-53115000D01*
X59070000Y-53215000D02*
X60070000Y-53215000D01*
X59570000Y-53115000D02*
X59070000Y-52215000D01*
X58820000Y-50015000D02*
X58820000Y-55415000D01*
X60320000Y-55415000D02*
X60320000Y-50015000D01*
X119690000Y-77110000D02*
X119690000Y-78110000D01*
D13*
X116460600Y-68434600D02*
X116460600Y-66984600D01*
D17*
X109390000Y-75410000D02*
X112090000Y-75410000D01*
D12*
X114690000Y-77110000D02*
X119690000Y-77110000D01*
D13*
X116460600Y-66984600D02*
X118510600Y-66984600D01*
D12*
X109190000Y-78810000D02*
X109190000Y-77810000D01*
X109190000Y-77810000D02*
X109390000Y-77810000D01*
X109420000Y-77810000D02*
X109420000Y-75570000D01*
D19*
X110920000Y-79210000D02*
X110920000Y-76970000D01*
D12*
X119690000Y-80360000D02*
X119690000Y-80710000D01*
D17*
X119390000Y-77410000D02*
X117990000Y-77410000D01*
D13*
X109290001Y-77910000D02*
X109290000Y-78809999D01*
D14*
X119490000Y-80510000D02*
X118090000Y-80510000D01*
D12*
X119690000Y-78110000D02*
X119490000Y-78110000D01*
X119490000Y-80360000D02*
X119690000Y-80360000D01*
D18*
X117690000Y-78910000D02*
X110990000Y-78910000D01*
D13*
X118510600Y-66984600D02*
X118510600Y-68434600D01*
D16*
X109790000Y-75710000D02*
X109790000Y-77510000D01*
D12*
X109390000Y-75570000D02*
X109190000Y-75570000D01*
X119470000Y-78110000D02*
X119470000Y-80360000D01*
X109190000Y-75210000D02*
X109190000Y-75570000D01*
D14*
X119490000Y-78010000D02*
X119490000Y-77310000D01*
D15*
X118990000Y-80110000D02*
X118990000Y-77610000D01*
D12*
X109190000Y-75210000D02*
X112470000Y-75210000D01*
X119690000Y-80710000D02*
X111290000Y-80710001D01*
D13*
X118510600Y-68434600D02*
X116460600Y-68434600D01*
D12*
X112473682Y-75231471D02*
G75*
G03*
X114690000Y-77110000I2151318J291471D01*
G01*
D15*
X112073682Y-75631471D02*
G75*
G03*
X114290000Y-77510000I2151318J291471D01*
G01*
D12*
X109189999Y-78810000D02*
G75*
G03*
X111290000Y-80710001I2000001J100000D01*
G01*
D21*
X207585000Y-96565000D03*
X214585000Y-94815000D03*
X207585000Y-94815000D03*
X214585000Y-96565000D03*
D22*
X205785000Y-98665000D03*
X205785000Y-92715000D03*
X209785000Y-92715000D03*
X209785000Y-98665000D03*
X212785000Y-98665000D03*
X212785000Y-92715000D03*
X204285000Y-96915000D03*
X204285000Y-94465000D03*
D23*
X198255000Y-50686750D03*
D24*
X198255000Y-53226750D03*
X198255000Y-55766750D03*
X198255000Y-58306750D03*
X198255000Y-60846750D03*
X198255000Y-63386750D03*
X198255000Y-65926750D03*
X198255000Y-68466750D03*
X198255000Y-71006750D03*
X198255000Y-73546750D03*
X198255000Y-76086750D03*
X198255000Y-78626750D03*
X213495000Y-78626750D03*
X213495000Y-76086750D03*
X213495000Y-73546750D03*
X213495000Y-71006750D03*
X213495000Y-68466750D03*
X213495000Y-65926750D03*
X213495000Y-63386750D03*
X213495000Y-60846750D03*
X213495000Y-58306750D03*
X213495000Y-55766750D03*
X213495000Y-53226750D03*
X213495000Y-50686750D03*
D25*
X202065000Y-82990000D03*
X204605000Y-82990000D03*
X207145000Y-82990000D03*
X209685000Y-82990000D03*
%LPC*%
D26*
X157270000Y-131055000D03*
X157270000Y-127505000D03*
D27*
X132270000Y-63465000D03*
X132270000Y-65215000D03*
X136670000Y-65215000D03*
X136670000Y-63465000D03*
D28*
X74600000Y-93150001D03*
D29*
X77140000Y-98230001D03*
D30*
X69520000Y-93150001D03*
D29*
X78410000Y-95690001D03*
X70790000Y-95690002D03*
D31*
X79100000Y-93150001D03*
D29*
X72060000Y-98230001D03*
D31*
X70100000Y-93150001D03*
D30*
X79680000Y-93150001D03*
D32*
X77000000Y-86775001D03*
X77000000Y-88525001D03*
X72200000Y-88525001D03*
X72200000Y-86775001D03*
D33*
X67600000Y-95730001D03*
X80300000Y-98270001D03*
D29*
X189060000Y-117320000D03*
D31*
X191020000Y-112240000D03*
X182020000Y-112240000D03*
D29*
X183980000Y-117320000D03*
D28*
X186520000Y-112240000D03*
D30*
X181440000Y-112240000D03*
D29*
X190330000Y-114780000D03*
X182710000Y-114780001D03*
D30*
X191600000Y-112240000D03*
D32*
X188920000Y-105865000D03*
X188920000Y-107615000D03*
X184120000Y-107615000D03*
X184120000Y-105865000D03*
D33*
X179520000Y-114820000D03*
X192220000Y-117360000D03*
D30*
X139220000Y-74110000D03*
D29*
X137950000Y-76650000D03*
D31*
X138640000Y-74110000D03*
D30*
X129060000Y-74110000D03*
D29*
X130330000Y-76650001D03*
D31*
X129640000Y-74110000D03*
D29*
X131600000Y-79190000D03*
X136680000Y-79190000D03*
D28*
X134140000Y-74110000D03*
D32*
X136540000Y-67735000D03*
X136540000Y-69485000D03*
X131740000Y-69485000D03*
X131740000Y-67735000D03*
D33*
X127140000Y-76690000D03*
X139840000Y-79230000D03*
D26*
X121860000Y-111725000D03*
X121860000Y-108175000D03*
D34*
X187880000Y-66240000D03*
D28*
X157950000Y-93180000D03*
D29*
X160490000Y-98260000D03*
X155410000Y-98260000D03*
X154140000Y-95720001D03*
D31*
X153450000Y-93180000D03*
D29*
X161760000Y-95720000D03*
D30*
X163030000Y-93180000D03*
D31*
X162450000Y-93180000D03*
D30*
X152870000Y-93180000D03*
D32*
X160350000Y-86805000D03*
X160350000Y-88555000D03*
X155550000Y-88555000D03*
X155550000Y-86805000D03*
D33*
X150950000Y-95760000D03*
X163650000Y-98300000D03*
D27*
X141532100Y-127055000D03*
X141532100Y-128805000D03*
X145932100Y-128805000D03*
X145932100Y-127055000D03*
D26*
X97780000Y-54300000D03*
X97780000Y-50750000D03*
X92760000Y-92870000D03*
X92760000Y-89320000D03*
X126150000Y-73250000D03*
X126150000Y-69700000D03*
X136000000Y-54435000D03*
X136000000Y-50885000D03*
X92950000Y-130885000D03*
X92950000Y-127335000D03*
D29*
X198250000Y-136380000D03*
D31*
X196290000Y-131300000D03*
D28*
X200790000Y-131300000D03*
D29*
X196980000Y-133840001D03*
X203330000Y-136380000D03*
D30*
X195710000Y-131300000D03*
D29*
X204600000Y-133840000D03*
D30*
X205870000Y-131300000D03*
D31*
X205290000Y-131300000D03*
D32*
X203190000Y-124925000D03*
X203190000Y-126675000D03*
X198390000Y-126675000D03*
X198390000Y-124925000D03*
D33*
X193790000Y-133880000D03*
X206490000Y-136420000D03*
D26*
X88200000Y-73290000D03*
X88200000Y-69740000D03*
D29*
X169990000Y-117310000D03*
D30*
X162370000Y-112230000D03*
D29*
X163640000Y-114770001D03*
D30*
X172530000Y-112230000D03*
D29*
X171260000Y-114770000D03*
D31*
X162950000Y-112230000D03*
X171950000Y-112230000D03*
D28*
X167450000Y-112230000D03*
D29*
X164910000Y-117310000D03*
D32*
X169850000Y-105855000D03*
X169850000Y-107605000D03*
X165050000Y-107605000D03*
X165050000Y-105855000D03*
D33*
X160450000Y-114810000D03*
X173150000Y-117350000D03*
D31*
X71940000Y-55050000D03*
D29*
X71250000Y-57590000D03*
D28*
X67440000Y-55050000D03*
D29*
X69980000Y-60130000D03*
X63630000Y-57590001D03*
D30*
X62360000Y-55050000D03*
X72520000Y-55050000D03*
D29*
X64900000Y-60130000D03*
D31*
X62940000Y-55050000D03*
D32*
X69840000Y-48675000D03*
X69840000Y-50425000D03*
X65040000Y-50425000D03*
X65040000Y-48675000D03*
D33*
X60440000Y-57630000D03*
X73140000Y-60170000D03*
D26*
X140310000Y-111765000D03*
X140310000Y-108215000D03*
X169070000Y-92185000D03*
X169070000Y-88635000D03*
X130950000Y-92145000D03*
X130950000Y-88595000D03*
D27*
X203780000Y-52745000D03*
X203780000Y-54495000D03*
X208180000Y-54495000D03*
X208180000Y-52745000D03*
D26*
X173440000Y-54360000D03*
X173440000Y-50810000D03*
X102330000Y-111600000D03*
X102330000Y-108050000D03*
X192570000Y-130755000D03*
X192570000Y-127205000D03*
X164200000Y-73220000D03*
X164200000Y-69670000D03*
D34*
X83660000Y-67470000D03*
D28*
X181745000Y-55050000D03*
D29*
X179205000Y-60130000D03*
D31*
X186245000Y-55050000D03*
D29*
X185555000Y-57590000D03*
D30*
X186825000Y-55050000D03*
X176665000Y-55050000D03*
D29*
X184285000Y-60130000D03*
D31*
X177245000Y-55050000D03*
D29*
X177935000Y-57590001D03*
D32*
X184145000Y-48675000D03*
X184145000Y-50425000D03*
X179345000Y-50425000D03*
X179345000Y-48675000D03*
D33*
X174745000Y-57630000D03*
X187445000Y-60170000D03*
D26*
X159950000Y-111695000D03*
X159950000Y-108145000D03*
D34*
X183270000Y-135710000D03*
D26*
X106780000Y-73420000D03*
X106780000Y-69870000D03*
D31*
X181500000Y-93180000D03*
D29*
X174460000Y-98260000D03*
X173190000Y-95720001D03*
D28*
X177000000Y-93180000D03*
D29*
X179540000Y-98260000D03*
D30*
X182080000Y-93180000D03*
D29*
X180810000Y-95720000D03*
D31*
X172500000Y-93180000D03*
D30*
X171920000Y-93180000D03*
D32*
X179400000Y-86805000D03*
X179400000Y-88555000D03*
X174600000Y-88555000D03*
X174600000Y-86805000D03*
D33*
X170000000Y-95760000D03*
X182700000Y-98300000D03*
D34*
X64880000Y-111770000D03*
D31*
X160580000Y-131290000D03*
D28*
X165080000Y-131290000D03*
D30*
X160000000Y-131290000D03*
D29*
X162540000Y-136370000D03*
D30*
X170160000Y-131290000D03*
D31*
X169580000Y-131290000D03*
D29*
X167620000Y-136370000D03*
X161270000Y-133830001D03*
X168890000Y-133830000D03*
D32*
X167480000Y-124915000D03*
X167480000Y-126665000D03*
X162680000Y-126665000D03*
X162680000Y-124915000D03*
D33*
X158080000Y-133870000D03*
X170780000Y-136410000D03*
D26*
X66870000Y-92595000D03*
X66870000Y-89045000D03*
D30*
X158270000Y-74110000D03*
D29*
X155730000Y-79190000D03*
D31*
X148690000Y-74110000D03*
D29*
X149380000Y-76650001D03*
D30*
X148110000Y-74110000D03*
D28*
X153190000Y-74110000D03*
D29*
X150650000Y-79190000D03*
X157000000Y-76650000D03*
D31*
X157690000Y-74110000D03*
D32*
X155590000Y-67735000D03*
X155590000Y-69485000D03*
X150790000Y-69485000D03*
X150790000Y-67735000D03*
D33*
X146190000Y-76690000D03*
X158890000Y-79230000D03*
D31*
X176740000Y-74110000D03*
D29*
X168430000Y-76650001D03*
X176050000Y-76650000D03*
X169700000Y-79190000D03*
X174780000Y-79190000D03*
D28*
X172240000Y-74110000D03*
D30*
X167160000Y-74110000D03*
D31*
X167740000Y-74110000D03*
D30*
X177320000Y-74110000D03*
D32*
X174640000Y-67735000D03*
X174640000Y-69485000D03*
X169840000Y-69485000D03*
X169840000Y-67735000D03*
D33*
X165240000Y-76690000D03*
X177940000Y-79230000D03*
D27*
X205540000Y-118125000D03*
X205540000Y-116375000D03*
X201140000Y-116375000D03*
X201140000Y-118125000D03*
D21*
X207585000Y-96565000D03*
X214585000Y-94815000D03*
X207585000Y-94815000D03*
X214585000Y-96565000D03*
D22*
X205785000Y-98665000D03*
X205785000Y-92715000D03*
X209785000Y-92715000D03*
X209785000Y-98665000D03*
X212785000Y-98665000D03*
X212785000Y-92715000D03*
X204285000Y-96915000D03*
X204285000Y-94465000D03*
D30*
X143980000Y-93180000D03*
D29*
X135090000Y-95720001D03*
D30*
X133820000Y-93180000D03*
D29*
X141440000Y-98260000D03*
D31*
X143400000Y-93180000D03*
D28*
X138900000Y-93180000D03*
D29*
X136360000Y-98260000D03*
D31*
X134400000Y-93180000D03*
D29*
X142710000Y-95720000D03*
D32*
X141300000Y-86805000D03*
X141300000Y-88555000D03*
X136500000Y-88555000D03*
X136500000Y-86805000D03*
D33*
X131900000Y-95760000D03*
X144600000Y-98300000D03*
D29*
X122055000Y-60130000D03*
X120785000Y-57590001D03*
D30*
X119515000Y-55050000D03*
D28*
X124595000Y-55050000D03*
D31*
X120095000Y-55050000D03*
D29*
X127135000Y-60130000D03*
D31*
X129095000Y-55050000D03*
D30*
X129675000Y-55050000D03*
D29*
X128405000Y-57590000D03*
D32*
X126995000Y-48675000D03*
X126995000Y-50425000D03*
X122195000Y-50425000D03*
X122195000Y-48675000D03*
D33*
X117595000Y-57630000D03*
X130295000Y-60170000D03*
D28*
X72200000Y-74090000D03*
D29*
X76010000Y-76630000D03*
D30*
X67120000Y-74090000D03*
D29*
X69660000Y-79170000D03*
X68390000Y-76630001D03*
D30*
X77280000Y-74090000D03*
D29*
X74740000Y-79170000D03*
D31*
X76700000Y-74090000D03*
X67700000Y-74090000D03*
D32*
X74600000Y-67715000D03*
X74600000Y-69465000D03*
X69800000Y-69465000D03*
X69800000Y-67715000D03*
D33*
X65200000Y-76670000D03*
X77900000Y-79210000D03*
D35*
X204075000Y-78545000D03*
D36*
X207675000Y-78545000D03*
D23*
X198255000Y-50686750D03*
D24*
X198255000Y-53226750D03*
X198255000Y-55766750D03*
X198255000Y-58306750D03*
X198255000Y-60846750D03*
X198255000Y-63386750D03*
X198255000Y-65926750D03*
X198255000Y-68466750D03*
X198255000Y-71006750D03*
X198255000Y-73546750D03*
X198255000Y-76086750D03*
X198255000Y-78626750D03*
X213495000Y-78626750D03*
X213495000Y-76086750D03*
X213495000Y-73546750D03*
X213495000Y-71006750D03*
X213495000Y-68466750D03*
X213495000Y-65926750D03*
X213495000Y-63386750D03*
X213495000Y-60846750D03*
X213495000Y-58306750D03*
X213495000Y-55766750D03*
X213495000Y-53226750D03*
X213495000Y-50686750D03*
D26*
X64180000Y-73445000D03*
X64180000Y-69895000D03*
D37*
X211310000Y-47430000D03*
D38*
X206510000Y-47430000D03*
X201710000Y-47430000D03*
D27*
X76122100Y-63095000D03*
X76122100Y-64845000D03*
X80522100Y-64845000D03*
X80522100Y-63095000D03*
D26*
X111820000Y-92315000D03*
X111820000Y-88765000D03*
X121590000Y-131295000D03*
X121590000Y-127745000D03*
D25*
X202065000Y-82990000D03*
X204605000Y-82990000D03*
X207145000Y-82990000D03*
X209685000Y-82990000D03*
D31*
X152920000Y-112240000D03*
D30*
X143340000Y-112240000D03*
D29*
X144610000Y-114780001D03*
X150960000Y-117320000D03*
D30*
X153500000Y-112240000D03*
D29*
X152230000Y-114780000D03*
D28*
X148420000Y-112240000D03*
D29*
X145880000Y-117320000D03*
D31*
X143920000Y-112240000D03*
D32*
X150820000Y-105865000D03*
X150820000Y-107615000D03*
X146020000Y-107615000D03*
X146020000Y-105865000D03*
D33*
X141420000Y-114820000D03*
X154120000Y-117360000D03*
D30*
X74280000Y-112270000D03*
X84440000Y-112270000D03*
D28*
X79360000Y-112270000D03*
D29*
X76820000Y-117350000D03*
X81900000Y-117350000D03*
D31*
X74860000Y-112270000D03*
D29*
X75550000Y-114810001D03*
X83170000Y-114810000D03*
D31*
X83860000Y-112270000D03*
D32*
X81760000Y-105895000D03*
X81760000Y-107645000D03*
X76960000Y-107645000D03*
X76960000Y-105895000D03*
D33*
X72360000Y-114850000D03*
X85060000Y-117390000D03*
D29*
X133180000Y-114780000D03*
D31*
X133870000Y-112240000D03*
D30*
X124290000Y-112240000D03*
D31*
X124870000Y-112240000D03*
D30*
X134450000Y-112240000D03*
D29*
X125560000Y-114780001D03*
X126830000Y-117320000D03*
D28*
X129370000Y-112240000D03*
D29*
X131910000Y-117320000D03*
D32*
X131770000Y-105865000D03*
X131770000Y-107615000D03*
X126970000Y-107615000D03*
X126970000Y-105865000D03*
D33*
X122370000Y-114820000D03*
X135070000Y-117360000D03*
D29*
X74750000Y-136400001D03*
D31*
X76710000Y-131320001D03*
D29*
X69670000Y-136400001D03*
X76020000Y-133860001D03*
D30*
X77290000Y-131320001D03*
X67130000Y-131320001D03*
D29*
X68400000Y-133860002D03*
D28*
X72210000Y-131320001D03*
D31*
X67710000Y-131320001D03*
D32*
X74610000Y-124945001D03*
X74610000Y-126695001D03*
X69810000Y-126695001D03*
X69810000Y-124945001D03*
D33*
X65210000Y-133900001D03*
X77910000Y-136440001D03*
D26*
X64410000Y-130765000D03*
X64410000Y-127215000D03*
D27*
X83362100Y-128125000D03*
X83362100Y-129875000D03*
X87762100Y-129875000D03*
X87762100Y-128125000D03*
D26*
X178740000Y-111865000D03*
X178740000Y-108315000D03*
X154850000Y-54415000D03*
X154850000Y-50865000D03*
X145170000Y-73190000D03*
X145170000Y-69640000D03*
D30*
X114770000Y-93180000D03*
D28*
X119850000Y-93180000D03*
D31*
X115350000Y-93180000D03*
X124350000Y-93180000D03*
D29*
X122390000Y-98260000D03*
X116040000Y-95720001D03*
D30*
X124930000Y-93180000D03*
D29*
X117310000Y-98260000D03*
X123660000Y-95720000D03*
D32*
X122250000Y-86805000D03*
X122250000Y-88555000D03*
X117450000Y-88555000D03*
X117450000Y-86805000D03*
D33*
X112850000Y-95760000D03*
X125550000Y-98300000D03*
D28*
X162695000Y-55050000D03*
D30*
X157615000Y-55050000D03*
D31*
X158195000Y-55050000D03*
D30*
X167775000Y-55050000D03*
D29*
X165235000Y-60130000D03*
X166505000Y-57590000D03*
X160155000Y-60130000D03*
D31*
X167195000Y-55050000D03*
D29*
X158885000Y-57590001D03*
D32*
X165095000Y-48675000D03*
X165095000Y-50425000D03*
X160295000Y-50425000D03*
X160295000Y-48675000D03*
D33*
X155695000Y-57630000D03*
X168395000Y-60170000D03*
D29*
X108085000Y-60130000D03*
D30*
X100465000Y-55050000D03*
D31*
X110045000Y-55050000D03*
D29*
X109355000Y-57590000D03*
X101735000Y-57590001D03*
D30*
X110625000Y-55050000D03*
D29*
X103005000Y-60130000D03*
D31*
X101045000Y-55050000D03*
D28*
X105545000Y-55050000D03*
D32*
X107945000Y-48675000D03*
X107945000Y-50425000D03*
X103145000Y-50425000D03*
X103145000Y-48675000D03*
D33*
X98545000Y-57630000D03*
X111245000Y-60170000D03*
D30*
X124280000Y-131300000D03*
D29*
X133170000Y-133840000D03*
X125550000Y-133840001D03*
D31*
X133860000Y-131300000D03*
D29*
X126820000Y-136380000D03*
D31*
X124860000Y-131300000D03*
D30*
X134440000Y-131300000D03*
D28*
X129360000Y-131300000D03*
D29*
X131900000Y-136380000D03*
D32*
X131760000Y-124925000D03*
X131760000Y-126675000D03*
X126960000Y-126675000D03*
X126960000Y-124925000D03*
D33*
X122360000Y-133880000D03*
X135060000Y-136420000D03*
D29*
X98580000Y-79190000D03*
X92230000Y-76650001D03*
X99850000Y-76650000D03*
X93500000Y-79190000D03*
D30*
X90960000Y-74110000D03*
D31*
X91540000Y-74110000D03*
D30*
X101120000Y-74110000D03*
D31*
X100540000Y-74110000D03*
D28*
X96040000Y-74110000D03*
D32*
X98440000Y-67735000D03*
X98440000Y-69485000D03*
X93640000Y-69485000D03*
X93640000Y-67735000D03*
D33*
X89040000Y-76690000D03*
X101740000Y-79230000D03*
D31*
X90995000Y-55050000D03*
D29*
X90305000Y-57590000D03*
X83955000Y-60130000D03*
X82685000Y-57590001D03*
D30*
X81415000Y-55050000D03*
D29*
X89035000Y-60130000D03*
D28*
X86495000Y-55050000D03*
D31*
X81995000Y-55050000D03*
D30*
X91575000Y-55050000D03*
D32*
X88895000Y-48675000D03*
X88895000Y-50425000D03*
X84095000Y-50425000D03*
X84095000Y-48675000D03*
D33*
X79495000Y-57630000D03*
X92195000Y-60170000D03*
D29*
X104530000Y-133850000D03*
D31*
X105220000Y-131310000D03*
D30*
X95640000Y-131310000D03*
D31*
X96220000Y-131310000D03*
D30*
X105800000Y-131310000D03*
D29*
X103260000Y-136390000D03*
D28*
X100720000Y-131310000D03*
D29*
X96910000Y-133850001D03*
X98180000Y-136390000D03*
D32*
X103120000Y-124935000D03*
X103120000Y-126685000D03*
X98320000Y-126685000D03*
X98320000Y-124935000D03*
D33*
X93720000Y-133890000D03*
X106420000Y-136430000D03*
D26*
X116770000Y-54180000D03*
X116770000Y-50630000D03*
X78280000Y-54350000D03*
X78280000Y-50800000D03*
X150210000Y-92895000D03*
X150210000Y-89345000D03*
D28*
X110320000Y-112240000D03*
D29*
X112860000Y-117320000D03*
X114130000Y-114780000D03*
D30*
X105240000Y-112240000D03*
D31*
X105820000Y-112240000D03*
D30*
X115400000Y-112240000D03*
D29*
X107780000Y-117320000D03*
X106510000Y-114780001D03*
D31*
X114820000Y-112240000D03*
D32*
X112720000Y-105865000D03*
X112720000Y-107615000D03*
X107920000Y-107615000D03*
X107920000Y-105865000D03*
D33*
X103320000Y-114820000D03*
X116020000Y-117360000D03*
D39*
X214130000Y-89415000D03*
X214130000Y-82915000D03*
D29*
X147455000Y-57590000D03*
D28*
X143645000Y-55050000D03*
D29*
X141105000Y-60130000D03*
D30*
X138565000Y-55050000D03*
X148725000Y-55050000D03*
D29*
X146185000Y-60130000D03*
D31*
X139145000Y-55050000D03*
D29*
X139835000Y-57590001D03*
D31*
X148145000Y-55050000D03*
D32*
X146045000Y-48675000D03*
X146045000Y-50425000D03*
X141245000Y-50425000D03*
X141245000Y-48675000D03*
D33*
X136645000Y-57630000D03*
X149345000Y-60170000D03*
D30*
X105880000Y-93180000D03*
D29*
X96990000Y-95720001D03*
D28*
X100800000Y-93180000D03*
D31*
X105300000Y-93180000D03*
X96300000Y-93180000D03*
D29*
X103340000Y-98260000D03*
D30*
X95720000Y-93180000D03*
D29*
X104610000Y-95720000D03*
X98260000Y-98260000D03*
D32*
X103200000Y-86805000D03*
X103200000Y-88555000D03*
X98400000Y-88555000D03*
X98400000Y-86805000D03*
D33*
X93800000Y-95760000D03*
X106500000Y-98300000D03*
D26*
X71480000Y-111740000D03*
X71480000Y-108190000D03*
X59570000Y-54490000D03*
X59570000Y-50940000D03*
D31*
X119590000Y-74110000D03*
D30*
X110010000Y-74110000D03*
X120170000Y-74110000D03*
D29*
X117630000Y-79190000D03*
D28*
X115090000Y-74110000D03*
D29*
X112550000Y-79190000D03*
X118900000Y-76650000D03*
D31*
X110590000Y-74110000D03*
D29*
X111280000Y-76650001D03*
D32*
X117490000Y-67735000D03*
X117490000Y-69485000D03*
X112690000Y-69485000D03*
X112690000Y-67735000D03*
D33*
X108090000Y-76690000D03*
X120790000Y-79230000D03*
M02*
